<?xml version="1.0" encoding="utf-8"?>
<!-- Generator: Adobe Illustrator 24.3.0, SVG Export Plug-In . SVG Version: 6.00 Build 0)  -->
<svg version="1.1" id="Ebene_1" xmlns="http://www.w3.org/2000/svg" xmlns:xlink="http://www.w3.org/1999/xlink" x="0px" y="0px"
	 viewBox="0 0 170 48" style="enable-background:new 0 0 170 48;" xml:space="preserve">
<style type="text/css">
	.st0{fill:#FFFFFF;}
</style>
<path class="st0" d="M82.46,38.875h1.957l-3.403,9.118h-2.16L78.185,46.2l-0.669,1.792h-2.162l-3.403-9.118h2.161l2.405,7.185h0.026
	l0.753-2.238l-1.848-4.948h2.162l0.673,2.013l0.678-2.013h1.957l-1.745,4.674l0.84,2.511h0.026L82.46,38.875z M85.726,47.993h1.98
	v-9.118h-1.98V47.993z M96.335,41.679c0,1.654-1.137,2.741-3.197,2.804h-1.443v3.51h-1.988v-9.118h2.857
	C94.608,38.886,96.335,39.368,96.335,41.679z M94.226,41.679c0-1.617-1.435-1.238-2.532-1.288v2.577
	C92.792,42.917,94.226,43.295,94.226,41.679z M104.377,41.679c0,1.654-1.139,2.741-3.198,2.804h-1.444v3.51h-1.986v-9.118h2.854
	C102.649,38.886,104.377,39.368,104.377,41.679z M102.265,41.679c0-1.617-1.434-1.238-2.53-1.288v2.577
	C100.831,42.917,102.265,43.295,102.265,41.679z M108.098,44.04h3.941v-1.515h-3.941v-2.134h4.208v-1.516h-6.192v9.118h6.332v-1.514
	h-4.348V44.04z M121.504,45.828c0.088,0.581,0.164,1.658,0.536,2.165h-2.187c-0.165-0.811-0.254-1.634-0.345-2.457
	c-0.05-0.507-0.178-1.205-0.831-1.232h-2.1v3.688h-1.983v-9.118h3.926c1.589,0.012,3.213,0.521,3.213,2.369
	c0,1.183-0.782,1.965-1.921,2.204v0.024C121.338,43.637,121.338,44.559,121.504,45.828z M119.624,41.547
	c0-0.806-0.515-1.144-1.383-1.156h-1.664v2.4h1.664C119.109,42.781,119.624,42.35,119.624,41.547z M128.976,45.505h-0.026
	l-1.932-6.63h-3.248v9.118h1.855v-7.805l0.022-0.024l2.445,7.829h1.651l2.585-7.829l0.025,0.024v7.805h1.855v-9.118h-3.133
	L128.976,45.505z M141.16,38.875l3.213,9.118h-1.998l-0.663-1.933h-3.658l-0.691,1.933h-1.893l3.337-9.118H141.16z M141.213,44.546
	l-1.267-3.889h-0.024l-1.356,3.889H141.213z M152.094,46.021l-0.025,0.028l-3.517-7.175h-2.941v9.118h1.852v-7.551l0.027-0.026
	l3.644,7.577h2.813v-9.118h-1.854V46.021z M162.684,46.021l-0.025,0.028l-3.514-7.175h-2.943v9.118h1.853v-7.551l0.025-0.026
	l3.643,7.577h2.818v-9.118h-1.858V46.021z M59.567,43.873c0.265,0.407,0.396,0.898,0.396,1.47c0,0.462-0.083,0.861-0.256,1.2
	c-0.169,0.338-0.398,0.613-0.687,0.827c-0.287,0.214-0.615,0.372-0.985,0.475c-0.368,0.103-0.747,0.154-1.136,0.154h-4.204v-9.163
	h4.082c0.414,0,0.79,0.04,1.133,0.116c0.338,0.077,0.63,0.203,0.874,0.379c0.242,0.176,0.431,0.41,0.564,0.699
	c0.135,0.293,0.202,0.65,0.202,1.079c0,0.461-0.1,0.846-0.298,1.155c-0.199,0.305-0.491,0.56-0.882,0.759
	C58.906,43.186,59.306,43.47,59.567,43.873z M54.603,42.547h1.931c0.341,0,0.621-0.087,0.841-0.259
	c0.219-0.17,0.329-0.447,0.329-0.834c0-0.213-0.037-0.388-0.109-0.526c-0.075-0.136-0.171-0.244-0.293-0.32
	c-0.121-0.078-0.261-0.131-0.418-0.16c-0.16-0.031-0.323-0.046-0.492-0.046h-1.788V42.547z M58.055,45.229
	c0-0.471-0.127-0.807-0.377-1.007c-0.252-0.201-0.583-0.303-0.996-0.303h-2.079v2.515h2.042c0.186,0,0.364-0.017,0.535-0.058
	c0.171-0.037,0.321-0.102,0.449-0.192c0.13-0.089,0.232-0.212,0.309-0.366C58.015,45.663,58.055,45.469,58.055,45.229z
	 M64.486,42.458l-2.03-3.621h-2.141l3.185,5.596V48h1.909v-3.517l3.221-5.646h-2.126L64.486,42.458z M8.04,28.404
	c-0.688,0-1.267-0.247-1.741-0.742c-0.474-0.493-0.711-1.077-0.711-1.747V15.147c0-0.638,0.205-1.14,0.615-1.507
	c0.41-0.368,0.96-0.551,1.649-0.551h10.824l-0.05-5.28H7.892H6.569C4.444,8.098,2.818,8.78,1.692,9.853
	C0.564,10.928,0,12.49,0,14.542v12.264c0,2.052,0.831,3.735,2.494,5.05c1.564,1.218,3.405,1.828,5.525,1.828h10.707l-0.049-5.28
	H8.04z M47.402,14.061v12.937c0,2.021-0.742,3.639-2.226,4.857c-1.484,1.218-3.285,1.828-5.406,1.828h-8.072
	c-2.121,0-3.899-0.575-5.332-1.725c-1.566-1.245-2.349-2.891-2.349-4.936V14.133c0-2.107,0.75-3.72,2.251-4.839
	c1.337-0.99,3.13-1.485,5.381-1.485h8.073h1.125c1.988,0.289,3.538,0.898,4.648,1.828C46.766,10.695,47.402,12.169,47.402,14.061z
	 M41.814,15.482c0-1.595-0.834-2.393-2.501-2.393h-7.108c-1.734,0-2.6,0.798-2.6,2.393v10.193c0,0.925,0.189,1.612,0.569,2.059
	c0.379,0.447,1.046,0.67,2.002,0.67h7.217c1.615,0,2.422-0.846,2.422-2.537V15.482z M75.774,33.684V14.757
	c0-2.363-0.72-4.112-2.157-5.246c-1.438-1.134-3.383-1.702-5.834-1.702h-7.01c-2.452,0-4.404,0.568-5.858,1.702
	c-1.454,1.133-2.182,2.866-2.182,5.198l-0.038,18.975h5.626V15.226c0-0.863,0.179-1.423,0.539-1.678
	c0.359-0.255,1.013-0.383,1.961-0.383h6.962c0.588,0,1.135,0.096,1.642,0.288c0.506,0.192,0.76,0.527,0.76,1.006v19.225H75.774z
	 M97.796,13.452c0.507,0.192,0.761,0.527,0.761,1.006v19.225h5.587V14.757c0-2.363-0.719-4.112-2.156-5.246
	c-1.438-1.134-3.383-1.702-5.834-1.702h-7.011c-2.451,0-4.403,0.568-5.858,1.702c-1.454,1.133-2.182,2.866-2.182,5.198
	l-0.038,18.975h5.627V15.226c0-0.863,0.178-1.423,0.538-1.678c0.36-0.255,1.013-0.383,1.961-0.383h6.962
	C96.743,13.164,97.29,13.26,97.796,13.452z M117.263,33.684c-1.369,0-2.551-0.191-3.546-0.575c-0.995-0.383-1.883-1.07-2.666-2.06
	c-1.076-1.31-1.613-2.795-1.613-4.457V15.523c0-2.618,0.775-4.559,2.328-5.821c1.552-1.261,3.701-1.893,6.445-1.893h6.617
	c2.287,0,4.109,0.591,5.465,1.772c1.356,1.182,2.034,2.89,2.034,5.125l0.048,3.304l-17.35,7.478v0.621l0.099,0.718
	c0.132,0.638,0.369,1.059,0.713,1.266c0.343,0.208,0.876,0.311,1.597,0.311h15.187l0.049,5.28H117.263z M115.025,15.633l0.013,4.081
	l11.709-5.048c0-0.669-0.155-1.099-0.465-1.29c-0.311-0.192-0.859-0.288-1.644-0.288h-7.258
	C115.81,13.089,115.025,13.936,115.025,15.633z M155.004,19.849L169.687,0l-6.943,0.01l-11.572,15.691l-5.703-7.888l-6.95-0.004
	l8.964,12.04H155.004z M157.684,33.684l6.858,0.006l-9.575-12.926h-7.482l-9.571,12.921l6.899-0.014l6.345-8.796L157.684,33.684z"/>
</svg>
