<?xml version="1.0" encoding="UTF-8"?><svg id="ergotec_logo_positiv" xmlns="http://www.w3.org/2000/svg" viewBox="0 0 204.09 42.79"><defs><style>.cls-1,.cls-2{stroke-width:0px;}.cls-2{fill:#fff;}</style></defs><path class="cls-1" d="m183.89,5.24c-2.88,0-7.25.59-10.43,3.68-.19-.38-.4-.7-.61-.97-1.38-1.79-3.6-2.7-6.61-2.7h-30.36s1.4-5.24,1.4-5.24h-12.98l-1.4,5.24h-21.34c-3.39,0-8.86.82-11.99,5.57-.26-.77-.64-1.49-1.13-2.13-1.78-2.32-4.72-3.44-8.99-3.44h-31.54c-3.32,0-8.64.79-11.8,5.29-.23-1.13-.69-1.98-1.15-2.59-1.38-1.79-3.6-2.7-6.61-2.7h-13.2c-3.79,0-10.45,1.11-12.44,8.53L.44,22.28c-.84,3.13-.49,5.73,1.04,7.72,1.65,2.15,4.32,3.2,8.15,3.2h41.57l-2.57,9.59h23.25c4.17,0,11.5-1.24,13.72-9.52l.02-.07h21.1c3.27,0,8.48-.75,11.64-5.03.24.56.54,1.08.92,1.57,1.78,2.31,4.72,3.44,8.99,3.44l68.33.02,7.49-27.95h-20.2Z"/><path class="cls-2" d="m198.52,8.93h-14.1c-5.6,0-8.97,2.28-10.19,6.84l-1.86,6.94c-1.22,4.56.94,6.81,6.54,6.81h11.1c1.72,0,3.23-1.16,3.68-2.82l.41-1.53h-14.02c-2.11,0-2.97-.9-2.49-2.69l1.66-6.18c.55-2.04,1.53-3.25,4.08-3.25h11.18c1.72,0,3.23-1.16,3.68-2.82l.34-1.29Z"/><path class="cls-2" d="m129.99,13.04h6.55c1.73,0,3.24-1.16,3.68-2.83l.34-1.28h-9.47l1.41-5.28h-5.15l-1.41,5.28h-2.13l-1.09,4.11h2.13l-2.56,9.61c-1.22,4.56.93,6.84,6.53,6.84h5.95c1.72,0,3.23-1.16,3.68-2.82l.35-1.29h-8.87c-2.66,0-2.88-1.24-2.32-3.35l2.4-8.99Z"/><path class="cls-2" d="m79.98,8.93h-10.68c-5.6,0-8.97,2.28-10.19,6.84l-1.86,6.94c-1.22,4.56.94,6.81,6.54,6.81h10.68c.1,0,.19-.01.29-.02h2.93l-.57,2.14c-.56,2.07-2.08,3.11-4.5,3.11h-14.56c-1.72,0-3.23,1.16-3.68,2.82l-.41,1.53h17.93c5.6,0,8.96-2.25,10.19-6.81l4.02-14.99h0s.41-1.54.41-1.54c1.22-4.56-.93-6.84-6.53-6.84Zm1.31,7.22l-1.6,5.98c-.58,2.18-1.64,3.04-4.51,3.04h-9.78c-2.63,0-3.47-.73-2.83-3.11l1.59-5.94c.58-2.18,1.65-3.07,4.49-3.07h10.23c2.38,0,2.97,1.04,2.41,3.11Z"/><path class="cls-2" d="m28.88,8.93h-13.2c-4.87,0-7.84,1.93-8.88,5.8l-2.28,8.5c-1.13,4.22.77,6.29,5.64,6.29h15.15c1.72,0,3.23-1.16,3.68-2.82l.41-1.53H11.78c-1.76,0-2.39-.9-1.95-2.52l.46-1.73h15.38c3.52,0,5.66-1.52,6.49-4.63l.69-2.59c.85-3.18-.45-4.77-3.97-4.77Zm-1.55,6.18l-.1.38c-.36,1.35-1.27,2.04-2.65,2.04h-13.37l.6-2.25c.56-2.07,2.29-2.25,4.89-2.25h9.09c1.38,0,1.93.66,1.55,2.07Z"/><path class="cls-2" d="m57.05,10.21l.34-1.29h-8.95c-5.6,0-8.97,2.28-10.19,6.84l-3.68,13.75h5.15l3.52-13.13c.56-2.11,1.45-3.35,4.11-3.35h6.03c1.72,0,3.23-1.16,3.68-2.82Z"/><path class="cls-2" d="m112.77,8.93h-10.68c-5.6,0-8.97,2.28-10.19,6.84l-1.86,6.94c-1.22,4.56.94,6.81,6.54,6.81h10.68c5.6,0,8.96-2.25,10.17-6.74l1.88-7.01c1.22-4.56-.93-6.84-6.53-6.84Zm1.31,7.22l-1.6,5.98c-.58,2.18-1.64,3.04-4.51,3.04h-9.78c-2.63,0-3.47-.73-2.83-3.11l1.59-5.94c.58-2.18,1.65-3.07,4.49-3.07h10.23c2.38,0,2.97,1.04,2.41,3.11Z"/><path class="cls-2" d="m166.77,8.93h-13.2c-4.87,0-7.84,1.93-8.88,5.8l-2.28,8.5c-1.13,4.22.77,6.29,5.64,6.29h15.15c1.72,0,3.23-1.16,3.68-2.82l.41-1.53h-17.62c-1.76,0-2.39-.9-1.95-2.52l.46-1.73h15.38c3.52,0,5.66-1.52,6.49-4.63l.69-2.59c.85-3.18-.45-4.77-3.97-4.77Zm-1.55,6.18l-.1.38c-.36,1.35-1.27,2.04-2.65,2.04h-13.37l.6-2.25c.56-2.07,2.29-2.25,4.89-2.25h9.09c1.38,0,1.93.66,1.55,2.07Z"/></svg>