<svg width="243" height="40" viewBox="0 0 243 40" fill="none" xmlns="http://www.w3.org/2000/svg">
<g clip-path="url(#clip0_1_17)">
<mask id="mask0_1_17" style="mask-type:luminance" maskUnits="userSpaceOnUse" x="0" y="0" width="243" height="40">
<path d="M243 0.555557H0V39.4444H243V0.555557Z" fill="white"/>
</mask>
<g mask="url(#mask0_1_17)">
<path d="M204.403 38.8813H223.193V32.2824H211.87V25.5007H222.37V18.998H211.87V12.7264H223.193V6.13233H204.403V38.8813Z" fill="black"/>
<path d="M196.94 21.5249C198.724 19.9318 200.023 17.9199 200.023 15.21C200.023 10.3439 196.167 6.13233 188.799 6.13233H177.482V38.8861H189.959C197.57 38.8861 201.469 34.3954 201.469 29.0624C201.469 26.1167 199.735 23.2143 196.94 21.5298V21.5249ZM184.801 12.3991H188.893C191.351 12.3991 192.793 13.896 192.793 15.8164C192.793 17.737 191.252 19.3734 188.938 19.3734H184.796V12.4039L184.801 12.3991ZM189.904 32.6097H184.801V24.9857H190.003C192.654 24.9857 194.195 26.8098 194.195 28.7303C194.195 30.978 192.511 32.6146 189.909 32.6146L189.904 32.6097Z" fill="black"/>
<path d="M164.232 38.8813H174.925V32.2824H164.663V6.13233H157.151V31.8203C157.151 37.0138 158.935 38.8861 164.232 38.8861" fill="black"/>
<path d="M145.69 5.80022C141.404 5.80022 139.233 8.51487 137.405 12.0718L123.679 38.8813H131.771L134.66 33.1248H145.016V38.8813H152.434V13.15C152.434 8.47155 149.976 5.80504 145.69 5.80504V5.80022ZM145.031 26.7617H137.9L145.031 12.5868V26.7617Z" fill="black"/>
<path d="M115.459 11.7927C115.459 7.95654 113.437 5.80504 110.018 5.80504C107.367 5.80504 105.489 7.16236 104.047 10.1562L94.9447 29.2453V6.13234H87.7201V33.4087C87.7201 37.0571 89.8409 39.2086 93.2104 39.2086C95.8614 39.2086 97.784 37.8513 99.2804 34.8574L109.057 14.3629V33.4039C109.057 37.0523 111.128 39.2038 114.403 39.2038C117.198 39.2038 118.977 37.8464 120.523 34.8527L135.071 6.12272H127.029L115.469 29.2838V11.7927H115.459Z" fill="black"/>
<path d="M57.9945 38.8813H65.5064V25.1252H75.3324V38.8813H82.8493V6.13233H75.3324V18.5311H65.5064V6.13233H57.9945V38.8813Z" fill="black"/>
<path d="M22.3971 22.5068C22.3971 32.0996 30.2013 39.4445 40.0273 39.4445C47.014 39.4445 52.7916 35.8875 55.6805 30.1358L48.9366 26.8147C47.2023 30.463 44.1698 32.4317 40.1215 32.4317C34.5816 32.4317 30.3896 28.172 30.3896 22.5117C30.3896 16.8513 34.5816 12.5917 40.1215 12.5917C44.1698 12.5917 47.1527 14.5555 48.9366 18.2087L55.6805 14.8876C52.7916 9.13096 47.009 5.57883 40.0273 5.57883C30.2013 5.57883 22.3971 12.9238 22.3971 22.5164" fill="black"/>
<path d="M1.06039 38.8813H11.4166C16.7631 38.8813 21.4853 36.5421 21.4853 30.3668C21.4853 26.1071 18.4974 23.4887 15.2221 21.241L9.82596 17.4963C8.57232 16.654 7.66059 15.8598 7.66059 14.6902C7.66059 13.5206 8.62188 12.8179 10.4553 12.8179H19.5132V6.12753H10.0737C2.31403 6.13234 0 10.7626 0 14.2714C0 18.3434 2.93837 21.1013 6.02045 23.2529L11.7039 27.2767C12.9576 28.119 13.9684 28.9613 13.9684 30.1309C13.9684 31.392 13.0071 32.191 11.367 32.191H1.06039V38.8813Z" fill="black"/>
<path d="M242.929 10.6856L240.828 9.71816L238.856 0.645289C238.831 0.529773 238.667 0.524959 238.633 0.635663L236.557 7.74957L227.573 3.61985C227.454 3.5669 227.35 3.71129 227.444 3.79794L235.308 11.6049L231.126 16.7502C231.051 16.8464 231.16 16.9717 231.269 16.9187L242.939 10.883C243.023 10.8396 243.018 10.7241 242.939 10.6856" fill="black"/>
</g>
</g>
<defs>
<clipPath id="clip0_1_17">
<rect width="243" height="40" fill="white"/>
</clipPath>
</defs>
</svg>
