<svg xmlns="http://www.w3.org/2000/svg" version="1.1" viewBox="0 0 185.3 22.3">
    <polygon style="fill:#9A9385;" points="53.2,0.4 46.8,22.2 55.5,22.2 61.8,0.4 "/>
    <polygon style="fill:#9A9385;" points="86.5,0.4 82.2,14.9 74.9,0.4 66.2,0.4 59.9,22.2 68.6,22.2 72.9,7.6 80.2,22.2 88.8,22.2 95.2,0.4 "/>
    <path style="fill:#9A9385;" d="M36.3,14.1c-0.7,2.2-2.3,3.4-4.5,3.4l-4.4,0l4.9-17.1h-8.7l-5,17.1h-7.9l5-17.1H6.3L0,22.2h35.2
        c4.4,0,8.2-2.7,9.7-7.8l4.1-14.1h-8.7L36.3,14.1z"/>
    <path style="fill:#9A9385;" d="M136.4,10.1l2.1-7.4h5.4h0c1.7,0,2.9,0.9,2.2,3.5L146,6.6c-0.6,2.3-2.4,3.6-4.1,3.6L136.4,10.1z M151.7,17.1
        c0.7-2.8-1.3-4.7-3-4.8c1.7,0,4.4-0.5,5.7-4.5l0.2-0.8c0.9-2.9-0.2-6.6-5.9-6.6h-18.2l-6.3,21.8h8.7l2.8-9.7h4.1
        c2.6,0,4.1,1.6,3.4,3.9l-1.7,5.8h1.8h6.8L151.7,17.1z"/>
    <path style="fill:#9A9385;" d="M113.5,15.6c-0.9,3.1-2.9,4.3-5.7,4.3h-1c-3.1,0-4.3-1-3.3-4.3l2.6-8.9c1.1-3.3,3.6-4.3,5.9-4.3l1.3,0
        c3.1,0,3.7,1.7,3,4L113.5,15.6z M94.5,15.9c-0.8,3.5,1.3,6.3,4.8,6.4h0.3h12.5c5.8,0,9-2.8,10.3-6.9l2.5-8.6
        c1.1-3.9-1.1-6.9-5.5-6.9h-12c-5.8,0-8.9,2.7-10.3,6.9L94.5,15.9z"/>
    <path style="fill:#9A9385;" d="M167.4,7.1c1.1-3.3,3.6-4.3,5.9-4.3l0.2,0c3.1,0,3.7,1.7,3,4l-1,3.4h-9l0,0L167.4,7.1z M185,7.3
        c1.1-3.9-1.1-6.9-5.5-6.9h-10.8c-5.7,0-8.9,2.7-10.3,6.9l-4.3,14.9h8.9l2.8-9.7h9l-2.8,9.7h8.7L185,7.3z"/>
</svg>
