<svg xmlns="http://www.w3.org/2000/svg" version="1.1" viewBox="0 0 118.5 61.4" preserveAspectRatio="xMidYMid meet">
    <path fill="#000000" d="M59.4,61.4H59c-12.6,0-23-10.1-23.4-22.5l0,0v-0.8V22.6C36.1,10,46.5,0,59.1,0h0.3c10.5,0,19.8,7.1,22.5,17.3l0.2,1.1H68.4
        L68.2,18c-1.9-3-5.2-4.8-8.8-4.8H59c-5.7,0-10.3,4.7-10.3,10.3v14.6c0,5.7,4.7,10.3,10.4,10.4h0.3c5.7,0,10.3-4.7,10.3-10.3v-5.7
        l-12-6.2l-2.8-1.6h27.9V39C82.4,51.4,72.1,61.4,59.4,61.4z M37.3,37.5V38c0,12,9.8,21.7,21.8,21.8h0.3c12,0,21.7-9.8,21.7-21.7V26.2
        H61.4l10,5.2V38c0,6.6-5.4,12-12,12h-0.3c-6.6,0-12-5.4-12-12V23.4c-0.1-6.6,5.3-12,12-12h0.3c4,0,7.6,2,9.9,5.2h10.8
        c-3-8.9-11.3-15.1-20.8-15.1H59c-12,0-21.7,9.8-21.7,21.8V37.5z M85.7,41.5v-17h32.8L85.7,41.5z M87.3,26.2v12.7l24.5-12.7H87.3z
        M32.8,41.5L0,24.6h32.8V41.5z M6.7,26.2l24.4,12.7V26.2H6.7z"/>
</svg>
