<svg xmlns="http://www.w3.org/2000/svg" version="1.1" viewBox="0 0 432.1 36.8" enable-background="new 0 0 432.1 36.8">
    <path fill="#264589" d="M177.6,36.8l2.2-8.1l2.8-10.3c0.4-1.5-0.5-2.6-1.9-2.6H167l-0.7,2.6l-2.8,10.5l-2.1,7.9H153l2.1-7.9l5.6-21.1 l2.1-7.9h8.3l-2.1,7.9h14.1c5.8,0,9.3,4.7,7.7,10.5l-4.9,18.4H177.6z M153.2,15.8l2.1-7.9h-17.1c-8,0-16.2,6.5-18.3,14.5 c-2.1,8,2.6,14.5,10.6,14.5h17.1l1.8-6.6l0.4-1.3H133c-3.6,0-5.8-2.9-4.8-6.6c1-3.6,4.7-6.6,8.3-6.6H153.2z M39,22.4 c-2.1,8-10.4,14.5-18.3,14.5H5.6c-4,0-6.4-3.2-5.3-7.2l1.9-7.2L6.1,7.9L8.2,0h8.3l-2.1,7.9h14.1C36.4,7.9,41.2,14.4,39,22.4 M30.7,22.4c1-3.6-1.2-6.6-4.8-6.6H12.3l-2.1,7.9l-0.7,2.6l-0.4,1.3c-0.2,0.7,0.2,1.3,1,1.3h12.3C26,28.9,29.7,26,30.7,22.4 M72.8,36.8l7.8-28.9h-8.3l-2.1,7.9l-2.8,10.5l-0.7,2.6H53c-1.5,0-2.3-1.2-1.9-2.6L53.8,16L56,7.9h-8.3l-4.9,18.4 c-1.6,5.8,1.9,10.5,7.7,10.5H72.8z M101.9,15.8h15l2.1-7.9H95.1c-5,0-10.1,4-11.4,9c-1.3,5,1.6,9,6.6,9c0.1,0,0.1,0,0.2,0l0,0h15.2 c0.8,0,1.3,0.7,1.1,1.5s-1.1,1.5-1.9,1.5H81.8l-2.1,7.9h23.9c5,0,10.1-4,11.4-9c1.3-5-1.6-9-6.6-9c-0.1,0-0.1,0-0.2,0l0,0H93 c-0.8,0-1.3-0.7-1.1-1.5c0.2-0.8,1.1-1.5,1.9-1.5H101.9z M283.8,36.8c-5.8,0-9.3-4.7-7.7-10.5l4.9-18.4h8.3l-2.2,8.1l-2.8,10.3 c-0.4,1.5,0.5,2.6,1.9,2.6H300l0.7-2.6l2.8-10.5l2.1-7.9h8.3l-7.8,28.9H283.8z M300.7,0h5.3l-2.1,7.9h-5.3L300.7,0z M293.3,0h5.3 l-2.1,7.9h-5.3L293.3,0z M267.2,36.8l4.9-18.4c1.6-5.8-1.9-10.5-7.7-10.5h-31.6l-7.8,28.9h8.3l2.1-7.9l2.8-10.5l0.7-2.6h8.6 L242,36.8h8.3l5.6-21.1h5.9c1.5,0,2.3,1.2,1.9,2.6l-2.8,10.3l-2.2,8.1H267.2z M382.7,25.9h-18.2c0.6,1.7,2.2,2.9,4.3,3l0,0h20.8h0.3 l-2.1,7.9h-21.1c-8,0-12.7-6.5-10.6-14.5c2.1-8,10.4-14.5,18.4-14.5h7.9c8,0,12.7,6.5,10.6,14.5l-0.9,3.5H382.7z M384.6,18.8 c-0.7-1.8-2.4-3.1-4.7-3.1h-7.1c-2.3,0-4.7,1.2-6.4,3.1H384.6 M330.4,0h-8.3l-7.1,26.3c-1.6,5.8,1.9,10.5,7.7,10.5h7.9l1-3.6 l1.2-4.3h-7.5c-1.5,0-2.3-1.2-1.9-2.6l2.8-10.3L330.4,0z M351,0h-8.3l-7.1,26.3c-1.6,5.8,1.9,10.5,7.7,10.5h7.9l1-3.6l1.2-4.3h-7.5 c-1.5,0-2.3-1.2-1.9-2.6l2.8-10.3L351,0z M430,15.8l2.1-7.9h-19.7c-5.8,0-11.8,4.7-13.3,10.5l-4.9,18.4h8.3l2.2-8.1l2.8-10.3 c0.4-1.5,1.9-2.6,3.3-2.6H430z M212,7.9l-3.5,13.2h-13.1l-0.7,2.6h13.1l-3.5,13.2h2.8l3.5-13.2h13.1l0.7-2.6h-13.1l3.5-13.2H212z"></path>
</svg>
