<svg xmlns="http://www.w3.org/2000/svg" version="1.1" viewBox="0 0 2154 585.4">
    <rect style="fill:#12100B;" x="2024" y="158.8" width="123.9" height="410.1"/>
    <path style="fill:#12100B;" d="M2081.6,144.8c40,0,72.4-32.4,72.4-72.4S2121.6,0,2081.6,0s-72.4,32.4-72.4,72.4S2041.6,144.8,2081.6,144.8"/>
    <rect style="fill:#12100B;" x="1706.5" y="21.2" width="123.9" height="547.7"/>
    <rect style="fill:#12100B;" x="1862.1" y="21.2" width="123.9" height="547.7"/>
    <path style="fill:#12100B;" d="M1420.9,395.4c-3.1,0-5.1,0.5-6.1,2.6c8.2,30.7,26.6,63.5,59.4,72.7c29.7,10.3,59.4-2,79.9-23.5
        c6.1-8.2,14.3-16.4,19.5-24.6c4.1-4.1,8.2,0,12.3,2c30.7,18.4,61.4,33.8,92.1,52.2c2,3.1,1,6.1,0,8.2
        c-23.5,34.8-58.3,64.5-95.2,78.8c-65.5,33.8-160.7,28.7-216-20.5c-46.1-34.8-69.6-85-80.8-137.2c-9.2-69.6,6.1-139.2,47.1-192.5
        c45.1-46.1,105.4-67.6,172-61.4c65.5,7.2,126.9,52.2,153.5,113.6c18.4,39.9,24.6,81.9,24.6,128l-3.1,1.6H1420.9 M1539.6,307.6
        l4.1-1.8c0-7.2-4.1-14.3-7.2-21.5c-12.3-24.6-36.9-46.1-66.5-41c-29.7,4.1-49.1,32.8-56.3,58.3c-1,3.1,1,5.9,3.1,5.9h122.8V307.6z"
        />
    <path style="fill:#12100B;" d="M898.8,156.8v412.9h124.9V318.1c-1-24.6,16.4-44,33.8-56.3c11.3-6.1,26.6-6.1,38.9-2
        c21.5,8.2,34.8,30.7,36.8,52.2l-0.5,257.8h125.4V311.9c1-28.7,2-61.4-11.3-87c-21.5-43-65.5-68.6-112.6-71.6c-2-1-3.1,2-4.1,0
        c-27.6-2-53.2,6.1-76.8,17.4l-2,3.1c-8.2,1-14.3,8.2-22.5,13.3h-5.4v-30.2L898.8,156.8"/>
    <rect style="fill:#12100B;" x="746.3" y="158.8" width="123.9" height="410.1"/>
    <path style="fill:#12100B;" d="M799.2,144.8c40,0,72.4-32.4,72.4-72.4S839.2,0,799.2,0s-72.4,32.4-72.4,72.4
        C726.8,112.4,759.2,144.8,799.2,144.8"/>
    <path style="fill:#12100B;" d="M493.4,263.8c30.7-2,58.3,13.3,76.8,38.9l3.1,1c46.1-25.6,93.2-49.1,139.2-76.8c1-2,0-5.1-1-7.2
        C663.4,144,578.4,97.9,486.3,102c-58.3,1-107.5,26.6-155.6,55.3l-154.6,86C120.8,273,67.6,302.7,12.3,332.4
        c-4.1,3-11.2,4.1-12.3,10.2c27.6,47.1,76.8,73.7,128,78.8l4.1,3.1c17.4,24.6,44,43,70.6,54.2c27.6,11.3,60.4,13.3,91.1,9.2
        c9.2,3.1,15.3,14.3,22.5,21.5c37.9,36.9,81.9,60.4,131,69.6c96.2,18.4,186.3-14.3,247.8-88c6.1-8.2,14.3-16.4,15.3-26.6
        c-25.6-16.4-52.2-29.7-77.8-45c-20.5-11.3-41-24.5-62.5-33.8c-13.3,16.4-30.7,30.7-51.2,35.8c-34.8,8.2-68.6-5.1-89.1-32.8
        c-16.4-21.5-18.4-56.3-6.1-79.8C438.1,282.2,463.7,264.8,493.4,263.8"/>
    <path style="fill:#DA2E15;" d="M294.8,449.1c-41,9.2-82.9,0-112.6-27.6c-1-3.1,1-4.1,3.1-4.1c15.4-5.1,29.7-11.3,44-20.5
        c48.1-26.6,95.2-54.3,144.4-77.8h1c-2,24.6-1,48.1,8.2,69.6c1,5.1,6.2,9.2,3.1,14.3C356.3,418.4,327.6,438.9,294.8,449.1"/>
    <path style="fill:#DA2E15;" d="M432,446c33.8,20.5,83.9,24.6,119.8,6.1l27.7-15.3l4.1,2c22.5,12.3,45,23.5,65.5,37.9
        c-6.1,11.3-18.4,18.4-26.6,26.6c-60.4,45-150.5,52.2-218,19.4c-21.5-12.3-43-27.6-61.4-47.1c0-2,0-4.1,2-5.1
        c22.5-12.3,44-25.6,66.5-35.8C419.7,435.8,424.8,444,432,446"/>
    <path style="fill:#DA2E15;" d="M195.5,371.3c-39.9,19.5-95.2,13.3-129-13.3c-1-2-3.1-3.1-2-5.1c89.1-50.2,178.1-100.3,268.2-149.5
        c32.7-15.3,62.4-36.9,97.2-48.1c77.8-26.6,166.9-5.1,222.1,56.3v3.1c-22.5,14.3-46.1,25.6-68.6,37.9c-8.2-2-14.3-9.2-22.5-13.3
        c-34.8-21.5-88-22.5-123.9-2.1C356.3,283.3,276.4,327.3,195.5,371.3"/>
</svg>
