<svg xmlns="http://www.w3.org/2000/svg" version="1.1" viewBox="0 0 708.7 273.4">
    <path style="fill:#EC1B24;" d="M600.1,0H108.4C48.5,0,0,48.6,0,108.6c0,60,48.5,108.6,108.4,108.6h491.7
        c60,0,108.6-48.6,108.6-108.6C708.7,48.6,660.1,0,600.1,0"/>
    <path style="fill:#FFFFFF;" d="M690.9,108.6c0,50.1-40.7,90.8-90.8,90.8H108.4c-50.1,0-90.7-40.7-90.7-90.8
        c0-50.1,40.6-90.8,90.7-90.8h491.7C650.2,17.8,690.9,58.5,690.9,108.6z M600.1,33.7H108.4c-41.3,0-74.9,33.5-74.9,74.9
        s33.6,74.9,74.9,74.9h491.7c41.3,0,74.9-33.5,74.9-74.9S641.4,33.7,600.1,33.7"/>
    <g>
        <path style="fill:#FFFFFF;" d="M234.5,142.1l-36.1-88h-64.9V75h10.2l-27.9,66.9h-9.6V162h35.3l8.9-22.1h40.4L200,162h44.6
            v-19.8H234.5z M159.5,118.1l11.1-27.3l11.3,27.3H159.5"/>
        <path style="fill:#FFFFFF;" d="M366.1,99.5V64c0-5.4-4.4-9.6-9.6-9.6c-22.4,0-104.8,0-104.8,0V75h10.7v66.9h-10.7V162
            c0,0,82.4,0,104.8,0c5.3,0,9.6-4.4,9.6-9.7V120c0-5.4-4.4-10.2-9.6-10.2C361.8,109.8,366.1,104.9,366.1,99.5z M323.3,141.9h-18.9
            v-20.1h18.9V141.9z M323.3,94.5h-18.9V75h18.9V94.5"/>
        <path style="fill:#FFFFFF;" d="M444.8,54.1c0,0,0,81,0,83.8s-1.7,4-3.3,4h-12.7c-1.6,0-3.3-1.3-3.3-4s0-83.8,0-83.8h-50.9V75
            h10.1c0,0,0,66.8,0,74.2c0,7.5,3.8,12.8,13,12.8h75.1c9.3,0,13-5.4,13-12.8c0-7.3,0-74.2,0-74.2h10.2V54.1H444.8"/>
        <path style="fill:#FFFFFF;" d="M542.8,98.7V75h18.7v10h42c0,0,0-11.7,0-18.7s-5-12.2-12.4-12.2c-7.3,0-66.3,0-75.1,0
            c-8.8,0-13,6.9-13,11.9c0,5,0,52.4,0,52.4h58.3v23.7h-18.7v-10h-39.4c0,0,0,11.7,0,18.7c0,7,5,12.3,12.4,12.3c7.3,0,66.3,0,75.1,0
            c8.8,0,13-7,13-12c0-5,0-52.4,0-52.4H542.8"/>
    </g>
    <g>
        <path style="fill:#231F20;" d="M129.4,238.4c-0.2-5.3-4.6-7-8.6-7c-2.9,0-7.9,0.8-7.9,6.1c0,3,2.1,3.9,4.1,4.4l10,2.3
            c4.5,1,7.8,3.8,7.8,9.3c0,8.3-7.6,10.5-13.5,10.5c-6.4,0-8.9-1.9-10.5-3.3c-2.9-2.8-3.6-5.6-3.6-8.8h4.5c0,6.3,5.2,8.1,9.5,8.1
            c3.4,0,9.2-0.9,9.2-5.8c0-3.7-1.7-4.8-7.5-6.2l-7.1-1.6c-2.3-0.6-7.3-2.2-7.3-8.3c0-5.4,3.4-10.7,11.9-10.7
            c12.2,0,13.3,7.2,13.5,11H129.4"/>
        <path style="fill:#231F20;" d="M143.6,248.4c0-3.9,3.1-7.6,7-7.6c5.2,0,6.8,3.7,7,7.6H143.6z M157.5,255.2
            c-0.2,1.8-2.5,4.9-6.5,4.9c-4.9,0-7.3-3.1-7.3-8.4h18.5c0-8.9-3.6-14.7-10.9-14.7c-8.4,0-12.2,6.2-12.2,14
            c0,7.3,4.2,12.7,11.3,12.7c4,0,5.6-0.9,6.9-1.7c3.1-2.2,4.4-5.7,4.5-6.9H157.5"/>
        <path style="fill:#231F20;" d="M183,246.2c-0.6-3.3-2.4-5.4-6-5.4c-5.3,0-7,5-7,9.5c0,4.4,1,9.7,6.9,9.7c2.9,0,5.4-2.2,6.1-6
            h4.1c-0.5,4-2.9,9.6-10.3,9.6c-7.1,0-11.3-5.4-11.3-12.7c0-7.8,3.8-14,12.2-14c6.6,0,9.2,4.8,9.5,9.2H183"/>
        <path style="fill:#231F20;" d="M207.8,263.1v-3.7l-0.1-0.1c-1.8,3-4,4.5-8,4.5c-3.8,0-8.3-1.8-8.3-7.8v-18.2h4.2v16.7
            c0,4.2,2.2,5.6,4.9,5.6c5.4,0,7-4.7,7-8.5v-13.9h4.2v25.3H207.8"/>
        <path style="fill:#231F20;" d="M223.1,263.1h-4.2v-25.3h3.9v4.2h0.1c1.7-3,4-4.9,7.1-4.9c0.6,0,0.8,0,1.1,0.1v4.4h-1.6
            c-4,0-6.4,3.1-6.4,6.8V263.1"/>
        <path style="fill:#231F20;" d="M239.4,263.1h-4.2v-25.3h4.2V263.1z M235.1,233.2v-4.8h4.2v4.8H235.1"/>
        <path style="fill:#231F20;" d="M250.9,241.3v16.4c0,2.1,1.7,2.1,2.6,2.1h1.5v3.3c-1.6,0.1-2.8,0.3-3.2,0.3
            c-4.2,0-5.2-2.4-5.2-5.5v-16.6h-3.4v-3.6h3.4v-7h4.2v7h4.1v3.6H250.9"/>
        <path style="fill:#231F20;" d="M275,237.7h4.7c-3,8.3-5.8,16.5-9.2,24.8c-4,10.3-4.4,10.9-9.9,10.9c-0.6,0-1.1-0.2-1.8-0.3
            v-3.9c0.6,0.1,1.5,0.5,2.6,0.5c2.2,0,2.4-0.7,4.5-5.8l-9.4-26h4.8l6.8,20.6h0.1L275,237.7"/>
        <path style="fill:#231F20;" d="M292,228.3h28.1v4.1h-11.7v30.6h-4.7v-30.6H292V228.3"/>
        <path style="fill:#231F20;" d="M321.4,248.4c0-3.9,3.1-7.6,7-7.6c5.3,0,6.9,3.7,7.1,7.6H321.4z M335.3,255.2
            c-0.1,1.8-2.5,4.9-6.5,4.9c-4.8,0-7.3-3.1-7.3-8.4h18.5c0-8.9-3.6-14.7-10.9-14.7c-8.3,0-12,6.2-12,14c0,7.3,4.1,12.7,11.2,12.7
            c4.1,0,5.7-0.9,6.9-1.7c3.2-2.2,4.4-5.7,4.5-6.9H335.3"/>
        <path style="fill:#231F20;" d="M360.9,246.2c-0.6-3.3-2.4-5.4-6.1-5.4c-5.3,0-6.9,5-6.9,9.5c0,4.4,1,9.7,6.9,9.7
            c2.9,0,5.3-2.2,6.1-6h4.1c-0.5,4-3,9.6-10.3,9.6c-7.1,0-11.3-5.4-11.3-12.7c0-7.8,3.8-14,12.2-14c6.6,0,9.1,4.8,9.5,9.2H360.9"/>
        <path style="fill:#231F20;" d="M389.8,263.1h-4.2v-16.6c0-3.4-0.9-5.6-5-5.6c-3.4,0-7,2.1-7,8.5v13.8h-4.2v-34.7h4.2v12.8h0.1
            c1.1-1.6,3.3-4.1,7.3-4.1c3.9,0,8.8,1.6,8.8,8.7V263.1"/>
        <path style="fill:#231F20;" d="M425.2,244.5h15.2v18.6h-3.1l-1.1-4.6c-2.3,3.3-6.6,5.5-11.3,5.5c-6,0-8.9-2.2-10.7-4
            c-5.4-4.9-5.5-10.9-5.5-14.6c0-8.5,5.2-18,16.5-18c6.4,0,13.6,3.7,14.7,11.5h-4.6c-1.5-6.1-6.5-7.3-10.4-7.3
            c-6.2,0-11.3,5-11.3,14.1c0,7.1,2.4,14.3,11.6,14.3c1.7,0,4.6-0.2,7.1-2.3c3.1-2.4,3.8-5.5,3.8-9.2h-10.8V244.5"/>
        <path style="fill:#231F20;" d="M450.4,248.4c0-3.9,3.2-7.6,7.1-7.6c5.2,0,6.8,3.7,7,7.6H450.4z M464.3,255.2
            c-0.1,1.8-2.4,4.9-6.4,4.9c-4.9,0-7.5-3.1-7.5-8.4H469c0-8.9-3.7-14.7-10.9-14.7c-8.4,0-12.2,6.2-12.2,14c0,7.3,4.2,12.7,11.3,12.7
            c4,0,5.6-0.9,6.8-1.7c3.2-2.2,4.4-5.7,4.6-6.9H464.3"/>
        <path style="fill:#231F20;" d="M478.8,263.1h-4.2v-25.3h4v4.2h0.1c1.7-3,3.9-4.9,7.1-4.9c0.5,0,0.8,0,1.1,0.1v4.4h-1.6
            c-4,0-6.5,3.1-6.5,6.8V263.1"/>
        <path style="fill:#231F20;" d="M491.3,237.7h4v3.6h0.1c0.9-1.4,3.1-4.2,7.6-4.2c4.6,0,6.1,2.8,6.8,4.1
            c2.1-2.4,3.8-4.1,7.7-4.1c2.8,0,7.9,1.4,7.9,8.5v17.5h-4.2v-16.4c0-3.4-1.1-5.8-4.7-5.8s-6,3.4-6,6.8v15.5h-4.2v-17.5
            c0-2.2-0.8-4.7-4-4.7c-2.4,0-6.6,1.6-6.6,8.5v13.8h-4.2V237.7"/>
        <path style="fill:#231F20;" d="M547,254.3c0,3.4-3.9,6-7.9,6c-3.2,0-4.6-1.6-4.6-4.4c0-3.2,3.3-3.9,5.5-4.1
            c5.3-0.7,6.3-1,7-1.6V254.3z M535.3,245.4c0.3-1.9,1-4.9,5.8-4.9c4,0,6,1.5,6,4.1c0,2.5-1.3,3-2.3,3l-7,0.9
            c-7.1,0.9-7.7,5.8-7.7,7.9c0,4.4,3.3,7.3,7.9,7.3c4.9,0,7.5-2.3,9.2-4.1c0.1,1.9,0.7,3.9,4.5,3.9c0.9,0,1.6-0.3,2.3-0.5V260
            c-0.5,0-1,0.1-1.4,0.1c-0.9,0-1.4-0.3-1.4-1.5v-14.6c0-6.4-7.3-7-9.4-7c-6.2,0-10.2,2.3-10.4,8.4H535.3"/>
        <path style="fill:#231F20;" d="M579,263.1h-4.2v-15.6c0-4.5-1.3-6.6-5.4-6.6c-2.4,0-6.6,1.6-6.6,8.5v13.8h-4.2v-25.3h4v3.6
            h0.1c0.8-1.4,3.2-4.2,7.6-4.2c3.9,0,8.8,1.6,8.8,8.7V263.1"/>
        <path style="fill:#231F20;" d="M600.4,237.7h4.7c-3,8.3-5.8,16.5-9.2,24.8c-4,10.3-4.4,10.9-9.9,10.9c-0.7,0-1.1-0.2-1.8-0.3
            v-3.9c0.6,0.1,1.5,0.5,2.6,0.5c2.2,0,2.4-0.7,4.5-5.8l-9.4-26h4.8l6.8,20.6h0.1L600.4,237.7"/>
    </g>
</svg>
