<svg xmlns="http://www.w3.org/2000/svg" version="1.1" viewBox="0 0 309.6 395.6">
    <path d="M154.8,182.6c-37.2,0-67.3,30.1-67.3,67.2c0,37.2,30.1,67.4,67.3,67.4c37.2,0,67.3-30.2,67.3-67.3
        C222.1,212.7,191.9,182.6,154.8,182.6z M154.8,307.9c-32.1,0-58.1-26-58.1-58.1c0-32,26-58.1,58.1-58.1c32.1,0,58.1,26,58.1,58.1
        C212.9,281.9,186.9,307.9,154.8,307.9z"/>
    <path d="M256.6,219.9c0.3-6.1-4.1-9.5-10.6-9.1c-30.1,2.3-57.4,4.7-87.5,7c-7,0.5-8.4,8.3-8.4,8.3l-0.7,5.7
        c-8.4,1.9-14.6,9.4-14.6,18.4c0,10.4,8.5,18.9,18.9,18.9c10.4,0,18.9-8.5,18.9-18.9c0-8-4.9-14.8-11.9-17.6l0.1-3.8l88.5,1.8
        C253.3,229.2,257.1,226.7,256.6,219.9z M163.7,250.2c0,5.5-4.5,10-10,10s-10-4.5-10-10s4.5-10,10-10S163.7,244.7,163.7,250.2z"/>
    <polygon fill="fill:#000000" points="229,289 233.6,280.1 254.7,291.9 261.8,278 268.7,281.8 257.1,304.7 229,289 "/>
    <path fill="fill:#000000" d="M221.3,326.3c-3.7-3.8-5.6-7.8-5.8-12c-0.1-4.2,1.6-8.3,5.1-12.1c3.6-3.9,7.4-5.9,11.4-6c4-0.1,7.8,1.8,11.5,5.5
        c2.7,2.7,4.4,5.4,5.3,8c0.9,2.7,1,5.3,0.3,8c-0.7,2.7-2.2,5.4-4.6,8c-2.4,2.7-4.9,4.4-7.3,5.3c-2.4,0.9-5,1-7.8,0.3
        C226.7,330.7,224,329,221.3,326.3L221.3,326.3z M228,319.1c2.3,2.3,4.4,3.6,6.2,3.7c1.8,0.1,3.4-0.6,4.8-2.1
        c1.4-1.6,2.1-3.3,1.9-5.1c-0.2-1.9-1.6-4.1-4.1-6.7c-2.2-2.2-4.1-3.3-6-3.4c-1.8-0.1-3.4,0.6-4.8,2.1c-1.3,1.5-1.9,3.1-1.7,5.1
        C224.5,314.6,225.7,316.7,228,319.1L228,319.1z"/>
    <polygon fill="fill:#000000" points="184.6,328.3 192.7,324.1 210.9,335.3 203.2,318.7 211.4,314.6 225.3,344.5 217.2,348.7 199,337.6 206.6,354 
        198.5,358.2 184.6,328.3 "/>
    <path fill="fill:#000000" d="M172.3,352.7l-0.8-6.9l14.8-1.9L188,358c-2.6,2.4-4.9,4.1-7,5.2c-2.1,1-4.6,1.7-7.6,2.1c-3.7,0.5-6.8,0.2-9.2-0.9
        c-2.5-1-4.5-2.8-6.1-5.3c-1.6-2.5-2.6-5.4-3-8.9c-0.4-3.6-0.1-6.8,1-9.7c1.1-2.8,2.9-5.1,5.4-6.9c2-1.3,4.7-2.2,8.3-2.7
        c3.4-0.4,6-0.4,7.8,0c1.8,0.4,3.3,1.3,4.6,2.5c1.3,1.2,2.3,2.9,3.1,5l-9,2.9c-0.5-1.2-1.3-2.1-2.3-2.6c-1-0.5-2.2-0.7-3.6-0.5
        c-2.1,0.3-3.7,1.3-4.8,3c-1.1,1.7-1.4,4.3-1,7.6c0.4,3.6,1.4,6,2.8,7.4c1.4,1.4,3.3,1.9,5.5,1.6c1.1-0.1,2.1-0.4,3-0.9
        c0.9-0.5,2-1.2,3.1-2.1l-0.4-3.1L172.3,352.7L172.3,352.7z"/>
    <path fill="fill:#000000" d="M142.8,360l-10.8-2l-2.4,5.1l-9.7-1.8l17.1-30.6l10.4,1.9l6,34.9l-9.9-1.8L142.8,360L142.8,360z M142,352.5l-1.4-12.4
        l-5.4,11.2L142,352.5L142,352.5z"/>
    <path fill="fill:#000000" d="M108.1,318.1l14.3,7.6c3.1,1.7,5.1,3.7,5.8,6.1c0.8,2.4,0.5,5.1-0.9,8c-1.5,3-3.4,4.9-6,5.7c-2.5,0.8-5.5,0.2-9-1.6
        l-4.7-2.5l-5.4,11l-8.6-4.6L108.1,318.1L108.1,318.1z M110.5,335.3l2.1,1.1c1.7,0.9,3,1.2,3.9,0.9c1-0.3,1.7-0.9,2.2-1.8
        c0.5-0.9,0.5-1.9,0.3-2.8c-0.3-1-1.2-1.9-2.8-2.7l-2.4-1.3L110.5,335.3L110.5,335.3z"/>
    <polygon fill="fill:#000000" points="79.4,292.1 88.5,301.4 78.6,319.5 95.6,308.5 104.7,317.7 82.6,341.6 76.9,335.9 93.7,317.6 72.5,331.4 67.4,326.3 
        79.8,303.6 63,321.8 57.3,316.1 79.4,292.1 "/>
    <polygon fill="fill:#000000" points="63.8,297.9 72.2,288.9 60.5,291.6 63.8,297.9 "/>
    <path fill="fill:#000000" d="M56.4,297.5L51,287.4l-5.3,1.3l-4.8-9l33.5-5.4l5.1,9.6l-22.1,26.9l-4.9-9.3L56.4,297.5L56.4,297.5z M61.4,292.2l8.3-9
        L58,285.9L61.4,292.2L61.4,292.2z"/>
    <path fill="fill:#000000" d="M51.3,264.5l-1.7,9.1c-2.5-0.3-4.6-1-6.3-2.1c-1.7-1.1-3.1-2.5-4.1-4.3c-1-1.8-1.7-4.2-2-7.1c-0.4-3.5-0.1-6.5,0.6-8.8
        c0.8-2.4,2.3-4.5,4.7-6.4c2.4-1.9,5.5-3.1,9.4-3.5c5.2-0.6,9.4,0.4,12.5,3c3.1,2.6,4.9,6.5,5.4,11.7c0.4,4.1-0.1,7.4-1.4,9.9
        c-1.4,2.5-3.7,4.5-6.9,6l-2.8-8.7c0.9-0.4,1.6-0.8,2-1.2c0.7-0.6,1.2-1.4,1.5-2.2c0.3-0.9,0.4-1.8,0.3-2.8c-0.2-2.3-1.3-3.9-3.2-4.9
        c-1.4-0.8-3.5-1-6.4-0.7c-3.5,0.4-5.9,1.2-7,2.4c-1.2,1.2-1.7,2.9-1.5,4.8c0.2,1.9,0.9,3.3,2,4.2C47.6,263.8,49.2,264.3,51.3,264.5
        L51.3,264.5z"/>
    <path fill="fill:#000000" d="M0,63.8C51.6,66,103.2,49.1,154.8,0C206.4,49.1,258,66,309.6,63.8l-8.2,175.7c-6,208.1-287.1,208.1-293.1,0
        L0,63.8L0,63.8z M291.3,239.3L291.3,239.3L299,74c-55.8-0.5-102.9-23.3-144.3-60.4C113.5,50.7,66.3,73.5,10.5,74l7.7,165.1l0,0.1
        C23.9,435.6,285.7,435.6,291.3,239.3L291.3,239.3z"/>
    <path fill="fill:#000000" d="M152,289.6c-0.4-0.6-0.7-2-3.3-1.8c0,0-44.4-8.4-28.9-54l0,0c0,0,5.4-4.9,13.5-14.5c9-23.3,27-82.9,12.7-158.3
        l0,0c-3.5-13.1,3.9-13.5,3.9-13.5s8.7-2.3,12.8,11.2c4.1,13.5,13.8,17.3,13.8,17.3s7,2.1,11.7,27.4l0,0c1.3,0.3,2.5,0.8,3.5,1.5
        c1.9-7.2,3.6-14.6,5-22.4l0,0c1.5-13.5,8.5-11.2,8.5-11.2s8.9,1,7.9,15.1c-1,14.1,6.7,21.1,6.7,21.1s5.8,4.5,1,29.8l0,0
        c10.6,6.9,2.2,28.6,2.2,28.6l0,0c6.3,7.5,2.6,17.8,2.6,17.8s-14.7,36.8-32.4,59.1l0,0c-2.9,3.8-0.3,9.1-0.3,9.1l0,0
        c7.4,8.9-2.2,14.6-2.2,14.6s-6.3,0.8-6.7,5.1c0,0.4-0.5,1.4-0.3,2.5c1.9,8.7-3.1,9.6-9.8,8.2l0,0c-3.3-0.2-3.8,2.8-3.8,2.8
        s-0.7,1.3-1.7,3.1c-1.9,3.1-3.1,6.5-6.4,7.5C159.5,296.5,154.3,295.5,152,289.6L152,289.6L152,289.6z M151.6,194.6
        c12.3-18.6,25.8-43.6,35.7-74.6c1.8-9.9,0.5-13.8-2.2-1.8l-1,3.3c-0.1,0.8-0.8,1.5-1.3,2.2c-3.3,2.1-5.8,2.2-6.5-2.4
        c-0.3-6.1,1.6-27.8-1.3-31.2c-1.6,1.9-2.1,4.4-2.1,7.3c-0.1,0.8-0.2,4.1-0.6,4.8c-2.1,2.3-4.4,3.5-6.9-0.3c-0.4-0.7-0.7-1.5-1.1-2.5
        c-1.7-7.8-1.1-14.7-2.7-22.5c-0.3-2.4-1.7-4.1-3.5-4.7c5.4,37.2,4.2,75.2-3.9,111.9C153.3,187.6,152.5,191.1,151.6,194.6
        L151.6,194.6z M198.8,116.5l-1.5,5c-8.7,27.8-21.3,54.4-37.4,78.7c-7,10.5-14.7,20.8-23.1,30.2c-2.6,2.9-5.4,6-8.2,8.8
        c-3.3,11.1-3.3,22.4,6,30.6c4,3.5,10.4,6.8,15.7,8c3.1,1.3,5.8,2.8,7.7,4.7c1.4,1.4,2.3,1,3.1,0.1c2.4-5.8,5-10,14.1-9.9
        c0-0.6,0-1.1,0.1-1.7c0.6-6.3,4.4-10.1,10-12.2l-0.9-1.6l-0.5-1.1c-3-6.1-2.8-14,1.4-19.5l0.1-0.1l0.1-0.1
        c3.8-4.8,7.2-9.9,10.3-15.1c7.2-10.5,11.4-19.4,17.6-32.1c1.5-3,2.9-8-0.2-2l-2.9,4.5c-1.5,1.9-3.9,1.5-4.9,0.6
        c-1.7-1.6-1.6-3.3-0.9-5c3.1-5.1,6.2-10.7,8.9-18.2c0.1-2.2,4.3-14.8,1.4-13.8l-2.1,2.7c-0.4,0.7-1.2,1.1-2,1.6
        c-3.9,0.8-6.2-0.1-5.2-4.6l4.4-13.2c1.1-5.6,4.7-14.2,2.9-19.4l-3.4,7.5c-0.4,0.7-0.9,1.3-1.6,1.8c-2.8,1.4-5.4,1.6-6.3-2.7
        c-0.2-0.8-0.1-1.7-0.2-2.7c1.3-7.9,3.1-15.6,4.4-23.4c0.6-2.3-0.1-4.5-1.6-5.6C202.4,103.7,200.7,110.2,198.8,116.5L198.8,116.5z"/>
</svg>
