<svg xmlns="http://www.w3.org/2000/svg" viewBox="0 0 20 20">
    <path d="M20,15.8a0.73,0.73,0,0,0,0-.3,2.51,2.51,0,0,0-1.08-.75c-0.81-.45-1.63-0.89-2.43-1.36a2.92,2.92,0,0,0-1.26-.65c-0.87,0-2.13,2.57-2.9,2.57a3.06,3.06,0,0,1-1.22-.55A14.13,14.13,0,0,1,5.26,8.93,3.05,3.05,0,0,1,4.7,7.71c0-.77,2.57-2,2.57-2.9a2.92,2.92,0,0,0-.65-1.26c-0.47-.8-0.91-1.62-1.36-2.43A2.51,2.51,0,0,0,4.5,0a0.72,0.72,0,0,0-.3,0,6.31,6.31,0,0,0-2,.44A3.74,3.74,0,0,0,.72,2.17,5.43,5.43,0,0,0,0,4.82,10.94,10.94,0,0,0,1,8.54,13.28,13.28,0,0,0,2.16,11,24,24,0,0,0,9,17.84,13.28,13.28,0,0,0,11.46,19a10.94,10.94,0,0,0,3.72,1,5.43,5.43,0,0,0,2.64-.72,3.74,3.74,0,0,0,1.73-1.51,6.31,6.31,0,0,0,.44-2"/>
</svg>
