<svg version="1.1" xmlns="http://www.w3.org/2000/svg" viewBox="0 0 100 82.9">
    <path d="M85.4,52.9H100l-8.3-11.4l8.3-11.6H87.5c0.5-0.6,1.2-1,2-1.1c-0.3-0.8-0.6-1.7-0.9-2.5c-1.9,1.2-4.5,0.5-5.7-1.4
        c-1.2-1.9-0.5-4.5,1.4-5.7c0.2-0.1,0.3-0.2,0.5-0.3c-0.6-0.9-1.2-1.8-1.9-2.7c-1.5,1.7-4.1,1.9-5.8,0.4c-1.7-1.5-1.9-4.1-0.4-5.8
        c0.2-0.2,0.4-0.4,0.6-0.5c-0.8-0.7-1.6-1.4-2.5-2c-1,2-3.5,2.8-5.5,1.8c-2-1-2.8-3.5-1.8-5.5C67.7,4.4,67.8,4.2,68,4
        c-0.9-0.4-1.8-0.8-2.7-1.2c-0.6,2.2-2.9,3.4-5.1,2.8c-2.2-0.6-3.4-2.9-2.8-5.1c-1-0.2-2-0.3-3-0.4c0.1,2.3-1.6,4.2-3.9,4.4
        c-2.3,0.1-4.2-1.6-4.4-3.9c0-0.2,0-0.4,0-0.6c-1.1,0.1-2.1,0.2-3.2,0.4c0.8,2.1-0.2,4.5-2.3,5.3s-4.5-0.2-5.3-2.3
        C35.1,3.2,35,2.9,35,2.6c-1,0.4-2,0.8-3,1.3c1.4,1.8,1.1,4.4-0.7,5.8c-1.8,1.4-4.4,1.1-5.8-0.7c-0.2-0.2-0.3-0.5-0.5-0.8
        c-0.9,0.7-1.7,1.3-2.5,2c1.7,1.5,1.9,4.1,0.4,5.8c-1.5,1.7-4.1,1.9-5.8,0.4c-0.1-0.1-0.2-0.1-0.2-0.2c-0.6,0.8-1.2,1.7-1.8,2.5
        c2,1.1,2.8,3.6,1.8,5.6c-1.1,2-3.6,2.8-5.6,1.8c-0.4,1-0.7,2-1.1,3c0.7,0.1,1.3,0.5,1.9,0.9H0l8.3,11.6L0,52.9h14.5
        c1.2,1.9,0.6,4.5-1.3,5.7c-0.3,0.2-0.6,0.3-1,0.4c0.5,1,1,1.9,1.5,2.9c1.9-1.3,4.4-0.9,5.7,1c1.3,1.9,0.9,4.4-1,5.7
        c0.7,0.8,1.4,1.5,2.1,2.3c1.4-1.8,4-2.1,5.8-0.8c1.8,1.4,2.1,4,0.8,5.8c0,0.1-0.1,0.1-0.1,0.2c0.9,0.6,1.8,1.1,2.7,1.6
        c0.9-2.1,3.3-3,5.4-2.1c2.1,0.9,3,3.3,2.1,5.4c1,0.3,2,0.6,3,0.8c0.3-2.3,2.4-3.8,4.6-3.5c2.3,0.3,3.8,2.4,3.5,4.6
        c1.1,0,2.3,0,3.4,0c-0.5-2.2,0.9-4.4,3.1-4.9s4.4,0.9,4.9,3.1c0,0.2,0.1,0.4,0.1,0.6c0.9-0.2,1.9-0.5,2.8-0.8c-1-2-0.2-4.5,1.8-5.5
        c2-1,4.5-0.2,5.5,1.8c0.1,0.1,0.1,0.3,0.2,0.4l0.8-0.5c0.7-0.4,1.3-0.8,1.9-1.2c-1.4-1.8-1.2-4.4,0.6-5.8s4.4-1.2,5.8,0.6
        c0.7-0.7,1.4-1.4,2-2.2c-1.9-1.3-2.3-3.9-1-5.7c1.3-1.9,3.9-2.3,5.7-1c0.5-0.9,1-1.8,1.4-2.8c-2.1-0.8-3.3-3.1-2.5-5.3
        C85,53.5,85.2,53.2,85.4,52.9z M65.6,11.4c0.9-0.5,2.1-0.2,2.6,0.7c0.5,0.9,0.2,2.1-0.7,2.6c-0.9,0.5-2.1,0.2-2.6-0.7c0,0,0,0,0,0
        C64.4,13.1,64.7,11.9,65.6,11.4z M73.6,39.2v-5h4.5v5h1.7v4.4h0l0,0v0h-1.7v4.9h-4.5v-4.9h-3v4.9h-4.5V34.2h4.5v5H73.6z M63.3,21.2
        C63.3,21.2,63.3,21.2,63.3,21.2c0.8,1.3,0.3,3-1,3.7c-1.3,0.7-3,0.3-3.7-1c-0.7-1.3-0.3-2.9,1-3.7C60.9,19.4,62.6,19.9,63.3,21.2z
         M49,48.5h-4.5V34.2H49V48.5z M59.6,52.9c-0.7,0.5-1.4,1-2.1,1.4c-6,3.6-12.8,2.9-17.5-1.4H59.6z M40.1,29.9L40.1,29.9
        c0.7-0.5,1.4-1,2.1-1.5c6.1-3.6,12.8-2.9,17.6,1.5H40.1z M43.8,9.1c2.1-0.5,4.3-0.7,6.4-0.8c2.2,0,4.3,0.3,6.5,0.9
        c2.8,0.6,6.2,2,4.7,4.8s-8.6,7.2-11.2,7.2c-2.6,0-9.7-4.8-11.2-7.3S41.1,9.8,43.8,9.1z M37.9,20.4C37.9,20.4,37.9,20.4,37.9,20.4
        c1.3-0.8,3-0.3,3.7,1c0.7,1.3,0.3,3-1,3.7c-1.3,0.7-2.9,0.3-3.7-1C36.1,22.8,36.6,21.1,37.9,20.4z M32.8,13.2
        c0.5-0.9,1.7-1.3,2.6-0.8c0.9,0.5,1.3,1.7,0.8,2.6c-0.5,0.9-1.7,1.3-2.6,0.8c0,0,0,0,0,0C32.6,15.3,32.3,14.1,32.8,13.2z M21.6,24.8
        c1.1-1.9,2.4-3.6,3.9-5.2c2-2.1,4.8-4.5,6.5-1.7c1.5,2.5,2.1,9,1.3,12h-14C19.9,28.1,20.7,26.4,21.6,24.8z M13.8,41.3
        c0-4.2,3.4-7.6,7.6-7.6c2,0,4,0.8,5.4,2.2L27,36l-3.2,3.1c-1.3-1.3-3.3-1.3-4.6,0c-1.3,1.2-1.3,3.3,0,4.5c0,0,0,0,0,0
        c1.3,1.3,3.3,1.3,4.6,0l0.1-0.1l3.1,3.1l-0.1,0.1c-1.4,1.5-3.4,2.3-5.5,2.3C17.3,49,13.9,45.6,13.8,41.3z M25.5,63.2
        c-1.5-1.6-2.9-3.3-4-5.1c-1-1.7-1.7-3.4-2.4-5.2H33c0.7,3.3,0.2,9.8-1,12C30.6,67.4,27.4,65.2,25.5,63.2z M34.5,71.4L34.5,71.4
        c-0.9,0.5-2.1,0.2-2.6-0.7c-0.5-0.9-0.2-2.1,0.7-2.6c0.9-0.5,2.1-0.2,2.6,0.7C35.7,69.7,35.4,70.9,34.5,71.4z M36.3,48.5v-4.9h-3
        v4.9h-4.5V34.2h4.5v5h3v-5h4.5v5h1.7v4.4h0l0,0v0h-1.7v4.9H36.3z M36.9,61.6C36.9,61.5,36.9,61.5,36.9,61.6L36.9,61.6
        c-0.8-1.3-0.3-3,1-3.7s3-0.3,3.7,1c0.7,1.3,0.3,2.9-1,3.7C39.3,63.3,37.6,62.9,36.9,61.6z M56.8,73.6L56.8,73.6
        c-2.1,0.5-4.2,0.8-6.4,0.8c-2.2,0-4.3-0.3-6.5-0.9c-2.9-0.7-6.2-2-4.7-4.8c1.6-2.9,8.6-7.2,11.2-7.2c2.6,0,9.7,4.8,11.1,7.3
        C63,71.3,59.5,72.9,56.8,73.6z M62,62.3C62,62.3,62,62.3,62,62.3c-1.3,0.8-3,0.3-3.7-1c-0.7-1.3-0.3-3,1-3.7c1.3-0.7,2.9-0.3,3.7,1
        C63.8,59.9,63.3,61.5,62,62.3z M56.6,43.6C56.6,43.6,56.6,43.6,56.6,43.6c1.3,1.3,3.3,1.3,4.6,0l0.1-0.1l3.1,3.1l-0.1,0.1
        c-2.9,3.1-7.8,3.2-10.8,0.3c-3.1-2.9-3.2-7.8-0.3-10.8c0.1-0.1,0.2-0.2,0.3-0.3c3-3,7.8-3,10.8,0c0,0,0,0,0,0l0.1,0.1l-3.2,3.1
        c-1.3-1.3-3.3-1.3-4.6,0C55.3,40.3,55.3,42.4,56.6,43.6z M67.4,71.3C67.4,71.3,67.4,71.3,67.4,71.3L67.4,71.3
        c-1,0.5-2.2,0.2-2.7-0.7c-0.5-0.9-0.2-2.1,0.7-2.6c0.9-0.5,2.1-0.2,2.6,0.7C68.6,69.6,68.3,70.8,67.4,71.3z M78.8,57.6
        c-1.1,1.9-2.4,3.6-3.9,5.2c-1.8,2-4.8,4.5-6.5,1.7c-1.4-2.3-1.9-8.3-1.2-11.6h13.8C80.3,54.5,79.6,56.1,78.8,57.6z M67.5,29.9
        c-0.7-3.3-0.2-9.7,1-11.9c1.5-2.5,4.7-0.3,6.6,1.6c1.5,1.6,2.9,3.3,4,5.1c0.9,1.6,1.7,3.4,2.3,5.2H67.5z M81.8,48.5V34.2h4.4v14.3
        H81.8z"/>
</svg>
