<svg xmlns="http://www.w3.org/2000/svg" viewBox="0 0 100 82.94">
  <g>
      <path d="M100,52.9L91.72,41.49,100,29.89H87.51a4.13,4.13,0,0,1,2-1.14q-0.4-1.26-.89-2.5a4.12,4.12,0,1,1-3.74-7.32Q83.95,17.54,83,16.25a4.12,4.12,0,1,1-5.59-6q-1.19-1.06-2.46-2a4.11,4.11,0,1,1-7-4.26q-1.35-.65-2.74-1.2A4.11,4.11,0,1,1,57.29.5q-1.51-.27-3-0.44A4.12,4.12,0,1,1,46.07,0q-1.6.15-3.19,0.42A4.11,4.11,0,1,1,35,2.59q-1.5.58-3,1.28a4.12,4.12,0,1,1-7,4.25q-1.31,1-2.53,2a4.11,4.11,0,1,1-5.61,6q-0.94,1.24-1.78,2.53A4.11,4.11,0,1,1,11.27,26q-0.58,1.46-1.05,3a4.13,4.13,0,0,1,1.86.91H0l8.28,11.6L0,52.9H14.51A4.11,4.11,0,0,1,12.24,59q0.68,1.45,1.49,2.87a4.11,4.11,0,1,1,4.74,6.72q1,1.18,2.11,2.26a4.11,4.11,0,1,1,6.37,5.19q1.3,0.86,2.66,1.62a4.11,4.11,0,1,1,7.55,3.27q1.5,0.48,3,.85a4.11,4.11,0,0,1,8.15,1.13q1.7,0.06,3.4,0a4.11,4.11,0,1,1,8.11-1.17q1.42-.35,2.83-0.81a4.11,4.11,0,1,1,7.52-3.29L71,77.14q1-.56,1.86-1.17a4.11,4.11,0,1,1,6.37-5.21q1.06-1.06,2-2.18A4.11,4.11,0,1,1,86,61.87q0.76-1.35,1.42-2.76a4.11,4.11,0,0,1-2-6.21H100ZM65.61,11.4A1.91,1.91,0,1,1,64.94,14,1.91,1.91,0,0,1,65.61,11.4Zm-2.27,9.78a2.72,2.72,0,1,1-3.73-1A2.72,2.72,0,0,1,63.34,21.18ZM59.64,52.9a17.37,17.37,0,0,1-2.09,1.45C51.5,57.94,44.75,57.22,40,52.9H59.64Zm-19.56-23a17.36,17.36,0,0,1,2.11-1.47c6.06-3.59,12.82-2.86,17.57,1.47H40.09ZM43.8,9.12a28.87,28.87,0,0,1,6.44-.76,29.37,29.37,0,0,1,6.46.85c2.77,0.65,6.25,2,4.69,4.85s-8.63,7.18-11.24,7.16S40.46,16.47,39,13.91,41.11,9.79,43.8,9.12ZM37.9,20.37a2.72,2.72,0,1,1-1,3.73A2.72,2.72,0,0,1,37.9,20.37Zm-5.13-7.15a1.91,1.91,0,1,1,.78,2.58A1.91,1.91,0,0,1,32.77,13.22ZM21.6,24.78a29.3,29.3,0,0,1,3.92-5.2c2-2.1,4.81-4.46,6.54-1.69,1.54,2.48,2.1,9,1.28,12h-14A28.68,28.68,0,0,1,21.6,24.78Zm3.87,38.47a28.9,28.9,0,0,1-4-5.13,29.1,29.1,0,0,1-2.36-5.21H33c0.71,3.28.25,9.8-1,12C30.56,67.38,27.44,65.22,25.47,63.25Zm9.06,8.2a1.91,1.91,0,1,1,.67-2.62A1.91,1.91,0,0,1,34.52,71.44Zm2.34-9.92a2.72,2.72,0,1,1,3.73,1A2.72,2.72,0,0,1,36.86,61.52Zm20,12.05a28.86,28.86,0,0,1-6.44.76,29.38,29.38,0,0,1-6.46-.85c-2.88-.7-6.25-2-4.69-4.85s8.63-7.18,11.23-7.16,9.69,4.75,11.11,7.31S59.53,72.91,56.84,73.57ZM62,62.31a2.72,2.72,0,1,1,1-3.73A2.72,2.72,0,0,1,62,62.31Zm5.35,9a1.91,1.91,0,1,1,.67-2.62A1.91,1.91,0,0,1,67.39,71.35ZM78.79,57.64a29.31,29.31,0,0,1-3.92,5.2c-1.81,2-4.81,4.46-6.54,1.69-1.43-2.29-1.85-8.31-1.23-11.62h13.8A28.31,28.31,0,0,1,78.79,57.64ZM67.45,29.89c-0.7-3.28-.22-9.74,1-11.88,1.46-2.53,4.72-.28,6.56,1.6a29,29,0,0,1,4,5.13,29,29,0,0,1,2.34,5.15H67.45Z" style="fill: #1a171b"/>
  </g>
  <g>
    <path d="M86.28,48.48H81.85V34.16h4.43V48.48Z" style="fill: #80FF00"/>
    <path d="M79.78,43.56H78.09v4.93H73.63V43.56h-3v4.93H66.17V34.15h4.45v5h3v-5h4.45v5h1.69v4.45Z" style="fill: #80FF00"/>
    <path d="M64.29,46.67l-0.06.06A7.65,7.65,0,1,1,53.42,35.91a7.64,7.64,0,0,1,10.81,0L64.29,36,61.13,39.1l0,0a3.23,3.23,0,0,0-4.56,0,3.2,3.2,0,0,0,0,4.54,3.23,3.23,0,0,0,4.56,0l0.06-.06Z" style="fill: #80FF00"/>
    <path d="M49,48.48H44.53V34.16H49V48.48Z" style="fill: #80FF00"/>
    <path d="M42.45,43.56H40.76v4.93H36.31V43.56h-3v4.93H28.85V34.15H33.3v5h3v-5h4.45v5h1.69v4.45Z" style="fill: #80FF00"/>
    <path d="M27,46.67l-0.06.06A7.35,7.35,0,0,1,21.49,49a7.67,7.67,0,0,1-7.65-7.65,7.67,7.67,0,0,1,7.65-7.65,7.35,7.35,0,0,1,5.41,2.24L27,36,23.81,39.1l0,0a3.23,3.23,0,0,0-4.56,0,3.2,3.2,0,0,0,0,4.54,3.23,3.23,0,0,0,4.56,0l0.06-.06Z" style="fill: #80FF00"/>
  </g>
</svg>
