<?xml version="1.0" standalone="no"?><!DOCTYPE svg PUBLIC "-//W3C//DTD SVG 1.1//EN" "http://www.w3.org/Graphics/SVG/1.1/DTD/svg11.dtd" ><svg xmlns="http://www.w3.org/2000/svg"><metadata></metadata><defs><font id="american-typewriter-condensed" horiz-adv-x="1462"><font-face font-family="American Typewriter" font-weight="400" font-stretch="normal" units-per-em="1000" panose-1="2 9 6 6 2 0 4 2 3 4" ascent="881" descent="-250" x-height="4" bbox="-415 -363 1436 1085" underline-thickness="20" underline-position="-166" unicode-range="U+0008-fb02" /><missing-glyph horiz-adv-x="500" d="M63 0 l0 760 l375 0 l0 -760 l-375 0 ZM125 63 l250 0 l0 635 l-250 0 l0 -635 Z" /><glyph glyph-name="controlNULL" unicode="" d="" /><glyph glyph-name="controlBS" unicode="" d="" /><glyph glyph-name="controlHT" unicode="" d="" /><glyph glyph-name="controlCR" unicode="" d="" /><glyph glyph-name="controlGS" unicode="" d="" /><glyph glyph-name="space" unicode=" " d="" /><glyph glyph-name="exclam" unicode="!" d="M118 -11 q-22 0 -36.5 17.5 q-14.5 17.5 -14.5 45.5 q0 27 14.5 44.5 q14.5 17.5 36.5 17.5 q22 0 36.5 -17.5 q14.5 -17.5 14.5 -44.5 q0 -28 -14.5 -45.5 q-14.5 -17.5 -36.5 -17.5 ZM118 152 q-33 0 -34 50 l-5 434 q-1 46 37 46 q42 0 41 -46 l-5 -434 q-1 -50 -34 -50 Z" /><glyph glyph-name="quotedbl" unicode="&quot;" d="M128 667 l-12 -269 l-50 0 l-12 269 l74 0 ZM265 667 l-12 -269 l-49 0 l-12 269 l73 0 Z" /><glyph glyph-name="numbersign" unicode="#" d="M434 271 l110 0 l-9 -61 l-111 0 l-32 -210 l-68 0 l32 210 l-140 0 l-32 -210 l-68 0 l32 210 l-113 0 l10 61 l112 0 l21 138 l-112 0 l9 61 l113 0 l30 197 l68 0 l-30 -197 l140 0 l30 197 l68 0 l-30 -197 l110 0 l-9 -61 l-110 0 l-21 -138 ZM366 271 l20 138 l-140 0 l-21 -138 l141 0 Z" /><glyph glyph-name="dollar" unicode="$" d="M359 545 q-10 27 -24.5 39.5 q-14.5 12.5 -50.5 22.5 l-4 -226 q7 -3 18 -7 q77 -26 98 -41 q21 -15 39.5 -55 q18.5 -40 18.5 -87 q0 -81 -48 -137 q-48 -56 -127 -66 l1 -79 q0 -35 -29 -35 q-32 0 -32 33 l0 3 l3 77 q-66 10 -105 39 q-71 54 -71 149 q0 91 63 91 q22 0 35.5 -15 q13.5 -15 13.5 -39 q0 -44 -41 -52 q0 -83 108 -104 l8 256 q-67 18 -95 36 q-68 42 -68 138 q0 79 44 130 q44 51 120 60 l-2 84 q-1 32 29 32 q31 0 31 -30 l0 -2 l-5 -82 q68 -12 107 -53.5 q39 -41.5 39 -100.5 q0 -68 -50 -68 q-45 0 -45 49 q0 26 21 40 ZM233 396 l2 212 q-96 -22 -96 -111 q0 -42 21.5 -65 q21.5 -23 72.5 -36 ZM281 298 l-1 -242 q100 27 100 128 q0 45 -17 67.5 q-17 22.5 -64 39.5 q-8 2 -18 7 Z" /><glyph glyph-name="percent" unicode="%" d="M168 251 q-59 0 -97 60.5 q-38 60.5 -38 154.5 q0 93 38 153.5 q38 60.5 97 60.5 q58 0 96 -60.5 q38 -60.5 38 -153.5 q0 -94 -38 -154.5 q-38 -60.5 -96 -60.5 ZM563 663 q0 -2 -3 -9 l-292 -641 q-9 -19 -36 -19 q-22 0 -22 13 q0 3 4 12 l290 637 q10 21 35 21 q24 0 24 -14 ZM602 -13 q-59 0 -96.5 60 q-37.5 60 -37.5 154 q0 94 38 154.5 q38 60.5 96 60.5 q59 0 97 -60.5 q38 -60.5 38 -154.5 q0 -94 -38 -154 q-38 -60 -97 -60 ZM169 620 q-31 0 -51.5 -43.5 q-20.5 -43.5 -20.5 -110.5 q0 -66 20 -110.5 q20 -44.5 50 -44.5 q31 0 51.5 43.5 q20.5 43.5 20.5 111.5 q0 65 -20.5 109.5 q-20.5 44.5 -49.5 44.5 ZM604 356 q-31 0 -51.5 -44 q-20.5 -44 -20.5 -111 q0 -66 20 -110.5 q20 -44.5 50 -44.5 q31 0 51.5 44 q20.5 44 20.5 111 q0 66 -20.5 110.5 q-20.5 44.5 -49.5 44.5 Z" /><glyph glyph-name="ampersand" unicode="&amp;" d="M326 440 q-23 -25 -64 -56 l9 -18 q33 -66 77 -143 l4 -7 l34 113 q55 184 163 184 q48 0 79 -34 q31 -34 31 -86 q0 -57 -29 -94 q-29 -37 -73 -37 q-31 0 -51.5 19 q-20.5 19 -20.5 48 q0 50 40 50 q14 0 24 -9.5 q10 -9.5 10 -23.5 q0 -7 -4 -16 q8 -2 9 -2 q13 0 22 16 q9 16 9 39 q0 29 -14.5 46.5 q-14.5 17.5 -37.5 17.5 q-44 0 -68 -56 q-22 -51 -51 -153 q-18 -63 -30 -89 q35 -50 58 -66 q23 -16 59 -16 q7 0 20.5 2 q13.5 2 20.5 2 q33 0 33 -36 q0 -35 -33 -35 q-38 0 -38 0 l-43 1 q-59 1 -118 77 q-60 -84 -151 -84 q-75 0 -122 55 q-47 55 -47 143 q0 114 76 179 q19 17 47 35 l9 6 l-4 12 q-34 102 -34 145 q0 58 35 93.5 q35 35.5 91 35.5 q56 0 90 -34.5 q34 -34.5 34 -92.5 q0 -74 -51 -131 ZM200 570 q0 -39 34 -121 q72 48 72 119 q0 28 -15.5 46 q-15.5 18 -38.5 18 q-23 0 -37.5 -17 q-14.5 -17 -14.5 -45 ZM202 338 l-5 9 q-89 -44 -89 -154 q0 -56 27.5 -91.5 q27.5 -35.5 70.5 -35.5 q65 0 104 74 l-6 11 l-38 64 q-16 27 -35 65 q-10 21 -29 58 Z" /><glyph glyph-name="quotesingle" unicode="&#39;" d="M128 667 l-12 -269 l-50 0 l-12 269 l74 0 Z" /><glyph glyph-name="parenleft" unicode="(" d="M40 173 q-7 36 -7 86 q0 150 69 262 q33 53 75 92 q30 28 66 49 q36 21 53 21 q19 0 19 -17 q0 -11 -19 -22 q-87 -52 -142 -160 q-49 -97 -49 -210 q0 -135 65 -241 q54 -87 135 -141 q9 -6 9 -13 q0 -16 -19 -16 q-23 0 -72 33 q-40 27 -64 51 q-40 41 -74 105.5 q-34 64.5 -45 120.5 Z" /><glyph glyph-name="parenright" unicode=")" d="M291 381 q11 -54 11 -122 q0 -110 -54 -211 q-34 -63 -71 -101 q-24 -25 -64 -51 q-48 -33 -73 -33 q-18 0 -18 16 q0 9 14 17 q74 45 130 137 q64 106 64 241 q0 113 -49 210 q-27 54 -63.5 94.5 q-36.5 40.5 -78.5 65.5 q-19 11 -19 22 q0 17 19 17 q17 0 53 -21.5 q36 -21.5 66 -48.5 q47 -42 83.5 -106.5 q36.5 -64.5 49.5 -125.5 Z" /><glyph glyph-name="asterisk" unicode="*" d="M292 497 l-11 -26 l47 -42 q34 -30 34 -47 q0 -14 -9.5 -24 q-9.5 -10 -23.5 -10 q-24 0 -40 37 l-32 74 l-28 2 l-26 -57 q-13 -28 -16 -33 q-11 -16 -29 -16 q-33 0 -33 32 q0 19 24 40 l61 53 l-7 28 l-62 6 q-37 4 -49.5 11.5 q-12.5 7.5 -12.5 27.5 q0 32 33 32 q15 0 35 -12 l68 -41 l25 14 l-13 62 q-6 29 -6 39 q0 14 10 23.5 q10 9.5 23 9.5 q33 0 33 -38 q0 -9 -3 -22 l-18 -78 l22 -19 l54 32 q32 19 46 19 q14 0 23.5 -9.5 q9.5 -9.5 9.5 -23.5 q0 -33 -49 -37 l-80 -7 Z" /><glyph glyph-name="plus" unicode="+" d="M33 301 l0 62 l184 0 l0 173 l66 0 l0 -173 l184 0 l0 -62 l-184 0 l0 -172 l-66 0 l0 172 l-184 0 Z" /><glyph glyph-name="comma" unicode="," d="M114 -26 q0 11 -3 20 q-7 -2 -16 -2 q-44 0 -44 60 q0 64 52 64 q62 0 62 -98 q0 -72 -33 -133 l-13 -24 q-14 -25 -27 -25 q-20 0 -20 19 q0 6 5 15 l11 20 q26 47 26 84 Z" /><glyph glyph-name="hyphen" unicode="-" d="M0 289 q0 36 35 35 l28 -1 q28 -1 42 -1 q10 0 30 1 q20 1 30 1 q36 0 36 -35 q0 -35 -36 -35 q-3 0 -12 1 q-9 1 -15 1 q-14 1 -37 1 q-24 0 -38 -1 q-6 0 -15 -1 q-9 -1 -12 -1 q-36 0 -36 35 Z" /><glyph glyph-name="period" unicode="." d="M108 -11 q-23 0 -37.5 17.5 q-14.5 17.5 -14.5 45.5 q0 27 14.5 44.5 q14.5 17.5 37.5 17.5 q22 0 36.5 -17.5 q14.5 -17.5 14.5 -44.5 q0 -28 -14.5 -45.5 q-14.5 -17.5 -36.5 -17.5 Z" /><glyph glyph-name="slash" unicode="/" d="M394 660 q0 -4 -4 -13 l-340 -740 q-8 -18 -37 -18 q-20 0 -20 13 q0 4 4 13 l338 739 q9 19 34 19 q25 0 25 -13 Z" /><glyph glyph-name="zero" unicode="0" d="M98 79.5 q-63 92.5 -63 254.5 q0 162 63.5 254 q63.5 92 149.5 92 q93 0 153 -91 q64 -96 64 -256 q0 -162 -63.5 -254 q-63.5 -92 -149.5 -92 q-91 0 -154 92.5 ZM250 609 q-59 0 -98 -78 q-39 -78 -39 -197 q0 -119 39 -197.5 q39 -78.5 98 -78.5 q59 0 98 78 q39 78 39 197 q0 119 -39 197.5 q-39 78.5 -98 78.5 Z" /><glyph glyph-name="one" unicode="1" d="M229 365 l1 155 l-2 35 q-3 48 -27 48 q-8 0 -23.5 -3.5 q-15.5 -3.5 -23.5 -3.5 q-32 0 -32 35 q0 16 11 26.5 q11 10.5 28 10.5 q14 0 36 -4 q22 -4 40 -4 q16 0 26 3 q20 8 29 8 q15 0 15 -24 q0 -10 0 -10 l-3 -38 q-1 -50 -4 -151 l-2 -84 l3 -237 q2 -43 7.5 -53.5 q5.5 -10.5 27.5 -10.5 q9 0 26 2.5 q17 2.5 26 2.5 q35 0 35 -35 q0 -38 -36 -38 q-19 0 -58 6 q-39 6 -59 6 q-32 0 -70 -6 q-38 -6 -52 -6 q-36 0 -36 36 q0 35 31 35 q8 0 23 -2.5 q15 -2.5 23 -2.5 q34 0 35 54 q0 11 2 48 q3 73 3 202 Z" /><glyph glyph-name="two" unicode="2" d="M138 195 q-30 -31 -39 -79 q37 53 85 53 q38 0 79 -38 l37 -34 q34 -31 56 -31 q17 0 30 18 q13 18 13 42 q0 1 0 5 q-1 4 -1 7 q-11 -8 -23 -8 q-17 0 -28 13 q-11 13 -11 33 q0 22 15.5 38 q15.5 16 35.5 16 q29 0 46.5 -27.5 q17.5 -27.5 17.5 -74.5 q0 -60 -28 -100.5 q-28 -40.5 -69 -40.5 q-32 0 -87 43 l-41 32 q-37 29 -64 29 q-18 0 -32 -8.5 q-14 -8.5 -14 -19.5 q0 -4 9 -9 q18 -10 18 -30 q0 -37 -35 -37 q-29 0 -46.5 28.5 q-17.5 28.5 -17.5 75.5 q0 95 50 157 q36 45 148 96 q67 30 93 61.5 q26 31.5 26 81.5 q0 56 -32.5 90.5 q-32.5 34.5 -84.5 34.5 q-48 0 -80.5 -27.5 q-32.5 -27.5 -34.5 -70.5 q42 -5 42 -48 q0 -26 -16.5 -44 q-16.5 -18 -39.5 -18 q-28 0 -44.5 24.5 q-16.5 24.5 -16.5 64.5 q0 79 57.5 133 q57.5 54 142.5 54 q79 0 129.5 -54.5 q50.5 -54.5 50.5 -139.5 q0 -52 -22 -98.5 q-22 -46.5 -59 -70.5 q-29 -19 -85 -42 q-86 -36 -130 -80 Z" /><glyph glyph-name="three" unicode="3" d="M199 388 l151 205 l-151 0 q-61 0 -61 -40 q0 -10 3 -34 q2 -16 2 -31 q0 -49 -33 -49 q-32 0 -32 43 q0 13 2 46 q3 30 2 47 l-2 54 q0 43 27 43 q14 0 39 -2 q29 -2 39 -2 l66 -2 l91 2 l67 5 q1 0 5 0 q42 0 42 -36 q0 -19 -23 -49 l-136 -174 l11 0 q68 0 110 -52 q42 -52 42 -137 q0 -106 -58.5 -172 q-58.5 -66 -151.5 -66 q-85 0 -142.5 54 q-57.5 54 -57.5 134 q0 50 21.5 82.5 q21.5 32.5 54.5 32.5 q52 0 52 -58 q0 -51 -39 -51 q-3 0 -15 2 l0 -11 q0 -46 37 -79.5 q37 -33.5 88 -33.5 q60 0 99 47.5 q39 47.5 39 120.5 q0 56 -28.5 88.5 q-28.5 32.5 -78.5 32.5 q-16 0 -34 -5 q-28 -8 -33 -8 q-27 0 -27 27 q0 8 13 26 Z" /><glyph glyph-name="four" unicode="4" d="M296 172 l0 23 l-207 0 q-53 0 -53 42 q0 22 24 62 l210 352 q16 26 45 26 q30 0 40.5 -16 q10.5 -16 10.5 -62 l0 -334 l67 0 q38 0 38 -33 q0 -37 -46 -37 l-59 0 l0 -23 l1 -55 q1 -56 33 -56 q6 0 18 2 q12 2 18 2 q33 0 33 -34 q0 -15 -10.5 -25.5 q-10.5 -10.5 -26.5 -10.5 q-15 0 -46.5 6 q-31.5 6 -49.5 6 q-20 0 -56.5 -6 q-36.5 -6 -53.5 -6 q-35 0 -35 36 q0 34 32 34 q5 0 18 -2.5 q13 -2.5 20 -2.5 q28 0 34 45 q1 9 1 67 ZM111 265 l185 0 l0 311 l-185 -311 Z" /><glyph glyph-name="five" unicode="5" d="M155 557 l-14 -157 q59 53 128 53 q82 0 132.5 -61.5 q50.5 -61.5 50.5 -159.5 q0 -107 -58.5 -176 q-58.5 -69 -149.5 -69 q-80 0 -136 49 q-56 49 -56 120 q0 40 17 65.5 q17 25.5 44 25.5 q22 0 36.5 -16 q14.5 -16 14.5 -40 q0 -46 -43 -47 q27 -88 120 -88 q61 0 99.5 49 q38.5 49 38.5 126 q0 68 -34 110 q-34 42 -90 42 q-68 0 -107 -62 q-12 -19 -18 -23 q-6 -4 -22 -4 q-35 0 -35 38 q0 19 4 50 q4 38 5 51 q2 23 5 69 q5 70 5 117 l0 24 q0 17 3 23.5 q3 6.5 17 6.5 q8 0 12 -1 q78 -6 108 -6 l8 1 l79 1 q11 0 33.5 2 q22.5 2 34.5 2 q13 0 17 -4.5 q4 -4.5 4 -19.5 q0 -13 -1 -20 l0 -21 q0 -16 5 -46 q5 -30 5 -45 q0 -29 -29 -29 q-29 0 -31 31 l-2 32 q-2 27 -17 37 q-15 10 -53 10 l-96 0 q-20 0 -26 -6.5 q-6 -6.5 -8 -33.5 Z" /><glyph glyph-name="six" unicode="6" d="M274 614 q-66 0 -106.5 -68.5 q-40.5 -68.5 -45.5 -187.5 q39 49 73 69 q34 20 81 20 q81 0 132.5 -62.5 q51.5 -62.5 51.5 -160.5 q0 -103 -56 -170 q-56 -67 -142 -67 q-53 0 -99 29.5 q-46 29.5 -69 79.5 q-44 96 -44 233 q0 155 63 253 q63 98 163 98 q64 0 108 -41.5 q44 -41.5 44 -102.5 q0 -67 -50 -67 q-20 0 -33 14.5 q-13 14.5 -13 36.5 q0 26 23 44 q-24 50 -81 50 ZM264 375 q-54 0 -89.5 -42.5 q-35.5 -42.5 -35.5 -106.5 q0 -71 36 -119 q36 -48 89 -48 q53 0 87.5 46.5 q34.5 46.5 34.5 117.5 q0 68 -33.5 110 q-33.5 42 -88.5 42 Z" /><glyph glyph-name="seven" unicode="7" d="M132 639 q0 -1 0 -9 q-1 -8 -1 -17 q20 34 36 45 q16 11 46 11 q22 0 70 -23.5 q48 -23.5 75 -23.5 q9 0 24 4 q-9 9 -9 22 q0 32 34 32 q52 0 52 -93 q0 -76 -42 -138 q-19 -29 -44 -58 q-56 -67 -72 -115 q-18 -55 -18 -133 q0 -5 0 -15 q1 -11 1 -16 q1 -31 1 -51 q0 -74 -43 -74 q-34 0 -42 43 q-2 12 -2 69 q0 120 45 216 q27 57 93 134 q35 40 48 63.5 q13 23.5 21 62.5 q-33 -27 -61 -27 q-13 0 -29 6 q-8 3 -39 16 q-43 18 -71 18 q-31 0 -52 -23.5 q-21 -23.5 -21 -57.5 q0 -14 2 -32 q3 -27 3 -39 q0 -51 -35 -51 q-35 0 -35 38 q0 20 6 53 q7 39 7 74 q0 16 -4 48 q-4 32 -4 48 q0 34 31 34 q29 0 29 -41 Z" /><glyph glyph-name="eight" unicode="8" d="M97 322 q26 30 78 44 q-91 38 -91 141 q0 75 50 124 q50 49 126 49 q73 0 119.5 -47 q46.5 -47 46.5 -121 q0 -99 -89 -146 q115 -37 115 -169 q0 -93 -56.5 -151.5 q-56.5 -58.5 -146.5 -58.5 q-86 0 -143.5 56.5 q-57.5 56.5 -57.5 141.5 q0 80 49 137 ZM256 614 q-42 0 -69 -29.5 q-27 -29.5 -27 -74.5 q0 -44 27 -73.5 q27 -29.5 68 -29.5 q40 0 67.5 30 q27.5 30 27.5 73 q0 44 -27 74 q-27 30 -67 30 ZM250 328 q-55 0 -91.5 -38 q-36.5 -38 -36.5 -97 q0 -62 35.5 -101 q35.5 -39 90.5 -39 q56 0 92 39 q36 39 36 100 q0 62 -34 99 q-34 37 -92 37 Z" /><glyph glyph-name="nine" unicode="9" d="M226 53 q66 0 106.5 68.5 q40.5 68.5 45.5 187.5 q-38 -49 -72.5 -69 q-34.5 -20 -81.5 -20 q-81 0 -132.5 62 q-51.5 62 -51.5 160 q0 103 56.5 170.5 q56.5 67.5 141.5 67.5 q53 0 99 -29.5 q46 -29.5 69 -79.5 q44 -96 44 -234 q0 -155 -63 -252.5 q-63 -97.5 -163 -97.5 q-65 0 -108.5 41 q-43.5 41 -43.5 102 q0 68 50 68 q20 0 33 -14.5 q13 -14.5 13 -37.5 q0 -26 -23 -43 q24 -50 81 -50 ZM236 291 q54 0 89.5 42.5 q35.5 42.5 35.5 106.5 q0 71 -36 119 q-36 48 -89 48 q-53 0 -87.5 -46 q-34.5 -46 -34.5 -117 q0 -68 33.5 -110.5 q33.5 -42.5 88.5 -42.5 Z" /><glyph glyph-name="colon" unicode=":" d="M108 -11 q-23 0 -37.5 17.5 q-14.5 17.5 -14.5 45.5 q0 27 14.5 44.5 q14.5 17.5 37.5 17.5 q22 0 36.5 -17.5 q14.5 -17.5 14.5 -44.5 q0 -28 -14.5 -45.5 q-14.5 -17.5 -36.5 -17.5 ZM108 309 q-23 0 -37.5 17.5 q-14.5 17.5 -14.5 44.5 q0 28 14.5 45.5 q14.5 17.5 37.5 17.5 q22 0 36.5 -17.5 q14.5 -17.5 14.5 -45.5 q0 -27 -14.5 -44.5 q-14.5 -17.5 -36.5 -17.5 Z" /><glyph glyph-name="semicolon" unicode=";" d="M114 -26 q0 11 -3 20 q-7 -2 -16 -2 q-44 0 -44 60 q0 64 52 64 q62 0 62 -98 q0 -72 -33 -133 l-13 -24 q-14 -25 -27 -25 q-20 0 -20 19 q0 6 5 15 l11 20 q26 47 26 84 ZM107 309 q-22 0 -36.5 17.5 q-14.5 17.5 -14.5 44.5 q0 28 14.5 45.5 q14.5 17.5 36.5 17.5 q22 0 36.5 -17.5 q14.5 -17.5 14.5 -45.5 q0 -27 -14.5 -44.5 q-14.5 -17.5 -36.5 -17.5 Z" /><glyph glyph-name="less" unicode="&lt;" d="M33 359 l434 201 l0 -67 l-362 -163 l361 -164 l1 -66 l-434 201 l0 58 Z" /><glyph glyph-name="equal" unicode="=" d="M33 388 l0 59 l434 0 l0 -59 l-434 0 ZM33 237 l0 59 l434 0 l0 -59 l-434 0 Z" /><glyph glyph-name="greater" unicode="&gt;" d="M467 300 l-434 -200 l0 66 l362 164 l-361 164 l-1 66 l434 -201 l0 -59 Z" /><glyph glyph-name="question" unicode="?" d="M223 -11 q-22 0 -36.5 17.5 q-14.5 17.5 -14.5 45.5 q0 27 14.5 44.5 q14.5 17.5 36.5 17.5 q23 0 37.5 -17.5 q14.5 -17.5 14.5 -44.5 q0 -28 -14.5 -45.5 q-14.5 -17.5 -37.5 -17.5 ZM335 314 q-47 -30 -64 -52 q-17 -22 -18 -59 l-1 -25 q-1 -32 -34 -32 q-34 0 -34 49 q0 59 27 102 q21 34 81 74 q43 29 59 53 q16 24 16 60 q0 54 -32.5 88.5 q-32.5 34.5 -83.5 34.5 q-51 0 -88.5 -34 q-37.5 -34 -37.5 -80 q0 -17 8 -17 q2 0 9 5 q12 11 23 11 q17 0 28.5 -13.5 q11.5 -13.5 11.5 -34.5 q0 -28 -18 -47.5 q-18 -19.5 -44 -19.5 q-37 0 -60 30.5 q-23 30.5 -23 77.5 q0 82 54.5 135 q54.5 53 138.5 53 q84 0 135 -51.5 q51 -51.5 51 -136.5 q0 -106 -104 -171 Z" /><glyph glyph-name="at" unicode="@" d="M397 201 q0 3 2 13 q-39 -58 -118 -58 q-47 0 -76.5 32.5 q-29.5 32.5 -29.5 84.5 q0 91 66 160.5 q66 69.5 153 69.5 q24 0 44 -6 l20 -6 q3 -1 10 -1 q8 0 17 5 q16 7 22 7 q15 0 15 -13 q0 -7 -1 -11 l-5 -19 l-58 -213 q-3 -12 -3 -19 q0 -18 19 -18 q37 0 70 48 q45 65 45 155 q0 83 -54.5 138 q-54.5 55 -137.5 55 q-117 0 -203.5 -94 q-86.5 -94 -86.5 -219 q0 -98 63 -163.5 q63 -65.5 158 -65.5 q55 0 92 13.5 q37 13.5 91 52.5 q21 15 34 15 q19 0 19 -18 q0 -17 -27 -38 q-102 -78 -218 -78 q-121 0 -201 80.5 q-80 80.5 -80 201.5 q0 146 108.5 254.5 q108.5 108.5 256.5 108.5 q112 0 182.5 -66.5 q70.5 -66.5 70.5 -172.5 q0 -117 -88 -207 q-53 -54 -110 -54 q-26 0 -43.5 13 q-17.5 13 -17.5 33 ZM419 337 l27 100 q-31 15 -59 15 q-58 0 -101 -51 q-43 -51 -43 -119 q0 -69 60 -69 q83 0 116 124 Z" /><glyph glyph-name="A" unicode="a" d="M123 202 l116 423 q9 30 15 38 q11 17 34 17 q28 0 38 -13.5 q10 -13.5 25 -74.5 l115 -457 q12 -43 20 -56.5 q8 -13.5 22 -13.5 q4 0 18 2 q3 0 7 1 q4 0 5 0 q32 0 32 -34 q0 -39 -34 -39 q-4 0 -46 8 q-21 4 -44 4 q-18 0 -49.5 -6 q-31.5 -6 -42.5 -6 q-14 0 -25 11 q-11 11 -11 27 q0 35 33 35 q6 0 9 -1 q3 0 7 0 q4 -1 5 -1 q23 0 23 32 q0 17 -6 42 l-18 74 q-4 16 -8 19.5 q-4 3.5 -17 3.5 l-121 0 q-21 0 -30 -35 l-18 -71 q-7 -28 -7 -45 q0 -19 18 -19 q7 0 10 0.5 q3 0.5 7 1.5 q5 0 6 0 q32 0 32 -36 q0 -38 -33 -38 q-13 0 -41 6 q-28 6 -44 6 q-22 0 -52 -6 q-30 -6 -42 -6 q-36 0 -36 37 q0 36 31 36 q6 0 16 -2 q10 -2 15 -2 q16 0 30.5 30 q14.5 30 35.5 108 ZM346 327 l-55 247 l-64 -247 q-2 -8 -2 -11 q0 -13 19 -13 l87 0 q17 0 17 12 q0 3 -2 12 Z" /><glyph glyph-name="B" unicode="b" d="M467 509 q0 -101 -90 -144 q117 -47 117 -168 q0 -85 -55 -143.5 q-55 -58.5 -134 -58.5 q-27 0 -81 7 q-39 5 -68 5 q-16 0 -47 -6 q-31 -6 -46 -6 q-16 0 -26.5 11.5 q-10.5 11.5 -10.5 28.5 q0 33 32 33 q10 0 15 -2 q16 -2 18 -2 q19 0 24 29.5 q5 29.5 5 144.5 l0 190 q0 116 -5 145.5 q-5 29.5 -24 29.5 q-5 0 -16 -2.5 q-11 -2.5 -17 -2.5 q-32 0 -32 34 q0 39 38 39 q17 0 51.5 -5.5 q34.5 -5.5 51.5 -5.5 q36 0 73 4 q37 4 65 4 q73 0 117.5 -44 q44.5 -44 44.5 -115 ZM191 533 l0 -115 q0 -16 3 -20.5 q3 -4.5 16 -4.5 q0 0 33 0 q79 0 113 24.5 q34 24.5 34 82.5 q0 101 -116 101 q-50 0 -66.5 -13.5 q-16.5 -13.5 -16.5 -54.5 ZM263 326 q-43 0 -47 -1 q-25 -5 -25 -30 l1 -151 q1 -51 17.5 -67.5 q16.5 -16.5 68.5 -16.5 q137 0 137 135 q0 86 -56 116 q-28 15 -96 15 Z" /><glyph glyph-name="C" unicode="c" d="M265 679 q81 0 126 -65 l0 10 q0 33 6.5 44.5 q6.5 11.5 23.5 11.5 q30 0 30 -38 q0 -19 -3.5 -57.5 q-3.5 -38.5 -3.5 -58.5 q0 -23 3 -58 q3 -35 3 -52 q0 -43 -34 -43 q-32 0 -32 39 q0 8 1 23 q1 15 1 23 q0 69 -32 110 q-32 41 -85 41 q-71 0 -112.5 -73.5 q-41.5 -73.5 -41.5 -198.5 q0 -124 43 -200.5 q43 -76.5 114 -76.5 q55 0 89.5 40 q34.5 40 40.5 110 q3 35 11 46.5 q8 11.5 29 11.5 q32 0 32 -38 q0 -103 -59.5 -172.5 q-59.5 -69.5 -147.5 -69.5 q-104 0 -165.5 94 q-61.5 94 -61.5 255 q0 153 62 247.5 q62 94.5 163 94.5 Z" /><glyph glyph-name="D" unicode="d" d="M91 64 q19 0 24 29.5 q5 29.5 5 144.5 l0 190 q0 116 -5 145.5 q-5 29.5 -24 29.5 q-5 0 -16 -2.5 q-11 -2.5 -17 -2.5 q-32 0 -32 34 q0 39 38 39 q18 0 57 -7 q22 -4 46 -4 q17 0 74 5 q23 2 49 2 q240 0 240 -335 q0 -335 -248 -335 q-21 0 -57 4 q-54 6 -72 6 q-16 0 -43 -5 q-38 -7 -47 -7 q-16 0 -26.5 11.5 q-10.5 11.5 -10.5 28.5 q0 33 32 33 q10 0 15 -2 q16 -2 18 -2 ZM192 117 q1 -38 29 -48 q15 -6 62 -6 q82 0 122 61 q53 81 53 214 q0 107 -32.5 173.5 q-32.5 66.5 -90.5 80.5 q-34 8 -71 8 q-51 0 -64 -20 q-9 -13 -9 -65 l0 -6 l1 -392 Z" /><glyph glyph-name="E" unicode="e" d="M191 497 l0 -62 l1 -21 q1 -28 19 -28 l39 0 q41 0 41 47 q0 15 -1 25 q-3 29 -3 33 q0 38 30 38 q29 0 29 -47 q0 -21 0 -21 l-4 -54 q-2 -27 -2 -55 q0 -49 5 -98 q2 -20 2 -26 q0 -40 -30 -40 q-29 0 -29 41 q0 9 1.5 28 q1.5 19 1.5 28 q0 42 -38 42 l-42 0 q-14 0 -17 -6 q-3 -6 -3 -34 l0 -70 q0 -11 1 -51 q0 0 0 -48 q0 -34 17 -43 q12 -6 49 -6 l54 0 q66 0 87 18 q21 18 21 75 q0 13 -2 38.5 q-2 25.5 -2 38.5 q0 45 33 45 q33 0 33 -40 q0 -7 -2 -33 q-6 -34 -6 -78 q0 -14 1 -43 q1 -29 1 -43 q0 -27 -11 -37.5 q-11 -10.5 -40 -10.5 q-17 0 -43 3 q-43 5 -126 5 q-7 0 -81 -3 q-41 -2 -58 -4 q-36 -5 -52 -5 q-39 0 -39 40 q0 33 32 33 q10 0 15 -2 q16 -2 18 -2 q19 0 24 29.5 q5 29.5 5 144.5 l0 190 q0 116 -5 145.5 q-5 29.5 -24 29.5 q-5 0 -16 -2.5 q-11 -2.5 -17 -2.5 q-32 0 -32 34 q0 39 38 39 q9 0 66 -8 q21 -3 52 -3 q79 0 168 7 q25 2 65 2 q44 0 49 -23 q2 -10 2 -28 q0 -14 -1 -37 q-3 -64 0 -104 l3 -48 q0 -41 -31 -41 q-34 0 -34 45 q0 13 1 37.5 q1 24.5 1 37.5 q0 55 -16 74 q-16 19 -62 19 l-77 0 q-40 0 -49.5 -17 q-9.5 -17 -9.5 -87 Z" /><glyph glyph-name="F" unicode="f" d="M193 529 l-1 -33 l0 -82 q0 -24 4 -30 q4 -6 21 -6 l23 0 q51 0 51 45 q0 6 -3 31 l0 17 q0 39 30 39 q30 0 30 -34 q0 -28 -4.5 -84 q-4.5 -56 -4.5 -84 q0 -18 6 -60 q3 -21 3 -34 q0 -41 -30 -41 q-32 0 -32 47 q0 8 1 25 q1 17 1 26 q0 41 -38 41 l-34 0 q-18 0 -21 -7.5 q-3 -7.5 -3 -21.5 l0 -55 l2 -119 q1 -45 32 -45 q7 0 20 2.5 q13 2.5 20 2.5 q31 0 31 -32 q0 -39 -35 -39 q-16 0 -48 4.5 q-32 4.5 -48 4.5 q-19 0 -52.5 -6 q-33.5 -6 -49.5 -6 q-16 0 -27 11.5 q-11 11.5 -11 28.5 q0 33 32 33 q10 0 15 -2 q16 -2 18 -2 q19 0 24 29.5 q5 29.5 5 144.5 l0 190 q0 116 -5 145.5 q-5 29.5 -24 29.5 q-5 0 -16 -2.5 q-11 -2.5 -17 -2.5 q-32 0 -32 34 q0 17 10.5 28 q10.5 11 26.5 11 q13 0 58 -8 q17 -3 51 -3 q14 0 89 1 q24 0 78 3 q50 3 77 3 q29 0 40 -7.5 q11 -7.5 11 -36.5 q0 -16 -1 -44 l-2 -55 l1 -45 l3 -48 q0 0 0 -7 q0 -38 -30 -38 q-37 0 -37 43 q0 6 0 5 l3 40 q1 4 1 17 q0 65 -14 85 q-14 20 -60 20 l-73 0 q-65 0 -65 -39 l0 -28 Z" /><glyph glyph-name="G" unicode="g" d="M263 680 q69 0 128 -56 q-2 11 -2 22 q0 38 30 38 q30 0 30 -36 q0 -9 -3 -50 q-4 -44 -4 -72 q0 -14 2.5 -41.5 q2.5 -27.5 2.5 -41.5 q0 -40 -34 -40 q-30 0 -30 38 l0 27 q0 142 -115 142 q-74 0 -110 -68 q-44 -83 -44 -204 q0 -124 47 -211 q37 -68 104 -68 q53 0 85.5 42 q32.5 42 32.5 112 q0 66 -30 66 q-8 0 -24 -3 q-16 -3 -24 -3 q-13 0 -22 10.5 q-9 10.5 -9 25.5 q0 36 35 36 q16 0 47 -5 q31 -5 47 -5 q18 0 52 6.5 q34 6.5 51 6.5 q33 0 33 -37 q0 -34 -30 -34 q-5 0 -8 1 q-20 2 -19 2 q-16 0 -22.5 -20.5 q-6.5 -20.5 -6.5 -73.5 q0 -16 1 -45 l2 -59 l3 -48 q0 0 0 -5 q0 -40 -32 -40 q-32 0 -32 35 q0 6 3 42 q-56 -79 -138 -79 q-100 0 -160 94 q-60 94 -60 249 q0 160 60.5 255 q60.5 95 162.5 95 Z" /><glyph glyph-name="H" unicode="h" d="M416 238 l0 51 q0 18 -3.5 22.5 q-3.5 4.5 -16.5 4.5 q-5 1 -23 1 l-158 0 q-11 0 -14 -5 q-6 -6 -6 -42 l0 -32 q0 -99 0 -99 q5 -75 29 -75 q2 0 18 2 q6 2 15 2 q14 0 23.5 -9.5 q9.5 -9.5 9.5 -23.5 q0 -17 -11 -28.5 q-11 -11.5 -27 -11.5 q-11 0 -49 7 q-27 5 -45 5 q-16 0 -47 -6 q-31 -6 -47 -6 q-16 0 -27 11.5 q-11 11.5 -11 28.5 q0 33 32 33 q10 0 15 -2 q16 -2 18 -2 q19 0 24 29.5 q5 29.5 5 144.5 l0 190 q0 116 -5 145.5 q-5 29.5 -24 29.5 q-5 0 -16 -2.5 q-11 -2.5 -17 -2.5 q-32 0 -32 34 q0 39 38 39 q18 0 42 -5 q28 -6 60 -6 q15 0 43.5 5.5 q28.5 5.5 42.5 5.5 q16 0 27 -11.5 q11 -11.5 11 -27.5 q0 -14 -9.5 -24 q-9.5 -10 -23.5 -10 q-6 0 -16.5 2.5 q-10.5 2.5 -16.5 2.5 q-24 0 -29 -76 q0 1 0 -99 l0 -8 l1 -13 q1 -19 9 -23 q8 -4 45 -4 l116 0 q34 0 42 6.5 q8 6.5 8 33.5 l0 8 q0 100 0 99 q-5 76 -29 76 q-7 0 -18.5 -2.5 q-11.5 -2.5 -14.5 -2.5 q-14 0 -23.5 10 q-9.5 10 -9.5 24 q0 17 11.5 28 q11.5 11 27.5 11 q16 0 48.5 -5.5 q32.5 -5.5 49.5 -5.5 q16 0 46 5.5 q30 5.5 43 5.5 q16 0 27 -11.5 q11 -11.5 11 -27.5 q0 -14 -9.5 -24 q-9.5 -10 -23.5 -10 q-6 0 -16.5 2.5 q-10.5 2.5 -16.5 2.5 q-24 0 -29 -76 q0 1 0 -99 l0 -190 q0 -99 0 -99 q5 -75 29 -75 q2 0 18 2 q6 2 15 2 q14 0 23.5 -9.5 q9.5 -9.5 9.5 -23.5 q0 -17 -11 -28.5 q-11 -11.5 -28 -11.5 q-15 0 -47 6 q-32 6 -50 6 q-15 0 -45 -6 q-30 -6 -45 -6 q-16 0 -27 11.5 q-11 11.5 -11 28.5 q0 14 10 23.5 q10 9.5 23 9.5 q9 0 15 -2 q14 -2 18 -2 q24 0 29 75 q0 0 0 99 Z" /><glyph glyph-name="I" unicode="i" d="M91 64 q19 0 24 29.5 q5 29.5 5 144.5 l0 190 q0 116 -5 145.5 q-5 29.5 -24 29.5 q-5 0 -16 -2.5 q-11 -2.5 -17 -2.5 q-32 0 -32 34 q0 39 38 39 q15 0 45 -5.5 q30 -5.5 45 -5.5 q16 0 47 5.5 q31 5.5 47 5.5 q39 0 39 -39 q0 -34 -33 -34 q-3 0 -14 2.5 q-11 2.5 -19 2.5 q-19 0 -23.5 -29.5 q-4.5 -29.5 -4.5 -145.5 l0 -190 q0 -115 4.5 -144.5 q4.5 -29.5 23.5 -29.5 q4 0 18 2 q6 2 15 2 q14 0 23.5 -9.5 q9.5 -9.5 9.5 -23.5 q0 -17 -11 -28.5 q-11 -11.5 -27 -11.5 q-5 0 -48 8 q-22 4 -42 4 q-18 0 -49.5 -6 q-31.5 -6 -45.5 -6 q-16 0 -27 11.5 q-11 11.5 -11 28.5 q0 33 32 33 q10 0 15 -2 q16 -2 18 -2 Z" /><glyph glyph-name="J" unicode="j" d="M118 238 q0 15 10 30 q-41 -20 -41 -77 q0 -58 30 -93 q30 -35 78 -35 q35 0 65 21 q30 21 43 55 q12 31 15 60 q3 29 3 118 l0 111 q0 100 0 99 q-5 76 -29 76 q-6 0 -16.5 -2.5 q-10.5 -2.5 -16.5 -2.5 q-14 0 -23.5 10 q-9.5 10 -9.5 24 q0 16 11 27.5 q11 11.5 27 11.5 q15 0 44.5 -5.5 q29.5 -5.5 45.5 -5.5 q18 0 50 5.5 q32 5.5 46 5.5 q16 0 27 -11.5 q11 -11.5 11 -27.5 q0 -14 -9.5 -24 q-9.5 -10 -23.5 -10 q-3 0 -14 2.5 q-11 2.5 -19 2.5 q-24 0 -29 -76 q0 1 0 -99 l0 -181 q0 -127 -56.5 -193.5 q-56.5 -66.5 -142.5 -66.5 q-77 0 -125.5 56.5 q-48.5 56.5 -48.5 144.5 q0 65 31 107 q31 42 78 42 q32 0 54 -23.5 q22 -23.5 22 -59.5 q0 -27 -13 -44 q-13 -17 -34 -17 q-40 0 -40 45 Z" /><glyph glyph-name="K" unicode="k" d="M394 123 l-128 232 l-74 -87 l0 -30 q0 -99 0 -99 q5 -75 29 -75 q4 0 18 2 q6 2 15 2 q14 0 23.5 -9.5 q9.5 -9.5 9.5 -23.5 q0 -17 -11 -28.5 q-11 -11.5 -27 -11.5 q-8 0 -45 7 q-26 5 -46 5 q-16 0 -47 -6 q-31 -6 -47 -6 q-16 0 -27 11.5 q-11 11.5 -11 28.5 q0 33 32 33 q10 0 15 -2 q16 -2 18 -2 q19 0 24 29.5 q5 29.5 5 144.5 l0 190 q0 116 -5 145.5 q-5 29.5 -24 29.5 q-5 0 -16 -2.5 q-11 -2.5 -17 -2.5 q-32 0 -32 34 q0 39 39 39 q18 0 46 -5 q33 -6 51 -6 q20 0 39 4 q33 7 48 7 q16 0 27 -11.5 q11 -11.5 11 -27.5 q0 -14 -9.5 -24 q-9.5 -10 -23.5 -10 q-3 0 -14 2.5 q-11 2.5 -19 2.5 q-24 0 -29 -76 q0 1 0 -99 l0 -63 l125 136 q70 76 70 90 q0 9 -11 9 q-4 0 -11.5 -1.5 q-7.5 -1.5 -11.5 -1.5 q-31 0 -31 38 q0 36 34 36 q12 0 30 -4 q24 -5 31 -5 q13 -2 32 -2 q16 0 47 5.5 q31 5.5 46 5.5 q37 0 37 -36 q0 -15 -9.5 -25.5 q-9.5 -10.5 -23.5 -10.5 q-9 0 -15 2 q-14 2 -16 2 q-16 0 -43 -29 l-34 -37 l-121 -126 l176 -309 q14 -24 21.5 -30.5 q7.5 -6.5 20.5 -6.5 q11 0 17 2 q16 2 19 2 q31 0 31 -36 q0 -38 -36 -38 q-16 0 -48 6 q-32 6 -49 6 q-16 0 -47.5 -6 q-31.5 -6 -47.5 -6 q-37 0 -37 38 q0 37 35 37 q5 0 13.5 -1.5 q8.5 -1.5 13.5 -1.5 q13 0 13 12 q0 13 -7 25 l-11 19 Z" /><glyph glyph-name="L" unicode="l" d="M190 428 l1 -266 q1 -71 8.5 -85.5 q7.5 -14.5 43.5 -14.5 l63 0 q65 0 84 15 q19 15 19 65 l0 4 q0 23 -1 44 q0 13 -1 27 q-1 14 -1 15 q0 47 35 47 q34 0 34 -41 q0 -10 -2 -35 q-5 -61 -5 -80 q0 -24 2 -47 q3 -35 3 -37 q0 -42 -43 -42 q-13 0 -41 3 q-11 1 -67 4 q-60 3 -77 3 q-82 0 -122 -6 q-40 -6 -59 -6 q-38 0 -38 40 q0 33 32 33 q10 0 15 -2 q16 -2 18 -2 q19 0 24 29.5 q5 29.5 5 144.5 l0 190 q0 116 -5 145.5 q-5 29.5 -24 29.5 q-5 0 -16 -2.5 q-11 -2.5 -17 -2.5 q-32 0 -32 34 q0 39 38 39 q14 0 44 -5.5 q30 -5.5 47 -5.5 q16 0 46 5.5 q30 5.5 45 5.5 q16 0 27 -11.5 q11 -11.5 11 -27.5 q0 -34 -33 -34 q-3 0 -14 2.5 q-11 2.5 -19 2.5 q-19 0 -23.5 -29.5 q-4.5 -29.5 -4.5 -145.5 Z" /><glyph glyph-name="M" unicode="m" d="M244 612 l113 -504 l112 516 q10 44 32 44 q-1 0 36 -6 q11 -2 24 -2 q15 0 43.5 5.5 q28.5 5.5 43.5 5.5 q17 0 28 -11 q11 -11 11 -28 q0 -14 -9.5 -24 q-9.5 -10 -23.5 -10 q-6 0 -15 2 q-13 3 -18 3 q-24 0 -29 -76 q0 1 0 -99 l0 -190 q0 -99 0 -99 q5 -75 29 -75 q2 0 18 2 q5 2 15 2 q14 0 23.5 -9.5 q9.5 -9.5 9.5 -23.5 q0 -17 -11 -28.5 q-11 -11.5 -28 -11.5 q-16 0 -46.5 6 q-30.5 6 -46.5 6 q-15 0 -41.5 -6 q-26.5 -6 -40.5 -6 q-13 0 -22.5 11 q-9.5 11 -9.5 26 q0 34 35 34 l13 0 q2 -1 8 -1 q25 0 27 45 l2 42 l2 85 l0 375 l-130 -598 q-6 -27 -40 -27 q-36 0 -42 27 l-132 589 l0 -358 q0 -119 5 -149.5 q5 -30.5 24 -30.5 q5 0 15 1.5 q10 1.5 15 1.5 q33 0 33 -35 q0 -38 -34 -38 q-11 0 -36 6 q-25 6 -48 6 q-16 0 -47 -6 q-31 -6 -47 -6 q-38 0 -38 40 q0 33 32 33 q10 0 15 -2 q16 -2 18 -2 q19 0 24 29.5 q5 29.5 5 144.5 l0 184 q0 115 -5 144.5 q-5 29.5 -24 29.5 q-2 0 -18 -2 q-5 -2 -15 -2 q-32 0 -32 33 q0 17 11 28.5 q11 11.5 27 11.5 q7 0 32 -3 q9 -2 35 -2 q14 0 40 3 q26 3 38 3 q18 0 26 -19 q2 -6 9 -35 Z" /><glyph glyph-name="N" unicode="n" d="M230 640 l183 -543 l0 331 q0 100 0 99 q-5 76 -29 76 q-6 0 -16.5 -2.5 q-10.5 -2.5 -16.5 -2.5 q-14 0 -23.5 10 q-9.5 10 -9.5 24 q0 16 11 27.5 q11 11.5 27 11.5 q13 0 45 -7 q18 -4 45 -4 q30 0 46 4 q29 7 40 7 q13 0 22.5 -11 q9.5 -11 9.5 -27 q0 -35 -30 -35 q-4 0 -13 1.5 q-9 1.5 -14 1.5 q-22 0 -25 -46 l-3 -49 l-1 -75 l0 -367 q0 -70 -51 -70 q-45 0 -66 63 l-175 522 l0 -341 q0 -115 5 -144.5 q5 -29.5 24 -29.5 q3 0 17 2 q6 2 16 2 q32 0 32 -33 q0 -16 -11 -28 q-11 -12 -26 -12 q-4 0 -42 9 q-13 3 -43 3 q-25 0 -51 -5 q-37 -7 -44 -7 q-16 0 -26.5 11.5 q-10.5 11.5 -10.5 28.5 q0 33 32 33 q10 0 15 -2 q16 -2 18 -2 q19 0 24 29.5 q5 29.5 5 144.5 l0 190 q0 116 -5 145.5 q-5 29.5 -24 29.5 q-5 0 -16 -2.5 q-11 -2.5 -17 -2.5 q-32 0 -32 34 q0 17 10.5 28 q10.5 11 26.5 11 q11 0 38 -6 q22 -5 47 -5 q4 0 42 6 q9 1 15 1 q16 0 25 -27 Z" /><glyph glyph-name="O" unicode="o" d="M255 -13 q-98 0 -156.5 94 q-58.5 94 -58.5 252 q0 158 58.5 252.5 q58.5 94.5 156.5 94.5 q98 0 156 -94 q58 -94 58 -253 q0 -158 -58 -252 q-58 -94 -156 -94 ZM256 610 q-67 0 -103.5 -73 q-36.5 -73 -36.5 -204 q0 -129 36.5 -202.5 q36.5 -73.5 100.5 -73.5 q66 0 103 73 q37 73 37 203 q0 129 -36.5 203 q-36.5 74 -100.5 74 Z" /><glyph glyph-name="P" unicode="p" d="M262 282 l-50 0 q-14 0 -17.5 -5.5 q-3.5 -5.5 -3.5 -25.5 l0 -13 q0 -99 0 -99 q5 -75 29 -75 q2 0 18 2 q5 2 15 2 q14 0 23.5 -9.5 q9.5 -9.5 9.5 -23.5 q0 -17 -11 -28.5 q-11 -11.5 -27 -11.5 q-4 0 -49 8 q-15 4 -43 4 q-17 0 -48.5 -6 q-31.5 -6 -44.5 -6 q-16 0 -26.5 11.5 q-10.5 11.5 -10.5 28.5 q0 33 32 33 q10 0 15 -2 q16 -2 18 -2 q19 0 24 29.5 q5 29.5 5 144.5 l0 190 q0 116 -5 145.5 q-5 29.5 -24 29.5 q-5 0 -16 -2.5 q-11 -2.5 -17 -2.5 q-32 0 -32 34 q0 39 38 39 q16 0 47.5 -5.5 q31.5 -5.5 47.5 -5.5 q26 0 81 4 q28 2 65 2 q83 0 127.5 -50 q44.5 -50 44.5 -143 q0 -119 -78 -164 q-47 -27 -137 -27 ZM276 601 q-50 0 -67.5 -11.5 q-17.5 -11.5 -17.5 -45.5 l0 -153 q0 -31 3.5 -35.5 q3.5 -4.5 16.5 -4.5 q33 -3 59 -3 q136 0 136 123 q0 68 -31 99 q-31 31 -99 31 Z" /><glyph glyph-name="Q" unicode="q" d="M427 114 q-28 -60 -74 -94 l0 -64 q0 -87 38 -87 q37 0 37 67 q0 47 30 47 q30 0 30 -47 q0 -58 -27 -92.5 q-27 -34.5 -72 -34.5 q-52 0 -73 32 q-21 32 -23 111 l-1 41 q-26 -5 -41 -5 q-43 0 -86.5 27 q-43.5 27 -68.5 69 q-56 94 -56 251 q0 152 61 249 q61 97 158 97 q98 0 154.5 -95 q56.5 -95 56.5 -261 q0 -119 -43 -211 ZM351 154 q0 -12 -3 -45 q23 41 32 76 q18 70 18 159 q0 122 -38 195.5 q-38 73.5 -101 73.5 q-74 0 -109 -81 q-39 -90 -39 -198 q0 -126 34 -197 q4 -9 16 -26 q-5 34 -5 57 q0 49 28 79.5 q28 30.5 73 30.5 q94 0 94 -124 ZM263 52 q9 0 29 5 l0 76 q0 80 -41 80 q-23 0 -39 -23 q-16 -23 -16 -56 q0 -34 19.5 -58 q19.5 -24 47.5 -24 Z" /><glyph glyph-name="R" unicode="r" d="M477 495 q0 -124 -103 -155 q44 -17 57 -38.5 q13 -21.5 16 -81.5 l2 -46 l1 -41 q2 -69 31 -69 q5 0 17 2 q12 2 13 2 q32 0 32 -34 q0 -37 -42 -37 l-10 0 l-24 3 l-26 1 q-37 1 -50 34.5 q-13 33.5 -15 132.5 l-1 47 q-1 53 -22 71.5 q-21 18.5 -80 18.5 q-8 0 -8 0 l-50 -2 q-14 -1 -18 -8 q-4 -7 -4 -33 l0 -24 q0 -115 5 -144.5 q5 -29.5 24 -29.5 q2 0 18 2 q5 2 15 2 q32 0 32 -33 q0 -17 -11 -28.5 q-11 -11.5 -27 -11.5 q-14 0 -46 6 q-32 6 -49 6 q-16 0 -46 -6 q-30 -6 -45 -6 q-16 0 -26.5 11.5 q-10.5 11.5 -10.5 28.5 q0 33 32 33 q10 0 15 -2 q16 -2 18 -2 q19 0 24 29.5 q5 29.5 5 144.5 l0 190 q0 116 -5 145.5 q-5 29.5 -24 29.5 q-5 0 -16 -2.5 q-11 -2.5 -17 -2.5 q-32 0 -32 34 q0 39 38 39 q16 0 48.5 -5.5 q32.5 -5.5 49.5 -5.5 q26 0 78 3.5 q52 3.5 78 3.5 q76 0 117.5 -44.5 q41.5 -44.5 41.5 -127.5 ZM193 397 q0 -22 21 -23 l20 -1 q3 -1 10 -1 q5 0 17 1 q45 3 72 6 q32 8 51 38 q19 30 19 73 q0 114 -116 114 q-52 0 -73 -11 q-21 -11 -21 -37 l0 -159 Z" /><glyph glyph-name="S" unicode="s" d="M225 681 q69 0 117 -54 q0 3 0 8 q-1 6 -1 8 q0 33 30 33 q33 0 33 -41 q0 -15 -1.5 -44.5 q-1.5 -29.5 -1.5 -44.5 q0 -15 2 -44 q2 -29 2 -44 q0 -43 -35 -43 q-32 0 -32 39 l0 4 l1 25 q0 0 0 8 q0 53 -30 86 q-30 33 -79 33 q-46 0 -75 -32.5 q-29 -32.5 -29 -82.5 q0 -47 28 -69.5 q28 -22.5 114 -44.5 q72 -19 103 -38 q31 -19 48 -54 q19 -39 19 -91 q0 -90 -52.5 -149 q-52.5 -59 -133.5 -59 q-79 0 -139 69 q1 -13 1 -25 q0 -43 -32 -43 q-31 0 -31 43 l0 3 q0 21 4 64.5 q4 43.5 4 65.5 q0 14 -3 41 q-3 27 -3 40 q0 41 35 41 q34 0 34 -43 q0 -2 -2 -24 q-2 -22 -2 -29 q0 -55 37.5 -93 q37.5 -38 91.5 -38 q54 0 88 35 q34 35 34 90 q0 79 -71 105 q-31 11 -70 20 q-118 26 -154 94 q-21 40 -21 86 q0 79 50 134 q50 55 122 55 Z" /><glyph glyph-name="T" unicode="t" d="M283 519 l0 -281 q0 -115 5 -144.5 q5 -29.5 24 -29.5 q3 0 17 2 q6 2 16 2 q32 0 32 -33 q0 -17 -11 -28.5 q-11 -11.5 -27 -11.5 q-9 0 -47 7 q-27 5 -47 5 q-16 0 -46.5 -6 q-30.5 -6 -44.5 -6 q-16 0 -27 11.5 q-11 11.5 -11 28.5 q0 33 33 33 q9 0 15 -2 q14 -2 18 -2 q19 0 23.5 29.5 q4.5 29.5 4.5 144.5 l0 235 q0 84 -8 105 q-8 21 -42 21 q-35 0 -48 -10.5 q-13 -10.5 -13 -39.5 q0 -10 2 -52 q2 -42 2 -56 q0 -53 -36 -53 q-34 0 -34 44 q0 -1 2 31 q3 48 3 74 q0 16 -2 58 q-1 21 -1 38 q0 35 30 35 q9 0 44 -4 q35 -4 106 -4 l30 0 l58 1 q43 1 62 3 q34 4 63 4 q30 0 30 -34 q0 -6 -2 -33 q-3 -41 -3 -71 q0 -23 2 -65 q1 -21 1 -31 q0 -45 -35 -45 q-33 0 -33 50 q0 3 1 19.5 q1 16.5 1 26.5 l2 60 q0 31 -11.5 43 q-11.5 12 -40.5 12 q-42 0 -52 -22 q-5 -12 -5 -59 Z" /><glyph glyph-name="U" unicode="u" d="M102 379 l0 156 q0 68 -29 68 q-4 0 -12 -1.5 q-8 -1.5 -12 -1.5 q-13 0 -22 9.5 q-9 9.5 -9 23.5 q0 39 37 39 q14 0 35 -5 q30 -7 50 -7 q16 0 45 5.5 q29 5.5 42 5.5 q16 0 27 -11.5 q11 -11.5 11 -27.5 q0 -14 -9.5 -24 q-9.5 -10 -23.5 -10 q-6 0 -16.5 2.5 q-10.5 2.5 -16.5 2.5 q-24 0 -29 -76 q0 1 0 -99 l0 -145 q0 -107 11 -151 q8 -34 38 -55.5 q30 -21.5 68 -21.5 q38 0 67 21.5 q29 21.5 39 58.5 q11 41 11 148 l0 145 q0 100 0 99 q-5 76 -29 76 q-6 0 -16.5 -2.5 q-10.5 -2.5 -16.5 -2.5 q-14 0 -23.5 10 q-9.5 10 -9.5 24 q0 17 11.5 28 q11.5 11 27.5 11 q14 0 42 -5.5 q28 -5.5 42 -5.5 q15 0 44 6.5 q29 6.5 44 6.5 q35 0 35 -38 q0 -33 -32 -33 l-18 0 q-21 0 -26.5 -18 q-5.5 -18 -5.5 -90 l0 -93 q0 -26 1 -78.5 q1 -52.5 1 -78.5 q0 -114 -26 -167 q-21 -42 -66.5 -66 q-45.5 -24 -102.5 -24 q-52 0 -94 21.5 q-42 21.5 -60 56.5 q-26 52 -26 178 q0 45 0 45 q2 69 2 91 Z" /><glyph glyph-name="V" unicode="v" d="M167 511 l101 -406 l95 445 q4 20 4 30 q0 22 -18 22 q-2 0 -5 0 q-4 -1 -5 -1 q-12 -3 -19 -3 q-28 0 -28 35 q0 38 36 38 q13 0 41 -6 q24 -5 44 -5 q15 0 42 5.5 q27 5.5 39 5.5 q34 0 34 -37 q0 -34 -29 -34 q-5 0 -13.5 1.5 q-8.5 1.5 -13.5 1.5 q-20 0 -39 -77 l-18 -73 l-103 -426 q-9 -36 -46 -36 q-24 0 -33 10 q-8 7 -15 34 l-128 480 q-22 85 -47 85 q-1 0 -3 0 q-3 -1 -4 -1 q-6 -1 -13 -2 q-12 0 -20.5 11.5 q-8.5 11.5 -8.5 26.5 q0 36 36 36 q14 0 41 -5.5 q27 -5.5 41 -5.5 q23 0 39 5 q32 6 43 6 q34 0 34 -36 q0 -15 -10 -25.5 q-10 -10.5 -24 -10.5 q-4 0 -12.5 1.5 q-8.5 1.5 -12.5 1.5 q-18 0 -18 -20 q0 -9 8 -40 l8 -31 Z" /><glyph glyph-name="W" unicode="w" d="M153 539 l62 -410 l82 482 q6 35 15.5 47.5 q9.5 12.5 29.5 12.5 q25 0 35 -18 q4 -8 10 -42 l83 -492 l60 411 q4 27 4 40 q0 34 -29 34 q-2 0 -6 0 q-4 -1 -6 -1 q-13 -3 -20 -3 q-30 0 -30 36 q0 35 36 35 q15 0 45 -5.5 q30 -5.5 45 -5.5 q15 0 45 5.5 q30 5.5 45 5.5 q34 0 34 -36 q0 -35 -30 -35 q-3 0 -15 2 q-5 2 -13 2 q-20 0 -27 -49 q0 -6 -6 -40 l-10 -56 l-78 -424 q-8 -44 -43 -44 q-42 0 -49 52 l-4 31 l-77 450 l-84 -484 q-6 -28 -10 -36 q-9 -13 -31 -13 q-25 0 -32.5 8 q-7.5 8 -12.5 36 l-83 445 q-15 83 -23 103 q-8 20 -24 20 l-2 0 l-16 -2 l-2 0 q-27 0 -27 34 q0 15 10.5 25.5 q10.5 10.5 24.5 10.5 q14 0 41 -5.5 q27 -5.5 41 -5.5 q16 0 47 5.5 q31 5.5 46 5.5 q34 0 34 -37 q0 -34 -32 -34 q-6 0 -16.5 2 q-10.5 2 -16.5 2 q-25 0 -25 -29 l0 -5 l5 -31 Z" /><glyph glyph-name="X" unicode="x" d="M162 183 l101 164 l-88 147 q-64 107 -87 107 l-10 0 q-8 -2 -16 -2 q-31 0 -31 35 q0 37 37 37 q20 0 39 -4 q32 -7 53 -7 q14 0 35 4 q28 5 34 6 q10 1 19 1 q34 0 34 -36 q0 -37 -31 -37 q-5 0 -16 2 q-11 2 -16 2 q-16 0 -16 -13 q0 -5 9 -21 l17 -31 l72 -125 l74 125 q26 44 26 52 q0 12 -17 12 q-5 0 -13.5 -1.5 q-8.5 -1.5 -13.5 -1.5 q-12 0 -21 11 q-9 11 -9 25 q0 15 10.5 26 q10.5 11 25.5 11 q14 0 42 -5.5 q28 -5.5 43 -5.5 q16 0 46.5 5.5 q30.5 5.5 45.5 5.5 q36 0 36 -37 q0 -35 -32 -35 q-4 0 -13 1 q-9 1 -13 1 q-16 0 -31 -17.5 q-15 -17.5 -55 -82.5 l-95 -154 l129 -209 l27 -39 q24 -35 41 -35 q5 0 16 2 q11 2 16 2 q30 0 30 -33 q0 -40 -37 -40 q-9 0 -32 4 q-46 8 -70 8 q-15 0 -43 -6 q-28 -6 -42 -6 q-15 0 -26 11.5 q-11 11.5 -11 27.5 q0 35 35 35 q5 0 15.5 -2 q10.5 -2 15.5 -2 q14 0 14 15 q0 6 -12 28 l-14 26 l-88 149 l-92 -149 l-17 -31 q-9 -16 -9 -23 q0 -15 18 -15 q10 0 16.5 1.5 q6.5 1.5 15.5 1.5 q32 0 32 -35 q0 -16 -10 -27 q-10 -11 -24 -11 q-11 0 -32 4 q-25 6 -32 7 q-12 1 -23 1 q-27 0 -54 -5 q-38 -7 -48 -7 q-40 0 -40 38 q0 36 32 36 q6 0 16 -2 q10 -2 15 -2 q18 0 35 28 q1 2 30 42 q17 24 32 48 Z" /><glyph glyph-name="Y" unicode="y" d="M183 537 l89 -205 l102 232 q7 17 7 21 q0 13 -12 13 q-5 0 -14 -2 q-9 -2 -14 -2 q-29 0 -29 38 q0 39 34 39 q10 0 36.5 -5.5 q26.5 -5.5 42.5 -5.5 q25 0 53 6 q24 5 35 5 q35 0 35 -39 q0 -37 -32 -37 q-7 0 -16 3 q-12 2 -14 2 q-14 0 -26 -21 l-10 -18 l-11 -24 l-126 -266 q-5 -10 -6 -26 q-2 -9 -2 -23 l0 -104 q0 -56 31 -56 q11 0 19 2 q14 2 19 2 q31 0 31 -33 q0 -16 -10 -27 q-10 -11 -25 -11 q-17 0 -49.5 6 q-32.5 6 -49.5 6 q-19 0 -54.5 -6 q-35.5 -6 -52.5 -6 q-37 0 -37 38 q0 33 33 33 q7 0 20.5 -2 q13.5 -2 19.5 -2 q26 0 32 63 q2 15 2 77 l0 23 q0 25 -7 42 q-3 7 -13 30 l-132 278 q-13 24 -28 24 q-5 0 -14.5 -1.5 q-9.5 -1.5 -14.5 -1.5 q-31 0 -31 37 q0 39 36 39 q11 0 41 -6 q30 -6 48 -6 q16 0 42 5.5 q26 5.5 36 5.5 q15 0 25.5 -11.5 q10.5 -11.5 10.5 -28.5 q0 -37 -33 -37 q-5 0 -13.5 2 q-8.5 2 -12.5 2 q-10 0 -10 -12 q0 -1 1 -4.5 q1 -3.5 8 -20.5 l10 -24 Z" /><glyph glyph-name="Z" unicode="z" d="M142 69 l27 -1 l143 0 q40 0 56.5 18.5 q16.5 18.5 16.5 62.5 q0 1 -2 49 q-2 48 -2 43 q0 38 34 38 q34 0 34 -38 q0 -13 -2.5 -38 q-2.5 -25 -2.5 -36 l-1 -46 l0 -44 l2 -37 q0 -43 -47 -43 q-21 0 -46 2 q-63 5 -145 5 q-33 0 -105 -4 q0 0 -16 0 q-57 0 -57 45 q0 25 28 69 l293 461 q5 8 5 12 q0 13 -31 13 l-137 0 q-44 0 -57.5 -20 q-13.5 -20 -13.5 -85 q0 -7 1 -29 q0 -21 0 -32 l0 -5 q0 -45 -32 -45 q-35 0 -35 42 q0 10 1 15 q5 55 5 96 q0 12 0 28 q-1 16 -1 20 l0 39 q0 26 10 36.5 q10 10.5 37 10.5 q7 0 10 -1 q59 -5 171 -5 q35 0 49 1 l70 5 q50 0 50 -42 q0 -21 -17 -48 l-307 -479 q-9 -14 -9 -20 q0 -12 23 -13 Z" /><glyph glyph-name="bracketleft" unicode="[" d="M130 421 l2 -415 q1 -35 1 -39 q5 -23 24 -23 q9 0 16 1 l11 0 q35 0 35 -32 q0 -35 -35 -35 q-9 0 -26 3 q-17 3 -25 3 q-10 0 -27.5 -3.5 q-17.5 -3.5 -26.5 -3.5 q-15 0 -18 12 q-1 3 -1 25 l0 720 q0 22 1 26 q3 12 18 12 q2 0 34 -5 q12 -2 20 -2 q8 0 25 3 q17 3 26 3 q35 0 35 -35 q0 -32 -35 -32 l-11 0 q-7 1 -16 1 q-19 0 -24 -23 q0 -4 -1 -39 l-2 -122 Z" /><glyph glyph-name="backslash" unicode="\" d="M25 750 l66 0 l362 -833 l-65 0 l-363 833 Z" /><glyph glyph-name="bracketright" unicode="]" d="M187 672 q14 0 18 -13 q1 -4 1 -25 l0 -720 q0 -32 -9 -36 q-3 -1 -10 -1 q-2 0 -34 5 q-12 2 -20 2 q-8 0 -25 -3 q-17 -3 -26 -3 q-35 0 -35 35 q0 32 35 32 l11 0 q6 -1 15 -1 q20 0 24 23 q1 4 2 39 l2 122 l0 293 q0 22 -1 72 l-1 50 q-1 35 -2 39 q-4 23 -24 23 q-9 0 -15 -1 l-11 0 q-35 0 -35 32 q0 35 35 35 q9 0 26 -3 q17 -3 25 -3 q10 0 27.5 3.5 q17.5 3.5 26.5 3.5 Z" /><glyph glyph-name="asciicircum" unicode="^" d="M249 615 l-149 -247 l-73 0 l179 300 l88 0 l179 -300 l-74 0 l-150 247 Z" /><glyph glyph-name="underscore" unicode="_" d="M0 -129 l0 60 l500 0 l0 -60 l-500 0 Z" /><glyph glyph-name="grave" unicode="`" d="M303 565 q-6 0 -19 6 l-87 40 q-38 17 -38 48 q0 19 11 32 q11 13 27 13 q17 0 43 -26 l66 -67 q14 -14 14 -28 q0 -18 -17 -18 Z" /><glyph glyph-name="a" unicode="a" d="M354 -13 q-57 0 -73 60 q-43 -60 -115 -60 q-58 0 -95.5 41 q-37.5 41 -37.5 105 q0 82 51 116 q36 24 111 34 q43 6 59 22.5 q16 16.5 16 55.5 q0 81 -69 81 q-18 0 -41 -10 q-26 -12 -26 -29 q0 -5 6 -15 q12 -19 12 -36 q0 -43 -45 -43 q-52 0 -52 65 q0 55 41.5 91.5 q41.5 36.5 104.5 36.5 q42 0 76 -17 q38 -20 52 -56 q11 -30 11 -101 l1 -245 q1 -29 17 -29 q22 0 22 71 q0 13 -1 19 l0 10 q0 43 29 43 q33 0 33 -57 q0 -87 -19 -120 q-19 -33 -68 -33 ZM269 149 q4 23 5 90 q-28 -12 -55 -17 l-45 -8 q-73 -13 -73 -83 q0 -36 20.5 -58 q20.5 -22 53.5 -22 q35 0 61 27 q26 27 33 71 Z" /><glyph glyph-name="b" unicode="b" d="M139 628 l-4 -175 q42 49 101 49 q75 0 119.5 -70 q44.5 -70 44.5 -188 q0 -114 -47 -185.5 q-47 -71.5 -121 -71.5 q-58 0 -95 53 l0 -15 q0 -38 -33 -38 q-34 0 -34 39 q0 25 0 25 l1 28 l-3 482 q-2 28 -5.5 35 q-3.5 7 -16.5 7 l-7 0 q-24 0 -24 30 q0 36 30 36 q9 0 18 -3 q22 -4 23 -4 q3 0 21 4 q9 3 16 3 q17 0 17 -23 q0 -2 0 -8 q-1 -6 -1 -10 ZM231 434 q-95 0 -95 -185 q0 -193 92 -193 q46 0 74 52 q28 52 28 136 q0 87 -26.5 138.5 q-26.5 51.5 -72.5 51.5 Z" /><glyph glyph-name="c" unicode="c" d="M250 318 q0 42 36 51 q-19 67 -73 67 q-47 0 -76 -54 q-29 -54 -29 -143 q0 -85 28 -134 q28 -49 77 -49 q35 0 58.5 27.5 q23.5 27.5 26.5 71.5 q3 51 35 51 q35 0 35 -47 q0 -70 -47 -121 q-47 -51 -112 -51 q-80 0 -126 67.5 q-46 67.5 -46 183.5 q0 123 47 193.5 q47 70.5 129 70.5 q64 0 104.5 -42.5 q40.5 -42.5 40.5 -108.5 q0 -85 -60 -85 q-21 0 -34.5 14.5 q-13.5 14.5 -13.5 37.5 Z" /><glyph glyph-name="d" unicode="d" d="M211 502 q54 0 95 -44 l-1 59 q0 15 -1 32 q-1 17 -1 20 q0 34 -24 34 l-6 0 q-3 -1 -10 -1 q-29 0 -29 32 q0 14 9.5 24.5 q9.5 10.5 22.5 10.5 q8 0 23.5 -3.5 q15.5 -3.5 23.5 -3.5 q9 0 27 3 q13 4 22 4 q16 0 16 -21 l0 -4 q0 -18 -1 -50 q-1 -39 -1 -60 l-1 -71 l-2 -73 l0 -231 q0 -53 0 -57 q5 -40 25 -40 l4 0 q8 1 16 1 q27 0 27 -32 q0 -35 -31 -35 q-6 0 -21 3 q-30 3 -29 3 q-11 0 -22 -3 q-14 -4 -20 -4 q-17 0 -17 24 q0 9 1 22 q-48 -54 -103 -54 q-73 0 -119.5 70 q-46.5 70 -46.5 181 q0 117 48.5 190.5 q48.5 73.5 125.5 73.5 ZM210 431 q-44 0 -71.5 -49.5 q-27.5 -49.5 -27.5 -129.5 l0 -8 q0 -88 25.5 -136.5 q25.5 -48.5 71.5 -48.5 q46 0 72 48.5 q26 48.5 26 134.5 q0 92 -20 135 q-25 54 -76 54 Z" /><glyph glyph-name="e" unicode="e" d="M377 286 q0 -37 -5 -45.5 q-5 -8.5 -27 -8.5 l-199 0 q-24 0 -30 -4.5 q-6 -4.5 -6 -23.5 q0 -66 28 -107 q28 -41 74 -41 q29 0 52 19 q23 19 31 49 l9 34 q7 28 35 28 q32 0 32 -36 q0 -65 -48.5 -114 q-48.5 -49 -112.5 -49 q-79 0 -126 68.5 q-47 68.5 -47 184.5 q0 116 50 189 q50 73 130 73 q71 0 115.5 -60.5 q44.5 -60.5 44.5 -155.5 ZM115 316 q0 -18 26 -18 l126 0 q24 0 30 4 q6 4 6 20 q0 48 -26 80 q-26 32 -64 32 q-59 0 -85 -66 q-10 -25 -12 -43 q-1 -4 -1 -9 Z" /><glyph glyph-name="f" unicode="f" d="M249 582 q0 12 9 26 q-14 15 -29 15 q-26 0 -43.5 -26.5 q-17.5 -26.5 -17.5 -67.5 q0 -27 4 -31.5 q4 -4.5 12 -4.5 q6 0 18.5 2 q12.5 2 18.5 2 q36 0 36 -37 q0 -35 -43 -35 q-9 0 -13 1 q-16 2 -16 2 q-16 0 -18 -36 l-1 -22 l0 -220 q0 -61 4 -75 q4 -14 21 -14 l9 0 q18 2 20 2 q31 0 31 -33 q0 -35 -32 -35 q-8 0 -38 5 q-18 3 -54 3 q-12 0 -35 -4 q-23 -4 -34 -4 q-31 0 -31 34 q0 34 28 34 q6 0 11 -1 l9 0 q16 0 19.5 14.5 q3.5 14.5 3.5 79.5 l0 233 q0 36 -13 36 q-7 0 -11 -1 q-4 -1 -10 -1 q-39 0 -39 36 q0 39 40 39 q4 0 12 -1 q8 -1 12 -1 q13 0 13 16 q0 65 15 102 q13 32 42.5 52 q29.5 20 66.5 20 q44 0 76 -27 q32 -27 32 -65 q0 -23 -12.5 -39 q-12.5 -16 -31.5 -16 q-17 0 -29 12.5 q-12 12.5 -12 30.5 Z" /><glyph glyph-name="g" unicode="g" d="M225 502 q9 0 28 -3 q9 91 86 91 q36 0 61.5 -27 q25.5 -27 25.5 -65 q0 -53 -41 -53 q-16 0 -27 11 q-11 11 -11 27 q0 15 13 33 q-8 14 -18 14 q-13 0 -22.5 -13 q-9.5 -13 -9.5 -30 q0 -8 1 -14 q53 -45 53 -128 q0 -71 -40 -117.5 q-40 -46.5 -101 -46.5 q-41 0 -87 25 q-7 4 -13 4 q-20 0 -20 -35 q0 -44 64.5 -44 q64.5 0 90.5 -4 q52 -6 84 -28 q61 -41 61 -118 q0 -72 -52.5 -115.5 q-52.5 -43.5 -138.5 -43.5 q-85 0 -137 40 q-52 40 -52 105 q0 78 71 115 q-59 31 -59 93 q0 61 59 95 q-17 39 -17 76 q0 68 41.5 112 q41.5 44 106.5 44 ZM218 436 q-71 0 -74 -89 l-1 -6 q0 -41 21.5 -66 q21.5 -25 57.5 -25 q34 0 54.5 25 q20.5 25 20.5 67 q0 42 -22 68 q-22 26 -57 26 ZM216 63 q-56 0 -88.5 -23 q-32.5 -23 -32.5 -62 q0 -41 31.5 -64.5 q31.5 -23.5 86.5 -23.5 q57 0 89.5 23 q32.5 23 32.5 64 q0 39 -32.5 62.5 q-32.5 23.5 -86.5 23.5 Z" /><glyph glyph-name="h" unicode="h" d="M153 642 l-2 -197 q53 57 118 57 q80 0 118 -62 q26 -40 26 -124 l0 -160 q0 -65 3.5 -79.5 q3.5 -14.5 19.5 -14.5 l9 0 q5 1 11 1 q27 0 27 -34 q0 -34 -32 -34 q-12 0 -33 4 q-26 5 -52 5 q-5 0 -32 -3 q-25 -6 -29 -6 q-31 0 -31 34 q0 34 27 34 q7 0 11 -1 l9 0 q16 0 19.5 14.5 q3.5 14.5 3.5 79.5 l0 146 q0 132 -86 132 q-64 0 -86 -58 q-19 -50 -19 -110 l0 -14 l1 -53 l0 -43 q0 -65 3.5 -79.5 q3.5 -14.5 19.5 -14.5 l9 0 q4 1 11 1 q27 0 27 -34 q0 -34 -32 -34 q-8 0 -35 6 q-20 2 -34 2 q-13 0 -38.5 -4 q-25.5 -4 -38.5 -4 q-32 0 -32 34 q0 34 27 34 q7 0 11 -1 l9 0 q15 0 18 13.5 q3 13.5 5 80.5 l1 43 l0 245 q0 7 -1 29 q-1 26 -1 44 l-1 52 q-1 34 -24 34 l-6 0 q-4 -1 -10 -1 q-30 0 -30 32 q0 14 9.5 24.5 q9.5 10.5 22.5 10.5 q8 0 23 -3.5 q15 -3.5 23 -3.5 q15 0 27 3.5 q12 3.5 20 3.5 q16 0 16 -25 l0 -2 Z" /><glyph glyph-name="i" unicode="i" d="M166 316 l0 -64 l1 -53 l0 -43 q0 -65 3.5 -79.5 q3.5 -14.5 19.5 -14.5 l9 0 q4 1 11 1 q27 0 27 -34 q0 -34 -32 -34 q-13 0 -39 4 q-26 4 -39 4 q-13 0 -35.5 -4 q-22.5 -4 -32.5 -4 q-32 0 -32 34 q0 34 28 34 q6 0 11 -1 l9 0 q16 0 19.5 14.5 q3.5 14.5 3.5 79.5 l0 115 q0 6 -1 29.5 q-1 23.5 -1 42.5 q-1 55 -1 52 q0 34 -24 34 l-6 0 q-1 0 -5 0 q-3 -1 -5 -1 q-29 0 -29 32 q0 14 9.5 25 q9.5 11 22.5 11 q3 0 23 -5 q12 -3 21 -3 q9 0 26 3.5 q17 3.5 25 3.5 q16 0 16 -24 l0 -12 q0 -2 0 -14 q-1 -14 -1 -26 l-2 -103 ZM125 535 q-20 0 -33.5 17 q-13.5 17 -13.5 43 q0 23 15 41.5 q15 18.5 34 18.5 q20 0 34.5 -17.5 q14.5 -17.5 14.5 -41.5 q0 -25 -15 -43 q-15 -18 -36 -18 Z" /><glyph glyph-name="j" unicode="j" d="M6 -81 q0 -17 -11 -35 q19 -14 37 -14 q39 0 52.5 33 q13.5 33 13.5 130 l0 238 q0 6 -1 29.5 q-1 23.5 -1 42.5 q-1 55 -1 52 q0 34 -24 34 l-6 0 q-1 0 -5 0 q-3 -1 -5 -1 q-29 0 -29 32 q0 14 9.5 25 q9.5 11 22.5 11 q3 0 23 -5 q12 -3 21 -3 q15 0 30 4 q11 3 20 3 q17 0 17 -23 l0 -10 q-1 -3 -1 -34 l-1 -70 l0 -325 q0 -118 -29 -165 q-39 -62 -110 -62 q-46 0 -76.5 27.5 q-30.5 27.5 -30.5 68.5 q0 25 14 42.5 q14 17.5 34 17.5 q16 0 26.5 -12.5 q10.5 -12.5 10.5 -30.5 ZM117 535 q-20 0 -33.5 17.5 q-13.5 17.5 -13.5 42.5 q0 23 15.5 41.5 q15.5 18.5 34.5 18.5 q20 0 34 -17.5 q14 -17.5 14 -41.5 q0 -26 -14.5 -43.5 q-14.5 -17.5 -36.5 -17.5 Z" /><glyph glyph-name="k" unicode="k" d="M153 476 l0 -215 l114 129 q16 18 16 27 q0 12 -14 12 q-3 0 -9 -1 q-6 -1 -9 -1 q-32 0 -32 31 q0 15 10 26 q10 11 24 11 q12 0 39 -4.5 q27 -4.5 42 -4.5 q13 0 38.5 4.5 q25.5 4.5 37.5 4.5 q32 0 32 -32 q0 -14 -8.5 -25 q-8.5 -11 -20.5 -10 l-14 1 q-1 1 -3 1 q-16 0 -51 -40 l-65 -74 q-11 -13 -11 -19 q0 -3 7 -16 l11 -20 l99 -176 q14 -25 34 -25 l4 0 q8 1 14 1 q27 0 27 -33 q0 -33 -31 -33 q-6 0 -27 4 q-21 4 -53 4 q-13 0 -37 -4 q-24 -4 -36 -4 q-32 0 -32 36 q0 32 30 32 q7 0 12 -1 l4 0 q13 0 13 11 q0 6 -5 15 l-11 20 l-51 96 q-19 35 -28 35 q-5 0 -12 -8 l-9 -10 l-25 -28 q-14 -16 -14 -34 l0 -58 l1 -15 q2 -24 16 -24 l9 0 q6 2 13 2 q27 0 27 -30 q0 -15 -11 -27 q-11 -12 -24 -12 q-11 0 -33 4 q-22 4 -34 4 q-13 0 -37 -4 q-24 -4 -35 -4 q-31 0 -31 34 q0 34 27 34 q7 0 11 -1 l9 0 q15 0 18 13.5 q3 13.5 5 80.5 l1 43 l0 245 q0 7 -1 29 q-1 26 -1 44 l-1 52 q-1 34 -24 34 l-6 0 q-4 -1 -10 -1 q-30 0 -30 32 q0 14 9.5 24.5 q9.5 10.5 22.5 10.5 q7 0 24 -5 q7 -2 21 -2 q16 0 29 3 q18 4 20 4 q18 0 18 -23 q0 -8 -1 -12 l0 -35 q0 -21 -1 -61.5 q-1 -40.5 -1 -61.5 Z" /><glyph glyph-name="l" unicode="l" d="M153 465 l0 -309 q0 -65 3.5 -79.5 q3.5 -14.5 19.5 -14.5 l9 0 q5 1 12 1 q11 0 19 -10 q8 -10 8 -24 q0 -34 -33 -34 q-8 0 -41 5 q-20 3 -44 3 q-17 0 -33 -3 q-26 -5 -28 -5 q-31 0 -31 34 q0 34 27 34 q7 0 11 -1 l9 0 q15 0 18 13.5 q3 13.5 5 80.5 l1 43 l0 245 q0 7 -1 29 q-1 26 -1 44 l-1 52 q-1 34 -24 34 l-6 0 q-4 -1 -10 -1 q-30 0 -30 32 q0 14 9.5 24.5 q9.5 10.5 22.5 10.5 q7 0 24 -5 q10 -3 20 -3 q9 0 26.5 4 q17.5 4 24.5 4 q19 0 19 -22 l0 -13 q-1 -9 -2 -39 l-2 -62 l-1 -68 Z" /><glyph glyph-name="m" unicode="m" d="M164 464 q0 -7 -1 -16 q51 54 102 54 q35 0 57.5 -14 q22.5 -14 46.5 -50 q36 64 117 64 q86 0 118 -64 q19 -39 19 -134 l0 -148 q0 -65 3.5 -79.5 q3.5 -14.5 19.5 -14.5 l9 0 q5 1 11 1 q27 0 27 -34 q0 -34 -32 -34 q-11 0 -32.5 4 q-21.5 4 -32.5 4 q-14 0 -36 -4 q-22 -4 -31 -4 q-36 0 -36 37 q0 30 26 30 q3 0 15 -1 l3 0 q9 0 11.5 6 q2.5 6 2.5 30 l0 3 q0 32 1 58 l2 58 l0 69 q0 87 -16 118 q-16 31 -62 31 q-44 0 -62 -33 q-18 -33 -18 -113 l1 -200 q0 -18 4.5 -23 q4.5 -5 15.5 -5 l8 0 q34 0 34 -33 q0 -32 -30 -32 q-11 0 -34 4 q-23 4 -35 4 q-20 0 -41 -4 q-21 -4 -28 -4 q-29 0 -29 35 q0 31 24 31 l16 0 q20 0 22 37 l3 46 l0 141 q0 86 -16.5 118.5 q-16.5 32.5 -60.5 32.5 q-46 0 -66.5 -43 q-20.5 -43 -20.5 -138 l1 -154 q1 -41 12 -41 q4 0 11.5 1.5 q7.5 1.5 11.5 1.5 q28 0 28 -32 q0 -36 -36 -36 q-11 0 -34.5 4 q-23.5 4 -35.5 4 q-11 0 -31.5 -4 q-20.5 -4 -30.5 -4 q-32 0 -32 34 q0 34 28 34 q6 0 11 -1 l9 0 q16 0 19.5 14.5 q3.5 14.5 3.5 79.5 l0 176 q0 63 -4.5 80 q-4.5 17 -20.5 17 q-1 0 -2 0 q-1 -1 -2 -1 q-4 0 -9 0 q-6 -1 -7 -1 q-27 0 -27 32 q0 15 9 25.5 q9 10.5 22 10.5 q8 0 24.5 -3 q16.5 -3 25.5 -3 q13 0 29 4 q8 2 12 2 q16 0 16 -31 Z" /><glyph glyph-name="n" unicode="n" d="M165 450 q43 52 117 52 q83 0 118 -57 q25 -41 25 -146 l0 -143 q0 -65 3.5 -79.5 q3.5 -14.5 19.5 -14.5 l9 0 q5 1 11 1 q27 0 27 -34 q0 -34 -31 -34 q-11 0 -33.5 4 q-22.5 4 -34.5 4 q-13 0 -38.5 -4 q-25.5 -4 -38.5 -4 q-32 0 -32 34 q0 14 8 24 q8 10 19 10 q7 0 12 -1 l9 0 q15 0 17.5 13.5 q2.5 13.5 4.5 80.5 l1 43 l0 98 q0 76 -21 109 q-21 33 -68 33 q-48 0 -76 -43.5 q-28 -43.5 -28 -117.5 l0 -122 q0 -65 3.5 -79.5 q3.5 -14.5 19.5 -14.5 l9 0 q4 1 11 1 q27 0 27 -34 q0 -34 -31 -34 q-8 0 -38 6 q-20 2 -37 2 q-21 0 -38 -3 q-28 -5 -33 -5 q-31 0 -31 34 q0 34 28 34 q6 0 11 -1 l9 0 q16 0 19.5 14.5 q3.5 14.5 3.5 79.5 l0 176 q0 63 -4.5 80 q-4.5 17 -20.5 17 q-1 0 -2 0 q-1 -1 -2 -1 q-4 0 -9 0 q-6 -1 -7 -1 q-27 0 -27 32 q0 15 9 25.5 q9 10.5 22 10.5 q8 0 24.5 -3 q16.5 -3 25.5 -3 q15 0 22 2 q14 4 20 4 q16 0 16 -23 l0 -22 Z" /><glyph glyph-name="o" unicode="o" d="M215 -13 q-82 0 -130 69.5 q-48 69.5 -48 187.5 q0 118 48 188 q48 70 130 70 q82 0 130 -70 q48 -70 48 -188 q0 -118 -48 -187.5 q-48 -69.5 -130 -69.5 ZM215 435 q-49 0 -78 -52.5 q-29 -52.5 -29 -138.5 q0 -86 29 -138 q29 -52 78 -52 q49 0 78.5 52 q29.5 52 29.5 138 q0 86 -29.5 138.5 q-29.5 52.5 -78.5 52.5 Z" /><glyph glyph-name="p" unicode="p" d="M135 465 q0 -9 -1 -18 q58 55 113 55 q72 0 115 -67.5 q43 -67.5 43 -182.5 q0 -119 -47 -192 q-47 -73 -124 -73 q-53 0 -97 44 l0 -36 q0 -65 3.5 -79.5 q3.5 -14.5 19.5 -14.5 l9 0 q10 2 11 2 q27 0 27 -35 q0 -34 -31 -34 q-9 0 -33 5 q-24 5 -38 5 q-22 0 -44.5 -5 q-22.5 -5 -28.5 -5 q-31 0 -31 34 q0 35 27 35 q3 0 11 -2 l9 0 q16 0 19.5 14.5 q3.5 14.5 3.5 79.5 l0 337 q0 63 -4 80 q-4 17 -20 17 q-1 0 -2 0 q-2 -1 -3 -1 q-4 0 -9 0 q-5 -1 -7 -1 q-26 0 -26 32 q0 36 30 36 q8 0 22 -3 q14 -3 29 -3 q8 0 31 5 q5 1 9 1 q14 0 14 -30 ZM232 55 q47 0 74 52.5 q27 52.5 27 144.5 q0 85 -26 132 q-26 47 -72 47 q-47 0 -72.5 -49.5 q-25.5 -49.5 -25.5 -140.5 q0 -88 25 -137 q25 -49 70 -49 Z" /><glyph glyph-name="q" unicode="q" d="M211 502 q50 0 99 -43 l0 14 q0 35 33 35 q31 0 31 -41 l0 -7 l-2 -58 l-2 -75 l0 -332 q0 -65 3.5 -79.5 q3.5 -14.5 19.5 -14.5 l9 0 q10 2 11 2 q27 0 27 -35 q0 -34 -31 -34 q-12 0 -36 4.5 q-24 4.5 -37 4.5 q-13 0 -37 -4.5 q-24 -4.5 -36 -4.5 q-31 0 -31 34 q0 35 27 35 q2 0 12 -2 l8 0 q16 0 19.5 15 q3.5 15 3.5 79 q0 2 1 12 q0 11 0 18 l0 16 q-51 -54 -107 -54 q-73 0 -116 65 q-43 65 -43 176 q0 122 48 198 q48 76 126 76 ZM212 433 q-46 0 -73.5 -50.5 q-27.5 -50.5 -29.5 -141.5 q0 0 0 -11 q0 -79 26 -125.5 q26 -46.5 70 -46.5 q46 0 72.5 51 q26.5 51 26.5 140 q0 184 -92 184 Z" /><glyph glyph-name="r" unicode="r" d="M157 467 q0 0 0 -13 q41 48 95 48 q53 0 86 -37.5 q33 -37.5 33 -96.5 q0 -44 -17.5 -72 q-17.5 -28 -44.5 -28 q-21 0 -35 14 q-14 14 -14 35 q0 40 44 46 q1 7 1 17 q0 24 -16.5 41.5 q-16.5 17.5 -39.5 17.5 q-85 0 -85 -169 l0 -82 q0 -86 4 -106.5 q4 -20.5 20 -20.5 q4 0 18 2 q7 2 19 2 q30 0 30 -33 q0 -37 -33 -37 q-11 0 -44 6 q-22 2 -42 2 q-15 0 -41 -4 q-26 -4 -36 -4 q-32 0 -32 34 q0 34 28 34 q6 0 11 -1 l9 0 q16 0 19.5 14.5 q3.5 14.5 3.5 79.5 l0 176 q0 63 -4.5 80 q-4.5 17 -20.5 17 q-1 0 -2 0 q-1 -1 -2 -1 q-4 0 -9 0 q-6 -1 -7 -1 q-27 0 -27 32 q0 15 9 25.5 q9 10.5 22 10.5 q8 0 25 -3 q17 -3 26 -3 q9 0 31 5 q5 1 8 1 q9 0 10 -28 Z" /><glyph glyph-name="s" unicode="s" d="M198 501 q45 0 89 -35 q0 40 29 40 q32 0 32 -37 q0 -4 -2 -21 q-4 -34 -4 -54 q0 -10 2 -31 q2 -21 2 -31 q0 -33 -29 -33 q-34 0 -34 48 q0 43 -22 67.5 q-22 24.5 -61 24.5 q-34 0 -55.5 -21 q-21.5 -21 -21.5 -55 q0 -33 20 -49 q20 -16 76 -28 q76 -16 105 -39 q46 -35 46 -102 q0 -67 -43.5 -111 q-43.5 -44 -110.5 -44 q-56 0 -105 46 l0 -8 q0 -44 -31 -44 q-32 0 -32 38 q0 13 2 32 q1 10 1 47 q0 12 -2 37 q-2 25 -2 37 q0 32 29 32 q32 0 34 -41 q4 -113 107 -113 q36 0 59.5 22.5 q23.5 22.5 23.5 56.5 q0 35 -21.5 53 q-21.5 18 -76.5 28 q-73 13 -106 37 q-45 32 -45 100 q0 65 42 108 q42 43 105 43 Z" /><glyph glyph-name="t" unicode="t" d="M69 508 l1 12 l0 79 q0 44 34 44 q34 0 34 -44 l0 -80 q0 -17 3.5 -21.5 q3.5 -4.5 17.5 -4.5 q17 0 31 1 l33 2 q40 0 40 -36 q0 -38 -40 -38 q-11 0 -33.5 3.5 q-22.5 3.5 -33.5 3.5 q-12 0 -15 -5.5 q-3 -5.5 -3 -25.5 l0 -201 q0 -69 2 -81 q8 -55 42 -55 q45 0 45 105 l0 10 q0 33 3 42 q6 23 29 23 q34 0 34 -60 q0 -22 -4 -64 q-12 -128 -112 -128 q-78 0 -98 71 q-9 32 -9 105 l0 238 q0 22 -12 22 q-1 0 -11 -2 q-1 0 -5 0 q-4 -1 -6 -1 q-30 0 -30 38 q0 35 30 35 q4 0 11 -1 q7 -1 11 -1 q10 0 11 15 Z" /><glyph glyph-name="u" unicode="u" d="M332 46 q-44 -59 -112 -59 q-38 0 -74 21 q-36 21 -51.5 53.5 q-15.5 32.5 -16.5 71.5 q0 0 0 66 l0 133 q0 63 -4.5 80 q-4.5 17 -20.5 17 q-1 0 -2 0 q-1 -1 -2 -1 q-4 0 -9 0 q-6 -1 -7 -1 q-27 0 -27 32 q0 15 9 25.5 q9 10.5 22 10.5 q8 0 24.5 -3 q16.5 -3 24.5 -3 q15 0 23 2 l17 4 q2 0 4 1 q2 0 3 0 q16 0 16 -18 l0 -10 l-1 -43 l-2 -130 l0 -86 q0 -83 20 -117.5 q20 -34.5 68 -34.5 q98 0 98 186 l0 28 q0 44 -1 72 l-2 52 q-1 34 -24 34 l-6 0 q-1 0 -5 0 q-3 -1 -5 -1 q-29 0 -29 32 q0 14 9.5 25 q9.5 11 22.5 11 q6 0 21.5 -4 q15.5 -4 23.5 -4 q8 0 24 3.5 q16 3.5 24 3.5 q16 0 16 -27 q0 -14 0 -14 q-2 -31 -2 -80 l0 -215 q0 -63 4 -80 q4 -17 20 -17 l5 0 q7 1 16 1 q26 0 26 -32 q0 -35 -30 -35 q-8 0 -25 3 q-17 3 -26 3 q-7 0 -20.5 -3.5 q-13.5 -3.5 -19.5 -3.5 q-17 0 -17 30 l0 21 Z" /><glyph glyph-name="v" unicode="v" d="M152 379 l79 -284 l80 284 q8 28 8 37 q0 15 -18 15 l-8 0 q-4 -1 -11 -1 q-30 0 -30 31 q0 34 31 34 q10 0 35 -5 q22 -2 38 -2 q14 0 41 3.5 q27 3.5 40 3.5 q30 0 30 -34 q0 -32 -27 -32 q-10 0 -13.5 1 q-3.5 1 -6.5 1 q-17 0 -27 -22 q0 -1 -11 -37 l-103 -331 q-10 -32 -19.5 -43 q-9.5 -11 -27.5 -11 q-19 0 -28.5 11 q-9.5 11 -19.5 43 l-102 331 q-11 34 -12 37 q-10 22 -27 22 q-2 0 -6 -1 q-4 -1 -14 -1 q-27 0 -27 32 q0 34 30 34 q14 0 40.5 -3.5 q26.5 -3.5 40.5 -3.5 q16 0 39.5 3.5 q23.5 3.5 33.5 3.5 q31 0 31 -35 q0 -30 -30 -30 q-7 0 -11 1 l-9 0 q-17 0 -17 -16 q0 -7 8 -36 Z" /><glyph glyph-name="w" unicode="w" d="M150 370 l57 -283 l61 355 q9 53 49 53 q22 0 32.5 -11 q10.5 -11 16.5 -42 l70 -355 l48 276 q5 29 5 44 q0 22 -21 22 l-2 0 q-4 0 -14 -1 q-26 0 -26 33 q0 34 28 34 q13 0 38 -5 q25 -5 39 -5 q14 0 38 5 q24 5 36 5 q28 0 28 -33 q0 -32 -37 -32 q-19 0 -29.5 -21 q-10.5 -21 -22.5 -82 l-55 -285 q-11 -55 -53 -55 q-40 0 -53 64 l-66 319 l-63 -328 q-11 -55 -50 -55 q-37 0 -50 55 l-80 338 q-7 28 -10 33 q-8 17 -25 17 l-3 0 l-14 -1 q-10 -1 -18 10.5 q-8 11.5 -8 22.5 q0 33 32 33 q6 0 34 -5 q15 -4 36 -4 q14 0 40.5 4.5 q26.5 4.5 40.5 4.5 q29 0 29 -32 q0 -34 -30 -34 l-13 0 q-20 0 -20 -22 q0 -12 5 -37 Z" /><glyph glyph-name="x" unicode="x" d="M123 137 l78 120 l-70 114 q-19 30 -25 38 q-18 21 -39 21 l-5 0 q-7 -1 -15 -1 q-30 0 -30 31 q0 14 10 24.5 q10 10.5 23 10.5 q11 0 33 -3 q22 -3 35 -3 q23 0 45.5 3 q22.5 3 33.5 3 q35 0 35 -33 q0 -33 -35 -33 q-11 0 -11 -9 q0 -1 15 -26 l46 -77 l63 95 q4 7 4 12 q0 6 -7 6 l-4 0 q-4 -1 -9 -1 q-31 0 -31 32 q0 34 32 34 q13 0 38.5 -4 q25.5 -4 38.5 -4 q13 0 37.5 4 q24.5 4 35.5 4 q31 0 31 -33 q0 -14 -9.5 -24 q-9.5 -10 -22.5 -10 q4 0 -10 1 q-10 1 -14 1 q-17 0 -35 -24 l-19 -25 l-81 -124 l105 -168 q18 -27 40 -27 l4 0 q7 1 15 1 q29 0 29 -33 q0 -14 -10 -24.5 q-10 -10.5 -23 -10.5 q-9 0 -42 6 q-11 2 -35 2 q-32 0 -40 -2 q-40 -6 -40 -6 q-32 0 -32 35 q0 34 33 34 l6 0 q4 -1 10 -1 q10 0 10 8 q0 8 -13 29 l-17 27 l-44 68 l-63 -93 l-13 -17 q-5 -7 -5 -13 q0 -11 15 -11 l5 0 q4 1 11 1 q30 0 30 -33 q0 -34 -32 -34 q-10 0 -26 3 q-21 3 -27 4 q-14 1 -32 1 q-14 0 -34 -2 q-31 -6 -38 -6 q-14 0 -23.5 10 q-9.5 10 -9.5 24 q0 34 32 34 q7 0 11 -1 q2 0 6 0 q4 -1 6 -1 q20 0 69 76 Z" /><glyph glyph-name="y" unicode="y" d="M166 378 l77 -297 l77 320 q3 13 3 17 q0 13 -18 13 q-4 0 -6 -1 q-6 -1 -14 -1 q-12 0 -21 10 q-9 10 -9 23 q0 33 34 33 q13 0 39.5 -3 q26.5 -3 40.5 -3 q13 0 37.5 3 q24.5 3 36.5 3 q32 0 32 -33 q0 -32 -33 -32 q-1 0 -5 1 q-4 0 -6 0 q-10 2 -12 2 q-15 0 -24 -31 l-12 -41 l-84 -290 q-43 -147 -86.5 -207 q-43.5 -60 -109.5 -60 q-47 0 -78.5 31 q-31.5 31 -31.5 78 q0 29 15 48.5 q15 19.5 38 19.5 q20 0 32.5 -14 q12.5 -14 12.5 -36 q0 -27 -19 -41 q12 -16 33 -16 q35 0 63.5 40.5 q28.5 40.5 28.5 91.5 q0 12 -4 25 l-10 32 l-97 326 q-13 42 -38 42 l-6 0 q-9 -2 -15 -2 q-11 0 -19.5 10 q-8.5 10 -8.5 24 q0 32 32 32 q13 0 39 -5 q26 -5 40 -5 q14 0 41.5 5 q27.5 5 40.5 5 q31 0 31 -32 q0 -35 -29 -35 q-7 0 -13 1 q-2 1 -7 1 q-15 0 -15 -14 q0 -7 1 -11 l6 -27 Z" /><glyph glyph-name="z" unicode="z" d="M59 118 l241 316 l-114 0 q-41 0 -55 -6 q-22 -10 -22 -45 q0 -12 0.5 -17.5 q0.5 -5.5 1.5 -12.5 q0 -8 0 -11 q0 -39 -32 -39 q-32 0 -32 35 q0 12 2.5 36.5 q2.5 24.5 2.5 36.5 q0 9 -2 27.5 q-2 18.5 -2 27.5 q0 34 36 34 q5 0 27 -2 q9 -2 50 -2 q4 0 17 0 q17 -1 28 -1 q24 0 66 1 q47 1 65 1 q51 0 51 -40 q0 -25 -18 -48 l-264 -343 l133 0 q43 0 54 4 q26 8 26 42 q0 -8 -2 36 q-1 18 -1 22 q0 50 34 50 q29 0 29 -35 q0 -16 -2.5 -49 q-2.5 -33 -2.5 -49 q0 -8 1 -25.5 q1 -17.5 1 -25.5 q0 -40 -39 -40 q-3 0 -12 0 q-9 1 -17 1.5 q-8 0.5 -49 1.5 l-47 1 l-124 -3 q-59 0 -59 51 q0 31 30 70 Z" /><glyph glyph-name="braceleft" unicode="{" d="M272 360 q0 -48 -13.5 -72.5 q-13.5 -24.5 -48.5 -42.5 q35 -18 48.5 -44 q13.5 -26 13.5 -73 l0 -166 q0 -56 18.5 -74 q18.5 -18 76.5 -19 l0 -56 q-12 -1 -23 -1 q-76 0 -107.5 34 q-31.5 34 -31.5 114 l0 166 q0 44 -12.5 65 q-12.5 21 -44.5 30 l0 53 q57 15 57 90 l0 178 q0 73 32.5 105 q32.5 32 106.5 32 l23 0 l0 -57 q-57 -1 -76 -19 q-19 -18 -19 -70 l0 -173 Z" /><glyph glyph-name="bar" unicode="|" d="M217 -250 l0 1000 l66 0 l0 -1000 l-66 0 Z" /><glyph glyph-name="braceright" unicode="}" d="M238 131 q0 48 13 72.5 q13 24.5 49 42.5 q-35 18 -48.5 44 q-13.5 26 -13.5 73 l0 167 q0 55 -19 73 q-19 18 -76 19 l0 57 l23 0 q75 0 107 -34 q32 -34 32 -114 l0 -166 q0 -44 13 -65 q13 -21 44 -29 l0 -53 q-57 -17 -57 -90 l0 -179 q0 -72 -33 -104.5 q-33 -32.5 -106 -32.5 q-11 0 -23 1 l0 56 q57 1 76 19 q19 18 19 70 l0 173 Z" /><glyph glyph-name="asciitilde" unicode="~" d="M224 658 q-50 0 -91 -73 l-40 26 q32 62 62 87 q30 25 74 25 q38 0 113 -35 q68 -32 97 -32 q52 0 93 69 l41 -24 q-55 -110 -141 -110 q-33 0 -82 22 l-58 26 q-42 19 -68 19 Z" /><glyph glyph-name="nonbreakingspace" unicode="" d="" /><glyph glyph-name="exclamdown" unicode="" d="M118 495 q22 0 36.5 -17.5 q14.5 -17.5 14.5 -44.5 q0 -28 -14.5 -45.5 q-14.5 -17.5 -36.5 -17.5 q-22 0 -36.5 17.5 q-14.5 17.5 -14.5 45.5 q0 27 14.5 44.5 q14.5 17.5 36.5 17.5 ZM118 332 q32 0 33 -49 l6 -435 q1 -46 -37 -46 q-43 0 -42 46 l6 435 q1 49 34 49 Z" /><glyph glyph-name="cent" unicode="" d="M346 459 q-17 59 -69 66 l0 -378 q65 10 75 75 l6 40 q5 32 34 32 q34 0 34 -45 q0 -50 -26 -94 q-38 -64 -120 -80 l2 -88 q0 -27 -29 -27 q-27 0 -27 27 l0 4 l2 84 q-154 25 -154 247 q0 143 64 219 q30 36 91 51 l-5 96 q0 28 28 28 q31 0 31 -32 l0 -2 l-3 -89 q53 -10 80 -29 q58 -42 58 -126 q0 -38 -16.5 -61.5 q-16.5 -23.5 -44.5 -23.5 q-20 0 -33.5 15 q-13.5 15 -13.5 38 q0 40 36 53 ZM230 148 l0 374 q-39 -20 -57 -58 q-28 -61 -28 -140 q0 -146 85 -176 Z" /><glyph glyph-name="sterling" unicode="" d="M211 498 q0 -39 20 -98 l131 0 q37 0 43 -12 q3 -6 3 -18 q0 -28 -42 -28 l-117 0 q35 -75 35 -139 q0 -35 -12 -76 q5 -5 13 -14 q57 -61 80 -61 q40 0 63 67 q8 24 8 44 q0 41 -30 41 q-15 0 -28 -19.5 q-13 -19.5 -25 -19.5 q-11 0 -20 8.5 q-9 8.5 -9 18.5 q0 23 29 48 q29 25 58 25 q37 0 61 -29 q24 -29 24 -73 q0 -68 -41 -122 q-41 -54 -92 -54 q-48 0 -114 78 q-51 -78 -129 -78 q-46 0 -80 31 q-34 31 -34 72 q0 41 34.5 70.5 q34.5 29.5 83.5 29.5 q43 0 95 -28 q2 17 2 34 q0 55 -38 146 l-95 0 q-25 0 -31.5 6 q-6.5 6 -6.5 21 q0 19 9 25 q6 3 28 5 l13 1 l60 0 q-18 45 -18 88 q0 85 45 138.5 q45 53.5 117 53.5 q62 0 102.5 -40.5 q40.5 -40.5 40.5 -102.5 q0 -79 -50 -79 q-43 0 -43 47 q0 33 29 44 q-27 66 -81 66 q-39 0 -65 -33 q-26 -33 -26 -84 ZM121 45 q54 0 84 60 q-37 29 -76 29 q-27 0 -45 -12 q-18 -12 -18 -31 q0 -19 16.5 -32.5 q16.5 -13.5 38.5 -13.5 Z" /><glyph glyph-name="currency" unicode="" d="M97 83 l-38 38 l93 94 q-52 65 -52 143 q0 74 51 142 l-94 94 l38 38 l94 -94 q69 52 145 52 q75 0 143 -51 l94 92 l38 -37 l-93 -94 q51 -70 51 -142 q0 -73 -51 -142 l94 -94 l-37 -38 l-95 94 q-68 -52 -144 -52 q-72 0 -144 51 l-93 -94 ZM505 358 q0 71 -50.5 121.5 q-50.5 50.5 -121.5 50.5 q-71 0 -121 -50.5 q-50 -50.5 -50 -121.5 q0 -71 50 -121.5 q50 -50.5 121 -50.5 q71 0 121.5 50.5 q50.5 50.5 50.5 121.5 Z" /><glyph glyph-name="yen" unicode="" d="M197 532 l85 -200 l96 200 q6 12 10 28 q3 10 5 19 q0 1 1 2 q0 1 0 2 q0 14 -14 14 q-5 0 -13.5 -2 q-8.5 -2 -13.5 -2 q-27 0 -27 38 q0 40 35 40 q15 0 34 -5 q23 -6 46 -6 q15 0 43.5 5.5 q28.5 5.5 43.5 5.5 q35 0 35 -37 q0 -39 -32 -39 q-1 0 -17 2 q-4 1 -12 1 q-20 0 -38 -40 l-12 -26 l-45 -90 l122 0 q32 0 32 -27 q0 -26 -32 -26 l-151 0 l-41 -92 l192 0 q32 0 32 -27 q0 -26 -32 -26 l-209 0 l-1 -42 q-1 -42 -1 -42 l0 -48 q0 -51 31 -51 q4 0 17 2.5 q13 2.5 21 2.5 q30 0 30 -32 q0 -39 -39 -39 q-12 0 -41 5 q-41 7 -60 7 q-17 0 -51 -6 q-34 -6 -51 -6 q-37 0 -37 35 q0 35 35 35 q3 0 8 0 q6 -1 8 -1 q11 -2 23 -2 q26 0 29 51 q5 77 4 89 l-2 42 l-208 0 q-32 0 -32 26 q0 27 32 27 l193 0 l-42 92 l-151 0 q-32 0 -32 26 q0 27 32 27 l123 0 l-48 104 l-16 29 q-13 24 -27 24 q-5 0 -15.5 -2 q-10.5 -2 -15.5 -2 q-30 0 -30 38 q0 38 36 38 q15 0 45 -5.5 q30 -5.5 46 -5.5 q13 0 38.5 5.5 q25.5 5.5 37.5 5.5 q15 0 26 -12 q11 -12 11 -29 q0 -37 -34 -37 q-2 0 -6 1 q-4 0 -5 0 q-9 3 -14 3 q-10 0 -10 -10 q0 -7 10 -31 l10 -24 Z" /><glyph glyph-name="brokenbar" unicode="" d="M217 -250 l0 400 l66 0 l0 -400 l-66 0 ZM217 350 l0 400 l66 0 l0 -400 l-66 0 Z" /><glyph glyph-name="section" unicode="" d="M62 323 q0 81 78 123 q-40 49 -40 95 q0 59 45.5 100 q45.5 41 110.5 41 q59 0 103.5 -35.5 q44.5 -35.5 44.5 -83.5 q0 -26 -16 -44 q-16 -18 -41 -18 q-20 0 -33 13 q-13 13 -13 32 q0 23 26 45 q-29 25 -74 25 q-33 0 -54.5 -20.5 q-21.5 -20.5 -21.5 -51.5 q0 -29 15.5 -46.5 q15.5 -17.5 75.5 -54.5 q13 -8 45 -29 q18 -12 54 -38 q71 -52 71 -122 q0 -37 -18 -64.5 q-18 -27.5 -65 -59.5 q54 -58 54 -120 q0 -65 -47.5 -107 q-47.5 -42 -121.5 -42 q-71 0 -119 38 q-48 38 -48 94 q0 35 17 57 q17 22 44 22 q22 0 36.5 -15 q14.5 -15 14.5 -38 q0 -35 -40 -46 q34 -50 95 -50 q40 0 66.5 24 q26.5 24 26.5 61 q0 55 -64 98 l-108 73 q-62 42 -80.5 69 q-18.5 27 -18.5 75 ZM131 325 q0 -55 124 -122 l24 -13 q15 -8 19 -8 q13 0 30 13 q34 26 34 60 q0 26 -16 44.5 q-16 18.5 -64 48.5 l-46 28 q-37 23 -46 23 q-9 0 -30 -17 q-29 -23 -29 -57 Z" /><glyph glyph-name="dieresis" unicode="" d="M172 562 q-48 0 -48 60 q0 59 48 59 q49 0 49 -59 q0 -60 -49 -60 ZM328 562 q-49 0 -49 60 q0 59 49 59 q48 0 48 -59 q0 -60 -48 -60 Z" /><glyph glyph-name="copyright" unicode="" d="M387 680 q143 0 244.5 -101.5 q101.5 -101.5 101.5 -245.5 q0 -143 -101.5 -244.5 q-101.5 -101.5 -244.5 -101.5 q-144 0 -245.5 101.5 q-101.5 101.5 -101.5 244.5 q0 144 101.5 245.5 q101.5 101.5 245.5 101.5 ZM387 31 q124 0 211.5 88.5 q87.5 88.5 87.5 213.5 q0 125 -87.5 214 q-87.5 89 -211.5 89 q-124 0 -211.5 -89 q-87.5 -89 -87.5 -214 q0 -125 87.5 -213.5 q87.5 -88.5 211.5 -88.5 ZM392 540 q49 0 75 -32 q0 33 22 33 q22 0 22 -26 q0 -11 -2 -33.5 q-2 -22.5 -2 -34.5 q0 -25 1 -34 q2 -19 2 -32 q0 -28 -24 -28 q-24 0 -24 27 q1 10 1 16 q1 3 1 11 q0 39 -19 62 q-19 23 -50 23 q-43 0 -68 -42 q-25 -42 -25 -115 q0 -71 26 -115.5 q26 -44.5 68 -44.5 q69 0 78 86 q4 37 28 37 q23 0 23 -27 q0 -61 -38.5 -103 q-38.5 -42 -93.5 -42 q-66 0 -105 56.5 q-39 56.5 -39 152.5 q0 91 39.5 148 q39.5 57 103.5 57 Z" /><glyph glyph-name="ordfeminine" unicode="" d="M241 393 q-33 0 -42 28 q-25 -28 -63 -28 q-34 0 -56 22.5 q-22 22.5 -22 57.5 q0 39 21 58 q21 19 72 26 q22 3 30.5 10 q8.5 7 8.5 28 q0 39 -35 39 q-19 0 -30 -11 q-4 -4 -4 -6 q1 -4 3 -6 q7 -13 7 -21 q0 -26 -29 -26 q-32 0 -32 38 q0 30 24 50.5 q24 20.5 60 20.5 q44 0 63 -22 q19 -22 19 -74 l0 -116 q0 -26 7 -26 q9 0 9 33 l0 12 l-1 4 q0 27 20 27 q22 0 22 -36 q0 -82 -52 -82 ZM57 330 l237 0 l0 -33 l-237 0 l0 33 ZM141 434 q51 0 52 91 q-8 -3 -27 -8 l-25 -4 q-39 -6 -39 -41 q0 -38 39 -38 Z" /><glyph glyph-name="guillemotleft" unicode="" d="M157 438 l-52 -150 l49 -138 q3 -8 3 -16 q0 -16 -14 -16 q-9 0 -18 14 l-89 146 q-6 10 -6 11 q0 3 6 13 l96 153 q2 4 5 8 q3 4 9 4 q13 0 13 -16 q0 -9 -2 -13 ZM276 438 l-53 -150 l50 -138 q3 -8 3 -16 q0 -16 -14 -16 q-9 0 -18 14 l-89 146 q-6 10 -6 11 q0 3 5 13 l97 153 q2 4 5 8 q3 4 9 4 q13 0 13 -16 q0 -5 -2 -13 Z" /><glyph glyph-name="logicalnot" unicode="" d="M467 0 l-67 0 l0 206 l-367 0 l0 61 l434 0 l0 -267 Z" /><glyph glyph-name="softhyphen" unicode="" d="M46 205 l0 62 l457 0 l0 -62 l-457 0 Z" /><glyph glyph-name="registered" unicode="" d="M247 754 q84 0 143.5 -58 q59.5 -58 59.5 -140 q0 -83 -59.5 -142.5 q-59.5 -59.5 -143.5 -59.5 q-82 0 -139.5 60 q-57.5 60 -57.5 145 q0 81 57.5 138 q57.5 57 139.5 57 ZM249 390 q68 0 116.5 47.5 q48.5 47.5 48.5 115.5 q0 68 -48 116.5 q-48 48.5 -116 48.5 q-68 0 -116 -47 q-48 -47 -48 -113 q0 -70 47.5 -119 q47.5 -49 115.5 -49 ZM315 609 q0 -39 -29 -50 q19 -11 19 -39 l0 -15 l1 -13 q1 -19 7 -19 l5 0 q2 1 5 1 q14 0 14 -14 q0 -14 -17 -14 l-4 0 l-8 1 l-8 0 q-24 0 -24 56 l0 15 q0 18 -7.5 22.5 q-7.5 4.5 -26.5 4.5 l-8 0 q-3 -1 -8 -1 q-5 0 -5 -10 l0 -8 q0 -53 7 -53 l5 0 q2 1 6 1 q13 0 13 -13 q0 -16 -15 -16 q-5 0 -16 2 q-11 2 -16 2 q-5 0 -15 -2 q-10 -2 -15 -2 q-15 0 -15 15 q0 14 13 14 q4 0 6 -1 l5 0 q7 0 7 53 l0 61 q0 54 -7 54 q-2 0 -5.5 -1 q-3.5 -1 -5.5 -1 q-13 0 -13 14 q0 15 15 15 q6 0 17 -2 q11 -2 16 -2 q3 0 11 1 q8 1 14 1 q13 1 26 1 q56 0 56 -58 ZM222 572.5 q1 -0.5 3 -0.5 l10 0 q50 0 50 35 q0 34 -36 34 q-28 0 -28 -13 l0 -51 q0 -4 1 -4.5 Z" /><glyph glyph-name="macron" unicode="" d="M155 640 l45 -2 l51 0 q21 0 39 -1 q14 0 14 0 q36 2 36 2 q39 0 39 -31 q0 -34 -40 -34 q-12 0 -39 3 l-100 0 q-31 -3 -44 -3 q-35 0 -35 33 q0 35 34 33 Z" /><glyph glyph-name="degree" unicode="" d="M250 396 q-58 0 -99 40.5 q-41 40.5 -41 96.5 q0 57 41 97 q41 40 99 40 q58 0 99 -40 q41 -40 41 -97 q0 -56 -41 -96.5 q-41 -40.5 -99 -40.5 ZM250 627 q-40 0 -68 -27.5 q-28 -27.5 -28 -66.5 q0 -39 28 -66.5 q28 -27.5 68 -27.5 q40 0 68 27.5 q28 27.5 28 66.5 q0 39 -28 66.5 q-28 27.5 -68 27.5 Z" /><glyph glyph-name="plusminus" unicode="" d="M22 345 l0 62 l195 0 l0 181 l66 0 l0 -181 l195 0 l0 -62 l-198 0 l0 -182 l-63 0 l0 182 l-195 0 ZM22 57 l0 62 l456 0 l0 -62 l-456 0 Z" /><glyph glyph-name="twosuperior" unicode="" d="M91 379 q-20 -21 -26 -52 q25 35 56 35 q26 0 53 -26 l24 -22 q22 -20 37 -20 q11 0 19.5 11.5 q8.5 11.5 8.5 27.5 q0 1 0 3 q0 3 0 5 q-8 -5 -15 -5 q-12 0 -19 8.5 q-7 8.5 -7 21.5 q0 15 10 25.5 q10 10.5 23 10.5 q20 0 31.5 -18 q11.5 -18 11.5 -50 q0 -39 -18.5 -66 q-18.5 -27 -45.5 -27 q-21 0 -58 29 l-27 21 q-24 19 -42 19 q-12 0 -21 -5.5 q-9 -5.5 -9 -12.5 q0 -3 6 -6 q11 -7 11 -20 q0 -25 -23 -25 q-19 0 -30.5 19 q-11.5 19 -11.5 50 q0 63 33 104 q24 29 98 63 q44 20 61 40.5 q17 20.5 17 53.5 q0 37 -21.5 60 q-21.5 23 -55.5 23 q-32 0 -53.5 -18 q-21.5 -18 -22.5 -47 q28 -3 28 -31 q0 -18 -11 -29.5 q-11 -11.5 -26 -11.5 q-19 0 -29.5 16 q-10.5 16 -10.5 42 q0 53 38 88.5 q38 35.5 94 35.5 q52 0 85 -36 q33 -36 33 -92 q0 -35 -14.5 -65.5 q-14.5 -30.5 -38.5 -46.5 q-19 -12 -56 -27 q-57 -24 -86 -53 Z" /><glyph glyph-name="threesuperior" unicode="" d="M131 506 l100 135 l-100 0 q-40 0 -40 -26 q0 -7 2 -22 q1 -11 1 -21 q0 -32 -21 -32 q-22 0 -22 28 q0 9 2 30 q2 20 1 32 l-1 35 q0 29 18 29 q9 0 25 -2 q20 -1 26 -1 l44 -1 l60 1 l44 3 q1 0 3 0 q28 0 28 -24 q0 -12 -15 -32 l-90 -115 l7 0 q45 0 73 -34 q28 -34 28 -90 q0 -70 -39 -114 q-39 -44 -100 -44 q-56 0 -94 36 q-38 36 -38 89 q0 33 14 54 q14 21 36 21 q34 0 34 -38 q0 -34 -25 -34 q-2 0 -10 2 l0 -7 q0 -31 24.5 -53 q24.5 -22 57.5 -22 q40 0 65.5 31.5 q25.5 31.5 25.5 79.5 q0 37 -18.5 58.5 q-18.5 21.5 -51.5 21.5 q-11 0 -23 -4 q-18 -5 -21 -5 q-18 0 -18 18 q0 5 8 17 Z" /><glyph glyph-name="acute" unicode="" d="M180 583 q0 14 14 28 l66 67 q26 26 43 26 q16 0 27 -13 q11 -13 11 -32 q0 -31 -38 -48 l-87 -40 q-13 -6 -19 -6 q-17 0 -17 18 Z" /><glyph glyph-name="mu" unicode="" d="M115 -167 l-67 0 l0 646 l67 0 l0 -273 q0 -61 12.5 -92.5 q12.5 -31.5 44 -52 q31.5 -20.5 73.5 -20.5 q74 0 115 69 q23 39 23 106 l0 263 l66 0 l0 -479 l-66 0 l0 89 q-47 -102 -140 -102 q-81 0 -128 75 l0 -229 Z" /><glyph glyph-name="paragraph" unicode="" d="M278 -99 l-59 0 l0 413 l-15 0 q-81 0 -132.5 48.5 q-51.5 48.5 -51.5 125.5 q0 57 29.5 101 q29.5 44 78.5 61 q49 17 112 17 l261 0 l0 -53 l-58 0 l0 -713 l-58 0 l0 713 l-107 0 l0 -713 Z" /><glyph glyph-name="periodcentered" unicode="" d="M54 270 q-23 0 -38.5 18.5 q-15.5 18.5 -15.5 47.5 q0 28 15.5 47 q15.5 19 38.5 19 q24 0 39.5 -18.5 q15.5 -18.5 15.5 -47.5 q0 -29 -15.5 -47.5 q-15.5 -18.5 -39.5 -18.5 Z" /><glyph glyph-name="cedilla" unicode="" d="M234 0 l42 0 l-10 -38 q70 -1 70 -64 q0 -33 -21.5 -53 q-21.5 -20 -56.5 -20 q-28 0 -47.5 13 q-19.5 13 -19.5 32 q0 21 20 21 q7 0 14 -5 l13 -13 q6 -6 16 -6 q29 0 29 30 q0 24 -25 24 q-8 0 -13 -3 l-12 -7 q-3 -2 -9 -2 q-15 0 -15 15 q0 5 5 19 l20 57 Z" /><glyph glyph-name="onesuperior" unicode="" d="M151 491 l1 102 l-2 23 q-1 32 -17 32 q-6 0 -16 -2.5 q-10 -2.5 -15 -2.5 q-21 0 -21 23 q0 11 7 18 q7 7 18 7 q10 0 24.5 -2.5 q14.5 -2.5 25.5 -2.5 q11 0 18 2 q13 5 19 5 q10 0 10 -16 q0 -7 0 -7 l-2 -25 q-1 -33 -3 -99 l-1 -56 l2 -156 q1 -29 4.5 -35.5 q3.5 -6.5 18.5 -6.5 q6 0 17 1.5 q11 1.5 17 1.5 q23 0 23 -23 q0 -25 -24 -25 q-12 0 -38 4 q-26 4 -39 4 q-21 0 -46 -4 q-25 -4 -34 -4 q-24 0 -24 23 q0 24 20 24 q6 0 15.5 -2 q9.5 -2 15.5 -2 q22 0 23 36 q0 7 1 32 q2 48 2 133 Z" /><glyph glyph-name="ordmasculine" unicode="" d="M167 393 q-47 0 -75 38 q-28 38 -28 102 q0 64 28 102 q28 38 75 38 q47 0 75 -38 q28 -38 28 -102 q0 -64 -28 -102 q-28 -38 -75 -38 ZM65 330 l203 0 l0 -33 l-203 0 l0 33 ZM167 630 q-26 0 -41.5 -26.5 q-15.5 -26.5 -15.5 -70.5 q0 -44 15.5 -71 q15.5 -27 41.5 -27 q57 0 57 98 q0 44 -15.5 70.5 q-15.5 26.5 -41.5 26.5 Z" /><glyph glyph-name="guillemotright" unicode="" d="M178 147 l52 150 l-49 138 q-3 8 -3 16 q0 16 14 16 q9 0 18 -14 l89 -146 q6 -10 6 -11 q0 -3 -6 -13 l-101 -161 q-2 -4 -10 -4 q-12 0 -12 16 q0 9 2 13 ZM59 147 l52 150 l-49 138 q-3 8 -3 16 q0 16 14 16 q9 0 18 -14 l89 -146 q6 -10 6 -11 q0 -3 -6 -13 l-96 -153 q-2 -4 -5 -8 q-3 -4 -10 -4 q-12 0 -12 16 q0 9 2 13 Z" /><glyph glyph-name="onequarter" unicode="" d="M489 661 q0 -6 -2 -9 l-292 -641 q-9 -19 -36 -19 q-22 0 -22 12 q0 1 4 13 l289 637 q10 21 36 21 q23 0 23 -14 ZM79 583 l0 77 l-1 18 q-1 24 -13 24 q-4 0 -12 -2 q-8 -2 -12 -2 q-16 0 -16 18 q0 8 5.5 13 q5.5 5 14.5 5 q7 0 18 -2 q11 -2 20 -2 q8 0 13 2 q10 4 14 4 q8 0 8 -12 q0 -5 0 -5 l-2 -19 q0 -25 -2 -76 l-1 -42 l2 -118 q1 -22 3.5 -27 q2.5 -5 13.5 -5 q5 0 13.5 1 q8.5 1 12.5 1 q18 0 18 -17 q0 -20 -18 -20 q-10 0 -29.5 3.5 q-19.5 3.5 -29.5 3.5 q-16 0 -35 -3.5 q-19 -3.5 -26 -3.5 q-18 0 -18 19 q0 17 16 17 q4 0 11.5 -1 q7.5 -1 11.5 -1 q17 0 17 27 q0 5 1 24 q2 36 2 101 ZM548 86 l0 12 l-103 0 q-27 0 -27 21 q0 11 12 31 l105 176 q8 13 23 13 q15 0 20 -8 q5 -8 5 -31 l0 -167 l34 0 q19 0 19 -17 q0 -18 -23 -18 l-30 0 l0 -12 l1 -27 q0 -28 16 -28 q3 0 9 1 q6 1 9 1 q17 0 17 -17 q0 -8 -5.5 -13.5 q-5.5 -5.5 -13.5 -5.5 q-7 0 -23 3.5 q-16 3.5 -25 3.5 q-10 0 -28 -3.5 q-18 -3.5 -27 -3.5 q-17 0 -17 19 q0 17 16 17 q2 0 8.5 -1.5 q6.5 -1.5 10.5 -1.5 q14 0 17 23 q0 4 0 33 ZM456 133 l92 0 l0 155 l-92 -155 Z" /><glyph glyph-name="onehalf" unicode="" d="M489 661 q0 -6 -2 -9 l-292 -641 q-9 -19 -36 -19 q-22 0 -22 12 q0 1 4 13 l289 637 q10 21 36 21 q23 0 23 -14 ZM79 583 l0 77 l-1 18 q-1 24 -13 24 q-4 0 -12 -2 q-8 -2 -12 -2 q-16 0 -16 18 q0 8 5.5 13 q5.5 5 14.5 5 q7 0 18 -2 q11 -2 20 -2 q8 0 13 2 q10 4 14 4 q8 0 8 -12 q0 -5 0 -5 l-2 -19 q0 -25 -2 -76 l-1 -42 l2 -118 q1 -22 3.5 -27 q2.5 -5 13.5 -5 q5 0 13.5 1 q8.5 1 12.5 1 q18 0 18 -17 q0 -20 -18 -20 q-10 0 -29.5 3.5 q-19.5 3.5 -29.5 3.5 q-16 0 -35 -3.5 q-19 -3.5 -26 -3.5 q-18 0 -18 19 q0 17 16 17 q4 0 11.5 -1 q7.5 -1 11.5 -1 q17 0 17 27 q0 5 1 24 q2 36 2 101 ZM469 98 q-15 -16 -19 -40 q18 27 42 27 q19 0 40 -19 l18 -17 q17 -16 28 -16 q9 0 15.5 9 q6.5 9 6.5 21 q0 1 0 3 q-1 2 -1 3 q-5 -4 -11 -4 q-9 0 -14.5 6.5 q-5.5 6.5 -5.5 16.5 q0 11 8 19 q8 8 18 8 q14 0 23 -13.5 q9 -13.5 9 -37.5 q0 -30 -14 -50.5 q-14 -20.5 -35 -20.5 q-16 0 -43 22 l-21 16 q-18 15 -32 15 q-9 0 -16 -4.5 q-7 -4.5 -7 -9.5 q0 -2 5 -5 q9 -5 9 -15 q0 -19 -18 -19 q-14 0 -23 14.5 q-9 14.5 -9 38.5 q0 47 25 78 q18 23 74 48 q34 15 47 31 q13 16 13 41 q0 28 -16.5 45 q-16.5 17 -42.5 17 q-24 0 -40 -13.5 q-16 -13.5 -17 -35.5 q21 -2 21 -24 q0 -13 -8.5 -22 q-8.5 -9 -19.5 -9 q-14 0 -22.5 12.5 q-8.5 12.5 -8.5 32.5 q0 39 29 66 q29 27 71 27 q40 0 65 -27 q25 -27 25 -70 q0 -26 -11 -49 q-11 -23 -29 -35 q-15 -10 -43 -21 q-43 -18 -65 -40 Z" /><glyph glyph-name="threequarters" unicode="" d="M514 661 q0 -6 -2 -9 l-292 -641 q-9 -19 -36 -19 q-22 0 -22 12 q0 1 4 13 l289 637 q10 21 36 21 q23 0 23 -14 ZM573 86 l0 12 l-103 0 q-27 0 -27 21 q0 11 12 31 l105 176 q8 13 23 13 q15 0 20 -8 q5 -8 5 -31 l0 -167 l34 0 q19 0 19 -17 q0 -18 -23 -18 l-30 0 l0 -12 l1 -27 q0 -28 16 -28 q3 0 9 1 q6 1 9 1 q17 0 17 -17 q0 -8 -5.5 -13.5 q-5.5 -5.5 -13.5 -5.5 q-7 0 -23 3.5 q-16 3.5 -25 3.5 q-10 0 -28 -3.5 q-18 -3.5 -27 -3.5 q-17 0 -17 19 q0 17 16 17 q2 0 8.5 -1.5 q6.5 -1.5 10.5 -1.5 q14 0 17 23 q0 4 0 33 ZM481 133 l92 0 l0 155 l-92 -155 ZM95 594 l75 103 l-75 0 q-31 0 -31 -20 q0 -5 2 -17 q1 -8 1 -16 q0 -24 -17 -24 q-16 0 -16 21 q0 7 1 23 q2 15 1 24 l-1 27 q0 21 14 21 q7 0 19 -1 q15 -1 20 -1 l33 -1 l45 1 l34 3 q0 0 2 0 q21 0 21 -18 q0 -10 -11 -25 l-68 -87 l5 0 q34 0 55 -26 q21 -26 21 -68 q0 -53 -29 -86.5 q-29 -33.5 -76 -33.5 q-42 0 -71 27.5 q-29 27.5 -29 67.5 q0 25 11 41 q11 16 27 16 q26 0 26 -29 q0 -25 -19 -25 q-2 0 -8 1 l0 -6 q0 -23 18.5 -39.5 q18.5 -16.5 44.5 -16.5 q30 0 49.5 23.5 q19.5 23.5 19.5 60.5 q0 28 -14.5 44 q-14.5 16 -39.5 16 q-8 0 -17 -2 q-14 -4 -16 -4 q-14 0 -14 13 q0 4 7 13 Z" /><glyph glyph-name="questiondown" unicode="" d="M249 495 q22 0 36.5 -17.5 q14.5 -17.5 14.5 -44.5 q0 -28 -14.5 -45.5 q-14.5 -17.5 -36.5 -17.5 q-22 0 -36.5 17.5 q-14.5 17.5 -14.5 45.5 q0 27 14.5 44.5 q14.5 17.5 36.5 17.5 ZM137 170 q48 30 64.5 52 q16.5 22 17.5 59 l1 26 q1 31 35 31 q33 0 33 -48 q0 -60 -27 -103 q-22 -35 -81 -74 q-43 -29 -59 -52.5 q-16 -23.5 -16 -60.5 q0 -54 32.5 -88.5 q32.5 -34.5 84.5 -34.5 q50 0 88 34.5 q38 34.5 38 79.5 q0 17 -9 17 q-3 0 -8 -5 q-12 -10 -24 -10 q-39 0 -39 48 q0 27 18 46.5 q18 19.5 43 19.5 q37 0 60 -30 q23 -30 23 -78 q0 -82 -54.5 -135 q-54.5 -53 -138.5 -53 q-84 0 -135 51.5 q-51 51.5 -51 136.5 q0 105 104 171 Z" /><glyph glyph-name="Agrave" unicode="" d="M123 202 l116 423 q9 30 15 38 q11 17 34 17 q28 0 38 -13.5 q10 -13.5 25 -74.5 l115 -457 q12 -43 20 -56.5 q8 -13.5 22 -13.5 q4 0 18 2 q3 0 7 1 q4 0 5 0 q32 0 32 -34 q0 -39 -34 -39 q-4 0 -46 8 q-21 4 -44 4 q-18 0 -49.5 -6 q-31.5 -6 -42.5 -6 q-14 0 -25 11 q-11 11 -11 27 q0 35 33 35 q6 0 9 -1 q3 0 7 0 q4 -1 5 -1 q23 0 23 32 q0 17 -6 42 l-18 74 q-4 16 -8 19.5 q-4 3.5 -17 3.5 l-121 0 q-21 0 -30 -35 l-18 -71 q-7 -28 -7 -45 q0 -19 18 -19 q7 0 10 0.5 q3 0.5 7 1.5 q5 0 6 0 q32 0 32 -36 q0 -38 -33 -38 q-13 0 -41 6 q-28 6 -44 6 q-22 0 -52 -6 q-30 -6 -42 -6 q-36 0 -36 37 q0 36 31 36 q6 0 16 -2 q10 -2 15 -2 q16 0 30.5 30 q14.5 30 35.5 108 ZM369 705 q-4 0 -25 11 l-100 53 q-36 19 -47.5 31 q-11.5 12 -11.5 29 q0 17 11.5 29.5 q11.5 12.5 26.5 12.5 q23 0 49 -24 l72 -66 q3 -3 27 -24 q21 -18 21 -31 q0 -21 -23 -21 ZM346 327 l-55 247 l-64 -247 q-2 -8 -2 -11 q0 -13 19 -13 l87 0 q17 0 17 12 q0 3 -2 12 Z" /><glyph glyph-name="Aacute" unicode="" d="M123 202 l116 423 q9 30 15 38 q11 17 34 17 q28 0 38 -13.5 q10 -13.5 25 -74.5 l115 -457 q12 -43 20 -56.5 q8 -13.5 22 -13.5 q4 0 18 2 q3 0 7 1 q4 0 5 0 q32 0 32 -34 q0 -39 -34 -39 q-4 0 -46 8 q-21 4 -44 4 q-18 0 -49.5 -6 q-31.5 -6 -42.5 -6 q-14 0 -25 11 q-11 11 -11 27 q0 35 33 35 q6 0 9 -1 q3 0 7 0 q4 -1 5 -1 q23 0 23 32 q0 17 -6 42 l-18 74 q-4 16 -8 19.5 q-4 3.5 -17 3.5 l-121 0 q-21 0 -30 -35 l-18 -71 q-7 -28 -7 -45 q0 -19 18 -19 q7 0 10 0.5 q3 0.5 7 1.5 q5 0 6 0 q32 0 32 -36 q0 -38 -33 -38 q-13 0 -41 6 q-28 6 -44 6 q-22 0 -52 -6 q-30 -6 -42 -6 q-36 0 -36 37 q0 36 31 36 q6 0 16 -2 q10 -2 15 -2 q16 0 30.5 30 q14.5 30 35.5 108 ZM234 781 l71 66 q26 24 49 24 q15 0 26.5 -12.5 q11.5 -12.5 11.5 -29.5 q0 -21 -20 -37 q-8 -7 -38 -23 l-100 -53 q-21 -11 -26 -11 q-23 0 -23 20 q0 14 21 32 q9 8 28 24 ZM346 327 l-55 247 l-64 -247 q-2 -8 -2 -11 q0 -13 19 -13 l87 0 q17 0 17 12 q0 3 -2 12 Z" /><glyph glyph-name="Acircumflex" unicode="" d="M123 202 l116 423 q9 30 15 38 q11 17 34 17 q28 0 38 -13.5 q10 -13.5 25 -74.5 l115 -457 q12 -43 20 -56.5 q8 -13.5 22 -13.5 q4 0 18 2 q3 0 7 1 q4 0 5 0 q32 0 32 -34 q0 -39 -34 -39 q-4 0 -46 8 q-21 4 -44 4 q-18 0 -49.5 -6 q-31.5 -6 -42.5 -6 q-14 0 -25 11 q-11 11 -11 27 q0 35 33 35 q6 0 9 -1 q3 0 7 0 q4 -1 5 -1 q23 0 23 32 q0 17 -6 42 l-18 74 q-4 16 -8 19.5 q-4 3.5 -17 3.5 l-121 0 q-21 0 -30 -35 l-18 -71 q-7 -28 -7 -45 q0 -19 18 -19 q7 0 10 0.5 q3 0.5 7 1.5 q5 0 6 0 q32 0 32 -36 q0 -38 -33 -38 q-13 0 -41 6 q-28 6 -44 6 q-22 0 -52 -6 q-30 -6 -42 -6 q-36 0 -36 37 q0 36 31 36 q6 0 16 -2 q10 -2 15 -2 q16 0 30.5 30 q14.5 30 35.5 108 ZM418 728 l-127 54 l-125 -54 q-8 -2 -12 -2 q-15 0 -15 13 q0 7 9 15 l13 11 l106 95 q13 12 25 12 q12 0 25 -12 l119 -106 q9 -8 9 -15 q0 -13 -16 -13 q-3 0 -11 2 ZM346 327 l-55 247 l-64 -247 q-2 -8 -2 -11 q0 -13 19 -13 l87 0 q17 0 17 12 q0 3 -2 12 Z" /><glyph glyph-name="Atilde" unicode="" d="M123 202 l116 423 q9 30 15 38 q11 17 34 17 q28 0 38 -13.5 q10 -13.5 25 -74.5 l115 -457 q12 -43 20 -56.5 q8 -13.5 22 -13.5 q4 0 18 2 q3 0 7 1 q4 0 5 0 q32 0 32 -34 q0 -39 -34 -39 q-4 0 -46 8 q-21 4 -44 4 q-18 0 -49.5 -6 q-31.5 -6 -42.5 -6 q-14 0 -25 11 q-11 11 -11 27 q0 35 33 35 q6 0 9 -1 q3 0 7 0 q4 -1 5 -1 q23 0 23 32 q0 17 -6 42 l-18 74 q-4 16 -8 19.5 q-4 3.5 -17 3.5 l-121 0 q-21 0 -30 -35 l-18 -71 q-7 -28 -7 -45 q0 -19 18 -19 q7 0 10 0.5 q3 0.5 7 1.5 q5 0 6 0 q32 0 32 -36 q0 -38 -33 -38 q-13 0 -41 6 q-28 6 -44 6 q-22 0 -52 -6 q-30 -6 -42 -6 q-36 0 -36 37 q0 36 31 36 q6 0 16 -2 q10 -2 15 -2 q16 0 30.5 30 q14.5 30 35.5 108 ZM370 819 q17 0 24 7 l18 17 q7 5 13 5 q14 0 14 -12 q0 -17 -25 -56.5 q-25 -39.5 -62 -39.5 q-34 0 -76 18 l-35 15 q-19 8 -35 8 q-16 0 -37 -19 q-10 -9 -16 -9 q-14 0 -14 17 q0 18 24 52.5 q24 34.5 60 34.5 q34 0 78 -18 l32 -13 q17 -7 37 -7 ZM346 327 l-55 247 l-64 -247 q-2 -8 -2 -11 q0 -13 19 -13 l87 0 q17 0 17 12 q0 3 -2 12 Z" /><glyph glyph-name="Adieresis" unicode="" d="M123 202 l116 423 q9 30 15 38 q11 17 34 17 q28 0 38 -13.5 q10 -13.5 25 -74.5 l115 -457 q12 -43 20 -56.5 q8 -13.5 22 -13.5 q4 0 18 2 q3 0 7 1 q4 0 5 0 q32 0 32 -34 q0 -39 -34 -39 q-4 0 -46 8 q-21 4 -44 4 q-18 0 -49.5 -6 q-31.5 -6 -42.5 -6 q-14 0 -25 11 q-11 11 -11 27 q0 35 33 35 q6 0 9 -1 q3 0 7 0 q4 -1 5 -1 q23 0 23 32 q0 17 -6 42 l-18 74 q-4 16 -8 19.5 q-4 3.5 -17 3.5 l-121 0 q-21 0 -30 -35 l-18 -71 q-7 -28 -7 -45 q0 -19 18 -19 q7 0 10 0.5 q3 0.5 7 1.5 q5 0 6 0 q32 0 32 -36 q0 -38 -33 -38 q-13 0 -41 6 q-28 6 -44 6 q-22 0 -52 -6 q-30 -6 -42 -6 q-36 0 -36 37 q0 36 31 36 q6 0 16 -2 q10 -2 15 -2 q16 0 30.5 30 q14.5 30 35.5 108 ZM214 726 q-20 0 -34 17 q-14 17 -14 42 q0 26 14 43 q14 17 34 17 q21 0 34.5 -16.5 q13.5 -16.5 13.5 -42.5 q0 -26 -13.5 -43 q-13.5 -17 -34.5 -17 ZM370 726 q-20 0 -34 17 q-14 17 -14 42 q0 26 14 43 q14 17 34 17 q21 0 34.5 -16.5 q13.5 -16.5 13.5 -42.5 q0 -26 -13.5 -43 q-13.5 -17 -34.5 -17 ZM346 327 l-55 247 l-64 -247 q-2 -8 -2 -11 q0 -13 19 -13 l87 0 q17 0 17 12 q0 3 -2 12 Z" /><glyph glyph-name="Aring" unicode="" d="M123 202 l116 423 q9 30 15 38 q11 17 34 17 q28 0 38 -13.5 q10 -13.5 25 -74.5 l115 -457 q12 -43 20 -56.5 q8 -13.5 22 -13.5 q4 0 18 2 q3 0 7 1 q4 0 5 0 q32 0 32 -34 q0 -39 -34 -39 q-4 0 -46 8 q-21 4 -44 4 q-18 0 -49.5 -6 q-31.5 -6 -42.5 -6 q-14 0 -25 11 q-11 11 -11 27 q0 35 33 35 q6 0 9 -1 q3 0 7 0 q4 -1 5 -1 q23 0 23 32 q0 17 -6 42 l-18 74 q-4 16 -8 19.5 q-4 3.5 -17 3.5 l-121 0 q-21 0 -30 -35 l-18 -71 q-7 -28 -7 -45 q0 -19 18 -19 q7 0 10 0.5 q3 0.5 7 1.5 q5 0 6 0 q32 0 32 -36 q0 -38 -33 -38 q-13 0 -41 6 q-28 6 -44 6 q-22 0 -52 -6 q-30 -6 -42 -6 q-36 0 -36 37 q0 36 31 36 q6 0 16 -2 q10 -2 15 -2 q16 0 30.5 30 q14.5 30 35.5 108 ZM289 711 q-28 0 -47 21 q-19 21 -19 53 q0 32 19 52.5 q19 20.5 47 20.5 q28 0 47 -20.5 q19 -20.5 19 -52.5 q0 -32 -19 -53 q-19 -21 -47 -21 ZM346 327 l-55 247 l-64 -247 q-2 -8 -2 -11 q0 -13 19 -13 l87 0 q17 0 17 12 q0 3 -2 12 ZM289 824 q-12 0 -21 -11.5 q-9 -11.5 -9 -27.5 q0 -39 30 -39 q29 0 29 39 q0 16 -8.5 27.5 q-8.5 11.5 -20.5 11.5 Z" /><glyph glyph-name="AE" unicode="" d="M89 160 l242 475 q17 33 55 33 l7 0 q4 -1 47 -4 q38 -3 86 -3 q34 0 46 1 l60 5 q12 1 53 1 q29 0 39 -10 q10 -10 10 -37 l0 -45 l-1 -50 q0 -17 1.5 -47 q1.5 -30 1.5 -44 q0 -49 -34 -49 q-31 0 -31 42 q0 24 1 42 q2 36 2 40 q0 54 -18.5 71.5 q-18.5 17.5 -76.5 17.5 l-73 0 q-31 0 -43 -16 q-12 -16 -12 -57 l0 -110 q0 -31 22 -31 l39 0 q47 0 47 45 q0 7 0 7 l-2 29 q-1 6 -1 17 q0 45 30 45 q30 0 30 -40 q0 -1 -2 -43 q-4 -84 -4 -110 q0 -24 2 -48 l4 -48 q0 0 0 -8 q0 -44 -30 -44 q-30 0 -30 45 q0 6 1 18 q1 9 2 22 q1 10 1 13 q0 38 -44 38 l-38 0 q-17 0 -22 -5.5 q-5 -5.5 -5 -21.5 l0 -163 q0 -38 9 -50 q11 -16 47 -16 l49 0 l55 3 q48 3 62.5 20.5 q14.5 17.5 14.5 75.5 q0 13 -1 31 l-2 36 q-1 3 -1 7 q0 44 33 44 q33 0 33 -37 q0 -8 -2 -27 q-5 -46 -5 -91 q0 -14 1 -40.5 q1 -26.5 1 -40.5 q0 -49 -46 -49 q-21 0 -56 2 q-43 3 -56 4 q-51 2 -93 2 q-88 0 -142 -8 q-27 -4 -41 -4 q-36 0 -36 40 q0 32 31 32 q7 0 21 -2.5 q14 -2.5 21 -2.5 q28 0 28 51 q0 0 1 15 q1 19 2 40 q1 25 1 68 l0 43 q0 16 -4 21 q-4 5 -21 5 l-86 0 q-20 0 -28.5 -7.5 q-8.5 -7.5 -23.5 -36.5 l-55 -110 q-4 -10 -15.5 -38 q-11.5 -28 -11.5 -35 q0 -13 16 -13 q5 0 14 1.5 q9 1.5 14 1.5 q32 0 32 -36 q0 -37 -35 -37 q-12 0 -33 5 q-29 7 -55 7 q-20 0 -48 -6 q-28 -6 -41 -6 q-37 0 -37 37 q0 35 33 35 q7 0 13 -1 l3 0 q19 0 34 18.5 q15 18.5 44 75.5 ZM380 393 l0 199 l-99 -199 q-5 -10 -5 -15 q0 -9 18 -9 l68 0 q18 0 18 24 Z" /><glyph glyph-name="Ccedilla" unicode="" d="M420 65 q-50 -67 -144 -76 l-11 -39 q4 0 10 0 q6 1 9 1 q38 0 62 -22.5 q24 -22.5 24 -58.5 q0 -41 -29 -67 q-29 -26 -74 -26 q-38 0 -67 18 q-29 18 -29 41 q0 24 20 24 q7 0 10 -4 l18 -14 q22 -17 49 -17 q18 0 29.5 12 q11.5 12 11.5 29 q0 17 -12 29 q-12 12 -29 12 q-14 0 -33 -7 q-10 -2 -11 -2 q-14 0 -14 16 q0 5 3 11 l22 64 q-93 21 -138 99 q-57 98 -57 243 q0 156 62 252.5 q62 96.5 163 96.5 q75 0 127 -65 q-2 18 -2 18 q0 47 32 47 q29 0 29 -38 q0 -1 -5 -65 q-2 -21 -2 -48 q0 -21 3 -60 q4 -52 4 -54 q0 -43 -33 -43 q-35 0 -35 39 q0 7 1.5 21 q1.5 14 1.5 21 q0 73 -31.5 114.5 q-31.5 41.5 -86.5 41.5 q-70 0 -111.5 -74 q-41.5 -74 -41.5 -198 q0 -124 43 -200.5 q43 -76.5 114 -76.5 q55 0 89.5 40 q34.5 40 40.5 110 q3 33 11 45 q8 12 28 12 q33 0 33 -34 q0 -96 -54 -168 Z" /><glyph glyph-name="Egrave" unicode="" d="M191 497 l0 -62 l1 -21 q1 -28 19 -28 l39 0 q41 0 41 47 q0 15 -1 25 q-3 29 -3 33 q0 38 30 38 q29 0 29 -47 q0 -21 0 -21 l-4 -54 q-2 -27 -2 -55 q0 -49 5 -98 q2 -20 2 -26 q0 -40 -30 -40 q-29 0 -29 41 q0 9 1.5 28 q1.5 19 1.5 28 q0 42 -38 42 l-42 0 q-14 0 -17 -6 q-3 -6 -3 -34 l0 -70 q0 -11 1 -51 q0 0 0 -48 q0 -34 17 -43 q12 -6 49 -6 l54 0 q66 0 87 18 q21 18 21 75 q0 13 -2 38.5 q-2 25.5 -2 38.5 q0 45 33 45 q33 0 33 -40 q0 -7 -2 -33 q-6 -34 -6 -78 q0 -14 1 -43 q1 -29 1 -43 q0 -27 -11 -37.5 q-11 -10.5 -40 -10.5 q-17 0 -43 3 q-43 5 -126 5 q-7 0 -81 -3 q-41 -2 -58 -4 q-36 -5 -52 -5 q-39 0 -39 40 q0 33 32 33 q10 0 15 -2 q16 -2 18 -2 q19 0 24 29.5 q5 29.5 5 144.5 l0 190 q0 116 -5 145.5 q-5 29.5 -24 29.5 q-5 0 -16 -2.5 q-11 -2.5 -17 -2.5 q-32 0 -32 34 q0 39 38 39 q9 0 66 -8 q21 -3 52 -3 q79 0 168 7 q25 2 65 2 q44 0 49 -23 q2 -10 2 -28 q0 -14 -1 -37 q-3 -64 0 -104 l3 -48 q0 -41 -31 -41 q-34 0 -34 45 q0 13 1 37.5 q1 24.5 1 37.5 q0 55 -16 74 q-16 19 -62 19 l-77 0 q-40 0 -49.5 -17 q-9.5 -17 -9.5 -87 ZM328 705 q-4 0 -25 11 l-100 53 q-36 19 -47.5 31 q-11.5 12 -11.5 29 q0 17 11.5 29.5 q11.5 12.5 26.5 12.5 q23 0 49 -24 l72 -66 q7 -6 18 -16 q30 -25 30 -39 q0 -21 -23 -21 Z" /><glyph glyph-name="Eacute" unicode="" d="M191 497 l0 -62 l1 -21 q1 -28 19 -28 l39 0 q41 0 41 47 q0 15 -1 25 q-3 29 -3 33 q0 38 30 38 q29 0 29 -47 q0 -21 0 -21 l-4 -54 q-2 -27 -2 -55 q0 -49 5 -98 q2 -20 2 -26 q0 -40 -30 -40 q-29 0 -29 41 q0 9 1.5 28 q1.5 19 1.5 28 q0 42 -38 42 l-42 0 q-14 0 -17 -6 q-3 -6 -3 -34 l0 -70 q0 -11 1 -51 q0 0 0 -48 q0 -34 17 -43 q12 -6 49 -6 l54 0 q66 0 87 18 q21 18 21 75 q0 13 -2 38.5 q-2 25.5 -2 38.5 q0 45 33 45 q33 0 33 -40 q0 -7 -2 -33 q-6 -34 -6 -78 q0 -14 1 -43 q1 -29 1 -43 q0 -27 -11 -37.5 q-11 -10.5 -40 -10.5 q-17 0 -43 3 q-43 5 -126 5 q-7 0 -81 -3 q-41 -2 -58 -4 q-36 -5 -52 -5 q-39 0 -39 40 q0 33 32 33 q10 0 15 -2 q16 -2 18 -2 q19 0 24 29.5 q5 29.5 5 144.5 l0 190 q0 116 -5 145.5 q-5 29.5 -24 29.5 q-5 0 -16 -2.5 q-11 -2.5 -17 -2.5 q-32 0 -32 34 q0 39 38 39 q9 0 66 -8 q21 -3 52 -3 q79 0 168 7 q25 2 65 2 q44 0 49 -23 q2 -10 2 -28 q0 -14 -1 -37 q-3 -64 0 -104 l3 -48 q0 -41 -31 -41 q-34 0 -34 45 q0 13 1 37.5 q1 24.5 1 37.5 q0 55 -16 74 q-16 19 -62 19 l-77 0 q-40 0 -49.5 -17 q-9.5 -17 -9.5 -87 ZM220 781 l71 66 q26 24 49 24 q15 0 26.5 -12.5 q11.5 -12.5 11.5 -29.5 q0 -17 -11.5 -29 q-11.5 -12 -47.5 -31 l-99 -53 q-21 -11 -26 -11 q-23 0 -23 20 q0 14 21 32 q9 8 28 24 Z" /><glyph glyph-name="Ecircumflex" unicode="" d="M191 497 l0 -62 l1 -21 q1 -28 19 -28 l39 0 q41 0 41 47 q0 15 -1 25 q-3 29 -3 33 q0 38 30 38 q29 0 29 -47 q0 -21 0 -21 l-4 -54 q-2 -27 -2 -55 q0 -49 5 -98 q2 -20 2 -26 q0 -40 -30 -40 q-29 0 -29 41 q0 9 1.5 28 q1.5 19 1.5 28 q0 42 -38 42 l-42 0 q-14 0 -17 -6 q-3 -6 -3 -34 l0 -70 q0 -11 1 -51 q0 0 0 -48 q0 -34 17 -43 q12 -6 49 -6 l54 0 q66 0 87 18 q21 18 21 75 q0 13 -2 38.5 q-2 25.5 -2 38.5 q0 45 33 45 q33 0 33 -40 q0 -7 -2 -33 q-6 -34 -6 -78 q0 -14 1 -43 q1 -29 1 -43 q0 -27 -11 -37.5 q-11 -10.5 -40 -10.5 q-17 0 -43 3 q-43 5 -126 5 q-7 0 -81 -3 q-41 -2 -58 -4 q-36 -5 -52 -5 q-39 0 -39 40 q0 33 32 33 q10 0 15 -2 q16 -2 18 -2 q19 0 24 29.5 q5 29.5 5 144.5 l0 190 q0 116 -5 145.5 q-5 29.5 -24 29.5 q-5 0 -16 -2.5 q-11 -2.5 -17 -2.5 q-32 0 -32 34 q0 39 38 39 q9 0 66 -8 q21 -3 52 -3 q79 0 168 7 q25 2 65 2 q44 0 49 -23 q2 -10 2 -28 q0 -14 -1 -37 q-3 -64 0 -104 l3 -48 q0 -41 -31 -41 q-34 0 -34 45 q0 13 1 37.5 q1 24.5 1 37.5 q0 55 -16 74 q-16 19 -62 19 l-77 0 q-40 0 -49.5 -17 q-9.5 -17 -9.5 -87 ZM394 728 l-127 54 l-125 -54 q-8 -2 -12 -2 q-15 0 -15 13 q0 7 9 15 l13 11 l106 95 q13 12 25 12 q12 0 25 -12 l118 -106 q10 -9 10 -15 q0 -13 -16 -13 q-6 0 -11 2 Z" /><glyph glyph-name="Edieresis" unicode="" d="M191 497 l0 -62 l1 -21 q1 -28 19 -28 l39 0 q41 0 41 47 q0 15 -1 25 q-3 29 -3 33 q0 38 30 38 q29 0 29 -47 q0 -21 0 -21 l-4 -54 q-2 -27 -2 -55 q0 -49 5 -98 q2 -20 2 -26 q0 -40 -30 -40 q-29 0 -29 41 q0 9 1.5 28 q1.5 19 1.5 28 q0 42 -38 42 l-42 0 q-14 0 -17 -6 q-3 -6 -3 -34 l0 -70 q0 -11 1 -51 q0 0 0 -48 q0 -34 17 -43 q12 -6 49 -6 l54 0 q66 0 87 18 q21 18 21 75 q0 13 -2 38.5 q-2 25.5 -2 38.5 q0 45 33 45 q33 0 33 -40 q0 -7 -2 -33 q-6 -34 -6 -78 q0 -14 1 -43 q1 -29 1 -43 q0 -27 -11 -37.5 q-11 -10.5 -40 -10.5 q-17 0 -43 3 q-43 5 -126 5 q-7 0 -81 -3 q-41 -2 -58 -4 q-36 -5 -52 -5 q-39 0 -39 40 q0 33 32 33 q10 0 15 -2 q16 -2 18 -2 q19 0 24 29.5 q5 29.5 5 144.5 l0 190 q0 116 -5 145.5 q-5 29.5 -24 29.5 q-5 0 -16 -2.5 q-11 -2.5 -17 -2.5 q-32 0 -32 34 q0 39 38 39 q9 0 66 -8 q21 -3 52 -3 q79 0 168 7 q25 2 65 2 q44 0 49 -23 q2 -10 2 -28 q0 -14 -1 -37 q-3 -64 0 -104 l3 -48 q0 -41 -31 -41 q-34 0 -34 45 q0 13 1 37.5 q1 24.5 1 37.5 q0 55 -16 74 q-16 19 -62 19 l-77 0 q-40 0 -49.5 -17 q-9.5 -17 -9.5 -87 ZM190 726 q-21 0 -34.5 16.5 q-13.5 16.5 -13.5 42.5 q0 26 13.5 43 q13.5 17 34.5 17 q20 0 34 -17 q14 -17 14 -42 q0 -26 -14 -43 q-14 -17 -34 -17 ZM346 726 q-21 0 -34.5 16.5 q-13.5 16.5 -13.5 42.5 q0 26 13.5 43 q13.5 17 34.5 17 q20 0 34 -17 q14 -17 14 -42 q0 -26 -14 -43 q-14 -17 -34 -17 Z" /><glyph glyph-name="Igrave" unicode="" d="M91 64 q19 0 24 29.5 q5 29.5 5 144.5 l0 190 q0 116 -5 145.5 q-5 29.5 -24 29.5 q-5 0 -16 -2.5 q-11 -2.5 -17 -2.5 q-32 0 -32 34 q0 39 38 39 q15 0 45 -5.5 q30 -5.5 45 -5.5 q16 0 47 5.5 q31 5.5 47 5.5 q39 0 39 -39 q0 -34 -33 -34 q-3 0 -14 2.5 q-11 2.5 -19 2.5 q-19 0 -23.5 -29.5 q-4.5 -29.5 -4.5 -145.5 l0 -190 q0 -115 4.5 -144.5 q4.5 -29.5 23.5 -29.5 q4 0 18 2 q6 2 15 2 q14 0 23.5 -9.5 q9.5 -9.5 9.5 -23.5 q0 -17 -11 -28.5 q-11 -11.5 -27 -11.5 q-5 0 -48 8 q-22 4 -42 4 q-18 0 -49.5 -6 q-31.5 -6 -45.5 -6 q-16 0 -27 11.5 q-11 11.5 -11 28.5 q0 33 32 33 q10 0 15 -2 q16 -2 18 -2 ZM230 705 q-4 0 -25 11 l-100 53 q-36 19 -47.5 31 q-11.5 12 -11.5 29 q0 17 11.5 29.5 q11.5 12.5 26.5 12.5 q23 0 49 -24 l72 -66 q3 -3 27 -24 q21 -18 21 -31 q0 -21 -23 -21 Z" /><glyph glyph-name="Iacute" unicode="" d="M91 64 q19 0 24 29.5 q5 29.5 5 144.5 l0 190 q0 116 -5 145.5 q-5 29.5 -24 29.5 q-5 0 -16 -2.5 q-11 -2.5 -17 -2.5 q-32 0 -32 34 q0 39 38 39 q15 0 45 -5.5 q30 -5.5 45 -5.5 q16 0 47 5.5 q31 5.5 47 5.5 q39 0 39 -39 q0 -34 -33 -34 q-3 0 -14 2.5 q-11 2.5 -19 2.5 q-19 0 -23.5 -29.5 q-4.5 -29.5 -4.5 -145.5 l0 -190 q0 -115 4.5 -144.5 q4.5 -29.5 23.5 -29.5 q4 0 18 2 q6 2 15 2 q14 0 23.5 -9.5 q9.5 -9.5 9.5 -23.5 q0 -17 -11 -28.5 q-11 -11.5 -27 -11.5 q-5 0 -48 8 q-22 4 -42 4 q-18 0 -49.5 -6 q-31.5 -6 -45.5 -6 q-16 0 -27 11.5 q-11 11.5 -11 28.5 q0 33 32 33 q10 0 15 -2 q16 -2 18 -2 ZM90 765 q5 4 18 16 l72 66 q26 24 48 24 q16 0 27.5 -12.5 q11.5 -12.5 11.5 -29.5 q0 -17 -11.5 -29 q-11.5 -12 -47.5 -31 l-100 -53 q-21 -11 -26 -11 q-22 0 -22 20 q0 16 30 40 Z" /><glyph glyph-name="Icircumflex" unicode="" d="M91 64 q19 0 24 29.5 q5 29.5 5 144.5 l0 190 q0 116 -5 145.5 q-5 29.5 -24 29.5 q-5 0 -16 -2.5 q-11 -2.5 -17 -2.5 q-32 0 -32 34 q0 39 38 39 q15 0 45 -5.5 q30 -5.5 45 -5.5 q16 0 47 5.5 q31 5.5 47 5.5 q39 0 39 -39 q0 -34 -33 -34 q-3 0 -14 2.5 q-11 2.5 -19 2.5 q-19 0 -23.5 -29.5 q-4.5 -29.5 -4.5 -145.5 l0 -190 q0 -115 4.5 -144.5 q4.5 -29.5 23.5 -29.5 q4 0 18 2 q6 2 15 2 q14 0 23.5 -9.5 q9.5 -9.5 9.5 -23.5 q0 -17 -11 -28.5 q-11 -11.5 -27 -11.5 q-5 0 -48 8 q-22 4 -42 4 q-18 0 -49.5 -6 q-31.5 -6 -45.5 -6 q-16 0 -27 11.5 q-11 11.5 -11 28.5 q0 33 32 33 q10 0 15 -2 q16 -2 18 -2 ZM282 728 l-126 54 l-126 -54 q-5 -2 -11 -2 q-16 0 -16 13 q0 6 10 15 l12 11 l106 95 q13 12 25 12 q12 0 25 -12 l119 -106 q9 -8 9 -15 q0 -13 -15 -13 q-4 0 -12 2 Z" /><glyph glyph-name="Idieresis" unicode="" d="M91 64 q19 0 24 29.5 q5 29.5 5 144.5 l0 190 q0 116 -5 145.5 q-5 29.5 -24 29.5 q-5 0 -16 -2.5 q-11 -2.5 -17 -2.5 q-32 0 -32 34 q0 39 38 39 q15 0 45 -5.5 q30 -5.5 45 -5.5 q16 0 47 5.5 q31 5.5 47 5.5 q39 0 39 -39 q0 -34 -33 -34 q-3 0 -14 2.5 q-11 2.5 -19 2.5 q-19 0 -23.5 -29.5 q-4.5 -29.5 -4.5 -145.5 l0 -190 q0 -115 4.5 -144.5 q4.5 -29.5 23.5 -29.5 q4 0 18 2 q6 2 15 2 q14 0 23.5 -9.5 q9.5 -9.5 9.5 -23.5 q0 -17 -11 -28.5 q-11 -11.5 -27 -11.5 q-5 0 -48 8 q-22 4 -42 4 q-18 0 -49.5 -6 q-31.5 -6 -45.5 -6 q-16 0 -27 11.5 q-11 11.5 -11 28.5 q0 33 32 33 q10 0 15 -2 q16 -2 18 -2 ZM89 725 q-20 0 -33.5 17 q-13.5 17 -13.5 43 q0 23 15 41.5 q15 18.5 35 18.5 q20 0 34 -17.5 q14 -17.5 14 -41.5 q0 -25 -15 -43 q-15 -18 -36 -18 ZM220 725 q-20 0 -33.5 17.5 q-13.5 17.5 -13.5 42.5 q0 23 15.5 41.5 q15.5 18.5 34.5 18.5 q20 0 34 -17.5 q14 -17.5 14 -41.5 q0 -25 -15 -43 q-15 -18 -36 -18 Z" /><glyph glyph-name="Eth" unicode="" d="M91 64 q19 0 24 29.5 q5 29.5 5 144.5 l0 78 q-25 -1 -27 -1 q-4 -1 -10 -1 q-39 0 -39 36 q0 39 40 39 q4 0 12 -1 q8 -1 12 -1 q6 0 12 -1 l0 42 q0 116 -5 145.5 q-5 29.5 -24 29.5 q-5 0 -16 -2.5 q-11 -2.5 -17 -2.5 q-32 0 -32 34 q0 39 38 39 q18 0 57 -7 q22 -4 46 -4 q17 0 74 5 q23 2 49 2 q240 0 240 -335 q0 -335 -248 -335 q-21 0 -57 4 q-54 6 -72 6 q-16 0 -43 -5 q-38 -7 -47 -7 q-16 0 -26.5 11.5 q-10.5 11.5 -10.5 28.5 q0 33 32 33 q10 0 15 -2 q16 -2 18 -2 ZM204 319 l-13 0 l1 -202 q1 -38 29 -48 q15 -6 62 -6 q82 0 122 61 q53 81 53 214 q0 107 -32.5 173.5 q-32.5 66.5 -90.5 80.5 q-34 8 -71 8 q-51 0 -64 -20 q-9 -13 -9 -65 l0 -6 l0 -125 l12 0 q6 0 18.5 2 q12.5 2 18.5 2 q36 0 36 -37 q0 -35 -43 -35 q-9 0 -13 1 l-16 2 Z" /><glyph glyph-name="Ntilde" unicode="" d="M230 640 l183 -543 l0 331 q0 100 0 99 q-5 76 -29 76 q-6 0 -16.5 -2.5 q-10.5 -2.5 -16.5 -2.5 q-14 0 -23.5 10 q-9.5 10 -9.5 24 q0 16 11 27.5 q11 11.5 27 11.5 q13 0 45 -7 q18 -4 45 -4 q30 0 46 4 q29 7 40 7 q13 0 22.5 -11 q9.5 -11 9.5 -27 q0 -35 -30 -35 q-4 0 -13 1.5 q-9 1.5 -14 1.5 q-22 0 -25 -46 l-3 -49 l-1 -75 l0 -367 q0 -70 -51 -70 q-45 0 -66 63 l-175 522 l0 -341 q0 -115 5 -144.5 q5 -29.5 24 -29.5 q3 0 17 2 q6 2 16 2 q32 0 32 -33 q0 -16 -11 -28 q-11 -12 -26 -12 q-4 0 -42 9 q-13 3 -43 3 q-25 0 -51 -5 q-37 -7 -44 -7 q-16 0 -26.5 11.5 q-10.5 11.5 -10.5 28.5 q0 33 32 33 q10 0 15 -2 q16 -2 18 -2 q19 0 24 29.5 q5 29.5 5 144.5 l0 190 q0 116 -5 145.5 q-5 29.5 -24 29.5 q-5 0 -16 -2.5 q-11 -2.5 -17 -2.5 q-32 0 -32 34 q0 17 10.5 28 q10.5 11 26.5 11 q11 0 38 -6 q22 -5 47 -5 q4 0 42 6 q9 1 15 1 q16 0 25 -27 ZM377 819 q14 0 24 7 l17 17 q7 5 14 5 q13 0 13 -12 q0 -20 -24.5 -58 q-24.5 -38 -62.5 -38 q-35 0 -76 18 l-34 15 q-18 8 -35 8 q-18 0 -37 -19 q-11 -9 -16 -9 q-15 0 -15 17 q0 17 23.5 52 q23.5 35 60.5 35 q32 0 78 -18 l33 -13 q18 -7 37 -7 Z" /><glyph glyph-name="Ograve" unicode="" d="M255 -13 q-98 0 -156.5 94 q-58.5 94 -58.5 252 q0 158 58.5 252.5 q58.5 94.5 156.5 94.5 q98 0 156 -94 q58 -94 58 -253 q0 -158 -58 -252 q-58 -94 -156 -94 ZM329 705 q-5 0 -26 11 l-100 53 q-36 19 -47.5 31 q-11.5 12 -11.5 29 q0 17 11.5 29.5 q11.5 12.5 27.5 12.5 q22 0 48 -24 l72 -66 q4 -4 19 -16 q29 -24 29 -39 q0 -21 -22 -21 ZM256 610 q-67 0 -103.5 -73 q-36.5 -73 -36.5 -204 q0 -129 36.5 -202.5 q36.5 -73.5 100.5 -73.5 q66 0 103 73 q37 73 37 203 q0 129 -36.5 203 q-36.5 74 -100.5 74 Z" /><glyph glyph-name="Oacute" unicode="" d="M255 -13 q-98 0 -156.5 94 q-58.5 94 -58.5 252 q0 158 58.5 252.5 q58.5 94.5 156.5 94.5 q98 0 156 -94 q58 -94 58 -253 q0 -158 -58 -252 q-58 -94 -156 -94 ZM175 765 q5 4 18 16 l72 66 q26 24 48 24 q16 0 27.5 -12.5 q11.5 -12.5 11.5 -29.5 q0 -17 -11.5 -29 q-11.5 -12 -47.5 -31 l-100 -53 q-21 -11 -26 -11 q-22 0 -22 20 q0 16 30 40 ZM256 610 q-67 0 -103.5 -73 q-36.5 -73 -36.5 -204 q0 -129 36.5 -202.5 q36.5 -73.5 100.5 -73.5 q66 0 103 73 q37 73 37 203 q0 129 -36.5 203 q-36.5 74 -100.5 74 Z" /><glyph glyph-name="Ocircumflex" unicode="" d="M255 -13 q-98 0 -156.5 94 q-58.5 94 -58.5 252 q0 158 58.5 252.5 q58.5 94.5 156.5 94.5 q98 0 156 -94 q58 -94 58 -253 q0 -158 -58 -252 q-58 -94 -156 -94 ZM381 728 l-127 54 l-125 -54 q-8 -2 -12 -2 q-15 0 -15 13 q0 7 9 15 l13 11 l106 95 q13 12 25 12 q12 0 25 -12 l118 -106 q10 -9 10 -15 q0 -13 -16 -13 q-6 0 -11 2 ZM256 610 q-67 0 -103.5 -73 q-36.5 -73 -36.5 -204 q0 -129 36.5 -202.5 q36.5 -73.5 100.5 -73.5 q66 0 103 73 q37 73 37 203 q0 129 -36.5 203 q-36.5 74 -100.5 74 Z" /><glyph glyph-name="Otilde" unicode="" d="M255 -13 q-98 0 -156.5 94 q-58.5 94 -58.5 252 q0 158 58.5 252.5 q58.5 94.5 156.5 94.5 q98 0 156 -94 q58 -94 58 -253 q0 -158 -58 -252 q-58 -94 -156 -94 ZM337 819 q14 0 24 7 l17 17 q7 5 14 5 q13 0 13 -12 q0 -17 -25 -56.5 q-25 -39.5 -62 -39.5 q-35 0 -76 18 l-34 15 q-18 8 -36 8 q-17 0 -36 -19 q-11 -9 -17 -9 q-14 0 -14 17 q0 17 23.5 52 q23.5 35 60.5 35 q32 0 78 -18 l33 -13 q18 -7 37 -7 ZM256 610 q-67 0 -103.5 -73 q-36.5 -73 -36.5 -204 q0 -129 36.5 -202.5 q36.5 -73.5 100.5 -73.5 q66 0 103 73 q37 73 37 203 q0 129 -36.5 203 q-36.5 74 -100.5 74 Z" /><glyph glyph-name="Odieresis" unicode="" d="M255 -13 q-98 0 -156.5 94 q-58.5 94 -58.5 252 q0 158 58.5 252.5 q58.5 94.5 156.5 94.5 q98 0 156 -94 q58 -94 58 -253 q0 -158 -58 -252 q-58 -94 -156 -94 ZM177 726 q-21 0 -34.5 16.5 q-13.5 16.5 -13.5 42.5 q0 26 13.5 43 q13.5 17 34.5 17 q20 0 34 -17 q14 -17 14 -42 q0 -26 -14 -43 q-14 -17 -34 -17 ZM333 726 q-21 0 -34.5 16.5 q-13.5 16.5 -13.5 42.5 q0 26 13.5 43 q13.5 17 34.5 17 q20 0 34 -17 q14 -17 14 -42 q0 -26 -14 -43 q-14 -17 -34 -17 ZM256 610 q-67 0 -103.5 -73 q-36.5 -73 -36.5 -204 q0 -129 36.5 -202.5 q36.5 -73.5 100.5 -73.5 q66 0 103 73 q37 73 37 203 q0 129 -36.5 203 q-36.5 74 -100.5 74 Z" /><glyph glyph-name="multiply" unicode="" d="M74 464 l44 44 l130 -131 l123 123 l46 -47 l-122 -122 l130 -130 l-44 -44 l-130 130 l-122 -122 l-46 47 l121 122 l-130 130 Z" /><glyph glyph-name="Oslash" unicode="" d="M478 705 l-59 -100 q65 -106 65 -249 q0 -160 -63.5 -264 q-63.5 -104 -160.5 -104 q-68 0 -125 54 l-35 -71 q-8 -16 -30 -16 q-30 0 -30 18 q0 6 4 13 l56 102 q-19 44 -28 79 q-18 67 -18 141 q0 170 60 272 q60 102 160 102 q54 0 110 -37 l35 70 q11 23 36 23 q27 0 27 -19 q0 -7 -4 -14 ZM144 165 l209 415 q-30 37 -81 37 q-95 0 -132 -173 q-16 -76 -16 -138 q0 -82 20 -141 ZM384 528 l-217 -418 q39 -53 90 -53 q67 0 111 82.5 q44 82.5 44 208.5 q0 120 -28 180 Z" /><glyph glyph-name="Ugrave" unicode="" d="M102 379 l0 156 q0 68 -29 68 q-4 0 -12 -1.5 q-8 -1.5 -12 -1.5 q-13 0 -22 9.5 q-9 9.5 -9 23.5 q0 39 37 39 q14 0 35 -5 q30 -7 50 -7 q16 0 45 5.5 q29 5.5 42 5.5 q16 0 27 -11.5 q11 -11.5 11 -27.5 q0 -14 -9.5 -24 q-9.5 -10 -23.5 -10 q-6 0 -16.5 2.5 q-10.5 2.5 -16.5 2.5 q-24 0 -29 -76 q0 1 0 -99 l0 -145 q0 -107 11 -151 q8 -34 38 -55.5 q30 -21.5 68 -21.5 q38 0 67 21.5 q29 21.5 39 58.5 q11 41 11 148 l0 145 q0 100 0 99 q-5 76 -29 76 q-6 0 -16.5 -2.5 q-10.5 -2.5 -16.5 -2.5 q-14 0 -23.5 10 q-9.5 10 -9.5 24 q0 17 11.5 28 q11.5 11 27.5 11 q14 0 42 -5.5 q28 -5.5 42 -5.5 q15 0 44 6.5 q29 6.5 44 6.5 q35 0 35 -38 q0 -33 -32 -33 l-18 0 q-21 0 -26.5 -18 q-5.5 -18 -5.5 -90 l0 -93 q0 -26 1 -78.5 q1 -52.5 1 -78.5 q0 -114 -26 -167 q-21 -42 -66.5 -66 q-45.5 -24 -102.5 -24 q-52 0 -94 21.5 q-42 21.5 -60 56.5 q-26 52 -26 178 q0 45 0 45 q2 69 2 91 ZM361 705 q-5 0 -26 11 l-100 53 q-30 16 -38 23 q-20 16 -20 37 q0 17 11.5 29.5 q11.5 12.5 26.5 12.5 q23 0 49 -24 l71 -66 q9 -8 29 -25 q20 -17 20 -30 q0 -21 -23 -21 Z" /><glyph glyph-name="Uacute" unicode="" d="M102 379 l0 156 q0 68 -29 68 q-4 0 -12 -1.5 q-8 -1.5 -12 -1.5 q-13 0 -22 9.5 q-9 9.5 -9 23.5 q0 39 37 39 q14 0 35 -5 q30 -7 50 -7 q16 0 45 5.5 q29 5.5 42 5.5 q16 0 27 -11.5 q11 -11.5 11 -27.5 q0 -14 -9.5 -24 q-9.5 -10 -23.5 -10 q-6 0 -16.5 2.5 q-10.5 2.5 -16.5 2.5 q-24 0 -29 -76 q0 1 0 -99 l0 -145 q0 -107 11 -151 q8 -34 38 -55.5 q30 -21.5 68 -21.5 q38 0 67 21.5 q29 21.5 39 58.5 q11 41 11 148 l0 145 q0 100 0 99 q-5 76 -29 76 q-6 0 -16.5 -2.5 q-10.5 -2.5 -16.5 -2.5 q-14 0 -23.5 10 q-9.5 10 -9.5 24 q0 17 11.5 28 q11.5 11 27.5 11 q14 0 42 -5.5 q28 -5.5 42 -5.5 q15 0 44 6.5 q29 6.5 44 6.5 q35 0 35 -38 q0 -33 -32 -33 l-18 0 q-21 0 -26.5 -18 q-5.5 -18 -5.5 -90 l0 -93 q0 -26 1 -78.5 q1 -52.5 1 -78.5 q0 -114 -26 -167 q-21 -42 -66.5 -66 q-45.5 -24 -102.5 -24 q-52 0 -94 21.5 q-42 21.5 -60 56.5 q-26 52 -26 178 q0 45 0 45 q2 69 2 91 ZM225 781 l72 66 q26 24 49 24 q15 0 26.5 -12.5 q11.5 -12.5 11.5 -29.5 q0 -17 -11.5 -29 q-11.5 -12 -47.5 -31 l-100 -53 q-21 -11 -26 -11 q-22 0 -22 20 q0 14 18 31 q15 13 30 25 Z" /><glyph glyph-name="Ucircumflex" unicode="" d="M102 379 l0 156 q0 68 -29 68 q-4 0 -12 -1.5 q-8 -1.5 -12 -1.5 q-13 0 -22 9.5 q-9 9.5 -9 23.5 q0 39 37 39 q14 0 35 -5 q30 -7 50 -7 q16 0 45 5.5 q29 5.5 42 5.5 q16 0 27 -11.5 q11 -11.5 11 -27.5 q0 -14 -9.5 -24 q-9.5 -10 -23.5 -10 q-6 0 -16.5 2.5 q-10.5 2.5 -16.5 2.5 q-24 0 -29 -76 q0 1 0 -99 l0 -145 q0 -107 11 -151 q8 -34 38 -55.5 q30 -21.5 68 -21.5 q38 0 67 21.5 q29 21.5 39 58.5 q11 41 11 148 l0 145 q0 100 0 99 q-5 76 -29 76 q-6 0 -16.5 -2.5 q-10.5 -2.5 -16.5 -2.5 q-14 0 -23.5 10 q-9.5 10 -9.5 24 q0 17 11.5 28 q11.5 11 27.5 11 q14 0 42 -5.5 q28 -5.5 42 -5.5 q15 0 44 6.5 q29 6.5 44 6.5 q35 0 35 -38 q0 -33 -32 -33 l-18 0 q-21 0 -26.5 -18 q-5.5 -18 -5.5 -90 l0 -93 q0 -26 1 -78.5 q1 -52.5 1 -78.5 q0 -114 -26 -167 q-21 -42 -66.5 -66 q-45.5 -24 -102.5 -24 q-52 0 -94 21.5 q-42 21.5 -60 56.5 q-26 52 -26 178 q0 45 0 45 q2 69 2 91 ZM413 728 l-127 54 l-125 -54 q-8 -2 -11 -2 q-16 0 -16 13 q0 7 9 15 l13 11 l106 95 q13 12 25 12 q12 0 25 -12 l119 -106 q9 -8 9 -15 q0 -13 -16 -13 q-3 0 -11 2 Z" /><glyph glyph-name="Udieresis" unicode="" d="M102 379 l0 156 q0 68 -29 68 q-4 0 -12 -1.5 q-8 -1.5 -12 -1.5 q-13 0 -22 9.5 q-9 9.5 -9 23.5 q0 39 37 39 q14 0 35 -5 q30 -7 50 -7 q16 0 45 5.5 q29 5.5 42 5.5 q16 0 27 -11.5 q11 -11.5 11 -27.5 q0 -14 -9.5 -24 q-9.5 -10 -23.5 -10 q-6 0 -16.5 2.5 q-10.5 2.5 -16.5 2.5 q-24 0 -29 -76 q0 1 0 -99 l0 -145 q0 -107 11 -151 q8 -34 38 -55.5 q30 -21.5 68 -21.5 q38 0 67 21.5 q29 21.5 39 58.5 q11 41 11 148 l0 145 q0 100 0 99 q-5 76 -29 76 q-6 0 -16.5 -2.5 q-10.5 -2.5 -16.5 -2.5 q-14 0 -23.5 10 q-9.5 10 -9.5 24 q0 17 11.5 28 q11.5 11 27.5 11 q14 0 42 -5.5 q28 -5.5 42 -5.5 q15 0 44 6.5 q29 6.5 44 6.5 q35 0 35 -38 q0 -33 -32 -33 l-18 0 q-21 0 -26.5 -18 q-5.5 -18 -5.5 -90 l0 -93 q0 -26 1 -78.5 q1 -52.5 1 -78.5 q0 -114 -26 -167 q-21 -42 -66.5 -66 q-45.5 -24 -102.5 -24 q-52 0 -94 21.5 q-42 21.5 -60 56.5 q-26 52 -26 178 q0 45 0 45 q2 69 2 91 ZM209 726 q-20 0 -34 17 q-14 17 -14 42 q0 26 13.5 43 q13.5 17 34.5 17 q21 0 34.5 -16.5 q13.5 -16.5 13.5 -42.5 q0 -26 -13.5 -43 q-13.5 -17 -34.5 -17 ZM365 726 q-20 0 -34 17 q-14 17 -14 42 q0 26 13.5 43 q13.5 17 34.5 17 q21 0 34.5 -16.5 q13.5 -16.5 13.5 -42.5 q0 -26 -13.5 -43 q-13.5 -17 -34.5 -17 Z" /><glyph glyph-name="Thorn" unicode="" d="M91 64 q4 0 7 1 l1 0 l1 1 q2 1 4 2 l2 2 l1 2 l1 1 q2 4 4 8 q2 6 3 12 q0 3 1 7 q3 16 4 12 l0 83 l0 43 l0 77 q3 107 39 215 q14 0 35 1 q-1 -36 -1 -96 q-2 -9 -2 -21 l0 -153 q0 -25 2 -33 q0 -50 1 -83 q-2 -3 -3 -12 q2 -25 6 -41 q5 -25 20 -28 q1 0 3 0 l1 0 q4 0 18 2 q4 1 11 2 l3 0 l1 0 q13 -1 22 -10 q10 -9 10 -23 q0 -17 -11 -28 q-11 -11 -26 -12 q-4 0 -32 5 q-8 1 -18 3 q-3 1 -7 1 q-12 2 -25 3 l-8 0 l-3 0 l-5 0 q-17 -1 -42 -6 q-31 -6 -45 -6 l-1 0 q-16 0 -27 11 q-9 10 -10 24 l0 5 l0 5 q2 23 23 27 q4 1 9 1 l5 0 q6 -1 10 -2 q16 -2 18 -2 q4 0 7 1 l1 0 l1 1 q2 1 4 2 l2 2 l1 2 l1 1 q2 4 4 8 q2 6 3 12 q0 4 1 7 q3 27 4 95 l0 103 l0 17 l0 113 q0 116 -5 145.5 q-5 29.5 -24 29.5 q-5 0 -16 -2.5 q-11 -2.5 -17 -2.5 q-32 0 -32 34 q0 39 38 39 q15 0 45 -5.5 q30 -5.5 45 -5.5 q16 0 47 5.5 q31 5.5 47 5.5 q39 0 39 -39 q0 -34 -33 -34 q-3 0 -14 2.5 q-11 2.5 -19 2.5 q-19 0 -24 -30 q-2 -13 -3 -42 q20 1 46 3 q28 2 65 2 q83 0 127.5 -50 q44.5 -50 44.5 -143 q0 -119 -78 -164 q-47 -27 -137 -27 l-50 0 q-14 0 -18 -6 l0 -1 q1 -37 3 -52 l0 -1 q7 -25 20 -28 q1 0 3 0 q2 0 18 2 q4 1 12 2 l3 0 l1 0 q14 0 23.5 -9.5 q9.5 -9.5 9.5 -23.5 q0 -17 -11 -28.5 q-11 -11.5 -27 -11.5 l-1 0 q-3 0 -31 5 q-7 1 -16 3 q-4 1 -9 1 q-10 2 -25 3 l-8 0 l-3 0 l-5 0 q-16 -1 -44 -6 q-31 -6 -44 -6 q-16 1 -26 11 q-10 10 -11 24 l0 5 l0 5 q2 23 23 27 q4 1 9 1 l5 0 q6 -1 10 -2 q16 -2 18 -2 ZM276 471 q-50 0 -68 -12 q-11 -7 -15 -24 l0 -7 l0 -190 l0 -10 q1 -2 1 -3 q4 -4 17 -4 q33 -3 59 -3 q136 0 136 123 q0 68 -31 99 q-31 31 -99 31 ZM191 135 q0 -1 0 -2 q0 -1 0 -3 l0 5 Z" /><glyph glyph-name="germandbls" unicode="" d="M346 -8 q-35 0 -81 36 q-3 -36 -29 -36 q-33 0 -33 49 q0 11 2 36 q3 37 3 47 q0 12 -2.5 35 q-2.5 23 -2.5 35 q0 39 33 39 q32 0 32 -42 q0 -7 -1 -10 q-1 -13 -1 -28 q0 -37 20 -65 q20 -28 47 -28 q28 0 47.5 27 q19.5 27 19.5 66 q0 69 -89 139 q-42 33 -55.5 51.5 q-13.5 18.5 -13.5 42.5 q0 34 45.5 80.5 q45.5 46.5 45.5 78.5 q0 27 -21 45.5 q-21 18.5 -50 18.5 q-81 0 -95 -95 q-4 -30 -6 -63 q-3 -59 -3 -76 l1 -279 q0 -31 4 -73 l0 -7 q0 -21 -19 -21 q-7 0 -19 4 q-15 3 -29 3 q-8 0 -23 -3.5 q-15 -3.5 -22 -3.5 q-13 0 -22.5 10.5 q-9.5 10.5 -9.5 24.5 q0 32 30 32 q6 0 10 -1 l6 0 q23 0 24 34 q0 16 1 52 q1 27 1 73 l0 145 q0 53 -21 53 l-7 0 q-9 -2 -13 -2 q-31 0 -31 32 q0 35 33 35 q11 0 16 -1.5 q5 -1.5 13 -1.5 q16 0 17 27 q4 77 49.5 123.5 q45.5 46.5 116.5 46.5 q62 0 102 -36 q40 -36 40 -93 q0 -62 -56 -118 q-27 -27 -27 -37 q0 -16 32 -38 q69 -48 96 -99 q20 -37 20 -96 q0 -70 -36.5 -119 q-36.5 -49 -88.5 -49 Z" /><glyph glyph-name="agrave" unicode="" d="M354 -13 q-57 0 -73 60 q-43 -60 -115 -60 q-58 0 -95.5 41 q-37.5 41 -37.5 105 q0 82 51 116 q36 24 111 34 q43 6 59 22.5 q16 16.5 16 55.5 q0 81 -69 81 q-18 0 -41 -10 q-26 -12 -26 -29 q0 -5 6 -15 q12 -19 12 -36 q0 -43 -45 -43 q-52 0 -52 65 q0 55 41.5 91.5 q41.5 36.5 104.5 36.5 q42 0 76 -17 q38 -20 52 -56 q11 -30 11 -101 l1 -245 q1 -29 17 -29 q22 0 22 71 q0 13 -1 19 l0 10 q0 43 29 43 q33 0 33 -57 q0 -87 -19 -120 q-19 -33 -68 -33 ZM273 565 q-5 0 -18 6 l-88 40 q-37 17 -37 48 q0 19 10.5 32 q10.5 13 26.5 13 q17 0 43 -26 l66 -67 q14 -14 14 -28 q0 -18 -17 -18 ZM269 149 q4 23 5 90 q-28 -12 -55 -17 l-45 -8 q-73 -13 -73 -83 q0 -36 20.5 -58 q20.5 -22 53.5 -22 q35 0 61 27 q26 27 33 71 Z" /><glyph glyph-name="aacute" unicode="" d="M354 -13 q-57 0 -73 60 q-43 -60 -115 -60 q-58 0 -95.5 41 q-37.5 41 -37.5 105 q0 82 51 116 q36 24 111 34 q43 6 59 22.5 q16 16.5 16 55.5 q0 81 -69 81 q-18 0 -41 -10 q-26 -12 -26 -29 q0 -5 6 -15 q12 -19 12 -36 q0 -43 -45 -43 q-52 0 -52 65 q0 55 41.5 91.5 q41.5 36.5 104.5 36.5 q42 0 76 -17 q38 -20 52 -56 q11 -30 11 -101 l1 -245 q1 -29 17 -29 q22 0 22 71 q0 13 -1 19 l0 10 q0 43 29 43 q33 0 33 -57 q0 -87 -19 -120 q-19 -33 -68 -33 ZM130 583 q0 14 14 28 l66 67 q26 26 44 26 q16 0 26.5 -13 q10.5 -13 10.5 -32 q0 -31 -38 -48 l-87 -40 q-13 -6 -19 -6 q-17 0 -17 18 ZM269 149 q4 23 5 90 q-28 -12 -55 -17 l-45 -8 q-73 -13 -73 -83 q0 -36 20.5 -58 q20.5 -22 53.5 -22 q35 0 61 27 q26 27 33 71 Z" /><glyph glyph-name="acircumflex" unicode="" d="M354 -13 q-57 0 -73 60 q-43 -60 -115 -60 q-58 0 -95.5 41 q-37.5 41 -37.5 105 q0 82 51 116 q36 24 111 34 q43 6 59 22.5 q16 16.5 16 55.5 q0 81 -69 81 q-18 0 -41 -10 q-26 -12 -26 -29 q0 -5 6 -15 q12 -19 12 -36 q0 -43 -45 -43 q-52 0 -52 65 q0 55 41.5 91.5 q41.5 36.5 104.5 36.5 q42 0 76 -17 q38 -20 52 -56 q11 -30 11 -101 l1 -245 q1 -29 17 -29 q22 0 22 71 q0 13 -1 19 l0 10 q0 43 29 43 q33 0 33 -57 q0 -87 -19 -120 q-19 -33 -68 -33 ZM307 570 l-96 43 l-94 -43 q-9 -4 -18 -4 q-20 0 -20 14 q0 11 12 21 l102 87 q11 9 19 9 q6 0 17 -9 l101 -87 q11 -9 11 -18 q0 -17 -18 -17 q-7 0 -16 4 ZM269 149 q4 23 5 90 q-28 -12 -55 -17 l-45 -8 q-73 -13 -73 -83 q0 -36 20.5 -58 q20.5 -22 53.5 -22 q35 0 61 27 q26 27 33 71 Z" /><glyph glyph-name="atilde" unicode="" d="M354 -13 q-57 0 -73 60 q-43 -60 -115 -60 q-58 0 -95.5 41 q-37.5 41 -37.5 105 q0 82 51 116 q36 24 111 34 q43 6 59 22.5 q16 16.5 16 55.5 q0 81 -69 81 q-18 0 -41 -10 q-26 -12 -26 -29 q0 -5 6 -15 q12 -19 12 -36 q0 -43 -45 -43 q-52 0 -52 65 q0 55 41.5 91.5 q41.5 36.5 104.5 36.5 q42 0 76 -17 q38 -20 52 -56 q11 -30 11 -101 l1 -245 q1 -29 17 -29 q22 0 22 71 q0 13 -1 19 l0 10 q0 43 29 43 q33 0 33 -57 q0 -87 -19 -120 q-19 -33 -68 -33 ZM300 648 q17 0 26 10 l18 21 q6 7 15 7 q15 0 15 -15 q0 -24 -26.5 -62 q-26.5 -38 -67.5 -38 q-28 0 -73 20 l-39 17 q-14 6 -28 6 q-24 0 -50 -25 q-10 -10 -16 -10 q-14 0 -14 16 q0 15 19 50 q25 45 68 45 q22 0 79 -21 q15 -6 40 -15 q18 -6 34 -6 ZM269 149 q4 23 5 90 q-28 -12 -55 -17 l-45 -8 q-73 -13 -73 -83 q0 -36 20.5 -58 q20.5 -22 53.5 -22 q35 0 61 27 q26 27 33 71 Z" /><glyph glyph-name="adieresis" unicode="" d="M354 -13 q-57 0 -73 60 q-43 -60 -115 -60 q-58 0 -95.5 41 q-37.5 41 -37.5 105 q0 82 51 116 q36 24 111 34 q43 6 59 22.5 q16 16.5 16 55.5 q0 81 -69 81 q-18 0 -41 -10 q-26 -12 -26 -29 q0 -5 6 -15 q12 -19 12 -36 q0 -43 -45 -43 q-52 0 -52 65 q0 55 41.5 91.5 q41.5 36.5 104.5 36.5 q42 0 76 -17 q38 -20 52 -56 q11 -30 11 -101 l1 -245 q1 -29 17 -29 q22 0 22 71 q0 13 -1 19 l0 10 q0 43 29 43 q33 0 33 -57 q0 -87 -19 -120 q-19 -33 -68 -33 ZM128 562 q-48 0 -48 60 q0 59 48 59 q49 0 49 -59 q0 -60 -49 -60 ZM284 562 q-49 0 -49 60 q0 59 49 59 q48 0 48 -59 q0 -60 -48 -60 ZM269 149 q4 23 5 90 q-28 -12 -55 -17 l-45 -8 q-73 -13 -73 -83 q0 -36 20.5 -58 q20.5 -22 53.5 -22 q35 0 61 27 q26 27 33 71 Z" /><glyph glyph-name="aring" unicode="" d="M354 -13 q-57 0 -73 60 q-43 -60 -115 -60 q-58 0 -95.5 41 q-37.5 41 -37.5 105 q0 82 51 116 q36 24 111 34 q43 6 59 22.5 q16 16.5 16 55.5 q0 81 -69 81 q-18 0 -41 -10 q-26 -12 -26 -29 q0 -5 6 -15 q12 -19 12 -36 q0 -43 -45 -43 q-52 0 -52 65 q0 55 41.5 91.5 q41.5 36.5 104.5 36.5 q42 0 76 -17 q38 -20 52 -56 q11 -30 11 -101 l1 -245 q1 -29 17 -29 q22 0 22 71 q0 13 -1 19 l0 10 q0 43 29 43 q33 0 33 -57 q0 -87 -19 -120 q-19 -33 -68 -33 ZM204 556 q-32 0 -53 23 q-21 23 -21 58 q0 35 21 57.5 q21 22.5 53 22.5 q32 0 52.5 -23 q20.5 -23 20.5 -58 q0 -35 -21 -57.5 q-21 -22.5 -52 -22.5 ZM269 149 q4 23 5 90 q-28 -12 -55 -17 l-45 -8 q-73 -13 -73 -83 q0 -36 20.5 -58 q20.5 -22 53.5 -22 q35 0 61 27 q26 27 33 71 ZM203 677 q-13 0 -22 -12 q-9 -12 -9 -28 q0 -17 9 -29 q9 -12 22 -12 q32 0 32 41 q0 17 -9.5 28.5 q-9.5 11.5 -22.5 11.5 Z" /><glyph glyph-name="ae" unicode="" d="M445 -13 q-96 0 -132 88 q-17 -40 -53.5 -64 q-36.5 -24 -80.5 -24 q-64 0 -105 42.5 q-41 42.5 -41 108.5 q0 163 190 163 l33 0 q14 0 18.5 5.5 q4.5 5.5 4.5 20.5 q0 52 -23 82 q-23 30 -63 30 q-24 0 -41 -13 q-20 -15 -20 -23 q0 -3 5 -10 q11 -16 11 -31 q0 -19 -14.5 -33 q-14.5 -14 -34.5 -14 q-45 0 -45 62 q0 52 41.5 88.5 q41.5 36.5 100.5 36.5 q88 0 128 -81 q42 81 127 81 q70 0 114 -60.5 q44 -60.5 44 -155.5 q0 -29 -4 -38 q-6 -17 -30 -17 l-201 0 q-26 0 -26 -21 q0 -71 26.5 -112.5 q26.5 -41.5 71.5 -41.5 q29 0 53 22 q24 22 32 56 q6 26 8 30 q7 20 33 20 q30 0 30 -39 q0 -63 -47.5 -110.5 q-47.5 -47.5 -109.5 -47.5 ZM369 296 l137 0 q22 0 27 7 q3 4 3 14 q0 48 -25 82 q-25 34 -61 34 q-37 0 -66.5 -37.5 q-29.5 -37.5 -29.5 -83.5 q0 -16 15 -16 ZM182 53 q42 0 69 38.5 q27 38.5 27 97.5 l0 25 q0 15 -4 19 q-4 4 -19 4 l-38 0 q-63 0 -90 -20.5 q-27 -20.5 -27 -69.5 q0 -43 22.5 -68.5 q22.5 -25.5 59.5 -25.5 Z" /><glyph glyph-name="ccedilla" unicode="" d="M333.5 51.5 q-35.5 -49.5 -101.5 -63.5 l-8 -25 q2 0 5 0 q3 1 4 1 q62 0 62 -65 q0 -32 -21.5 -52.5 q-21.5 -20.5 -55.5 -20.5 q-28 0 -48.5 13.5 q-20.5 13.5 -20.5 31.5 q0 21 21 21 q7 0 14 -6 l14 -12 q7 -6 16 -6 q11 0 19.5 9.5 q8.5 9.5 8.5 21.5 q0 23 -25 23 q-10 0 -13 -2 l-11 -7 q-2 -2 -7 -2 q-18 0 -18 15 q0 4 4 15 l17 47 q-73 12 -112.5 78 q-39.5 66 -39.5 176 q0 120 47.5 190 q47.5 70 129.5 70 q64 0 104.5 -43 q40.5 -43 40.5 -109 q0 -37 -16.5 -61 q-16.5 -24 -42.5 -24 q-20 0 -34.5 15.5 q-14.5 15.5 -14.5 37.5 q0 40 35 52 q-17 67 -71 67 q-49 0 -78 -54 q-29 -54 -29 -145 q0 -79 30 -130.5 q30 -51.5 76 -51.5 q31 0 56 29 q25 29 29 71 q3 28 6 36 q8 15 29 15 q35 0 35 -46 q0 -60 -35.5 -109.5 Z" /><glyph glyph-name="egrave" unicode="" d="M377 286 q0 -37 -5 -45.5 q-5 -8.5 -27 -8.5 l-199 0 q-24 0 -30 -4.5 q-6 -4.5 -6 -23.5 q0 -66 28 -107 q28 -41 74 -41 q29 0 52 19 q23 19 31 49 l9 34 q7 28 35 28 q32 0 32 -36 q0 -65 -48.5 -114 q-48.5 -49 -112.5 -49 q-79 0 -126 68.5 q-47 68.5 -47 184.5 q0 116 50 189 q50 73 130 73 q71 0 115.5 -60.5 q44.5 -60.5 44.5 -155.5 ZM270 565 q-6 0 -19 6 l-87 40 q-38 17 -38 48 q0 19 10.5 32 q10.5 13 26.5 13 q18 0 44 -26 l66 -67 q14 -14 14 -28 q0 -18 -17 -18 ZM115 316 q0 -18 26 -18 l126 0 q24 0 30 4 q6 4 6 20 q0 48 -26 80 q-26 32 -64 32 q-59 0 -85 -66 q-10 -25 -12 -43 q-1 -4 -1 -9 Z" /><glyph glyph-name="eacute" unicode="" d="M377 286 q0 -37 -5 -45.5 q-5 -8.5 -27 -8.5 l-199 0 q-24 0 -30 -4.5 q-6 -4.5 -6 -23.5 q0 -66 28 -107 q28 -41 74 -41 q29 0 52 19 q23 19 31 49 l9 34 q7 28 35 28 q32 0 32 -36 q0 -65 -48.5 -114 q-48.5 -49 -112.5 -49 q-79 0 -126 68.5 q-47 68.5 -47 184.5 q0 116 50 189 q50 73 130 73 q71 0 115.5 -60.5 q44.5 -60.5 44.5 -155.5 ZM127 583 q0 14 14 28 l66 67 q26 26 43 26 q16 0 26.5 -13 q10.5 -13 10.5 -32 q0 -31 -37 -48 l-87 -40 q-13 -6 -19 -6 q-17 0 -17 18 ZM115 316 q0 -18 26 -18 l126 0 q24 0 30 4 q6 4 6 20 q0 48 -26 80 q-26 32 -64 32 q-59 0 -85 -66 q-10 -25 -12 -43 q-1 -4 -1 -9 Z" /><glyph glyph-name="ecircumflex" unicode="" d="M377 286 q0 -37 -5 -45.5 q-5 -8.5 -27 -8.5 l-199 0 q-24 0 -30 -4.5 q-6 -4.5 -6 -23.5 q0 -66 28 -107 q28 -41 74 -41 q29 0 52 19 q23 19 31 49 l9 34 q7 28 35 28 q32 0 32 -36 q0 -65 -48.5 -114 q-48.5 -49 -112.5 -49 q-79 0 -126 68.5 q-47 68.5 -47 184.5 q0 116 50 189 q50 73 130 73 q71 0 115.5 -60.5 q44.5 -60.5 44.5 -155.5 ZM317 570 l-96 43 l-94 -43 q-9 -4 -18 -4 q-20 0 -20 14 q0 11 12 21 l102 87 q11 9 19 9 q6 0 17 -9 l101 -87 q11 -9 11 -18 q0 -17 -18 -17 q-7 0 -16 4 ZM115 316 q0 -18 26 -18 l126 0 q24 0 30 4 q6 4 6 20 q0 48 -26 80 q-26 32 -64 32 q-59 0 -85 -66 q-10 -25 -12 -43 q-1 -4 -1 -9 Z" /><glyph glyph-name="edieresis" unicode="" d="M377 286 q0 -37 -5 -45.5 q-5 -8.5 -27 -8.5 l-199 0 q-24 0 -30 -4.5 q-6 -4.5 -6 -23.5 q0 -66 28 -107 q28 -41 74 -41 q29 0 52 19 q23 19 31 49 l9 34 q7 28 35 28 q32 0 32 -36 q0 -65 -48.5 -114 q-48.5 -49 -112.5 -49 q-79 0 -126 68.5 q-47 68.5 -47 184.5 q0 116 50 189 q50 73 130 73 q71 0 115.5 -60.5 q44.5 -60.5 44.5 -155.5 ZM141 562 q-48 0 -48 60 q0 59 48 59 q49 0 49 -59 q0 -60 -49 -60 ZM297 562 q-49 0 -49 60 q0 59 49 59 q48 0 48 -59 q0 -60 -48 -60 ZM115 316 q0 -18 26 -18 l126 0 q24 0 30 4 q6 4 6 20 q0 48 -26 80 q-26 32 -64 32 q-59 0 -85 -66 q-10 -25 -12 -43 q-1 -4 -1 -9 Z" /><glyph glyph-name="igrave" unicode="" d="M169 316 l0 -160 q0 -64 4 -79 q4 -15 19 -15 l9 0 q5 1 12 1 q11 0 19 -10 q8 -10 8 -24 q0 -34 -32 -34 q-12 0 -38 4 q-26 4 -40 4 q-13 0 -36.5 -4 q-23.5 -4 -32.5 -4 q-31 0 -31 34 q0 34 27 34 q7 0 11 -1 l9 0 q15 0 18 13.5 q3 13.5 5 80.5 l1 43 l0 72 q0 6 -1 29.5 q-1 23.5 -1 42.5 l-1 52 q-1 34 -24 34 l-6 0 q-2 0 -5 0 q-4 -1 -5 -1 q-30 0 -30 32 q0 14 10 25 q10 11 23 11 q3 0 23 -5 q12 -3 20 -3 q5 0 38 6 q8 1 13 1 q17 0 17 -24 l0 -12 q0 -2 -1 -40 l-2 -103 ZM173 565 q-5 0 -18 6 l-88 40 q-37 17 -37 48 q0 19 10.5 32 q10.5 13 26.5 13 q18 0 44 -26 l66 -67 q14 -14 14 -28 q0 -18 -18 -18 Z" /><glyph glyph-name="iacute" unicode="" d="M166 316 l0 -64 l1 -53 l0 -43 q0 -65 3.5 -79.5 q3.5 -14.5 19.5 -14.5 l9 0 q4 1 11 1 q27 0 27 -34 q0 -34 -32 -34 q-13 0 -39 4 q-26 4 -39 4 q-13 0 -35.5 -4 q-22.5 -4 -32.5 -4 q-32 0 -32 34 q0 34 28 34 q6 0 11 -1 l9 0 q16 0 19.5 14.5 q3.5 14.5 3.5 79.5 l0 115 q0 6 -1 29.5 q-1 23.5 -1 42.5 q-1 55 -1 52 q0 34 -24 34 l-6 0 q-1 0 -5 0 q-3 -1 -5 -1 q-29 0 -29 32 q0 14 9.5 25 q9.5 11 22.5 11 q3 0 23 -5 q12 -3 21 -3 q9 0 26 3.5 q17 3.5 25 3.5 q16 0 16 -24 l0 -12 q0 -2 0 -14 q-1 -14 -1 -26 l-2 -103 ZM38 583 q0 14 14 28 l66 67 q26 26 43 26 q16 0 26.5 -13 q10.5 -13 10.5 -32 q0 -31 -37 -48 l-87 -40 q-13 -6 -19 -6 q-17 0 -17 18 Z" /><glyph glyph-name="icircumflex" unicode="" d="M169 316 l0 -160 q0 -64 4 -79 q4 -15 19 -15 l9 0 q5 1 12 1 q11 0 19 -10 q8 -10 8 -24 q0 -34 -32 -34 q-12 0 -38 4 q-26 4 -40 4 q-13 0 -36.5 -4 q-23.5 -4 -32.5 -4 q-31 0 -31 34 q0 34 27 34 q7 0 11 -1 l9 0 q15 0 18 13.5 q3 13.5 5 80.5 l1 43 l0 72 q0 6 -1 29.5 q-1 23.5 -1 42.5 l-1 52 q-1 34 -24 34 l-6 0 q-2 0 -5 0 q-4 -1 -5 -1 q-30 0 -30 32 q0 14 10 25 q10 11 23 11 q3 0 23 -5 q12 -3 20 -3 q5 0 38 6 q8 1 13 1 q17 0 17 -24 l0 -12 q0 -2 -1 -40 l-2 -103 ZM198 570 l-77 43 l-75 -43 q-7 -4 -15 -4 q-16 0 -16 14 q0 10 10 21 l82 87 q8 9 15 9 q6 0 14 -9 l81 -87 q9 -10 9 -18 q0 -17 -15 -17 q-6 0 -13 4 Z" /><glyph glyph-name="idieresis" unicode="" d="M166 316 l0 -64 l1 -53 l0 -43 q0 -65 3.5 -79.5 q3.5 -14.5 19.5 -14.5 l9 0 q4 1 11 1 q27 0 27 -34 q0 -34 -32 -34 q-13 0 -39 4 q-26 4 -39 4 q-13 0 -35.5 -4 q-22.5 -4 -32.5 -4 q-32 0 -32 34 q0 34 28 34 q6 0 11 -1 l9 0 q16 0 19.5 14.5 q3.5 14.5 3.5 79.5 l0 115 q0 6 -1 29.5 q-1 23.5 -1 42.5 q-1 55 -1 52 q0 34 -24 34 l-6 0 q-1 0 -5 0 q-3 -1 -5 -1 q-29 0 -29 32 q0 14 9.5 25 q9.5 11 22.5 11 q3 0 23 -5 q12 -3 21 -3 q9 0 26 3.5 q17 3.5 25 3.5 q16 0 16 -24 l0 -12 q0 -2 0 -14 q-1 -14 -1 -26 l-2 -103 ZM45 535 q-20 0 -33.5 17 q-13.5 17 -13.5 43 q0 23 15 41.5 q15 18.5 34 18.5 q20 0 34.5 -17.5 q14.5 -17.5 14.5 -41.5 q0 -25 -15 -43 q-15 -18 -36 -18 ZM176 535 q-20 0 -33.5 17.5 q-13.5 17.5 -13.5 42.5 q0 23 15.5 41.5 q15.5 18.5 34.5 18.5 q20 0 34 -17.5 q14 -17.5 14 -41.5 q0 -25 -15 -43 q-15 -18 -36 -18 Z" /><glyph glyph-name="eth" unicode="" d="M304 587 q-9 -9 -16 -17 q23 -28 43 -64 q37 -64 50 -125 q11 -54 11 -122 q0 0 0 0 q1 -25 1 -52 q0 -100 -48 -159 q-48 -59 -130 -59 q-82 0 -130 59 q-48 59 -48 159 q0 101 48 160.5 q48 59.5 130 59.5 q50 0 87 -22 q-12 41 -31 79 q-11 22 -24 42 q-18 -19 -19 -21 q-2 -3 -6 -7 q-28 -28 -53 -3 q-28 28 1 56 q3 3 9 8 q6 5 9 8 q9 8 16 15 q-35 38 -75 62 q-19 11 -19 22 q0 17 19 17 q17 0 53 -22 q33 -19 61 -44 q12 12 14 15 q5 4 12.5 14.5 q7.5 10.5 11.5 14.5 q25 25 51 -1 q25 -25 -5 -55 q-7 -6 -10 -8 l-13 -10 ZM215 370 q-49 0 -78 -44.5 q-29 -44.5 -29 -118.5 q0 -73 29 -117 q29 -44 78 -44 q49 0 78.5 44 q29.5 44 29.5 117 q0 74 -29.5 118.5 q-29.5 44.5 -78.5 44.5 Z" /><glyph glyph-name="ntilde" unicode="" d="M165 450 q43 52 117 52 q83 0 118 -57 q25 -41 25 -146 l0 -143 q0 -65 3.5 -79.5 q3.5 -14.5 19.5 -14.5 l9 0 q5 1 11 1 q27 0 27 -34 q0 -34 -31 -34 q-11 0 -33.5 4 q-22.5 4 -34.5 4 q-13 0 -38.5 -4 q-25.5 -4 -38.5 -4 q-32 0 -32 34 q0 14 8 24 q8 10 19 10 q7 0 12 -1 l9 0 q15 0 17.5 13.5 q2.5 13.5 4.5 80.5 l1 43 l0 98 q0 76 -21 109 q-21 33 -68 33 q-48 0 -76 -43.5 q-28 -43.5 -28 -117.5 l0 -122 q0 -65 3.5 -79.5 q3.5 -14.5 19.5 -14.5 l9 0 q4 1 11 1 q27 0 27 -34 q0 -34 -31 -34 q-8 0 -38 6 q-20 2 -37 2 q-21 0 -38 -3 q-28 -5 -33 -5 q-31 0 -31 34 q0 34 28 34 q6 0 11 -1 l9 0 q16 0 19.5 14.5 q3.5 14.5 3.5 79.5 l0 176 q0 63 -4.5 80 q-4.5 17 -20.5 17 q-1 0 -2 0 q-1 -1 -2 -1 q-4 0 -9 0 q-6 -1 -7 -1 q-27 0 -27 32 q0 15 9 25.5 q9 10.5 22 10.5 q8 0 24.5 -3 q16.5 -3 25.5 -3 q15 0 22 2 q14 4 20 4 q16 0 16 -23 l0 -22 ZM334 635 q14 0 22 9 l15 17 q8 6 13 6 q12 0 12 -13 q0 -19 -22 -51 q-22 -32 -57 -32 q-22 0 -60 17 q-13 6 -33 14 q-13 5 -24 5 q-19 0 -40 -21 q-8 -8 -14 -8 q-11 0 -11 13 q0 15 15 42 q21 37 57 37 q20 0 66 -18 q13 -4 33 -12 q17 -5 28 -5 Z" /><glyph glyph-name="ograve" unicode="" d="M215 -13 q-82 0 -130 69.5 q-48 69.5 -48 187.5 q0 118 48 188 q48 70 130 70 q82 0 130 -70 q48 -70 48 -188 q0 -118 -48 -187.5 q-48 -69.5 -130 -69.5 ZM268 565 q-6 0 -19 6 l-87 40 q-38 17 -38 48 q0 45 38 45 q17 0 43 -26 l66 -67 q14 -14 14 -28 q0 -18 -17 -18 ZM215 435 q-49 0 -78 -52.5 q-29 -52.5 -29 -138.5 q0 -86 29 -138 q29 -52 78 -52 q49 0 78.5 52 q29.5 52 29.5 138 q0 86 -29.5 138.5 q-29.5 52.5 -78.5 52.5 Z" /><glyph glyph-name="oacute" unicode="" d="M215 -13 q-82 0 -130 69.5 q-48 69.5 -48 187.5 q0 118 48 188 q48 70 130 70 q82 0 130 -70 q48 -70 48 -188 q0 -118 -48 -187.5 q-48 -69.5 -130 -69.5 ZM135 583 q0 14 14 28 l66 67 q26 26 43 26 q16 0 26.5 -13 q10.5 -13 10.5 -32 q0 -31 -37 -48 l-87 -40 q-13 -6 -19 -6 q-17 0 -17 18 ZM215 435 q-49 0 -78 -52.5 q-29 -52.5 -29 -138.5 q0 -86 29 -138 q29 -52 78 -52 q49 0 78.5 52 q29.5 52 29.5 138 q0 86 -29.5 138.5 q-29.5 52.5 -78.5 52.5 Z" /><glyph glyph-name="ocircumflex" unicode="" d="M215 -13 q-82 0 -130 69.5 q-48 69.5 -48 187.5 q0 118 48 188 q48 70 130 70 q82 0 130 -70 q48 -70 48 -188 q0 -118 -48 -187.5 q-48 -69.5 -130 -69.5 ZM312 570 l-97 43 l-93 -43 q-9 -4 -18 -4 q-21 0 -21 14 q0 10 13 21 l102 87 q11 9 19 9 q6 0 17 -9 l101 -87 q11 -9 11 -18 q0 -17 -18 -17 q-7 0 -16 4 ZM215 435 q-49 0 -78 -52.5 q-29 -52.5 -29 -138.5 q0 -86 29 -138 q29 -52 78 -52 q49 0 78.5 52 q29.5 52 29.5 138 q0 86 -29.5 138.5 q-29.5 52.5 -78.5 52.5 Z" /><glyph glyph-name="otilde" unicode="" d="M215 -13 q-82 0 -130 69.5 q-48 69.5 -48 187.5 q0 118 48 188 q48 70 130 70 q82 0 130 -70 q48 -70 48 -188 q0 -118 -48 -187.5 q-48 -69.5 -130 -69.5 ZM298 648 q17 0 26 10 l18 21 q6 7 15 7 q15 0 15 -15 q0 -24 -26.5 -62 q-26.5 -38 -67.5 -38 q-28 0 -73 20 l-39 17 q-14 6 -28 6 q-24 0 -50 -25 q-10 -10 -16 -10 q-14 0 -14 16 q0 15 19 50 q25 45 68 45 q22 0 79 -21 q15 -6 40 -15 q18 -6 34 -6 ZM215 435 q-49 0 -78 -52.5 q-29 -52.5 -29 -138.5 q0 -86 29 -138 q29 -52 78 -52 q49 0 78.5 52 q29.5 52 29.5 138 q0 86 -29.5 138.5 q-29.5 52.5 -78.5 52.5 Z" /><glyph glyph-name="odieresis" unicode="" d="M215 -13 q-82 0 -130 69.5 q-48 69.5 -48 187.5 q0 118 48 188 q48 70 130 70 q82 0 130 -70 q48 -70 48 -188 q0 -118 -48 -187.5 q-48 -69.5 -130 -69.5 ZM137 562 q-48 0 -48 60 q0 59 48 59 q49 0 49 -59 q0 -60 -49 -60 ZM293 562 q-49 0 -49 60 q0 59 49 59 q48 0 48 -59 q0 -60 -48 -60 ZM215 435 q-49 0 -78 -52.5 q-29 -52.5 -29 -138.5 q0 -86 29 -138 q29 -52 78 -52 q49 0 78.5 52 q29.5 52 29.5 138 q0 86 -29.5 138.5 q-29.5 52.5 -78.5 52.5 Z" /><glyph glyph-name="divide" unicode="" d="M203 516 q0 19 14 32.5 q14 13.5 33 13.5 q19 0 33 -13.5 q14 -13.5 14 -32.5 q0 -19 -14 -33 q-14 -14 -33 -14 q-19 0 -33 14 q-14 14 -14 33 ZM203 149 q0 20 14 33.5 q14 13.5 33 13.5 q20 0 33.5 -14 q13.5 -14 13.5 -33 q0 -19 -14 -33 q-14 -14 -33 -14 q-19 0 -33 14 q-14 14 -14 33 ZM33 301 l0 62 l434 0 l0 -62 l-434 0 Z" /><glyph glyph-name="oslash" unicode="" d="M372 529 l-37 -74 q60 -73 60 -201 q0 -121 -50 -194 q-50 -73 -132 -73 q-51 0 -85 25 l-29 -64 q-8 -17 -29 -17 q-27 0 -27 14 q0 2 4 12 l45 85 q-32 47 -44 86.5 q-12 39.5 -12 102.5 q0 122 52 196.5 q52 74.5 137 74.5 q33 0 71 -17 l19 44 q9 22 32 22 q27 0 27 -15 q0 -3 -2 -7 ZM128 116 l139 306 q-21 13 -42 13 q-53 0 -85 -55 q-32 -55 -32 -147 q0 -67 20 -117 ZM299 383 l-141 -306 q29 -21 53 -21 q51 0 81.5 52.5 q30.5 52.5 30.5 140.5 q0 78 -24 134 Z" /><glyph glyph-name="ugrave" unicode="" d="M332 46 q-44 -59 -112 -59 q-38 0 -74 21 q-36 21 -51.5 53.5 q-15.5 32.5 -16.5 71.5 q0 0 0 66 l0 133 q0 63 -4.5 80 q-4.5 17 -20.5 17 q-1 0 -2 0 q-1 -1 -2 -1 q-4 0 -9 0 q-6 -1 -7 -1 q-27 0 -27 32 q0 15 9 25.5 q9 10.5 22 10.5 q8 0 24.5 -3 q16.5 -3 24.5 -3 q15 0 23 2 l17 4 q2 0 4 1 q2 0 3 0 q16 0 16 -18 l0 -10 l-1 -43 l-2 -130 l0 -86 q0 -83 20 -117.5 q20 -34.5 68 -34.5 q98 0 98 186 l0 28 q0 44 -1 72 l-2 52 q-1 34 -24 34 l-6 0 q-1 0 -5 0 q-3 -1 -5 -1 q-29 0 -29 32 q0 14 9.5 25 q9.5 11 22.5 11 q6 0 21.5 -4 q15.5 -4 23.5 -4 q8 0 24 3.5 q16 3.5 24 3.5 q16 0 16 -27 q0 -14 0 -14 q-2 -31 -2 -80 l0 -215 q0 -63 4 -80 q4 -17 20 -17 l5 0 q7 1 16 1 q26 0 26 -32 q0 -35 -30 -35 q-8 0 -25 3 q-17 3 -26 3 q-7 0 -20.5 -3.5 q-13.5 -3.5 -19.5 -3.5 q-17 0 -17 30 l0 21 ZM278 565 q-6 0 -19 6 l-87 40 q-37 17 -37 48 q0 19 10.5 32 q10.5 13 26.5 13 q17 0 43 -26 l66 -67 q14 -14 14 -28 q0 -18 -17 -18 Z" /><glyph glyph-name="uacute" unicode="" d="M332 46 q-44 -59 -112 -59 q-38 0 -74 21 q-36 21 -51.5 53.5 q-15.5 32.5 -16.5 71.5 q0 0 0 66 l0 133 q0 63 -4.5 80 q-4.5 17 -20.5 17 q-1 0 -2 0 q-1 -1 -2 -1 q-4 0 -9 0 q-6 -1 -7 -1 q-27 0 -27 32 q0 15 9 25.5 q9 10.5 22 10.5 q8 0 24.5 -3 q16.5 -3 24.5 -3 q15 0 23 2 l17 4 q2 0 4 1 q2 0 3 0 q16 0 16 -18 l0 -10 l-1 -43 l-2 -130 l0 -86 q0 -83 20 -117.5 q20 -34.5 68 -34.5 q98 0 98 186 l0 28 q0 44 -1 72 l-2 52 q-1 34 -24 34 l-6 0 q-1 0 -5 0 q-3 -1 -5 -1 q-29 0 -29 32 q0 14 9.5 25 q9.5 11 22.5 11 q6 0 21.5 -4 q15.5 -4 23.5 -4 q8 0 24 3.5 q16 3.5 24 3.5 q16 0 16 -27 q0 -14 0 -14 q-2 -31 -2 -80 l0 -215 q0 -63 4 -80 q4 -17 20 -17 l5 0 q7 1 16 1 q26 0 26 -32 q0 -35 -30 -35 q-8 0 -25 3 q-17 3 -26 3 q-7 0 -20.5 -3.5 q-13.5 -3.5 -19.5 -3.5 q-17 0 -17 30 l0 21 ZM155 583 q0 14 14 28 l66 67 q26 26 43 26 q38 0 38 -45 q0 -31 -38 -48 l-87 -40 q-13 -6 -19 -6 q-17 0 -17 18 Z" /><glyph glyph-name="ucircumflex" unicode="" d="M332 46 q-44 -59 -112 -59 q-38 0 -74 21 q-36 21 -51.5 53.5 q-15.5 32.5 -16.5 71.5 q0 0 0 66 l0 133 q0 63 -4.5 80 q-4.5 17 -20.5 17 q-1 0 -2 0 q-1 -1 -2 -1 q-4 0 -9 0 q-6 -1 -7 -1 q-27 0 -27 32 q0 15 9 25.5 q9 10.5 22 10.5 q8 0 24.5 -3 q16.5 -3 24.5 -3 q15 0 23 2 l17 4 q2 0 4 1 q2 0 3 0 q16 0 16 -18 l0 -10 l-1 -43 l-2 -130 l0 -86 q0 -83 20 -117.5 q20 -34.5 68 -34.5 q98 0 98 186 l0 28 q0 44 -1 72 l-2 52 q-1 34 -24 34 l-6 0 q-1 0 -5 0 q-3 -1 -5 -1 q-29 0 -29 32 q0 14 9.5 25 q9.5 11 22.5 11 q6 0 21.5 -4 q15.5 -4 23.5 -4 q8 0 24 3.5 q16 3.5 24 3.5 q16 0 16 -27 q0 -14 0 -14 q-2 -31 -2 -80 l0 -215 q0 -63 4 -80 q4 -17 20 -17 l5 0 q7 1 16 1 q26 0 26 -32 q0 -35 -30 -35 q-8 0 -25 3 q-17 3 -26 3 q-7 0 -20.5 -3.5 q-13.5 -3.5 -19.5 -3.5 q-17 0 -17 30 l0 21 ZM322 570 l-96 43 l-94 -43 q-9 -4 -18 -4 q-20 0 -20 14 q0 11 12 21 l102 87 q11 9 19 9 q6 0 17 -9 l101 -87 q11 -9 11 -18 q0 -17 -18 -17 q-7 0 -16 4 Z" /><glyph glyph-name="udieresis" unicode="" d="M332 46 q-44 -59 -112 -59 q-38 0 -74 21 q-36 21 -51.5 53.5 q-15.5 32.5 -16.5 71.5 q0 0 0 66 l0 133 q0 63 -4.5 80 q-4.5 17 -20.5 17 q-1 0 -2 0 q-1 -1 -2 -1 q-4 0 -9 0 q-6 -1 -7 -1 q-27 0 -27 32 q0 15 9 25.5 q9 10.5 22 10.5 q8 0 24.5 -3 q16.5 -3 24.5 -3 q15 0 23 2 l17 4 q2 0 4 1 q2 0 3 0 q16 0 16 -18 l0 -10 l-1 -43 l-2 -130 l0 -86 q0 -83 20 -117.5 q20 -34.5 68 -34.5 q98 0 98 186 l0 28 q0 44 -1 72 l-2 52 q-1 34 -24 34 l-6 0 q-1 0 -5 0 q-3 -1 -5 -1 q-29 0 -29 32 q0 14 9.5 25 q9.5 11 22.5 11 q6 0 21.5 -4 q15.5 -4 23.5 -4 q8 0 24 3.5 q16 3.5 24 3.5 q16 0 16 -27 q0 -14 0 -14 q-2 -31 -2 -80 l0 -215 q0 -63 4 -80 q4 -17 20 -17 l5 0 q7 1 16 1 q26 0 26 -32 q0 -35 -30 -35 q-8 0 -25 3 q-17 3 -26 3 q-7 0 -20.5 -3.5 q-13.5 -3.5 -19.5 -3.5 q-17 0 -17 30 l0 21 ZM144 562 q-48 0 -48 60 q0 59 48 59 q49 0 49 -59 q0 -60 -49 -60 ZM299 562 q-48 0 -48 60 q0 59 49 59 q48 0 48 -59 q0 -60 -49 -60 Z" /><glyph glyph-name="thorn" unicode="" d="M135 641 q0 -9 -1 -194 q58 55 113 55 q72 0 115 -67.5 q43 -67.5 43 -182.5 q0 -119 -47 -192 q-47 -73 -124 -73 q-53 0 -97 44 l0 -36 q0 -65 3.5 -79.5 q3.5 -14.5 19.5 -14.5 l9 0 q10 2 11 2 q27 0 27 -35 q0 -34 -31 -34 q-9 0 -33 5 q-24 5 -38 5 q-22 0 -44.5 -5 q-22.5 -5 -28.5 -5 q-31 0 -31 34 q0 35 27 35 q3 0 11 -2 l9 0 q16 0 19.5 14.5 q3.5 14.5 3.5 79.5 l0 337 q0 63 -4 168 q-4 105 -20 105 q-1 0 -2 0 q-2 -1 -3 -1 q-4 0 -9 0 q-5 -1 -7 -1 q-26 0 -26 32 q0 36 30 36 q8 0 22 -3 q14 -3 29 -3 q8 0 31 5 q5 1 9 1 q14 0 14 -30 ZM232 55 q47 0 74 52.5 q27 52.5 27 144.5 q0 85 -26 132 q-26 47 -72 47 q-47 0 -72.5 -49.5 q-25.5 -49.5 -25.5 -140.5 q0 -88 25 -137 q25 -49 70 -49 Z" /><glyph glyph-name="ydieresis" unicode="" d="M166 378 l77 -297 l77 320 q3 13 3 17 q0 13 -18 13 q-4 0 -6 -1 q-6 -1 -14 -1 q-12 0 -21 10 q-9 10 -9 23 q0 33 34 33 q13 0 39.5 -3 q26.5 -3 40.5 -3 q13 0 37.5 3 q24.5 3 36.5 3 q32 0 32 -33 q0 -32 -33 -32 q-1 0 -5 1 q-4 0 -6 0 q-10 2 -12 2 q-15 0 -24 -31 l-12 -41 l-84 -290 q-43 -147 -86.5 -207 q-43.5 -60 -109.5 -60 q-47 0 -78.5 31 q-31.5 31 -31.5 78 q0 29 15 48.5 q15 19.5 38 19.5 q20 0 32.5 -14 q12.5 -14 12.5 -36 q0 -27 -19 -41 q12 -16 33 -16 q35 0 63.5 40.5 q28.5 40.5 28.5 91.5 q0 12 -4 25 l-10 32 l-97 326 q-13 42 -38 42 l-6 0 q-9 -2 -15 -2 q-11 0 -19.5 10 q-8.5 10 -8.5 24 q0 32 32 32 q13 0 39 -5 q26 -5 40 -5 q14 0 41.5 5 q27.5 5 40.5 5 q31 0 31 -32 q0 -35 -29 -35 q-7 0 -13 1 q-2 1 -7 1 q-15 0 -15 -14 q0 -7 1 -11 l6 -27 ZM162 562 q-48 0 -48 60 q0 59 48 59 q49 0 49 -59 q0 -60 -49 -60 ZM318 562 q-49 0 -49 60 q0 59 49 59 q48 0 48 -59 q0 -60 -48 -60 Z" /><glyph glyph-name="Dcroat" unicode="&#x110;" d="M91 64 q19 0 24 29.5 q5 29.5 5 144.5 l0 78 q-25 -1 -27 -1 q-4 -1 -10 -1 q-39 0 -39 36 q0 39 40 39 q4 0 12 -1 q8 -1 12 -1 q6 0 12 -1 l0 42 q0 116 -5 145.5 q-5 29.5 -24 29.5 q-5 0 -16 -2.5 q-11 -2.5 -17 -2.5 q-32 0 -32 34 q0 39 38 39 q18 0 57 -7 q22 -4 46 -4 q17 0 74 5 q23 2 49 2 q240 0 240 -335 q0 -335 -248 -335 q-21 0 -57 4 q-54 6 -72 6 q-16 0 -43 -5 q-38 -7 -47 -7 q-16 0 -26.5 11.5 q-10.5 11.5 -10.5 28.5 q0 33 32 33 q10 0 15 -2 q16 -2 18 -2 ZM204 319 l-13 0 l1 -202 q1 -38 29 -48 q15 -6 62 -6 q82 0 122 61 q53 81 53 214 q0 107 -32.5 173.5 q-32.5 66.5 -90.5 80.5 q-34 8 -71 8 q-51 0 -64 -20 q-9 -13 -9 -65 l0 -6 l0 -125 l12 0 q6 0 18.5 2 q12.5 2 18.5 2 q36 0 36 -37 q0 -35 -43 -35 q-9 0 -13 1 l-16 2 Z" /><glyph glyph-name="dcroat" unicode="&#x111;" d="M211 502 q54 0 95 -44 l-1 59 q0 15 -1 32 q-1 17 -1 20 q0 34 -24 34 l-6 0 q-3 -1 -10 -1 q-29 0 -29 32 q0 14 9.5 24.5 q9.5 10.5 22.5 10.5 q8 0 23.5 -3.5 q15.5 -3.5 23.5 -3.5 q9 0 27 3 q13 4 22 4 q16 0 16 -21 l0 -4 q0 -18 -1 -50 q-1 -39 -1 -60 l-1 -71 l-2 -73 l0 -231 q0 -53 0 -57 q5 -40 25 -40 l4 0 q8 1 16 1 q27 0 27 -32 q0 -35 -31 -35 q-6 0 -21 3 q-30 3 -29 3 q-11 0 -22 -3 q-14 -4 -20 -4 q-17 0 -17 24 q0 9 1 22 q-48 -54 -103 -54 q-73 0 -119.5 70 q-46.5 70 -46.5 181 q0 117 48.5 190.5 q48.5 73.5 125.5 73.5 ZM210 431 q-44 0 -71.5 -49.5 q-27.5 -49.5 -27.5 -129.5 l0 -8 q0 -88 25.5 -136.5 q25.5 -48.5 71.5 -48.5 q46 0 72 48.5 q26 48.5 26 134.5 q0 92 -20 135 q-25 54 -76 54 ZM374 516 q-107 -3 -111 -4 q-4 -1 -10 -1 q-39 0 -39 36 q0 39 40 39 q4 0 12 -1 q8 -1 12 -1 q87 -3 95 -3 q6 0 18.5 2 q12.5 2 18.5 2 q36 0 36 -37 q0 -35 -43 -35 q-9 0 -13 1 q-16 2 -16 2 Z" /><glyph glyph-name="Hbar" unicode="&#x126;" d="M524 456 l-34 0 l0 -317 q5 -75 29 -75 q2 0 18 2 q6 2 15 2 q14 0 23.5 -9.5 q9.5 -9.5 9.5 -23.5 q0 -17 -11 -28.5 q-11 -11.5 -28 -11.5 q-15 0 -47 6 q-32 6 -50 6 q-15 0 -45 -6 q-30 -6 -45 -6 q-16 0 -27 11.5 q-11 11.5 -11 28.5 q0 14 10 23.5 q10 9.5 23 9.5 q9 0 15 -2 q14 -2 18 -2 q24 0 29 75 l0 150 q0 18 -3.5 22.5 q-3.5 4.5 -16.5 4.5 q-5 1 -23 1 l-158 0 q-11 0 -14 -5 q-6 -6 -6 -42 l0 -131 q5 -75 29 -75 q2 0 18 2 q6 2 15 2 q14 0 23.5 -9.5 q9.5 -9.5 9.5 -23.5 q0 -17 -11 -28.5 q-11 -11.5 -27 -11.5 q-11 0 -49 7 q-27 5 -45 5 q-16 0 -47 -6 q-31 -6 -47 -6 q-16 0 -27 11.5 q-11 11.5 -11 28.5 q0 33 32 33 q10 0 15 -2 q16 -2 18 -2 q19 0 24 29.5 q5 29.5 5 144.5 l0 190 l0 25 q-46 -1 -47 -1 q-4 -1 -10 -1 q-39 0 -39 36 q0 39 40 39 q4 0 12 -1 q8 -1 12 -1 q16 0 31 -1 q-2 36 -4 50 q-5 30 -24 30 q-5 0 -16 -2.5 q-11 -2.5 -17 -2.5 q-32 0 -32 34 q0 39 38 39 q18 0 42 -5 q28 -6 60 -6 q15 0 43.5 5.5 q28.5 5.5 42.5 5.5 q16 0 27 -11.5 q11 -11.5 11 -27.5 q0 -14 -9.5 -24 q-9.5 -10 -23.5 -10 q-6 0 -16.5 2.5 q-10.5 2.5 -16.5 2.5 q-24 0 -29 -76 l0 -4 q68 0 119 -1 q8 0 57 1 q25 0 45 0 l0 4 q-5 76 -29 76 q-7 0 -18.5 -2.5 q-11.5 -2.5 -14.5 -2.5 q-14 0 -23.5 10 q-9.5 10 -9.5 24 q0 17 11.5 28 q11.5 11 27.5 11 q16 0 48.5 -5.5 q32.5 -5.5 49.5 -5.5 q16 0 46 5.5 q30 5.5 43 5.5 q16 0 27 -11.5 q11 -11.5 11 -27.5 q0 -14 -9.5 -24 q-9.5 -10 -23.5 -10 q-6 0 -16.5 2.5 q-10.5 2.5 -16.5 2.5 q-24 0 -29 -76 l0 -3 q66 1 70 1 q36 0 36 -37 q0 -35 -43 -35 q-9 0 -13 1 l-16 2 ZM195 420 l1 -13 q1 -19 9 -23 q8 -4 45 -4 l116 0 q34 0 42 6.5 q8 6.5 8 33.5 l0 35 q-140 -1 -221 -2 l0 -33 Z" /><glyph glyph-name="hbar" unicode="&#x127;" d="M164 506 l-13 0 l0 -61 q53 57 118 57 q80 0 118 -62 q26 -40 26 -124 l0 -160 q0 -65 3.5 -79.5 q3.5 -14.5 19.5 -14.5 l9 0 q5 1 11 1 q27 0 27 -34 q0 -34 -32 -34 q-12 0 -33 4 q-26 5 -52 5 q-5 0 -32 -3 q-25 -6 -29 -6 q-31 0 -31 34 q0 34 27 34 q7 0 11 -1 l9 0 q16 0 19.5 14.5 q3.5 14.5 3.5 79.5 l0 146 q0 132 -86 132 q-64 0 -86 -58 q-19 -50 -19 -110 l0 -14 l1 -53 l0 -43 q0 -65 3.5 -79.5 q3.5 -14.5 19.5 -14.5 l9 0 q4 1 11 1 q27 0 27 -34 q0 -34 -32 -34 q-8 0 -35 6 q-20 2 -34 2 q-13 0 -38.5 -4 q-25.5 -4 -38.5 -4 q-32 0 -32 34 q0 34 27 34 q7 0 11 -1 l9 0 q15 0 18 13.5 q3 13.5 5 80.5 l1 43 l0 245 q0 7 -1 29 q-1 17 -1 30 q-28 -1 -30 -1 q-4 -1 -10 -1 q-39 0 -39 36 q0 39 40 39 q4 0 12 -1 q8 -1 12 -1 q7 -1 14 -1 q-3 30 -24 30 l-6 0 q-4 -1 -10 -1 q-30 0 -30 32 q0 14 9.5 24.5 q9.5 10.5 22.5 10.5 q8 0 23 -3.5 q15 -3.5 23 -3.5 q15 0 27 3.5 q12 3.5 20 3.5 q16 0 16 -25 l0 -2 l-1 -71 l11 0 q6 0 18.5 2 q12.5 2 18.5 2 q36 0 36 -37 q0 -35 -43 -35 q-9 0 -13 1 l-16 2 Z" /><glyph glyph-name="dotlessi" unicode="&#x131;" d="M169 316 l0 -160 q0 -64 4 -79 q4 -15 19 -15 l9 0 q5 1 12 1 q11 0 19 -10 q8 -10 8 -24 q0 -34 -32 -34 q-12 0 -38 4 q-26 4 -40 4 q-13 0 -36.5 -4 q-23.5 -4 -32.5 -4 q-31 0 -31 34 q0 34 27 34 q7 0 11 -1 l9 0 q15 0 18 13.5 q3 13.5 5 80.5 l1 43 l0 72 q0 6 -1 29.5 q-1 23.5 -1 42.5 l-1 52 q-1 34 -24 34 l-6 0 q-2 0 -5 0 q-4 -1 -5 -1 q-30 0 -30 32 q0 14 10 25 q10 11 23 11 q3 0 23 -5 q12 -3 20 -3 q5 0 38 6 q8 1 13 1 q17 0 17 -24 l0 -12 q0 -2 -1 -40 l-2 -103 Z" /><glyph glyph-name="jcircumflex" unicode="&#x135;" d="M6 -81 q0 -17 -11 -35 q19 -14 37 -14 q39 0 52.5 33 q13.5 33 13.5 130 l0 238 q0 6 -1 29.5 q-1 23.5 -1 42.5 q-1 55 -1 52 q0 34 -24 34 l-6 0 q-1 0 -5 0 q-3 -1 -5 -1 q-29 0 -29 32 q0 14 9.5 25 q9.5 11 22.5 11 q3 0 23 -5 q12 -3 21 -3 q15 0 30 4 q11 3 20 3 q17 0 17 -23 l0 -10 q-1 -3 -1 -34 l-1 -70 l0 -325 q0 -118 -29 -165 q-39 -62 -110 -62 q-46 0 -76.5 27.5 q-30.5 27.5 -30.5 68.5 q0 25 14 42.5 q14 17.5 34 17.5 q16 0 26.5 -12.5 q10.5 -12.5 10.5 -30.5 ZM207 570 l-96 43 l-94 -43 q-9 -4 -18 -4 q-21 0 -21 14 q0 10 13 21 l102 87 q11 9 19 9 q6 0 17 -9 l101 -87 q11 -9 11 -18 q0 -17 -18 -17 q-7 0 -16 4 Z" /><glyph glyph-name="kgreenlandic" unicode="&#x138;" d="M153 302 l0 -41 l114 129 q16 18 16 27 q0 12 -14 12 q-3 0 -9 -1 q-6 -1 -9 -1 q-32 0 -32 31 q0 15 10 26 q10 11 24 11 q12 0 39 -4.5 q27 -4.5 42 -4.5 q13 0 38.5 4.5 q25.5 4.5 37.5 4.5 q32 0 32 -32 q0 -14 -8.5 -25 q-8.5 -11 -20.5 -10 l-14 1 q-1 1 -3 1 q-16 0 -51 -40 l-65 -74 q-11 -13 -11 -19 q0 -3 7 -16 l11 -20 l99 -176 q14 -25 34 -25 l4 0 q8 1 14 1 q27 0 27 -33 q0 -33 -31 -33 q-6 0 -27 4 q-21 4 -53 4 q-13 0 -37 -4 q-24 -4 -36 -4 q-32 0 -32 36 q0 32 30 32 q7 0 12 -1 l4 0 q13 0 13 11 q0 6 -5 15 l-11 20 l-51 96 q-19 35 -28 35 q-5 0 -12 -8 l-9 -10 l-25 -28 q-14 -16 -14 -34 l0 -58 l1 -15 q2 -24 16 -24 l9 0 q6 2 13 2 q27 0 27 -30 q0 -15 -11 -27 q-11 -12 -24 -12 q-11 0 -33 4 q-22 4 -34 4 q-13 0 -37 -4 q-24 -4 -35 -4 q-31 0 -31 34 q0 34 27 34 q7 0 11 -1 l9 0 q15 0 18 13.5 q3 13.5 5 80.5 l1 43 l0 71 q0 7 -1 29 q-1 26 -1 44 l-1 52 q-1 34 -24 34 l-6 0 q-4 -1 -10 -1 q-30 0 -30 32 q0 14 9.5 24.5 q9.5 10.5 22.5 10.5 q7 0 24 -5 q7 -2 21 -2 q16 0 29 3 q18 4 20 4 q18 0 18 -23 q0 -8 -1 -12 l0 -35 q0 -21 -1 -61.5 q-1 -40.5 -1 -61.5 Z" /><glyph glyph-name="Lslash" unicode="&#x141;" d="M190 428 l0 -24 q3 2 6 5 q10 8 15 11 q31 18 49 -14 q18 -31 -19 -52 q-8 -4 -11 -5 l-16 -7 q-14 -9 -24 -15 l1 -165 q1 -71 8.5 -85.5 q7.5 -14.5 43.5 -14.5 l63 0 q65 0 84 15 q19 15 19 65 l0 4 q0 23 -1 44 q0 13 -1 27 q-1 14 -1 15 q0 47 35 47 q34 0 34 -41 q0 -10 -2 -35 q-5 -61 -5 -80 q0 -24 2 -47 q3 -35 3 -37 q0 -42 -43 -42 q-13 0 -41 3 q-11 1 -67 4 q-60 3 -77 3 q-82 0 -122 -6 q-40 -6 -59 -6 q-38 0 -38 40 q0 33 32 33 q10 0 15 -2 q16 -2 18 -2 q19 0 24 29.5 q5 29.5 5 144.5 l0 45 q-4 -2 -8 -5 q-34 -20 -52 11 q-20 34 16 53 q3 2 10.5 5.5 q7.5 3.5 10.5 5.5 q12 6 23 12 l0 63 q0 116 -5 145.5 q-5 29.5 -24 29.5 q-5 0 -16 -2.5 q-11 -2.5 -17 -2.5 q-32 0 -32 34 q0 39 38 39 q14 0 44 -5.5 q30 -5.5 47 -5.5 q16 0 46 5.5 q30 5.5 45 5.5 q16 0 27 -11.5 q11 -11.5 11 -27.5 q0 -34 -33 -34 q-3 0 -14 2.5 q-11 2.5 -19 2.5 q-19 0 -23.5 -29.5 q-4.5 -29.5 -4.5 -145.5 Z" /><glyph glyph-name="lslash" unicode="&#x142;" d="M179 342 q-15 -9 -26 -17 l0 -169 q0 -65 3.5 -79.5 q3.5 -14.5 19.5 -14.5 l9 0 q5 1 12 1 q11 0 19 -10 q8 -10 8 -24 q0 -34 -33 -34 q-8 0 -41 5 q-20 3 -44 3 q-17 0 -33 -3 q-26 -5 -28 -5 q-31 0 -31 34 q0 34 27 34 q7 0 11 -1 l9 0 q15 0 18 13.5 q3 13.5 5 80.5 l1 43 l0 84 q-4 -2 -8 -5 q-34 -20 -52 11 q-20 34 16 53 q3 2 10.5 5.5 q7.5 3.5 10.5 5.5 q12 6 23 12 l0 79 q0 7 -1 29 q-1 26 -1 44 l-1 52 q-1 34 -24 34 l-6 0 q-4 -1 -10 -1 q-30 0 -30 32 q0 14 9.5 24.5 q9.5 10.5 22.5 10.5 q7 0 24 -5 q10 -3 20 -3 q9 0 26.5 4 q17.5 4 24.5 4 q19 0 19 -22 l0 -13 q-1 -9 -2 -39 l-2 -62 l-1 -68 l0 -63 q3 3 8 7 q10 8 15 11 q31 18 49 -14 q18 -31 -19 -52 q-8 -4 -11 -5 l-16 -7 Z" /><glyph glyph-name="Eng" unicode="&#x14a;" d="M478 63 q0 -148 -29 -195 q-39 -62 -110 -62 q-46 0 -76.5 27.5 q-30.5 27.5 -30.5 68.5 q0 25 14 42.5 q14 17.5 34 17.5 q16 0 26.5 -12.5 q10.5 -12.5 10.5 -30.5 q0 -17 -11 -35 q19 -14 37 -14 q39 0 52 33 q10 24 13 94 q-31 11 -47 60 l-175 522 l0 -341 q0 -115 5 -144.5 q5 -29.5 24 -29.5 q3 0 17 2 q6 2 16 2 q32 0 32 -33 q0 -16 -11 -28 q-11 -12 -26 -12 q-4 0 -42 9 q-13 3 -43 3 q-25 0 -51 -5 q-37 -7 -44 -7 q-16 0 -26.5 11.5 q-10.5 11.5 -10.5 28.5 q0 33 32 33 q10 0 15 -2 q16 -2 18 -2 q19 0 24 29.5 q5 29.5 5 144.5 l0 190 q0 116 -5 145.5 q-5 29.5 -24 29.5 q-5 0 -16 -2.5 q-11 -2.5 -17 -2.5 q-32 0 -32 34 q0 17 10.5 28 q10.5 11 26.5 11 q11 0 38 -6 q22 -5 47 -5 q4 0 42 6 q9 1 15 1 q16 0 25 -27 l183 -543 l0 430 q-5 76 -29 76 q-6 0 -16.5 -2.5 q-10.5 -2.5 -16.5 -2.5 q-14 0 -23.5 10 q-9.5 10 -9.5 24 q0 16 11 27.5 q11 11.5 27 11.5 q13 0 45 -7 q18 -4 45 -4 q30 0 46 4 q29 7 40 7 q13 0 22.5 -11 q9.5 -11 9.5 -27 q0 -35 -30 -35 q-4 0 -13 1.5 q-9 1.5 -14 1.5 q-22 0 -25 -46 l-3 -49 l-1 -75 l0 -367 l0 -1 Z" /><glyph glyph-name="eng" unicode="&#x14b;" d="M425 33 l0 -18 l0 -15 l-1 0 q-4 -92 -28 -132 q-39 -62 -110 -62 q-46 0 -76.5 27.5 q-30.5 27.5 -30.5 68.5 q0 25 14 42.5 q14 17.5 34 17.5 q16 0 26.5 -12.5 q10.5 -12.5 10.5 -30.5 q0 -17 -11 -35 q19 -14 37 -14 q39 0 52.5 33 q13.5 33 13.5 130 l1 0 l1 166 l0 98 q0 76 -21 109 q-21 33 -68 33 q-48 0 -76 -43.5 q-28 -43.5 -28 -117.5 l0 -122 q0 -65 3.5 -79.5 q3.5 -14.5 19.5 -14.5 l9 0 q4 1 11 1 q27 0 27 -34 q0 -34 -31 -34 q-8 0 -38 6 q-20 2 -37 2 q-21 0 -38 -3 q-28 -5 -33 -5 q-31 0 -31 34 q0 34 28 34 q6 0 11 -1 l9 0 q16 0 19.5 14.5 q3.5 14.5 3.5 79.5 l0 176 q0 63 -4.5 80 q-4.5 17 -20.5 17 l-2 0 q-1 -1 -2 -1 l-9 0 q-6 -1 -7 -1 q-27 0 -27 32 q0 15 9 25.5 q9 10.5 22 10.5 q8 0 24.5 -3 q16.5 -3 25.5 -3 q15 0 22 2 q14 4 20 4 q16 0 16 -23 l0 -22 q43 52 117 52 q83 0 118 -57 q25 -41 25 -146 l0 -266 Z" /><glyph glyph-name="OE" unicode="&#x152;" d="M255 679 q76 0 141 -79 q0 9 -2 21 q-2 20 -2 24 q0 25 26 25 q5 0 34 -4 q29 -4 92 -4 q51 0 100 3 q33 2 52 2 q25 0 33.5 -10.5 q8.5 -10.5 8.5 -43.5 l0 -43 l-1 -44 q-1 -39 0 -51 q2 -27 2 -48 q0 -40 -32 -40 q-32 0 -32 45 q0 8 0 8 l2 38 q2 38 2 38 q0 53 -19.5 68.5 q-19.5 15.5 -83.5 15.5 l-58 0 q-34 0 -48.5 -15 q-14.5 -15 -14.5 -51 l0 -115 q0 -28 11 -32 q5 -2 15 -2 l36 0 q47 0 47 42 q0 16 -2 31 q-2 15 -2 28 q0 42 31 42 q29 0 29 -44 q0 5 -1 -10 l-4 -58 q-2 -29 -2 -55 q0 -31 2 -67 q1 -18 3 -38 q1 -15 1 -17 l0 -7 q0 -44 -30 -44 q-29 0 -29 39 l0 7 l3 25 q1 8 1 21 q0 33 -13 40 q-8 6 -31 6 l-40 0 q-17 0 -21 -7.5 q-4 -7.5 -4 -26.5 l1 -160 q1 -43 18 -55 q13 -9 56 -9 l59 0 q64 0 83 19.5 q19 19.5 19 84.5 q0 23 0 23 l-2 42 q0 47 33 47 q33 0 33 -36 q0 -2 -2 -17 q-8 -59 -8 -98 q0 -14 1.5 -42.5 q1.5 -28.5 1.5 -42.5 q0 -48 -38 -48 q-13 0 -42 3 q-48 5 -121 5 q-49 0 -97 -6 q-32 -4 -36 -4 q-28 0 -28 24 q0 2 2 24 q1 5 3 22 q-32 -45 -63 -63 q-31 -18 -75 -18 q-100 0 -156.5 92.5 q-56.5 92.5 -56.5 255.5 q0 155 59 249.5 q59 94.5 156 94.5 ZM257 607 q-66 0 -104 -72 q-38 -72 -38 -199 l0 -10 q0 -122 36.5 -195.5 q36.5 -73.5 97.5 -73.5 q65 0 103 77.5 q38 77.5 38 208.5 q0 119 -37 191.5 q-37 72.5 -96 72.5 Z" /><glyph glyph-name="oe" unicode="&#x153;" d="M489 -13 q-89 0 -136 87 q-52 -87 -141 -87 q-79 0 -127 71.5 q-48 71.5 -48 188.5 q0 116 49 185.5 q49 69.5 131 69.5 q88 0 136 -90 q50 90 137 90 q76 0 119.5 -59.5 q43.5 -59.5 43.5 -164.5 q0 -36 -7.5 -42 q-7.5 -6 -20.5 -6 l-209 0 q-22 0 -26 -6.5 q-4 -6.5 -4 -17.5 q0 -68 28.5 -110 q28.5 -42 74.5 -42 q27 0 51.5 19 q24.5 19 31.5 47 l9 35 q7 29 33 29 q33 0 33 -37 q0 -62 -48.5 -111 q-48.5 -49 -109.5 -49 ZM392 312 q0 -16 26 -16 l136 0 q26 0 26 18 q0 51 -25.5 85 q-25.5 34 -64.5 34 q-38 0 -68 -37.5 q-30 -37.5 -30 -83.5 ZM322 240 q0 15 0 15 q-2 84 -30.5 132 q-28.5 48 -75.5 48 q-49 0 -78.5 -53 q-29.5 -53 -29.5 -139 q0 -85 29 -136 q29 -51 77 -51 q49 0 78.5 50 q29.5 50 29.5 134 Z" /><glyph glyph-name="Tbar" unicode="&#x166;" d="M294 276 l-11 0 l0 -38 q0 -115 5 -144.5 q5 -29.5 24 -29.5 q3 0 17 2 q6 2 16 2 q32 0 32 -33 q0 -17 -11 -28.5 q-11 -11.5 -27 -11.5 q-9 0 -47 7 q-27 5 -47 5 q-16 0 -46.5 -6 q-30.5 -6 -44.5 -6 q-16 0 -27 11.5 q-11 11.5 -11 28.5 q0 33 33 33 q9 0 15 -2 q14 -2 18 -2 q19 0 23.5 29.5 q4.5 29.5 4.5 144.5 l0 35 q-25 -1 -27 -1 q-4 -1 -10 -1 q-39 0 -39 36 q0 39 40 39 q4 0 12 -1 q8 -1 12 -1 q6 0 12 -1 l0 130 q0 84 -8 105 q-8 21 -42 21 q-35 0 -48 -10.5 q-13 -10.5 -13 -39.5 q0 -10 2 -52 q2 -42 2 -56 q0 -53 -36 -53 q-34 0 -34 44 q0 -1 2 31 q3 48 3 74 q0 16 -2 58 q-1 21 -1 38 q0 35 30 35 q9 0 44 -4 q35 -4 106 -4 l30 0 l58 1 q43 1 62 3 q34 4 63 4 q30 0 30 -34 q0 -6 -2 -33 q-3 -41 -3 -71 q0 -23 2 -65 q1 -21 1 -31 q0 -45 -35 -45 q-33 0 -33 50 q0 3 1 19.5 q1 16.5 1 26.5 l2 60 q0 31 -11.5 43 q-11.5 12 -40.5 12 q-42 0 -52 -22 q-5 -12 -5 -59 l0 -178 l10 0 q6 0 18.5 2 q12.5 2 18.5 2 q36 0 36 -37 q0 -35 -43 -35 q-9 0 -13 1 l-16 2 Z" /><glyph glyph-name="tbar" unicode="&#x167;" d="M164 276 q-14 -1 -26 -1 l0 -78 q0 -69 2 -81 q8 -55 42 -55 q45 0 45 105 l0 10 q0 33 3 42 q6 23 29 23 q34 0 34 -60 q0 -22 -4 -64 q-12 -128 -112 -128 q-78 0 -98 71 q-9 32 -9 105 l0 108 q-16 -1 -17 -1 q-4 -1 -10 -1 q-39 0 -39 36 q0 39 40 39 q4 0 12 -1 q8 -1 12 -1 l2 0 l0 59 q0 22 -12 22 q-1 0 -11 -2 l-5 0 q-4 -1 -6 -1 q-30 0 -30 38 q0 35 30 35 q4 0 11 -1 q7 -1 11 -1 q10 0 11 15 l1 12 l0 79 q0 44 34 44 q34 0 34 -44 l0 -80 q0 -17 3.5 -21.5 q3.5 -4.5 17.5 -4.5 q17 0 31 1 l33 2 q40 0 40 -36 q0 -38 -40 -38 q-11 0 -33.5 3.5 q-22.5 3.5 -33.5 3.5 q-12 0 -15 -5.5 q-3 -5.5 -3 -25.5 l0 -57 q21 0 25 0 q6 0 18.5 2 q12.5 2 18.5 2 q36 0 36 -37 q0 -35 -43 -35 q-9 0 -13 1 l-16 2 Z" /><glyph glyph-name="Ydieresis" unicode="&#x178;" d="M183 537 l89 -205 l102 232 q7 17 7 21 q0 13 -12 13 q-5 0 -14 -2 q-9 -2 -14 -2 q-29 0 -29 38 q0 39 34 39 q10 0 36.5 -5.5 q26.5 -5.5 42.5 -5.5 q25 0 53 6 q24 5 35 5 q35 0 35 -39 q0 -37 -32 -37 q-7 0 -16 3 q-12 2 -14 2 q-14 0 -26 -21 l-10 -18 l-11 -24 l-126 -266 q-5 -10 -6 -26 q-2 -9 -2 -23 l0 -104 q0 -56 31 -56 q11 0 19 2 q14 2 19 2 q31 0 31 -33 q0 -16 -10 -27 q-10 -11 -25 -11 q-17 0 -49.5 6 q-32.5 6 -49.5 6 q-19 0 -54.5 -6 q-35.5 -6 -52.5 -6 q-37 0 -37 38 q0 33 33 33 q7 0 20.5 -2 q13.5 -2 19.5 -2 q26 0 32 63 q2 15 2 77 l0 23 q0 25 -7 42 q-3 7 -13 30 l-132 278 q-13 24 -28 24 q-5 0 -14.5 -1.5 q-9.5 -1.5 -14.5 -1.5 q-31 0 -31 37 q0 39 36 39 q11 0 41 -6 q30 -6 48 -6 q16 0 42 5.5 q26 5.5 36 5.5 q15 0 25.5 -11.5 q10.5 -11.5 10.5 -28.5 q0 -37 -33 -37 q-5 0 -13.5 2 q-8.5 2 -12.5 2 q-10 0 -10 -12 q0 -1 1 -4.5 q1 -3.5 8 -20.5 l10 -24 ZM196 726 q-20 0 -34 17 q-14 17 -14 42 q0 26 14 43 q14 17 34 17 q21 0 34.5 -16.5 q13.5 -16.5 13.5 -42.5 q0 -26 -13.5 -43 q-13.5 -17 -34.5 -17 ZM352 726 q-20 0 -34 17 q-14 17 -14 42 q0 26 14 43 q14 17 34 17 q21 0 34.5 -16.5 q13.5 -16.5 13.5 -42.5 q0 -26 -13.5 -43 q-13.5 -17 -34.5 -17 Z" /><glyph glyph-name="slong" unicode="&#x17f;" d="M167 392 l-1 -22 l0 -220 q0 -61 4 -75 q4 -14 21 -14 l9 0 q18 2 20 2 q31 0 31 -33 q0 -35 -32 -35 q-8 0 -38 5 q-18 3 -54 3 q-12 0 -35 -4 q-23 -4 -34 -4 q-31 0 -31 34 q0 34 28 34 q6 0 11 -1 l9 0 q16 0 19.5 14.5 q3.5 14.5 3.5 79.5 l0 233 q0 36 -13 36 q-7 0 -11 -1 q-4 -1 -10 -1 q-39 0 -39 36 q0 39 40 39 q4 0 12 -1 q8 -1 12 -1 q13 0 13 16 q0 65 15 102 q13 32 42.5 52 q29.5 20 66.5 20 q44 0 76 -27 q32 -27 32 -65 q0 -23 -12.5 -39 q-12.5 -16 -31.5 -16 q-17 0 -29 12.5 q-12 12.5 -12 30.5 q0 12 9 26 q-14 15 -29 15 q-26 0 -43.5 -26.5 q-17.5 -26.5 -17.5 -67.5 q0 -27 -1 -137 Z" /><glyph glyph-name="Oopen" unicode="&#x186;" d="M249 -11 q-81 0 -126 65 l0 -10 q0 -33 -6.5 -44.5 q-6.5 -11.5 -23.5 -11.5 q-30 0 -30 38 q0 19 3.5 57.5 q3.5 38.5 3.5 58.5 q0 23 -3 58 q-3 35 -3 52 q0 43 34 43 q32 0 32 -39 q0 -8 -1 -23 q-1 -15 -1 -23 q0 -69 32 -110 q32 -41 85 -41 q71 0 112.5 73.5 q41.5 73.5 41.5 198.5 q0 124 -43 200.5 q-43 76.5 -114 76.5 q-55 0 -89.5 -40 q-34.5 -40 -40.5 -110 q-3 -35 -11 -46.5 q-8 -11.5 -29 -11.5 q-32 0 -32 38 q0 103 59.5 172.5 q59.5 69.5 147.5 69.5 q104 0 165.5 -94 q61.5 -94 61.5 -255 q0 -153 -62 -247.5 q-62 -94.5 -163 -94.5 Z" /><glyph glyph-name="Dafrican" unicode="&#x189;" d="M91 64 q19 0 24 29.5 q5 29.5 5 144.5 l0 78 q-25 -1 -27 -1 q-4 -1 -10 -1 q-39 0 -39 36 q0 39 40 39 q4 0 12 -1 q8 -1 12 -1 q6 0 12 -1 l0 42 q0 116 -5 145.5 q-5 29.5 -24 29.5 q-5 0 -16 -2.5 q-11 -2.5 -17 -2.5 q-32 0 -32 34 q0 39 38 39 q18 0 57 -7 q22 -4 46 -4 q17 0 74 5 q23 2 49 2 q240 0 240 -335 q0 -335 -248 -335 q-21 0 -57 4 q-54 6 -72 6 q-16 0 -43 -5 q-38 -7 -47 -7 q-16 0 -26.5 11.5 q-10.5 11.5 -10.5 28.5 q0 33 32 33 q10 0 15 -2 q16 -2 18 -2 ZM204 319 l-13 0 l1 -202 q1 -38 29 -48 q15 -6 62 -6 q82 0 122 61 q53 81 53 214 q0 107 -32.5 173.5 q-32.5 66.5 -90.5 80.5 q-34 8 -71 8 q-51 0 -64 -20 q-9 -13 -9 -65 l0 -6 l0 -125 l12 0 q6 0 18.5 2 q12.5 2 18.5 2 q36 0 36 -37 q0 -35 -43 -35 q-9 0 -13 1 l-16 2 Z" /><glyph glyph-name="Ereversed" unicode="&#x18e;" d="M317 169 l0 62 l-1 21 q-1 28 -19 28 l-39 0 q-41 0 -41 -47 q0 -15 1 -25 q3 -29 3 -33 q0 -38 -30 -38 q-29 0 -29 47 q0 21 0 21 l4 54 q2 27 2 55 q0 49 -5 98 q-2 20 -2 26 q0 40 30 40 q29 0 29 -41 q0 -9 -1.5 -28 q-1.5 -19 -1.5 -28 q0 -42 38 -42 l42 0 q14 0 17 6 q3 6 3 34 l0 70 q0 11 -1 51 q0 0 0 48 q0 34 -17 43 q-12 6 -49 6 l-54 0 q-66 0 -87 -18 q-21 -18 -21 -75 q0 -13 2 -38.5 q2 -25.5 2 -38.5 q0 -45 -33 -45 q-33 0 -33 40 q0 7 2 33 q6 34 6 78 q0 14 -1 43 q-1 29 -1 43 q0 27 11 37.5 q11 10.5 40 10.5 q17 0 43 -3 q43 -5 126 -5 q7 0 81 3 q41 2 58 4 q36 5 52 5 q39 0 39 -40 q0 -33 -32 -33 q-10 0 -15 2 q-16 2 -18 2 q-19 0 -24 -29.5 q-5 -29.5 -5 -144.5 l0 -190 q0 -116 5 -145.5 q5 -29.5 24 -29.5 q5 0 16 2.5 q11 2.5 17 2.5 q32 0 32 -34 q0 -39 -38 -39 q-9 0 -66 8 q-21 3 -52 3 q-79 0 -168 -7 q-25 -2 -65 -2 q-44 0 -49 23 q-2 10 -2 28 q0 14 1 37 q3 64 0 104 l-3 48 q0 41 31 41 q34 0 34 -45 q0 -13 -1 -37.5 q-1 -24.5 -1 -37.5 q0 -55 16 -74 q16 -19 62 -19 l77 0 q40 0 49.5 17 q9.5 17 9.5 87 Z" /><glyph glyph-name="florin" unicode="&#x192;" d="M57 -41 q0 -31 -34 -49 q14 -18 37 -18 q46 0 71 55 q22 48 39 147 l61 354 q0 18 -16 18 q-4 0 -11.5 -2 q-7.5 -2 -11.5 -2 q-11 0 -19 10.5 q-8 10.5 -8 24.5 q0 39 36 39 q8 0 16.5 -2.5 q8.5 -2.5 13.5 -2.5 q15 0 18 21 l6 37 q11 68 45.5 107.5 q34.5 39.5 83.5 39.5 q47 0 80 -29 q33 -29 33 -70 q0 -58 -46 -58 q-16 0 -28 12 q-12 12 -12 28 q0 14 14 36 q-19 16 -33 16 q-25 0 -44 -25.5 q-19 -25.5 -25 -66.5 l-3 -22 q-1 -3 -1 -10 q0 -13 16 -13 q9 0 15 1 q11 3 20 3 q30 0 30 -38 q0 -37 -38 -37 q-6 0 -17 2.5 q-11 2.5 -16 2.5 q-1 1 -3 1 q-18 0 -25 -21 q-2 -4 -7 -36 l-67 -391 q-15 -88 -61.5 -141 q-46.5 -53 -107.5 -53 q-46 0 -76 27 q-30 27 -30 68 q0 34 19 58.5 q19 24.5 45 24.5 q41 0 41 -46 Z" /><glyph glyph-name="Ohorn" unicode="&#x1a0;" d="M443 556 q5 5 11 17 q-10 7 -13 10 q-13 13 -10 34 q3 21 21 39 q46 45 82 9 q44 -44 -25 -114 q-47 -46 -87 -55 q20 -71 20 -163 q0 -158 -58 -252 q-58 -94 -156 -94 q-98 0 -156.5 94 q-58.5 94 -58.5 252 q0 158 58.5 252.5 q58.5 94.5 156.5 94.5 q98 0 156 -94 q15 -24 26 -52 q12 4 17 10 q11 7 16 12 ZM229 610 q-67 0 -103.5 -73 q-36.5 -73 -36.5 -204 q0 -129 36.5 -202.5 q36.5 -73.5 100.5 -73.5 q66 0 103 73 q37 73 37 203 q0 129 -36.5 203 q-36.5 74 -100.5 74 Z" /><glyph glyph-name="ohorn" unicode="&#x1a1;" d="M388 376 q5 5 11 17 q-10 7 -13 10 q-13 13 -10 34 q3 21 21 39 q46 45 82 9 q44 -44 -25 -114 q-47 -46 -87 -55 l-3 -1 q5 -33 5 -71 q0 -118 -48 -187.5 q-48 -69.5 -130 -69.5 q-82 0 -130 69.5 q-48 69.5 -48 187.5 q0 118 48 188 q48 70 130 70 q82 0 130 -70 q23 -34 35 -78 q11 4 16 10 q11 7 16 12 ZM191 435 q-49 0 -78 -52.5 q-29 -52.5 -29 -138.5 q0 -86 29 -138 q29 -52 78 -52 q49 0 78.5 52 q29.5 52 29.5 138 q0 86 -29.5 138.5 q-29.5 52.5 -78.5 52.5 Z" /><glyph glyph-name="Tonetwo" unicode="&#x1a7;" d="M264 681 q72 0 122 -55 q50 -55 50 -134 q0 -46 -21 -86 q-36 -68 -154 -94 q-39 -9 -70 -20 q-71 -26 -71 -105 q0 -55 34 -90 q34 -35 88 -35 q54 0 91.5 38 q37.5 38 37.5 93 q0 7 -2 29 q-2 22 -2 24 q0 43 34 43 q35 0 35 -41 q0 -13 -3 -40 q-3 -27 -3 -41 q0 -22 4 -65.5 q4 -43.5 4 -64.5 l0 -3 q0 -43 -31 -43 q-32 0 -32 43 q0 12 1 25 q-60 -69 -139 -69 q-81 0 -133.5 59 q-52.5 59 -52.5 149 q0 52 19 91 q17 35 48 54 q31 19 103 38 q86 22 114 44.5 q28 22.5 28 69.5 q0 50 -29 82.5 q-29 32.5 -75 32.5 q-49 0 -79 -33 q-30 -33 -30 -86 q0 -8 0 -8 l1 -25 l0 -4 q0 -39 -32 -39 q-35 0 -35 43 q0 15 2 44 q2 29 2 44 q0 15 -1.5 44.5 q-1.5 29.5 -1.5 44.5 q0 41 33 41 q30 0 30 -33 q0 -2 -1 -8 q0 -5 0 -8 q48 54 117 54 Z" /><glyph glyph-name="tonetwo" unicode="&#x1a8;" d="M219 501 q63 0 105 -43 q42 -43 42 -108 q0 -68 -45 -100 q-33 -24 -106 -37 q-55 -10 -76.5 -28 q-21.5 -18 -21.5 -53 q0 -34 23.5 -56.5 q23.5 -22.5 59.5 -22.5 q103 0 107 113 q2 41 34 41 q29 0 29 -32 q0 -12 -2 -37 q-2 -25 -2 -37 q0 -37 1 -47 q2 -19 2 -32 q0 -38 -32 -38 q-31 0 -31 44 l0 8 q-49 -46 -105 -46 q-67 0 -110.5 44 q-43.5 44 -43.5 111 q0 67 46 102 q29 23 105 39 q56 12 76 28 q20 16 20 49 q0 34 -21.5 55 q-21.5 21 -55.5 21 q-39 0 -61 -24.5 q-22 -24.5 -22 -67.5 q0 -48 -34 -48 q-29 0 -29 33 q0 10 2 31 q2 21 2 31 q0 20 -4 54 q-2 17 -2 21 q0 37 32 37 q29 0 29 -40 q44 35 89 35 Z" /><glyph glyph-name="Uhorn" unicode="&#x1af;" d="M530 675 q5 5 11 17 q-10 7 -13 10 q-13 13 -10 34 q3 21 21 39 q46 45 82 9 q44 -44 -25 -114 q-32 -31 -60 -45 q-5 -23 -31 -23 l-18 0 q-21 0 -26.5 -18 q-5.5 -18 -5.5 -90 l0 -93 q0 -26 1 -78.5 q1 -52.5 1 -78.5 q0 -114 -26 -167 q-21 -42 -66.5 -66 q-45.5 -24 -102.5 -24 q-52 0 -94 21.5 q-42 21.5 -60 56.5 q-26 52 -26 178 l0 45 q2 69 2 91 l0 156 q0 68 -29 68 q-4 0 -12 -1.5 q-8 -1.5 -12 -1.5 q-13 0 -22 9.5 q-9 9.5 -9 23.5 q0 39 37 39 q14 0 35 -5 q30 -7 50 -7 q16 0 45 5.5 q29 5.5 42 5.5 q16 0 27 -11.5 q11 -11.5 11 -27.5 q0 -14 -9.5 -24 q-9.5 -10 -23.5 -10 q-6 0 -16.5 2.5 q-10.5 2.5 -16.5 2.5 q-24 0 -29 -76 l0 -244 q0 -107 11 -151 q8 -34 38 -55.5 q30 -21.5 68 -21.5 q38 0 67 21.5 q29 21.5 39 58.5 q11 41 11 148 l0 244 q-5 76 -29 76 q-6 0 -16.5 -2.5 q-10.5 -2.5 -16.5 -2.5 q-14 0 -23.5 10 q-9.5 10 -9.5 24 q0 17 11.5 28 q11.5 11 27.5 11 q14 0 42 -5.5 q28 -5.5 42 -5.5 q15 0 44 6.5 q29 6.5 44 6.5 q12 0 20 -5 q5 4 8 7 Z" /><glyph glyph-name="uhorn" unicode="&#x1b0;" d="M443 377 q5 5 11 17 q-10 7 -13 10 q-13 13 -10 34 q3 21 21 39 q46 45 82 9 q44 -44 -25 -114 q-47 -46 -87 -55 l-25 -8 l-6 -2 l0 -148 q0 -63 4 -80 q4 -17 20 -17 l5 0 q7 1 16 1 q26 0 26 -32 q0 -35 -30 -35 q-8 0 -25 3 q-17 3 -26 3 q-7 0 -20.5 -3.5 q-13.5 -3.5 -19.5 -3.5 q-17 0 -17 30 l0 21 q-44 -59 -112 -59 q-38 0 -74 21 q-36 21 -51.5 53.5 q-15.5 32.5 -16.5 71.5 l0 199 q0 63 -4.5 80 q-4.5 17 -20.5 17 l-2 0 q-1 -1 -2 -1 l-9 0 q-6 -1 -7 -1 q-27 0 -27 32 q0 15 9 25.5 q9 10.5 22 10.5 q8 0 24.5 -3 q16.5 -3 24.5 -3 q15 0 23 2 l17 4 q2 0 4 1 l3 0 q16 0 16 -18 l0 -10 l-1 -43 l-2 -130 l0 -86 q0 -83 20 -117.5 q20 -34.5 68 -34.5 q98 0 98 186 l0 28 q0 44 -1 72 l-2 52 q-1 34 -24 34 l-11 0 q-3 -1 -5 -1 q-29 0 -29 32 q0 14 9.5 25 q9.5 11 22.5 11 q6 0 21.5 -4 q15.5 -4 23.5 -4 q8 0 24 3.5 q16 3.5 24 3.5 q16 0 16 -27 l0 -14 q-2 -31 -2 -80 l0 -24 l4 1 q24 5 32 14 q11 7 16 12 Z" /><glyph glyph-name="Upsilonafrican" unicode="&#x1b1;" d="M377 683 l261 0 l0 -60 l-184 0 q184 -107 184 -302 q0 -136 -88 -228.5 q-88 -92.5 -217 -92.5 q-129 0 -217 92.5 q-88 92.5 -88 228.5 q0 195 183 302 l-183 0 l0 60 l260 0 l0 -55 q-87 -49 -130 -108 q-61 -84 -61 -192 q0 -112 68.5 -190 q68.5 -78 166.5 -78 q101 0 169 77 q68 77 68 191 q0 194 -192 300 l0 55 Z" /><glyph glyph-name="eturned" unicode="&#x1dd;" d="M37 203 q0 37 5 45.5 q5 8.5 27 8.5 l199 0 q24 0 30 4.5 q6 4.5 6 23.5 q0 66 -28 107 q-28 41 -74 41 q-29 0 -52 -19 q-23 -19 -31 -49 l-9 -34 q-7 -28 -35 -28 q-32 0 -32 36 q0 65 48.5 114 q48.5 49 112.5 49 q79 0 126 -68.5 q47 -68.5 47 -184.5 q0 -116 -50 -189 q-50 -73 -130 -73 q-71 0 -115.5 60.5 q-44.5 60.5 -44.5 155.5 ZM299 173 q0 18 -26 18 l-126 0 q-24 0 -30 -4 q-6 -4 -6 -20 q0 -48 26 -80 q26 -32 64 -32 q59 0 85 66 q10 25 12 43 q1 4 1 9 Z" /><glyph glyph-name="dotlessj" unicode="&#x237;" d="M6 -81 q0 -17 -11 -35 q19 -14 37 -14 q39 0 52.5 33 q13.5 33 13.5 130 l0 238 q0 6 -1 29.5 q-1 23.5 -1 42.5 q-1 55 -1 52 q0 34 -24 34 l-6 0 q-1 0 -5 0 q-3 -1 -5 -1 q-29 0 -29 32 q0 14 9.5 25 q9.5 11 22.5 11 q3 0 23 -5 q12 -3 21 -3 q15 0 30 4 q11 3 20 3 q17 0 17 -23 l0 -10 q-1 -3 -1 -34 l-1 -70 l0 -325 q0 -118 -29 -165 q-39 -62 -110 -62 q-46 0 -76.5 27.5 q-30.5 27.5 -30.5 68.5 q0 25 14 42.5 q14 17.5 34 17.5 q16 0 26.5 -12.5 q10.5 -12.5 10.5 -30.5 Z" /><glyph glyph-name="aturned" unicode="&#x250;" d="M120 502 q57 0 73 -60 q43 60 115 60 q58 0 95.5 -41 q37.5 -41 37.5 -105 q0 -82 -51 -116 q-36 -24 -111 -34 q-43 -6 -59 -22.5 q-16 -16.5 -16 -55.5 q0 -81 69 -81 q18 0 41 10 q26 12 26 29 q0 5 -6 15 q-12 19 -12 36 q0 43 45 43 q52 0 52 -65 q0 -55 -41.5 -91.5 q-41.5 -36.5 -104.5 -36.5 q-42 0 -76 17 q-38 20 -52 56 q-11 30 -11 101 l-1 245 q-1 29 -17 29 q-22 0 -22 -71 q0 -13 1 -19 l0 -10 q0 -43 -29 -43 q-33 0 -33 57 q0 87 19 120 q19 33 68 33 ZM205 340 q-4 -23 -5 -90 q28 12 55 17 l45 8 q73 13 73 83 q0 36 -20.5 58 q-20.5 22 -53.5 22 q-35 0 -61 -27 q-26 -27 -33 -71 Z" /><glyph glyph-name="oopen" unicode="&#x254;" d="M155 171 q0 -42 -36 -51 q19 -67 73 -67 q47 0 76 54 q29 54 29 143 q0 85 -28 134 q-28 49 -77 49 q-35 0 -58.5 -27.5 q-23.5 -27.5 -26.5 -71.5 q-3 -51 -35 -51 q-35 0 -35 47 q0 70 47 121 q47 51 112 51 q80 0 126 -67.5 q46 -67.5 46 -183.5 q0 -123 -47 -193.5 q-47 -70.5 -129 -70.5 q-64 0 -104.5 42.5 q-40.5 42.5 -40.5 108.5 q0 85 60 85 q21 0 34.5 -14.5 q13.5 -14.5 13.5 -37.5 Z" /><glyph glyph-name="ereversed" unicode="&#x258;" d="M37 286 q0 95 44.5 155.5 q44.5 60.5 115.5 60.5 q80 0 130 -73 q50 -73 50 -189 q0 -116 -47 -184.5 q-47 -68.5 -126 -68.5 q-64 0 -112.5 49 q-48.5 49 -48.5 114 q0 36 32 36 q28 0 35 -28 l9 -34 q8 -30 31 -49 q23 -19 52 -19 q46 0 74 41 q28 41 28 107 q0 19 -6 23.5 q-6 4.5 -30 4.5 l-199 0 q-22 0 -27 8.5 q-5 8.5 -5 45.5 ZM299 316 q0 5 -1 9 q-2 18 -12 43 q-26 66 -85 66 q-38 0 -64 -32 q-26 -32 -26 -80 q0 -16 6 -20 q6 -4 30 -4 l126 0 q26 0 26 18 Z" /><glyph glyph-name="schwa" unicode="&#x259;" d="M37 203 q0 37 5 45.5 q5 8.5 27 8.5 l199 0 q24 0 30 4.5 q6 4.5 6 23.5 q0 66 -28 107 q-28 41 -74 41 q-29 0 -52 -19 q-23 -19 -31 -49 l-9 -34 q-7 -28 -35 -28 q-32 0 -32 36 q0 65 48.5 114 q48.5 49 112.5 49 q79 0 126 -68.5 q47 -68.5 47 -184.5 q0 -116 -50 -189 q-50 -73 -130 -73 q-71 0 -115.5 60.5 q-44.5 60.5 -44.5 155.5 ZM299 173 q0 18 -26 18 l-126 0 q-24 0 -30 -4 q-6 -4 -6 -20 q0 -48 26 -80 q26 -32 64 -32 q59 0 85 66 q10 25 12 43 q1 4 1 9 Z" /><glyph glyph-name="mturned" unicode="&#x26f;" d="M555 33 q0 7 1 16 q-51 -54 -102 -54 q-35 0 -57.5 14 q-22.5 14 -46.5 50 q-36 -64 -117 -64 q-86 0 -118 64 q-19 39 -19 134 l0 148 q0 65 -3.5 79.5 q-3.5 14.5 -19.5 14.5 l-9 0 q-5 -1 -11 -1 q-27 0 -27 34 q0 34 32 34 q11 0 32.5 -4 q21.5 -4 32.5 -4 q14 0 36 4 q22 4 31 4 q36 0 36 -37 q0 -30 -26 -30 q-3 0 -15 1 l-3 0 q-9 0 -11.5 -6 q-2.5 -6 -2.5 -30 l0 -3 q0 -32 -1 -58 l-2 -58 l0 -69 q0 -87 16 -118 q16 -31 62 -31 q44 0 62 33 q18 33 18 113 l-1 200 q0 18 -4.5 23 q-4.5 5 -15.5 5 l-8 0 q-34 0 -34 33 q0 32 30 32 q11 0 34 -4 q23 -4 35 -4 q20 0 41 4 q21 4 28 4 q29 0 29 -35 q0 -31 -24 -31 l-16 0 q-20 0 -22 -37 l-3 -46 l0 -141 q0 -86 16.5 -118.5 q16.5 -32.5 60.5 -32.5 q46 0 66.5 43 q20.5 43 20.5 138 l-1 154 q-1 41 -12 41 q-4 0 -11.5 -1.5 q-7.5 -1.5 -11.5 -1.5 q-28 0 -28 32 q0 36 36 36 q11 0 34.5 -4 q23.5 -4 35.5 -4 q11 0 31.5 4 q20.5 4 30.5 4 q32 0 32 -34 q0 -34 -28 -34 q-6 0 -11 1 l-9 0 q-16 0 -19.5 -14.5 q-3.5 -14.5 -3.5 -79.5 l0 -176 q0 -63 4.5 -80 q4.5 -17 20.5 -17 q1 0 2 0 q1 1 2 1 q4 0 9 0 q6 1 7 1 q27 0 27 -32 q0 -15 -9 -25.5 q-9 -10.5 -22 -10.5 q-8 0 -24.5 3 q-16.5 3 -25.5 3 q-13 0 -29 -4 q-8 -2 -12 -2 q-16 0 -16 31 Z" /><glyph glyph-name="rturned" unicode="&#x279;" d="M240 30 q0 0 0 13 q-41 -48 -95 -48 q-53 0 -86 37.5 q-33 37.5 -33 96.5 q0 44 17.5 72 q17.5 28 44.5 28 q21 0 35 -14 q14 -14 14 -35 q0 -40 -44 -46 q-1 -7 -1 -17 q0 -24 16.5 -41.5 q16.5 -17.5 39.5 -17.5 q85 0 85 169 l0 82 q0 86 -4 106.5 q-4 20.5 -20 20.5 q-4 0 -18 -2 q-7 -2 -19 -2 q-30 0 -30 33 q0 37 33 37 q11 0 44 -6 q22 -2 42 -2 q15 0 41 4 q26 4 36 4 q32 0 32 -34 q0 -34 -28 -34 q-6 0 -11 1 l-9 0 q-16 0 -19.5 -14.5 q-3.5 -14.5 -3.5 -79.5 l0 -176 q0 -63 4.5 -80 q4.5 -17 20.5 -17 q1 0 2 0 q1 1 2 1 q4 0 9 0 q6 1 7 1 q27 0 27 -32 q0 -15 -9 -25.5 q-9 -10.5 -22 -10.5 q-8 0 -25 3 q-17 3 -26 3 q-9 0 -31 -5 q-5 -1 -8 -1 q-9 0 -10 28 Z" /><glyph glyph-name="tturned" unicode="&#x287;" d="M230 124 l-1 -12 l0 -79 q0 -44 -34 -44 q-34 0 -34 44 l0 80 q0 17 -3.5 21.5 q-3.5 4.5 -17.5 4.5 q-17 0 -31 -1 l-33 -2 q-40 0 -40 36 q0 38 40 38 q11 0 33.5 -3.5 q22.5 -3.5 33.5 -3.5 q12 0 15 5.5 q3 5.5 3 25.5 l0 201 q0 69 -2 81 q-8 55 -42 55 q-45 0 -45 -105 l0 -10 q0 -33 -3 -42 q-6 -23 -29 -23 q-34 0 -34 60 q0 22 4 64 q12 128 112 128 q78 0 98 -71 q9 -32 9 -105 l0 -238 q0 -22 12 -22 q1 0 11 2 q1 0 5 0 q4 1 6 1 q30 0 30 -38 q0 -35 -30 -35 q-4 0 -11 1 q-7 1 -11 1 q-10 0 -11 -15 Z" /><glyph glyph-name="vturned" unicode="&#x28c;" d="M311 103 l-79 284 l-80 -284 q-8 -28 -8 -37 q0 -15 18 -15 l8 0 q4 1 11 1 q30 0 30 -31 q0 -34 -31 -34 q-10 0 -35 5 q-22 2 -38 2 q-14 0 -41 -3.5 q-27 -3.5 -40 -3.5 q-30 0 -30 34 q0 32 27 32 q10 0 13.5 -1 q3.5 -1 6.5 -1 q17 0 27 22 q0 1 11 37 l103 331 q10 32 19.5 43 q9.5 11 27.5 11 q19 0 28.5 -11 q9.5 -11 19.5 -43 l102 -331 q11 -34 12 -37 q10 -22 27 -22 q2 0 6 1 q4 1 14 1 q27 0 27 -32 q0 -34 -30 -34 q-14 0 -40.5 3.5 q-26.5 3.5 -40.5 3.5 q-16 0 -39.5 -3.5 q-23.5 -3.5 -33.5 -3.5 q-31 0 -31 35 q0 30 30 30 q7 0 11 -1 l9 0 q17 0 17 16 q0 7 -8 36 Z" /><glyph glyph-name="wturned" unicode="&#x28d;" d="M479 112 l-57 283 l-61 -355 q-9 -53 -49 -53 q-22 0 -32.5 11 q-10.5 11 -16.5 42 l-70 355 l-48 -276 q-5 -29 -5 -44 q0 -22 21 -22 l2 0 q4 0 14 1 q26 0 26 -33 q0 -34 -28 -34 q-13 0 -38 5 q-25 5 -39 5 q-14 0 -38 -5 q-24 -5 -36 -5 q-28 0 -28 33 q0 32 37 32 q19 0 29.5 21 q10.5 21 22.5 82 l55 285 q11 55 53 55 q40 0 53 -64 l66 -319 l63 328 q11 55 50 55 q37 0 50 -55 l80 -338 q7 -28 10 -33 q8 -17 25 -17 l3 0 l14 1 q10 1 18 -10.5 q8 -11.5 8 -22.5 q0 -33 -32 -33 q-6 0 -34 5 q-15 4 -36 4 q-14 0 -40.5 -4.5 q-26.5 -4.5 -40.5 -4.5 q-29 0 -29 32 q0 34 30 34 l13 0 q20 0 20 22 q0 12 -5 37 Z" /><glyph glyph-name="commareversedmod" unicode="&#x2bd;" d="M103 536 q0 -7 3 -20 q10 -44 23 -65 l12 -20 q5 -8 5 -15 q0 -19 -20 -19 q-15 0 -28 26 l-12 24 q-33 66 -33 132 q0 98 62 98 q52 0 52 -64 q0 -26 -12.5 -43 q-12.5 -17 -31.5 -17 q-4 0 -16 2 q-4 -12 -4 -19 Z" /><glyph glyph-name="circumflex" unicode="&#x2c6;" d="M347 570 l-96 43 l-94 -43 q-9 -4 -18 -4 q-21 0 -21 14 q0 10 13 21 l102 87 q11 9 19 9 q6 0 17 -9 l101 -87 q11 -9 11 -18 q0 -17 -18 -17 q-7 0 -16 4 Z" /><glyph glyph-name="caron" unicode="&#x2c7;" d="M153 693 l96 -43 l94 43 q11 5 18 5 q20 0 20 -15 q0 -10 -12 -20 l-102 -87 q-12 -10 -19 -10 q-5 0 -17 10 l-101 87 q-11 9 -11 17 q0 17 18 17 q7 0 16 -4 Z" /><glyph glyph-name="firsttonechinese" unicode="&#x2c9;" d="M155 640 l45 -2 l51 0 q21 0 39 -1 q14 0 14 0 q36 2 36 2 q39 0 39 -31 q0 -34 -40 -34 q-12 0 -39 3 l-100 0 q-31 -3 -44 -3 q-35 0 -35 33 q0 35 34 33 Z" /><glyph glyph-name="secondtonechinese" unicode="&#x2ca;" d="M180 583 q0 14 14 28 l66 67 q26 26 43 26 q16 0 27 -13 q11 -13 11 -32 q0 -31 -38 -48 l-87 -40 q-13 -6 -19 -6 q-17 0 -17 18 Z" /><glyph glyph-name="fourthtonechinese" unicode="&#x2cb;" d="M303 565 q-6 0 -19 6 l-87 40 q-38 17 -38 48 q0 19 11 32 q11 13 27 13 q17 0 43 -26 l66 -67 q14 -14 14 -28 q0 -18 -17 -18 Z" /><glyph glyph-name="macronlowmod" unicode="&#x2cd;" d="M155 -60 l45 -2 l51 0 q21 0 39 -1 q14 0 14 0 q36 2 36 2 q39 0 39 -31 q0 -34 -40 -34 q-12 0 -39 3 l-100 0 q-31 -3 -44 -3 q-35 0 -35 33 q0 35 34 33 Z" /><glyph glyph-name="gravelowmod" unicode="&#x2ce;" d="M303 -135 q-6 0 -19 6 l-87 40 q-38 17 -38 48 q0 19 11 32 q11 13 27 13 q17 0 43 -26 l66 -67 q14 -14 14 -28 q0 -18 -17 -18 Z" /><glyph glyph-name="acutelowmod" unicode="&#x2cf;" d="M180 -117 q0 14 14 28 l66 67 q26 26 43 26 q16 0 27 -13 q11 -13 11 -32 q0 -31 -38 -48 l-87 -40 q-13 -6 -19 -6 q-17 0 -17 18 Z" /><glyph glyph-name="breve" unicode="&#x2d8;" d="M125 712 q30 -50 54 -65 q24 -15 74 -15 q81 0 120 68 q9 15 19 15 q14 0 14 -26 q0 -21 -20 -51 q-52 -79 -138 -79 q-58 0 -106 43 q-48 43 -48 96 q0 27 17 27 q6 0 14 -13 Z" /><glyph glyph-name="dotaccent" unicode="&#x2d9;" d="M248 535 q-20 0 -33.5 17.5 q-13.5 17.5 -13.5 42.5 q0 23 15.5 41.5 q15.5 18.5 34.5 18.5 q20 0 34 -17.5 q14 -17.5 14 -41.5 q0 -26 -14.5 -43.5 q-14.5 -17.5 -36.5 -17.5 Z" /><glyph glyph-name="ring" unicode="&#x2da;" d="M250 556 q-32 0 -53 23 q-21 23 -21 58 q0 35 21 57.5 q21 22.5 53 22.5 q32 0 53 -23 q21 -23 21 -58 q0 -34 -21 -57 q-21 -23 -53 -23 ZM250 677 q-13 0 -22.5 -11.5 q-9.5 -11.5 -9.5 -28.5 q0 -41 32 -41 q32 0 32 41 q0 17 -9.5 28.5 q-9.5 11.5 -22.5 11.5 Z" /><glyph glyph-name="ogonek" unicode="&#x2db;" d="M183 -103 q0 56 92 103 l42 0 q-84 -45 -84 -97 q0 -33 34 -33 q9 0 19 6.5 q10 6.5 15 6.5 q14 0 14 -18 q0 -16 -18.5 -28 q-18.5 -12 -44.5 -12 q-30 0 -49.5 20.5 q-19.5 20.5 -19.5 51.5 Z" /><glyph glyph-name="tilde" unicode="&#x2dc;" d="M333 648 q17 0 26 10 l18 21 q6 7 15 7 q15 0 15 -15 q0 -24 -26.5 -62 q-26.5 -38 -67.5 -38 q-28 0 -73 20 l-39 17 q-14 6 -28 6 q-24 0 -50 -25 q-10 -10 -16 -10 q-14 0 -14 16 q0 15 19 50 q25 45 68 45 q24 0 80 -21 q56 -21 73 -21 Z" /><glyph glyph-name="hungarumlaut" unicode="&#x2dd;" d="M245 605 l-58 -63 q-3 -4 -9 -4 q-12 0 -12 14 q0 2 2 12 q1 3 3 7.5 q2 4.5 2 5.5 l33 74 q12 27 31 27 q30 0 30 -30 q0 -19 -22 -43 ZM340 605 l-58 -63 q-6 -4 -10 -4 q-12 0 -12 14 q0 4 3 12 q2 5 4 13 l34 74 q12 27 31 27 q30 0 30 -30 q0 -19 -22 -43 Z" /><glyph glyph-name="gravecmb" unicode="&#x300;" d="M-151 565 q-6 0 -19 6 l-87 40 q-38 17 -38 48 q0 19 11 32 q11 13 27 13 q17 0 43 -26 l66 -67 q14 -14 14 -28 q0 -18 -17 -18 Z" /><glyph glyph-name="acutecmb" unicode="&#x301;" d="M-295 583 q0 14 14 28 l66 67 q26 26 43 26 q16 0 27 -13 q11 -13 11 -32 q0 -31 -38 -48 l-87 -40 q-13 -6 -19 -6 q-17 0 -17 18 Z" /><glyph glyph-name="circumflexcmb" unicode="&#x302;" d="M-117 570 l-96 43 l-94 -43 q-9 -4 -18 -4 q-21 0 -21 14 q0 10 13 21 l102 87 q11 9 19 9 q6 0 17 -9 l101 -87 q11 -9 11 -18 q0 -17 -18 -17 q-7 0 -16 4 Z" /><glyph glyph-name="tildecmb" unicode="&#x303;" d="M-132 648 q17 0 26 10 l18 21 q6 7 15 7 q15 0 15 -15 q0 -24 -26.5 -62 q-26.5 -38 -67.5 -38 q-28 0 -73 20 l-39 17 q-14 6 -28 6 q-24 0 -50 -25 q-10 -10 -16 -10 q-14 0 -14 16 q0 15 19 50 q25 45 68 45 q24 0 80 -21 q56 -21 73 -21 Z" /><glyph glyph-name="macroncmb" unicode="&#x304;" d="M-310 640 l45 -2 l51 0 q21 0 39 -1 q14 0 14 0 q36 2 36 2 q39 0 39 -31 q0 -34 -40 -34 q-12 0 -39 3 l-100 0 q-31 -3 -44 -3 q-35 0 -35 33 q0 35 34 33 Z" /><glyph glyph-name="brevecmb" unicode="&#x306;" d="M-340 712 q30 -50 54 -65 q24 -15 74 -15 q81 0 120 68 q9 15 19 15 q14 0 14 -26 q0 -21 -20 -51 q-52 -79 -138 -79 q-58 0 -106 43 q-48 43 -48 96 q0 27 17 27 q6 0 14 -13 Z" /><glyph glyph-name="dotaccentcmb" unicode="&#x307;" d="M-217 535 q-20 0 -33.5 17.5 q-13.5 17.5 -13.5 42.5 q0 23 15.5 41.5 q15.5 18.5 34.5 18.5 q20 0 34 -17.5 q14 -17.5 14 -41.5 q0 -26 -14.5 -43.5 q-14.5 -17.5 -36.5 -17.5 Z" /><glyph glyph-name="dieresiscmb" unicode="&#x308;" d="M-293 562 q-48 0 -48 60 q0 59 48 59 q49 0 49 -59 q0 -60 -49 -60 ZM-137 562 q-49 0 -49 60 q0 59 49 59 q48 0 48 -59 q0 -60 -48 -60 Z" /><glyph glyph-name="hookabovecomb" unicode="&#x309;" d="M-264 572 q-5 14 -5 19 q0 15 15 15 q6 0 9 -2 l12 -7 q5 -3 13 -3 q25 0 25 24 q0 30 -29 30 q-10 0 -16 -6 l-13 -13 q-7 -5 -14 -5 q-20 0 -20 21 q0 19 19.5 32 q19.5 13 47.5 13 q35 0 56.5 -20 q21.5 -20 21.5 -53 q0 -63 -70 -64 l-4 -38 l-42 0 l-6 57 Z" /><glyph glyph-name="ringcmb" unicode="&#x30a;" d="M-215 556 q-32 0 -53 23 q-21 23 -21 58 q0 35 21 57.5 q21 22.5 53 22.5 q32 0 53 -23 q21 -23 21 -58 q0 -34 -21 -57 q-21 -23 -53 -23 ZM-215 677 q-13 0 -22.5 -11.5 q-9.5 -11.5 -9.5 -28.5 q0 -41 32 -41 q32 0 32 41 q0 17 -9.5 28.5 q-9.5 11.5 -22.5 11.5 Z" /><glyph glyph-name="hungarumlautcmb" unicode="&#x30b;" d="M-234 605 l-58 -63 q-3 -4 -9 -4 q-12 0 -12 14 q0 2 2 12 q1 3 3 7.5 q2 4.5 2 5.5 l33 74 q12 27 31 27 q30 0 30 -30 q0 -19 -22 -43 ZM-139 605 l-58 -63 q-6 -4 -10 -4 q-12 0 -12 14 q0 4 3 12 q2 5 4 13 l34 74 q12 27 31 27 q30 0 30 -30 q0 -19 -22 -43 Z" /><glyph glyph-name="caroncmb" unicode="&#x30c;" d="M-312 693 l96 -43 l94 43 q11 5 18 5 q20 0 20 -15 q0 -10 -12 -20 l-102 -87 q-12 -10 -19 -10 q-5 0 -17 10 l-101 87 q-11 9 -11 17 q0 17 18 17 q7 0 16 -4 Z" /><glyph glyph-name="dblgravecmb" unicode="&#x30f;" d="M-196 605 q-22 24 -22 43 q0 30 30 30 q19 0 31 -27 l33 -74 q0 -1 2 -5.5 q2 -4.5 3 -7.5 q2 -10 2 -12 q0 -14 -12 -14 q-6 0 -9 4 l-58 63 l0 0 ZM-291 605 q-22 24 -22 43 q0 30 30 30 q19 0 31 -27 l34 -74 q2 -8 4 -13 q3 -8 3 -12 q0 -14 -12 -14 q-4 0 -10 4 l-58 63 l0 0 Z" /><glyph glyph-name="breveinvertedcmb" unicode="&#x311;" d="M-340 572 q-8 -13 -14 -13 q-17 0 -17 27 q0 53 48 96 q48 43 106 43 q86 0 138 -79 q20 -30 20 -51 q0 -26 -14 -26 q-10 0 -19 15 q-39 68 -120 68 q-50 0 -74 -15 q-24 -15 -54 -65 Z" /><glyph glyph-name="commaturnedabovecmb" unicode="&#x312;" d="M-221 539 q0 -11 3 -20 q7 2 16 2 q44 0 44 -60 q0 -64 -52 -64 q-62 0 -62 98 q0 72 33 133 l13 24 q14 25 27 25 q20 0 20 -19 q0 -6 -5 -15 l-11 -19 q-26 -45 -26 -85 Z" /><glyph glyph-name="commaabovecmb" unicode="&#x313;" d="M-208 536 q0 7 -4 19 q-12 -2 -16 -2 q-19 0 -31.5 17 q-12.5 17 -12.5 43 q0 64 52 64 q62 0 62 -98 q0 -66 -33 -132 l-12 -24 q-13 -26 -28 -26 q-20 0 -20 19 q0 7 5 15 l12 20 q13 21 23 65 q3 13 3 20 Z" /><glyph glyph-name="commareversedabovecmb" unicode="&#x314;" d="M-222 536 q0 -7 3 -20 q10 -44 23 -65 l12 -20 q5 -8 5 -15 q0 -19 -20 -19 q-15 0 -28 26 l-12 24 q-33 66 -33 132 q0 98 62 98 q52 0 52 -64 q0 -26 -12.5 -43 q-12.5 -17 -31.5 -17 q-4 0 -16 2 q-4 -12 -4 -19 Z" /><glyph glyph-name="gravebelowcmb" unicode="&#x316;" d="M-151 -135 q-6 0 -19 6 l-87 40 q-38 17 -38 48 q0 19 11 32 q11 13 27 13 q17 0 43 -26 l66 -67 q14 -14 14 -28 q0 -18 -17 -18 Z" /><glyph glyph-name="acutebelowcmb" unicode="&#x317;" d="M-295 -117 q0 14 14 28 l66 67 q26 26 43 26 q16 0 27 -13 q11 -13 11 -32 q0 -31 -38 -48 l-87 -40 q-13 -6 -19 -6 q-17 0 -17 18 Z" /><glyph glyph-name="uni031B" unicode="&#x31b;" d="M-211 531 q5 5 11 17 q-10 7 -13 10 q-13 13 -10 34 q3 21 21 39 q46 45 82 9 q44 -44 -25 -114 q-47 -46 -87 -55 l-25 -8 q-28 -9 -38 1 q-14 14 -1 28 q5 5 14 7 l23 6 q24 5 32 14 q11 7 16 12 Z" /><glyph glyph-name="dotbelowcmb" unicode="&#x323;" d="M-217 -165 q-20 0 -33.5 17.5 q-13.5 17.5 -13.5 42.5 q0 23 15.5 41.5 q15.5 18.5 34.5 18.5 q20 0 34 -17.5 q14 -17.5 14 -41.5 q0 -26 -14.5 -43.5 q-14.5 -17.5 -36.5 -17.5 Z" /><glyph glyph-name="dieresisbelowcmb" unicode="&#x324;" d="M-293 -138 q-48 0 -48 60 q0 59 48 59 q49 0 49 -59 q0 -60 -49 -60 ZM-137 -138 q-49 0 -49 60 q0 59 49 59 q48 0 48 -59 q0 -60 -48 -60 Z" /><glyph glyph-name="ringbelowcmb" unicode="&#x325;" d="M-215 -144 q-32 0 -53 23 q-21 23 -21 58 q0 35 21 57.5 q21 22.5 53 22.5 q32 0 53 -23 q21 -23 21 -58 q0 -34 -21 -57 q-21 -23 -53 -23 ZM-215 -23 q-13 0 -22.5 -11.5 q-9.5 -11.5 -9.5 -28.5 q0 -41 32 -41 q32 0 32 41 q0 17 -9.5 28.5 q-9.5 11.5 -22.5 11.5 Z" /><glyph glyph-name="commaaccent" unicode="&#x326;" d="M-210 -121 q0 9 -2 16 q-6 -1 -13 -1 q-35 0 -35 48 q0 51 41 51 q50 0 50 -79 q0 -57 -26 -106 l-11 -19 q-11 -20 -21 -20 q-16 0 -16 15 q0 5 4 12 l8 16 q21 38 21 67 Z" /><glyph glyph-name="cedillacmb" unicode="&#x327;" d="M-244 0 l42 0 l-10 -38 q70 -1 70 -64 q0 -33 -21.5 -53 q-21.5 -20 -56.5 -20 q-28 0 -47.5 13 q-19.5 13 -19.5 32 q0 21 20 21 q7 0 14 -5 l13 -13 q6 -6 16 -6 q29 0 29 30 q0 24 -25 24 q-8 0 -13 -3 l-12 -7 q-3 -2 -9 -2 q-15 0 -15 15 q0 5 5 19 l20 57 Z" /><glyph glyph-name="ogonekcmb" unicode="&#x328;" d="M-282 -103 q0 56 92 103 l42 0 q-84 -45 -84 -97 q0 -33 34 -33 q9 0 19 6.5 q10 6.5 15 6.5 q14 0 14 -18 q0 -16 -18.5 -28 q-18.5 -12 -44.5 -12 q-30 0 -49.5 20.5 q-19.5 20.5 -19.5 51.5 Z" /><glyph glyph-name="caronbelowcmb" unicode="&#x32c;" d="M-312 -7 l96 -43 l94 43 q11 5 18 5 q20 0 20 -15 q0 -10 -12 -20 l-102 -87 q-12 -10 -19 -10 q-5 0 -17 10 l-101 87 q-11 9 -11 17 q0 17 18 17 q7 0 16 -4 Z" /><glyph glyph-name="circumflexbelowcmb" unicode="&#x32d;" d="M-117 -130 l-96 43 l-94 -43 q-9 -4 -18 -4 q-21 0 -21 14 q0 10 13 21 l102 87 q11 9 19 9 q6 0 17 -9 l101 -87 q11 -9 11 -18 q0 -17 -18 -17 q-7 0 -16 4 Z" /><glyph glyph-name="brevebelowcmb" unicode="&#x32e;" d="M-340 12 q30 -50 54 -65 q24 -15 74 -15 q81 0 120 68 q9 15 19 15 q14 0 14 -26 q0 -21 -20 -51 q-52 -79 -138 -79 q-58 0 -106 43 q-48 43 -48 96 q0 27 17 27 q6 0 14 -13 Z" /><glyph glyph-name="breveinvertedbelowcmb" unicode="&#x32f;" d="M-340 -128 q-8 -13 -14 -13 q-17 0 -17 27 q0 53 48 96 q48 43 106 43 q86 0 138 -79 q20 -30 20 -51 q0 -26 -14 -26 q-10 0 -19 15 q-39 68 -120 68 q-50 0 -74 -15 q-24 -15 -54 -65 Z" /><glyph glyph-name="tildebelowcmb" unicode="&#x330;" d="M-132 -52 q17 0 26 10 l18 21 q6 7 15 7 q15 0 15 -15 q0 -24 -26.5 -62 q-26.5 -38 -67.5 -38 q-28 0 -73 20 l-39 17 q-14 6 -28 6 q-24 0 -50 -25 q-10 -10 -16 -10 q-14 0 -14 16 q0 15 19 50 q25 45 68 45 q24 0 80 -21 q56 -21 73 -21 Z" /><glyph glyph-name="macronbelowcmb" unicode="&#x331;" d="M-310 -60 l45 -2 l51 0 q21 0 39 -1 q14 0 14 0 q36 2 36 2 q39 0 39 -31 q0 -34 -40 -34 q-12 0 -39 3 l-100 0 q-31 -3 -44 -3 q-35 0 -35 33 q0 35 34 33 Z" /><glyph glyph-name="soliduslongoverlaycmb" unicode="&#x338;" d="M-14 660 q0 -4 -4 -13 l-340 -740 q-8 -18 -37 -18 q-20 0 -20 13 q0 4 4 13 l338 739 q9 19 34 19 q25 0 25 -13 Z" /><glyph glyph-name="combininggraphemejoiner" unicode="&#x34f;" d="" /><glyph glyph-name="Deltagreek" unicode="&#x394;" d="M638 0 l-609 0 l268 667 l71 0 l270 -667 ZM333 586 l-209 -525 l417 0 l-208 525 Z" /><glyph glyph-name="Omegagreek" unicode="&#x3a9;" d="M289 0 l-261 0 l0 60 l184 0 q-184 107 -184 302 q0 136 88 228.5 q88 92.5 217 92.5 q129 0 217 -92.5 q88 -92.5 88 -228.5 q0 -195 -183 -302 l183 0 l0 -60 l-260 0 l0 55 q87 49 130 108 q61 84 61 192 q0 112 -68.5 190 q-68.5 78 -166.5 78 q-101 0 -169 -77 q-68 -77 -68 -191 q0 -194 192 -300 l0 -55 Z" /><glyph glyph-name="mugreek" unicode="&#x3bc;" d="M115 -167 l-67 0 l0 646 l67 0 l0 -273 q0 -61 12.5 -92.5 q12.5 -31.5 44 -52 q31.5 -20.5 73.5 -20.5 q74 0 115 69 q23 39 23 106 l0 263 l66 0 l0 -479 l-66 0 l0 89 q-47 -102 -140 -102 q-81 0 -128 75 l0 -229 Z" /><glyph glyph-name="pi" unicode="&#x3c0;" d="M168 0 l-67 0 l0 450 l-74 0 l0 61 l518 0 l0 -61 l-73 0 l0 -450 l-67 0 l0 450 l-237 0 l0 -450 Z" /><glyph glyph-name="zerowidthspace" unicode="&#x200b;" d="" /><glyph glyph-name="zerowidthnonjoiner" unicode="&#x200c;" d="" /><glyph glyph-name="zerowidthjoiner" unicode="&#x200d;" d="" /><glyph glyph-name="lefttorightmark" unicode="&#x200e;" d="" /><glyph glyph-name="righttoleftmark" unicode="&#x200f;" d="" /><glyph glyph-name="hyphentwo" unicode="&#x2010;" d="M0 289 q0 36 35 35 l28 -1 q28 -1 42 -1 q10 0 30 1 q20 1 30 1 q36 0 36 -35 q0 -35 -36 -35 q-3 0 -12 1 q-9 1 -15 1 q-14 1 -37 1 q-24 0 -38 -1 q-6 0 -15 -1 q-9 -1 -12 -1 q-36 0 -36 35 Z" /><glyph glyph-name="nonbreakinghyphen" unicode="&#x2011;" d="M0 289 q0 36 35 35 l28 -1 q28 -1 42 -1 q10 0 30 1 q20 1 30 1 q36 0 36 -35 q0 -35 -36 -35 q-3 0 -12 1 q-9 1 -15 1 q-14 1 -37 1 q-24 0 -38 -1 q-6 0 -15 -1 q-9 -1 -12 -1 q-36 0 -36 35 Z" /><glyph glyph-name="figuredash" unicode="&#x2012;" d="M33 301 l0 62 l434 0 l0 -62 l-434 0 Z" /><glyph glyph-name="endash" unicode="&#x2013;" d="M33 301 l0 62 l434 0 l0 -62 l-434 0 Z" /><glyph glyph-name="emdash" unicode="&#x2014;" d="M69 324 l9 0 l60 -2 q90 -3 162 -3 q72 0 162 3 l70 2 q69 0 69 -37 q0 -21 -15.5 -29 q-15.5 -8 -55.5 -8 q-5 0 -68 2 q-95 3 -162 3 q-73 0 -162 -3 l-69 -2 q-39 0 -54 8 q-15 8 -15 29 q0 21 15 29 q15 8 54 8 Z" /><glyph glyph-name="horizontalbar" unicode="&#x2015;" d="M69 324 l9 0 l60 -2 q90 -3 162 -3 q72 0 162 3 l70 2 q69 0 69 -37 q0 -21 -15.5 -29 q-15.5 -8 -55.5 -8 q-5 0 -68 2 q-95 3 -162 3 q-73 0 -162 -3 l-69 -2 q-39 0 -54 8 q-15 8 -15 29 q0 21 15 29 q15 8 54 8 Z" /><glyph glyph-name="quoteleft" unicode="&#x2018;" d="M104 539 q0 -11 3 -20 q7 2 16 2 q44 0 44 -60 q0 -64 -52 -64 q-62 0 -62 98 q0 72 33 133 l13 24 q14 25 27 25 q20 0 20 -19 q0 -6 -5 -15 l-11 -19 q-26 -45 -26 -85 Z" /><glyph glyph-name="quoteright" unicode="&#x2019;" d="M117 536 q0 7 -4 19 q-12 -2 -16 -2 q-19 0 -31.5 17 q-12.5 17 -12.5 43 q0 64 52 64 q62 0 62 -98 q0 -66 -33 -132 l-12 -24 q-13 -26 -28 -26 q-20 0 -20 19 q0 7 5 15 l12 20 q13 21 23 65 q3 13 3 20 Z" /><glyph glyph-name="quotesinglbase" unicode="&#x201a;" d="M117 -26 q0 8 -4 20 q-6 -2 -16 -2 q-44 0 -44 60 q0 64 52 64 q62 0 62 -98 q0 -67 -33 -133 l-12 -24 q-13 -25 -28 -25 q-20 0 -20 19 q0 7 5 15 l12 20 q8 13 17 41.5 q9 28.5 9 42.5 Z" /><glyph glyph-name="quoteleftreversed" unicode="&#x201b;" d="M103 536 q0 -7 3 -20 q10 -44 23 -65 l12 -20 q5 -8 5 -15 q0 -19 -20 -19 q-15 0 -28 26 l-12 24 q-33 66 -33 132 q0 98 62 98 q52 0 52 -64 q0 -26 -12.5 -43 q-12.5 -17 -31.5 -17 q-4 0 -16 2 q-4 -12 -4 -19 Z" /><glyph glyph-name="quotedblleft" unicode="&#x201c;" d="M250 539 q0 -8 4 -20 q6 2 16 2 q44 0 44 -60 q0 -64 -52 -64 q-62 0 -62 98 q0 67 33 133 l12 24 q12 25 28 25 q19 0 19 -19 q0 -7 -4 -15 l-12 -19 q-7 -12 -16.5 -41.5 q-9.5 -29.5 -9.5 -43.5 ZM104 539 q0 -11 3 -20 q7 2 16 2 q44 0 44 -60 q0 -64 -52 -64 q-62 0 -62 98 q0 72 33 133 l13 24 q14 25 27 25 q20 0 20 -19 q0 -6 -5 -15 l-11 -19 q-26 -45 -26 -85 Z" /><glyph glyph-name="quotedblright" unicode="&#x201d;" d="M117 536 q0 7 -4 19 q-12 -2 -16 -2 q-19 0 -31.5 17 q-12.5 17 -12.5 43 q0 64 52 64 q62 0 62 -98 q0 -66 -33 -132 l-12 -24 q-13 -26 -28 -26 q-20 0 -20 19 q0 7 5 15 l12 20 q13 21 23 65 q3 13 3 20 ZM263 536 q0 10 -3 19 q-14 -2 -16 -2 q-19 0 -31.5 17 q-12.5 17 -12.5 43 q0 64 52 64 q62 0 62 -98 q0 -71 -33 -132 l-13 -24 q-14 -26 -27 -26 q-20 0 -20 19 q0 6 5 15 l11 20 q15 28 24 65 q2 9 2 20 Z" /><glyph glyph-name="quotedblbase" unicode="&#x201e;" d="M117 -26 q0 8 -4 20 q-6 -2 -16 -2 q-44 0 -44 60 q0 64 52 64 q62 0 62 -98 q0 -67 -33 -133 l-12 -24 q-13 -25 -28 -25 q-20 0 -20 19 q0 7 5 15 l12 20 q8 13 17 41.5 q9 28.5 9 42.5 ZM263 -26 q0 11 -3 20 q-7 -2 -16 -2 q-44 0 -44 60 q0 64 52 64 q62 0 62 -98 q0 -72 -33 -133 l-13 -24 q-14 -25 -27 -25 q-20 0 -20 19 q0 6 5 15 l11 20 q26 47 26 84 Z" /><glyph glyph-name="quotedblleftaltone" unicode="&#x201f;" d="M250 536 q0 -7 3 -20 q10 -44 23 -65 l12 -20 q5 -8 5 -15 q0 -19 -20 -19 q-15 0 -28 26 l-12 24 q-33 66 -33 132 q0 98 62 98 q52 0 52 -64 q0 -26 -12.5 -43 q-12.5 -17 -31.5 -17 q-4 0 -16 2 q-4 -12 -4 -19 ZM104 536 q0 -11 2 -20 q9 -37 24 -65 l11 -20 q5 -9 5 -15 q0 -19 -20 -19 q-13 0 -27 26 l-13 24 q-33 61 -33 132 q0 98 62 98 q52 0 52 -64 q0 -26 -12.5 -43 q-12.5 -17 -31.5 -17 q-2 0 -16 2 q-3 -9 -3 -19 Z" /><glyph glyph-name="dagger" unicode="&#x2020;" d="M226 442 l6 19 q-10 -2 -15 -5 q0 0 -82 -19 q-13 -3 -29 -3 q-60 0 -60 42 q0 43 52 43 q14 0 39 -4 q31 -5 39 -7 l40 -10 l16 -2 q-2 10 -2 12 q-3 9 -12 42 q-13 48 -13 74 q0 56 45 56 q45 0 45 -55 q0 -29 -13 -75 l-12 -42 q0 -2 -2 -12 l16 2 l40 10 q12 3 39 7 q27 4 36 4 l3 0 q52 0 52 -43 q0 -42 -58 -42 q-45 0 -128 27 l6 -19 l16 -43 q8 -22 8 -49 q0 -10 -1 -14 l-2 -21 l-35 -428 q-2 -20 -10 -20 q-8 0 -10 20 l-37 449 q-1 4 -1 14 q0 28 8 49 l16 43 Z" /><glyph glyph-name="daggerdbl" unicode="&#x2021;" d="M207 241 q0 31 31 80 q-34 -10 -95 -23 q-29 -6 -41 -6 q-23 0 -39 13 q-16 13 -16 32 q0 18 14.5 29.5 q14.5 11.5 37.5 11.5 q36 0 118 -24 q8 -3 21 -6 q-24 33 -24 62 q0 30 24 72 l-24 -8 l-32 -8 l-40 -9 q-12 -4 -29 -4 q-66 0 -66 45 q0 40 56 40 q33 0 70 -10 l65 -18 l-18 51 q-12 34 -12 60 q0 59 42 59 q42 0 42 -59 q0 -26 -12 -60 l-18 -51 l21 6 l44 12 q37 10 70 10 q56 0 56 -41 q0 -44 -64 -44 q-19 0 -31 4 l-40 9 l-32 8 l-24 8 q24 -42 24 -70 q0 -30 -24 -64 q8 2 21 6 q75 24 118 24 q52 0 52 -42 q0 -18 -16 -31 q-16 -13 -39 -13 q-12 0 -46 7 l-37 8 q-27 6 -53 14 q31 -51 31 -80 q0 -7 -1 -10 l-2 -21 l-28 -320 q-2 -22 -12 -22 q-10 0 -12 22 l-30 341 q-1 3 -1 10 Z" /><glyph glyph-name="bullet" unicode="&#x2022;" d="M196 340 q0 58 40.5 99 q40.5 41 97.5 41 q56 0 96.5 -41 q40.5 -41 40.5 -99 q0 -58 -40.5 -99 q-40.5 -41 -96.5 -41 q-57 0 -97.5 41 q-40.5 41 -40.5 99 Z" /><glyph glyph-name="ellipsis" unicode="&#x2026;" d="M108 -11 q-23 0 -37.5 17.5 q-14.5 17.5 -14.5 45.5 q0 27 14.5 44.5 q14.5 17.5 37.5 17.5 q22 0 36.5 -17.5 q14.5 -17.5 14.5 -44.5 q0 -28 -14.5 -45.5 q-14.5 -17.5 -36.5 -17.5 ZM323 -11 q-22 0 -36.5 17.5 q-14.5 17.5 -14.5 45.5 q0 27 14.5 44.5 q14.5 17.5 36.5 17.5 q22 0 36.5 -17.5 q14.5 -17.5 14.5 -44.5 q0 -28 -14.5 -45.5 q-14.5 -17.5 -36.5 -17.5 ZM538 -11 q-22 0 -36.5 17.5 q-14.5 17.5 -14.5 45.5 q0 27 14.5 44.5 q14.5 17.5 36.5 17.5 q23 0 37.5 -17.5 q14.5 -17.5 14.5 -44.5 q0 -28 -14.5 -45.5 q-14.5 -17.5 -37.5 -17.5 Z" /><glyph glyph-name="perthousand" unicode="&#x2030;" d="M168 251 q-59 0 -97 60.5 q-38 60.5 -38 154.5 q0 93 38 153.5 q38 60.5 97 60.5 q58 0 96 -60.5 q38 -60.5 38 -153.5 q0 -94 -38 -154.5 q-38 -60.5 -96 -60.5 ZM563 663 q0 -2 -3 -9 l-292 -641 q-9 -19 -36 -19 q-22 0 -22 13 q0 3 4 12 l290 637 q10 21 35 21 q24 0 24 -14 ZM602 -13 q-59 0 -96.5 60 q-37.5 60 -37.5 154 q0 94 38 154.5 q38 60.5 96 60.5 q59 0 97 -60.5 q38 -60.5 38 -154.5 q0 -94 -38 -154 q-38 -60 -97 -60 ZM937 -13 q-59 0 -96.5 60 q-37.5 60 -37.5 154 q0 94 38 154.5 q38 60.5 97 60.5 q58 0 96 -60.5 q38 -60.5 38 -154.5 q0 -94 -38 -154 q-38 -60 -97 -60 ZM169 620 q-31 0 -51.5 -43.5 q-20.5 -43.5 -20.5 -110.5 q0 -66 20 -110.5 q20 -44.5 50 -44.5 q31 0 51.5 43.5 q20.5 43.5 20.5 111.5 q0 65 -20.5 109.5 q-20.5 44.5 -49.5 44.5 ZM604 356 q-31 0 -51.5 -44 q-20.5 -44 -20.5 -111 q0 -66 20 -110.5 q20 -44.5 50 -44.5 q31 0 51.5 44 q20.5 44 20.5 111 q0 66 -20.5 110.5 q-20.5 44.5 -49.5 44.5 ZM939 356 q-31 0 -51.5 -44 q-20.5 -44 -20.5 -111 q0 -66 20 -110.5 q20 -44.5 50 -44.5 q31 0 51.5 44 q20.5 44 20.5 111 q0 66 -20.5 110.5 q-20.5 44.5 -49.5 44.5 Z" /><glyph glyph-name="guilsinglleft" unicode="&#x2039;" d="M157 438 l-52 -150 l49 -138 q3 -8 3 -16 q0 -16 -14 -16 q-9 0 -18 14 l-89 146 q-6 10 -6 11 q0 3 6 13 l96 153 q2 4 5 8 q3 4 9 4 q13 0 13 -16 q0 -9 -2 -13 Z" /><glyph glyph-name="guilsinglright" unicode="&#x203a;" d="M59 147 l52 150 l-49 138 q-3 8 -3 16 q0 16 14 16 q9 0 18 -14 l89 -146 q6 -10 6 -11 q0 -3 -6 -13 l-96 -153 q-2 -4 -5 -8 q-3 -4 -10 -4 q-12 0 -12 16 q0 9 2 13 Z" /><glyph glyph-name="fraction" unicode="&#x2044;" d="M225 661 q0 -6 -2 -9 l-292 -641 q-9 -19 -36 -19 q-22 0 -22 12 q0 1 4 13 l289 637 q10 21 36 21 q23 0 23 -14 Z" /><glyph glyph-name="reversedpilcrow" unicode="&#x204b;" d="M243 614 l-107 0 l0 -713 l-58 0 l0 713 l-58 0 l0 53 l261 0 q63 0 112 -17 q49 -17 78.5 -61 q29.5 -44 29.5 -101 q0 -77 -51.5 -125.5 q-51.5 -48.5 -132.5 -48.5 l-15 0 l0 -413 l-59 0 l0 713 Z" /><glyph glyph-name="zerosuperior" unicode="&#x2070;" d="M23 470 q0 107 42 168 q42 61 99 61 q61 0 101 -60 q42 -64 42 -169 q0 -107 -42 -168 q-42 -61 -99 -61 q-60 0 -101.5 61.5 q-41.5 61.5 -41.5 167.5 ZM165 652 q-39 0 -64.5 -51.5 q-25.5 -51.5 -25.5 -130.5 q0 -78 25.5 -130 q25.5 -52 64.5 -52 q39 0 64.5 51.5 q25.5 51.5 25.5 130.5 q0 78 -25.5 130 q-25.5 52 -64.5 52 Z" /><glyph glyph-name="uni2071" unicode="&#x2071;" d="M110 459 l0 -43 l0 -35 l0 -28 q0 -43 2.5 -52.5 q2.5 -9.5 12.5 -9.5 l6 0 q3 1 8 1 q17 0 17 -23 q0 -22 -21 -22 q-8 0 -25.5 2.5 q-17.5 2.5 -25.5 2.5 q-9 0 -23.5 -2.5 q-14.5 -2.5 -21.5 -2.5 q-21 0 -21 22 q0 23 18 23 q4 0 8 -1 l6 0 q10 0 12.5 9.5 q2.5 9.5 2.5 52.5 l0 76 q0 4 -1 19.5 q-1 15.5 -1 27.5 q0 37 0 35 q0 22 -16 22 l-4 0 q-1 0 -3 0 q-2 -1 -4 -1 q-19 0 -19 22 q0 9 6.5 16 q6.5 7 14.5 7 q2 0 15 -3 q8 -2 14 -2 q6 0 17.5 2.5 q11.5 2.5 16.5 2.5 q11 0 11 -16 l0 -8 q0 -1 0 -9 q-1 -10 -1 -17 l-1 -68 ZM83 603 q-14 0 -23 11.5 q-9 11.5 -9 28.5 q0 15 10 27 q10 12 23 12 q13 0 22.5 -11.5 q9.5 -11.5 9.5 -27.5 q0 -16 -10 -28 q-10 -12 -23 -12 Z" /><glyph glyph-name="foursuperior" unicode="&#x2074;" d="M195 364 l0 15 l-136 0 q-35 0 -35 27 q0 15 16 41 l138 233 q11 17 30 17 q20 0 27 -10.5 q7 -10.5 7 -41.5 l0 -220 l44 0 q25 0 25 -22 q0 -24 -30 -24 l-39 0 l0 -15 l0 -37 q1 -37 22 -37 q4 0 12 1.5 q8 1.5 12 1.5 q22 0 22 -23 q0 -9 -7 -16 q-7 -7 -18 -7 q-10 0 -30.5 4 q-20.5 4 -32.5 4 q-13 0 -37.5 -4 q-24.5 -4 -35.5 -4 q-23 0 -23 23 q0 23 21 23 q3 0 12 -1.5 q9 -1.5 13 -1.5 q19 0 23 29 q0 6 0 45 ZM73 425 l122 0 l0 205 l-122 -205 Z" /><glyph glyph-name="fivesuperior" unicode="&#x2075;" d="M102 618 l-9 -104 q39 35 85 35 q54 0 87 -40.5 q33 -40.5 33 -105.5 q0 -70 -38.5 -116 q-38.5 -46 -98.5 -46 q-53 0 -90 32.5 q-37 32.5 -37 79.5 q0 26 11.5 43 q11.5 17 29.5 17 q14 0 23.5 -10.5 q9.5 -10.5 9.5 -26.5 q0 -30 -28 -31 q18 -58 79 -58 q40 0 65.5 32.5 q25.5 32.5 25.5 82.5 q0 45 -22.5 73 q-22.5 28 -59.5 28 q-45 0 -70 -41 q-8 -13 -12 -15.5 q-4 -2.5 -15 -2.5 q-23 0 -23 25 q0 13 3 33 q2 25 3 34 q1 15 3 45 q4 47 4 78 l0 15 q0 12 2 16 q2 4 11 4 q5 0 8 0 q51 -4 71 -4 l5 0 l53 1 q7 0 22 1.5 q15 1.5 22 1.5 q9 0 11.5 -3 q2.5 -3 2.5 -13 q0 -9 0 -14 l0 -13 q0 -11 3 -31 q3 -20 3 -29 q0 -20 -19 -20 q-19 0 -20 21 l-2 21 q-1 18 -11 24.5 q-10 6.5 -35 6.5 l-63 0 q-13 0 -17 -4.5 q-4 -4.5 -6 -21.5 Z" /><glyph glyph-name="sixsuperior" unicode="&#x2076;" d="M181 655 q-44 0 -70.5 -45 q-26.5 -45 -29.5 -124 q25 33 47.5 46 q22.5 13 53.5 13 q54 0 88 -41 q34 -41 34 -106 q0 -68 -37 -112.5 q-37 -44.5 -94 -44.5 q-35 0 -65.5 19.5 q-30.5 19.5 -45.5 52.5 q-29 64 -29 154 q0 102 41.5 167 q41.5 65 107.5 65 q42 0 71 -27.5 q29 -27.5 29 -67.5 q0 -44 -33 -44 q-13 0 -21.5 9.5 q-8.5 9.5 -8.5 23.5 q0 17 15 29 q-16 33 -53 33 ZM174 498 q-35 0 -58.5 -28.5 q-23.5 -28.5 -23.5 -70.5 q0 -47 23.5 -78.5 q23.5 -31.5 58.5 -31.5 q35 0 58 30.5 q23 30.5 23 77.5 q0 45 -22 73 q-22 28 -59 28 Z" /><glyph glyph-name="sevensuperior" unicode="&#x2077;" d="M87 672 q0 -1 0 -6 q-1 -5 -1 -11 q14 22 24.5 29.5 q10.5 7.5 30.5 7.5 q14 0 45.5 -15.5 q31.5 -15.5 49.5 -15.5 q6 0 16 2 q-6 6 -6 15 q0 21 23 21 q34 0 34 -62 q0 -50 -28 -91 q-12 -19 -29 -38 q-37 -44 -47 -76 q-12 -36 -12 -88 q0 -3 0 -10 q0 -7 0 -10 q1 -21 1 -34 q0 -49 -28 -49 q-23 0 -28 29 q-1 8 -1 45 q0 80 29 143 q18 38 62 88 q23 27 31.5 42.5 q8.5 15.5 13.5 41.5 q-21 -18 -40 -18 q-9 0 -19 4 q-5 2 -26 10 q-28 12 -47 12 q-20 0 -34 -15.5 q-14 -15.5 -14 -37.5 q0 -10 1 -21 q2 -18 2 -26 q0 -34 -23 -34 q-23 0 -23 25 q0 13 4 35 q5 26 5 49 q0 11 -2.5 32 q-2.5 21 -2.5 31 q0 23 20 23 q19 0 19 -27 Z" /><glyph glyph-name="eightsuperior" unicode="&#x2078;" d="M64 463 q17 19 52 29 q-61 25 -61 93 q0 49 33 81.5 q33 32.5 84 32.5 q48 0 78.5 -31 q30.5 -31 30.5 -80 q0 -65 -59 -96 q76 -25 76 -112 q0 -61 -37 -100 q-37 -39 -97 -39 q-56 0 -94 37.5 q-38 37.5 -38 93.5 q0 53 32 91 ZM169 655 q-28 0 -45.5 -19.5 q-17.5 -19.5 -17.5 -48.5 q0 -29 17.5 -48.5 q17.5 -19.5 44.5 -19.5 q27 0 45 19.5 q18 19.5 18 48.5 q0 29 -18 48.5 q-18 19.5 -44 19.5 ZM165 466 q-36 0 -60 -25 q-24 -25 -24 -64 q0 -41 23 -66.5 q23 -25.5 60 -25.5 q37 0 60.5 25.5 q23.5 25.5 23.5 66.5 q0 41 -22.5 65 q-22.5 24 -60.5 24 Z" /><glyph glyph-name="ninesuperior" unicode="&#x2079;" d="M149 285 q44 0 70.5 45 q26.5 45 29.5 124 q-25 -32 -47.5 -45.5 q-22.5 -13.5 -53.5 -13.5 q-54 0 -88 41 q-34 41 -34 106 q0 68 37.5 112.5 q37.5 44.5 93.5 44.5 q35 0 65.5 -19.5 q30.5 -19.5 45.5 -52.5 q29 -63 29 -155 q0 -102 -41.5 -166.5 q-41.5 -64.5 -107.5 -64.5 q-43 0 -71.5 27.5 q-28.5 27.5 -28.5 67.5 q0 45 33 45 q13 0 21.5 -9.5 q8.5 -9.5 8.5 -25.5 q0 -17 -15 -28 q16 -33 53 -33 ZM156 442 q35 0 58.5 28 q23.5 28 23.5 70 q0 47 -23.5 79 q-23.5 32 -58.5 32 q-35 0 -58 -30.5 q-23 -30.5 -23 -77.5 q0 -45 22 -73 q22 -28 59 -28 Z" /><glyph glyph-name="plussuperior" unicode="&#x207a;" d="M22 449 l0 41 l121 0 l0 114 l44 0 l0 -114 l121 0 l0 -41 l-121 0 l0 -114 l-44 0 l0 114 l-121 0 Z" /><glyph glyph-name="hyphensuperior" unicode="&#x207b;" d="M0 441 q0 24 23 23 l19 -1 q18 0 27 0 q7 0 20 0.5 q13 0.5 20 0.5 q24 0 24 -23 q0 -23 -24 -23 q-2 0 -8 0.5 q-6 0.5 -10 0.5 q-9 1 -24 1 q-16 0 -25 -1 q-4 0 -10 -0.5 q-6 -0.5 -8 -0.5 q-24 0 -24 23 Z" /><glyph glyph-name="equalsuperior" unicode="&#x207c;" d="M22 506 l0 39 l286 0 l0 -39 l-286 0 ZM22 406 l0 39 l286 0 l0 -39 l-286 0 Z" /><glyph glyph-name="parenleftsuperior" unicode="&#x207d;" d="M26 364 q-4 24 -4 57 q0 99 45 173 q22 35 50 61 q20 18 43.5 32 q23.5 14 34.5 14 q13 0 13 -11 q0 -8 -13 -15 q-57 -34 -93 -106 q-33 -64 -33 -138 q0 -89 43 -159 q36 -58 89 -93 q6 -4 6 -9 q0 -10 -12 -10 q-15 0 -48 21 q-26 18 -42 34 q-26 27 -48.5 69.5 q-22.5 42.5 -30.5 79.5 Z" /><glyph glyph-name="parenrightsuperior" unicode="&#x207e;" d="M192 501 q7 -35 7 -80 q0 -73 -35 -139 q-23 -42 -47 -67 q-16 -16 -42 -34 q-32 -21 -49 -21 q-11 0 -11 10 q0 6 9 11 q49 30 86 91 q42 70 42 159 q0 74 -33 138 q-17 36 -41.5 63 q-24.5 27 -51.5 43 q-13 7 -13 15 q0 11 13 11 q11 0 34.5 -14.5 q23.5 -14.5 43.5 -31.5 q31 -28 55 -70.5 q24 -42.5 33 -83.5 Z" /><glyph glyph-name="nsuperior" unicode="&#x207f;" d="M109 547 q28 34 77 34 q55 0 78 -37 q17 -27 17 -97 l0 -94 q0 -43 2 -52.5 q2 -9.5 13 -9.5 l6 0 q3 1 7 1 q18 0 18 -23 q0 -22 -21 -22 q-7 0 -22 2.5 q-15 2.5 -23 2.5 q-8 0 -25 -2.5 q-17 -2.5 -25 -2.5 q-22 0 -22 22 q0 9 5.5 16 q5.5 7 12.5 7 q5 0 8 -1 l6 0 q10 0 11.5 9 q1.5 9 3.5 53 l0 28 l0 65 q0 50 -13.5 72 q-13.5 22 -44.5 22 q-32 0 -50.5 -29 q-18.5 -29 -18.5 -78 l0 -80 q0 -43 2.5 -52.5 q2.5 -9.5 12.5 -9.5 l6 0 q3 1 7 1 q18 0 18 -23 q0 -22 -20 -22 q-6 0 -25 4 q-14 1 -25 1 q-14 0 -25 -2 q-18 -3 -22 -3 q-20 0 -20 22 q0 23 18 23 q4 0 8 -1 l6 0 q10 0 12.5 9.5 q2.5 9.5 2.5 52.5 l0 116 q0 42 -3 53 q-3 11 -14 11 q0 0 -1 0 q-1 -1 -1 -1 q-3 0 -6 0 q-4 0 -5 0 q-18 0 -18 21 q0 10 6 17 q6 7 15 7 q5 0 16 -2 q11 -2 17 -2 q10 0 14 1 q9 3 13 3 q11 0 11 -15 l0 -15 Z" /><glyph glyph-name="zeroinferior" unicode="&#x2080;" d="M23 20 q0 107 42 168 q42 61 99 61 q61 0 101 -60 q42 -64 42 -169 q0 -107 -42 -168 q-42 -61 -99 -61 q-60 0 -101.5 61.5 q-41.5 61.5 -41.5 167.5 ZM165 202 q-39 0 -64.5 -51.5 q-25.5 -51.5 -25.5 -130.5 q0 -78 25.5 -130 q25.5 -52 64.5 -52 q39 0 64.5 51.5 q25.5 51.5 25.5 130.5 q0 78 -25.5 130 q-25.5 52 -64.5 52 Z" /><glyph glyph-name="oneinferior" unicode="&#x2081;" d="M151 41 l1 102 l-2 23 q-1 32 -17 32 q-6 0 -16 -2.5 q-10 -2.5 -15 -2.5 q-21 0 -21 23 q0 11 7 18 q7 7 18 7 q10 0 24.5 -2.5 q14.5 -2.5 25.5 -2.5 q11 0 18 2 q13 5 19 5 q10 0 10 -16 q0 -7 0 -7 l-2 -25 q-1 -33 -3 -99 l-1 -56 l2 -156 q1 -29 4.5 -35.5 q3.5 -6.5 18.5 -6.5 q6 0 17 1.5 q11 1.5 17 1.5 q23 0 23 -23 q0 -25 -24 -25 q-12 0 -38 4 q-26 4 -39 4 q-21 0 -46 -4 q-25 -4 -34 -4 q-24 0 -24 23 q0 24 20 24 q6 0 15.5 -2 q9.5 -2 15.5 -2 q22 0 23 36 q0 7 1 32 q2 48 2 133 Z" /><glyph glyph-name="twoinferior" unicode="&#x2082;" d="M91 -71 q-20 -21 -26 -52 q25 35 56 35 q26 0 53 -26 l24 -22 q22 -20 37 -20 q11 0 19.5 11.5 q8.5 11.5 8.5 27.5 q0 1 0 3 q0 3 0 5 q-8 -5 -15 -5 q-12 0 -19 8.5 q-7 8.5 -7 21.5 q0 15 10 25.5 q10 10.5 23 10.5 q20 0 31.5 -18 q11.5 -18 11.5 -50 q0 -39 -18.5 -66 q-18.5 -27 -45.5 -27 q-21 0 -58 29 l-27 21 q-24 19 -42 19 q-12 0 -21 -5.5 q-9 -5.5 -9 -12.5 q0 -3 6 -6 q11 -7 11 -20 q0 -25 -23 -25 q-19 0 -30.5 19 q-11.5 19 -11.5 50 q0 63 33 104 q24 29 98 63 q44 20 61 40.5 q17 20.5 17 53.5 q0 37 -21.5 60 q-21.5 23 -55.5 23 q-32 0 -53.5 -18 q-21.5 -18 -22.5 -47 q28 -3 28 -31 q0 -18 -11 -29.5 q-11 -11.5 -26 -11.5 q-19 0 -29.5 16 q-10.5 16 -10.5 42 q0 53 38 88.5 q38 35.5 94 35.5 q52 0 85 -36 q33 -36 33 -92 q0 -35 -14.5 -65.5 q-14.5 -30.5 -38.5 -46.5 q-19 -12 -56 -27 q-57 -24 -86 -53 Z" /><glyph glyph-name="threeinferior" unicode="&#x2083;" d="M131 56 l100 135 l-100 0 q-40 0 -40 -26 q0 -7 2 -22 q1 -11 1 -21 q0 -32 -21 -32 q-22 0 -22 28 q0 9 2 30 q2 20 1 32 l-1 35 q0 29 18 29 q9 0 25 -2 q20 -1 26 -1 l44 -1 l60 1 l44 3 q1 0 3 0 q28 0 28 -24 q0 -12 -15 -32 l-90 -115 l7 0 q45 0 73 -34 q28 -34 28 -90 q0 -70 -39 -114 q-39 -44 -100 -44 q-56 0 -94 36 q-38 36 -38 89 q0 33 14 54 q14 21 36 21 q34 0 34 -38 q0 -34 -25 -34 q-2 0 -10 2 l0 -7 q0 -31 24.5 -53 q24.5 -22 57.5 -22 q40 0 65.5 31.5 q25.5 31.5 25.5 79.5 q0 37 -18.5 58.5 q-18.5 21.5 -51.5 21.5 q-11 0 -23 -4 q-18 -5 -21 -5 q-18 0 -18 18 q0 5 8 17 Z" /><glyph glyph-name="fourinferior" unicode="&#x2084;" d="M195 -86 l0 15 l-136 0 q-35 0 -35 27 q0 15 16 41 l138 233 q11 17 30 17 q20 0 27 -10.5 q7 -10.5 7 -41.5 l0 -220 l44 0 q25 0 25 -22 q0 -24 -30 -24 l-39 0 l0 -15 l0 -37 q1 -37 22 -37 q4 0 12 1.5 q8 1.5 12 1.5 q22 0 22 -23 q0 -9 -7 -16 q-7 -7 -18 -7 q-10 0 -30.5 4 q-20.5 4 -32.5 4 q-13 0 -37.5 -4 q-24.5 -4 -35.5 -4 q-23 0 -23 23 q0 23 21 23 q3 0 12 -1.5 q9 -1.5 13 -1.5 q19 0 23 29 q0 6 0 45 ZM73 -25 l122 0 l0 205 l-122 -205 Z" /><glyph glyph-name="fiveinferior" unicode="&#x2085;" d="M102 168 l-9 -104 q39 35 85 35 q54 0 87 -40.5 q33 -40.5 33 -105.5 q0 -70 -38.5 -116 q-38.5 -46 -98.5 -46 q-53 0 -90 32.5 q-37 32.5 -37 79.5 q0 26 11.5 43 q11.5 17 29.5 17 q14 0 23.5 -10.5 q9.5 -10.5 9.5 -26.5 q0 -30 -28 -31 q18 -58 79 -58 q40 0 65.5 32.5 q25.5 32.5 25.5 82.5 q0 45 -22.5 73 q-22.5 28 -59.5 28 q-45 0 -70 -41 q-8 -13 -12 -15.5 q-4 -2.5 -15 -2.5 q-23 0 -23 25 q0 13 3 33 q2 25 3 34 q1 15 3 45 q4 47 4 78 l0 15 q0 12 2 16 q2 4 11 4 q5 0 8 0 q51 -4 71 -4 l5 0 l53 1 q7 0 22 1.5 q15 1.5 22 1.5 q9 0 11.5 -3 q2.5 -3 2.5 -13 q0 -9 0 -14 l0 -13 q0 -11 3 -31 q3 -20 3 -29 q0 -20 -19 -20 q-19 0 -20 21 l-2 21 q-1 18 -11 24.5 q-10 6.5 -35 6.5 l-63 0 q-13 0 -17 -4.5 q-4 -4.5 -6 -21.5 Z" /><glyph glyph-name="sixinferior" unicode="&#x2086;" d="M181 205 q-44 0 -70.5 -45 q-26.5 -45 -29.5 -124 q25 33 47.5 46 q22.5 13 53.5 13 q54 0 88 -41 q34 -41 34 -106 q0 -68 -37 -112.5 q-37 -44.5 -94 -44.5 q-35 0 -65.5 19.5 q-30.5 19.5 -45.5 52.5 q-29 64 -29 154 q0 102 41.5 167 q41.5 65 107.5 65 q42 0 71 -27.5 q29 -27.5 29 -67.5 q0 -44 -33 -44 q-13 0 -21.5 9.5 q-8.5 9.5 -8.5 23.5 q0 17 15 29 q-16 33 -53 33 ZM174 48 q-35 0 -58.5 -28.5 q-23.5 -28.5 -23.5 -70.5 q0 -47 23.5 -78.5 q23.5 -31.5 58.5 -31.5 q35 0 58 30.5 q23 30.5 23 77.5 q0 45 -22 73 q-22 28 -59 28 Z" /><glyph glyph-name="seveninferior" unicode="&#x2087;" d="M87 222 q0 -1 0 -6 q-1 -5 -1 -11 q14 22 24.5 29.5 q10.5 7.5 30.5 7.5 q14 0 45.5 -15.5 q31.5 -15.5 49.5 -15.5 q6 0 16 2 q-6 6 -6 15 q0 21 23 21 q34 0 34 -62 q0 -50 -28 -91 q-12 -19 -29 -38 q-37 -44 -47 -76 q-12 -36 -12 -88 q0 -3 0 -10 q0 -7 0 -10 q1 -21 1 -34 q0 -49 -28 -49 q-23 0 -28 29 q-1 8 -1 45 q0 80 29 143 q18 38 62 88 q23 27 31.5 42.5 q8.5 15.5 13.5 41.5 q-21 -18 -40 -18 q-9 0 -19 4 q-5 2 -26 10 q-28 12 -47 12 q-20 0 -34 -15.5 q-14 -15.5 -14 -37.5 q0 -10 1 -21 q2 -18 2 -26 q0 -34 -23 -34 q-23 0 -23 25 q0 13 4 35 q5 26 5 49 q0 11 -2.5 32 q-2.5 21 -2.5 31 q0 23 20 23 q19 0 19 -27 Z" /><glyph glyph-name="eightinferior" unicode="&#x2088;" d="M64 13 q17 19 52 29 q-61 25 -61 93 q0 49 33 81.5 q33 32.5 84 32.5 q48 0 78.5 -31 q30.5 -31 30.5 -80 q0 -65 -59 -96 q76 -25 76 -112 q0 -61 -37 -100 q-37 -39 -97 -39 q-56 0 -94 37.5 q-38 37.5 -38 93.5 q0 53 32 91 ZM169 205 q-28 0 -45.5 -19.5 q-17.5 -19.5 -17.5 -48.5 q0 -29 17.5 -48.5 q17.5 -19.5 44.5 -19.5 q27 0 45 19.5 q18 19.5 18 48.5 q0 29 -18 48.5 q-18 19.5 -44 19.5 ZM165 16 q-36 0 -60 -25 q-24 -25 -24 -64 q0 -41 23 -66.5 q23 -25.5 60 -25.5 q37 0 60.5 25.5 q23.5 25.5 23.5 66.5 q0 41 -22.5 65 q-22.5 24 -60.5 24 Z" /><glyph glyph-name="nineinferior" unicode="&#x2089;" d="M149 -165 q44 0 70.5 45 q26.5 45 29.5 124 q-25 -32 -47.5 -45.5 q-22.5 -13.5 -53.5 -13.5 q-54 0 -88 41 q-34 41 -34 106 q0 68 37.5 112.5 q37.5 44.5 93.5 44.5 q35 0 65.5 -19.5 q30.5 -19.5 45.5 -52.5 q29 -63 29 -155 q0 -102 -41.5 -166.5 q-41.5 -64.5 -107.5 -64.5 q-43 0 -71.5 27.5 q-28.5 27.5 -28.5 67.5 q0 45 33 45 q13 0 21.5 -9.5 q8.5 -9.5 8.5 -25.5 q0 -17 -15 -28 q16 -33 53 -33 ZM156 -8 q35 0 58.5 28 q23.5 28 23.5 70 q0 47 -23.5 79 q-23.5 32 -58.5 32 q-35 0 -58 -30.5 q-23 -30.5 -23 -77.5 q0 -45 22 -73 q22 -28 59 -28 Z" /><glyph glyph-name="uni208A" unicode="&#x208a;" d="M22 -1 l0 41 l121 0 l0 114 l44 0 l0 -114 l121 0 l0 -41 l-121 0 l0 -114 l-44 0 l0 114 l-121 0 Z" /><glyph glyph-name="hypheninferior" unicode="&#x208b;" d="M0 -9 q0 24 23 23 l19 -1 q18 0 27 0 q7 0 20 0.5 q13 0.5 20 0.5 q24 0 24 -23 q0 -23 -24 -23 q-2 0 -8 0.5 q-6 0.5 -10 0.5 q-9 1 -24 1 q-16 0 -25 -1 q-4 0 -10 -0.5 q-6 -0.5 -8 -0.5 q-24 0 -24 23 Z" /><glyph glyph-name="uni208C" unicode="&#x208c;" d="M22 56 l0 39 l286 0 l0 -39 l-286 0 ZM22 -44 l0 39 l286 0 l0 -39 l-286 0 Z" /><glyph glyph-name="parenleftinferior" unicode="&#x208d;" d="M26 -86 q-4 24 -4 57 q0 99 45 173 q22 35 50 61 q20 18 43.5 32 q23.5 14 34.5 14 q13 0 13 -11 q0 -8 -13 -15 q-57 -34 -93 -106 q-33 -64 -33 -138 q0 -89 43 -159 q36 -58 89 -93 q6 -4 6 -9 q0 -10 -12 -10 q-15 0 -48 21 q-26 18 -42 34 q-26 27 -48.5 69.5 q-22.5 42.5 -30.5 79.5 Z" /><glyph glyph-name="parenrightinferior" unicode="&#x208e;" d="M192 51 q7 -35 7 -80 q0 -73 -35 -139 q-23 -42 -47 -67 q-16 -16 -42 -34 q-32 -21 -49 -21 q-11 0 -11 10 q0 6 9 11 q49 30 86 91 q42 70 42 159 q0 74 -33 138 q-17 36 -41.5 63 q-24.5 27 -51.5 43 q-13 7 -13 15 q0 11 13 11 q11 0 34.5 -14.5 q23.5 -14.5 43.5 -31.5 q31 -28 55 -70.5 q24 -42.5 33 -83.5 Z" /><glyph glyph-name="uni2090" unicode="&#x2090;" d="M234 -209 q-38 0 -49 40 q-28 -40 -75 -40 q-39 0 -63.5 27.5 q-24.5 27.5 -24.5 69.5 q0 54 33 76 q24 16 74 23 q28 4 38.5 15 q10.5 11 10.5 36 q0 54 -45 54 q-12 0 -27 -7 q-18 -8 -18 -19 q0 -3 4 -10 q8 -12 8 -24 q0 -28 -29 -28 q-35 0 -35 43 q0 36 27.5 60 q27.5 24 69.5 24 q27 0 50 -11 q25 -13 34 -37 q7 -20 7 -67 l1 -161 q1 -19 11 -19 q15 0 15 47 q0 8 -1 12 l0 7 q0 28 19 28 q22 0 22 -38 q0 -57 -12.5 -79 q-12.5 -22 -44.5 -22 ZM178 -102 q2 16 3 60 q-19 -8 -36 -11 l-30 -6 q-48 -8 -48 -55 q0 -23 13.5 -37.5 q13.5 -14.5 35.5 -14.5 q23 0 40 17.5 q17 17.5 22 46.5 Z" /><glyph glyph-name="uni2091" unicode="&#x2091;" d="M249 -11 q0 -25 -3.5 -30.5 q-3.5 -5.5 -17.5 -5.5 l-132 0 q-15 0 -19 -3 q-4 -3 -4 -15 q0 -44 18.5 -71 q18.5 -27 48.5 -27 q19 0 34 12.5 q15 12.5 21 32.5 l6 22 q4 19 23 19 q21 0 21 -24 q0 -43 -32 -75.5 q-32 -32.5 -74 -32.5 q-53 0 -84 45.5 q-31 45.5 -31 121.5 q0 77 33 125 q33 48 86 48 q47 0 76.5 -40 q29.5 -40 29.5 -102 ZM76 9 q0 -12 17 -12 l83 0 q16 0 20 2.5 q4 2.5 4 13.5 q0 31 -17 52 q-17 21 -42 21 q-39 0 -57 -43 q-6 -17 -7 -28 q-1 -3 -1 -6 Z" /><glyph glyph-name="uni2092" unicode="&#x2092;" d="M142 -209 q-54 0 -86 46 q-32 46 -32 124 q0 78 32 124 q32 46 86 46 q54 0 85.5 -46 q31.5 -46 31.5 -124 q0 -78 -31.5 -124 q-31.5 -46 -85.5 -46 ZM142 87 q-32 0 -51.5 -34.5 q-19.5 -34.5 -19.5 -91.5 q0 -57 19.5 -91 q19.5 -34 51.5 -34 q32 0 51.5 34 q19.5 34 19.5 91 q0 57 -19.5 91.5 q-19.5 34.5 -51.5 34.5 Z" /><glyph glyph-name="uni2093" unicode="&#x2093;" d="M81 -110 l52 80 l-47 75 q-12 20 -16 25 q-12 14 -26 14 l-3 0 q-5 -1 -10 -1 q-20 0 -20 21 q0 9 6.5 16 q6.5 7 15.5 7 q7 0 21.5 -2 q14.5 -2 23.5 -2 q15 0 30 2 q15 2 22 2 q23 0 23 -22 q0 -22 -23 -22 q-7 0 -7 -6 q0 0 10 -17 l30 -51 l42 63 q2 5 2 8 q0 4 -4 4 l-3 0 q-3 -1 -6 -1 q-20 0 -20 21 q0 23 21 23 q8 0 25 -3 q17 -3 26 -3 q8 0 24 3 q16 3 24 3 q20 0 20 -22 q0 -9 -6 -16 q-6 -7 -15 -7 q3 0 -7 1 q-6 1 -9 1 q-11 0 -23 -16 l-12 -17 l-54 -81 l69 -111 q12 -18 27 -18 l2 0 q5 1 10 1 q19 0 19 -22 q0 -9 -6.5 -16 q-6.5 -7 -14.5 -7 q-6 0 -28 4 q-7 1 -23 1 q-21 0 -27 -1 q-26 -4 -26 -4 q-21 0 -21 23 q0 22 22 22 l4 0 q2 0 6 0 q7 0 7 5 q0 5 -9 19 l-11 18 l-29 45 l-42 -62 l-8 -11 q-3 -5 -3 -8 q0 -8 10 -8 l3 0 q2 1 7 1 q20 0 20 -22 q0 -22 -21 -22 q-7 0 -17 2 q-14 2 -18 2 q-9 1 -21 1 q-10 0 -23 -1 q-20 -4 -25 -4 q-9 0 -15.5 6.5 q-6.5 6.5 -6.5 15.5 q0 23 21 23 q5 0 8 -1 q1 0 4 0 q2 -1 4 -1 q13 0 45 50 Z" /><glyph glyph-name="uni2094" unicode="&#x2094;" d="M24 -66 q0 24 3.5 30 q3.5 6 18.5 6 l131 0 q16 0 20 3 q4 3 4 15 q0 44 -18.5 71 q-18.5 27 -49.5 27 q-19 0 -34 -12.5 q-15 -12.5 -20 -32.5 l-6 -23 q-5 -18 -23 -18 q-22 0 -22 24 q0 43 32 75 q32 32 75 32 q52 0 83 -45 q31 -45 31 -122 q0 -76 -33 -124.5 q-33 -48.5 -86 -48.5 q-47 0 -76.5 40 q-29.5 40 -29.5 103 ZM197 -86 q0 12 -17 12 l-83 0 q-16 0 -20 -2.5 q-4 -2.5 -4 -13.5 q0 -31 17.5 -52.5 q17.5 -21.5 42.5 -21.5 q39 0 56 44 q6 16 8 28 q0 3 0 6 Z" /><glyph glyph-name="dong" unicode="&#x20ab;" d="M211 502 q54 0 95 -44 l-1 56 q-40 -2 -42 -2 q-4 -1 -10 -1 q-39 0 -39 36 q0 39 40 39 q4 0 12 -1 q8 -1 12 -1 q13 -1 24 -1 q-5 20 -23 20 l-6 0 q-3 -1 -10 -1 q-29 0 -29 32 q0 14 9.5 24.5 q9.5 10.5 22.5 10.5 q8 0 23.5 -3.5 q15.5 -3.5 23.5 -3.5 q9 0 27 3 q13 4 22 4 q16 0 16 -21 l0 -4 q0 -18 -1 -50 q0 -7 -1 -13 q6 0 15 2 q13 2 19 2 q36 0 36 -37 q0 -35 -43 -35 q-9 0 -13 1 l-15 2 l0 -53 l-2 -73 l0 -288 q5 -40 25 -40 l4 0 q8 1 16 1 q27 0 27 -32 q0 -35 -31 -35 q-6 0 -21 3 q-30 3 -29 3 q-11 0 -22 -3 q-14 -4 -20 -4 q-17 0 -17 24 q0 9 1 22 q-48 -54 -103 -54 q-73 0 -119.5 70 q-46.5 70 -46.5 181 q0 117 48.5 190.5 q48.5 73.5 125.5 73.5 ZM210 431 q-44 0 -71.5 -49.5 q-27.5 -49.5 -27.5 -129.5 l0 -8 q0 -88 25.5 -136.5 q25.5 -48.5 71.5 -48.5 q46 0 72 48.5 q26 48.5 26 134.5 q0 92 -20 135 q-25 54 -76 54 ZM60 -159 l0 60 l340 0 l0 -60 l-340 0 Z" /><glyph glyph-name="Euro" unicode="&#x20ac;" d="M143 248 q24 -188 138 -188 q50 0 78.5 34.5 q28.5 34.5 35.5 115.5 q3 35 40 35 q31 0 31 -44 q0 -84 -52 -148.5 q-52 -64.5 -138 -64.5 q-178 0 -208 260 l-33 -1 q-32 0 -32 29 q0 31 30 31 l31 0 q-1 9 -1 30 q0 20 1 31 l-29 -1 q-32 0 -32 29 q0 31 30 31 l35 0 q15 122 67.5 187 q52.5 65 137.5 65 q38 0 69.5 -18 q31.5 -18 41.5 -47 l0 10 q0 38 8 47 q8 9 22 9 q30 0 30 -38 q0 -19 -3 -57 q-4 -35 -4 -59 l0 -12 q1 -6 1 -13 l2 -31 q0 -7 1 -11 l0 -3 l1 -1 l0 1 l0 0 l0 -2 q0 -35 -30 -35 q-33 0 -33 31 l0 8 q0 151 -102 151 q-114 0 -135 -184 l96 1 q35 0 35 -29 q0 -32 -33 -32 l-3 0 l-99 3 l0 -31 q0 -22 1 -32 l99 1 q35 0 35 -29 q0 -32 -33 -32 l-3 0 l-94 3 Z" /><glyph glyph-name="trademark" unicode="&#x2122;" d="M170 581 l0 -157 q0 -62 2.5 -78.5 q2.5 -16.5 10.5 -16.5 q9 1 9 1 q8 2 10 2 q21 0 21 -23 q0 -25 -25 -25 q-9 0 -27 4 q-9 2 -25 2 q-9 0 -26.5 -3 q-17.5 -3 -25.5 -3 q-24 0 -24 25 q0 23 21 23 q2 0 10 -2 q-1 0 9 -1 q8 0 10.5 17 q2.5 17 2.5 78 l0 131 q0 45 -4.5 56 q-4.5 11 -21.5 11 q-18 0 -24 -5.5 q-6 -5.5 -6 -20.5 q0 -13 1 -28 q1 -15 2 -28 l0 -2 q0 -34 -24 -34 q-22 0 -22 28 q0 6 1 18.5 q1 12.5 1 39.5 q0 9 -1 27 q-1 18 -1 27 q0 24 21 24 q7 0 25 -3 q30 -2 58 -2 q17 0 17 0 l33 1 q13 0 35.5 2 q22.5 2 34.5 2 q20 0 20 -23 q0 -10 -1.5 -30 q-1.5 -20 -1.5 -30 q0 -5 1 -15 q1 -10 1 -19 q0 0 0 -16 q0 -30 -23 -30 q-22 0 -22 32 q0 -1 1 25 q1 26 1 33 q0 18 -6 22.5 q-6 4.5 -19 4.5 q-20 0 -24.5 -6.5 q-4.5 -6.5 -4.5 -34.5 ZM423 633 l60 -267 l60 274 q6 27 20 27 q9 0 16 -2 q14 -2 19 -2 q11 0 27 3 q16 3 21 3 q25 0 25 -25 q0 -22 -21 -22 q-7 0 -10 1 q-3 1 -9 1 q-8 0 -10.5 -17 q-2.5 -17 -2.5 -77 l0 -106 q0 -62 2.5 -78.5 q2.5 -16.5 10.5 -16.5 q9 1 9 1 q8 2 10 2 q21 0 21 -23 q0 -25 -25 -25 q-9 0 -25.5 3 q-16.5 3 -25.5 3 q-8 0 -23.5 -3 q-15.5 -3 -23.5 -3 q-21 0 -21 24 q0 23 23 23 q1 0 4 0 q2 -1 3 -1 l4 0 q11 0 12 21 l3 72 l0 179 l-67 -305 q-4 -18 -26 -18 q-22 0 -26 18 l-68 301 l0 -171 q0 -63 2.5 -80 q2.5 -17 11.5 -17 q5 0 9 1 l8 0 q21 0 21 -22 q0 -25 -23 -25 q-7 0 -20 3 q-13 3 -26 3 q-7 0 -27 -3 q-20 -3 -26 -3 q-25 0 -25 25 q0 23 21 23 q2 0 10 -2 q2 0 5 0 q4 -1 5 -1 q12 0 12 95 l0 102 q0 61 -2.5 77.5 q-2.5 16.5 -10.5 16.5 q-3 0 -7.5 -1 q-4.5 -1 -11.5 -1 q-21 0 -21 22 q0 26 25 26 q-7 0 19 -2 q5 -1 18 -1 q20 0 28 2 q16 2 17 2 q14 0 22 -34 Z" /><glyph glyph-name="Omega" unicode="&#x2126;" d="M289 0 l-261 0 l0 60 l184 0 q-184 107 -184 302 q0 136 88 228.5 q88 92.5 217 92.5 q129 0 217 -92.5 q88 -92.5 88 -228.5 q0 -195 -183 -302 l183 0 l0 -60 l-260 0 l0 55 q87 49 130 108 q61 84 61 192 q0 112 -68.5 190 q-68.5 78 -166.5 78 q-101 0 -169 -77 q-68 -77 -68 -191 q0 -194 192 -300 l0 -55 Z" /><glyph glyph-name="ohminverted" unicode="&#x2127;" d="M377 683 l261 0 l0 -60 l-184 0 q184 -107 184 -302 q0 -136 -88 -228.5 q-88 -92.5 -217 -92.5 q-129 0 -217 92.5 q-88 92.5 -88 228.5 q0 195 183 302 l-183 0 l0 60 l260 0 l0 -55 q-87 -49 -130 -108 q-61 -84 -61 -192 q0 -112 68.5 -190 q68.5 -78 166.5 -78 q101 0 169 77 q68 77 68 191 q0 194 -192 300 l0 55 Z" /><glyph glyph-name="Fturned" unicode="&#x2132;" d="M301 137 l1 33 l0 82 q0 24 -4 30 q-4 6 -21 6 l-23 0 q-51 0 -51 -45 q0 -6 3 -31 l0 -17 q0 -39 -30 -39 q-30 0 -30 34 q0 28 4.5 84 q4.5 56 4.5 84 q0 18 -6 60 q-3 21 -3 34 q0 41 30 41 q32 0 32 -47 q0 -8 -1 -25 q-1 -17 -1 -26 q0 -41 38 -41 l34 0 q18 0 21 7.5 q3 7.5 3 21.5 l0 55 l-2 119 q-1 45 -32 45 q-7 0 -20 -2.5 q-13 -2.5 -20 -2.5 q-31 0 -31 32 q0 39 35 39 q16 0 48 -4.5 q32 -4.5 48 -4.5 q19 0 52.5 6 q33.5 6 49.5 6 q16 0 27 -11.5 q11 -11.5 11 -28.5 q0 -33 -32 -33 q-10 0 -15 2 q-16 2 -18 2 q-19 0 -24 -29.5 q-5 -29.5 -5 -144.5 l0 -190 q0 -116 5 -145.5 q5 -29.5 24 -29.5 q5 0 16 2.5 q11 2.5 17 2.5 q32 0 32 -34 q0 -17 -10.5 -28 q-10.5 -11 -26.5 -11 q-13 0 -58 8 q-17 3 -51 3 q-14 0 -89 -1 q-24 0 -78 -3 q-50 -3 -77 -3 q-29 0 -40 7.5 q-11 7.5 -11 36.5 q0 16 1 44 l2 55 l-1 45 l-3 48 q0 0 0 7 q0 38 30 38 q37 0 37 -43 q0 -6 0 -5 l-3 -40 q-1 -4 -1 -17 q0 -65 14 -85 q14 -20 60 -20 l73 0 q65 0 65 39 l0 28 Z" /><glyph glyph-name="uni215F" unicode="&#x215f;" d="M489 661 q0 -6 -2 -9 l-292 -641 q-9 -19 -36 -19 q-22 0 -22 12 q0 1 4 13 l289 637 q10 21 36 21 q23 0 23 -14 ZM79 583 l0 77 l-1 18 q-1 24 -13 24 q-4 0 -12 -2 q-8 -2 -12 -2 q-16 0 -16 18 q0 8 5.5 13 q5.5 5 14.5 5 q7 0 18 -2 q11 -2 20 -2 q8 0 13 2 q10 4 14 4 q8 0 8 -12 q0 -5 0 -5 l-2 -19 q0 -25 -2 -76 l-1 -42 l2 -118 q1 -22 3.5 -27 q2.5 -5 13.5 -5 q5 0 13.5 1 q8.5 1 12.5 1 q18 0 18 -17 q0 -20 -18 -20 q-10 0 -29.5 3.5 q-19.5 3.5 -29.5 3.5 q-16 0 -35 -3.5 q-19 -3.5 -26 -3.5 q-18 0 -18 19 q0 17 16 17 q4 0 11.5 -1 q7.5 -1 11.5 -1 q17 0 17 27 q0 5 1 24 q2 36 2 101 Z" /><glyph glyph-name="partialdiff" unicode="&#x2202;" d="M221 563 q-63 37 -143 48 l9 60 q85 -12 138 -35 q125 -54 188 -178 q50 -98 50 -215 q0 -113 -61 -183.5 q-61 -70.5 -159 -70.5 q-91 0 -155.5 66.5 q-64.5 66.5 -64.5 158.5 q0 92 60.5 156.5 q60.5 64.5 148.5 64.5 q49 0 82 -17 q33 -17 67 -60 q-2 6 -6 16 q-31 77 -62 114 q-36 42 -92 75 ZM392 218 q0 71 -41.5 115.5 q-41.5 44.5 -106.5 44.5 q-64 0 -108.5 -48 q-44.5 -48 -44.5 -118 q0 -68 44.5 -115.5 q44.5 -47.5 107.5 -47.5 q64 0 106.5 48.5 q42.5 48.5 42.5 120.5 Z" /><glyph glyph-name="Delta" unicode="&#x2206;" d="M638 0 l-609 0 l268 667 l71 0 l270 -667 ZM333 586 l-209 -525 l417 0 l-208 525 Z" /><glyph glyph-name="nabla" unicode="&#x2207;" d="M368 0 l-71 0 l-268 667 l609 0 l-270 -667 ZM541 606 l-417 0 l209 -525 l208 525 Z" /><glyph glyph-name="uni220E" unicode="&#x220e;" d="M63 0 l0 760 l375 0 l0 -760 l-375 0 Z" /><glyph glyph-name="product" unicode="&#x220f;" d="M36 690 l0 60 l623 0 l0 -60 l-78 0 l0 -880 l78 0 l0 -60 l-229 0 l0 60 l83 0 l0 880 l-331 0 l0 -880 l82 0 l0 -60 l-228 0 l0 60 l79 0 l0 880 l-79 0 Z" /><glyph glyph-name="coproduct" unicode="&#x2210;" d="M115 -190 l0 880 l-79 0 l0 60 l228 0 l0 -60 l-82 0 l0 -880 l331 0 l0 880 l-83 0 l0 60 l229 0 l0 -60 l-78 0 l0 -880 l78 0 l0 -60 l-623 0 l0 60 l79 0 Z" /><glyph glyph-name="summation" unicode="&#x2211;" d="M29 750 l567 0 l0 -224 l-61 0 l-6 164 l-425 0 l252 -420 l-253 -460 l436 0 l3 164 l63 0 l0 -224 l-576 0 l0 68 l249 452 l-249 413 l0 67 Z" /><glyph glyph-name="minus" unicode="&#x2212;" d="M46 205 l0 62 l457 0 l0 -62 l-457 0 Z" /><glyph glyph-name="minusplus" unicode="&#x2213;" d="M217 300 l0 182 l63 0 l0 -182 l198 0 l0 -62 l-195 0 l0 -181 l-66 0 l0 181 l-195 0 l0 62 l195 0 ZM478 588 l0 -62 l-456 0 l0 62 l456 0 Z" /><glyph glyph-name="bulletoperator" unicode="&#x2219;" d="M54 270 q-23 0 -38.5 18.5 q-15.5 18.5 -15.5 47.5 q0 28 15.5 47 q15.5 19 38.5 19 q24 0 39.5 -18.5 q15.5 -18.5 15.5 -47.5 q0 -29 -15.5 -47.5 q-15.5 -18.5 -39.5 -18.5 Z" /><glyph glyph-name="radical" unicode="&#x221a;" d="M412 827 l255 0 l0 -61 l-198 0 l-221 -766 l-81 0 l-85 302 l-82 0 l0 60 l136 0 l39 -132 q5 -18 14 -63 q3 -15 16 -74 l5 0 l5 21 l41 170 l156 543 Z" /><glyph glyph-name="infinity" unicode="&#x221e;" d="M499 187 q-92 0 -164 108 q-75 -107 -166 -107 q-66 0 -108 42.5 q-42 42.5 -42 109.5 q0 67 42 109.5 q42 42.5 108 42.5 q93 0 163 -107 q72 107 167 107 q65 0 107 -42.5 q42 -42.5 42 -109.5 q0 -68 -41.5 -110.5 q-41.5 -42.5 -107.5 -42.5 ZM490 432 q-61 0 -123 -92 q60 -92 124 -92 q38 0 63.5 26 q25.5 26 25.5 66 q0 40 -25.5 66 q-25.5 26 -64.5 26 ZM176 247 q62 0 124 93 q-61 92 -124 92 q-39 0 -64 -26 q-25 -26 -25 -66 q0 -41 25 -67 q25 -26 64 -26 Z" /><glyph glyph-name="integral" unicode="&#x222b;" d="M155 -249 q-30 0 -55 10 l15 59 q25 -10 44 -10 q44 0 54 41 q3 13 3 78 l0 630 q0 67 1 80 q5 48 25 73 q31 38 93 38 q28 0 65 -11 l-15 -59 q-26 10 -44 10 q-35 0 -46 -19 q-11 -19 -11 -80 l0 -650 q0 -112 -19 -142 q-31 -48 -110 -48 Z" /><glyph glyph-name="approxequal" unicode="&#x2248;" d="M141 418 q-51 0 -91 -74 l-40 26 q53 113 135 113 q37 0 113 -35 q72 -33 98 -33 q51 0 93 70 l41 -25 q-56 -110 -142 -110 q-32 0 -81 22 l-58 26 q-45 20 -68 20 ZM141 254 q-52 0 -91 -73 l-40 26 q53 113 135 113 q37 0 113 -35 q72 -33 98 -33 q51 0 93 69 l41 -24 q-56 -110 -142 -110 q-32 0 -81 22 l-58 26 q-42 19 -68 19 Z" /><glyph glyph-name="notequal" unicode="&#x2260;" d="M33 440 l240 0 l55 113 l55 0 l-54 -113 l137 0 l1 -60 l-165 0 l-46 -94 l211 0 l0 -61 l-238 0 l-56 -116 l-55 0 l55 116 l-139 0 l0 61 l166 0 l46 94 l-213 0 l0 60 Z" /><glyph glyph-name="lessequal" unicode="&#x2264;" d="M33 404 l434 195 l0 -64 l-362 -161 l361 -160 l1 -64 l-434 195 l0 59 ZM33 120 l434 0 l0 -60 l-434 0 l0 60 Z" /><glyph glyph-name="greaterequal" unicode="&#x2265;" d="M467 345 l-434 -195 l0 64 l362 161 l-361 160 l-1 64 l434 -195 l0 -59 ZM467 60 l-434 0 l0 60 l434 0 l0 -60 Z" /><glyph glyph-name="lozenge" unicode="&#x25ca;" d="M74 334 l259 359 l260 -359 l-260 -360 l-259 360 ZM515 334 l-182 250 l-182 -250 l182 -251 l182 251 Z" /><glyph glyph-name="apple" unicode="&#xf8ff;" d="M332 518 q1 73 40.5 118.5 q39.5 45.5 107.5 54.5 l0 -10 q0 -65 -44.5 -114 q-44.5 -49 -103.5 -49 ZM479 528 q91 0 144 -71 q-80 -62 -80 -140 q0 -106 99 -148 q-79 -196 -169 -196 q-18 0 -40 9 l-41 17 q-10 4 -33 4 q-39 0 -51 -5 l-43 -18 q-19 -8 -38 -8 q-55 0 -111 82 q-84 124 -84 252 q0 97 52 158.5 q52 61.5 135 61.5 q31 0 77 -18 q31 -12 48 -12 q16 0 43 10 q59 22 92 22 Z" /><glyph glyph-name="fi" unicode="&#xfb01;" d="M294 571 q0 17 15 40 q-20 15 -48 15 q-90 0 -90 -107 q0 -27 42 -31 q-5 0 62 2 l42 1 q33 1 39.5 2 q6.5 1 18.5 1 q20 0 20 -20 q0 -3 0 -9 q-1 -8 -1 -12 l-1 -31 l0 -54 l-1 -53 l0 -61 l-1 -55 q0 -8 1 -53 q0 -14 1 -37 q0 -40 8 -46 q4 -2 12 -2 q-4 0 8 1 q8 1 12 1 q28 0 28 -33 q0 -14 -10 -24.5 q-10 -10.5 -24 -10.5 q-7 0 -29 4 q-22 4 -39 4 q-12 0 -34 -4 q-22 -4 -30 -4 q-13 0 -23 11 q-10 11 -10 26 q0 30 22 30 q8 -1 13 -1 l2 0 q19 0 21 35 l2 34 l1 62 l-2 183 q-1 38 -7.5 46 q-6.5 8 -36.5 8 l-34 0 q-57 0 -65.5 -6.5 q-8.5 -6.5 -8.5 -41.5 l0 -239 q0 -81 14 -81 q2 0 5 1 q4 0 5 0 q3 1 9 1 q25 0 25 -28 q0 -16 -9 -28 q-9 -12 -22 -12 q-11 0 -33.5 4 q-22.5 4 -34.5 4 q-17 0 -34 -3 q-28 -5 -32 -5 q-32 0 -32 33 q0 35 30 35 q1 0 5 0 q4 -1 7 -1.5 q3 -0.5 8 -0.5 q18 0 19 34 l2 51 l-1 259 q-1 19 -14 19 q-3 0 -13 -1 l-6 0 q-39 0 -39 36 q0 38 38 38 q4 0 12.5 -1 q8.5 -1 12.5 -1 q13 0 13 16 l0 6 q0 46 9 78 q28 97 148 97 q57 0 96 -28 q39 -28 39 -69 q0 -28 -17 -47 q-17 -19 -42 -19 q-43 0 -43 42 Z" /></font>
</defs>
</svg>
