<?xml version="1.0" standalone="no"?><!DOCTYPE svg PUBLIC "-//W3C//DTD SVG 1.1//EN" "http://www.w3.org/Graphics/SVG/1.1/DTD/svg11.dtd" ><svg xmlns="http://www.w3.org/2000/svg"><metadata></metadata><defs><font id="Quicksand-Medium" horiz-adv-x="1363"><font-face font-family="Quicksand Medium" font-weight="500" font-stretch="normal" units-per-em="1000" panose-1="0 0 6 0 0 0 0 0 0 0" ascent="1000" descent="-250" x-height="0" bbox="-436 -267 1324 1163" underline-thickness="50" underline-position="-75" unicode-range="U+0000-fb02" /><missing-glyph horiz-adv-x="584" d="M40 665 q0 35 35 35 l434 0 q35 0 35 -35 l0 -630 q0 -35 -35 -35 l-434 0 q-35 0 -35 35 l0 630 ZM95 670 q-3 0 -4 -2 q-1 -2 1 -4 l416 -599 q2 -3 4 -2.5 q2 0.5 2 4.5 l0 598 q0 5 -5 5 l-414 0 ZM70 35 q0 -5 5 -5 l413 0 q3 0 4 2 q1 2 -1 4 l-415 599 q-2 3 -4 2.5 q-2 -0.5 -2 -4.5 l0 -598 Z" /><glyph glyph-name="NULL" unicode="" d="" /><glyph glyph-name="nonmarkingreturn" unicode="" d="" /><glyph glyph-name="space" unicode=" " d="" /><glyph glyph-name="A" unicode="a" d="M621 62 q3 -9 3 -19 q0 -20 -13.5 -33 q-13.5 -13 -31.5 -13 q-14 0 -25.5 8.5 q-11.5 8.5 -18.5 23.5 l-62 147 l-309 0 l-61 -148 q-5 -15 -16.5 -23 q-11.5 -8 -25.5 -8 q-21 0 -32 11 q-11 11 -11 30 q0 4 2 16 l255 618 q7 16 19.5 24.5 q12.5 8.5 28.5 6.5 q15 0 27 -8 q12 -8 17 -23 l254 -610 ZM202 267 l233 0 l-117 280 l-116 -280 Z" /><glyph glyph-name="Aogonek" unicode="&#x104;" d="M608 -96 q15 0 25 -10 q10 -10 10 -27 q0 -15 -14.5 -31 q-14.5 -16 -38 -26 q-23.5 -10 -49.5 -10 q-47 0 -78.5 26.5 q-31.5 26.5 -31.5 75.5 q0 49 28 80 q28 31 74 51 l-60 143 l-309 0 l-61 -148 q-5 -15 -16.5 -23 q-11.5 -8 -25.5 -8 q-23 0 -32.5 9.5 q-9.5 9.5 -9.5 29.5 l0 5 q0 8 3 15 l253 616 q7 16 19.5 24.5 q12.5 8.5 28.5 6.5 q15 0 27 -8 q12 -8 17 -23 l261 -628 q4 -7 4 -14 q0 -11 -6.5 -19.5 q-6.5 -8.5 -19.5 -11.5 q-40 -11 -67 -33 q-27 -22 -27 -47 q0 -21 11 -32.5 q11 -11.5 26 -11.5 q16 0 25 12 q12 17 34 17 ZM202 267 l233 0 l-117 280 l-116 -280 Z" /><glyph glyph-name="Aring" unicode="å" d="M621 62 q3 -9 3 -19 q0 -20 -13.5 -33 q-13.5 -13 -31.5 -13 q-14 0 -25.5 8.5 q-11.5 8.5 -18.5 23.5 l-62 147 l-309 0 l-61 -148 q-5 -15 -16.5 -23 q-11.5 -8 -25.5 -8 q-21 0 -32 11 q-11 11 -11 30 q0 4 2 16 l250 606 q-25 14 -40.5 38.5 q-15.5 24.5 -15.5 52.5 q0 43 32.5 74 q32.5 31 76.5 31 q43 0 76 -31 q33 -31 33 -74 q0 -29 -16.5 -54 q-16.5 -25 -42.5 -39 l248 -596 ZM323 798 q-21 0 -35.5 -13 q-14.5 -13 -14.5 -34 q0 -20 14.5 -33.5 q14.5 -13.5 35.5 -13.5 q21 0 35.5 13.5 q14.5 13.5 14.5 33.5 q0 21 -15 34 q-15 13 -35 13 ZM202 267 l233 0 l-117 280 l-116 -280 Z" /><glyph glyph-name="AE" unicode="æ" d="M807 92 q21 0 35 -14 q14 -14 14 -33 q0 -20 -14 -32.5 q-14 -12.5 -35 -12.5 l-331 0 q-20 0 -34 14 q-14 14 -14 34 l0 106 l-249 0 l-94 -138 q-15 -20 -35 -20 q-17 0 -30 12 q-13 12 -14 31 q-1 15 9 32 l425 608 q16 21 44 21 l323 0 q21 0 35 -13 q14 -13 14 -34 q0 -20 -14 -32.5 q-14 -12.5 -35 -12.5 l-281 0 l0 -207 l236 0 q21 0 35 -13 q14 -13 14 -34 q0 -20 -14 -32.5 q-14 -12.5 -35 -12.5 l-236 0 l0 -217 l281 0 ZM428 518 l-187 -274 l187 0 l0 274 Z" /><glyph glyph-name="B" unicode="b" d="M484 382 q55 -19 90.5 -62.5 q35.5 -43.5 35.5 -113.5 q0 -111 -64.5 -158.5 q-64.5 -47.5 -157.5 -47.5 l-257 0 q-20 0 -34 14 q-14 14 -14 34 l0 604 q0 20 14 34 q14 14 34 14 l257 0 q91 0 138.5 -45 q47.5 -45 47.5 -130 q0 -48 -23 -85.5 q-23 -37.5 -67 -57.5 ZM471 510 q0 47 -25.5 71.5 q-25.5 24.5 -71.5 24.5 l-189 0 l0 -195 l191 0 q41 1 68 26.5 q27 25.5 27 72.5 ZM387 92 q55 0 88 28.5 q33 28.5 33 85.5 q0 111 -126 111 l-197 0 l0 -225 l202 0 Z" /><glyph glyph-name="C" unicode="c" d="M582 659 q24 -13 24 -40 q0 -18 -12 -33 q-12 -16 -33 -16 q-14 0 -27 7 q-62 35 -134 35 q-75 0 -132.5 -33 q-57.5 -33 -89.5 -92.5 q-32 -59.5 -32 -136.5 q0 -83 33 -143 q33 -60 91 -91.5 q58 -31.5 130 -31.5 q74 0 134 36 q12 6 26 6 q22 0 35 -17 q12 -15 12 -32 q0 -12 -6.5 -22.5 q-6.5 -10.5 -17.5 -16.5 q-39 -22 -87.5 -35 q-48.5 -13 -95.5 -13 q-97 0 -178.5 43 q-81.5 43 -130 125 q-48.5 82 -48.5 192 q0 101 46.5 182.5 q46.5 81.5 128 128 q81.5 46.5 182.5 46.5 q97 0 182 -48 Z" /><glyph glyph-name="Ccedilla" unicode="ç" d="M595 109 q12 -15 12 -32 q0 -12 -6.5 -22.5 q-6.5 -10.5 -17.5 -16.5 q-37 -21 -81.5 -34 q-44.5 -13 -89.5 -14 l-45 -111 q-10 -27 -34 -27 q-16 0 -36 12 q-20 12 -20 28 q0 14 10 25 l59 77 q-85 11 -154 57 q-69 46 -109 122.5 q-40 76.5 -40 176.5 q0 101 46.5 182.5 q46.5 81.5 128 128 q81.5 46.5 182.5 46.5 q97 0 182 -48 q24 -13 24 -40 q0 -18 -12 -33 q-12 -16 -33 -16 q-14 0 -27 7 q-62 35 -134 35 q-75 0 -132.5 -33 q-57.5 -33 -89.5 -92.5 q-32 -59.5 -32 -136.5 q0 -83 33 -143 q33 -60 91 -91.5 q58 -31.5 130 -31.5 q74 0 134 36 q12 6 26 6 q22 0 35 -17 Z" /><glyph glyph-name="uni1E08" unicode="&#x1e08;" d="M376 741 q-15 0 -23.5 7.5 q-8.5 7.5 -8.5 20.5 q0 13 12 23 l88 74 q21 17 40 17 q17 0 30.5 -12 q13.5 -12 13.5 -29 q0 -13 -8 -25 q-8 -12 -22 -19 l-99 -51 q-12 -6 -23 -6 ZM595 109 q12 -15 12 -32 q0 -12 -6.5 -22.5 q-6.5 -10.5 -17.5 -16.5 q-37 -21 -81.5 -34 q-44.5 -13 -89.5 -14 l-45 -111 q-10 -27 -34 -27 q-16 0 -36 12 q-20 12 -20 28 q0 14 10 25 l59 77 q-85 11 -154 57 q-69 46 -109 122.5 q-40 76.5 -40 176.5 q0 101 46.5 182.5 q46.5 81.5 128 128 q81.5 46.5 182.5 46.5 q97 0 182 -48 q24 -13 24 -40 q0 -18 -12 -33 q-12 -16 -33 -16 q-14 0 -27 7 q-62 35 -134 35 q-75 0 -132.5 -33 q-57.5 -33 -89.5 -92.5 q-32 -59.5 -32 -136.5 q0 -83 33 -143 q33 -60 91 -91.5 q58 -31.5 130 -31.5 q74 0 134 36 q12 6 26 6 q22 0 35 -17 Z" /><glyph glyph-name="D" unicode="d" d="M377 700 q94 0 161 -47 q67 -47 101 -126.5 q34 -79.5 34 -176.5 q0 -98 -34 -177.5 q-34 -79.5 -101 -126 q-67 -46.5 -161 -46.5 l-246 0 q-20 0 -34 14 q-14 14 -14 34 l0 604 q0 20 14 34 q14 14 34 14 l246 0 ZM367 92 q102 0 153 72.5 q51 72.5 51 185.5 q0 112 -51.5 185 q-51.5 73 -152.5 73 l-185 0 l0 -516 l185 0 Z" /><glyph glyph-name="Eth" unicode="ð" d="M377 700 q94 0 161 -47 q67 -47 101 -126.5 q34 -79.5 34 -176.5 q0 -98 -34 -177.5 q-34 -79.5 -101 -126 q-67 -46.5 -161 -46.5 l-246 0 q-20 0 -34 14 q-14 14 -14 34 l0 260 l-30 0 q-21 0 -34.5 12.5 q-13.5 12.5 -13.5 32.5 q0 19 13.5 31 q13.5 12 34.5 12 l30 0 l0 256 q0 20 14 34 q14 14 34 14 l246 0 ZM367 92 q102 0 153 72.5 q51 72.5 51 185.5 q0 112 -51.5 185 q-51.5 73 -152.5 73 l-185 0 l0 -212 l41 0 q21 0 34.5 -12.5 q13.5 -12.5 13.5 -31.5 q0 -19 -13.5 -31.5 q-13.5 -12.5 -34.5 -12.5 l-41 0 l0 -216 l185 0 Z" /><glyph glyph-name="E" unicode="e" d="M479 92 q21 0 34.5 -14 q13.5 -14 13.5 -33 q0 -20 -13.5 -32.5 q-13.5 -12.5 -34.5 -12.5 l-348 0 q-20 0 -34 14 q-14 14 -14 34 l0 604 q0 20 14 34 q14 14 34 14 l348 0 q21 0 34.5 -13 q13.5 -13 13.5 -34 q0 -20 -13.5 -32.5 q-13.5 -12.5 -34.5 -12.5 l-297 0 l0 -204 l252 0 q21 0 34.5 -13 q13.5 -13 13.5 -33 q0 -21 -13.5 -33 q-13.5 -12 -34.5 -12 l-252 0 l0 -221 l297 0 Z" /><glyph glyph-name="uni1E1C" unicode="&#x1e1c;" d="M311 765 q-54 0 -93.5 25 q-39.5 25 -55.5 71 q-4 9 -4 18 q0 13 7.5 20 q7.5 7 20.5 7 q16 0 25 -7 q9 -7 23 -24 q25 -40 77 -40 q54 0 77 40 q10 16 20.5 23 q10.5 7 26.5 7 q14 0 21.5 -6.5 q7.5 -6.5 7.5 -19.5 q0 -8 -3 -17 q-16 -46 -55.5 -71.5 q-39.5 -25.5 -94.5 -25.5 ZM479 92 q21 0 34.5 -14 q13.5 -14 13.5 -33 q0 -20 -13.5 -32.5 q-13.5 -12.5 -34.5 -12.5 l-158 0 l-49 -121 q-10 -27 -34 -27 q-16 0 -36 12 q-20 12 -20 28 q0 14 10 25 l64 83 l-125 0 q-20 0 -34 14 q-14 14 -14 34 l0 604 q0 20 14 34 q14 14 34 14 l348 0 q21 0 34.5 -13 q13.5 -13 13.5 -34 q0 -20 -13.5 -32.5 q-13.5 -12.5 -34.5 -12.5 l-297 0 l0 -204 l252 0 q21 0 34.5 -13 q13.5 -13 13.5 -33 q0 -21 -13.5 -33 q-13.5 -12 -34.5 -12 l-252 0 l0 -221 l297 0 Z" /><glyph glyph-name="Eogonek" unicode="&#x118;" d="M479 92 q21 0 34.5 -13 q13.5 -13 13.5 -34 q0 -19 -12.5 -29.5 q-12.5 -10.5 -35.5 -15.5 q-41 -8 -68.5 -30.5 q-27.5 -22.5 -27.5 -49.5 q0 -21 11.5 -33 q11.5 -12 26.5 -12 q16 0 25 12 q12 17 35 17 q15 0 24.5 -10 q9.5 -10 9.5 -27 q0 -15 -14.5 -31 q-14.5 -16 -38 -26 q-23.5 -10 -49.5 -10 q-47 0 -78.5 26.5 q-31.5 26.5 -31.5 75.5 q0 57 60 98 l-232 0 q-20 0 -34 14 q-14 14 -14 34 l0 604 q0 20 14 34 q14 14 34 14 l348 0 q21 0 34.5 -13 q13.5 -13 13.5 -34 q0 -18 -13.5 -31 q-13.5 -13 -34.5 -13 l-297 0 l0 -205 l252 0 q21 0 34.5 -13 q13.5 -13 13.5 -33 q0 -18 -14 -31.5 q-14 -13.5 -34 -13.5 l-252 0 l0 -221 l297 0 Z" /><glyph glyph-name="F" unicode="f" d="M181 608 l0 -207 l246 0 q21 0 34.5 -13 q13.5 -13 13.5 -34 q0 -18 -13.5 -31 q-13.5 -13 -34.5 -13 l-246 0 l0 -262 q0 -20 -14.5 -34 q-14.5 -14 -34.5 -14 q-21 0 -35 14 q-14 14 -14 34 l0 604 q0 20 14 34 q14 14 34 14 l341 0 q21 0 34.5 -13 q13.5 -13 13.5 -34 q0 -18 -14 -31.5 q-14 -13.5 -34 -13.5 l-291 0 Z" /><glyph glyph-name="G" unicode="g" d="M597 368 q20 0 33.5 -14 q13.5 -14 13.5 -34 l0 -225 q0 -27 -24 -42 q-46 -30 -101 -46.5 q-55 -16.5 -113 -16.5 q-100 0 -183.5 48 q-83.5 48 -131.5 130.5 q-48 82.5 -48 181.5 q0 99 48 181.5 q48 82.5 131.5 130.5 q83.5 48 183.5 48 q50 0 96.5 -11 q46.5 -11 83.5 -33 q12 -7 18 -17 q6 -10 6 -22 q0 -20 -13.5 -34.5 q-13.5 -14.5 -32.5 -14.5 q-15 0 -26 7 q-65 30 -132 30 q-72 0 -131.5 -35 q-59.5 -35 -94 -96 q-34.5 -61 -34.5 -134 q0 -73 34.5 -133.5 q34.5 -60.5 94 -96 q59.5 -35.5 131.5 -35.5 q34 0 71.5 8 q37.5 8 64.5 21 l0 159 l-121 0 q-20 0 -34 13.5 q-14 13.5 -14 33.5 q0 21 14 34.5 q14 13.5 34 13.5 l176 0 Z" /><glyph glyph-name="H" unicode="h" d="M587 700 q22 0 36 -13.5 q14 -13.5 14 -34.5 l0 -603 q-1 -21 -15 -35 q-14 -14 -36 -14 q-20 0 -34.5 14 q-14.5 14 -14.5 35 l0 259 l-355 0 l0 -259 q0 -21 -15 -35 q-15 -14 -35 -14 q-22 0 -35.5 14 q-13.5 14 -13.5 35 l0 603 q0 20 14 34 q14 14 36 14 q20 0 34.5 -14 q14.5 -14 14.5 -34 l0 -252 l355 0 l0 252 q0 20 15 34 q15 14 35 14 Z" /><glyph glyph-name="Hbar" unicode="&#x126;" d="M716 571 q18 0 30 -11.5 q12 -11.5 12 -29.5 q0 -17 -12 -28.5 q-12 -11.5 -30 -11.5 l-31 0 l0 -441 q-1 -21 -15 -35 q-14 -14 -36 -14 q-20 0 -34.5 14 q-14.5 14 -14.5 35 l0 259 l-355 0 l0 -259 q0 -21 -15 -35 q-15 -14 -35 -14 q-22 0 -35.5 14 q-13.5 14 -13.5 35 l0 441 l-31 0 q-18 0 -29.5 11.5 q-11.5 11.5 -11.5 29.5 q0 17 11.5 28.5 q11.5 11.5 29.5 11.5 l31 0 l0 81 q0 20 14 34 q14 14 36 14 q20 0 34.5 -14 q14.5 -14 14.5 -34 l0 -81 l355 0 l0 81 q0 20 15 34 q15 14 35 14 q22 0 36 -13.5 q14 -13.5 14 -34.5 l0 -81 l31 0 ZM585 400 l0 90 l-355 0 l0 -90 l355 0 Z" /><glyph glyph-name="I" unicode="i" d="M182 49 q0 -21 -15 -35 q-15 -14 -35 -14 q-22 0 -35.5 14 q-13.5 14 -13.5 35 l0 603 q0 20 14 34 q14 14 36 14 q20 0 34.5 -14 q14.5 -14 14.5 -34 l0 -603 Z" /><glyph glyph-name="IJ" unicode="&#x132;" d="M279 -10 q-59 0 -108.5 28 q-49.5 28 -78.5 77 q-9 14 -9 27 q0 19 15 32.5 q15 13.5 31 13.5 q22 0 45 -25 q39 -58 105 -58 q55 0 93 37 q38 37 38 91 l0 439 q0 20 15 34 q15 14 35 14 q22 0 35.5 -13.5 q13.5 -13.5 13.5 -34.5 l0 -439 q0 -61 -30 -112 q-30 -51 -82.5 -81 q-52.5 -30 -117.5 -30 ZM191 295 q0 -20 -15 -34 q-15 -14 -35 -14 q-22 0 -35.5 13.5 q-13.5 13.5 -13.5 34.5 l0 357 q0 20 14.5 34 q14.5 14 36.5 14 q19 0 33.5 -14 q14.5 -14 14.5 -34 l0 -357 Z" /><glyph glyph-name="Iogonek" unicode="&#x12e;" d="" /><glyph glyph-name="J" unicode="j" d="M247 -10 q-59 0 -108.5 28 q-49.5 28 -78.5 77 q-9 14 -9 27 q0 19 15 32.5 q15 13.5 31 13.5 q22 0 45 -25 q39 -58 105 -58 q55 0 93 37 q38 37 38 91 l0 439 q0 20 15 34 q15 14 35 14 q22 0 35.5 -13.5 q13.5 -13.5 13.5 -34.5 l0 -439 q0 -61 -30 -112 q-30 -51 -82.5 -81 q-52.5 -30 -117.5 -30 Z" /><glyph glyph-name="K" unicode="k" d="M615 81 q11 -14 11 -33 q0 -22 -16.5 -36 q-16.5 -14 -37.5 -14 q-20 0 -35 18 l-243 313 l-112 -106 l0 -174 q0 -21 -14 -35 q-14 -14 -36 -14 q-22 0 -35.5 14 q-13.5 14 -13.5 35 l0 603 q0 20 14 34 q14 14 36 14 q22 0 35.5 -13.5 q13.5 -13.5 13.5 -34.5 l0 -311 l355 344 q19 17 38 17 q18 0 31 -15 q13 -15 13 -32 q0 -15 -14 -31 l-237 -224 l247 -319 Z" /><glyph glyph-name="L" unicode="l" d="M469 93 q21 0 34.5 -13 q13.5 -13 13.5 -34 q0 -20 -13.5 -33 q-13.5 -13 -34.5 -13 l-338 0 q-21 0 -34.5 14 q-13.5 14 -13.5 34 l0 604 q0 20 14 34 q14 14 36 14 q20 0 34.5 -14 q14.5 -14 14.5 -34 l0 -559 l287 0 Z" /><glyph glyph-name="Lcaron" unicode="&#x13d;" d="M469 95 q21 0 34.5 -14 q13.5 -14 13.5 -34 q0 -20 -13.5 -33.5 q-13.5 -13.5 -34.5 -13.5 l-338 0 q-21 0 -34.5 14 q-13.5 14 -13.5 34 l0 604 q0 20 14 34 q14 14 34 14 q20 0 33.5 -14 q13.5 -14 13.5 -34 l0 -549 q0 -8 8 -8 l283 0 ZM516 602 q0 -25 -16 -57.5 q-16 -32.5 -40.5 -55.5 q-24.5 -23 -50.5 -23 q-17 0 -28 8.5 q-11 8.5 -11 24.5 q0 14 7 19.5 q7 5.5 16.5 8.5 q9.5 3 14.5 5 q14 7 21.5 18.5 q7.5 11.5 7.5 25.5 q0 11 -9 19 q-9 8 -23 8 q-16 0 -27 -8 q-10 5 -15 12.5 q-5 7.5 -5 20.5 q1 24 26 42.5 q25 18.5 53 18.5 q37 0 58 -23 q21 -23 21 -64 Z" /><glyph glyph-name="Lslash" unicode="&#x141;" d="M530 95 q21 0 34.5 -14 q13.5 -14 13.5 -34 q0 -20 -13.5 -33.5 q-13.5 -13.5 -34.5 -13.5 l-338 0 q-21 0 -34.5 14 q-13.5 14 -13.5 34 l0 270 l-46 -20 q-12 -4 -18 -4 q-19 0 -29.5 13.5 q-10.5 13.5 -10.5 29.5 q0 11 6.5 21 q6.5 10 18.5 15 l79 35 l0 244 q0 20 14 34 q14 14 34 14 q20 0 33.5 -14 q13.5 -14 13.5 -34 l0 -202 l91 40 q8 4 19 4 q19 0 29.5 -13.5 q10.5 -13.5 10.5 -28.5 q0 -24 -26 -37 l-124 -55 l0 -265 l291 0 Z" /><glyph glyph-name="M" unicode="m" d="M691 701 q20 -1 34 -14.5 q14 -13.5 14 -33.5 l0 -605 q0 -20 -13.5 -34 q-13.5 -14 -35.5 -14 q-22 0 -36 13.5 q-14 13.5 -14 34.5 l0 463 l-194 -294 q-7 -9 -17.5 -15 q-10.5 -6 -21.5 -5 q-10 -1 -20.5 5 q-10.5 6 -17.5 15 l-195 303 l0 -472 q0 -21 -12.5 -34.5 q-12.5 -13.5 -33.5 -13.5 q-20 0 -32.5 13.5 q-12.5 13.5 -12.5 34.5 l0 605 q0 19 14 33.5 q14 14.5 35 14.5 q12 0 23.5 -6 q11.5 -6 18.5 -16 l237 -359 l240 359 q16 22 40 22 Z" /><glyph glyph-name="N" unicode="n" d="M606 700 q19 0 31 -12.5 q12 -12.5 12 -31.5 l0 -607 q0 -21 -13.5 -35 q-13.5 -14 -34.5 -14 q-11 0 -21.5 3.5 q-10.5 3.5 -16.5 10.5 l-393 512 l0 -482 q0 -19 -12.5 -31.5 q-12.5 -12.5 -31.5 -12.5 q-19 0 -31 12.5 q-12 12.5 -12 31.5 l0 608 q0 21 13.5 34.5 q13.5 13.5 33.5 13.5 q12 0 23 -4.5 q11 -4.5 17 -12.5 l392 -513 l0 486 q0 19 12.5 31.5 q12.5 12.5 31.5 12.5 Z" /><glyph glyph-name="Eng" unicode="&#x14a;" d="M622 699 q20 0 33.5 -14 q13.5 -14 13.5 -34 l0 -674 q0 -88 -46.5 -132.5 q-46.5 -44.5 -126.5 -44.5 q-24 0 -39 11 q-15 11 -15 31 q0 19 13 32 q13 13 33 14 q47 1 66.5 21.5 q19.5 20.5 19.5 63.5 l0 56 l-396 495 l0 -476 q0 -20 -14 -34 q-14 -14 -34 -14 q-20 0 -33.5 14 q-13.5 14 -13.5 34 l0 604 q0 21 14 34.5 q14 13.5 34 13.5 q24 0 40 -21 l403 -505 l0 477 q0 20 14 34 q14 14 34 14 Z" /><glyph glyph-name="uni019D" unicode="&#x19d;" d="M605 700 q19 0 31.5 -12.5 q12.5 -12.5 12.5 -31.5 l0 -607 q0 -21 -13.5 -35 q-13.5 -14 -34.5 -14 q-11 0 -21.5 3.5 q-10.5 3.5 -16.5 10.5 l-390 508 l0 -547 q0 -98 -50 -132.5 q-50 -34.5 -101 -39.5 q-19 0 -32 13 q-13 13 -13 31 q0 24 10 35 q10 11 31 17 q65 17 65 100 l0 653 q0 21 13.5 34.5 q13.5 13.5 33.5 13.5 q12 0 23 -4.5 q11 -4.5 17 -12.5 l389 -509 l0 482 q0 19 13 31.5 q13 12.5 33 12.5 Z" /><glyph glyph-name="O" unicode="o" d="M719 350 q0 -101 -43.5 -183 q-43.5 -82 -120.5 -129.5 q-77 -47.5 -174 -47.5 q-97 0 -174 47.5 q-77 47.5 -120.5 129.5 q-43.5 82 -43.5 183 q0 101 43.5 183 q43.5 82 120.5 129.5 q77 47.5 174 47.5 q97 0 174 -47.5 q77 -47.5 120.5 -129.5 q43.5 -82 43.5 -183 ZM616 350 q0 75 -30 135.5 q-30 60.5 -83.5 95 q-53.5 34.5 -121.5 34.5 q-68 0 -121.5 -34 q-53.5 -34 -83.5 -94.5 q-30 -60.5 -30 -136.5 q0 -75 30 -135.5 q30 -60.5 83.5 -95 q53.5 -34.5 121.5 -34.5 q68 0 121.5 34.5 q53.5 34.5 83.5 95 q30 60.5 30 135.5 Z" /><glyph glyph-name="Ohorn" unicode="&#x1a0;" d="M573 650 q68 -48 107 -127 q39 -79 39 -173 q0 -101 -43.5 -183 q-43.5 -82 -120.5 -129.5 q-77 -47.5 -174 -47.5 q-97 0 -174 47.5 q-77 47.5 -120.5 129.5 q-43.5 82 -43.5 183 q0 101 43.5 183 q43.5 82 120.5 129.5 q77 47.5 174 47.5 q48 0 90 -12 q75 6 75 68 q0 18 10.5 32 q10.5 14 29.5 14 q21 0 30.5 -14 q9.5 -14 9.5 -32 q0 -36 -13.5 -66 q-13.5 -30 -39.5 -50 ZM381 85 q68 0 121.5 34.5 q53.5 34.5 83.5 95 q30 60.5 30 135.5 q0 75 -30 135.5 q-30 60.5 -83.5 95 q-53.5 34.5 -121.5 34.5 q-68 0 -121.5 -34 q-53.5 -34 -83.5 -94.5 q-30 -60.5 -30 -136.5 q0 -75 30 -135.5 q30 -60.5 83.5 -95 q53.5 -34.5 121.5 -34.5 Z" /><glyph glyph-name="uni01EA" unicode="&#x1ea;" d="M453 -3 q-33 -12 -50.5 -33 q-17.5 -21 -17.5 -44 q0 -21 11 -33 q11 -12 27 -12 q15 0 23 11 q14 18 36 18 q15 0 25 -10 q10 -10 10 -27 q0 -15 -14.5 -31 q-14.5 -16 -38 -26 q-23.5 -10 -49.5 -10 q-47 0 -78.5 26.5 q-31.5 26.5 -31.5 75.5 q0 52 35 90 q-86 10 -154 59.5 q-68 49.5 -105.5 127.5 q-37.5 78 -37.5 171 q0 101 43.5 183 q43.5 82 120.5 129.5 q77 47.5 174 47.5 q97 0 174 -47.5 q77 -47.5 120.5 -129.5 q43.5 -82 43.5 -183 q0 -87 -33.5 -161.5 q-33.5 -74.5 -94 -124.5 q-60.5 -50 -138.5 -67 ZM146 350 q0 -75 30 -135.5 q30 -60.5 83.5 -95 q53.5 -34.5 121.5 -34.5 q68 0 121.5 34.5 q53.5 34.5 83.5 95 q30 60.5 30 135.5 q0 75 -30 135.5 q-30 60.5 -83.5 95 q-53.5 34.5 -121.5 34.5 q-68 0 -121.5 -34 q-53.5 -34 -83.5 -94.5 q-30 -60.5 -30 -136.5 Z" /><glyph glyph-name="Oslash" unicode="ø" d="M624 606 q45 -49 70 -115 q25 -66 25 -141 q0 -101 -43.5 -183 q-43.5 -82 -120.5 -129.5 q-77 -47.5 -174 -47.5 q-117 0 -205 69 l-55 -68 q-16 -19 -35 -19 q-15 0 -27.5 12 q-12.5 12 -12.5 28 q0 15 9 27 l64 78 q-37 47 -56.5 106.5 q-19.5 59.5 -19.5 126.5 q0 101 43.5 183 q43.5 82 120.5 129.5 q77 47.5 174 47.5 q101 0 181 -52 l53 65 q13 16 33 16 q16 0 28.5 -11 q12.5 -11 12.5 -27 q0 -15 -10 -28 l-55 -67 ZM146 350 q0 -86 39 -152 l315 384 q-53 33 -119 33 q-68 0 -121.5 -34 q-53.5 -34 -83.5 -94.5 q-30 -60.5 -30 -136.5 ZM381 85 q68 0 121.5 34.5 q53.5 34.5 83.5 95 q30 60.5 30 135.5 q0 105 -56 178 l-322 -394 q62 -49 143 -49 Z" /><glyph glyph-name="OE" unicode="&#x152;" d="M885 95 q21 0 35 -14 q14 -14 14 -34 q0 -20 -14 -33.5 q-14 -13.5 -35 -13.5 l-545 0 q-94 0 -161.5 46.5 q-67.5 46.5 -101.5 126 q-34 79.5 -34 177.5 q0 97 34.5 176.5 q34.5 79.5 101.5 126.5 q67 47 161 47 l545 0 q21 0 35 -14 q14 -14 14 -34 q0 -20 -14 -33.5 q-14 -13.5 -35 -13.5 l-291 0 l0 -207 l246 0 q21 0 35 -13.5 q14 -13.5 14 -34.5 q0 -20 -14 -33.5 q-14 -13.5 -35 -13.5 l-246 0 l0 -208 l291 0 ZM138 350 q0 -113 51 -184 q51 -71 154 -71 l156 0 l0 510 l-156 0 q-102 0 -153.5 -72 q-51.5 -72 -51.5 -183 Z" /><glyph glyph-name="P" unicode="p" d="M363 700 q53 0 98 -28.5 q45 -28.5 71.5 -77.5 q26.5 -49 26.5 -108 q0 -59 -26.5 -109 q-26.5 -50 -71.5 -79 q-45 -29 -98 -29 l-188 0 l0 -221 q0 -20 -13 -34 q-13 -14 -33 -14 q-21 0 -33.5 13.5 q-12.5 13.5 -12.5 34.5 l0 604 q0 20 14 34 q14 14 34 14 l232 0 ZM363 360 q27 0 50 17.5 q23 17.5 36.5 46.5 q13.5 29 13.5 62 q0 51 -29.5 86.5 q-29.5 35.5 -70.5 35.5 l-188 0 l0 -248 l188 0 Z" /><glyph glyph-name="Thorn" unicode="þ" d="M359 603 q53 0 98 -28.5 q45 -28.5 71.5 -77.5 q26.5 -49 26.5 -109 q0 -59 -27 -108.5 q-27 -49.5 -72 -78.5 q-45 -29 -97 -29 l-181 0 l0 -124 q0 -20 -14 -34 q-14 -14 -34 -14 q-21 0 -34 13.5 q-13 13.5 -13 34.5 l0 644 q0 20 14 34 q14 14 34 14 q21 0 34 -13.5 q13 -13.5 13 -34.5 l0 -89 l181 0 ZM359 267 q41 0 71 35.5 q30 35.5 30 85.5 q0 51 -29.5 85.5 q-29.5 34.5 -71.5 34.5 l-181 0 l0 -241 l181 0 Z" /><glyph glyph-name="Q" unicode="q" d="M741 -40 q17 0 30.5 -13.5 q13.5 -13.5 13.5 -31.5 q0 -26 -32 -50 q-32 -24 -78 -39 q-46 -15 -84 -15 q-61 0 -99 12 q-38 12 -79 35 q-31 17 -51 24.5 q-20 7.5 -47 7.5 q-12 0 -22.5 -3.5 q-10.5 -3.5 -20.5 -8.5 q-24 -12 -45 -12 q-19 0 -32.5 14.5 q-13.5 14.5 -13.5 32.5 q0 31 27 41 l112 41 q-81 14 -144 64 q-63 50 -98 126 q-35 76 -35 165 q0 101 43.5 183 q43.5 82 120.5 129.5 q77 47.5 174 47.5 q97 0 174 -47.5 q77 -47.5 120.5 -129.5 q43.5 -82 43.5 -183 q0 -88 -33.5 -162 q-33.5 -74 -93.5 -124 q-60 -50 -138 -66 l-76 -28 q25 -3 45.5 -11.5 q20.5 -8.5 49.5 -23.5 q36 -18 63 -27.5 q27 -9.5 60 -9.5 q29 0 50 8 q21 8 40 22 q8 6 18.5 14.5 q10.5 8.5 19 13 q8.5 4.5 17.5 4.5 ZM146 350 q0 -75 30 -135.5 q30 -60.5 83.5 -95 q53.5 -34.5 121.5 -34.5 q68 0 121.5 34.5 q53.5 34.5 83.5 95 q30 60.5 30 135.5 q0 75 -30 135.5 q-30 60.5 -83.5 95 q-53.5 34.5 -121.5 34.5 q-68 0 -121.5 -34 q-53.5 -34 -83.5 -94.5 q-30 -60.5 -30 -136.5 Z" /><glyph glyph-name="R" unicode="r" d="M616 80 q10 -7 16 -17.5 q6 -10.5 6 -21.5 q0 -21 -13.5 -31 q-13.5 -10 -32.5 -10 q-19 0 -32 8 q-30 17 -49 55 q-19 38 -19 112 q0 50 -30 74 q-30 24 -78 24 l-202 0 l0 -225 q0 -21 -12 -34.5 q-12 -13.5 -31 -13.5 q-23 0 -39.5 14 q-16.5 14 -16.5 34 l0 604 q0 20 14 34 q14 14 34 14 l281 0 q54 0 99 -26.5 q45 -26.5 72 -73 q27 -46.5 27 -104.5 q0 -56 -30 -104.5 q-30 -48.5 -77 -72.5 q37 -19 58.5 -53 q21.5 -34 23.5 -79 q4 -57 9 -77.5 q5 -20.5 22 -29.5 ZM410 356 q25 2 47.5 20 q22.5 18 36.5 48.5 q14 30.5 14 68.5 q0 48 -29.5 81.5 q-29.5 33.5 -71.5 33.5 l-225 0 l0 -252 l228 0 Z" /><glyph glyph-name="S" unicode="s" d="M295 -10 q-73 0 -129 20.5 q-56 20.5 -107 66.5 q-21 18 -21 41 q0 18 14 32.5 q14 14.5 33 14.5 q17 0 29 -11 q40 -37 82.5 -54.5 q42.5 -17.5 96.5 -17.5 q63 0 106.5 29 q43.5 29 43.5 73 q-1 52 -43.5 80.5 q-42.5 28.5 -129.5 47.5 q-103 21 -158.5 69 q-55.5 48 -55.5 133 q0 59 31 103.5 q31 44.5 86 68.5 q55 24 124 24 q62 0 117 -20 q55 -20 89 -53 q23 -20 23 -43 q0 -18 -13.5 -32 q-13.5 -14 -32.5 -14 q-14 0 -23 8 q-26 26 -72 44 q-46 18 -88 18 q-67 0 -106.5 -27.5 q-39.5 -27.5 -39.5 -72.5 q0 -49 39.5 -75 q39.5 -26 117.5 -44 q78 -17 127.5 -40 q49.5 -23 76.5 -64 q27 -41 27 -107 q0 -58 -32.5 -103 q-32.5 -45 -88.5 -70 q-56 -25 -123 -25 Z" /><glyph glyph-name="Scedilla" unicode="&#x15e;" d="M539 188 q0 -55 -30 -99 q-30 -44 -82 -69.5 q-52 -25.5 -115 -29.5 l-45 -111 q-10 -27 -34 -27 q-16 0 -36 12 q-20 12 -20 28 q0 14 10 25 l58 76 q-55 5 -99.5 25.5 q-44.5 20.5 -86.5 58.5 q-21 18 -21 41 q0 18 14 32.5 q14 14.5 33 14.5 q17 0 29 -11 q40 -37 82.5 -54.5 q42.5 -17.5 96.5 -17.5 q63 0 106.5 29 q43.5 29 43.5 73 q-1 52 -43.5 80.5 q-42.5 28.5 -129.5 47.5 q-103 21 -158.5 69 q-55.5 48 -55.5 133 q0 59 31 103.5 q31 44.5 86 68.5 q55 24 124 24 q62 0 117 -20 q55 -20 89 -53 q23 -20 23 -43 q0 -18 -13.5 -32 q-13.5 -14 -32.5 -14 q-14 0 -23 8 q-26 26 -72 44 q-46 18 -88 18 q-67 0 -106.5 -27.5 q-39.5 -27.5 -39.5 -72.5 q0 -49 39.5 -75 q39.5 -26 117.5 -44 q78 -17 127.5 -40 q49.5 -23 76.5 -64 q27 -41 27 -107 Z" /><glyph glyph-name="uni1E9E" unicode="&#x1e9e;" d="M524 383 q51 -21 83 -40.5 q32 -19.5 55.5 -58.5 q23.5 -39 23.5 -101 q0 -52 -30 -96.5 q-30 -44.5 -80 -70.5 q-50 -26 -107 -26 q-56 0 -109 22.5 q-53 22.5 -84 62.5 q-13 20 -13 42 q0 19 12.5 35 q12.5 16 32.5 16 q8 0 17.5 -3.5 q9.5 -3.5 15.5 -10.5 q25 -30 59.5 -49.5 q34.5 -19.5 67.5 -19.5 q53 0 84 23 q31 23 31 63 q0 29 -15 48.5 q-15 19.5 -37 32.5 q-22 13 -60 30 q-7 4 -21 10 q-61 29 -96 66 q-35 37 -35 103 q0 73 44 117 q44 44 115 59 q-31 7 -83 7 q-96 0 -152 -54 q-56 -54 -56 -147 l-2 -394 q0 -21 -14.5 -34.5 q-14.5 -13.5 -37.5 -13.5 q-22 0 -36 13.5 q-14 13.5 -14 34.5 l2 372 q0 84 34.5 153 q34.5 69 103 110.5 q68.5 41.5 165.5 41.5 q60 0 110.5 -11.5 q50.5 -11.5 85.5 -29.5 q25 -11 36.5 -25.5 q11.5 -14.5 11.5 -33.5 q0 -18 -12 -25 q-12 -7 -38 -13 q-9 -1 -22 -5 q-68 -12 -102 -33.5 q-34 -21.5 -34 -63.5 q0 -36 26 -59.5 q26 -23.5 74 -43.5 Z" /><glyph glyph-name="uni018F" unicode="&#x18f;" d="M382 710 q93 0 172 -48.5 q79 -48.5 125.5 -131 q46.5 -82.5 46.5 -180.5 q0 -98 -46 -180.5 q-46 -82.5 -124.5 -131 q-78.5 -48.5 -171.5 -48.5 q-85 0 -162 41 q-77 41 -125.5 115 q-48.5 74 -53.5 168 l0 22 q0 26 17 41 q17 15 41 15 l522 0 q-12 107 -78.5 165 q-66.5 58 -162.5 58 q-61 0 -111.5 -18.5 q-50.5 -18.5 -93.5 -60.5 q-16 -13 -33 -13 q-17 0 -31 12 q-18 14 -18 36 q0 21 16 34 q56 56 120.5 80.5 q64.5 24.5 150.5 24.5 ZM384 85 q59 0 109 25.5 q50 25.5 84 73.5 q34 48 44 113 l-476 0 q10 -59 44.5 -107.5 q34.5 -48.5 85.5 -76.5 q51 -28 109 -28 Z" /><glyph glyph-name="T" unicode="t" d="M537 700 q21 0 34.5 -12.5 q13.5 -12.5 13.5 -33.5 q0 -21 -13.5 -33 q-13.5 -12 -34.5 -12 l-178 0 l0 -561 q0 -20 -14.5 -34 q-14.5 -14 -36.5 -14 q-22 0 -36.5 14 q-14.5 14 -14.5 34 l0 561 l-177 0 q-21 0 -34.5 12.5 q-13.5 12.5 -13.5 33.5 q0 20 13.5 32.5 q13.5 12.5 34.5 12.5 l457 0 Z" /><glyph glyph-name="Tbar" unicode="&#x166;" d="M537 700 q21 0 34.5 -12.5 q13.5 -12.5 13.5 -33.5 q0 -21 -13.5 -33 q-13.5 -12 -34.5 -12 l-178 0 l0 -222 l42 0 q21 0 34.5 -12.5 q13.5 -12.5 13.5 -31.5 q0 -19 -13.5 -31.5 q-13.5 -12.5 -34.5 -12.5 l-42 0 l0 -251 q0 -20 -14.5 -34 q-14.5 -14 -36.5 -14 q-22 0 -36.5 14 q-14.5 14 -14.5 34 l0 251 l-26 0 q-21 0 -34.5 12.5 q-13.5 12.5 -13.5 32.5 q0 19 13.5 31 q13.5 12 34.5 12 l26 0 l0 222 l-177 0 q-21 0 -34.5 12.5 q-13.5 12.5 -13.5 33.5 q0 20 13.5 32.5 q13.5 12.5 34.5 12.5 l457 0 Z" /><glyph glyph-name="uni0162" unicode="&#x162;" d="M537 700 q21 0 34.5 -12.5 q13.5 -12.5 13.5 -33.5 q0 -21 -13.5 -33 q-13.5 -12 -34.5 -12 l-178 0 l0 -561 q0 -13 -6.5 -24 q-6.5 -11 -17.5 -17 l-52 -128 q-10 -27 -34 -27 q-16 0 -36 12 q-20 12 -20 28 q0 14 10 25 l72 94 q-8 6 -13 16 q-5 10 -5 21 l0 561 l-177 0 q-21 0 -34.5 12.5 q-13.5 12.5 -13.5 33.5 q0 20 13.5 32.5 q13.5 12.5 34.5 12.5 l457 0 Z" /><glyph glyph-name="U" unicode="u" d="M579 701 q21 0 33.5 -13.5 q12.5 -13.5 12.5 -34.5 l0 -384 q0 -79 -35 -142 q-35 -63 -96.5 -98.5 q-61.5 -35.5 -138.5 -35.5 q-78 0 -140 35.5 q-62 35.5 -97 98.5 q-35 63 -35 142 l0 384 q0 21 14 34.5 q14 13.5 36 13.5 q19 0 33.5 -14 q14.5 -14 14.5 -34 l0 -384 q0 -52 24 -93.5 q24 -41.5 64 -64.5 q40 -23 86 -23 q48 0 89 23 q41 23 65.5 64.5 q24.5 41.5 24.5 93.5 l0 384 q0 21 12 34.5 q12 13.5 33 13.5 Z" /><glyph glyph-name="Uhorn" unicode="&#x1af;" d="M740 768 q0 -54 -29 -92.5 q-29 -38.5 -86 -50.5 l0 -356 q0 -79 -35 -142 q-35 -63 -96.5 -98.5 q-61.5 -35.5 -138.5 -35.5 q-78 0 -140 35.5 q-62 35.5 -97 98.5 q-35 63 -35 142 l0 384 q0 21 14 34.5 q14 13.5 36 13.5 q19 0 33.5 -14 q14.5 -14 14.5 -34 l0 -384 q0 -52 24 -93.5 q24 -41.5 64 -64.5 q40 -23 86 -23 q48 0 89 23 q41 23 65.5 64.5 q24.5 41.5 24.5 93.5 l0 384 q0 21 12 34.5 q12 13.5 33 13.5 l7 0 q74 5 74 67 q0 18 10.5 32 q10.5 14 29.5 14 q21 0 30.5 -14 q9.5 -14 9.5 -32 Z" /><glyph glyph-name="Uogonek" unicode="&#x172;" d="M579 701 q21 0 33.5 -13.5 q12.5 -13.5 12.5 -34.5 l0 -384 q0 -69 -30 -133.5 q-30 -64.5 -88 -98.5 q-100 -63 -100 -117 q0 -21 11.5 -33 q11.5 -12 27.5 -12 q15 0 24 12 q12 17 35 17 q15 0 25 -10 q10 -10 10 -27 q0 -15 -14.5 -31 q-14.5 -16 -38.5 -26 q-24 -10 -50 -10 q-47 0 -78.5 26.5 q-31.5 26.5 -31.5 75.5 q0 49 32 91 l-4 0 q-78 0 -140 35.5 q-62 35.5 -97 98.5 q-35 63 -35 142 l0 384 q0 21 14 34.5 q14 13.5 36 13.5 q22 0 35 -13.5 q13 -13.5 13 -34.5 l0 -384 q0 -52 24 -93.5 q24 -41.5 64 -64.5 q40 -23 86 -23 q48 0 89 23 q41 23 65.5 64.5 q24.5 41.5 24.5 93.5 l0 384 q0 20 13.5 34 q13.5 14 31.5 14 Z" /><glyph glyph-name="V" unicode="v" d="M592 701 q20 0 34.5 -13 q14.5 -13 14.5 -32 q0 -10 -5 -22 l-255 -603 q-7 -15 -20 -23 q-13 -8 -27 -8 q-13 1 -24.5 8.5 q-11.5 7.5 -18.5 21.5 l-255 604 q-4 8 -4 21 q0 21 15 34 q15 13 33 13 q30 0 44 -32 l218 -515 l206 516 q7 14 18.5 22 q11.5 8 25.5 8 Z" /><glyph glyph-name="W" unicode="w" d="M880 703 q19 0 35 -14 q16 -14 16 -37 q0 -8 -3 -17 l-207 -605 q-4 -14 -16.5 -21.5 q-12.5 -7.5 -26.5 -8.5 q-14 0 -27 8 q-13 8 -19 23 l-156 365 l-155 -365 q-6 -15 -19 -23 q-13 -8 -28 -8 q-14 1 -26 9 q-12 8 -16 21 l-207 605 q-3 9 -3 17 q0 22 16.5 36.5 q16.5 14.5 35.5 14.5 q16 0 29 -8.5 q13 -8.5 17 -22.5 l169 -501 l145 356 q6 14 18 22 q12 8 27 8 q15 0 27 -8 q12 -8 18 -22 l141 -356 l168 501 q4 15 17 23 q13 8 30 8 Z" /><glyph glyph-name="X" unicode="x" d="M584 72 q9 -12 9 -29 q0 -21 -14.5 -34 q-14.5 -13 -32.5 -13 q-25 0 -39 20 l-194 260 l-190 -259 q-15 -21 -39 -21 q-18 0 -30.5 12.5 q-12.5 12.5 -12.5 28.5 q0 17 12 33 l205 279 l-206 277 q-10 13 -10 29 q0 20 14.5 34 q14.5 14 33.5 14 q11 0 21.5 -5 q10.5 -5 17.5 -15 l192 -258 l190 255 q17 22 38 22 q18 0 31.5 -13.5 q13.5 -13.5 13.5 -30.5 q0 -15 -10 -29 l-208 -278 l208 -279 Z" /><glyph glyph-name="Y" unicode="y" d="M564 655 q0 -15 -9 -30 l-215 -303 l0 -274 q0 -20 -13.5 -34 q-13.5 -14 -32.5 -14 q-20 0 -34 14 q-14 14 -14 34 l0 282 l-214 289 q-14 18 -14 36 q0 20 16 34 q16 14 35 14 q23 0 39 -22 l188 -260 l181 259 q16 23 40 23 q19 0 33 -14 q14 -14 14 -34 Z" /><glyph glyph-name="Z" unicode="z" d="M549 91 q21 0 34.5 -12.5 q13.5 -12.5 13.5 -32.5 q0 -20 -14 -33 q-14 -13 -34 -13 l-456 0 q-21 0 -35.5 14.5 q-14.5 14.5 -14.5 32.5 q0 16 11 30 l408 532 l-335 0 q-21 0 -34.5 13 q-13.5 13 -13.5 33 q0 20 13.5 32.5 q13.5 12.5 34.5 12.5 l428 0 q20 0 36 -13.5 q16 -13.5 16 -33.5 q0 -14 -11 -30 l-408 -532 l361 0 Z" /><glyph glyph-name="a" unicode="a" d="M496 531 q21 0 34.5 -13.5 q13.5 -13.5 13.5 -35.5 l0 -434 q0 -20 -13.5 -34 q-13.5 -14 -34.5 -14 q-21 0 -34 13.5 q-13 13.5 -13 34.5 l0 26 q-26 -35 -71 -59.5 q-45 -24.5 -97 -24.5 q-68 0 -123.5 35 q-55.5 35 -87 97.5 q-31.5 62.5 -31.5 140.5 q0 78 31.5 140.5 q31.5 62.5 86.5 97.5 q55 35 121 35 q53 0 98.5 -22 q45.5 -22 72.5 -56 l0 24 q0 21 13 35 q13 14 34 14 ZM292 78 q47 0 83.5 24 q36.5 24 57 66 q20.5 42 20.5 95 q0 52 -20.5 94 q-20.5 42 -57 66.5 q-36.5 24.5 -83.5 24.5 q-47 0 -83.5 -24 q-36.5 -24 -57 -66 q-20.5 -42 -20.5 -95 q0 -53 20.5 -95 q20.5 -42 57 -66 q36.5 -24 83.5 -24 Z" /><glyph glyph-name="aogonek" unicode="&#x105;" d="M523 -103 q15 0 25 -10 q10 -10 10 -27 q0 -15 -14.5 -31 q-14.5 -16 -38.5 -26 q-24 -10 -50 -10 q-47 0 -78.5 26.5 q-31.5 26.5 -31.5 75.5 q0 89 104 131 l0 48 q-26 -35 -71 -59.5 q-45 -24.5 -97 -24.5 q-68 0 -123.5 35 q-55.5 35 -87 97.5 q-31.5 62.5 -31.5 140.5 q0 78 31.5 140.5 q31.5 62.5 86.5 97.5 q55 35 121 35 q53 0 98.5 -22 q45.5 -22 72.5 -56 l0 24 q0 21 13 35 q13 14 34 14 q21 0 34.5 -13.5 q13.5 -13.5 13.5 -35.5 l0 -459 q0 -25 -28 -34 q-40 -12 -65.5 -32 q-25.5 -20 -25.5 -44 q0 -21 11.5 -33 q11.5 -12 27.5 -12 q15 0 24 12 q12 17 35 17 ZM292 78 q47 0 83.5 24 q36.5 24 57 66 q20.5 42 20.5 95 q0 52 -20.5 94 q-20.5 42 -57 66.5 q-36.5 24.5 -83.5 24.5 q-47 0 -83.5 -24 q-36.5 -24 -57 -66 q-20.5 -42 -20.5 -95 q0 -53 20.5 -95 q20.5 -42 57 -66 q36.5 -24 83.5 -24 Z" /><glyph glyph-name="ae" unicode="æ" d="M868 282 q-1 -18 -15 -30.5 q-14 -12.5 -33 -12.5 l-352 0 q7 -73 55.5 -117 q48.5 -44 118.5 -44 q48 0 78 14 q30 14 53 36 q15 9 29 9 q17 0 28.5 -12 q11.5 -12 11.5 -28 q0 -21 -20 -38 q-29 -29 -77 -49 q-48 -20 -99 -20 q-72 0 -129.5 28 q-57.5 28 -92.5 78 q-34 -43 -86 -74.5 q-52 -31.5 -119 -31.5 q-44 0 -85 17.5 q-41 17.5 -67 53 q-26 35.5 -26 87.5 q0 81 57.5 126 q57.5 45 175.5 45 l103 0 l0 38 q0 53 -33 72 q-33 19 -79 19 q-87 0 -145 -75 q-15 -17 -36 -17 q-16 0 -28.5 11 q-12.5 11 -12.5 27 q0 17 11 32 q37 46 90.5 78 q53.5 32 122.5 32 q60 0 109 -18.5 q49 -18.5 73 -58.5 q34 37 79.5 57 q45.5 20 94.5 20 q64 0 120 -33 q56 -33 90 -91 q34 -58 35 -130 ZM623 448 q-56 0 -97 -31.5 q-41 -31.5 -54 -97.5 l295 0 l0 8 q-5 53 -47.5 87 q-42.5 34 -96.5 34 ZM388 171 q-9 31 -12 68 l-110 0 q-67 0 -98.5 -25 q-31.5 -25 -31.5 -63 q0 -36 26 -55.5 q26 -19.5 61 -19.5 q58 0 101.5 29.5 q43.5 29.5 63.5 65.5 Z" /><glyph glyph-name="b" unicode="b" d="M334 536 q68 0 123 -35 q55 -35 86.5 -97 q31.5 -62 31.5 -140 q0 -78 -31.5 -141 q-31.5 -63 -86.5 -98 q-55 -35 -121 -35 q-52 0 -97 23 q-45 23 -73 57 l0 -29 q0 -20 -13.5 -34 q-13.5 -14 -34.5 -14 q-20 0 -33.5 13.5 q-13.5 13.5 -13.5 34.5 l0 651 q0 21 13 34.5 q13 13.5 34 13.5 q21 0 34.5 -14 q13.5 -14 13.5 -34 l0 -244 q24 36 70 62 q46 26 98 26 ZM323 78 q46 0 83 24.5 q37 24.5 57.5 67 q20.5 42.5 20.5 94.5 q0 52 -20.5 94 q-20.5 42 -57.5 66 q-37 24 -83 24 q-47 0 -84 -24 q-37 -24 -57.5 -65.5 q-20.5 -41.5 -20.5 -94.5 q0 -53 20.5 -95 q20.5 -42 57.5 -66.5 q37 -24.5 84 -24.5 Z" /><glyph glyph-name="c" unicode="c" d="M299 536 q79 0 131.5 -25 q52.5 -25 52.5 -64 q0 -17 -11 -30.5 q-11 -13.5 -28 -13.5 q-13 0 -20.5 4 q-7.5 4 -20.5 13 q-6 6 -19 14 q-12 6 -34 10 q-22 4 -40 4 q-52 0 -92 -24 q-40 -24 -62 -66.5 q-22 -42.5 -22 -94.5 q0 -53 21.5 -95 q21.5 -42 60.5 -66 q39 -24 89 -24 q52 0 84 16 q7 4 19 13 q10 8 17.5 12 q7.5 4 18.5 4 q20 0 31.5 -12.5 q11.5 -12.5 11.5 -32.5 q0 -21 -26.5 -41.5 q-26.5 -20.5 -71 -33.5 q-44.5 -13 -95.5 -13 q-76 0 -134 35.5 q-58 35.5 -89.5 98 q-31.5 62.5 -31.5 139.5 q0 77 33 139.5 q33 62.5 92 98 q59 35.5 135 35.5 Z" /><glyph glyph-name="ccedilla" unicode="ç" d="M487 78 q0 -19 -22.5 -38.5 q-22.5 -19.5 -61.5 -32.5 q-39 -13 -85 -16 l-45 -112 q-10 -27 -34 -27 q-17 0 -36.5 11.5 q-19.5 11.5 -19.5 28.5 q0 14 10 25 l58 76 q-64 10 -112 47.5 q-48 37.5 -74 95 q-26 57.5 -26 127.5 q0 77 33 139.5 q33 62.5 92 98 q59 35.5 135 35.5 q79 0 131.5 -25 q52.5 -25 52.5 -64 q0 -17 -11 -30.5 q-11 -13.5 -28 -13.5 q-13 0 -20.5 4 q-7.5 4 -20.5 13 q-6 6 -19 14 q-12 6 -34 10 q-22 4 -40 4 q-52 0 -92 -24 q-40 -24 -62 -66.5 q-22 -42.5 -22 -94.5 q0 -53 21.5 -95 q21.5 -42 60.5 -66 q39 -24 89 -24 q52 0 84 16 q7 4 19 13 q10 8 17.5 12 q7.5 4 18.5 4 q20 0 31.5 -12.5 q11.5 -12.5 11.5 -32.5 Z" /><glyph glyph-name="uni1E09" unicode="&#x1e09;" d="M295 561 q-8 0 -17 7 q-9 7 -8 19 q0 8 6 18 l59 99 q8 14 19.5 23 q11.5 9 26.5 9 q22 0 33.5 -11.5 q11.5 -11.5 10.5 -30.5 q0 -18 -15 -35 l-75 -82 q-16 -16 -40 -16 ZM487 78 q0 -19 -22.5 -38.5 q-22.5 -19.5 -61.5 -32.5 q-39 -13 -85 -16 l-45 -112 q-10 -27 -34 -27 q-17 0 -36.5 11.5 q-19.5 11.5 -19.5 28.5 q0 14 10 25 l58 76 q-64 10 -112 47.5 q-48 37.5 -74 95 q-26 57.5 -26 127.5 q0 77 33 139.5 q33 62.5 92 98 q59 35.5 135 35.5 q79 0 131.5 -25 q52.5 -25 52.5 -64 q0 -17 -11 -30.5 q-11 -13.5 -28 -13.5 q-13 0 -20.5 4 q-7.5 4 -20.5 13 q-6 6 -19 14 q-12 6 -34 10 q-22 4 -40 4 q-52 0 -92 -24 q-40 -24 -62 -66.5 q-22 -42.5 -22 -94.5 q0 -53 21.5 -95 q21.5 -42 60.5 -66 q39 -24 89 -24 q52 0 84 16 q7 4 19 13 q10 8 17.5 12 q7.5 4 18.5 4 q20 0 31.5 -12.5 q11.5 -12.5 11.5 -32.5 Z" /><glyph glyph-name="d" unicode="d" d="M496 740 q21 0 34.5 -13.5 q13.5 -13.5 13.5 -34.5 l0 -644 q0 -20 -13.5 -34 q-13.5 -14 -34.5 -14 q-21 0 -34 13.5 q-13 13.5 -13 34.5 l0 28 q-25 -36 -70.5 -61 q-45.5 -25 -97.5 -25 q-68 0 -123 35 q-55 35 -87 97.5 q-32 62.5 -32 140.5 q0 78 31.5 140.5 q31.5 62.5 86.5 97.5 q55 35 121 35 q53 0 98 -22 q45 -22 73 -57 l0 235 q0 21 13 34.5 q13 13.5 34 13.5 ZM292 78 q47 0 83.5 24 q36.5 24 57 66 q20.5 42 20.5 95 q0 52 -20.5 94.5 q-20.5 42.5 -57 66.5 q-36.5 24 -83.5 24 q-47 0 -83.5 -24 q-36.5 -24 -57 -66.5 q-20.5 -42.5 -20.5 -94.5 q0 -53 20.5 -95 q20.5 -42 57 -66 q36.5 -24 83.5 -24 Z" /><glyph glyph-name="eth" unicode="ð" d="M433 601 q49 -66 74 -150 q25 -84 25 -169 q0 -87 -32.5 -152.5 q-32.5 -65.5 -88.5 -101 q-56 -35.5 -125 -35.5 q-68 0 -124.5 36 q-56.5 36 -89.5 97.5 q-33 61.5 -33 135.5 q0 72 33.5 133 q33.5 61 88 96.5 q54.5 35.5 114.5 35.5 q75 0 127 -50 q-18 57 -56 97 l-153 -38 q-10 -2 -16 -2 q-15 0 -24.5 8.5 q-9.5 8.5 -9.5 25.5 q0 27 32 33 l95 24 q-29 12 -61 21 q-18 5 -29.5 18 q-11.5 13 -11.5 29 q0 19 10.5 33 q10.5 14 30.5 14 q11 0 24 -3 q83 -21 147 -79 l70 16 q10 2 15 2 q15 0 25 -9 q10 -9 10 -25 q0 -13 -8.5 -22 q-8.5 -9 -23.5 -11 l-35 -8 ZM286 87 q42 0 76.5 23.5 q34.5 23.5 54.5 63.5 q20 40 20 88 q0 46 -20 85.5 q-20 39.5 -54.5 62.5 q-34.5 23 -76.5 23 q-42 0 -77 -22.5 q-35 -22.5 -55 -61.5 q-20 -39 -20 -87 q0 -48 20 -88 q20 -40 55 -63.5 q35 -23.5 77 -23.5 Z" /><glyph glyph-name="dcroat" unicode="&#x111;" d="M565 660 q21 0 34.5 -12.5 q13.5 -12.5 13.5 -31.5 q0 -19 -13.5 -31.5 q-13.5 -12.5 -34.5 -12.5 l-21 0 l0 -524 q0 -20 -13.5 -34 q-13.5 -14 -34.5 -14 q-21 0 -34 13.5 q-13 13.5 -13 34.5 l0 28 q-25 -36 -70.5 -61 q-45.5 -25 -97.5 -25 q-68 0 -123 35 q-55 35 -87 97.5 q-32 62.5 -32 140.5 q0 78 31.5 140.5 q31.5 62.5 86.5 97.5 q55 35 121 35 q53 0 98 -22 q45 -22 73 -57 l0 115 l-54 0 q-21 0 -34.5 12.5 q-13.5 12.5 -13.5 32.5 q0 19 13.5 31 q13.5 12 34.5 12 l54 0 l0 32 q0 21 13 34.5 q13 13.5 34 13.5 q21 0 34.5 -13.5 q13.5 -13.5 13.5 -34.5 l0 -32 l21 0 ZM292 78 q47 0 83.5 24 q36.5 24 57 66 q20.5 42 20.5 95 q0 52 -20.5 94.5 q-20.5 42.5 -57 66.5 q-36.5 24 -83.5 24 q-47 0 -83.5 -24 q-36.5 -24 -57 -66.5 q-20.5 -42.5 -20.5 -94.5 q0 -53 20.5 -95 q20.5 -42 57 -66 q36.5 -24 83.5 -24 Z" /><glyph glyph-name="e" unicode="e" d="M531 282 q-1 -18 -15 -30.5 q-14 -12.5 -33 -12.5 l-352 0 q7 -73 55.5 -117 q48.5 -44 118.5 -44 q48 0 78 14 q30 14 53 36 q15 9 29 9 q17 0 28.5 -12 q11.5 -12 11.5 -28 q0 -21 -20 -38 q-29 -29 -77 -49 q-48 -20 -98 -20 q-81 0 -142.5 34 q-61.5 34 -95 95 q-33.5 61 -33.5 138 q0 84 34.5 147.5 q34.5 63.5 91 97.5 q56.5 34 121.5 34 q64 0 120 -33 q56 -33 90 -91 q34 -58 35 -130 ZM286 448 q-56 0 -97 -31.5 q-41 -31.5 -54 -97.5 l295 0 l0 8 q-5 53 -47.5 87 q-42.5 34 -96.5 34 Z" /><glyph glyph-name="uni1E1D" unicode="&#x1e1d;" d="M283 571 q-54 0 -94 29 q-40 29 -53 76 q-3 8 -3 15 q0 13 8 20.5 q8 7.5 21 7.5 q17 0 27 -7.5 q10 -7.5 21 -23.5 q9 -23 28 -35 q19 -12 45 -12 q26 0 44.5 12.5 q18.5 12.5 28.5 34.5 q11 16 21 23.5 q10 7.5 26 7.5 q13 0 21.5 -7.5 q8.5 -7.5 8.5 -19.5 q0 -7 -3 -15 q-13 -48 -53 -77 q-40 -29 -94 -29 ZM531 282 q-1 -18 -15 -30.5 q-14 -12.5 -33 -12.5 l-352 0 q7 -73 55.5 -117 q48.5 -44 118.5 -44 q48 0 78 14 q30 14 53 36 q15 9 29 9 q17 0 28.5 -12 q11.5 -12 11.5 -28 q0 -21 -20 -38 q-24 -24 -61 -42 q-37 -18 -78 -24 l-46 -114 q-10 -27 -34 -27 q-17 0 -36.5 11.5 q-19.5 11.5 -19.5 28.5 q0 14 10 25 l57 75 q-72 6 -126 42 q-54 36 -83 93.5 q-29 57.5 -29 129.5 q0 84 34.5 147.5 q34.5 63.5 91 97.5 q56.5 34 121.5 34 q64 0 120 -33 q56 -33 90 -91 q34 -58 35 -130 ZM286 448 q-56 0 -97 -31.5 q-41 -31.5 -54 -97.5 l295 0 l0 8 q-5 53 -47.5 87 q-42.5 34 -96.5 34 Z" /><glyph glyph-name="eogonek" unicode="&#x119;" d="M531 282 q-1 -18 -15 -30.5 q-14 -12.5 -33 -12.5 l-352 0 q7 -73 55.5 -117 q48.5 -44 118.5 -44 q48 0 78 14 q30 14 53 36 q13 9 29 9 q18 0 30 -14 q12 -14 12 -29 q0 -21 -21 -36 q-7 -6 -39.5 -34 q-32.5 -28 -48 -53.5 q-15.5 -25.5 -15.5 -51.5 q0 -20 11 -32 q11 -12 28 -12 q16 0 25 12 q12 17 34 17 q15 0 25 -10 q10 -10 10 -27 q0 -15 -15 -30.5 q-15 -15.5 -38.5 -26 q-23.5 -10.5 -48.5 -10.5 q-47 0 -79 26.5 q-32 26.5 -32 75.5 q0 53 39 90 q-22 -2 -32 -2 q-81 0 -142.5 34 q-61.5 34 -95 95 q-33.5 61 -33.5 138 q0 84 34.5 147.5 q34.5 63.5 91 97.5 q56.5 34 121.5 34 q64 0 120 -33 q56 -33 90 -91 q34 -58 35 -130 ZM286 448 q-58 0 -98.5 -31.5 q-40.5 -31.5 -52.5 -97.5 l295 0 l0 8 q-5 53 -47.5 87 q-42.5 34 -96.5 34 Z" /><glyph glyph-name="uni0259" unicode="&#x259;" d="M260 521 q81 0 142.5 -34 q61.5 -34 95 -95 q33.5 -61 33.5 -138 q0 -84 -34.5 -147.5 q-34.5 -63.5 -91 -97.5 q-56.5 -34 -121.5 -34 q-64 0 -120 33 q-56 33 -90 91 q-34 58 -35 130 q1 18 15 30.5 q14 12.5 33 12.5 l352 0 q-7 73 -55.5 117 q-48.5 44 -118.5 44 q-48 0 -78 -14 q-30 -14 -53 -36 q-15 -9 -29 -9 q-17 0 -28.5 12 q-11.5 12 -11.5 28 q0 21 20 38 q29 29 77 49 q48 20 98 20 ZM284 63 q56 0 97 31.5 q41 31.5 54 97.5 l-295 0 l0 -8 q5 -53 47.5 -87 q42.5 -34 96.5 -34 Z" /><glyph glyph-name="f" unicode="f" d="M295 654 q-33 0 -48.5 -20 q-15.5 -20 -15.5 -49 l0 -70 l99 0 q20 0 32.5 -12.5 q12.5 -12.5 12.5 -31.5 q0 -19 -12.5 -31 q-12.5 -12 -32.5 -12 l-99 0 l0 -380 q0 -20 -13.5 -34 q-13.5 -14 -34.5 -14 q-20 0 -33.5 14 q-13.5 14 -13.5 34 l0 380 l-62 0 q-19 0 -32 12 q-13 12 -13 31 q0 19 13 31.5 q13 12.5 32 12.5 l62 0 l0 70 q0 70 45 111.5 q45 41.5 127 41.5 q34 0 60 -12.5 q26 -12.5 26 -37.5 q0 -19 -11.5 -31.5 q-11.5 -12.5 -27.5 -12.5 q-4 0 -22 4 q-22 6 -38 6 Z" /><glyph glyph-name="g" unicode="g" d="M509 531 q21 0 34.5 -13.5 q13.5 -13.5 13.5 -35.5 l0 -440 q0 -81 -34.5 -135.5 q-34.5 -54.5 -93.5 -80.5 q-59 -26 -133 -26 q-40 0 -93.5 14 q-53.5 14 -68.5 29 q-31 16 -31 40 q0 6 4 16 q11 25 37 25 q13 0 28 -6 q80 -31 125 -31 q80 0 122.5 38.5 q42.5 38.5 42.5 105.5 l0 54 q-21 -39 -70.5 -67 q-49.5 -28 -104.5 -28 q-69 0 -126 35 q-57 35 -89.5 97.5 q-32.5 62.5 -32.5 140.5 q0 78 32.5 140.5 q32.5 62.5 89 97.5 q56.5 35 124.5 35 q55 0 102.5 -25 q47.5 -25 74.5 -61 l0 32 q0 21 13 35 q13 14 34 14 ZM298 78 q49 0 87 23.5 q38 23.5 59.5 66 q21.5 42.5 21.5 95.5 q0 53 -21.5 95 q-21.5 42 -59.5 66 q-38 24 -87 24 q-48 0 -86 -24 q-38 -24 -59.5 -66.5 q-21.5 -42.5 -21.5 -94.5 q0 -52 21.5 -94.5 q21.5 -42.5 59.5 -66.5 q38 -24 86 -24 Z" /><glyph glyph-name="gcommaaccent" unicode="&#x123;" d="M332 583 q-37 0 -58 23 q-21 23 -21 64 q0 25 16 57.5 q16 32.5 40.5 55.5 q24.5 23 50.5 23 q17 0 28 -8.5 q11 -8.5 11 -24.5 q0 -14 -7 -19.5 q-7 -5.5 -16.5 -8.5 q-9.5 -3 -14.5 -5 q-14 -7 -21.5 -18.5 q-7.5 -11.5 -7.5 -25.5 q0 -11 9 -19 q9 -8 23 -8 q16 0 27 8 q10 -5 15 -12.5 q5 -7.5 5 -20.5 q-1 -24 -26 -42.5 q-25 -18.5 -53 -18.5 ZM509 531 q21 0 34.5 -13.5 q13.5 -13.5 13.5 -35.5 l0 -440 q0 -81 -34.5 -135.5 q-34.5 -54.5 -93.5 -80.5 q-59 -26 -133 -26 q-40 0 -93.5 14 q-53.5 14 -68.5 29 q-31 16 -31 40 q0 6 4 16 q11 25 37 25 q13 0 28 -6 q80 -31 125 -31 q80 0 122.5 38.5 q42.5 38.5 42.5 105.5 l0 54 q-21 -39 -70.5 -67 q-49.5 -28 -104.5 -28 q-69 0 -126 35 q-57 35 -89.5 97.5 q-32.5 62.5 -32.5 140.5 q0 78 32.5 140.5 q32.5 62.5 89 97.5 q56.5 35 124.5 35 q55 0 102.5 -25 q47.5 -25 74.5 -61 l0 32 q0 21 13 35 q13 14 34 14 ZM298 78 q49 0 87 23.5 q38 23.5 59.5 66 q21.5 42.5 21.5 95.5 q0 53 -21.5 95 q-21.5 42 -59.5 66 q-38 24 -87 24 q-48 0 -86 -24 q-38 -24 -59.5 -66.5 q-21.5 -42.5 -21.5 -94.5 q0 -52 21.5 -94.5 q21.5 -42.5 59.5 -66.5 q38 -24 86 -24 Z" /><glyph glyph-name="h" unicode="h" d="M332 533 q176 0 176 -218 l0 -267 q0 -20 -13.5 -34 q-13.5 -14 -34.5 -14 q-20 0 -33.5 14 q-13.5 14 -13.5 34 l0 267 q0 130 -110 130 q-59 0 -98 -37.5 q-39 -37.5 -39 -92.5 l0 -267 q0 -20 -13.5 -34 q-13.5 -14 -34.5 -14 q-21 0 -34 13.5 q-13 13.5 -13 34.5 l0 644 q0 20 13.5 34 q13.5 14 33.5 14 q21 0 34.5 -14 q13.5 -14 13.5 -34 l0 -253 q25 39 70 66.5 q45 27.5 96 27.5 Z" /><glyph glyph-name="hbar" unicode="&#x127;" d="M332 533 q176 0 176 -218 l0 -267 q0 -20 -13.5 -34 q-13.5 -14 -34.5 -14 q-20 0 -33.5 14 q-13.5 14 -13.5 34 l0 267 q0 130 -110 130 q-59 0 -98 -37.5 q-39 -37.5 -39 -92.5 l0 -267 q0 -20 -13.5 -34 q-13.5 -14 -34.5 -14 q-21 0 -34 13.5 q-13 13.5 -13 34.5 l0 502 l-29 0 q-21 0 -34.5 12.5 q-13.5 12.5 -13.5 32.5 q0 19 13.5 31 q13.5 12 34.5 12 l29 0 l0 54 q0 20 13.5 34 q13.5 14 33.5 14 q21 0 34.5 -14 q13.5 -14 13.5 -34 l0 -54 l46 0 q21 0 34.5 -12.5 q13.5 -12.5 13.5 -31.5 q0 -19 -13.5 -31.5 q-13.5 -12.5 -34.5 -12.5 l-46 0 l0 -111 q25 39 70 66.5 q45 27.5 96 27.5 Z" /><glyph glyph-name="dotlessi" unicode="&#x131;" d="M161 48 q0 -20 -13.5 -34 q-13.5 -14 -34.5 -14 q-20 0 -33.5 14 q-13.5 14 -13.5 34 l0 433 q0 20 13.5 34 q13.5 14 33.5 14 q21 0 34.5 -14 q13.5 -14 13.5 -34 l0 -433 Z" /><glyph glyph-name="iogonek" unicode="&#x12f;" d="M113 595 q-29 0 -41.5 10.5 q-12.5 10.5 -12.5 33.5 l0 16 q0 24 13.5 34 q13.5 10 41.5 10 q28 0 40.5 -10.5 q12.5 -10.5 12.5 -33.5 l0 -16 q0 -24 -13 -34 q-13 -10 -41 -10 ZM160 -96 q15 0 25 -10 q10 -10 10 -27 q0 -15 -14.5 -31 q-14.5 -16 -38 -26 q-23.5 -10 -49.5 -10 q-47 0 -78.5 26.5 q-31.5 26.5 -31.5 75.5 q0 43 22 70 q22 27 61 44 l0 465 q0 20 13.5 34 q13.5 14 33.5 14 q21 0 34.5 -14 q13.5 -14 13.5 -34 l0 -428 q0 -26 -12.5 -40 q-12.5 -14 -37.5 -28 q-24 -14 -36 -27 q-12 -13 -12 -38 q0 -21 11 -33 q11 -12 27 -12 q16 0 23 11 q14 18 36 18 Z" /><glyph glyph-name="uni0237" unicode="&#x237;" d="M24 -197 q-19 0 -31.5 13 q-12.5 13 -12.5 31 l0 9 q0 33 41 43 q64 18 64 100 l0 477 q0 20 13.5 34 q13.5 14 34.5 14 q20 0 33.5 -14 q13.5 -14 13.5 -34 l0 -501 q0 -52 -21.5 -91 q-21.5 -39 -57.5 -60 q-36 -21 -77 -21 Z" /><glyph glyph-name="k" unicode="k" d="M499 83 q15 -16 15 -35 q0 -20 -15.5 -33.5 q-15.5 -13.5 -32.5 -13.5 q-22 0 -35 16 l-197 209 l-60 -54 l0 -124 q0 -20 -13.5 -34 q-13.5 -14 -33.5 -14 q-21 0 -34.5 14 q-13.5 14 -13.5 34 l0 644 q0 20 13.5 34 q13.5 14 34.5 14 q20 0 33.5 -14 q13.5 -14 13.5 -34 l0 -406 l245 225 q17 15 35 15 q17 0 31 -14.5 q14 -14.5 14 -30.5 q0 -20 -19 -36 l-173 -154 l192 -208 Z" /><glyph glyph-name="kgreenlandic" unicode="&#x138;" d="M499 83 q15 -16 15 -35 q0 -20 -16 -33.5 q-16 -13.5 -32 -13.5 q-22 0 -35 16 l-197 209 l-60 -54 l0 -124 q0 -20 -13.5 -34 q-13.5 -14 -33.5 -14 q-21 0 -34.5 14 q-13.5 14 -13.5 34 l0 428 q0 20 13.5 34 q13.5 14 34.5 14 q20 0 33.5 -14 q13.5 -14 13.5 -34 l0 -190 l245 225 q17 15 35 15 q17 0 31 -14.5 q14 -14.5 14 -30.5 q0 -20 -19 -36 l-173 -154 l192 -208 Z" /><glyph glyph-name="l" unicode="l" d="M174 48 q0 -20 -14 -34 q-14 -14 -34 -14 q-20 0 -33.5 14 q-13.5 14 -13.5 34 l0 644 q0 20 14 34 q14 14 34 14 q20 0 33.5 -14 q13.5 -14 13.5 -34 l0 -644 Z" /><glyph glyph-name="lcaron" unicode="&#x13e;" d="M173 48 q0 -20 -14 -34 q-14 -14 -35 -14 q-20 0 -33 14 q-13 14 -13 34 l0 644 q0 20 13.5 34 q13.5 14 34.5 14 q20 0 33.5 -14 q13.5 -14 13.5 -34 l0 -644 ZM389 590 q0 -25 -16 -57.5 q-16 -32.5 -40.5 -55.5 q-24.5 -23 -50.5 -23 q-17 0 -28 8.5 q-11 8.5 -11 24.5 q0 14 7 19.5 q7 5.5 16.5 8.5 q9.5 3 14.5 5 q14 7 21.5 18.5 q7.5 11.5 7.5 25.5 q0 11 -9 19 q-9 8 -23 8 q-16 0 -27 -8 q-10 5 -15 12.5 q-5 7.5 -5 20.5 q1 24 26 42.5 q25 18.5 53 18.5 q37 0 58 -23 q21 -23 21 -64 Z" /><glyph glyph-name="lslash" unicode="&#x142;" d="M236 471 q17 0 28 -13 q11 -13 11 -27 q0 -12 -7 -22 q-7 -10 -19 -15 l-75 -35 l0 -311 q0 -20 -14 -34 q-14 -14 -34 -14 q-20 0 -33.5 14 q-13.5 14 -13.5 34 l0 268 l-36 -17 q-9 -4 -20 -4 q-17 0 -27.5 13 q-10.5 13 -10.5 28 q0 11 6.5 21 q6.5 10 18.5 15 l69 32 l0 288 q0 20 14 34 q14 14 34 14 q20 0 33.5 -14 q13.5 -14 13.5 -34 l0 -244 l42 19 q12 4 20 4 Z" /><glyph glyph-name="m" unicode="m" d="M672 533 q175 0 175 -218 l0 -267 q0 -21 -13 -34.5 q-13 -13.5 -34 -13.5 q-21 0 -34.5 14 q-13.5 14 -13.5 34 l0 266 q0 131 -110 131 q-39 0 -70.5 -17.5 q-31.5 -17.5 -49 -47.5 q-17.5 -30 -17.5 -66 l0 -266 q0 -20 -13.5 -34 q-13.5 -14 -34.5 -14 q-21 0 -34 13.5 q-13 13.5 -13 34.5 l0 267 q0 59 -25 94.5 q-25 35.5 -83 35.5 q-59 0 -97.5 -37.5 q-38.5 -37.5 -38.5 -92.5 l0 -267 q0 -20 -13.5 -34 q-13.5 -14 -34.5 -14 q-21 0 -34 13.5 q-13 13.5 -13 34.5 l0 428 q0 20 13.5 34 q13.5 14 33.5 14 q21 0 34.5 -14 q13.5 -14 13.5 -34 l0 -35 q26 39 69.5 65.5 q43.5 26.5 94.5 26.5 q124 0 161 -110 q22 42 73 76 q51 34 108 34 Z" /><glyph glyph-name="n" unicode="n" d="M338 536 q180 0 180 -216 l0 -272 q0 -20 -13.5 -34 q-13.5 -14 -34.5 -14 q-20 0 -33.5 14 q-13.5 14 -13.5 34 l0 271 q0 59 -27 94 q-27 35 -88 35 q-40 0 -72.5 -17.5 q-32.5 -17.5 -51 -47 q-18.5 -29.5 -18.5 -64.5 l0 -271 q0 -20 -13.5 -34 q-13.5 -14 -34.5 -14 q-21 0 -34 13.5 q-13 13.5 -13 34.5 l0 428 q0 20 13.5 34 q13.5 14 33.5 14 q21 0 34.5 -14 q13.5 -14 13.5 -34 l0 -35 q26 40 72.5 67.5 q46.5 27.5 99.5 27.5 Z" /><glyph glyph-name="eng" unicode="&#x14b;" d="M338 536 q180 0 180 -216 l0 -343 q0 -88 -47.5 -132.5 q-47.5 -44.5 -126.5 -44.5 q-24 0 -39 11 q-15 11 -15 31 q0 19 13 32 q13 13 33 14 q47 1 67 21.5 q20 20.5 20 63.5 l0 346 q0 59 -27 94 q-27 35 -88 35 q-40 0 -72.5 -17.5 q-32.5 -17.5 -51 -47 q-18.5 -29.5 -18.5 -64.5 l0 -271 q0 -20 -13.5 -34 q-13.5 -14 -34.5 -14 q-21 0 -34 13.5 q-13 13.5 -13 34.5 l0 428 q0 20 13.5 34 q13.5 14 33.5 14 q21 0 34.5 -14 q13.5 -14 13.5 -34 l0 -35 q26 40 72.5 67.5 q46.5 27.5 99.5 27.5 Z" /><glyph glyph-name="uni0272" unicode="&#x272;" d="M338 536 q180 0 180 -216 l0 -272 q0 -20 -13.5 -34 q-13.5 -14 -34.5 -14 q-20 0 -33.5 14 q-13.5 14 -13.5 34 l0 271 q0 59 -27 94 q-27 35 -88 35 q-40 0 -72.5 -17.5 q-32.5 -17.5 -51 -47 q-18.5 -29.5 -18.5 -64.5 l0 -344 q0 -105 -54 -138.5 q-54 -33.5 -105 -33.5 q-18 0 -29.5 13 q-11.5 13 -11.5 31 q0 24 9.5 35 q9.5 11 30.5 17 q34 10 49.5 35 q15.5 25 15.5 65 l0 477 q0 20 13.5 34 q13.5 14 33.5 14 q21 0 34.5 -14 q13.5 -14 13.5 -34 l0 -35 q26 40 72.5 67.5 q46.5 27.5 99.5 27.5 Z" /><glyph glyph-name="o" unicode="o" d="M567 262 q0 -78 -35 -140 q-35 -62 -95.5 -97 q-60.5 -35 -133.5 -35 q-73 0 -133.5 35 q-60.5 35 -95.5 97 q-35 62 -35 140 q0 78 35 141 q35 63 95.5 98 q60.5 35 133.5 35 q73 0 133.5 -35 q60.5 -35 95.5 -98 q35 -63 35 -141 ZM472 262 q0 54 -22.5 96.5 q-22.5 42.5 -61 66 q-38.5 23.5 -85.5 23.5 q-47 0 -85.5 -23.5 q-38.5 -23.5 -61 -66 q-22.5 -42.5 -22.5 -96.5 q0 -53 22.5 -95 q22.5 -42 61 -65.5 q38.5 -23.5 85.5 -23.5 q47 0 85.5 23.5 q38.5 23.5 61 65.5 q22.5 42 22.5 95 Z" /><glyph glyph-name="ohorn" unicode="&#x1a1;" d="M488 462 q37 -37 58 -88.5 q21 -51.5 21 -111.5 q0 -78 -35 -140 q-35 -62 -95.5 -97 q-60.5 -35 -133.5 -35 q-73 0 -133.5 35 q-60.5 35 -95.5 97 q-35 62 -35 140 q0 78 35 141 q35 63 95.5 98 q60.5 35 133.5 35 q47 0 89 -15 l0 1 q89 0 89 68 q0 18 10.5 32 q10.5 14 29.5 14 q21 0 30.5 -14 q9.5 -14 9.5 -32 q0 -43 -18.5 -76.5 q-18.5 -33.5 -54.5 -51.5 ZM303 78 q47 0 85.5 23.5 q38.5 23.5 61 65.5 q22.5 42 22.5 95 q0 54 -22.5 96.5 q-22.5 42.5 -61 66 q-38.5 23.5 -85.5 23.5 q-47 0 -85.5 -23.5 q-38.5 -23.5 -61 -66 q-22.5 -42.5 -22.5 -96.5 q0 -53 22.5 -95 q22.5 -42 61 -65.5 q38.5 -23.5 85.5 -23.5 Z" /><glyph glyph-name="uni01EB" unicode="&#x1eb;" d="M418 18 q-88 -42 -88 -91 q0 -24 12 -38 q12 -14 30 -14 q14 0 23 11 q14 18 36 18 q15 0 24.5 -10 q9.5 -10 9.5 -27 q0 -15 -14.5 -31 q-14.5 -16 -38 -26 q-23.5 -10 -49.5 -10 q-48 0 -80.5 28.5 q-32.5 28.5 -32.5 80.5 q0 47 24 82 q-67 7 -120.5 43.5 q-53.5 36.5 -84 95.5 q-30.5 59 -30.5 132 q0 78 35 141 q35 63 95.5 98 q60.5 35 133.5 35 q73 0 133.5 -35 q60.5 -35 95.5 -98 q35 -63 35 -141 q0 -84 -40.5 -149 q-40.5 -65 -108.5 -95 ZM134 262 q0 -53 22.5 -95 q22.5 -42 61 -65.5 q38.5 -23.5 85.5 -23.5 q47 0 85.5 23.5 q38.5 23.5 61 65.5 q22.5 42 22.5 95 q0 54 -22.5 96.5 q-22.5 42.5 -61 66 q-38.5 23.5 -85.5 23.5 q-47 0 -85.5 -23.5 q-38.5 -23.5 -61 -66 q-22.5 -42.5 -22.5 -96.5 Z" /><glyph glyph-name="oslash" unicode="ø" d="M506 441 q61 -75 61 -179 q0 -78 -35 -140 q-35 -62 -95.5 -97 q-60.5 -35 -133.5 -35 q-81 0 -145 42 l-41 -48 q-13 -15 -31 -15 q-17 0 -29 12.5 q-12 12.5 -12 27.5 q0 17 10 28 l42 50 q-58 74 -58 175 q0 78 35 141 q35 63 95.5 98 q60.5 35 133.5 35 q78 0 143 -41 l29 35 q13 15 31 15 q17 0 29 -12 q12 -12 12 -29 q0 -17 -10 -27 l-31 -36 ZM134 262 q0 -55 26 -102 l226 266 q-38 22 -83 22 q-47 0 -85.5 -23.5 q-38.5 -23.5 -61 -66 q-22.5 -42.5 -22.5 -96.5 ZM303 78 q47 0 85.5 23.5 q38.5 23.5 61 65.5 q22.5 42 22.5 95 q0 61 -28 106 l-227 -266 q38 -24 86 -24 Z" /><glyph glyph-name="oe" unicode="&#x153;" d="M566 239 l0 -5 q9 -71 57 -113.5 q48 -42.5 116 -42.5 q48 0 78 14 q30 14 53 36 q15 9 29 9 q17 0 28.5 -12 q11.5 -12 11.5 -28 q0 -21 -20 -38 q-29 -29 -77 -49 q-48 -20 -98 -20 q-74 0 -132.5 29 q-58.5 29 -93.5 81 q-36 -52 -92 -81 q-56 -29 -123 -29 q-73 0 -133.5 35 q-60.5 35 -95.5 97 q-35 62 -35 140 q0 78 35 141 q35 63 95.5 98 q60.5 35 133.5 35 q67 0 124 -29.5 q57 -29.5 92 -82.5 q34 53 87.5 82.5 q53.5 29.5 113.5 29.5 q64 0 120 -33 q56 -33 90 -91 q34 -58 35 -130 q-1 -18 -15 -30.5 q-14 -12.5 -33 -12.5 l-351 0 ZM303 78 q47 0 85.5 23.5 q38.5 23.5 61 65.5 q22.5 42 22.5 95 q0 54 -22.5 96.5 q-22.5 42.5 -61 66 q-38.5 23.5 -85.5 23.5 q-47 0 -85.5 -23.5 q-38.5 -23.5 -61 -66 q-22.5 -42.5 -22.5 -96.5 q0 -53 22.5 -95 q22.5 -42 61 -65.5 q38.5 -23.5 85.5 -23.5 ZM720 448 q-56 0 -97 -31.5 q-41 -31.5 -54 -97.5 l295 0 l0 8 q-5 53 -47.5 87 q-42.5 34 -96.5 34 Z" /><glyph glyph-name="p" unicode="p" d="M334 533 q68 0 123 -34.5 q55 -34.5 86.5 -96.5 q31.5 -62 31.5 -140 q0 -78 -31.5 -139.5 q-31.5 -61.5 -86.5 -96.5 q-55 -35 -121 -35 q-52 0 -97 23 q-45 23 -73 56 l0 -222 q0 -20 -13.5 -34 q-13.5 -14 -34.5 -14 q-20 0 -33.5 13.5 q-13.5 13.5 -13.5 34.5 l0 629 q0 21 13 35 q13 14 34 14 q21 0 34.5 -14 q13.5 -14 13.5 -35 l0 -29 q24 35 70 60 q46 25 98 25 ZM323 79 q46 0 83 24 q37 24 57.5 65.5 q20.5 41.5 20.5 93.5 q0 52 -20.5 93.5 q-20.5 41.5 -57.5 65.5 q-37 24 -83 24 q-47 0 -84 -23.5 q-37 -23.5 -57.5 -65.5 q-20.5 -42 -20.5 -94 q0 -52 20.5 -94 q20.5 -42 57.5 -65.5 q37 -23.5 84 -23.5 Z" /><glyph glyph-name="thorn" unicode="þ" d="M334 533 q68 0 123 -34.5 q55 -34.5 86.5 -96.5 q31.5 -62 31.5 -140 q0 -78 -31.5 -139.5 q-31.5 -61.5 -86.5 -96.5 q-55 -35 -121 -35 q-52 0 -97 23 q-45 23 -73 56 l0 -222 q0 -20 -13.5 -34 q-13.5 -14 -34.5 -14 q-20 0 -33.5 13.5 q-13.5 13.5 -13.5 34.5 l0 844 q0 21 13 34.5 q13 13.5 34 13.5 q21 0 34.5 -14 q13.5 -14 13.5 -34 l0 -244 q24 35 70 60 q46 25 98 25 ZM323 79 q46 0 83 24 q37 24 57.5 65.5 q20.5 41.5 20.5 93.5 q0 52 -20.5 93.5 q-20.5 41.5 -57.5 65.5 q-37 24 -83 24 q-47 0 -84 -23.5 q-37 -23.5 -57.5 -65.5 q-20.5 -42 -20.5 -94 q0 -52 20.5 -94 q20.5 -42 57.5 -65.5 q37 -23.5 84 -23.5 Z" /><glyph glyph-name="q" unicode="q" d="M496 526 q21 0 34.5 -13.5 q13.5 -13.5 13.5 -35.5 l0 -629 q0 -20 -13.5 -34 q-13.5 -14 -34.5 -14 q-21 0 -34 13.5 q-13 13.5 -13 34.5 l0 228 q-25 -36 -70.5 -61 q-45.5 -25 -97.5 -25 q-68 0 -123 35 q-55 35 -87 97.5 q-32 62.5 -32 140.5 q0 78 31.5 140.5 q31.5 62.5 86.5 97.5 q55 35 121 35 q53 0 98 -22 q45 -22 73 -57 l0 20 q0 21 13 35 q13 14 34 14 ZM292 78 q47 0 83.5 24 q36.5 24 57 66 q20.5 42 20.5 95 q0 52 -20.5 94.5 q-20.5 42.5 -57 66.5 q-36.5 24 -83.5 24 q-47 0 -83.5 -24 q-36.5 -24 -57 -66.5 q-20.5 -42.5 -20.5 -94.5 q0 -53 20.5 -95 q20.5 -42 57 -66 q36.5 -24 83.5 -24 Z" /><glyph glyph-name="r" unicode="r" d="M332 536 q26 0 45 -13.5 q19 -13.5 19 -33.5 q0 -24 -12.5 -36.5 q-12.5 -12.5 -30.5 -12.5 q-9 0 -27 6 q-21 7 -33 7 q-31 0 -60.5 -21.5 q-29.5 -21.5 -48 -59 q-18.5 -37.5 -18.5 -83.5 l0 -241 q0 -20 -13.5 -34 q-13.5 -14 -34.5 -14 q-21 0 -34 13.5 q-13 13.5 -13 34.5 l0 428 q0 20 13.5 34 q13.5 14 33.5 14 q21 0 34.5 -14 q13.5 -14 13.5 -34 l0 -51 q22 49 66 79.5 q44 30.5 100 31.5 Z" /><glyph glyph-name="s" unicode="s" d="M41 82 q-9 14 -9 27 q0 20 21 34 q10 7 23 7 q18 0 33 -15 q30 -34 64.5 -51 q34.5 -17 82.5 -17 q38 1 67 17.5 q29 16.5 29 53.5 q0 34 -29.5 52 q-29.5 18 -86.5 33 q-56 15 -93 31.5 q-37 16.5 -62.5 48 q-25.5 31.5 -25.5 82.5 q0 45 25.5 79 q25.5 34 68 53 q42.5 19 92.5 19 q48 0 95.5 -18 q47.5 -18 77.5 -55 q12 -14 12 -29 q0 -16 -16 -31 q-10 -9 -25 -9 q-18 0 -29 12 q-21 24 -51.5 37 q-30.5 13 -67.5 13 q-38 0 -64.5 -15.5 q-26.5 -15.5 -26.5 -52.5 q1 -35 30.5 -52 q29.5 -17 90.5 -33 q53 -14 88 -30 q35 -16 59 -47.5 q24 -31.5 24 -82.5 q0 -47 -27 -81.5 q-27 -34.5 -70.5 -53 q-43.5 -18.5 -92.5 -18.5 q-63 0 -116.5 22 q-53.5 22 -90.5 70 Z" /><glyph glyph-name="scedilla" unicode="&#x15f;" d="M438 143 q0 -57 -38.5 -95.5 q-38.5 -38.5 -97.5 -51.5 l-48 -117 q-10 -27 -34 -27 q-17 0 -36.5 11.5 q-19.5 11.5 -19.5 28.5 q0 14 10 25 l56 73 q-124 7 -189 92 q-9 14 -9 27 q0 20 21 34 q10 7 23 7 q18 0 33 -15 q30 -34 64.5 -51 q34.5 -17 82.5 -17 q38 1 67 17.5 q29 16.5 29 53.5 q0 34 -29.5 52 q-29.5 18 -86.5 33 q-56 15 -93 31.5 q-37 16.5 -62.5 48 q-25.5 31.5 -25.5 82.5 q0 45 25.5 79 q25.5 34 68 53 q42.5 19 92.5 19 q48 0 95.5 -18 q47.5 -18 77.5 -55 q12 -14 12 -29 q0 -16 -16 -31 q-10 -9 -25 -9 q-18 0 -29 12 q-21 24 -51.5 37 q-30.5 13 -67.5 13 q-38 0 -64.5 -15.5 q-26.5 -15.5 -26.5 -52.5 q1 -35 30.5 -52 q29.5 -17 90.5 -33 q53 -14 88 -30 q35 -16 59 -47.5 q24 -31.5 24 -82.5 Z" /><glyph glyph-name="germandbls" unicode="ß" d="M434 442 q72 -24 120.5 -81 q48.5 -57 48.5 -142 q0 -66 -28 -118 q-28 -52 -76.5 -81.5 q-48.5 -29.5 -107.5 -29.5 q-43 0 -74.5 12 q-31.5 12 -48.5 31 q-10 12 -10 26 q0 19 19 33 q12 10 25 10 q16 0 31 -15 q25 -20 61 -20 q52 0 83 39.5 q31 39.5 31 100.5 q0 137 -143 171 q-39 10 -39 43 q0 30 25 43 q42 16 65 43 q23 27 23 59 q0 37 -28.5 58 q-28.5 21 -78.5 21 q-59 0 -92 -40 q-33 -40 -33 -103 l-1 -454 q0 -21 -13 -34.5 q-13 -13.5 -34 -13.5 q-22 0 -35 13.5 q-13 13.5 -13 34.5 l1 359 l-35 0 q-20 0 -34 13 q-14 13 -14 32 q0 20 14 33 q14 13 34 13 l35 0 l0 1 q0 66 26 119.5 q26 53.5 76.5 84.5 q50.5 31 121.5 31 q62 0 106.5 -21 q44.5 -21 67.5 -57.5 q23 -36.5 23 -80.5 q0 -42 -28 -77 q-28 -35 -71 -56 Z" /><glyph glyph-name="t" unicode="t" d="M213 431 l0 -298 q0 -50 45 -50 q7 0 19 3.5 q12 3.5 19 3.5 q13 0 22 -11 q9 -11 9 -28 q0 -21 -24 -36 q-24 -15 -54 -15 q-33 0 -60.5 7 q-27.5 7 -49 35.5 q-21.5 28.5 -21.5 86.5 l0 302 l-58 0 q-19 0 -31.5 12.5 q-12.5 12.5 -12.5 31.5 q0 19 12.5 31 q12.5 12 31.5 12 l58 0 l0 84 q0 20 13.5 34 q13.5 14 34.5 14 q20 0 33.5 -14 q13.5 -14 13.5 -34 l0 -84 l83 0 q19 0 31.5 -12.5 q12.5 -12.5 12.5 -31.5 q0 -19 -12.5 -31 q-12.5 -12 -31.5 -12 l-83 0 Z" /><glyph glyph-name="tbar" unicode="&#x167;" d="M213 431 l0 -129 l64 0 q21 0 34.5 -12.5 q13.5 -12.5 13.5 -31.5 q0 -19 -13.5 -31.5 q-13.5 -12.5 -34.5 -12.5 l-64 0 l0 -81 q0 -50 45 -50 q7 0 19 3.5 q12 3.5 19 3.5 q13 0 22 -11 q9 -11 9 -28 q0 -21 -24 -36 q-24 -15 -54 -15 q-33 0 -60.5 7 q-27.5 7 -49 35.5 q-21.5 28.5 -21.5 86.5 l0 85 l-11 0 q-21 0 -34.5 12.5 q-13.5 12.5 -13.5 32.5 q0 19 13.5 31 q13.5 12 34.5 12 l11 0 l0 129 l-58 0 q-19 0 -31.5 12.5 q-12.5 12.5 -12.5 31.5 q0 19 12.5 31 q12.5 12 31.5 12 l58 0 l0 84 q0 20 13.5 34 q13.5 14 34.5 14 q20 0 33.5 -14 q13.5 -14 13.5 -34 l0 -84 l83 0 q19 0 31.5 -12.5 q12.5 -12.5 12.5 -31.5 q0 -19 -12.5 -31 q-12.5 -12 -31.5 -12 l-83 0 Z" /><glyph glyph-name="uni0163" unicode="&#x163;" d="M213 431 l0 -298 q0 -50 45 -50 q7 0 19 3.5 q12 3.5 19 3.5 q13 0 22 -11 q9 -11 9 -28 q0 -21 -24 -36 q-24 -15 -54 -15 l-49 -121 q-10 -27 -34 -27 q-17 0 -36.5 11.5 q-19.5 11.5 -19.5 28.5 q0 14 10 25 l69 90 q-71 23 -71 122 l0 302 l-58 0 q-19 0 -31.5 12.5 q-12.5 12.5 -12.5 31.5 q0 19 12.5 31 q12.5 12 31.5 12 l58 0 l0 84 q0 20 13.5 34 q13.5 14 34.5 14 q20 0 33.5 -14 q13.5 -14 13.5 -34 l0 -84 l83 0 q19 0 31.5 -12.5 q12.5 -12.5 12.5 -31.5 q0 -19 -12.5 -31 q-12.5 -12 -31.5 -12 l-83 0 Z" /><glyph glyph-name="u" unicode="u" d="M461 524 q21 0 34.5 -14 q13.5 -14 13.5 -34 l0 -266 q0 -104 -57.5 -161.5 q-57.5 -57.5 -162.5 -57.5 q-104 0 -161 57.5 q-57 57.5 -57 161.5 l0 266 q0 20 13.5 34 q13.5 14 33.5 14 q21 0 34.5 -14 q13.5 -14 13.5 -34 l0 -266 q0 -131 123 -131 q61 0 93 33 q32 33 32 98 l0 266 q0 20 13.5 34 q13.5 14 33.5 14 Z" /><glyph glyph-name="uhorn" unicode="&#x1b0;" d="M622 591 q0 -54 -28.5 -92 q-28.5 -38 -84.5 -51 l0 -238 q0 -104 -57.5 -161.5 q-57.5 -57.5 -162.5 -57.5 q-104 0 -161 57.5 q-57 57.5 -57 161.5 l0 266 q0 20 13.5 34 q13.5 14 33.5 14 q21 0 34.5 -14 q13.5 -14 13.5 -34 l0 -266 q0 -131 123 -131 q61 0 93 33 q32 33 32 98 l0 266 q0 20 13.5 34 q13.5 14 33.5 14 l7 0 q74 5 74 67 q0 18 10.5 32 q10.5 14 29.5 14 q21 0 30.5 -14 q9.5 -14 9.5 -32 Z" /><glyph glyph-name="uogonek" unicode="&#x173;" d="M434 37 q-7 -5 -36.5 -23 q-29.5 -18 -46 -40.5 q-16.5 -22.5 -16.5 -48.5 q0 -21 14.5 -35.5 q14.5 -14.5 33.5 -14.5 q15 0 25 12 q14 17 35 17 q15 0 24.5 -10 q9.5 -10 9.5 -27 q0 -15 -14.5 -31 q-14.5 -16 -38 -26 q-23.5 -10 -49.5 -10 q-50 0 -85 31.5 q-35 31.5 -35 80.5 q0 40 27 79 q-101 2 -156 59.5 q-55 57.5 -55 159.5 l0 266 q0 20 13.5 34 q13.5 14 33.5 14 q21 0 34.5 -14 q13.5 -14 13.5 -34 l0 -266 q0 -131 123 -131 q61 0 93 33 q32 33 32 98 l0 266 q0 20 13.5 34 q13.5 14 33.5 14 q21 0 34.5 -14 q13.5 -14 13.5 -34 l0 -266 q0 -58 -17 -101 q-17 -43 -58 -72 Z" /><glyph glyph-name="v" unicode="v" d="M471 529 q19 0 32 -12.5 q13 -12.5 13 -29.5 q0 -9 -7 -25 l-190 -432 q-6 -13 -17 -21 q-11 -8 -24 -9 q-16 -2 -29.5 6 q-13.5 8 -20.5 24 l-190 432 q-5 15 -5 25 q0 16 13 29 q13 13 34 13 q15 0 27 -7.5 q12 -7.5 19 -22.5 l151 -351 l151 351 q14 30 43 30 Z" /><glyph glyph-name="w" unicode="w" d="M683 529 q19 0 32.5 -13.5 q13.5 -13.5 13.5 -34.5 q0 -7 -4 -19 l-153 -432 q-6 -16 -20 -24 q-14 -8 -30 -6 q-27 2 -41 30 l-104 272 l-96 -272 q-6 -14 -17 -21.5 q-11 -7.5 -24 -8.5 q-15 -2 -29.5 6.5 q-14.5 8.5 -19.5 23.5 l-155 432 q-3 9 -3 19 q0 20 13 34 q13 14 34 14 q34 0 44 -30 l119 -337 l95 249 q12 30 44 30 q30 0 41 -30 l97 -245 l117 333 q11 30 46 30 Z" /><glyph glyph-name="x" unicode="x" d="M452 74 q11 -12 11 -28 q0 -20 -15 -34.5 q-15 -14.5 -33 -14.5 q-23 0 -39 21 l-134 169 l-132 -169 q-7 -10 -17 -15 q-10 -5 -21 -5 q-17 0 -31.5 12.5 q-14.5 12.5 -14.5 29.5 q0 18 11 30 l150 187 l-154 194 q-10 13 -10 28 q0 20 14.5 34 q14.5 14 33.5 14 q24 0 39 -20 l137 -173 l129 172 q15 21 38 21 q19 0 32 -12.5 q13 -12.5 13 -29.5 q0 -19 -11 -31 l-148 -187 l152 -193 Z" /><glyph glyph-name="y" unicode="y" d="M461 529 q21 0 34.5 -14 q13.5 -14 13.5 -34 l0 -432 q0 -125 -69 -187 q-69 -62 -182 -62 q-37 0 -73 7 q-36 7 -59 19 q-37 17 -37 46 q0 5 2 13 q6 17 17 26 q11 9 25 9 q8 0 15 -3 q31 -14 55 -22 q24 -8 56 -8 q155 0 155 159 l0 20 q-27 -36 -69.5 -56 q-42.5 -20 -97.5 -20 q-83 0 -129.5 53 q-46.5 53 -46.5 139 l0 299 q0 21 13 34.5 q13 13.5 34 13.5 q21 0 34.5 -14 q13.5 -14 13.5 -34 l0 -274 q0 -66 29 -97.5 q29 -31.5 88 -31.5 q57 0 94 36 q37 36 37 93 l0 274 q0 21 13 34.5 q13 13.5 34 13.5 Z" /><glyph glyph-name="uni1EF5" unicode="&#x1ef5;" d="M496 -46 q25 -1 35.5 -11.5 q10.5 -10.5 10.5 -33.5 l0 -15 q0 -24 -13 -34.5 q-13 -10.5 -42 -10.5 q-33 0 -45 15 q-65 -64 -184 -64 q-37 0 -73 7 q-36 7 -59 19 q-37 17 -37 46 q0 5 2 13 q6 17 17 26 q11 9 25 9 q8 0 15 -3 q31 -14 55 -22 q24 -8 56 -8 q155 0 155 159 l0 20 q-27 -36 -69.5 -56 q-42.5 -20 -97.5 -20 q-83 0 -129.5 53 q-46.5 53 -46.5 139 l0 299 q0 21 13 34.5 q13 13.5 34 13.5 q21 0 34.5 -14 q13.5 -14 13.5 -34 l0 -274 q0 -66 29 -97.5 q29 -31.5 88 -31.5 q57 0 94 36 q37 36 37 93 l0 274 q0 21 13 34.5 q13 13.5 34 13.5 q21 0 34.5 -14 q13.5 -14 13.5 -34 l0 -432 q0 -51 -13 -95 Z" /><glyph glyph-name="z" unicode="z" d="M403 88 q19 0 32 -12.5 q13 -12.5 13 -31.5 q0 -19 -13 -31.5 q-13 -12.5 -32 -12.5 l-323 0 q-19 0 -31.5 14 q-12.5 14 -12.5 29 q1 13 4 21.5 q3 8.5 11 19.5 l262 350 l-217 0 q-19 0 -32 13 q-13 13 -13 32 q0 19 12.5 31 q12.5 12 32.5 12 l307 0 q19 0 31.5 -14 q12.5 -14 11.5 -34 q-1 -10 -3.5 -17.5 q-2.5 -7.5 -10.5 -16.5 l-264 -352 l235 0 Z" /><glyph glyph-name="ordfeminine" unicode="ª" d="M282 715 q18 0 29.5 -10 q11.5 -10 11.5 -24 l0 -246 q0 -15 -12 -24.5 q-12 -9.5 -29 -9.5 q-18 0 -29 10 q-11 10 -11 24 l0 23 q-15 -29 -41 -48 q-26 -19 -59 -19 q-61 0 -94 48.5 q-33 48.5 -33 122.5 q0 68 38 113 q38 45 101 45 q62 0 88 -53 l0 14 q0 13 11.5 23.5 q11.5 10.5 28.5 10.5 ZM170 457 q33 0 54.5 26.5 q21.5 26.5 21.5 71.5 q0 46 -20.5 73 q-20.5 27 -55.5 27 q-30 0 -52 -27.5 q-22 -27.5 -22 -65.5 q0 -46 19 -75.5 q19 -29.5 55 -29.5 Z" /><glyph glyph-name="ordmasculine" unicode="º" d="M331 549 q0 -44 -20.5 -80 q-20.5 -36 -56.5 -56.5 q-36 -20.5 -80 -20.5 q-44 0 -79.5 20.5 q-35.5 20.5 -56 56.5 q-20.5 36 -20.5 80 q0 45 20.5 82 q20.5 37 56 58 q35.5 21 79.5 21 q44 0 80 -21 q36 -21 56.5 -58 q20.5 -37 20.5 -82 ZM254 549 q0 40 -22 65.5 q-22 25.5 -58 25.5 q-36 0 -57.5 -25.5 q-21.5 -25.5 -21.5 -65.5 q0 -38 21.5 -62.5 q21.5 -24.5 57.5 -24.5 q36 0 58 24.5 q22 24.5 22 62.5 Z" /><glyph glyph-name="pi" unicode="&#x3c0;" d="M141 0 q-17 0 -28 11.5 q-11 11.5 -11 28.5 l0 391 q0 5 -5 5 l-29 0 q-17 0 -28.5 11.5 q-11.5 11.5 -11.5 28.5 q0 17 11.5 28 q11.5 11 28.5 11 l454 0 q17 0 28.5 -11.5 q11.5 -11.5 11.5 -28.5 q0 -17 -11.5 -28 q-11.5 -11 -28.5 -11 l-30 0 q-5 0 -5 -5 l0 -391 q0 -17 -11.5 -28.5 q-11.5 -11.5 -28.5 -11.5 q-17 0 -28 11.5 q-11 11.5 -11 28.5 l0 391 q0 5 -5 5 l-217 0 q-5 0 -5 -5 l0 -391 q0 -17 -11.5 -28.5 q-11.5 -11.5 -28.5 -11.5 Z" /><glyph glyph-name="zero" unicode="0" d="M303 -10 q-82 0 -140 46 q-58 46 -87.5 127 q-29.5 81 -29.5 187 q0 106 29.5 187 q29.5 81 87.5 127 q58 46 140 46 q82 0 140 -46 q58 -46 87.5 -127 q29.5 -81 29.5 -187 q0 -106 -29.5 -187 q-29.5 -81 -87.5 -127 q-58 -46 -140 -46 ZM303 86 q73 0 113.5 69 q40.5 69 40.5 195 q0 126 -40.5 195 q-40.5 69 -113.5 69 q-73 0 -113.5 -69 q-40.5 -69 -40.5 -195 q0 -126 40.5 -195 q40.5 -69 113.5 -69 Z" /><glyph glyph-name="one" unicode="1" d="M223 700 q20 -1 32.5 -14.5 q12.5 -13.5 12.5 -33.5 l0 -604 q0 -20 -15 -34 q-15 -14 -37 -14 q-22 0 -36 14 q-14 14 -14 34 l0 520 l-88 -53 q-11 -7 -25 -7 q-20 0 -34 15.5 q-14 15.5 -14 33.5 q0 12 7 23 q7 11 18 18 l158 95 q14 7 35 7 Z" /><glyph glyph-name="two" unicode="2" d="M468 88 q19 0 32 -13 q13 -13 13 -32 q0 -19 -13 -31 q-13 -12 -32 -12 l-355 0 q-20 0 -33 12.5 q-13 12.5 -13 33.5 q0 18 14 34 l223 242 q93 99 93 175 q0 54 -35.5 89.5 q-35.5 35.5 -90.5 35.5 q-37 0 -71 -21 q-34 -21 -55 -60 q-16 -21 -38 -21 q-17 0 -32 13 q-15 13 -15 30 q0 11 7.5 23 q7.5 12 21.5 28 q33 44 84 70 q51 26 103 26 q67 0 116 -27 q49 -27 75.5 -74 q26.5 -47 26.5 -108 q0 -115 -124 -248 l-151 -165 l249 0 Z" /><glyph glyph-name="three" unicode="3" d="M275 443 q57 0 102.5 -28.5 q45.5 -28.5 71.5 -77.5 q26 -49 26 -110 q0 -71 -33 -125 q-33 -54 -91 -83 q-58 -29 -133 -29 q-40 0 -77.5 11 q-37.5 11 -64.5 32 q-27 15 -27 41 q0 19 13.5 35 q13.5 16 32.5 16 q18 0 36 -13 q41 -38 103 -38 q39 0 72.5 18 q33.5 18 53.5 51.5 q20 33.5 20 77.5 q0 65 -40 100 q-40 35 -96 35 q-16 0 -46 -7 q-22 -6 -33 -6 q-18 0 -29 12.5 q-11 12.5 -11 31.5 q0 11 4 19 q4 8 13 19 l170 187 l-231 0 q-19 0 -32 13 q-13 13 -13 32 q0 19 13 31 q13 12 32 12 l319 0 q23 0 36 -14 q13 -14 13 -34 q0 -18 -19 -37 l-155 -172 Z" /><glyph glyph-name="four" unicode="4" d="M536 288 q19 0 32 -12.5 q13 -12.5 13 -31.5 q0 -19 -13 -31 q-13 -12 -32 -12 l-53 0 l0 -153 q0 -20 -14 -34 q-14 -14 -34 -14 q-20 0 -33.5 14 q-13.5 14 -13.5 34 l0 153 l-274 0 q-18 0 -32.5 14 q-14.5 14 -14.5 33 q0 18 11 32 l319 401 q7 9 17.5 14 q10.5 5 21.5 5 q20 0 33.5 -14 q13.5 -14 13.5 -34 l0 -364 l53 0 ZM193 288 l195 0 l0 250 l-195 -250 Z" /><glyph glyph-name="five" unicode="5" d="M266 468 q65 0 118 -29.5 q53 -29.5 83 -82 q30 -52.5 30 -117.5 q0 -69 -35.5 -125 q-35.5 -56 -97 -88.5 q-61.5 -32.5 -134.5 -32.5 q-41 0 -82 13 q-41 13 -69 36 q-10 8 -16 21 q-6 13 -6 26 q0 15 12.5 27.5 q12.5 12.5 32.5 12.5 q13 0 35 -15 q45 -33 92 -33 q48 0 87.5 21 q39.5 21 62.5 57 q23 36 23 79 q0 64 -42 103 q-42 39 -106 39 q-27 0 -47.5 -7 q-20.5 -7 -49.5 -21 q-12 -6 -23.5 -10.5 q-11.5 -4.5 -19.5 -4.5 q-29 0 -43 17 q-14 17 -14 39 l1 10 l36 259 q3 16 16.5 27 q13.5 11 32.5 11 l294 0 q19 0 31.5 -13 q12.5 -13 12.5 -32 q0 -19 -12.5 -31.5 q-12.5 -12.5 -31.5 -12.5 l-261 0 l-26 -171 q22 12 53.5 20 q31.5 8 62.5 8 Z" /><glyph glyph-name="six" unicode="6" d="M294 449 q55 0 104 -31.5 q49 -31.5 78.5 -84.5 q29.5 -53 29.5 -114 q0 -62 -30 -114.5 q-30 -52.5 -82 -83.5 q-52 -31 -115 -31 q-72 0 -124.5 37 q-52.5 37 -80.5 97 q-28 60 -28 129 q0 77 30 169.5 q30 92.5 98.5 172 q68.5 79.5 175.5 113.5 q9 3 18 3 q21 0 34.5 -11 q13.5 -11 13.5 -35 q0 -17 -11 -30 q-11 -13 -30 -18 q-70 -25 -130 -86 q-60 -61 -86 -137 q59 55 135 55 ZM278 78 q57 0 95 40 q38 40 38 101 q0 59 -36.5 100.5 q-36.5 41.5 -94.5 41.5 q-60 0 -98.5 -41.5 q-38.5 -41.5 -38.5 -102.5 q0 -58 37.5 -98.5 q37.5 -40.5 97.5 -40.5 Z" /><glyph glyph-name="seven" unicode="7" d="M461 700 q21 0 35.5 -13 q14.5 -13 14.5 -33 q0 -10 -5 -22 l-268 -606 q-6 -14 -18 -22 q-12 -8 -26 -8 q-19 0 -34 13 q-15 13 -15 32 q0 10 5 22 l244 549 l-289 0 q-19 0 -32 13 q-13 13 -13 32 q0 19 12.5 31 q12.5 12 32.5 12 l356 0 Z" /><glyph glyph-name="eight" unicode="8" d="M410 362 q48 -27 76.5 -70 q28.5 -43 28.5 -92 q0 -55 -30 -101.5 q-30 -46.5 -82 -74 q-52 -27.5 -114 -27.5 q-62 0 -114 27.5 q-52 27.5 -82 74 q-30 46.5 -30 101.5 q0 54 28.5 94.5 q28.5 40.5 73.5 66.5 q-37 21 -61 57.5 q-24 36.5 -24 85.5 q0 54 28 99 q28 45 75.5 71 q47.5 26 105.5 26 q57 0 105 -26 q48 -26 75.5 -71 q27.5 -45 27.5 -99 q0 -51 -25 -86.5 q-25 -35.5 -62 -55.5 ZM289 612 q-50 0 -82 -31 q-32 -31 -32 -79 q0 -47 33 -78.5 q33 -31.5 81 -31.5 q47 0 80 31.5 q33 31.5 33 78.5 q0 48 -32 79 q-32 31 -81 31 ZM289 85 q56 0 93.5 33 q37.5 33 37.5 83 q0 50 -38.5 84 q-38.5 34 -92.5 34 q-54 0 -92 -34 q-38 -34 -38 -84 q0 -50 37 -83 q37 -33 93 -33 Z" /><glyph glyph-name="nine" unicode="9" d="M274 712 q72 0 124.5 -37 q52.5 -37 80 -97 q27.5 -60 27.5 -129 q0 -77 -30 -168 q-30 -91 -98 -169.5 q-68 -78.5 -175 -112.5 q-9 -3 -18 -3 q-20 0 -34.5 11.5 q-14.5 11.5 -14.5 34.5 q0 17 11 30 q11 13 30 18 q71 25 131.5 84 q60.5 59 85.5 135 q-58 -56 -135 -56 q-55 0 -104.5 31.5 q-49.5 31.5 -79 85 q-29.5 53.5 -29.5 114.5 q0 61 30.5 113.5 q30.5 52.5 82.5 83.5 q52 31 115 31 ZM272 342 q61 0 99.5 41 q38.5 41 38.5 102 q0 58 -38 98.5 q-38 40.5 -98 40.5 q-56 0 -94 -40 q-38 -40 -38 -100 q0 -60 36.5 -101 q36.5 -41 93.5 -41 Z" /><glyph glyph-name="fraction" unicode="&#x2044;" d="M64 -2 q-15 0 -28.5 11 q-13.5 11 -13.5 28 q0 11 7 25 l411 621 q14 19 33 19 q15 0 28.5 -11 q13.5 -11 13.5 -28 q0 -12 -8 -25 l-410 -621 q-14 -19 -33 -19 Z" /><glyph glyph-name="asterisk" unicode="*" d="M170 390 q-13 0 -20.5 8.5 q-7.5 8.5 -5.5 21.5 l8 85 q1 3 -1 4 q-2 1 -5 -1 l-70 -49 q-9 -6 -18 -6 q-14 0 -23 14 q-4 8 -4 16 q0 16 17 24 l79 36 q3 1 3 3 q0 2 -3 3 l-79 36 q-8 4 -12.5 10.5 q-4.5 6.5 -4.5 14.5 q0 8 4 15 q9 14 24 14 q7 0 17 -5 l70 -51 q3 -2 5 -1 q2 1 1 4 l-8 85 q-1 13 6.5 22 q7.5 9 21.5 9 q12 0 19.5 -9 q7.5 -9 6.5 -22 l-8 -85 q-1 -3 1 -4 q2 -1 5 1 l70 50 q8 6 17 6 q16 0 24 -14 q4 -7 4 -15 q0 -17 -18 -25 l-78 -36 q-3 -1 -3 -3 q0 -2 3 -3 l78 -36 q18 -9 18 -26 q0 -4 -4 -14 q-10 -15 -24 -15 q-10 0 -17 6 l-70 50 q-3 2 -5 1 q-2 -1 -1 -4 l8 -85 q1 -13 -7 -21.5 q-8 -8.5 -21 -8.5 Z" /><glyph glyph-name="backslash" unicode="\" d="M485 -134 q-12 0 -22.5 7.5 q-10.5 7.5 -15.5 19.5 l-420 849 q-5 9 -5 20 q0 17 13 28.5 q13 11.5 28 11.5 q26 0 39 -27 l421 -849 q5 -12 5 -20 q0 -17 -14 -28.5 q-14 -11.5 -29 -11.5 Z" /><glyph glyph-name="periodcentered" unicode="·" d="M100 243 q-24 0 -37.5 13.5 q-13.5 13.5 -13.5 37.5 l0 19 q0 25 13.5 38 q13.5 13 37.5 13 l10 0 q25 0 38 -13 q13 -13 13 -38 l0 -19 q0 -24 -13 -37.5 q-13 -13.5 -38 -13.5 l-10 0 Z" /><glyph glyph-name="bullet" unicode="&#x2022;" d="M173 216 q-36 0 -67.5 18 q-31.5 18 -50 49 q-18.5 31 -18.5 68 q0 38 18.5 69.5 q18.5 31.5 49.5 49.5 q31 18 68 18 q37 0 68 -18 q31 -18 49.5 -49.5 q18.5 -31.5 18.5 -69.5 q0 -37 -18.5 -68 q-18.5 -31 -49.5 -49 q-31 -18 -68 -18 Z" /><glyph glyph-name="colon" unicode=":" d="M113 402 q-24 0 -36.5 13 q-12.5 13 -12.5 38 l0 18 q0 25 12.5 38 q12.5 13 36.5 13 l11 0 q24 0 36.5 -13 q12.5 -13 12.5 -38 l0 -18 q0 -25 -12.5 -38 q-12.5 -13 -36.5 -13 l-11 0 ZM113 0 q-24 0 -36.5 13.5 q-12.5 13.5 -12.5 37.5 l0 19 q0 24 12.5 37.5 q12.5 13.5 36.5 13.5 l11 0 q24 0 36.5 -13.5 q12.5 -13.5 12.5 -37.5 l0 -19 q0 -24 -12.5 -37.5 q-12.5 -13.5 -36.5 -13.5 l-11 0 Z" /><glyph glyph-name="comma" unicode="," d="M191 6 q0 -25 -16 -57.5 q-16 -32.5 -40.5 -55.5 q-24.5 -23 -50.5 -23 q-17 0 -28 8.5 q-11 8.5 -11 24.5 q0 14 7 19.5 q7 5.5 16.5 8.5 q9.5 3 14.5 5 q14 7 21.5 18.5 q7.5 11.5 7.5 25.5 q0 11 -9 19 q-9 8 -23 8 q-16 0 -27 -8 q-10 5 -15 12.5 q-5 7.5 -5 20.5 q1 24 26 42.5 q25 18.5 53 18.5 q37 0 58 -23 q21 -23 21 -64 Z" /><glyph glyph-name="exclam" unicode="!" d="M117 210 q-28 0 -30 32 l-22 398 q-2 26 12.5 43 q14.5 17 38.5 17 q25 0 39 -17 q14 -17 12 -43 l-21 -398 q-1 -16 -8.5 -24 q-7.5 -8 -20.5 -8 ZM111 0 q-24 0 -36.5 13.5 q-12.5 13.5 -12.5 37.5 l0 19 q0 24 12.5 37.5 q12.5 13.5 36.5 13.5 l11 0 q24 0 36.5 -13.5 q12.5 -13.5 12.5 -37.5 l0 -19 q0 -24 -12.5 -37.5 q-12.5 -13.5 -36.5 -13.5 l-11 0 Z" /><glyph glyph-name="exclamdown" unicode="¡" d="M122 529 q24 0 36.5 -13.5 q12.5 -13.5 12.5 -37.5 l0 -19 q0 -24 -12.5 -37.5 q-12.5 -13.5 -36.5 -13.5 l-11 0 q-24 0 -36.5 13.5 q-12.5 13.5 -12.5 37.5 l0 19 q0 24 12.5 37.5 q12.5 13.5 36.5 13.5 l11 0 ZM116 319 q28 0 30 -32 l22 -398 q2 -26 -12.5 -43 q-14.5 -17 -38.5 -17 q-25 0 -39 17 q-14 17 -12 43 l21 398 q1 16 8.5 24 q7.5 8 20.5 8 Z" /><glyph glyph-name="numbersign" unicode="#" d="M532 449 l-33 -194 l65 0 q19 0 32 -13 q13 -13 13 -32 q0 -18 -13 -29.5 q-13 -11.5 -32 -11.5 l-80 0 l-23 -133 q-2 -16 -13.5 -26 q-11.5 -10 -27.5 -10 q-19 0 -31.5 12.5 q-12.5 12.5 -12.5 32.5 q0 7 1 11 l19 113 l-177 0 l-23 -133 q-3 -17 -14.5 -26.5 q-11.5 -9.5 -27.5 -9.5 q-20 0 -32 13 q-12 13 -12 33 q0 7 1 10 l20 113 l-55 0 q-19 0 -32 13 q-13 13 -13 32 q0 18 12.5 29.5 q12.5 11.5 32.5 11.5 l69 0 l34 194 l-65 0 q-19 0 -32 13 q-13 13 -13 32 q0 18 12.5 29.5 q12.5 11.5 32.5 11.5 l80 0 l22 129 q2 16 13.5 26 q11.5 10 27.5 10 q19 0 31.5 -12.5 q12.5 -12.5 12.5 -32.5 q0 -7 -1 -11 l-19 -109 l178 0 l22 129 q2 16 13.5 26 q11.5 10 28.5 10 q19 0 31.5 -13 q12.5 -13 12.5 -33 q0 -7 -1 -10 l-19 -109 l54 0 q20 0 32.5 -12.5 q12.5 -12.5 12.5 -32.5 q0 -18 -12.5 -29.5 q-12.5 -11.5 -32.5 -11.5 l-69 0 ZM411 255 l33 194 l-177 0 l-34 -194 l178 0 Z" /><glyph glyph-name="period" unicode="." d="M105 1 q-24 0 -36.5 13 q-12.5 13 -12.5 38 l0 19 q0 24 12.5 37 q12.5 13 36.5 13 l10 0 q25 0 37.5 -13 q12.5 -13 12.5 -37 l0 -19 q0 -51 -50 -51 l-10 0 Z" /><glyph glyph-name="question" unicode="?" d="M175 324 q0 21 13.5 35 q13.5 14 33.5 14 q67 2 109.5 37.5 q42.5 35.5 42.5 101.5 q0 57 -39 94.5 q-39 37.5 -96 37.5 q-32 0 -61.5 -13.5 q-29.5 -13.5 -51.5 -36.5 q-20 -18 -40 -18 q-14 0 -26 9 q-22 16 -22 37 q0 18 15 33 q34 39 82.5 61 q48.5 22 103.5 22 q64 0 116.5 -29 q52.5 -29 83.5 -80.5 q31 -51.5 31 -116.5 q0 -60 -26.5 -106.5 q-26.5 -46.5 -72.5 -75 q-46 -28.5 -104 -34.5 q-1 0 -0.5 -0.5 q0.5 -0.5 2.5 0.5 l0 -66 q0 -20 -13.5 -34 q-13.5 -14 -33.5 -14 q-21 0 -34.5 14 q-13.5 14 -12.5 34 l0 94 ZM219 0 q-24 0 -37 13.5 q-13 13.5 -13 37.5 l0 19 q0 24 13 37.5 q13 13.5 37 13.5 l10 0 q24 0 37 -13.5 q13 -13.5 13 -37.5 l0 -19 q0 -24 -13 -37.5 q-13 -13.5 -37 -13.5 l-10 0 Z" /><glyph glyph-name="questiondown" unicode="¿" d="M286 535 q24 0 37 -13.5 q13 -13.5 13 -37.5 l0 -19 q0 -24 -13 -37.5 q-13 -13.5 -37 -13.5 l-10 0 q-24 0 -37 13.5 q-13 13.5 -13 37.5 l0 19 q0 24 13 37.5 q13 13.5 37 13.5 l10 0 ZM330 211 q0 -21 -13.5 -35 q-13.5 -14 -33.5 -14 q-67 -2 -109.5 -37.5 q-42.5 -35.5 -42.5 -101.5 q0 -57 39 -94.5 q39 -37.5 96 -37.5 q32 0 61.5 13.5 q29.5 13.5 51.5 36.5 q20 18 40 18 q14 0 26 -9 q22 -16 22 -37 q0 -18 -15 -33 q-34 -39 -82.5 -61 q-48.5 -22 -103.5 -22 q-64 0 -116.5 29 q-52.5 29 -83.5 80.5 q-31 51.5 -31 116.5 q0 60 26.5 106.5 q26.5 46.5 72.5 75 q46 28.5 104 34.5 q1 0 0.5 0.5 q-0.5 0.5 -2.5 -0.5 l0 66 q0 20 13.5 34 q13.5 14 33.5 14 q21 0 34.5 -14 q13.5 -14 12.5 -34 l0 -94 Z" /><glyph glyph-name="quotedbl" unicode="&quot;" d="M58 661 q5 39 43 39 l30 0 q17 0 26 -7.5 q9 -7.5 9 -21.5 q0 -7 -3 -16 l-66 -212 q-10 -28 -36 -28 q-13 0 -19 9 q-6 9 -4 26 l20 211 ZM266 661 q3 39 42 39 l31 0 q16 0 25 -7.5 q9 -7.5 9 -21.5 q0 -7 -3 -16 l-67 -212 q-9 -28 -36 -28 q-12 0 -17.5 9.5 q-5.5 9.5 -4.5 26.5 l21 210 Z" /><glyph glyph-name="quotesingle" unicode="&#39;" d="M58 661 q5 39 43 39 l31 0 q16 0 25 -7.5 q9 -7.5 9 -20.5 q0 -8 -3 -17 l-66 -212 q-9 -28 -36 -28 q-13 0 -19 9 q-6 9 -4 26 l20 211 Z" /><glyph glyph-name="semicolon" unicode=";" d="M137 402 q-25 0 -38 13 q-13 13 -13 38 l0 18 q0 25 13 38 q13 13 38 13 l10 0 q24 0 37.5 -13 q13.5 -13 13.5 -38 l0 -18 q0 -25 -13.5 -38 q-13.5 -13 -37.5 -13 l-10 0 ZM213 6 q0 -25 -16 -57.5 q-16 -32.5 -40.5 -55.5 q-24.5 -23 -50.5 -23 q-17 0 -28 8.5 q-11 8.5 -11 24.5 q0 14 7 19.5 q7 5.5 16.5 8.5 q9.5 3 14.5 5 q14 7 21.5 18.5 q7.5 11.5 7.5 25.5 q0 11 -9 19 q-9 8 -23 8 q-16 0 -27 -8 q-10 5 -15 12.5 q-5 7.5 -5 20.5 q1 24 26 42.5 q25 18.5 53 18.5 q37 0 58 -23 q21 -23 21 -64 Z" /><glyph glyph-name="slash" unicode="/" d="M64 -132 q-16 0 -29.5 12 q-13.5 12 -13.5 29 q0 8 5 20 l419 844 q14 27 39 27 q15 0 28 -11.5 q13 -11.5 13 -28.5 q0 -12 -5 -22 l-418 -844 q-12 -26 -38 -26 Z" /><glyph glyph-name="underscore" unicode="_" d="M93 -160 q-17 0 -28.5 11 q-11.5 11 -11.5 28 q0 16 11.5 27 q11.5 11 28.5 11 l502 0 q18 0 29 -11 q11 -11 11 -28 q0 -17 -11 -27.5 q-11 -10.5 -29 -10.5 l-502 0 Z" /><glyph glyph-name="braceleft" unicode="{" d="M358 -132 q13 -5 20.5 -15 q7.5 -10 7.5 -21 q-1 -14 -10.5 -23.5 q-9.5 -9.5 -22.5 -9.5 q-9 0 -13 1 q-73 14 -113.5 40.5 q-40.5 26.5 -56 63.5 q-15.5 37 -15.5 89 l1 95 q0 58 -25.5 91 q-25.5 33 -73.5 34 l-4 0 q-16 0 -27 11 q-11 11 -11 27 q0 16 11 26.5 q11 10.5 27 10.5 l6 0 q48 1 72.5 34 q24.5 33 24.5 90 l-1 95 q0 81 42.5 126 q42.5 45 141.5 67 q5 1 13 1 q17 0 25.5 -10 q8.5 -10 8.5 -25 q0 -11 -7.5 -20 q-7.5 -9 -20.5 -13 q-48 -16 -72.5 -34 q-24.5 -18 -33 -42 q-8.5 -24 -8.5 -63 l1 -95 q0 -58 -25.5 -96 q-25.5 -38 -72.5 -53 q47 -16 72.5 -53.5 q25.5 -37.5 25.5 -94.5 l-1 -95 q0 -40 8.5 -63.5 q8.5 -23.5 32.5 -41.5 q24 -18 73 -34 Z" /><glyph glyph-name="braceright" unicode="}" d="M359 289 q16 0 27 -11 q11 -11 11 -27 q0 -16 -11 -26.5 q-11 -10.5 -27 -10.5 l-6 0 q-48 -1 -72.5 -34 q-24.5 -33 -24.5 -91 l1 -95 q0 -50 -16.5 -84.5 q-16.5 -34.5 -56.5 -61 q-40 -26.5 -112 -47.5 q-8 -2 -14 -2 q-14 0 -23 12 q-9 12 -9 25 q0 11 7.5 19.5 q7.5 8.5 20.5 13.5 q49 16 73 33.5 q24 17.5 32.5 41.5 q8.5 24 8.5 64 l-1 95 q0 58 25.5 96 q25.5 38 72.5 53 q-47 16 -72.5 53 q-25.5 37 -25.5 95 l1 95 q0 40 -8.5 63.5 q-8.5 23.5 -32.5 41.5 q-24 18 -73 34 q-28 11 -28 36 q1 14 10.5 23.5 q9.5 9.5 22.5 9.5 q9 0 13 -1 q73 -15 113.5 -41.5 q40.5 -26.5 56 -63 q15.5 -36.5 15.5 -88.5 l-1 -95 q0 -58 25.5 -91 q25.5 -33 73.5 -34 l4 0 Z" /><glyph glyph-name="bracketleft" unicode="[" d="M337 -112 q17 0 28 -11.5 q11 -11.5 11 -28.5 q0 -16 -11 -27 q-11 -11 -28 -11 l-218 0 q-16 0 -27.5 11 q-11.5 11 -11.5 28 l0 812 q0 17 11.5 28 q11.5 11 27.5 11 l218 0 q17 0 28 -11 q11 -11 11 -28 q0 -17 -11 -27.5 q-11 -10.5 -28 -10.5 l-165 0 l0 -735 l165 0 Z" /><glyph glyph-name="bracketright" unicode="]" d="M283 700 q17 0 28.5 -11 q11.5 -11 11.5 -28 l0 -812 q0 -17 -11.5 -28 q-11.5 -11 -28.5 -11 l-217 0 q-17 0 -28.5 11 q-11.5 11 -11.5 28 q0 16 11.5 27 q11.5 11 28.5 11 l165 0 l0 735 l-165 0 q-17 0 -28.5 11.5 q-11.5 11.5 -11.5 28.5 q0 16 11.5 27 q11.5 11 28.5 11 l217 0 Z" /><glyph glyph-name="parenleft" unicode="(" d="M304 -186 q-10 0 -22 6 q-117 70 -180 186.5 q-63 116.5 -63 251.5 q0 135 63 249.5 q63 114.5 181 188.5 q10 7 21 7 q18 0 29 -13.5 q11 -13.5 11 -28.5 q0 -19 -17 -33 q-93 -64 -142.5 -162 q-49.5 -98 -49.5 -208 q0 -113 49 -212 q49 -99 143 -158 q17 -12 17 -33 q0 -15 -11.5 -28 q-11.5 -13 -28.5 -13 Z" /><glyph glyph-name="parenright" unicode=")" d="M60 -186 q-17 0 -28.5 13.5 q-11.5 13.5 -11.5 28.5 q0 20 17 33 q93 64 142.5 162 q49.5 98 49.5 208 q0 112 -49 211 q-49 99 -143 159 q-8 5 -12.5 14 q-4.5 9 -4.5 18 q0 16 11.5 29 q11.5 13 28.5 13 q11 0 22 -7 q117 -70 180 -186 q63 -116 63 -251 q0 -134 -63.5 -249 q-63.5 -115 -180.5 -189 q-10 -7 -21 -7 Z" /><glyph glyph-name="emdash" unicode="&#x2014;" d="M102 242 q-21 0 -35 13.5 q-14 13.5 -14 33.5 q0 20 14 33 q14 13 35 13 l662 0 q21 0 35 -13 q14 -13 14 -33 q0 -20 -14 -33.5 q-14 -13.5 -35 -13.5 l-662 0 Z" /><glyph glyph-name="endash" unicode="&#x2013;" d="M102 242 q-21 0 -35 13 q-14 13 -14 33 q0 20 14 32.5 q14 12.5 35 12.5 l310 0 q21 0 34.5 -12.5 q13.5 -12.5 13.5 -32.5 q0 -20 -13.5 -33 q-13.5 -13 -34.5 -13 l-310 0 Z" /><glyph glyph-name="hyphen" unicode="-" d="M101 240 q-20 0 -34 13.5 q-14 13.5 -14 34.5 q0 20 14 33 q14 13 34 13 l192 0 q20 0 33.5 -13.5 q13.5 -13.5 13.5 -34.5 q0 -20 -13.5 -33 q-13.5 -13 -33.5 -13 l-192 0 Z" /><glyph glyph-name="guilsinglleft" unicode="&#x2039;" d="M226 121 q9 -13 9 -28 q0 -19 -14.5 -31 q-14.5 -12 -29.5 -12 q-20 0 -32 17 l-123 170 q-9 11 -9 25 q0 13 9 23 l125 169 q11 17 31 17 q16 0 29.5 -11.5 q13.5 -11.5 13.5 -29.5 q0 -12 -11 -29 l-103 -139 l105 -141 Z" /><glyph glyph-name="guilsinglright" unicode="&#x203a;" d="M227 284 q8 -11 8 -25 q0 -14 -8 -23 l-125 -169 q-12 -17 -32 -17 q-15 0 -28.5 11.5 q-13.5 11.5 -13.5 28.5 q0 14 11 29 l103 140 l-105 141 q-10 11 -10 27 q0 20 14.5 32 q14.5 12 29.5 12 q20 0 33 -18 l123 -169 Z" /><glyph glyph-name="quotedblright" unicode="&#x201d;" d="M182 602 q0 -25 -16 -57.5 q-16 -32.5 -40.5 -55 q-24.5 -22.5 -50.5 -22.5 q-39 0 -39 33 q0 13 6.5 18.5 q6.5 5.5 16.5 8.5 q10 3 15 5 q28 16 28 45 q0 11 -8.5 18.5 q-8.5 7.5 -22.5 7.5 q-17 0 -28 -7 q-10 5 -15 12.5 q-5 7.5 -4 19.5 q0 25 25.5 43.5 q25.5 18.5 53.5 18.5 q36 0 57.5 -23 q21.5 -23 21.5 -65 ZM378 602 q0 -25 -16 -57.5 q-16 -32.5 -40.5 -55 q-24.5 -22.5 -50.5 -22.5 q-39 0 -39 33 q0 13 6.5 18.5 q6.5 5.5 16.5 8.5 q10 3 15 5 q28 16 28 45 q0 11 -8.5 18.5 q-8.5 7.5 -22.5 7.5 q-17 0 -28 -7 q-10 5 -15 12.5 q-5 7.5 -4 19.5 q0 25 25.5 43.5 q25.5 18.5 53.5 18.5 q36 0 57.5 -23 q21.5 -23 21.5 -65 Z" /><glyph glyph-name="quoteleft" unicode="&#x2018;" d="M29 571 q0 25 16 57.5 q16 32.5 40.5 55 q24.5 22.5 50.5 22.5 q39 0 39 -33 q0 -13 -6.5 -18.5 q-6.5 -5.5 -16.5 -8.5 q-10 -3 -15 -5 q-28 -16 -28 -45 q0 -11 8.5 -18.5 q8.5 -7.5 22.5 -7.5 q17 0 28 7 q10 -5 15 -12.5 q5 -7.5 4 -19.5 q0 -25 -25.5 -43.5 q-25.5 -18.5 -53.5 -18.5 q-36 0 -57.5 23 q-21.5 23 -21.5 65 Z" /><glyph glyph-name="quoteright" unicode="&#x2019;" d="M191 618 q0 -25 -16 -57.5 q-16 -32.5 -40.5 -55 q-24.5 -22.5 -50.5 -22.5 q-39 0 -39 33 q0 13 6.5 18.5 q6.5 5.5 16.5 8.5 q10 3 15 5 q28 16 28 45 q0 11 -8.5 18.5 q-8.5 7.5 -22.5 7.5 q-17 0 -28 -7 q-10 5 -15 12.5 q-5 7.5 -4 19.5 q0 25 25.5 43.5 q25.5 18.5 53.5 18.5 q36 0 57.5 -23 q21.5 -23 21.5 -65 Z" /><glyph glyph-name="uni2007" unicode="&#x2007;" d="" /><glyph glyph-name="uni200A" unicode="&#x200a;" d="" /><glyph glyph-name="uni2008" unicode="&#x2008;" d="" /><glyph glyph-name="uni00A0" unicode=" " d="" /><glyph glyph-name="uni2009" unicode="&#x2009;" d="" /><glyph glyph-name="uni200B" unicode="&#x200b;" d="" /><glyph glyph-name="uni20B5" unicode="&#x20b5;" d="M595 109 q12 -15 12 -32 q0 -12 -6.5 -22.5 q-6.5 -10.5 -17.5 -16.5 q-34 -20 -76.5 -32.5 q-42.5 -12.5 -85.5 -14.5 l0 -74 q0 -20 -13.5 -34 q-13.5 -14 -34.5 -14 q-20 0 -33.5 14 q-13.5 14 -13.5 34 l0 80 q-81 15 -145 61.5 q-64 46.5 -101 121 q-37 74.5 -37 170.5 q0 89 36 162.5 q36 73.5 100 122.5 q64 49 147 65 l0 64 q0 20 13.5 34 q13.5 14 34.5 14 q20 0 33.5 -14 q13.5 -14 13.5 -34 l0 -58 q87 -5 161 -47 q24 -13 24 -40 q0 -18 -12 -33 q-12 -16 -33 -16 q-14 0 -27 7 q-53 30 -120 35 l0 -528 q66 3 120 36 q12 6 26 6 q22 0 35 -17 ZM146 350 q0 -104 51 -171.5 q51 -67.5 136 -87.5 l0 513 q-86 -20 -136.5 -88 q-50.5 -68 -50.5 -166 Z" /><glyph glyph-name="cent" unicode="¢" d="M487 168 q0 -18 -20 -36 q-20 -18 -55 -31.5 q-35 -13.5 -77 -18.5 l0 -34 q0 -20 -13.5 -34 q-13.5 -14 -34.5 -14 q-20 0 -33.5 14 q-13.5 14 -13.5 34 l0 37 q-92 18 -146.5 91.5 q-54.5 73.5 -54.5 176.5 q0 101 55 174 q55 73 146 93 l0 41 q0 20 14 34 q14 14 34 14 q21 0 34 -13.5 q13 -13.5 13 -34.5 l0 -37 q66 -5 107 -29 q41 -24 41 -58 q0 -18 -11.5 -32 q-11.5 -14 -31.5 -14 q-14 0 -23.5 5.5 q-9.5 5.5 -18.5 14.5 q-9 9 -14 13 q-21 18 -56 21 l0 -386 q37 4 61 25 q6 5 16 14 q10 9 19 13 q9 4 20 4 q20 0 31.5 -13.5 q11.5 -13.5 11.5 -33.5 ZM134 353 q0 -69 31 -118.5 q31 -49.5 82 -67.5 l0 371 q-50 -17 -81.5 -66.5 q-31.5 -49.5 -31.5 -118.5 Z" /><glyph glyph-name="colonmonetary" unicode="&#x20a1;" d="M689 733 q0 -9 -5 -22 l-311 -626 q9 -1 27 -1 q74 0 134 36 q12 6 26 6 q22 0 35 -17 q12 -15 12 -32 q0 -12 -6.5 -22.5 q-6.5 -10.5 -17.5 -16.5 q-39 -22 -87.5 -35 q-48.5 -13 -95.5 -13 q-36 0 -71 6 l-51 -102 q-13 -26 -39 -26 q-17 0 -29.5 12 q-12.5 12 -12.5 28 q0 12 5 20 l46 93 q-32 12 -64 35 l-67 -136 q-13 -26 -39 -26 q-18 0 -30 11.5 q-12 11.5 -12 28.5 q0 12 5 20 l80 162 q-78 94 -78 234 q0 101 46.5 182.5 q46.5 81.5 128 128 q81.5 46.5 182.5 46.5 l13 0 l34 68 q13 28 40 28 q15 0 28 -11.5 q13 -11.5 13 -28.5 q0 -10 -5 -22 l-24 -48 q32 -8 69 -27 l40 80 q14 27 40 27 q15 0 28 -11 q13 -11 13 -29 ZM146 350 q0 -76 27 -130 l192 390 q-65 -7 -115 -42 q-50 -35 -77 -91 q-27 -56 -27 -127 ZM228 145 q27 -25 62 -39 l236 475 q-34 18 -70 25 l-228 -461 Z" /><glyph glyph-name="currency" unicode="¤" d="M464 180 q16 -16 16 -33 q0 -18 -16 -35 q-16 -17 -34 -17 q-17 0 -33 17 l-37 35 q-42 -24 -89 -24 q-50 0 -91 25 l-37 -36 q-17 -16 -34 -16 q-17 0 -34 16 q-17 16 -17 34 q0 17 18 34 l39 39 q-20 38 -20 83 q0 45 20 83 l-39 39 q-17 17 -17 34 q0 16 16.5 34 q16.5 18 33.5 18 q17 0 34 -17 l38 -37 q41 25 90 25 q47 0 89 -24 l37 36 q15 15 33 15 q18 0 34.5 -16 q16.5 -16 16.5 -34 q0 -17 -16 -33 l-38 -37 q22 -39 22 -86 q0 -45 -22 -86 l37 -36 ZM272 208 q37 0 60 27 q23 27 23 66 q0 41 -23 68 q-23 27 -60 27 q-38 0 -61 -27 q-23 -27 -23 -68 q0 -39 23.5 -66 q23.5 -27 60.5 -27 Z" /><glyph glyph-name="dollar" unicode="$" d="M539 188 q0 -75 -53.5 -127 q-53.5 -52 -136.5 -67 l0 -81 q0 -21 -13.5 -34.5 q-13.5 -13.5 -34.5 -13.5 q-20 0 -33.5 13.5 q-13.5 13.5 -13.5 34.5 l0 79 q-58 5 -105 25 q-47 20 -90 60 q-21 18 -21 41 q0 18 14 32.5 q14 14.5 33 14.5 q17 0 29 -11 q32 -30 66 -47 q34 -17 74 -23 l0 231 q-96 22 -147 69.5 q-51 47.5 -51 129.5 q0 79 54.5 130.5 q54.5 51.5 143.5 62.5 l0 52 q0 21 14 34.5 q14 13.5 35 13.5 q20 0 33 -13.5 q13 -13.5 13 -34.5 l0 -53 q47 -7 87 -25 q40 -18 67 -44 q23 -20 23 -43 q0 -18 -13.5 -32 q-13.5 -14 -32.5 -14 q-14 0 -23 8 q-18 18 -47 33 q-29 15 -61 22 l0 -222 q96 -25 143 -69.5 q47 -44.5 47 -131.5 ZM151 518 q0 -40 26.5 -64.5 q26.5 -24.5 76.5 -40.5 l0 202 q-48 -8 -75.5 -34 q-27.5 -26 -27.5 -63 ZM349 89 q42 11 68 36 q26 25 26 59 q-1 38 -24.5 63.5 q-23.5 25.5 -69.5 42.5 l0 -201 Z" /><glyph glyph-name="dong" unicode="&#x20ab;" d="M424 613 q18 0 29.5 -10.5 q11.5 -10.5 11.5 -27.5 q0 -17 -11.5 -28 q-11.5 -11 -29.5 -11 l-33 0 l0 -333 q0 -21 -13.5 -34.5 q-13.5 -13.5 -34.5 -13.5 q-20 0 -33.5 13.5 q-13.5 13.5 -13.5 34.5 l0 2 q-17 -26 -44.5 -43 q-27.5 -17 -60.5 -17 q-39 0 -74 23 q-35 23 -56 63 q-21 40 -21 89 q0 50 21.5 90 q21.5 40 57 63 q35.5 23 76.5 23 q64 0 101 -50 l0 90 l-51 0 q-18 0 -29.5 11 q-11.5 11 -11.5 28 q0 17 11.5 27.5 q11.5 10.5 29.5 10.5 l51 0 l0 39 q0 20 13.5 34 q13.5 14 33.5 14 q21 0 34.5 -13.5 q13.5 -13.5 13.5 -34.5 l0 -39 l33 0 ZM216 224 q36 0 60.5 29 q24.5 29 24.5 67 q0 40 -24.5 69 q-24.5 29 -60.5 29 q-37 0 -59 -28.5 q-22 -28.5 -22 -69.5 q0 -39 22 -67.5 q22 -28.5 59 -28.5 ZM389 76 q18 0 29 -10.5 q11 -10.5 11 -28.5 q0 -17 -11 -27 q-11 -10 -29 -10 l-308 0 q-17 0 -28.5 11 q-11.5 11 -11.5 27 q0 16 11.5 27 q11.5 11 28.5 11 l308 0 Z" /><glyph glyph-name="Euro" unicode="&#x20ac;" d="M602 109 q12 -15 12 -32 q0 -12 -6.5 -22.5 q-6.5 -10.5 -17.5 -16.5 q-35 -22 -77.5 -35 q-42.5 -13 -85.5 -13 q-110 0 -197 61.5 q-87 61.5 -122 171.5 l-56 0 q-21 0 -35 13 q-14 13 -14 33 q0 20 14 33 q14 13 35 13 l39 0 q-1 11 -1 35 l0 18 l-38 0 q-21 0 -35 13 q-14 13 -14 33 q0 20 14 33 q14 13 35 13 l53 0 q20 73 66.5 129 q46.5 56 112.5 87 q66 31 143 31 q43 0 84.5 -12.5 q41.5 -12.5 77.5 -35.5 q24 -13 24 -40 q0 -18 -12 -33 q-12 -16 -33 -16 q-14 0 -27 7 q-53 35 -114 35 q-77 0 -136.5 -41 q-59.5 -41 -86.5 -112 l161 -1 q21 0 35 -13 q14 -13 14 -32 q0 -20 -14 -33 q-14 -13 -35 -13 l-180 1 l0 -18 q0 -12 2 -36 l178 -1 q21 0 35 -13 q14 -13 14 -32 q0 -20 -14 -33 q-14 -13 -35 -13 l-155 0 q29 -66 86.5 -102 q57.5 -36 130.5 -36 q63 0 114 36 q12 6 26 6 q22 0 35 -17 Z" /><glyph glyph-name="florin" unicode="&#x192;" d="M450 686 q19 -4 28.5 -15 q9.5 -11 8.5 -26 q0 -17 -9.5 -27.5 q-9.5 -10.5 -25.5 -10.5 l-35 1 q-41 0 -63.5 -21 q-22.5 -21 -30.5 -64 l-14 -80 l89 0 q18 0 30 -11.5 q12 -11.5 12 -29.5 q0 -18 -12 -29.5 q-12 -11.5 -30 -11.5 l-103 0 l-43 -244 q-14 -77 -55.5 -113.5 q-41.5 -36.5 -117.5 -36.5 q-62 0 -62 44 q0 19 10.5 29 q10.5 10 27.5 10 q6 0 18 -2.5 q12 -2.5 16 -2.5 q27 0 43.5 22.5 q16.5 22.5 23.5 58.5 l42 236 l-56 0 q-19 0 -30.5 11.5 q-11.5 11.5 -11.5 29.5 q0 18 11.5 29.5 q11.5 11.5 30.5 11.5 l70 0 l17 93 q13 76 54 115 q41 39 116 39 q30 0 51 -5 Z" /><glyph glyph-name="franc" unicode="&#x20a3;" d="M181 608 l0 -207 l246 0 q21 0 34.5 -13 q13.5 -13 13.5 -34 q0 -18 -13.5 -31 q-13.5 -13 -34.5 -13 l-246 0 l0 -69 l41 0 q21 0 34.5 -12.5 q13.5 -12.5 13.5 -31.5 q0 -19 -13.5 -31.5 q-13.5 -12.5 -34.5 -12.5 l-41 0 l0 -105 q0 -20 -14.5 -34 q-14.5 -14 -34.5 -14 q-21 0 -35 14 q-14 14 -14 34 l0 105 l-31 0 q-21 0 -34.5 12.5 q-13.5 12.5 -13.5 32.5 q0 19 13.5 31 q13.5 12 34.5 12 l31 0 l0 411 q0 20 14 34 q14 14 34 14 l341 0 q21 0 34.5 -13 q13.5 -13 13.5 -34 q0 -18 -14 -31.5 q-14 -13.5 -34 -13.5 l-291 0 Z" /><glyph glyph-name="uni20B2" unicode="&#x20b2;" d="M597 368 q20 0 33.5 -14 q13.5 -14 13.5 -34 l0 -225 q0 -27 -24 -42 q-44 -28 -96.5 -45 q-52.5 -17 -107.5 -18 l0 -73 q0 -21 -13.5 -34.5 q-13.5 -13.5 -34.5 -13.5 q-20 0 -33.5 13.5 q-13.5 13.5 -13.5 34.5 l0 82 q-80 18 -143.5 68.5 q-63.5 50.5 -99 124 q-35.5 73.5 -35.5 158.5 q0 85 35.5 158.5 q35.5 73.5 99 124 q63.5 50.5 143.5 68.5 l0 62 q0 21 14 34.5 q14 13.5 35 13.5 q20 0 33 -13.5 q13 -13.5 13 -34.5 l0 -53 q102 -3 170 -44 q12 -7 18 -17 q6 -10 6 -22 q0 -20 -13.5 -34.5 q-13.5 -14.5 -32.5 -14.5 q-15 0 -26 7 q-57 27 -122 30 l0 -247 l5 0 l176 0 ZM146 350 q0 -88 48.5 -156 q48.5 -68 126.5 -95 l0 502 q-78 -27 -126.5 -95 q-48.5 -68 -48.5 -156 ZM416 85 q33 2 67 9.5 q34 7.5 59 19.5 l0 159 l-121 0 l-5 0 l0 -188 Z" /><glyph glyph-name="uni20AD" unicode="&#x20ad;" d="M615 81 q11 -14 11 -33 q0 -22 -16.5 -36 q-16.5 -14 -37.5 -14 q-20 0 -35 18 l-243 313 l-112 -106 l0 -174 q0 -21 -14 -35 q-14 -14 -36 -14 q-22 0 -35.5 14 q-13.5 14 -13.5 35 l0 273 l-41 0 q-21 0 -34.5 13 q-13.5 13 -13.5 33 q0 20 13.5 33 q13.5 13 34.5 13 l41 0 l0 238 q0 20 14 34 q14 14 36 14 q22 0 35.5 -13.5 q13.5 -13.5 13.5 -34.5 l0 -311 l355 344 q19 17 38 17 q18 0 31 -15 q13 -15 13 -32 q0 -15 -14 -31 l-222 -210 l171 0 q21 0 35 -13 q14 -13 14 -33 q0 -20 -14 -33 q-14 -13 -35 -13 l-125 0 l186 -241 Z" /><glyph glyph-name="lira" unicode="&#x20a4;" d="M569 100 q18 0 28.5 -12.5 q10.5 -12.5 10.5 -30.5 q0 -21 -14 -35 q-14 -14 -44 -25 q-40 -18 -88 -18 q-37 0 -135 24 q-90 23 -122 23 q-40 0 -94 -15 q-12 -2 -25 -10 q-18 -8 -26 -8 q-15 0 -26 11.5 q-11 11.5 -11 28.5 q0 18 11 31 q11 13 31 21 q40 13 76 20 q24 39 24 95 l0 2 l-91 0 q-20 0 -32.5 11.5 q-12.5 11.5 -12.5 30.5 q0 18 13 30 q13 12 32 12 l79 0 q-4 16 -11 37 l-63 0 q-19 0 -31.5 12.5 q-12.5 12.5 -12.5 31.5 q0 17 12.5 28.5 q12.5 11.5 31.5 11.5 l38 0 q-12 46 -12 80 q0 65 27 116 q27 51 78 79 q51 28 120 28 q46 0 88 -13 q42 -13 71 -37 q42 -27 42 -55 q0 -19 -14.5 -34 q-14.5 -15 -34.5 -15 q-10 0 -19.5 4 q-9.5 4 -14.5 10 q-46 49 -117 49 q-59 0 -93.5 -39 q-34.5 -39 -34.5 -95 q0 -28 13 -78 l183 0 q19 0 31.5 -12 q12.5 -12 12.5 -31 q0 -18 -12.5 -29.5 q-12.5 -11.5 -31.5 -11.5 l-156 0 q7 -21 11 -37 l152 0 q19 0 32 -12 q13 -12 13 -30 q0 -18 -13 -30 q-13 -12 -32 -12 l-143 0 q-4 -47 -30 -90 q25 -1 48.5 -7 q23.5 -6 64.5 -18 q40 -11 64 -16.5 q24 -5.5 47 -5.5 q19 0 40.5 7 q21.5 7 36.5 16 q19 12 35 12 Z" /><glyph glyph-name="uni20BA" unicode="&#x20ba;" d="M510 243 q24 0 37 -15.5 q13 -15.5 12 -35.5 q-7 -50 -55.5 -97 q-48.5 -47 -121 -76 q-72.5 -29 -146.5 -29 q-79 0 -79 49 l0 171 l-34 -20 q-13 -9 -22 -9 q-20 0 -31 13.5 q-11 13.5 -11 29.5 q0 11 6 20 q6 9 17 14 l75 44 l0 83 l-67 -39 q-13 -9 -22 -9 q-19 0 -30.5 13.5 q-11.5 13.5 -11.5 28.5 q0 11 6 20.5 q6 9.5 18 14.5 l107 62 l0 176 q0 20 14 34 q14 14 35 14 q20 0 33.5 -14 q13.5 -14 13.5 -34 l0 -121 l92 53 q17 10 26 10 q18 0 29 -13 q11 -13 11 -28 q0 -23 -25 -36 l-133 -77 l0 -81 l136 79 q18 10 26 10 q18 0 29 -13 q11 -13 11 -28 q0 -24 -25 -37 l-176 -103 l0 -182 q68 3 130 37 q62 34 85 96 q5 12 16.5 18.5 q11.5 6.5 24.5 6.5 Z" /><glyph glyph-name="uni20BC" unicode="&#x20bc;" d="M403 697 q65 -11 115.5 -48.5 q50.5 -37.5 78.5 -95.5 q28 -58 28 -128 l0 -384 q0 -21 -14 -34.5 q-14 -13.5 -36 -13.5 q-19 0 -33.5 14 q-14.5 14 -14.5 34 l0 384 q0 63 -35 110 q-35 47 -89 64 l0 -297 q0 -21 -13.5 -34.5 q-13.5 -13.5 -34.5 -13.5 q-20 0 -33.5 13.5 q-13.5 13.5 -13.5 34.5 l0 298 q-59 -15 -96.5 -62 q-37.5 -47 -37.5 -113 l0 -384 q0 -21 -12 -34.5 q-12 -13.5 -33 -13.5 q-21 0 -33.5 13.5 q-12.5 13.5 -12.5 34.5 l0 384 q0 71 28.5 129.5 q28.5 58.5 79.5 96 q51 37.5 117 47.5 l0 55 q0 20 13.5 34 q13.5 14 34.5 14 q20 0 33.5 -14 q13.5 -14 13.5 -34 l0 -56 Z" /><glyph glyph-name="uni20A6" unicode="&#x20a6;" d="M697 407 q21 0 35 -13 q14 -13 14 -33 q0 -19 -14 -32 q-14 -13 -35 -13 l-48 0 l0 -267 q0 -21 -13.5 -35 q-13.5 -14 -34.5 -14 q-11 0 -21.5 3.5 q-10.5 3.5 -16.5 10.5 l-236 308 l-157 0 l0 -278 q0 -19 -12.5 -31.5 q-12.5 -12.5 -31.5 -12.5 q-19 0 -31 12.5 q-12 12.5 -12 31.5 l0 272 l-42 0 q-21 0 -35 13 q-14 13 -14 32 q0 20 14 33 q14 13 35 13 l42 0 l0 245 q0 21 13.5 34.5 q13.5 13.5 33.5 13.5 q12 0 23 -4.5 q11 -4.5 17 -12.5 l216 -283 l176 0 l0 256 q0 19 12.5 31.5 q12.5 12.5 31.5 12.5 q19 0 31 -12.5 q12 -12.5 12 -31.5 l0 -249 l48 0 ZM170 400 l97 0 l-97 126 l0 -126 ZM562 322 l-116 0 l116 -152 l0 152 Z" /><glyph glyph-name="peseta" unicode="&#x20a7;" d="M591 528 q21 0 34.5 -13 q13.5 -13 13.5 -33 q0 -20 -13.5 -33 q-13.5 -13 -34.5 -13 l-37 0 q-16 -73 -69.5 -120 q-53.5 -47 -121.5 -47 l-188 0 l0 -221 q0 -20 -13 -34 q-13 -14 -33 -14 q-21 0 -33.5 13.5 q-12.5 13.5 -12.5 34.5 l0 388 l-43 0 q-21 0 -35 13 q-14 13 -14 33 q0 20 14 33 q14 13 35 13 l43 0 l0 124 q0 20 14 34 q14 14 34 14 l232 0 q46 0 87 -22 q41 -22 69 -61.5 q28 -39.5 36 -88.5 l36 0 ZM175 528 l282 0 q-11 35 -37 57.5 q-26 22.5 -57 22.5 l-188 0 l0 -80 ZM363 360 q30 0 55 21.5 q25 21.5 36 54.5 l-279 0 l0 -76 l188 0 Z" /><glyph glyph-name="uni20B1" unicode="&#x20b1;" d="M577 467 q23 0 36 -8.5 q13 -8.5 13 -29.5 q0 -17 -13.5 -26 q-13.5 -9 -35.5 -9 l-36 0 q-24 -56 -72 -90.5 q-48 -34.5 -106 -34.5 l-188 0 l0 -221 q0 -20 -13 -34 q-13 -14 -33 -14 q-21 0 -33.5 13.5 q-12.5 13.5 -12.5 34.5 l0 346 l-43 0 q-22 0 -35.5 10 q-13.5 10 -13.5 29 q0 14 14 24 q14 10 35 10 l43 0 l0 43 l-43 0 q-49 0 -49 35 q0 19 13.5 27.5 q13.5 8.5 35.5 8.5 l43 0 l0 71 q0 20 14 34 q14 14 34 14 l232 0 q57 0 104.5 -32.5 q47.5 -32.5 71.5 -86.5 l38 0 q49 0 49 -37 q0 -19 -13 -26.5 q-13 -7.5 -36 -7.5 l-19 0 q1 -8 1 -24 q0 -13 -1 -19 l19 0 ZM438 567 q-15 19 -34.5 30 q-19.5 11 -40.5 11 l-188 0 l0 -41 l263 0 ZM175 458 l285 0 q3 14 3 28 q0 16 -3 31 l-285 0 l0 -59 ZM363 360 q23 0 43 13 q20 13 35 35 l-266 0 l0 -48 l188 0 Z" /><glyph glyph-name="uni20BD" unicode="&#x20bd;" d="M363 700 q53 0 98 -28.5 q45 -28.5 71.5 -77.5 q26.5 -49 26.5 -108 q0 -59 -26.5 -109 q-26.5 -50 -71.5 -79 q-45 -29 -98 -29 l-188 0 l0 -63 l48 0 q21 0 34.5 -12.5 q13.5 -12.5 13.5 -31.5 q0 -19 -13.5 -31.5 q-13.5 -12.5 -34.5 -12.5 l-48 0 l0 -70 q0 -20 -13 -34 q-13 -14 -33 -14 q-21 0 -33.5 13.5 q-12.5 13.5 -12.5 34.5 l0 70 l-30 0 q-21 0 -34.5 12.5 q-13.5 12.5 -13.5 32.5 q0 19 13.5 31 q13.5 12 34.5 12 l30 0 l0 66 l-28 0 q-21 0 -34.5 13 q-13.5 13 -13.5 33 q0 20 13.5 32.5 q13.5 12.5 34.5 12.5 l28 0 l0 289 q0 20 14 34 q14 14 34 14 l232 0 ZM363 360 q27 0 50 17.5 q23 17.5 36.5 46.5 q13.5 29 13.5 62 q0 51 -29.5 86.5 q-29.5 35.5 -70.5 35.5 l-188 0 l0 -248 l188 0 Z" /><glyph glyph-name="uni20B9" unicode="&#x20b9;" d="M463 541 q21 0 34.5 -12.5 q13.5 -12.5 13.5 -31.5 q0 -19 -13.5 -31.5 q-13.5 -12.5 -34.5 -12.5 l-26 0 q-8 -42 -36 -78.5 q-28 -36.5 -67 -56.5 q34 -20 56.5 -55 q22.5 -35 24.5 -76 q4 -57 9 -77.5 q5 -20.5 22 -29.5 q22 -15 22 -39 q0 -19 -12.5 -30 q-12.5 -11 -32.5 -11 q-24 0 -47 16.5 q-23 16.5 -38.5 56 q-15.5 39.5 -15.5 102.5 q0 50 -30.5 74 q-30.5 24 -78.5 24 l-93 0 q-21 0 -34.5 12 q-13.5 12 -13.5 33 q0 20 13.5 31.5 q13.5 11.5 34.5 11.5 l119 0 q31 2 57 27 q26 25 36 65 l-39 0 q-21 0 -34.5 12.5 q-13.5 12.5 -13.5 32.5 q0 19 13.5 31 q13.5 12 34.5 12 l35 0 q-12 29 -36.5 46.5 q-24.5 17.5 -55.5 17.5 l-119 0 q-21 0 -34.5 13.5 q-13.5 13.5 -13.5 34.5 q0 20 13.5 33.5 q13.5 13.5 34.5 13.5 l353 0 q21 0 34.5 -14 q13.5 -14 13.5 -34 q0 -20 -13.5 -33.5 q-13.5 -13.5 -34.5 -13.5 l-92 0 q35 -27 50 -64 l35 0 Z" /><glyph glyph-name="sterling" unicode="£" d="M569 100 q18 0 28.5 -12.5 q10.5 -12.5 10.5 -30.5 q0 -21 -14 -35 q-14 -14 -44 -25 q-40 -18 -88 -18 q-37 0 -135 24 q-90 23 -122 23 q-40 0 -94 -15 q-12 -2 -25 -10 q-18 -8 -26 -8 q-15 0 -26 11.5 q-11 11.5 -11 28.5 q0 18 11 31 q11 13 31 21 q40 13 76 20 q24 39 24 95 q0 52 -23 123 l-63 0 q-19 0 -31.5 12.5 q-12.5 12.5 -12.5 31.5 q0 17 12.5 28.5 q12.5 11.5 31.5 11.5 l38 0 q-12 46 -12 80 q0 65 27 116 q27 51 78 79 q51 28 120 28 q46 0 88 -13 q42 -13 71 -37 q42 -27 42 -55 q0 -19 -14.5 -34 q-14.5 -15 -34.5 -15 q-10 0 -19.5 4 q-9.5 4 -14.5 10 q-46 49 -117 49 q-59 0 -93.5 -39 q-34.5 -39 -34.5 -95 q0 -28 13 -78 l183 0 q19 0 31.5 -12 q12.5 -12 12.5 -31 q0 -18 -12.5 -29.5 q-12.5 -11.5 -31.5 -11.5 l-156 0 q21 -63 21 -102 q0 -57 -31 -109 q25 -1 48.5 -7 q23.5 -6 64.5 -18 q40 -11 64 -16.5 q24 -5.5 47 -5.5 q19 0 40.5 7 q21.5 7 36.5 16 q19 12 35 12 Z" /><glyph glyph-name="uni20A9" unicode="&#x20a9;" d="M931 652 q0 -8 -3 -17 l-78 -228 l28 0 q20 0 34 -13 q14 -13 14 -33 q0 -19 -14 -32 q-14 -13 -34 -13 l-59 0 l-98 -286 q-4 -14 -16.5 -21.5 q-12.5 -7.5 -26.5 -8.5 q-14 0 -27 8 q-13 8 -19 23 l-127 298 l-57 0 l-127 -298 q-6 -15 -19 -23 q-13 -8 -28 -8 q-14 1 -26 9 q-12 8 -16 21 l-98 286 l-64 0 q-21 0 -35 13 q-14 13 -14 32 q0 20 14 33 q14 13 35 13 l33 0 l-78 228 q-3 9 -3 17 q0 22 16.5 36.5 q16.5 14.5 35.5 14.5 q16 0 29 -8.5 q13 -8.5 17 -22.5 l94 -279 l165 0 l55 134 q6 14 18 22 q12 8 27 8 q15 0 27 -8 q12 -8 18 -22 l53 -134 l163 0 l93 279 q4 15 17 23 q13 8 30 8 q19 0 35 -14 q16 -14 16 -37 ZM475 393 l3 0 l-2 3 l-1 -3 ZM289 171 l64 158 l-118 0 l54 -158 ZM665 171 l53 158 l-116 0 l63 -158 Z" /><glyph glyph-name="yen" unicode="¥" d="M564 655 q0 -15 -9 -30 l-188 -271 l88 0 q21 0 34.5 -12 q13.5 -12 13.5 -30 q0 -19 -13.5 -31 q-13.5 -12 -34.5 -12 l-110 1 l0 -56 l111 0 q21 0 35 -12 q14 -12 14 -30 q0 -19 -14 -30.5 q-14 -11.5 -35 -11.5 l-111 0 l0 -82 q0 -20 -14.5 -34 q-14.5 -14 -36.5 -14 q-22 0 -36.5 14 q-14.5 14 -14.5 34 l0 83 l-100 0 q-21 0 -34.5 12 q-13.5 12 -13.5 30 q0 19 13.5 30.5 q13.5 11.5 34.5 11.5 l100 0 l0 55 l-101 1 q-21 0 -35 11.5 q-14 11.5 -14 30.5 q0 18 14 30 q14 12 35 12 l83 0 l-193 264 q-14 18 -14 36 q0 20 18 34 q18 14 37 14 q23 0 39 -22 l186 -275 l179 274 q6 11 17 17 q11 6 23 6 q19 0 33 -14 q14 -14 14 -34 Z" /><glyph glyph-name="uni2219" unicode="&#x2219;" d="M122 230 q-30 0 -51 21 q-21 21 -21 50 q0 29 21 50 q21 21 51 21 q28 0 49 -21 q21 -21 21 -50 q0 -29 -20.5 -50 q-20.5 -21 -49.5 -21 Z" /><glyph glyph-name="uni2215" unicode="&#x2215;" d="M66 -133 q-17 0 -30.5 11 q-13.5 11 -13.5 28 q0 8 5 20 l421 848 q5 13 15 20 q10 7 23 7 q19 0 31 -10 q12 -10 12 -27 q0 -12 -6 -23 l-419 -848 q-6 -12 -16 -19 q-10 -7 -22 -7 Z" /><glyph glyph-name="plus" unicode="+" d="M497 323 q20 0 32.5 -12.5 q12.5 -12.5 12.5 -32.5 q0 -19 -12.5 -31 q-12.5 -12 -32.5 -12 l-154 0 l0 -153 q0 -22 -14 -36.5 q-14 -14.5 -37 -14.5 q-22 0 -36.5 14.5 q-14.5 14.5 -14.5 36.5 l0 153 l-153 0 q-19 0 -32 13 q-13 13 -13 32 q0 19 12.5 31 q12.5 12 32.5 12 l153 0 l0 163 q0 22 14.5 36 q14.5 14 36.5 14 q23 0 37 -14 q14 -14 14 -36 l0 -163 l154 0 Z" /><glyph glyph-name="minus" unicode="&#x2212;" d="M97 246 q-20 0 -33.5 13 q-13.5 13 -13.5 32 q0 19 13.5 31 q13.5 12 33.5 12 l383 0 q20 0 33.5 -12.5 q13.5 -12.5 13.5 -31.5 q0 -18 -13.5 -31 q-13.5 -13 -33.5 -13 l-383 0 Z" /><glyph glyph-name="multiply" unicode="×" d="M414 163 q14 -14 14 -33 q0 -19 -14 -31.5 q-14 -12.5 -30 -12.5 q-16 0 -32 14 l-115 116 l-115 -115 q-15 -15 -33 -15 q-17 0 -30.5 14 q-13.5 14 -13.5 31 q0 18 14 32 l116 116 l-113 114 q-13 16 -13 32 q0 19 13.5 32 q13.5 13 30.5 13 q17 0 32 -15 l113 -114 l115 115 q14 14 33 14 q19 0 31.5 -13.5 q12.5 -13.5 12.5 -30.5 q0 -19 -14 -33 l-116 -115 l114 -115 Z" /><glyph glyph-name="divide" unicode="÷" d="M228 434 q0 27 18.5 46 q18.5 19 45.5 19 q26 0 45 -19 q19 -19 19 -46 q0 -26 -19 -45 q-19 -19 -45 -19 q-27 0 -45.5 19 q-18.5 19 -18.5 45 ZM97 213 q-20 0 -33.5 13 q-13.5 13 -13.5 33 q0 18 13.5 30.5 q13.5 12.5 33.5 12.5 l401 0 q21 0 34.5 -13 q13.5 -13 13.5 -31 q0 -19 -13.5 -32 q-13.5 -13 -34.5 -13 l-401 0 ZM228 78 q0 26 18.5 45 q18.5 19 45.5 19 q26 0 45 -19 q19 -19 19 -45 q0 -26 -19 -45 q-19 -19 -45 -19 q-27 0 -45.5 19 q-18.5 19 -18.5 45 Z" /><glyph glyph-name="equal" unicode="=" d="M97 330 q-20 0 -33.5 13 q-13.5 13 -13.5 32 q0 19 13.5 31 q13.5 12 33.5 12 l368 0 q20 0 33.5 -12.5 q13.5 -12.5 13.5 -31.5 q0 -18 -13.5 -31 q-13.5 -13 -33.5 -13 l-368 0 ZM97 141 q-20 0 -33.5 13 q-13.5 13 -13.5 32 q0 19 13.5 31 q13.5 12 33.5 12 l368 0 q20 0 33.5 -12.5 q13.5 -12.5 13.5 -31.5 q0 -18 -13.5 -31 q-13.5 -13 -33.5 -13 l-368 0 Z" /><glyph glyph-name="notequal" unicode="&#x2260;" d="M465 229 q20 0 33.5 -12.5 q13.5 -12.5 13.5 -31.5 q0 -18 -13.5 -31 q-13.5 -13 -33.5 -13 l-225 0 l-50 -93 q-14 -24 -36 -24 q-13 0 -26.5 8.5 q-13.5 8.5 -13.5 22.5 q0 9 5 19 l36 67 l-58 0 q-20 0 -33.5 13 q-13.5 13 -13.5 32 q0 19 13.5 31 q13.5 12 33.5 12 l105 0 l54 101 l-159 0 q-20 0 -33.5 13 q-13.5 13 -13.5 32 q0 19 13.5 31 q13.5 12 33.5 12 l207 0 l49 92 q13 24 35 24 q13 0 27 -8.5 q14 -8.5 14 -22.5 q0 -9 -6 -20 l-35 -65 l77 0 q20 0 33.5 -12.5 q13.5 -12.5 13.5 -31.5 q0 -18 -13.5 -31 q-13.5 -13 -33.5 -13 l-124 0 l-54 -101 l178 0 Z" /><glyph glyph-name="greater" unicode="&gt;" d="M474 288 q25 -16 25 -42 q0 -28 -23 -41 l-339 -191 q-23 -14 -37 -14 q-16 0 -30 15 q-14 15 -14 32 q0 20 23 33 l292 165 l-293 171 q-20 11 -20 34 q0 18 13 33 q13 15 28 15 q10 0 23.5 -7 q13.5 -7 16.5 -9 l335 -194 Z" /><glyph glyph-name="less" unicode="&lt;" d="M445 83 q22 -12 22 -35 q0 -18 -13 -33 q-13 -15 -27 -15 q-12 0 -40 16 l-336 195 q-23 13 -23 41 q0 28 24 42 l334 190 q23 14 36 14 q17 0 31 -15 q14 -15 14 -32 q0 -21 -20 -32 l-291 -167 l289 -169 Z" /><glyph glyph-name="greaterequal" unicode="&#x2265;" d="M106 441 q-23 9 -23 36 q0 17 10 30.5 q10 13.5 27 13.5 q11 0 26 -5.5 q15 -5.5 20 -7.5 l363 -133 q12 -5 18.5 -16 q6.5 -11 6.5 -25 q0 -15 -6 -26 q-6 -11 -18 -16 l-365 -138 q-30 -10 -44 -10 q-17 0 -26.5 12 q-9.5 12 -9.5 28 q0 28 29 40 l289 108 l-297 109 ZM507 88 q20 0 33.5 -12.5 q13.5 -12.5 13.5 -31.5 q0 -19 -13.5 -31.5 q-13.5 -12.5 -33.5 -12.5 l-401 0 q-21 0 -34.5 13 q-13.5 13 -13.5 32 q0 19 13.5 31 q13.5 12 33.5 12 l402 0 Z" /><glyph glyph-name="lessequal" unicode="&#x2264;" d="M90 286 q-12 5 -18.5 16 q-6.5 11 -6.5 25 q0 32 23 42 l365 138 q30 10 44 10 q17 0 26.5 -12 q9.5 -12 9.5 -28 q0 -29 -29 -40 l-288 -108 l297 -109 q22 -9 22 -36 q0 -17 -10 -30.5 q-10 -13.5 -27 -13.5 q-11 0 -26 5.5 q-15 5.5 -20 7.5 l-362 133 ZM512 88 q21 0 34.5 -12.5 q13.5 -12.5 13.5 -31.5 q0 -18 -13.5 -31 q-13.5 -13 -33.5 -13 l-402 0 q-20 0 -33.5 13 q-13.5 13 -13.5 32 q0 19 13.5 31 q13.5 12 33.5 12 l401 0 Z" /><glyph glyph-name="plusminus" unicode="±" d="M90 285 q-19 0 -32 13 q-13 13 -13 32 q0 19 13 31 q13 12 32 12 l143 0 l0 107 q0 22 14.5 36.5 q14.5 14.5 37.5 14.5 q22 0 36 -14 q14 -14 14 -36 l0 -108 l142 0 q20 0 32.5 -12.5 q12.5 -12.5 12.5 -32.5 q0 -19 -12.5 -31 q-12.5 -12 -32.5 -12 l-142 0 l0 -92 q0 -22 -14 -36.5 q-14 -14.5 -37 -14.5 q-22 0 -36.5 14 q-14.5 14 -14.5 36 l0 93 l-143 0 ZM467 89 q19 0 32 -13 q13 -13 13 -32 q0 -19 -13 -32 q-13 -13 -32 -13 l-378 0 q-20 0 -33 13 q-13 13 -13 32 q0 20 13 32.5 q13 12.5 32 12.5 l379 0 Z" /><glyph glyph-name="approxequal" unicode="&#x2248;" d="M404 284 q-24 0 -55.5 9.5 q-31.5 9.5 -88.5 30.5 q-43 16 -68.5 24.5 q-25.5 8.5 -41.5 8.5 q-13 0 -20.5 -9.5 q-7.5 -9.5 -6.5 -25.5 q1 -3 1 -9 q0 -13 -9 -21 q-9 -8 -22 -8 q-19 0 -31 14.5 q-12 14.5 -12 38.5 q0 41 28 67 q28 26 83 26 q25 0 58 -10.5 q33 -10.5 83 -30.5 q6 -2 32.5 -12 q26.5 -10 45 -15 q18.5 -5 29.5 -5 q14 0 20.5 9.5 q6.5 9.5 4.5 25.5 q-1 3 -1 10 q0 13 9 21 q9 8 22 8 q18 0 30.5 -14.5 q12.5 -14.5 12.5 -37.5 q0 -42 -25.5 -68.5 q-25.5 -26.5 -77.5 -26.5 ZM404 101 q-24 0 -55.5 9.5 q-31.5 9.5 -88.5 30.5 q-43 16 -68.5 24.5 q-25.5 8.5 -41.5 8.5 q-28 0 -27 -34 q1 -3 1 -10 q0 -13 -9 -20.5 q-9 -7.5 -22 -7.5 q-19 0 -31 14.5 q-12 14.5 -12 38.5 q0 41 28 67 q28 26 83 26 q25 0 58 -10.5 q33 -10.5 83 -30.5 q43 -17 67 -25 q24 -8 40 -8 q26 0 26 27 l-1 8 q-1 3 -1 10 q0 13 9 21.5 q9 8.5 22 8.5 q18 0 30.5 -14.5 q12.5 -14.5 12.5 -37.5 q0 -43 -25.5 -69.5 q-25.5 -26.5 -77.5 -26.5 Z" /><glyph glyph-name="asciitilde" unicode="~" d="M354 225 q-19 0 -46.5 8.5 q-27.5 8.5 -69.5 24.5 q-7 2 -28.5 10 q-21.5 8 -36 12 q-14.5 4 -23.5 4 q-12 0 -19.5 -7 q-7.5 -7 -7.5 -21 q1 -3 1 -8 q0 -14 -9 -22 q-9 -8 -22 -8 q-19 0 -31 14.5 q-12 14.5 -12 38.5 q0 40 28 63.5 q28 23.5 83 23.5 q34 0 114 -34 q7 -2 28 -10 q21 -8 35 -12 q14 -4 22 -4 q12 0 19 7.5 q7 7.5 6 20.5 q-1 3 -1 10 q0 13 9 21 q9 8 22 8 q18 0 30.5 -14.5 q12.5 -14.5 12.5 -37.5 q0 -41 -25.5 -64.5 q-25.5 -23.5 -78.5 -23.5 Z" /><glyph glyph-name="logicalnot" unicode="¬" d="M576 404 q19 0 31 -12 q12 -12 12 -31 l0 -194 q0 -22 -14.5 -35.5 q-14.5 -13.5 -37.5 -13.5 q-22 0 -36.5 13.5 q-14.5 13.5 -14.5 35.5 l0 142 l-424 0 q-18 0 -30 13.5 q-12 13.5 -12 34.5 q0 20 12 33.5 q12 13.5 30 13.5 l484 0 Z" /><glyph glyph-name="emptyset" unicode="&#x2205;" d="M526 407 q46 -67 46 -152 q0 -73 -34.5 -133.5 q-34.5 -60.5 -94.5 -96 q-60 -35.5 -132 -35.5 q-85 0 -156 55 l-41 -40 q-17 -17 -37 -17 q-17 0 -30 13 q-13 13 -13 30 q0 19 17 35 l44 43 q-45 68 -45 146 q0 73 34.5 134.5 q34.5 61.5 94.5 97 q60 35.5 132 35.5 q85 0 155 -51 l40 39 q17 17 37 17 q17 0 30 -12.5 q13 -12.5 13 -29.5 q0 -19 -16 -35 l-44 -43 ZM145 255 q0 -44 18 -80 l238 232 q-41 27 -90 27 q-46 0 -84 -24.5 q-38 -24.5 -60 -65.5 q-22 -41 -22 -89 ZM477 255 q0 45 -19 86 l-239 -233 q43 -30 92 -30 q48 0 86 24 q38 24 59 64.5 q21 40.5 21 88.5 Z" /><glyph glyph-name="infinity" unicode="&#x221e;" d="M653 437 q45 0 83.5 -21.5 q38.5 -21.5 62 -65.5 q23.5 -44 23.5 -108 q0 -64 -23 -108 q-23 -44 -61 -65.5 q-38 -21.5 -83 -21.5 q-49 0 -84.5 19 q-35.5 19 -72.5 58 l-64 68 l-65 -68 q-38 -40 -72.5 -58.5 q-34.5 -18.5 -83.5 -18.5 q-46 0 -84 21.5 q-38 21.5 -61 65.5 q-23 44 -23 108 q0 64 23.5 108 q23.5 44 62 65.5 q38.5 21.5 83.5 21.5 q51 0 87 -20 q36 -20 78 -64 l55 -58 l55 58 q42 45 77.5 64.5 q35.5 19.5 86.5 19.5 ZM385 244 l-60 63 q-23 23 -49.5 36.5 q-26.5 13.5 -54.5 13.5 q-38 0 -66.5 -30 q-28.5 -30 -28.5 -85 q0 -56 27.5 -85.5 q27.5 -29.5 68.5 -29.5 q52 0 98 49 l65 68 ZM646 127 q40 0 67.5 29.5 q27.5 29.5 27.5 85.5 q0 56 -28 85.5 q-28 29.5 -67 29.5 q-28 0 -54.5 -14 q-26.5 -14 -48.5 -36 l-60 -63 l65 -68 q46 -49 98 -49 Z" /><glyph glyph-name="integral" unicode="&#x222b;" d="M109 -124 q-99 0 -99 53 q0 24 15.5 40.5 q15.5 16.5 40.5 16.5 q10 0 24 -4 q2 0 8 -1.5 q6 -1.5 13 -1.5 q31 0 49.5 25 q18.5 25 25.5 65 l82 479 q33 196 175 196 q46 0 73.5 -12.5 q27.5 -12.5 27.5 -46.5 q0 -20 -12 -34 q-12 -14 -34 -14 q-12 0 -28 4 q-16 4 -26 4 q-61 0 -77 -94 l-80 -479 q-32 -196 -178 -196 Z" /><glyph glyph-name="uni2126" unicode="&#x2126;" d="M594 95 q19 0 31 -13.5 q12 -13.5 12 -33.5 q0 -20 -12 -34 q-12 -14 -31 -14 l-159 0 q-16 0 -28 12 q-12 12 -12 34 q0 12 3 18.5 q3 6.5 6.5 10.5 q3.5 4 4.5 5 q71 88 108.5 167 q37.5 79 37.5 156 q0 60 -28.5 108.5 q-28.5 48.5 -78 76 q-49.5 27.5 -110.5 27.5 q-61 0 -110.5 -27.5 q-49.5 -27.5 -78 -76 q-28.5 -48.5 -28.5 -108.5 q0 -77 37 -155 q37 -78 107 -166 q1 -2 5.5 -7 q4.5 -5 7 -12.5 q2.5 -7.5 2.5 -17.5 q0 -22 -12 -33.5 q-12 -11.5 -28 -11.5 l-158 0 q-19 0 -31 13.5 q-12 13.5 -12 34.5 q0 20 12 33.5 q12 13.5 31 13.5 l77 0 q-134 169 -134 309 q0 87 41 157 q41 70 112.5 109.5 q71.5 39.5 159.5 39.5 q88 0 159 -39.5 q71 -39.5 112 -109.5 q41 -70 41 -158 q0 -138 -134 -308 l78 0 Z" /><glyph glyph-name="uni2206" unicode="&#x2206;" d="M670 59 q4 -7 4 -16 q0 -9 -6 -21 q-4 -10 -14 -16 q-10 -6 -23 -6 l-553 0 q-20 0 -33 16 q-10 12 -10 25 q0 10 4 18 l278 621 q5 12 16 18.5 q11 6.5 23 6.5 q26 -2 37 -26 l277 -620 ZM141 87 q-3 -6 4 -6 l419 0 q7 0 4 6 l-210 471 q-1 3 -3 3 q-2 0 -4 -3 l-210 -471 Z" /><glyph glyph-name="product" unicode="&#x220f;" d="M635 700 q19 0 30.5 -14 q11.5 -14 11.5 -35 q0 -19 -12 -32.5 q-12 -13.5 -30 -13.5 l-56 0 l0 -753 q0 -23 -14.5 -37.5 q-14.5 -14.5 -37.5 -14.5 q-21 0 -35.5 14.5 q-14.5 14.5 -14.5 37.5 l0 753 l-249 0 l0 -753 q0 -23 -15 -37.5 q-15 -14.5 -38 -14.5 q-21 0 -35 14.5 q-14 14.5 -14 37.5 l0 753 l-56 0 q-19 0 -30.5 13.5 q-11.5 13.5 -11.5 35.5 q0 20 11.5 33 q11.5 13 30.5 13 l565 0 Z" /><glyph glyph-name="summation" unicode="&#x2211;" d="M439 79 q18 0 29.5 -11 q11.5 -11 11.5 -28 q0 -17 -11.5 -28.5 q-11.5 -11.5 -29.5 -11.5 l-335 0 q-28 0 -44.5 16 q-16.5 16 -16.5 39 q0 25 18 43 l221 242 l-221 239 q-18 20 -18 43 q0 23 17 39 q17 16 44 16 l335 0 q18 0 29.5 -12 q11.5 -12 11.5 -30 q0 -17 -11.5 -27.5 q-11.5 -10.5 -29.5 -10.5 l-282 0 l206 -231 q11 -11 11 -28 q0 -15 -11 -26 l-208 -233 l284 0 Z" /><glyph glyph-name="radical" unicode="&#x221a;" d="M588 693 q18 0 30.5 -12 q12.5 -12 12.5 -28 q0 -11 -4 -18 l-224 -603 q-7 -17 -18 -24.5 q-11 -7.5 -28 -7.5 q-26 2 -40 28 l-146 300 l-66 -31 q-9 -5 -20 -5 q-18 0 -29 12.5 q-11 12.5 -11 28.5 q0 25 27 37 l100 49 q11 6 24 4 q23 -2 35 -25 l124 -263 l195 530 q5 13 15 20.5 q10 7.5 23 7.5 Z" /><glyph glyph-name="partialdiff" unicode="&#x2202;" d="M231 734 q95 -8 167 -77.5 q72 -69.5 110.5 -172 q38.5 -102.5 38.5 -204.5 q0 -72 -29.5 -138 q-29.5 -66 -87.5 -107.5 q-58 -41.5 -138 -41.5 q-69 0 -127 36.5 q-58 36.5 -92 99 q-34 62.5 -34 136.5 q0 73 34.5 135 q34.5 62 90.5 98.5 q56 36.5 117 36.5 q46 0 81.5 -17.5 q35.5 -17.5 65.5 -51.5 q-30 69 -81 117.5 q-51 48.5 -109 57.5 q-57 8 -57 47 q0 23 12.5 35 q12.5 12 37.5 11 ZM296 80 q45 0 82 24.5 q37 24.5 58.5 67 q21.5 42.5 21.5 93.5 q0 50 -21.5 91.5 q-21.5 41.5 -58.5 66 q-37 24.5 -82 24.5 q-45 0 -82.5 -24 q-37.5 -24 -59 -65.5 q-21.5 -41.5 -21.5 -92.5 q0 -51 21.5 -93.5 q21.5 -42.5 59 -67 q37.5 -24.5 82.5 -24.5 Z" /><glyph glyph-name="uni00B5" unicode="µ" d="" /><glyph glyph-name="percent" unicode="%" d="M189 329 q-46 0 -80.5 25 q-34.5 25 -53.5 68.5 q-19 43.5 -19 95.5 q0 53 19 96.5 q19 43.5 53.5 69 q34.5 25.5 80.5 25.5 q69 0 110.5 -54.5 q41.5 -54.5 41.5 -135.5 q0 -52 -19.5 -95.5 q-19.5 -43.5 -54 -69 q-34.5 -25.5 -78.5 -25.5 ZM191 -2 q-15 0 -28.5 11 q-13.5 11 -13.5 28 q0 11 7 25 l411 621 q14 19 33 19 q15 0 28.5 -11 q13.5 -11 13.5 -28 q0 -12 -8 -25 l-410 -621 q-14 -19 -33 -19 ZM189 403 q34 0 52.5 32 q18.5 32 18.5 83 q0 52 -18.5 84 q-18.5 32 -52.5 32 q-34 0 -52.5 -32 q-18.5 -32 -18.5 -83 q0 -52 18.5 -84 q18.5 -32 52.5 -32 ZM611 -9 q-44 0 -79 25 q-35 25 -54.5 68 q-19.5 43 -19.5 95 q0 53 19 96.5 q19 43.5 53.5 69 q34.5 25.5 80.5 25.5 q46 0 80.5 -25.5 q34.5 -25.5 53 -68.5 q18.5 -43 18.5 -96 q0 -52 -19.5 -95 q-19.5 -43 -54 -68.5 q-34.5 -25.5 -78.5 -25.5 ZM611 64 q34 0 52 32 q18 32 18 83 q0 52 -18.5 84.5 q-18.5 32.5 -51.5 32.5 q-34 0 -52.5 -32.5 q-18.5 -32.5 -18.5 -83.5 q0 -52 18.5 -84 q18.5 -32 52.5 -32 Z" /><glyph glyph-name="perthousand" unicode="&#x2030;" d="M189 329 q-46 0 -80.5 25 q-34.5 25 -53.5 68.5 q-19 43.5 -19 95.5 q0 53 19 96.5 q19 43.5 53.5 69 q34.5 25.5 80.5 25.5 q69 0 110.5 -54.5 q41.5 -54.5 41.5 -135.5 q0 -52 -19.5 -95.5 q-19.5 -43.5 -54 -69 q-34.5 -25.5 -78.5 -25.5 ZM188 -2 q-15 0 -28.5 11 q-13.5 11 -13.5 28 q0 11 7 25 l411 621 q14 19 33 19 q15 0 28.5 -11 q13.5 -11 13.5 -28 q0 -12 -8 -25 l-410 -621 q-14 -19 -33 -19 ZM189 403 q34 0 52.5 32 q18.5 32 18.5 83 q0 52 -18.5 84 q-18.5 32 -52.5 32 q-34 0 -52.5 -32 q-18.5 -32 -18.5 -83 q0 -52 18.5 -84 q18.5 -32 52.5 -32 ZM611 -9 q-44 0 -79 25 q-35 25 -54.5 68 q-19.5 43 -19.5 95 q0 53 19 96.5 q19 43.5 53.5 69 q34.5 25.5 80.5 25.5 q46 0 80.5 -25.5 q34.5 -25.5 53 -68.5 q18.5 -43 18.5 -96 q0 -52 -19.5 -95 q-19.5 -43 -54 -68.5 q-34.5 -25.5 -78.5 -25.5 ZM961 -9 q-44 0 -79 25 q-35 25 -54.5 68 q-19.5 43 -19.5 95 q0 53 19 96.5 q19 43.5 53.5 69 q34.5 25.5 80.5 25.5 q46 0 80.5 -25.5 q34.5 -25.5 53 -68.5 q18.5 -43 18.5 -96 q0 -52 -19.5 -95 q-19.5 -43 -54 -68.5 q-34.5 -25.5 -78.5 -25.5 ZM611 64 q34 0 52 32 q18 32 18 83 q0 52 -18.5 84.5 q-18.5 32.5 -51.5 32.5 q-34 0 -52.5 -32.5 q-18.5 -32.5 -18.5 -83.5 q0 -52 18.5 -84 q18.5 -32 52.5 -32 ZM961 64 q34 0 52 32 q18 32 18 83 q0 52 -18.5 84.5 q-18.5 32.5 -51.5 32.5 q-34 0 -52.5 -32.5 q-18.5 -32.5 -18.5 -83.5 q0 -52 18.5 -84 q18.5 -32 52.5 -32 Z" /><glyph glyph-name="lozenge" unicode="&#x25ca;" d="M296 -6 q-11 0 -21.5 6 q-10.5 6 -18.5 17 l-201 283 q-8 14 -8 26 q0 15 9 27 l198 276 q18 23 42 23 q25 0 42 -23 l200 -276 q9 -12 9 -27 q0 -12 -8 -26 l-200 -282 q-16 -24 -43 -24 ZM293 100 q4 -4 8 0 l156 223 q2 3 0 6 l-156 216 q-4 4 -8 0 l-156 -216 q-1 -3 0 -6 l156 -223 Z" /><glyph glyph-name="at" unicode="@" d="M670 55 q-45 0 -76.5 26.5 q-31.5 26.5 -30.5 68.5 q-29 -49 -72 -72 q-43 -23 -91 -23 q-40 0 -73.5 21 q-33.5 21 -54 58.5 q-20.5 37.5 -20.5 85.5 q0 63 32.5 131.5 q32.5 68.5 88 113.5 q55.5 45 119.5 45 q41 0 72 -22 q31 -22 44 -60 l7 42 q2 14 13 24.5 q11 10.5 32 10.5 q42 0 42 -35 q0 -9 -1 -14 l-43 -272 q-1 -5 -1 -15 q0 -24 12.5 -36.5 q12.5 -12.5 30.5 -12.5 q42 0 78.5 40.5 q36.5 40.5 58 104.5 q21.5 64 21.5 131 q0 74 -34.5 130 q-34.5 56 -98.5 87.5 q-64 31.5 -149 31.5 q-132 0 -238.5 -53 q-106.5 -53 -168 -152.5 q-61.5 -99.5 -61.5 -233.5 q0 -80 32 -148.5 q32 -68.5 101 -111.5 q69 -43 173 -43 q74 0 121 14 q47 14 104 45 q10 5 16 5 q17 0 25 -20 q2 -4 2 -11 q0 -20 -29 -34 q-61 -31 -113 -47.5 q-52 -16.5 -126 -16.5 q-128 0 -212 52 q-84 52 -123 135.5 q-39 83.5 -39 180.5 q0 152 71 266.5 q71 114.5 193 176 q122 61.5 272 61.5 q110 0 189 -42 q79 -42 119.5 -113 q40.5 -71 40.5 -159 q0 -83 -32 -162 q-32 -79 -90.5 -129 q-58.5 -50 -132.5 -50 ZM422 129 q38 0 73 24.5 q35 24.5 58 62 q23 37.5 27 72.5 q9 32 9 57 q0 46 -26 68.5 q-26 22.5 -67 22.5 q-45 0 -80 -34 q-35 -34 -54.5 -84 q-19.5 -50 -19.5 -96 q0 -44 22 -68.5 q22 -24.5 58 -24.5 Z" /><glyph glyph-name="ampersand" unicode="&amp;" d="M651 83 q21 -19 21 -41 q0 -14 -11 -28 q-11 -14 -29 -14 q-17 0 -28 8 l-92 76 q-94 -94 -236 -94 q-69 0 -125.5 31.5 q-56.5 31.5 -88.5 83 q-32 51.5 -32 108.5 q0 70 37 124.5 q37 54.5 111 85.5 q-20 29 -30 55 q-10 26 -10 54 q0 49 25 89.5 q25 40.5 72 64.5 q47 24 109 24 q69 0 121.5 -24.5 q52.5 -24.5 71.5 -62.5 q7 -14 7 -31 q0 -16 -11.5 -27 q-11.5 -11 -30.5 -11 q-22 0 -32 16 q-21 30 -51.5 44.5 q-30.5 14.5 -74.5 14.5 q-51 0 -78.5 -26 q-27.5 -26 -27.5 -67 q0 -36 26 -73 q26 -37 74 -89 l18 -20 q58 -64 142 -139 q26 51 36 112 q5 29 40 29 q20 0 32.5 -16.5 q12.5 -16.5 9.5 -38.5 q-13 -82 -50 -146 q41 -36 85 -72 ZM295 80 q88 0 151 61 q-107 94 -181 178 q-14 15 -33 38 q-57 -17 -81 -50 q-24 -33 -24 -80 q0 -39 18 -72 q18 -33 56 -54 q38 -21 94 -21 Z" /><glyph glyph-name="paragraph" unicode="¶" d="M508 700 q15 0 24.5 -9.5 q9.5 -9.5 9.5 -24.5 l0 -627 q0 -19 -11 -29 q-11 -10 -25 -10 q-15 0 -26.5 10 q-11.5 10 -11.5 29 l0 597 l-76 0 l0 -570 q0 -62 -36 -95 q-36 -33 -92 -33 q-23 0 -45.5 7 q-22.5 7 -32.5 17 q-14 9 -14 28 q0 11 7 21 q9 13 26 13 q9 0 13 -2 q28 -10 43 -10 q27 0 42 17.5 q15 17.5 15 50.5 l0 198 l-49 0 q-121 1 -175 50.5 q-54 49.5 -54 157.5 q0 115 62.5 164.5 q62.5 49.5 202.5 49.5 l203 0 Z" /><glyph glyph-name="section" unicode="§" d="M512 286 q0 -96 -91 -134 q29 -22 42.5 -48.5 q13.5 -26.5 13.5 -62.5 q0 -39 -20.5 -80.5 q-20.5 -41.5 -66 -71 q-45.5 -29.5 -117.5 -29.5 q-62 0 -124.5 22.5 q-62.5 22.5 -92.5 54.5 q-20 23 -20 50 q0 18 13.5 31.5 q13.5 13.5 32.5 13.5 q22 0 38 -18 q25 -29 60.5 -47 q35.5 -18 92.5 -18 q43 0 75 16.5 q32 16.5 32 57.5 q0 34 -43 55.5 q-43 21.5 -127 42.5 q-81 20 -121.5 60 q-40.5 40 -40.5 104 q0 36 21 77 q21 41 71 62 q-46 39 -46 103 q0 61 31 102.5 q31 41.5 77.5 61.5 q46.5 20 93.5 20 q112 0 178 -82 q3 -3 5.5 -11 q2.5 -8 2.5 -16 q0 -18 -13 -31.5 q-13 -13.5 -36 -12.5 q-8 0 -14 6 q-56 54 -125 54 q-44 0 -73.5 -20.5 q-29.5 -20.5 -29.5 -56.5 q0 -41 41.5 -63 q41.5 -22 98.5 -34 q181 -40 181 -158 ZM152 295 q0 -49 84 -77 l93 -22 q38 -1 62 19.5 q24 20.5 24 51.5 q0 24 -16.5 40 q-16.5 16 -50.5 28 l-108 26 q-5 1 -15 1 q-29 0 -51 -18.5 q-22 -18.5 -22 -48.5 Z" /><glyph glyph-name="copyright" unicode="©" d="M393 -7 q-97 0 -179 47.5 q-82 47.5 -130 129.5 q-48 82 -48 180 q0 99 48 180.5 q48 81.5 130 129 q82 47.5 179 47.5 q97 0 179 -47.5 q82 -47.5 130 -129 q48 -81.5 48 -180.5 q0 -98 -48 -180 q-48 -82 -130 -129.5 q-82 -47.5 -179 -47.5 ZM393 56 q80 0 147.5 39 q67.5 39 107 106.5 q39.5 67.5 39.5 148.5 q0 81 -39.5 148.5 q-39.5 67.5 -107 106.5 q-67.5 39 -147.5 39 q-80 0 -147 -39 q-67 -39 -106.5 -106.5 q-39.5 -67.5 -39.5 -148.5 q0 -81 39.5 -148.5 q39.5 -67.5 106.5 -106.5 q67 -39 147 -39 ZM411 143 q-57 0 -106 26 q-49 26 -78.5 73 q-29.5 47 -29.5 108 q0 56 28 103.5 q28 47.5 77 75.5 q49 28 109 28 q28 0 56 -7.5 q28 -7.5 50 -20.5 q9 -4 14 -13 q5 -9 5 -19 q0 -12 -8 -23 q-11 -14 -29 -14 q-8 0 -18 5 q-31 18 -70 18 q-60 0 -99.5 -38.5 q-39.5 -38.5 -39.5 -94.5 q0 -60 39.5 -96.5 q39.5 -36.5 99.5 -36.5 q36 0 70 17 q10 5 18 5 q18 0 29 -14 q8 -11 8 -24 q0 -10 -5 -18.5 q-5 -8.5 -14 -12.5 q-48 -27 -106 -27 Z" /><glyph glyph-name="registered" unicode="®" d="M254 709 q61 0 112.5 -30 q51.5 -30 82 -82 q30.5 -52 30.5 -113 q0 -62 -30.5 -113.5 q-30.5 -51.5 -82 -81.5 q-51.5 -30 -112.5 -30 q-61 0 -112.5 30 q-51.5 30 -82 81.5 q-30.5 51.5 -30.5 113.5 q0 61 30.5 113 q30.5 52 82 82 q51.5 30 112.5 30 ZM254 311 q47 0 86.5 23 q39.5 23 62.5 62.5 q23 39.5 23 87.5 q0 48 -23 87.5 q-23 39.5 -62.5 62.5 q-39.5 23 -86.5 23 q-47 0 -86.5 -23 q-39.5 -23 -62.5 -62.5 q-23 -39.5 -23 -87.5 q0 -48 23 -87.5 q23 -39.5 62.5 -62.5 q39.5 -23 86.5 -23 ZM339 396 q8 -5 8 -15 q0 -5 -3 -10 q-7 -8 -19 -8 q-10 0 -14 2 q-12 4 -20 18.5 q-8 14.5 -8 39.5 q0 34 -34 34 l-34 0 l0 -70 q0 -11 -6.5 -17.5 q-6.5 -6.5 -16.5 -6.5 q-10 0 -17 6.5 q-7 6.5 -7 17.5 l0 196 q0 8 6 13.5 q6 5.5 13 5.5 l80 0 q33 0 54 -19.5 q21 -19.5 21 -51.5 q0 -19 -11.5 -33.5 q-11.5 -14.5 -30.5 -23.5 q12 -8 20 -20.5 q8 -12.5 8 -25.5 q1 -14 3 -21 q2 -7 8 -11 ZM258 497 q17 0 28 8.5 q11 8.5 11 23.5 q0 14 -10 21 q-10 7 -27 7 l-45 0 l0 -60 l43 0 Z" /><glyph glyph-name="trademark" unicode="&#x2122;" d="M702 699 q35 -2 35 -33 l0 -292 q0 -14 -12 -24 q-12 -10 -29 -10 q-18 0 -29 10 q-11 10 -11 24 l0 186 l-81 -142 q-9 -15 -35 -15 q-21 0 -30 15 l-74 129 l0 -173 q-2 -15 -12.5 -24.5 q-10.5 -9.5 -27.5 -9.5 q-18 0 -28.5 9.5 q-10.5 9.5 -10.5 24.5 l0 292 q0 15 10.5 24.5 q10.5 9.5 25.5 9.5 q16 0 26 -5 q10 -5 18 -18 l107 -179 l106 179 q15 23 40 23 l12 -1 ZM271 700 q15 0 24 -8.5 q9 -8.5 9 -25.5 q0 -39 -33 -39 l-69 0 l0 -243 q0 -15 -10 -24.5 q-10 -9.5 -28 -9.5 q-15 0 -25.5 10 q-10.5 10 -10.5 24 l0 243 l-65 0 q-14 0 -24 11 q-10 11 -10 28 q0 17 9.5 25.5 q9.5 8.5 24.5 8.5 l208 0 Z" /><glyph glyph-name="degree" unicode="°" d="M184 400 q-44 0 -79.5 21 q-35.5 21 -56 56.5 q-20.5 35.5 -20.5 76.5 q0 42 20.5 77.5 q20.5 35.5 56 56.5 q35.5 21 79.5 21 q44 0 79.5 -21 q35.5 -21 55.5 -56.5 q20 -35.5 20 -77.5 q0 -41 -20 -76.5 q-20 -35.5 -55.5 -56.5 q-35.5 -21 -79.5 -21 ZM184 467 q34 0 57.5 26 q23.5 26 23.5 61 q0 35 -23.5 61.5 q-23.5 26.5 -57.5 26.5 q-35 0 -58 -25.5 q-23 -25.5 -23 -62.5 q0 -35 23 -61 q23 -26 58 -26 Z" /><glyph glyph-name="bar" unicode="|" d="M162 -100 q0 -21 -13.5 -34.5 q-13.5 -13.5 -34.5 -13.5 q-20 0 -33.5 13.5 q-13.5 13.5 -13.5 34.5 l0 846 q0 21 14 34.5 q14 13.5 35 13.5 q20 0 33 -13.5 q13 -13.5 13 -34.5 l0 -846 Z" /><glyph glyph-name="brokenbar" unicode="¦" d="M166 443 q0 -21 -13.5 -34.5 q-13.5 -13.5 -34.5 -13.5 q-20 0 -33.5 13.5 q-13.5 13.5 -13.5 34.5 l0 303 q0 21 14 34.5 q14 13.5 34 13.5 q21 0 34 -13.5 q13 -13.5 13 -34.5 l0 -303 ZM166 -100 q0 -21 -13.5 -34.5 q-13.5 -13.5 -34.5 -13.5 q-20 0 -33.5 13.5 q-13.5 13.5 -13.5 34.5 l0 303 q0 21 13.5 34.5 q13.5 13.5 34.5 13.5 q20 0 33.5 -13.5 q13.5 -13.5 13.5 -34.5 l0 -303 Z" /><glyph glyph-name="dagger" unicode="&#x2020;" d="M350 578 q18 0 29.5 -11.5 q11.5 -11.5 11.5 -29.5 q0 -18 -11.5 -29 q-11.5 -11 -29.5 -11 l-84 0 l0 -235 q0 -21 -13.5 -34.5 q-13.5 -13.5 -34.5 -13.5 q-21 0 -34.5 13.5 q-13.5 13.5 -12.5 34.5 l0 235 l-83 0 q-18 0 -29.5 11.5 q-11.5 11.5 -11.5 28.5 q0 18 11.5 29.5 q11.5 11.5 29.5 11.5 l83 0 l0 95 q0 21 13 34.5 q13 13.5 34 13.5 q21 0 34.5 -13.5 q13.5 -13.5 13.5 -34.5 l0 -95 l84 0 Z" /><glyph glyph-name="uni2113" unicode="&#x2113;" d="" /><glyph glyph-name="daggerdbl" unicode="&#x2021;" d="M315 450 q19 0 30.5 -11.5 q11.5 -11.5 11.5 -29.5 q0 -18 -11.5 -29 q-11.5 -11 -30.5 -11 l-63 0 l0 -128 q0 -21 -13 -34.5 q-13 -13.5 -35 -13.5 q-21 0 -34 13.5 q-13 13.5 -13 34.5 l0 128 l-69 0 q-18 0 -29.5 11.5 q-11.5 11.5 -11.5 28.5 q0 18 11.5 29.5 q11.5 11.5 29.5 11.5 l69 0 l0 62 l-69 0 q-18 0 -29.5 11.5 q-11.5 11.5 -11.5 29.5 q0 18 11.5 29 q11.5 11 29.5 11 l69 0 l0 82 q0 21 13 34.5 q13 13.5 34 13.5 q22 0 35 -13.5 q13 -13.5 13 -34.5 l0 -82 l63 0 q19 0 30.5 -11.5 q11.5 -11.5 11.5 -28.5 q0 -18 -11.5 -29.5 q-11.5 -11.5 -30.5 -11.5 l-63 0 l0 -62 l63 0 Z" /><glyph glyph-name="estimated" unicode="&#x212e;" d="M595 308 q1 -9 -5.5 -16 q-6.5 -7 -17.5 -7 l-414 0 l0 -187 q0 -3 2 -5 q31 -32 72 -48.5 q41 -16.5 87 -16.5 q64 0 112.5 26.5 q48.5 26.5 85.5 84.5 q6 11 17 11 q9 0 15.5 -5.5 q6.5 -5.5 6.5 -14.5 q0 -7 -6 -15 q-46 -67 -99.5 -96.5 q-53.5 -29.5 -131.5 -29.5 q-82 0 -144.5 39 q-62.5 39 -96.5 106.5 q-34 67.5 -34 150.5 q0 83 34 150 q34 67 96.5 106 q62.5 39 144.5 39 q77 0 138 -34.5 q61 -34.5 97 -96 q36 -61.5 41 -141.5 ZM160 478 q-2 -2 -2 -6 l0 -149 l324 0 l0 149 q0 3 -2 5 q-65 65 -162 65 q-46 0 -87 -16 q-41 -16 -71 -48 Z" /><glyph glyph-name="uni2116" unicode="&#x2116;" d="M605 700 q19 0 31.5 -12.5 q12.5 -12.5 12.5 -31.5 l0 -607 q0 -21 -13.5 -35 q-13.5 -14 -34.5 -14 q-11 0 -21.5 3.5 q-10.5 3.5 -16.5 10.5 l-390 508 l0 -478 q0 -19 -13 -31.5 q-13 -12.5 -33 -12.5 q-19 0 -31.5 12.5 q-12.5 12.5 -12.5 31.5 l0 608 q0 21 13.5 34.5 q13.5 13.5 33.5 13.5 q12 0 23 -4.5 q11 -4.5 17 -12.5 l389 -509 l0 482 q0 19 13 31.5 q13 12.5 33 12.5 ZM952 246 q-60 0 -109.5 29.5 q-49.5 29.5 -78.5 81 q-29 51.5 -29 115.5 q0 64 29 115.5 q29 51.5 78.5 81 q49.5 29.5 109.5 29.5 q62 0 113 -29 q51 -29 81 -81 q30 -52 30 -116 q0 -64 -30 -116 q-30 -52 -81 -81 q-51 -29 -113 -29 ZM952 611 q-52 0 -87 -39.5 q-35 -39.5 -35 -99.5 q0 -60 35 -99 q35 -39 87 -39 q55 0 92 39 q37 39 37 99 q0 60 -37 99.5 q-37 39.5 -92 39.5 ZM1121 185 q19 0 31 -12 q12 -12 12 -31 q0 -20 -12 -32.5 q-12 -12.5 -31 -12.5 l-328 0 q-19 0 -31 12.5 q-12 12.5 -12 32.5 q0 19 12 31 q12 12 31 12 l328 0 Z" /><glyph glyph-name="asciicircum" unicode="^" d="M509 435 q6 -8 10.5 -17 q4.5 -9 4.5 -18 q0 -20 -15 -34.5 q-15 -14.5 -35 -14.5 q-28 0 -40 20 l-145 249 l-148 -249 q-12 -20 -39 -20 q-20 0 -34.5 14.5 q-14.5 14.5 -14.5 34.5 q0 14 15 36 l156 266 q9 15 24 20.5 q15 5.5 39 5.5 q26 0 41.5 -5.5 q15.5 -5.5 24.5 -20.5 l156 -267 Z" /><glyph glyph-name="uni0308" unicode="&#x308;" d="M-318 597 q-26 0 -39 11 q-13 11 -13 35 l0 15 q0 45 52 45 q29 0 42 -10.5 q13 -10.5 13 -34.5 l0 -15 q0 -25 -13.5 -35.5 q-13.5 -10.5 -41.5 -10.5 ZM-130 597 q-26 0 -39 11 q-13 11 -13 35 l0 15 q0 45 53 45 q28 0 40.5 -10.5 q12.5 -10.5 12.5 -34.5 l0 -15 q0 -25 -13 -35.5 q-13 -10.5 -41 -10.5 Z" /><glyph glyph-name="uni0307" unicode="&#x307;" d="M-104 595 q-29 0 -41.5 10.5 q-12.5 10.5 -12.5 33.5 l0 16 q0 24 13.5 34 q13.5 10 41.5 10 q28 0 40.5 -10.5 q12.5 -10.5 12.5 -33.5 l0 -16 q0 -24 -13 -34 q-13 -10 -41 -10 Z" /><glyph glyph-name="gravecomb" unicode="&#x300;" d="M-100 565 q-8 0 -24 8 l-91 62 q-27 15 -27 41 q0 18 13.5 29.5 q13.5 11.5 29.5 11.5 q22 0 42 -20 l78 -81 q11 -11 11 -23 q0 -13 -9 -20.5 q-9 -7.5 -23 -7.5 Z" /><glyph glyph-name="acutecomb" unicode="&#x301;" d="M-181 582 q-8 0 -17 7 q-9 7 -8 19 q0 8 6 18 l59 99 q8 14 19.5 23 q11.5 9 26.5 9 q22 0 33.5 -11.5 q11.5 -11.5 10.5 -30.5 q0 -18 -15 -35 l-75 -82 q-16 -16 -40 -16 Z" /><glyph glyph-name="uni030B" unicode="&#x30b;" d="M-334 584 q-11 0 -18 6.5 q-7 6.5 -8 15.5 l0 3 q0 9 10 26 l47 73 q18 25 44 25 q17 0 30 -10 q13 -10 13 -30 q0 -14 -15 -28 l-56 -57 q-13 -13 -22.5 -18.5 q-9.5 -5.5 -24.5 -5.5 ZM-169 584 q-10 0 -18 6.5 q-8 6.5 -8 14.5 q0 13 11 30 l48 73 q7 12 16 17.5 q9 5.5 24 5.5 q19 0 32.5 -9 q13.5 -9 13.5 -28 q0 -15 -15 -29 l-56 -57 q-14 -13 -24 -18.5 q-10 -5.5 -24 -5.5 Z" /><glyph glyph-name="uni0302" unicode="&#x302;" d="M-70 639 q6 -8 8 -13 q2 -5 2 -12 q0 -9 -7 -15 q-7 -6 -18 -6 q-13 0 -19 3.5 q-6 3.5 -20 15.5 l-64 54 l-65 -54 q-3 -3 -10.5 -9 q-7.5 -6 -14 -8.5 q-6.5 -2.5 -15.5 -2.5 q-10 0 -17 6.5 q-7 6.5 -7 14.5 q0 8 2 13 q2 5 8 12 l59 70 q18 24 50 24 l27 0 q16 0 26 -5 q10 -5 19 -19 l56 -69 Z" /><glyph glyph-name="uni030C" unicode="&#x30c;" d="M-74 725 q10 0 18 -6.5 q8 -6.5 8 -14.5 q0 -14 -13 -28 l-55 -65 q-18 -24 -50 -24 l-28 0 q-16 0 -27.5 5.5 q-11.5 5.5 -21.5 18.5 l-56 65 q-10 13 -10 25 q0 11 8.5 17.5 q8.5 6.5 23.5 6.5 q15 0 37 -19 l62 -52 l60 52 q12 10 21 14.5 q9 4.5 23 4.5 Z" /><glyph glyph-name="uni0306" unicode="&#x306;" d="M-200 558 q-54 0 -94 29 q-40 29 -53 76 q-3 8 -3 15 q0 13 8 20.5 q8 7.5 21 7.5 q17 0 27 -7.5 q10 -7.5 21 -23.5 q9 -23 28 -35 q19 -12 45 -12 q26 0 44.5 12.5 q18.5 12.5 28.5 34.5 q11 16 21 23.5 q10 7.5 26 7.5 q13 0 21.5 -7.5 q8.5 -7.5 8.5 -19.5 q0 -7 -3 -15 q-13 -48 -53 -77 q-40 -29 -94 -29 Z" /><glyph glyph-name="uni030A" unicode="&#x30a;" d="M-159 564 q-43 0 -76 31 q-33 31 -33 73 q0 44 33 75 q33 31 76 31 q44 0 76.5 -31 q32.5 -31 32.5 -75 q0 -42 -32.5 -73 q-32.5 -31 -76.5 -31 ZM-159 622 q21 0 35.5 13.5 q14.5 13.5 14.5 32.5 q0 22 -15 35 q-15 13 -35 13 q-21 0 -35.5 -13.5 q-14.5 -13.5 -14.5 -34.5 q0 -19 14.5 -32.5 q14.5 -13.5 35.5 -13.5 Z" /><glyph glyph-name="tildecomb" unicode="&#x303;" d="M-350 589 q-20 0 -31.5 15 q-11.5 15 -10.5 43 q3 34 32 57 q29 23 78 23 q22 0 42 -9.5 q20 -9.5 48 -27.5 q18 -12 30 -18.5 q12 -6.5 22 -6.5 q12 0 19 7.5 q7 7.5 6 20.5 q-1 3 -1 10 q0 13 9 21 q9 8 22 8 q20 0 31.5 -15 q11.5 -15 10.5 -41 q-3 -33 -28.5 -57.5 q-25.5 -24.5 -73.5 -24.5 q-18 0 -37.5 8.5 q-19.5 8.5 -48.5 25.5 q-22 13 -36.5 20 q-14.5 7 -25.5 7 q-12 0 -19.5 -7 q-7.5 -7 -7.5 -21 q1 -3 1 -8 q0 -14 -9 -22 q-9 -8 -22 -8 Z" /><glyph glyph-name="uni0304" unicode="&#x304;" d="M-332 589 q-19 0 -30 10 q-11 10 -11 28 q0 17 10.5 26.5 q10.5 9.5 30.5 9.5 l241 0 q20 0 30.5 -9.5 q10.5 -9.5 10.5 -26.5 q0 -18 -10.5 -28 q-10.5 -10 -30.5 -10 l-241 0 Z" /><glyph glyph-name="hookabovecomb" unicode="&#x309;" d="M-243 729 q35 30 77 30 q51 0 72.5 -25 q21.5 -25 21.5 -57 q0 -16 -6 -29 q-6 -13 -19 -28 q-7 -8 -13 -17 q-6 -9 -6 -16 q0 -10 -8.5 -17 q-8.5 -7 -20.5 -7 q-12 0 -20 7 q-8 7 -8 18 q0 21 15 39 q14 17 20 26 q6 9 6 18 q0 12 -10.5 20 q-10.5 8 -24.5 8 q-12 0 -22 -4.5 q-10 -4.5 -22 -12.5 q-9 -7 -17 -7 q-11 0 -21 11 q-7 7 -7 17 q0 13 13 26 Z" /><glyph glyph-name="uni030F" unicode="&#x30f;" d="M-255 586 q-10 0 -24 8 l-91 62 q-28 16 -28 41 q0 18 13.5 29.5 q13.5 11.5 30.5 11.5 q21 0 41 -20 l79 -81 q11 -11 11 -23 q0 -13 -9 -20.5 q-9 -7.5 -23 -7.5 ZM-87 586 q-10 0 -24 8 l-91 62 q-28 16 -28 41 q0 18 13.5 29.5 q13.5 11.5 29.5 11.5 q22 0 42 -20 l79 -81 q11 -11 11 -23 q0 -13 -9 -20.5 q-9 -7.5 -23 -7.5 Z" /><glyph glyph-name="uni0311" unicode="&#x311;" d="M-200 740 q54 0 94 -28.5 q40 -28.5 53 -76.5 q3 -7 3 -15 q0 -13 -8 -20.5 q-8 -7.5 -21 -7.5 q-17 0 -27 7.5 q-10 7.5 -21 23.5 q-9 23 -28 35 q-19 12 -45 12 q-26 0 -44.5 -12.5 q-18.5 -12.5 -28.5 -34.5 q-11 -16 -21 -23.5 q-10 -7.5 -26 -7.5 q-13 0 -21.5 7.5 q-8.5 7.5 -8.5 19.5 q0 8 3 15 q13 48 53 77 q40 29 94 29 Z" /><glyph glyph-name="uni031B" unicode="&#x31b;" d="M-167 502 q89 0 89 68 q0 18 10.5 32 q10.5 14 29.5 14 q21 0 30.5 -14 q9.5 -14 9.5 -32 q0 -66 -43 -107.5 q-43 -41.5 -126 -41.5 l0 81 Z" /><glyph glyph-name="dotbelowcomb" unicode="&#x323;" d="M-105 -154 q-28 0 -40.5 10.5 q-12.5 10.5 -12.5 34.5 l0 15 q0 45 53 45 q30 0 42.5 -10.5 q12.5 -10.5 12.5 -34.5 l0 -15 q0 -24 -13 -34.5 q-13 -10.5 -42 -10.5 Z" /><glyph glyph-name="uni0324" unicode="&#x324;" d="M-292 -149 q-52 0 -52 45 l0 15 q0 46 52 46 q29 0 41.5 -10.5 q12.5 -10.5 12.5 -35.5 l0 -15 q0 -25 -12.5 -35 q-12.5 -10 -41.5 -10 ZM-105 -149 q-51 0 -51 45 l0 15 q0 46 53 46 q27 0 40 -11 q13 -11 13 -35 l0 -15 q0 -25 -13 -35 q-13 -10 -42 -10 Z" /><glyph glyph-name="uni0326" unicode="&#x326;" d="M-50 -131 q0 -25 -16 -57.5 q-16 -32.5 -40.5 -55.5 q-24.5 -23 -50.5 -23 q-17 0 -28 8.5 q-11 8.5 -11 24.5 q0 14 7 19.5 q7 5.5 16.5 8.5 q9.5 3 14.5 5 q14 7 21.5 18.5 q7.5 11.5 7.5 25.5 q0 11 -9 19 q-9 8 -23 8 q-16 0 -27 -8 q-10 5 -15 12.5 q-5 7.5 -5 20.5 q1 24 26 42.5 q25 18.5 53 18.5 q37 0 58 -23 q21 -23 21 -64 Z" /><glyph glyph-name="uni0327" unicode="&#x327;" d="M-143 -148 q-17 0 -36.5 11.5 q-19.5 11.5 -19.5 28.5 q0 14 10 25 l82 107 l57 0 l-59 -145 q-11 -27 -34 -27 Z" /><glyph glyph-name="uni0328" unicode="&#x328;" d="" /><glyph glyph-name="uni032E" unicode="&#x32e;" d="M-205 -168 q-54 0 -94 29 q-40 29 -53 76 q-3 7 -3 15 q0 13 8 20.5 q8 7.5 21 7.5 q17 0 27 -7.5 q10 -7.5 21 -23.5 q9 -23 28 -35 q19 -12 45 -12 q26 0 44.5 12.5 q18.5 12.5 28.5 34.5 q11 16 21 23.5 q10 7.5 26 7.5 q13 0 21.5 -7.5 q8.5 -7.5 8.5 -19.5 q0 -8 -3 -15 q-13 -48 -53 -77 q-40 -29 -94 -29 Z" /><glyph glyph-name="uni0331" unicode="&#x331;" d="M-329 -138 q-20 0 -30.5 9.5 q-10.5 9.5 -10.5 27.5 q0 17 10.5 26.5 q10.5 9.5 30.5 9.5 l238 0 q20 0 30.5 -9.5 q10.5 -9.5 10.5 -26.5 q0 -37 -41 -37 l-238 0 Z" /><glyph glyph-name="uni0335" unicode="&#x335;" d="M-268 251 q-21 0 -34.5 12.5 q-13.5 12.5 -13.5 32.5 q0 19 13.5 31 q13.5 12 34.5 12 l170 0 q21 0 34.5 -12.5 q13.5 -12.5 13.5 -31.5 q0 -19 -13.5 -31.5 q-13.5 -12.5 -34.5 -12.5 l-170 0 Z" /><glyph glyph-name="uni02BC" unicode="&#x2bc;" d="M58 661 q5 39 43 39 l31 0 q16 0 25 -7.5 q9 -7.5 9 -20.5 q0 -8 -3 -17 l-66 -212 q-9 -28 -36 -28 q-13 0 -19 9 q-6 9 -4 26 l20 211 Z" /><glyph glyph-name="uni02C9" unicode="&#x2c9;" d="M108 608 q-22 0 -35.5 13.5 q-13.5 13.5 -13.5 33.5 q0 20 13.5 32.5 q13.5 12.5 35.5 12.5 l283 0 q21 0 34.5 -12.5 q13.5 -12.5 13.5 -32.5 q0 -21 -13.5 -34 q-13.5 -13 -34.5 -13 l-283 0 Z" /><glyph glyph-name="uni02CB" unicode="&#x2cb;" d="M167 450 q2 -17 -4 -26 q-6 -9 -19 -9 q-27 0 -36 28 l-66 212 q-3 9 -3 17 q0 13 9 20.5 q9 7.5 25 7.5 l31 0 q39 0 43 -39 l20 -211 Z" /><glyph glyph-name="uni02BF" unicode="&#x2bf;" d="M171 631 q0 -13 -7.5 -22 q-7.5 -9 -21.5 -9 q-24 0 -49.5 13 q-25.5 13 -42.5 36.5 q-17 23.5 -17 54.5 q0 44 32.5 74.5 q32.5 30.5 75.5 31.5 q12 0 20.5 -8.5 q8.5 -8.5 8.5 -21.5 q0 -19 -9.5 -25 q-9.5 -6 -18.5 -6 q-18 0 -33 -10.5 q-15 -10.5 -15 -34.5 q0 -19 13.5 -31 q13.5 -12 34.5 -12 q13 0 21 -8.5 q8 -8.5 8 -21.5 Z" /><glyph glyph-name="uni02BE" unicode="&#x2be;" d="M33 631 q0 14 9 22 q9 8 20 8 q21 0 34.5 12 q13.5 12 13.5 31 q0 22 -13.5 33.5 q-13.5 11.5 -34.5 11.5 q-9 0 -18.5 6 q-9.5 6 -9.5 25 q0 14 9 22 q9 8 20 8 q43 -1 75.5 -31.5 q32.5 -30.5 32.5 -74.5 q0 -42 -32.5 -73 q-32.5 -31 -76.5 -31 q-14 0 -21.5 9 q-7.5 9 -7.5 22 Z" /><glyph glyph-name="uni02CA" unicode="&#x2ca;" d="" /><glyph glyph-name="uni02CC" unicode="&#x2cc;" d="M162 -100 q0 -21 -13.5 -34.5 q-13.5 -13.5 -34.5 -13.5 q-20 0 -33.5 13.5 q-13.5 13.5 -13.5 34.5 l0 246 q0 21 14 34.5 q14 13.5 35 13.5 q20 0 33 -13.5 q13 -13.5 13 -34.5 l0 -246 Z" /><glyph glyph-name="uni02C8" unicode="&#x2c8;" d="M162 418 q0 -20 -13.5 -34 q-13.5 -14 -34.5 -14 q-20 0 -33.5 14 q-13.5 14 -13.5 34 l0 246 q0 21 14 35 q14 14 35 14 q20 0 33 -14 q13 -14 13 -35 l0 -246 Z" /><glyph glyph-name="acute" unicode="´" d="M88 594 q-8 0 -17 7 q-9 7 -8 19 q0 8 6 18 l59 99 q8 14 19.5 23 q11.5 9 26.5 9 q22 0 33.5 -11.5 q11.5 -11.5 10.5 -30.5 q0 -18 -15 -35 l-75 -82 q-16 -16 -40 -16 Z" /><glyph glyph-name="breve" unicode="&#x2d8;" d="M200 578 q-54 0 -94 29 q-40 29 -53 76 q-3 8 -3 15 q0 13 8 20.5 q8 7.5 21 7.5 q17 0 27 -7.5 q10 -7.5 21 -23.5 q9 -23 28 -35 q19 -12 45 -12 q26 0 44.5 12.5 q18.5 12.5 28.5 34.5 q11 16 21 23.5 q10 7.5 26 7.5 q13 0 21.5 -7.5 q8.5 -7.5 8.5 -19.5 q0 -7 -3 -15 q-13 -48 -53 -77 q-40 -29 -94 -29 Z" /><glyph glyph-name="caron" unicode="&#x2c7;" d="M284 739 q11 0 19 -6.5 q8 -6.5 8 -14.5 q0 -14 -13 -28 l-56 -65 q-17 -24 -49 -24 l-28 0 q-16 0 -27.5 5.5 q-11.5 5.5 -21.5 18.5 l-56 65 q-10 13 -10 25 q0 11 8.5 17.5 q8.5 6.5 23.5 6.5 q15 0 37 -19 l62 -51 l60 52 q13 10 21.5 14 q8.5 4 21.5 4 Z" /><glyph glyph-name="cedilla" unicode="¸" d="M100 -148 q-16 0 -36 12 q-20 12 -20 28 q0 14 10 25 l82 107 l57 0 l-59 -145 q-10 -27 -34 -27 Z" /><glyph glyph-name="circumflex" unicode="&#x2c6;" d="M297 639 q6 -8 8 -13 q2 -5 2 -12 q0 -9 -7 -15 q-7 -6 -18 -6 q-13 0 -19 3.5 q-6 3.5 -20 15.5 l-64 54 l-65 -54 q-3 -3 -10.5 -9 q-7.5 -6 -14 -8.5 q-6.5 -2.5 -15.5 -2.5 q-10 0 -17 6.5 q-7 6.5 -7 14.5 q0 8 2 13 q2 5 8 12 l59 70 q18 24 50 24 l27 0 q16 0 26 -5 q10 -5 19 -19 l56 -69 Z" /><glyph glyph-name="dieresis" unicode="¨" d="M111 600 q-26 0 -39 11 q-13 11 -13 35 l0 15 q0 45 52 45 q29 0 42 -10.5 q13 -10.5 13 -34.5 l0 -15 q0 -25 -13.5 -35.5 q-13.5 -10.5 -41.5 -10.5 ZM299 600 q-26 0 -39 11 q-13 11 -13 35 l0 15 q0 45 53 45 q28 0 40.5 -10.5 q12.5 -10.5 12.5 -34.5 l0 -15 q0 -25 -13 -35.5 q-13 -10.5 -41 -10.5 Z" /><glyph glyph-name="dotaccent" unicode="&#x2d9;" d="M112 600 q-28 0 -40.5 11 q-12.5 11 -12.5 35 l0 15 q0 46 54 46 q29 0 42 -10.5 q13 -10.5 13 -35.5 l0 -15 q0 -25 -13.5 -35.5 q-13.5 -10.5 -42.5 -10.5 Z" /><glyph glyph-name="grave" unicode="`" d="M167 586 q-8 0 -24 8 l-91 62 q-27 15 -27 41 q0 18 13.5 29.5 q13.5 11.5 29.5 11.5 q22 0 42 -20 l78 -81 q11 -11 11 -23 q0 -13 -9 -20.5 q-9 -7.5 -23 -7.5 Z" /><glyph glyph-name="hungarumlaut" unicode="&#x2dd;" d="M75 594 q-11 0 -18 7.5 q-7 7.5 -7 17.5 q0 14 10 28 l47 73 q14 24 37 24 q21 0 36 -11 q15 -11 15 -28 q0 -13 -14 -29 l-58 -56 q-14 -14 -24 -20 q-10 -6 -24 -6 ZM247 594 q-11 0 -18.5 7.5 q-7.5 7.5 -7.5 16.5 q0 12 11 29 l48 74 q15 23 36 23 q21 0 36 -11 q15 -11 15 -28 q0 -13 -14 -29 l-58 -56 q-14 -14 -24 -20 q-10 -6 -24 -6 Z" /><glyph glyph-name="macron" unicode="¯" d="M91 589 q-19 0 -30 10 q-11 10 -11 28 q0 17 10.5 26.5 q10.5 9.5 30.5 9.5 l241 0 q20 0 30.5 -9.5 q10.5 -9.5 10.5 -26.5 q0 -18 -10.5 -28 q-10.5 -10 -30.5 -10 l-241 0 Z" /><glyph glyph-name="ogonek" unicode="&#x2db;" d="M150 -200 q-47 0 -78.5 26.5 q-31.5 26.5 -31.5 75.5 q0 63 43 95.5 q43 32.5 110 51.5 l47 -7 q5 -6 5 -15 q0 -9 -5.5 -17 q-5.5 -8 -17.5 -11 q-42 -9 -72 -30.5 q-30 -21.5 -30 -48.5 q0 -21 11.5 -33 q11.5 -12 27.5 -12 q11 0 20 9 q12 14 33 14 q15 0 24.5 -10 q9.5 -10 9.5 -27 q0 -14 -13.5 -28 q-13.5 -14 -35.5 -23.5 q-22 -9.5 -47 -9.5 Z" /><glyph glyph-name="ring" unicode="&#x2da;" d="M168 600 q-43 0 -76 31 q-33 31 -33 73 q0 44 33 75 q33 31 76 31 q44 0 76.5 -31 q32.5 -31 32.5 -75 q0 -42 -32.5 -73 q-32.5 -31 -76.5 -31 ZM168 658 q21 0 35.5 13.5 q14.5 13.5 14.5 32.5 q0 22 -15 35 q-15 13 -35 13 q-21 0 -35 -13.5 q-14 -13.5 -14 -34.5 q0 -19 14.5 -32.5 q14.5 -13.5 34.5 -13.5 Z" /><glyph glyph-name="tilde" unicode="&#x2dc;" d="M300 594 q-17 0 -37.5 9 q-20.5 9 -46.5 24 q-27 14 -39.5 20 q-12.5 6 -23.5 6 q-12 0 -19.5 -7 q-7.5 -7 -7.5 -21 q1 -3 1 -8 q0 -14 -9 -22 q-9 -8 -22 -8 q-18 0 -30.5 15 q-12.5 15 -12.5 39 q0 33 28.5 59.5 q28.5 26.5 81.5 26.5 q18 0 36.5 -8.5 q18.5 -8.5 47.5 -25.5 q23 -14 35.5 -20 q12.5 -6 23.5 -6 q12 0 19 7.5 q7 7.5 6 20.5 q-1 3 -1 10 q0 13 9 21 q9 8 22 8 q18 0 30.5 -14.5 q12.5 -14.5 12.5 -36.5 q0 -34 -26.5 -61.5 q-26.5 -27.5 -77.5 -27.5 Z" /></font>
</defs>
</svg>
