<?xml version="1.0" standalone="no"?><!DOCTYPE svg PUBLIC "-//W3C//DTD SVG 1.1//EN" "http://www.w3.org/Graphics/SVG/1.1/DTD/svg11.dtd" ><svg xmlns="http://www.w3.org/2000/svg"><metadata></metadata><defs><font id="Quicksand-Bold" horiz-adv-x="1363"><font-face font-family="Quicksand" font-weight="700" font-stretch="normal" units-per-em="1000" panose-1="0 0 8 0 0 0 0 0 0 0" ascent="1000" descent="-250" x-height="0" bbox="-478 -303 1328 1183" underline-thickness="50" underline-position="-75" unicode-range="U+0000-fb02" /><missing-glyph horiz-adv-x="584" d="M40 665 q0 35 35 35 l434 0 q35 0 35 -35 l0 -630 q0 -35 -35 -35 l-434 0 q-35 0 -35 35 l0 630 ZM95 670 q-3 0 -4 -2 q-1 -2 1 -4 l416 -599 q2 -3 4 -2.5 q2 0.5 2 4.5 l0 598 q0 5 -5 5 l-414 0 ZM70 35 q0 -5 5 -5 l413 0 q3 0 4 2 q1 2 -1 4 l-415 599 q-2 3 -4 2.5 q-2 -0.5 -2 -4.5 l0 -598 Z" /><glyph glyph-name="NULL" unicode="" d="" /><glyph glyph-name="nonmarkingreturn" unicode="" d="" /><glyph glyph-name="space" unicode=" " d="" /><glyph glyph-name="A" unicode="a" d="M624 78 q5 -13 5 -24 q0 -26 -17 -42.5 q-17 -16.5 -39 -16.5 q-18 0 -32.5 11 q-14.5 11 -22.5 30 l-52 121 l-298 0 l-52 -122 q-7 -19 -21.5 -29.5 q-14.5 -10.5 -31.5 -10.5 q-26 0 -39.5 14 q-13.5 14 -13.5 38 q0 9 3 19 l249 598 q8 20 24 31 q16 11 36 9 q18 0 33.5 -10.5 q15.5 -10.5 22.5 -29.5 l246 -586 ZM217 272 l200 0 l-101 234 l-99 -234 Z" /><glyph glyph-name="Aogonek" unicode="&#x104;" d="M598 -84 q19 0 31.5 -13 q12.5 -13 12.5 -35 q0 -16 -16.5 -34 q-16.5 -18 -43.5 -29.5 q-27 -11.5 -56 -11.5 q-53 0 -86.5 27 q-33.5 27 -33.5 80 q0 52 30.5 85 q30.5 33 80.5 54 l-51 118 l-298 0 l-52 -122 q-7 -19 -21.5 -29.5 q-14.5 -10.5 -31.5 -10.5 q-29 0 -40.5 12 q-11.5 12 -11.5 38 q0 13 4 24 l247 595 q8 20 24 31 q16 11 36 9 q18 0 33.5 -10.5 q15.5 -10.5 22.5 -29.5 l257 -612 q4 -8 4 -17 q0 -12 -6.5 -22.5 q-6.5 -10.5 -21.5 -14.5 q-47 -13 -75.5 -33 q-28.5 -20 -28.5 -44 q0 -18 8.5 -26.5 q8.5 -8.5 20.5 -8.5 q12 0 21 12 q14 18 41 18 ZM217 272 l200 0 l-101 234 l-99 -234 Z" /><glyph glyph-name="Aring" unicode="å" d="M624 78 q5 -13 5 -24 q0 -26 -17 -42.5 q-17 -16.5 -39 -16.5 q-18 0 -32.5 11 q-14.5 11 -22.5 30 l-52 121 l-298 0 l-52 -122 q-7 -19 -21.5 -29.5 q-14.5 -10.5 -31.5 -10.5 q-26 0 -39.5 14 q-13.5 14 -13.5 38 q0 9 3 19 l245 589 q-23 15 -36.5 38.5 q-13.5 23.5 -13.5 50.5 q0 46 34 78.5 q34 32.5 80 32.5 q46 0 80 -32.5 q34 -32.5 34 -78.5 q0 -28 -14.5 -51.5 q-14.5 -23.5 -38.5 -39.5 l241 -575 ZM322 785 q-19 0 -31.5 -11 q-12.5 -11 -12.5 -30 q0 -17 12.5 -28 q12.5 -11 31.5 -11 q19 0 31.5 11 q12.5 11 12.5 28 q0 20 -13 30.5 q-13 10.5 -31 10.5 ZM217 272 l200 0 l-101 234 l-99 -234 Z" /><glyph glyph-name="AE" unicode="æ" d="M783 115 q26 0 43.5 -17.5 q17.5 -17.5 17.5 -40.5 q0 -25 -17.5 -41 q-17.5 -16 -43.5 -16 l-315 0 q-26 0 -43.5 17.5 q-17.5 17.5 -17.5 43.5 l0 82 l-220 0 l-84 -124 q-18 -24 -43 -24 q-22 0 -39 16 q-17 16 -17 41 q0 18 13 37 l408 585 q18 26 56 26 l302 0 q26 0 43.5 -16.5 q17.5 -16.5 17.5 -42.5 q0 -25 -17 -40.5 q-17 -15.5 -44 -15.5 l-251 0 l0 -175 l206 0 q26 0 43.5 -16.5 q17.5 -16.5 17.5 -42.5 q0 -25 -17 -40.5 q-17 -15.5 -44 -15.5 l-206 0 l0 -180 l251 0 ZM407 470 l-144 -214 l144 0 l0 214 Z" /><glyph glyph-name="B" unicode="b" d="M495 388 q53 -21 86.5 -64 q33.5 -43 33.5 -111 q0 -119 -68 -166 q-68 -47 -162 -47 l-249 0 q-26 0 -43.5 17.5 q-17.5 17.5 -17.5 43.5 l0 578 q0 26 17.5 43.5 q17.5 17.5 43.5 17.5 l252 0 q190 0 190 -178 q0 -45 -21.5 -79.5 q-21.5 -34.5 -61.5 -54.5 ZM448 500 q0 41 -20.5 61.5 q-20.5 20.5 -57.5 20.5 l-165 0 l0 -156 l168 0 q30 0 52.5 20 q22.5 20 22.5 54 ZM385 115 q47 0 73.5 25 q26.5 25 26.5 73 q0 59 -31 77 q-31 18 -76 18 l-173 0 l0 -193 l180 0 Z" /><glyph glyph-name="C" unicode="c" d="M565 666 q31 -16 31 -51 q0 -21 -15 -41 q-16 -21 -41 -21 q-17 0 -34 9 q-49 23 -106 23 q-70 0 -122 -29.5 q-52 -29.5 -80 -83 q-28 -53.5 -28 -122.5 q0 -118 63.5 -179 q63.5 -61 166.5 -61 q61 0 106 23 q18 8 32 8 q26 0 44 -22 q15 -19 15 -41 q0 -16 -8 -29 q-8 -13 -23 -20 q-78 -39 -166 -39 q-98 0 -180 41.5 q-82 41.5 -131 122.5 q-49 81 -49 196 q0 102 46.5 183 q46.5 81 128.5 126.5 q82 45.5 185 45.5 q89 0 165 -39 Z" /><glyph glyph-name="Ccedilla" unicode="ç" d="M582 119 q15 -19 15 -41 q0 -16 -8 -29 q-8 -13 -23 -20 q-73 -36 -156 -39 l-40 -109 q-12 -32 -41 -32 q-19 0 -42 13 q-23 13 -23 33 q0 15 12 30 l53 71 q-82 14 -147.5 58.5 q-65.5 44.5 -103.5 120 q-38 75.5 -38 175.5 q0 102 46.5 183 q46.5 81 128.5 126.5 q82 45.5 185 45.5 q89 0 165 -39 q31 -16 31 -51 q0 -21 -15 -41 q-16 -21 -41 -21 q-17 0 -34 9 q-49 23 -106 23 q-70 0 -122 -29.5 q-52 -29.5 -80 -83 q-28 -53.5 -28 -122.5 q0 -118 63.5 -179 q63.5 -61 166.5 -61 q61 0 106 23 q18 8 32 8 q26 0 44 -22 Z" /><glyph glyph-name="uni1E08" unicode="&#x1e08;" d="M365 738 q-19 0 -30.5 10 q-11.5 10 -11.5 26 q0 14 14 27 l86 76 q26 22 49 22 q19 0 36 -14 q17 -14 17 -35 q0 -15 -9.5 -29.5 q-9.5 -14.5 -27.5 -23.5 l-100 -53 q-10 -6 -23 -6 ZM582 119 q15 -19 15 -41 q0 -16 -8 -29 q-8 -13 -23 -20 q-73 -36 -156 -39 l-40 -109 q-12 -32 -41 -32 q-19 0 -42 13 q-23 13 -23 33 q0 15 12 30 l53 71 q-82 14 -147.5 58.5 q-65.5 44.5 -103.5 120 q-38 75.5 -38 175.5 q0 102 46.5 183 q46.5 81 128.5 126.5 q82 45.5 185 45.5 q89 0 165 -39 q31 -16 31 -51 q0 -21 -15 -41 q-16 -21 -41 -21 q-17 0 -34 9 q-49 23 -106 23 q-70 0 -122 -29.5 q-52 -29.5 -80 -83 q-28 -53.5 -28 -122.5 q0 -118 63.5 -179 q63.5 -61 166.5 -61 q61 0 106 23 q18 8 32 8 q26 0 44 -22 Z" /><glyph glyph-name="D" unicode="d" d="M375 700 q94 0 161.5 -46.5 q67.5 -46.5 103 -126 q35.5 -79.5 35.5 -177.5 q0 -98 -35.5 -177.5 q-35.5 -79.5 -103 -126 q-67.5 -46.5 -161.5 -46.5 l-239 0 q-26 0 -43.5 17.5 q-17.5 17.5 -17.5 43.5 l0 578 q0 26 17.5 43.5 q17.5 17.5 43.5 17.5 l239 0 ZM365 115 q90 0 135 66.5 q45 66.5 45 168.5 q0 102 -45.5 168.5 q-45.5 66.5 -134.5 66.5 l-165 0 l0 -470 l165 0 Z" /><glyph glyph-name="Eth" unicode="ð" d="M375 700 q94 0 161.5 -46.5 q67.5 -46.5 103 -126 q35.5 -79.5 35.5 -177.5 q0 -98 -35.5 -177.5 q-35.5 -79.5 -103 -126 q-67.5 -46.5 -161.5 -46.5 l-239 0 q-26 0 -43.5 17.5 q-17.5 17.5 -17.5 43.5 l0 236 l-18 0 q-26 0 -43.5 15.5 q-17.5 15.5 -17.5 40.5 q0 23 17.5 38.5 q17.5 15.5 43.5 15.5 l18 0 l0 232 q0 26 17.5 43.5 q17.5 17.5 43.5 17.5 l239 0 ZM365 115 q90 0 135 66.5 q45 66.5 45 168.5 q0 102 -45.5 168.5 q-45.5 66.5 -134.5 66.5 l-165 0 l0 -178 l31 0 q26 0 43.5 -15.5 q17.5 -15.5 17.5 -38.5 q0 -25 -17.5 -40.5 q-17.5 -15.5 -43.5 -15.5 l-31 0 l0 -182 l165 0 Z" /><glyph glyph-name="E" unicode="e" d="M471 115 q26 0 43.5 -17.5 q17.5 -17.5 17.5 -40.5 q0 -25 -17.5 -41 q-17.5 -16 -43.5 -16 l-335 0 q-26 0 -43.5 17.5 q-17.5 17.5 -17.5 43.5 l0 578 q0 26 17.5 43.5 q17.5 17.5 43.5 17.5 l335 0 q26 0 43.5 -16.5 q17.5 -16.5 17.5 -42.5 q0 -25 -17 -40.5 q-17 -15.5 -44 -15.5 l-271 0 l0 -170 l226 0 q26 0 43.5 -16.5 q17.5 -16.5 17.5 -42.5 q0 -25 -17 -40.5 q-17 -15.5 -44 -15.5 l-226 0 l0 -185 l271 0 Z" /><glyph glyph-name="uni1E1C" unicode="&#x1e1c;" d="M306 758 q-56 0 -97.5 24.5 q-41.5 24.5 -60.5 68.5 q-5 13 -5 22 q0 15 9.5 24 q9.5 9 24.5 9 q19 0 31 -8 q12 -8 29 -28 q24 -27 69 -27 q48 0 69 27 q15 19 27.5 27.5 q12.5 8.5 32.5 8.5 q15 0 24.5 -8.5 q9.5 -8.5 9.5 -23.5 q0 -10 -4 -21 q-19 -46 -60.5 -70.5 q-41.5 -24.5 -98.5 -24.5 ZM471 115 q26 0 43.5 -17.5 q17.5 -17.5 17.5 -40.5 q0 -25 -17.5 -41 q-17.5 -16 -43.5 -16 l-155 0 l-44 -119 q-12 -32 -41 -32 q-19 0 -42 13 q-23 13 -23 33 q0 15 12 30 l56 75 l-98 0 q-26 0 -43.5 17.5 q-17.5 17.5 -17.5 43.5 l0 578 q0 26 17.5 43.5 q17.5 17.5 43.5 17.5 l335 0 q26 0 43.5 -16.5 q17.5 -16.5 17.5 -42.5 q0 -25 -17 -40.5 q-17 -15.5 -44 -15.5 l-271 0 l0 -170 l226 0 q26 0 43.5 -16.5 q17.5 -16.5 17.5 -42.5 q0 -25 -17 -40.5 q-17 -15.5 -44 -15.5 l-226 0 l0 -185 l271 0 Z" /><glyph glyph-name="Eogonek" unicode="&#x118;" d="M471 115 q27 0 44 -15.5 q17 -15.5 17 -42.5 q0 -24 -15 -37 q-15 -13 -44 -20 q-45 -11 -73.5 -32 q-28.5 -21 -28.5 -46 q0 -17 9 -26.5 q9 -9.5 22 -9.5 q12 0 21 12 q14 18 41 18 q19 0 31.5 -13 q12.5 -13 12.5 -35 q0 -16 -16.5 -34 q-16.5 -18 -43.5 -29.5 q-27 -11.5 -56 -11.5 q-53 0 -86.5 27 q-33.5 27 -33.5 80 q0 56 61 100 l-197 0 q-26 0 -43.5 17.5 q-17.5 17.5 -17.5 43.5 l0 578 q0 26 17.5 43.5 q17.5 17.5 43.5 17.5 l335 0 q26 0 43.5 -16.5 q17.5 -16.5 17.5 -42.5 q0 -22 -17.5 -38.5 q-17.5 -16.5 -43.5 -16.5 l-271 0 l0 -171 l226 0 q26 0 43.5 -16.5 q17.5 -16.5 17.5 -42.5 q0 -21 -18 -38.5 q-18 -17.5 -43 -17.5 l-226 0 l0 -185 l271 0 Z" /><glyph glyph-name="F" unicode="f" d="M200 585 l0 -176 l216 0 q26 0 43.5 -16.5 q17.5 -16.5 17.5 -42.5 q0 -22 -17.5 -39 q-17.5 -17 -43.5 -17 l-216 0 l0 -233 q0 -26 -18.5 -43.5 q-18.5 -17.5 -43.5 -17.5 q-28 0 -45.5 17 q-17.5 17 -17.5 44 l0 578 q0 26 17.5 43.5 q17.5 17.5 43.5 17.5 l325 0 q26 0 43.5 -16.5 q17.5 -16.5 17.5 -42.5 q0 -22 -17.5 -39 q-17.5 -17 -43.5 -17 l-261 0 Z" /><glyph glyph-name="G" unicode="g" d="M591 378 q26 0 43 -17.5 q17 -17.5 17 -43.5 l0 -212 q0 -35 -31 -54 q-98 -61 -215 -61 q-99 0 -183 48.5 q-84 48.5 -133 131 q-49 82.5 -49 180.5 q0 98 49 180.5 q49 82.5 133 131 q84 48.5 183 48.5 q99 0 172 -40 q15 -8 22.5 -21 q7.5 -13 7.5 -28 q0 -25 -16.5 -43.5 q-16.5 -18.5 -40.5 -18.5 q-15 0 -33 8 q-54 23 -112 23 q-64 0 -118 -32.5 q-54 -32.5 -85.5 -87.5 q-31.5 -55 -31.5 -120 q0 -65 31.5 -120 q31.5 -55 85.5 -87.5 q54 -32.5 118 -32.5 q28 0 60 5 q32 5 56 13 l0 130 l-94 0 q-26 0 -43.5 17 q-17.5 17 -17.5 43 q0 26 17.5 43 q17.5 17 43.5 17 l164 0 Z" /><glyph glyph-name="H" unicode="h" d="M582 700 q28 0 45 -17 q17 -17 17 -44 l0 -578 q0 -26 -18 -43.5 q-18 -17.5 -46 -17.5 q-25 0 -43 17.5 q-18 17.5 -18 43.5 l0 233 l-319 0 l0 -233 q0 -26 -19 -43.5 q-19 -17.5 -44 -17.5 q-27 0 -44.5 17.5 q-17.5 17.5 -17.5 43.5 l0 578 q0 26 18 43.5 q18 17.5 46 17.5 q25 0 43 -17.5 q18 -17.5 18 -43.5 l0 -230 l319 0 l0 230 q0 26 19 43.5 q19 17.5 44 17.5 Z" /><glyph glyph-name="Hbar" unicode="&#x126;" d="M714 590 q23 0 37 -14 q14 -14 14 -37 q0 -21 -14.5 -35 q-14.5 -14 -36.5 -14 l-27 0 l0 -429 q0 -26 -18 -43.5 q-18 -17.5 -46 -17.5 q-25 0 -43 17.5 q-18 17.5 -18 43.5 l0 233 l-319 0 l0 -233 q0 -26 -19 -43.5 q-19 -17.5 -44 -17.5 q-27 0 -44.5 17.5 q-17.5 17.5 -17.5 43.5 l0 429 l-27 0 q-22 0 -36.5 14.5 q-14.5 14.5 -14.5 36.5 q0 21 14.5 35 q14.5 14 36.5 14 l27 0 l0 49 q0 26 18 43.5 q18 17.5 46 17.5 q25 0 43 -17.5 q18 -17.5 18 -43.5 l0 -49 l319 0 l0 49 q0 26 19 43.5 q19 17.5 44 17.5 q28 0 45 -17 q17 -17 17 -44 l0 -49 l27 0 ZM562 409 l0 81 l-319 0 l0 -81 l319 0 Z" /><glyph glyph-name="I" unicode="i" d="M200 61 q0 -26 -19 -43.5 q-19 -17.5 -44 -17.5 q-27 0 -44.5 17.5 q-17.5 17.5 -17.5 43.5 l0 578 q0 26 18 43.5 q18 17.5 46 17.5 q25 0 43 -17.5 q18 -17.5 18 -43.5 l0 -578 Z" /><glyph glyph-name="IJ" unicode="&#x132;" d="M273 -10 q-57 0 -106 23.5 q-49 23.5 -80 65.5 q-12 18 -12 35 q0 24 19 41.5 q19 17.5 39 17.5 q26 0 56 -30 q19 -18 39 -25.5 q20 -7.5 45 -7.5 q29 0 55.5 15 q26.5 15 42.5 40.5 q16 25.5 16 53.5 l0 420 q0 26 19 43.5 q19 17.5 44 17.5 q28 0 45 -17 q17 -17 17 -44 l0 -420 q0 -60 -32 -113 q-32 -53 -87 -84.5 q-55 -31.5 -120 -31.5 ZM206 315 q0 -26 -19 -43.5 q-19 -17.5 -44 -17.5 q-27 0 -44.5 17.5 q-17.5 17.5 -17.5 43.5 l0 324 q0 26 18 43.5 q18 17.5 46 17.5 q25 0 43 -17.5 q18 -17.5 18 -43.5 l0 -324 Z" /><glyph glyph-name="Iogonek" unicode="&#x12e;" d="M166 -84 q19 0 31.5 -13 q12.5 -13 12.5 -35 q0 -16 -16.5 -34 q-16.5 -18 -43.5 -29.5 q-27 -11.5 -56 -11.5 q-53 0 -86.5 27 q-33.5 27 -33.5 80 q0 50 27.5 82.5 q27.5 32.5 73.5 53.5 l0 603 q0 26 19 43.5 q19 17.5 47 17.5 q28 0 46 -17.5 q18 -17.5 18 -43.5 l0 -604 q0 -30 -26 -37 q-48 -14 -77 -33 q-29 -19 -29 -43 q0 -17 9 -26.5 q9 -9.5 22 -9.5 q12 0 21 12 q13 18 41 18 Z" /><glyph glyph-name="J" unicode="j" d="M238 -10 q-57 0 -106 23.5 q-49 23.5 -80 65.5 q-12 18 -12 35 q0 24 19 41.5 q19 17.5 39 17.5 q26 0 56 -30 q19 -18 39 -25.5 q20 -7.5 45 -7.5 q29 0 55.5 15 q26.5 15 42.5 40.5 q16 25.5 16 53.5 l0 420 q0 26 19 43.5 q19 17.5 44 17.5 q28 0 45 -17 q17 -17 17 -44 l0 -420 q0 -60 -32 -113 q-32 -53 -87 -84.5 q-55 -31.5 -120 -31.5 Z" /><glyph glyph-name="K" unicode="k" d="M611 104 q6 -8 10 -19.5 q4 -11.5 4 -21.5 q0 -27 -20.5 -45 q-20.5 -18 -47.5 -18 q-13 0 -25 6 q-12 6 -20 17 l-217 286 l-95 -91 l0 -157 q0 -27 -17.5 -44 q-17.5 -17 -45.5 -17 q-27 0 -44.5 17.5 q-17.5 17.5 -17.5 43.5 l0 578 q0 26 18 43.5 q18 17.5 46 17.5 q27 0 44 -17 q17 -17 17 -44 l0 -272 l320 315 q23 23 49 23 q23 0 39 -19 q16 -19 16 -40 q0 -21 -18 -39 l-218 -208 l223 -295 Z" /><glyph glyph-name="L" unicode="l" d="M461 117 q26 0 43.5 -16.5 q17.5 -16.5 17.5 -42.5 q0 -25 -17.5 -41.5 q-17.5 -16.5 -43.5 -16.5 l-325 0 q-26 0 -43.5 17.5 q-17.5 17.5 -17.5 43.5 l0 578 q0 26 18 43.5 q18 17.5 46 17.5 q25 0 43 -17.5 q18 -17.5 18 -43.5 l0 -522 l261 0 Z" /><glyph glyph-name="Lcaron" unicode="&#x13d;" d="M461 120 q26 0 43.5 -17.5 q17.5 -17.5 17.5 -43.5 q0 -25 -17.5 -42 q-17.5 -17 -43.5 -17 l-325 0 q-26 0 -43.5 17.5 q-17.5 17.5 -17.5 43.5 l0 578 q0 26 17.5 43.5 q17.5 17.5 43.5 17.5 q25 0 42 -17.5 q17 -17.5 17 -43.5 l0 -509 q0 -10 10 -10 l256 0 ZM520 577 q0 -23 -17 -58 q-17 -35 -44 -61 q-27 -26 -56 -26 q-22 0 -35 9.5 q-13 9.5 -13 30.5 q0 16 8 22.5 q8 6.5 17.5 9.5 q9.5 3 13.5 5 q28 15 28 40 q0 11 -10.5 19.5 q-10.5 8.5 -27.5 8.5 q-17 0 -28 -7 q-12 5 -18.5 13 q-6.5 8 -6.5 24 q0 20 15 37.5 q15 17.5 37 28 q22 10.5 43 10.5 q44 0 69 -27.5 q25 -27.5 25 -78.5 Z" /><glyph glyph-name="Lslash" unicode="&#x141;" d="M532 120 q26 0 43.5 -17.5 q17.5 -17.5 17.5 -43.5 q0 -25 -17.5 -42 q-17.5 -17 -43.5 -17 l-325 0 q-26 0 -43.5 17.5 q-17.5 17.5 -17.5 43.5 l0 231 l-39 -17 q-12 -5 -21 -5 q-24 0 -37.5 17 q-13.5 17 -13.5 36 q0 14 8.5 25.5 q8.5 11.5 23.5 18.5 l79 35 l0 237 q0 26 17.5 43.5 q17.5 17.5 43.5 17.5 q25 0 42 -17.5 q17 -17.5 17 -43.5 l0 -184 l95 42 q12 5 22 5 q23 0 36.5 -17 q13.5 -17 13.5 -35 q0 -14 -8.5 -26 q-8.5 -12 -23.5 -19 l-135 -60 l0 -225 l266 0 Z" /><glyph glyph-name="M" unicode="m" d="M682 701 q25 0 43.5 -17.5 q18.5 -17.5 18.5 -43.5 l0 -579 q0 -26 -17 -43.5 q-17 -17.5 -45 -17.5 q-28 0 -45.5 17 q-17.5 17 -17.5 44 l0 403 l-165 -252 q-10 -12 -23 -19.5 q-13 -7.5 -27 -6.5 q-13 -1 -26 6.5 q-13 7.5 -23 19.5 l-165 261 l0 -412 q0 -27 -16 -44 q-16 -17 -42 -17 q-25 0 -41 17.5 q-16 17.5 -16 43.5 l0 579 q0 25 18.5 43 q18.5 18 44.5 18 q15 0 30 -7.5 q15 -7.5 23 -19.5 l218 -335 l224 335 q8 12 21.5 19.5 q13.5 7.5 27.5 7.5 Z" /><glyph glyph-name="N" unicode="n" d="M606 700 q24 0 39 -16 q15 -16 15 -40 l0 -583 q0 -26 -17.5 -43.5 q-17.5 -17.5 -43.5 -17.5 q-14 0 -27.5 4.5 q-13.5 4.5 -19.5 12.5 l-367 466 l0 -427 q0 -24 -15.5 -40 q-15.5 -16 -40.5 -16 q-24 0 -39 16 q-15 16 -15 40 l0 583 q0 26 17.5 43.5 q17.5 17.5 43.5 17.5 q15 0 29.5 -6 q14.5 -6 21.5 -16 l364 -464 l0 430 q0 24 15.5 40 q15.5 16 39.5 16 Z" /><glyph glyph-name="Eng" unicode="&#x14a;" d="M621 700 q25 0 42 -17.5 q17 -17.5 17 -43.5 l0 -653 q0 -97 -50 -141.5 q-50 -44.5 -124 -44.5 q-29 0 -48 14 q-19 14 -19 38 q0 24 16.5 40.5 q16.5 16.5 41.5 17.5 q32 1 47.5 17.5 q15.5 16.5 15.5 53.5 l0 54 l-365 445 l0 -419 q0 -26 -17.5 -43.5 q-17.5 -17.5 -43.5 -17.5 q-25 0 -42 17.5 q-17 17.5 -17 43.5 l0 578 q0 26 17.5 43.5 q17.5 17.5 43.5 17.5 q30 0 50 -26 l374 -457 l0 422 q0 26 17.5 43.5 q17.5 17.5 43.5 17.5 Z" /><glyph glyph-name="uni019D" unicode="&#x19d;" d="M604 700 q24 0 40 -16 q16 -16 16 -40 l0 -583 q0 -26 -17.5 -43.5 q-17.5 -17.5 -43.5 -17.5 q-14 0 -27.5 4.5 q-13.5 4.5 -19.5 12.5 l-363 461 l0 -488 q0 -83 -33 -124.5 q-33 -41.5 -68 -52 q-35 -10.5 -58 -10.5 q-24 1 -39.5 17.5 q-15.5 16.5 -15.5 39.5 q0 30 12 44 q12 14 39 22 q32 9 40.5 33 q8.5 24 8.5 66 l0 614 q0 26 17.5 43.5 q17.5 17.5 43.5 17.5 q15 0 29.5 -6 q14.5 -6 21.5 -16 l359 -458 l0 424 q0 24 16.5 40 q16.5 16 41.5 16 Z" /><glyph glyph-name="O" unicode="o" d="M719 350 q0 -99 -44 -181.5 q-44 -82.5 -121.5 -130.5 q-77.5 -48 -174.5 -48 q-97 0 -174.5 48 q-77.5 48 -121 130.5 q-43.5 82.5 -43.5 181.5 q0 99 43.5 181.5 q43.5 82.5 121 130.5 q77.5 48 174.5 48 q97 0 174.5 -48 q77.5 -48 121.5 -130.5 q44 -82.5 44 -181.5 ZM589 350 q0 67 -27 121.5 q-27 54.5 -75 86.5 q-48 32 -108 32 q-61 0 -108.5 -31.5 q-47.5 -31.5 -74 -86.5 q-26.5 -55 -26.5 -122 q0 -67 26.5 -122 q26.5 -55 74 -86.5 q47.5 -31.5 108.5 -31.5 q60 0 108 32 q48 32 75 86.5 q27 54.5 27 121.5 Z" /><glyph glyph-name="Ohorn" unicode="&#x1a0;" d="M587 638 q62 -49 97 -124.5 q35 -75.5 35 -163.5 q0 -99 -44 -181.5 q-44 -82.5 -121.5 -130.5 q-77.5 -48 -174.5 -48 q-97 0 -174.5 48 q-77.5 48 -121 130.5 q-43.5 82.5 -43.5 181.5 q0 99 43.5 181.5 q43.5 82.5 121 130.5 q77.5 48 174.5 48 q48 0 92 -12 q67 7 67 61 q0 20 13.5 36.5 q13.5 16.5 37.5 16.5 q25 0 37 -16.5 q12 -16.5 12 -36.5 q0 -36 -12.5 -67.5 q-12.5 -31.5 -38.5 -53.5 ZM379 110 q60 0 108 32 q48 32 75 86.5 q27 54.5 27 121.5 q0 67 -27 121.5 q-27 54.5 -75 86.5 q-48 32 -108 32 q-61 0 -108.5 -31.5 q-47.5 -31.5 -74 -86.5 q-26.5 -55 -26.5 -122 q0 -67 26.5 -122 q26.5 -55 74 -86.5 q47.5 -31.5 108.5 -31.5 Z" /><glyph glyph-name="uni01EA" unicode="&#x1ea;" d="M462 0 q-75 -29 -75 -78 q0 -17 9 -26.5 q9 -9.5 22 -9.5 q12 0 21 12 q13 18 41 18 q19 0 31.5 -13 q12.5 -13 12.5 -35 q0 -16 -16.5 -34 q-16.5 -18 -43.5 -29.5 q-27 -11.5 -56 -11.5 q-53 0 -86.5 27 q-33.5 27 -33.5 80 q0 53 35 95 q-83 13 -147.5 63 q-64.5 50 -100 126.5 q-35.5 76.5 -35.5 165.5 q0 99 43.5 181.5 q43.5 82.5 121 130.5 q77.5 48 174.5 48 q97 0 174.5 -48 q77.5 -48 121.5 -130.5 q44 -82.5 44 -181.5 q0 -84 -32 -157 q-32 -73 -90.5 -123.5 q-58.5 -50.5 -134.5 -69.5 ZM170 350 q0 -67 26.5 -122 q26.5 -55 74 -86.5 q47.5 -31.5 108.5 -31.5 q60 0 108 32 q48 32 75 86.5 q27 54.5 27 121.5 q0 67 -27 121.5 q-27 54.5 -75 86.5 q-48 32 -108 32 q-61 0 -108.5 -31.5 q-47.5 -31.5 -74 -86.5 q-26.5 -55 -26.5 -122 Z" /><glyph glyph-name="Oslash" unicode="ø" d="M629 599 q43 -49 66.5 -113 q23.5 -64 23.5 -136 q0 -99 -44 -181.5 q-44 -82.5 -121.5 -130.5 q-77.5 -48 -174.5 -48 q-54 0 -103.5 16 q-49.5 16 -90.5 45 l-51 -62 q-15 -20 -39 -20 q-19 0 -35 15 q-16 15 -16 35 q0 18 12 33 l57 70 q-35 47 -54 105.5 q-19 58.5 -19 122.5 q0 99 43.5 181.5 q43.5 82.5 121 130.5 q77.5 48 174.5 48 q95 0 173 -47 l54 67 q16 19 39 19 q20 0 35.5 -14.5 q15.5 -14.5 15.5 -34.5 q0 -18 -12 -33 l-55 -68 ZM170 350 q0 -67 27 -124 l276 340 q-40 24 -94 24 q-61 0 -108.5 -31.5 q-47.5 -31.5 -74 -86.5 q-26.5 -55 -26.5 -122 ZM379 110 q60 0 108 32 q48 32 75 86.5 q27 54.5 27 121.5 q0 84 -42 148 l-285 -351 q53 -37 117 -37 Z" /><glyph glyph-name="OE" unicode="&#x152;" d="M866 120 q26 0 43.5 -17.5 q17.5 -17.5 17.5 -43.5 q0 -25 -17.5 -42 q-17.5 -17 -43.5 -17 l-526 0 q-94 0 -161.5 46.5 q-67.5 46.5 -103 126 q-35.5 79.5 -35.5 177.5 q0 98 35.5 177.5 q35.5 79.5 103 126 q67.5 46.5 161.5 46.5 l526 0 q26 0 43.5 -17.5 q17.5 -17.5 17.5 -43.5 q0 -25 -17.5 -42 q-17.5 -17 -43.5 -17 l-266 0 l0 -176 l221 0 q26 0 43.5 -17.5 q17.5 -17.5 17.5 -43.5 q0 -25 -17.5 -42 q-17.5 -17 -43.5 -17 l-221 0 l0 -164 l266 0 ZM160 350 q0 -102 45 -166 q45 -64 135 -64 l140 0 l0 460 l-140 0 q-90 0 -135 -64.5 q-45 -64.5 -45 -165.5 Z" /><glyph glyph-name="P" unicode="p" d="M364 700 q51 0 97 -30.5 q46 -30.5 74 -82 q28 -51.5 28 -112.5 q0 -60 -28 -112 q-28 -52 -74 -82.5 q-46 -30.5 -97 -30.5 l-174 0 l0 -189 q0 -27 -16 -44 q-16 -17 -42 -17 q-25 0 -41 17.5 q-16 17.5 -16 43.5 l0 578 q0 26 17.5 43.5 q17.5 17.5 43.5 17.5 l228 0 ZM364 364 q19 0 37.5 16 q18.5 16 30 41.5 q11.5 25.5 11.5 53.5 q0 28 -11.5 53.5 q-11.5 25.5 -30 41 q-18.5 15.5 -37.5 15.5 l-174 0 l0 -221 l174 0 Z" /><glyph glyph-name="Thorn" unicode="þ" d="M364 610 q51 0 97 -30.5 q46 -30.5 74 -82 q28 -51.5 28 -112.5 q0 -60 -28 -112 q-28 -52 -74 -82.5 q-46 -30.5 -97 -30.5 l-169 0 l0 -99 q0 -26 -17.5 -43.5 q-17.5 -17.5 -43.5 -17.5 q-26 0 -42.5 17.5 q-16.5 17.5 -16.5 43.5 l0 618 q0 26 17.5 43.5 q17.5 17.5 43.5 17.5 q26 0 42.5 -17.5 q16.5 -17.5 16.5 -43.5 l0 -69 l169 0 ZM364 280 q19 0 37.5 14.5 q18.5 14.5 30 38.5 q11.5 24 11.5 52 q0 28 -11.5 52 q-11.5 24 -30 38.5 q-18.5 14.5 -37.5 14.5 l-169 0 l0 -210 l169 0 Z" /><glyph glyph-name="Q" unicode="q" d="M723 -28 q21 0 39 -18 q18 -18 18 -40 q0 -29 -33.5 -55.5 q-33.5 -26.5 -82 -42.5 q-48.5 -16 -86.5 -16 q-64 0 -101.5 12.5 q-37.5 12.5 -75.5 34.5 q-25 15 -41 21.5 q-16 6.5 -38 6.5 q-12 0 -20 -3 q-8 -3 -21 -9 q-13 -7 -24 -10.5 q-11 -3.5 -28 -3.5 q-24 0 -41.5 18.5 q-17.5 18.5 -17.5 41.5 q0 39 35 52 l99 37 q-78 17 -138 67.5 q-60 50.5 -93 124.5 q-33 74 -33 160 q0 99 43.5 181.5 q43.5 82.5 121 130.5 q77.5 48 174.5 48 q97 0 174.5 -48 q77.5 -48 121.5 -130.5 q44 -82.5 44 -181.5 q0 -86 -33.5 -160 q-33.5 -74 -94 -124.5 q-60.5 -50.5 -138.5 -67.5 l-61 -23 q23 -3 42.5 -11 q19.5 -8 44.5 -22 q31 -17 54 -25 q23 -8 52 -8 q25 0 43 7.5 q18 7.5 35 21.5 q6 5 18 14.5 q12 9.5 22 14.5 q10 5 20 5 ZM170 350 q0 -67 26.5 -122 q26.5 -55 74 -86.5 q47.5 -31.5 108.5 -31.5 q60 0 108 32 q48 32 75 86.5 q27 54.5 27 121.5 q0 67 -27 121.5 q-27 54.5 -75 86.5 q-48 32 -108 32 q-61 0 -108.5 -31.5 q-47.5 -31.5 -74 -86.5 q-26.5 -55 -26.5 -122 Z" /><glyph glyph-name="R" unicode="r" d="M624 98 q13 -8 20.5 -21 q7.5 -13 7.5 -27 q0 -18 -12 -33 q-15 -18 -46 -18 q-24 0 -44 11 q-72 41 -72 167 q0 36 -23.5 57 q-23.5 21 -67.5 21 l-187 0 l0 -194 q0 -27 -14.5 -44 q-14.5 -17 -38.5 -17 q-29 0 -50.5 17.5 q-21.5 17.5 -21.5 43.5 l0 578 q0 26 17.5 43.5 q17.5 17.5 43.5 17.5 l288 0 q52 0 98 -28 q46 -28 73.5 -77 q27.5 -49 27.5 -110 q0 -50 -27 -97.5 q-27 -47.5 -70 -75.5 q63 -44 69 -118 q3 -16 3 -31 q4 -31 8 -44.5 q4 -13.5 18 -20.5 ZM419 358 q18 0 35 17 q17 17 28 45.5 q11 28.5 11 61.5 q0 28 -11 51.5 q-11 23.5 -28 37.5 q-17 14 -35 14 l-219 0 l0 -227 l219 0 Z" /><glyph glyph-name="S" unicode="s" d="M300 -10 q-72 0 -128 18 q-56 18 -105 61 q-27 24 -27 53 q0 23 17 40.5 q17 17.5 41 17.5 q19 0 34 -12 q40 -33 78 -48 q38 -15 90 -15 q56 0 96.5 25 q40.5 25 40.5 62 q0 45 -40 70.5 q-40 25.5 -127 38.5 q-219 32 -219 204 q0 63 33 109.5 q33 46.5 90 71 q57 24.5 127 24.5 q63 0 118.5 -19 q55.5 -19 92.5 -50 q29 -23 29 -53 q0 -23 -17 -40.5 q-17 -17.5 -40 -17.5 q-15 0 -27 9 q-26 21 -72.5 38.5 q-46.5 17.5 -83.5 17.5 q-63 0 -97.5 -23.5 q-34.5 -23.5 -34.5 -61.5 q0 -43 35.5 -65 q35.5 -22 111.5 -36 q86 -15 137.5 -38.5 q51.5 -23.5 77.5 -64 q26 -40.5 26 -107.5 q0 -63 -35.5 -110.5 q-35.5 -47.5 -94.5 -73 q-59 -25.5 -127 -25.5 Z" /><glyph glyph-name="Scedilla" unicode="&#x15e;" d="M557 199 q0 -59 -31.5 -104.5 q-31.5 -45.5 -84 -72 q-52.5 -26.5 -115.5 -31.5 l-41 -110 q-12 -32 -41 -32 q-19 0 -42 13 q-23 13 -23 33 q0 15 12 30 l51 68 q-51 6 -93.5 24 q-42.5 18 -81.5 52 q-27 24 -27 53 q0 23 17 40.5 q17 17.5 41 17.5 q19 0 34 -12 q40 -33 78 -48 q38 -15 90 -15 q56 0 96.5 25 q40.5 25 40.5 62 q0 45 -40 70.5 q-40 25.5 -127 38.5 q-219 32 -219 204 q0 63 33 109.5 q33 46.5 90 71 q57 24.5 127 24.5 q63 0 118.5 -19 q55.5 -19 92.5 -50 q29 -23 29 -53 q0 -23 -17 -40.5 q-17 -17.5 -40 -17.5 q-15 0 -27 9 q-26 21 -72.5 38.5 q-46.5 17.5 -83.5 17.5 q-63 0 -97.5 -23.5 q-34.5 -23.5 -34.5 -61.5 q0 -43 35.5 -65 q35.5 -22 111.5 -36 q86 -15 137.5 -38.5 q51.5 -23.5 77.5 -64 q26 -40.5 26 -107.5 Z" /><glyph glyph-name="uni1E9E" unicode="&#x1e9e;" d="M535 393 q53 -19 87 -38 q34 -19 59 -58.5 q25 -39.5 25 -104.5 q0 -54 -33 -100.5 q-33 -46.5 -86 -74 q-53 -27.5 -111 -27.5 q-57 0 -117 23 q-60 23 -91 62 q-5 7 -10.5 21.5 q-5.5 14.5 -5.5 31.5 q0 25 15 45 q15 20 40 20 q10 0 21.5 -4.5 q11.5 -4.5 19.5 -12.5 q26 -27 61 -46.5 q35 -19.5 67 -19.5 q49 0 74.5 16.5 q25.5 16.5 25.5 46.5 q0 34 -25.5 52.5 q-25.5 18.5 -79.5 39.5 q-27 10 -34 13 q-61 25 -96.5 63 q-35.5 38 -35.5 105 q0 70 35.5 114 q35.5 44 91.5 64 l-35 0 q-50 1 -93.5 -19.5 q-43.5 -20.5 -70 -62.5 q-26.5 -42 -26.5 -103 l-2 -378 q0 -26 -19 -43.5 q-19 -17.5 -47 -17.5 q-28 0 -46 17.5 q-18 17.5 -18 43.5 l2 345 q0 89 37.5 162 q37.5 73 107 115.5 q69.5 42.5 162.5 42.5 q116 0 199 -34 q63 -25 63 -75 q0 -23 -15 -31 q-15 -8 -49 -15 q-24 -5 -32 -7 q-7 -2 -43 -11 q-36 -9 -52.5 -26.5 q-16.5 -17.5 -16.5 -44.5 q0 -31 25.5 -52 q25.5 -21 71.5 -37 Z" /><glyph glyph-name="uni018F" unicode="&#x18f;" d="M385 710 q95 0 175.5 -48.5 q80.5 -48.5 128 -131 q47.5 -82.5 47.5 -180.5 q0 -98 -47 -180.5 q-47 -82.5 -127 -131 q-80 -48.5 -174 -48.5 q-86 0 -163.5 38.5 q-77.5 38.5 -128 110 q-50.5 71.5 -56.5 166.5 l0 25 q0 35 22 54.5 q22 19.5 53 19.5 l491 0 q-13 96 -72.5 141 q-59.5 45 -148.5 45 q-52 0 -97.5 -13 q-45.5 -13 -85.5 -45 q-20 -15 -41 -15 q-24 0 -41 16 q-22 19 -22 45 q0 25 21 43 q56 49 119 69 q63 20 147 20 ZM388 110 q80 0 138 45.5 q58 45.5 76 128.5 l-433 0 q20 -76 81 -125 q61 -49 138 -49 Z" /><glyph glyph-name="T" unicode="t" d="M535 700 q27 0 44 -16 q17 -16 17 -42 q0 -26 -17 -41.5 q-17 -15.5 -44 -15.5 l-157 0 l0 -524 q0 -26 -19 -43.5 q-19 -17.5 -47 -17.5 q-28 0 -46 17.5 q-18 17.5 -18 43.5 l0 524 l-157 0 q-27 0 -44 16 q-17 16 -17 42 q0 25 17.5 41 q17.5 16 43.5 16 l444 0 Z" /><glyph glyph-name="Tbar" unicode="&#x166;" d="M535 700 q27 0 44 -16 q17 -16 17 -42 q0 -26 -17 -41.5 q-17 -15.5 -44 -15.5 l-157 0 l0 -178 l32 0 q26 0 43.5 -15.5 q17.5 -15.5 17.5 -38.5 q0 -25 -17.5 -40.5 q-17.5 -15.5 -43.5 -15.5 l-32 0 l0 -236 q0 -26 -19 -43.5 q-19 -17.5 -47 -17.5 q-28 0 -46 17.5 q-18 17.5 -18 43.5 l0 236 l-12 0 q-26 0 -43.5 15.5 q-17.5 15.5 -17.5 40.5 q0 23 17.5 38.5 q17.5 15.5 43.5 15.5 l12 0 l0 178 l-157 0 q-27 0 -44 16 q-17 16 -17 42 q0 25 17.5 41 q17.5 16 43.5 16 l444 0 Z" /><glyph glyph-name="uni0162" unicode="&#x162;" d="M535 700 q27 0 44 -16 q17 -16 17 -42 q0 -26 -17 -41.5 q-17 -15.5 -44 -15.5 l-157 0 l0 -524 q0 -17 -9 -31 q-9 -14 -23 -22 l-47 -127 q-12 -32 -41 -32 q-19 0 -42 13 q-23 13 -23 33 q0 15 12 30 l66 88 q-23 18 -23 48 l0 524 l-157 0 q-27 0 -44 16 q-17 16 -17 42 q0 25 17.5 41 q17.5 16 43.5 16 l444 0 Z" /><glyph glyph-name="U" unicode="u" d="M572 701 q26 0 42 -17 q16 -17 16 -44 l0 -362 q0 -83 -35 -147 q-35 -64 -98 -100 q-63 -36 -144 -36 q-81 0 -144.5 36 q-63.5 36 -98.5 100 q-35 64 -35 147 l0 362 q0 26 18 43.5 q18 17.5 46 17.5 q24 0 42 -17.5 q18 -17.5 18 -43.5 l0 -362 q0 -48 21 -85.5 q21 -37.5 56.5 -57.5 q35.5 -20 76.5 -20 q43 0 80.5 20 q37.5 20 60 57.5 q22.5 37.5 22.5 85.5 l0 362 q0 27 15 44 q15 17 41 17 Z" /><glyph glyph-name="Uhorn" unicode="&#x1af;" d="M745 762 q0 -55 -28.5 -96 q-28.5 -41 -86.5 -57 l0 -331 q0 -83 -35 -147 q-35 -64 -98 -100 q-63 -36 -144 -36 q-81 0 -144.5 36 q-63.5 36 -98.5 100 q-35 64 -35 147 l0 362 q0 26 18 43.5 q18 17.5 46 17.5 q24 0 42 -17.5 q18 -17.5 18 -43.5 l0 -362 q0 -48 21 -85.5 q21 -37.5 56.5 -57.5 q35.5 -20 76.5 -20 q43 0 80.5 20 q37.5 20 60 57.5 q22.5 37.5 22.5 85.5 l0 362 q0 24 11.5 40 q11.5 16 32.5 20 l1 0 q3 1 11 1 l5 0 q68 6 68 61 q0 20 13.5 36.5 q13.5 16.5 37.5 16.5 q25 0 37 -16.5 q12 -16.5 12 -36.5 Z" /><glyph glyph-name="Uogonek" unicode="&#x172;" d="M520 44 q-49 -32 -74.5 -64 q-25.5 -32 -25.5 -58 q0 -17 9 -26.5 q9 -9.5 22 -9.5 q12 0 21 12 q13 18 41 18 q19 0 31.5 -13 q12.5 -13 12.5 -35 q0 -16 -16.5 -34 q-16.5 -18 -43.5 -29.5 q-27 -11.5 -56 -11.5 q-53 0 -86.5 27 q-33.5 27 -33.5 80 q0 51 31 95 q-81 0 -144 36 q-63 36 -98 100 q-35 64 -35 147 l0 362 q0 26 18 43.5 q18 17.5 46 17.5 q27 0 43.5 -17 q16.5 -17 16.5 -44 l0 -362 q0 -48 21 -85.5 q21 -37.5 56.5 -57.5 q35.5 -20 76.5 -20 q43 0 80.5 20 q37.5 20 60 57.5 q22.5 37.5 22.5 85.5 l0 362 q0 26 17 43.5 q17 17.5 39 17.5 q26 0 42 -17 q16 -17 16 -44 l0 -362 q0 -67 -27 -132 q-27 -65 -83 -102 Z" /><glyph glyph-name="V" unicode="v" d="M586 702 q25 0 43.5 -17 q18.5 -17 18.5 -41 q0 -13 -6 -27 l-247 -578 q-9 -19 -25 -29 q-16 -10 -34 -10 q-17 1 -31.5 10.5 q-14.5 9.5 -22.5 27.5 l-247 580 q-5 10 -5 25 q0 27 20 43.5 q20 16.5 41 16.5 q17 0 32 -10 q15 -10 23 -29 l201 -473 l184 473 q8 18 23 28 q15 10 32 10 Z" /><glyph glyph-name="W" unicode="w" d="M862 703 q24 0 44.5 -18.5 q20.5 -18.5 20.5 -46.5 q0 -9 -3 -20 l-197 -580 q-6 -17 -21 -27 q-15 -10 -33 -11 q-18 0 -34 10 q-16 10 -25 29 l-142 323 l-143 -323 q-9 -19 -25 -29 q-16 -10 -34 -10 q-18 1 -33 11 q-15 10 -21 27 l-197 580 q-3 11 -3 20 q0 28 20.5 46.5 q20.5 18.5 45.5 18.5 q20 0 36 -10.5 q16 -10.5 22 -28.5 l149 -452 l130 312 q8 18 23 28.5 q15 10.5 34 9.5 q19 1 33.5 -9.5 q14.5 -10.5 22.5 -28.5 l123 -309 l148 449 q6 18 22.5 28.5 q16.5 10.5 36.5 10.5 Z" /><glyph glyph-name="X" unicode="x" d="M597 92 q12 -16 12 -37 q0 -26 -19 -43 q-19 -17 -41 -17 q-29 0 -49 26 l-178 237 l-173 -235 q-20 -28 -50 -28 q-22 0 -38 16 q-16 16 -16 37 q0 22 15 41 l193 261 l-193 256 q-13 16 -13 36 q0 25 19 43 q19 18 42 18 q29 0 49 -26 l176 -234 l172 229 q10 14 23 21.5 q13 7.5 26 7.5 q22 0 39 -17.5 q17 -17.5 17 -38.5 q0 -19 -13 -36 l-195 -257 l195 -260 Z" /><glyph glyph-name="Y" unicode="y" d="M581 641 q0 -20 -11 -37 l-209 -299 l0 -244 q0 -26 -17 -43.5 q-17 -17.5 -41 -17.5 q-25 0 -42.5 17.5 q-17.5 17.5 -17.5 43.5 l0 258 l-208 276 q-18 24 -18 47 q0 26 20.5 43.5 q20.5 17.5 43.5 17.5 q28 0 49 -28 l176 -243 l165 241 q21 30 50 30 q24 0 42 -18 q18 -18 18 -44 Z" /><glyph glyph-name="Z" unicode="z" d="M613 641 q0 -19 -14 -38 l-380 -488 l319 0 q27 0 44 -15.5 q17 -15.5 17 -41.5 q0 -25 -17.5 -41.5 q-17.5 -16.5 -43.5 -16.5 l-439 0 q-26 0 -45 18 q-19 18 -19 41 q0 19 14 38 l379 488 l-289 0 q-27 0 -44 16 q-17 16 -17 42 q0 25 17.5 41 q17.5 16 43.5 16 l409 0 q24 0 44.5 -17 q20.5 -17 20.5 -42 Z" /><glyph glyph-name="a" unicode="a" d="M498 545 q26 0 43 -17 q17 -17 17 -44 l0 -423 q0 -26 -17 -43.5 q-17 -17.5 -43 -17.5 q-26 0 -42.5 17 q-16.5 17 -17.5 43 q-25 -29 -67.5 -49.5 q-42.5 -20.5 -89.5 -20.5 q-69 0 -125 35.5 q-56 35.5 -88.5 98.5 q-32.5 63 -32.5 143 q0 80 32 143.5 q32 63.5 87.5 99 q55.5 35.5 122.5 35.5 q48 0 90 -17.5 q42 -17.5 71 -44.5 l0 1 q0 26 17 43.5 q17 17.5 43 17.5 ZM296 100 q65 0 106 47.5 q41 47.5 41 119.5 q0 72 -41 120 q-41 48 -106 48 q-64 0 -105 -48 q-41 -48 -41 -120 q0 -72 40.5 -119.5 q40.5 -47.5 105.5 -47.5 Z" /><glyph glyph-name="aogonek" unicode="&#x105;" d="M518 -94 q19 0 31.5 -13 q12.5 -13 12.5 -35 q0 -16 -16.5 -34 q-16.5 -18 -43.5 -29.5 q-27 -11.5 -56 -11.5 q-53 0 -86.5 27 q-33.5 27 -33.5 80 q0 53 30.5 86 q30.5 33 81.5 54 l0 29 q-25 -28 -67.5 -48.5 q-42.5 -20.5 -89.5 -20.5 q-69 0 -125 35.5 q-56 35.5 -88.5 98.5 q-32.5 63 -32.5 143 q0 80 32 143.5 q32 63.5 87.5 99 q55.5 35.5 122.5 35.5 q48 0 90 -17.5 q42 -17.5 71 -44.5 l0 1 q0 26 17 43.5 q17 17.5 43 17.5 q26 0 43 -17 q17 -17 17 -44 l0 -459 q0 -12 -6.5 -22.5 q-6.5 -10.5 -20.5 -14.5 q-48 -14 -77 -33 q-29 -19 -29 -43 q0 -17 9 -26.5 q9 -9.5 22 -9.5 q12 0 21 12 q14 18 41 18 ZM296 100 q65 0 106 47.5 q41 47.5 41 119.5 q0 72 -41 120 q-41 48 -106 48 q-64 0 -105 -48 q-41 -48 -41 -120 q0 -72 40.5 -119.5 q40.5 -47.5 105.5 -47.5 Z" /><glyph glyph-name="ae" unicode="æ" d="M881 280 q-1 -24 -19 -39 q-18 -15 -42 -15 l-330 0 q12 -59 55 -92.5 q43 -33.5 97 -33.5 q41 0 64 7.5 q23 7.5 36.5 16 q13.5 8.5 18.5 11.5 q18 9 34 9 q21 0 36 -15 q15 -15 15 -35 q0 -27 -28 -49 q-28 -23 -75 -39 q-47 -16 -95 -16 q-71 0 -127.5 25.5 q-56.5 25.5 -93.5 72.5 q-31 -38 -83.5 -68 q-52.5 -30 -115.5 -30 q-48 0 -91.5 18 q-43.5 18 -71 55 q-27.5 37 -27.5 91 q0 172 215 172 l118 0 l0 25 q0 84 -107 84 q-48 0 -76 -16.5 q-28 -16.5 -57 -50.5 q-19 -21 -45 -21 q-20 0 -35.5 13.5 q-15.5 13.5 -15.5 34.5 q0 23 14 41 q88 109 218 109 q58 0 109.5 -16.5 q51.5 -16.5 80.5 -52.5 q35 34 79 51.5 q44 17.5 92 17.5 q66 0 124.5 -36 q58.5 -36 93.5 -97 q35 -61 35 -132 ZM628 435 q-116 0 -137 -109 l262 0 l0 7 q-4 42 -41 72 q-37 30 -84 30 ZM382 179 q-6 22 -9 47 l-132 0 q-48 0 -65.5 -20 q-17.5 -20 -17.5 -50 q0 -29 21.5 -43.5 q21.5 -14.5 52.5 -14.5 q59 0 95.5 24 q36.5 24 54.5 57 Z" /><glyph glyph-name="b" unicode="b" d="M342 545 q69 0 125 -35.5 q56 -35.5 88.5 -98.5 q32.5 -63 32.5 -143 q0 -80 -32 -143.5 q-32 -63.5 -87.5 -99 q-55.5 -35.5 -122.5 -35.5 q-48 0 -90.5 19.5 q-42.5 19.5 -70.5 47.5 l0 -6 q0 -26 -17 -43.5 q-17 -17.5 -43 -17.5 q-26 0 -43 17 q-17 17 -17 44 l0 628 q0 26 17 43.5 q17 17.5 43 17.5 q26 0 43 -17.5 q17 -17.5 17 -43.5 l0 -209 q24 30 67 52.5 q43 22.5 90 22.5 ZM327 100 q64 0 105 48 q41 48 41 120 q0 72 -40.5 119.5 q-40.5 47.5 -105.5 47.5 q-65 0 -106 -47.5 q-41 -47.5 -41 -119.5 q0 -72 41 -120 q41 -48 106 -48 Z" /><glyph glyph-name="c" unicode="c" d="M298 545 q85 0 137 -26.5 q52 -26.5 52 -70.5 q0 -22 -13 -38.5 q-13 -16.5 -34 -16.5 q-16 0 -26 4.5 q-10 4.5 -19.5 12 q-9.5 7.5 -18.5 12.5 q-10 5 -29.5 9 q-19.5 4 -31.5 4 q-75 0 -117.5 -46.5 q-42.5 -46.5 -42.5 -121.5 q0 -72 43 -119.5 q43 -47.5 110 -47.5 q49 0 73 12 q6 3 16.5 10.5 q10.5 7.5 19.5 11.5 q9 4 22 4 q25 0 39.5 -16 q14.5 -16 14.5 -41 q0 -24 -28 -45 q-28 -21 -74 -33.5 q-46 -12.5 -98 -12.5 q-77 0 -135.5 36 q-58.5 36 -90.5 99.5 q-32 63.5 -32 141.5 q0 81 33.5 144 q33.5 63 93.5 98.5 q60 35.5 136 35.5 Z" /><glyph glyph-name="ccedilla" unicode="ç" d="M493 81 q0 -33 -49.5 -59 q-49.5 -26 -119.5 -31 l-41 -110 q-12 -32 -41 -32 q-19 0 -42 13 q-23 13 -23 33 q0 15 12 30 l52 70 q-95 17 -150.5 91.5 q-55.5 74.5 -55.5 180.5 q0 81 33.5 144 q33.5 63 93.5 98.5 q60 35.5 136 35.5 q85 0 137 -26.5 q52 -26.5 52 -70.5 q0 -22 -13 -38.5 q-13 -16.5 -34 -16.5 q-16 0 -26 4.5 q-10 4.5 -19.5 12 q-9.5 7.5 -18.5 12.5 q-10 5 -29.5 9 q-19.5 4 -31.5 4 q-75 0 -117.5 -46.5 q-42.5 -46.5 -42.5 -121.5 q0 -72 43 -119.5 q43 -47.5 110 -47.5 q49 0 73 12 q6 3 16.5 10.5 q10.5 7.5 19.5 11.5 q9 4 22 4 q25 0 39.5 -16 q14.5 -16 14.5 -41 Z" /><glyph glyph-name="uni1E09" unicode="&#x1e09;" d="M303 569 q-10 0 -21.5 9 q-11.5 9 -10.5 24 q0 9 6 19 l58 102 q10 18 24 29 q14 11 31 11 q27 0 40.5 -14 q13.5 -14 12.5 -36 q-2 -23 -19 -43 l-76 -84 q-16 -17 -45 -17 ZM493 81 q0 -33 -49.5 -59 q-49.5 -26 -119.5 -31 l-41 -110 q-12 -32 -41 -32 q-19 0 -42 13 q-23 13 -23 33 q0 15 12 30 l52 70 q-95 17 -150.5 91.5 q-55.5 74.5 -55.5 180.5 q0 81 33.5 144 q33.5 63 93.5 98.5 q60 35.5 136 35.5 q85 0 137 -26.5 q52 -26.5 52 -70.5 q0 -22 -13 -38.5 q-13 -16.5 -34 -16.5 q-16 0 -26 4.5 q-10 4.5 -19.5 12 q-9.5 7.5 -18.5 12.5 q-10 5 -29.5 9 q-19.5 4 -31.5 4 q-75 0 -117.5 -46.5 q-42.5 -46.5 -42.5 -121.5 q0 -72 43 -119.5 q43 -47.5 110 -47.5 q49 0 73 12 q6 3 16.5 10.5 q10.5 7.5 19.5 11.5 q9 4 22 4 q25 0 39.5 -16 q14.5 -16 14.5 -41 Z" /><glyph glyph-name="d" unicode="d" d="M498 740 q26 0 43 -17 q17 -17 17 -44 l0 -618 q0 -26 -17 -43.5 q-17 -17.5 -43 -17.5 q-26 0 -42.5 17 q-16.5 17 -17.5 43 q-25 -29 -67.5 -49.5 q-42.5 -20.5 -89.5 -20.5 q-69 0 -125 35.5 q-56 35.5 -88.5 98.5 q-32.5 63 -32.5 143 q0 80 32 143.5 q32 63.5 87.5 99 q55.5 35.5 122.5 35.5 q48 0 90 -17.5 q42 -17.5 71 -44.5 l0 196 q0 26 17 43.5 q17 17.5 43 17.5 ZM296 100 q65 0 106 47.5 q41 47.5 41 119.5 q0 72 -41 120 q-41 48 -106 48 q-64 0 -105 -48 q-41 -48 -41 -120 q0 -72 40.5 -119.5 q40.5 -47.5 105.5 -47.5 Z" /><glyph glyph-name="eth" unicode="ð" d="M453 591 q44 -62 66 -141.5 q22 -79.5 22 -169.5 q0 -89 -33.5 -155 q-33.5 -66 -91 -100.5 q-57.5 -34.5 -128.5 -34.5 q-70 0 -128 36 q-58 36 -91.5 98.5 q-33.5 62.5 -33.5 137.5 q0 74 34.5 136.5 q34.5 62.5 89.5 99 q55 36.5 113 36.5 q64 0 111 -36 q-14 37 -42 63 l-165 -33 q-12 -2 -19 -2 q-19 0 -30.5 10 q-11.5 10 -11.5 31 q0 31 41 39 l68 14 l-3 1 q-24 6 -38.5 22.5 q-14.5 16.5 -14.5 38.5 q0 22 13.5 40 q13.5 18 38.5 18 q15 0 31 -4 q80 -24 138 -74 l59 9 q5 1 15 1 q38 0 45 -30 q1 -3 1 -10 q0 -32 -41 -39 l-15 -2 ZM288 110 q37 0 67.5 20 q30.5 20 48 54.5 q17.5 34.5 17.5 77.5 q0 43 -17.5 77.5 q-17.5 34.5 -48 54.5 q-30.5 20 -67.5 20 q-37 0 -67.5 -20 q-30.5 -20 -48 -54.5 q-17.5 -34.5 -17.5 -77.5 q0 -43 17.5 -77.5 q17.5 -34.5 48 -54.5 q30.5 -20 67.5 -20 Z" /><glyph glyph-name="dcroat" unicode="&#x111;" d="M572 671 q26 0 43.5 -15.5 q17.5 -15.5 17.5 -38.5 q0 -25 -17.5 -40.5 q-17.5 -15.5 -43.5 -15.5 l-14 0 l0 -500 q0 -26 -17 -43.5 q-17 -17.5 -43 -17.5 q-26 0 -42.5 17 q-16.5 17 -17.5 43 q-25 -29 -67.5 -49.5 q-42.5 -20.5 -89.5 -20.5 q-69 0 -125 35.5 q-56 35.5 -88.5 98.5 q-32.5 63 -32.5 143 q0 80 32 143.5 q32 63.5 87.5 99 q55.5 35.5 122.5 35.5 q48 0 90 -17.5 q42 -17.5 71 -44.5 l0 78 l-40 0 q-26 0 -43.5 15.5 q-17.5 15.5 -17.5 40.5 q0 23 17.5 38.5 q17.5 15.5 43.5 15.5 l40 0 l0 8 q0 26 17 43.5 q17 17.5 43 17.5 q26 0 43 -17 q17 -17 17 -44 l0 -8 l14 0 ZM296 100 q65 0 106 47.5 q41 47.5 41 119.5 q0 72 -41 120 q-41 48 -106 48 q-64 0 -105 -48 q-41 -48 -41 -120 q0 -72 40.5 -119.5 q40.5 -47.5 105.5 -47.5 Z" /><glyph glyph-name="e" unicode="e" d="M545 280 q-1 -24 -19 -39 q-18 -15 -42 -15 l-330 0 q12 -59 55 -92.5 q43 -33.5 97 -33.5 q41 0 64 7.5 q23 7.5 36.5 16 q13.5 8.5 18.5 11.5 q18 9 34 9 q21 0 36 -15 q15 -15 15 -35 q0 -27 -28 -49 q-28 -23 -75 -39 q-47 -16 -95 -16 q-84 0 -146.5 35 q-62.5 35 -96.5 96.5 q-34 61.5 -34 138.5 q0 86 36 151 q36 65 95 99.5 q59 34.5 126 34.5 q66 0 124.5 -36 q58.5 -36 93.5 -97 q35 -61 35 -132 ZM292 435 q-116 0 -137 -109 l262 0 l0 7 q-4 42 -41 72 q-37 30 -84 30 Z" /><glyph glyph-name="uni1E1D" unicode="&#x1e1d;" d="M288 571 q-57 0 -98.5 24 q-41.5 24 -59.5 69 q-5 13 -5 22 q0 15 9.5 24 q9.5 9 24.5 9 q20 0 32.5 -8.5 q12.5 -8.5 27.5 -27.5 q24 -27 69 -27 q45 0 69 27 q15 19 27.5 27.5 q12.5 8.5 32.5 8.5 q15 0 24.5 -8.5 q9.5 -8.5 9.5 -23.5 q0 -10 -4 -21 q-19 -46 -60.5 -70.5 q-41.5 -24.5 -98.5 -24.5 ZM545 280 q-1 -24 -19 -39 q-18 -15 -42 -15 l-330 0 q12 -59 55 -92.5 q43 -33.5 97 -33.5 q41 0 64 7.5 q23 7.5 36.5 16 q13.5 8.5 18.5 11.5 q18 9 34 9 q21 0 36 -15 q15 -15 15 -35 q0 -27 -28 -49 q-21 -17 -54.5 -31 q-33.5 -14 -70.5 -20 l-42 -113 q-12 -32 -41 -32 q-19 0 -42 13 q-23 13 -23 33 q0 15 12 30 l50 67 q-72 8 -125.5 45 q-53.5 37 -82 95 q-28.5 58 -28.5 128 q0 86 36 151 q36 65 95 99.5 q59 34.5 126 34.5 q66 0 124.5 -36 q58.5 -36 93.5 -97 q35 -61 35 -132 ZM292 435 q-116 0 -137 -109 l262 0 l0 7 q-4 42 -41 72 q-37 30 -84 30 Z" /><glyph glyph-name="eogonek" unicode="&#x119;" d="M545 280 q-1 -24 -19 -39 q-18 -15 -42 -15 l-330 0 q12 -59 55 -92.5 q43 -33.5 97 -33.5 q41 0 64 7.5 q23 7.5 36.5 16 q13.5 8.5 18.5 11.5 q18 10 34 10 q24 0 39 -18 q15 -18 15 -37 q0 -27 -29 -46 q-44 -29 -69 -59 q-25 -30 -25 -63 q0 -17 9 -26.5 q9 -9.5 22 -9.5 q12 0 21 12 q13 18 41 18 q19 0 31.5 -13 q12.5 -13 12.5 -35 q0 -16 -16.5 -34 q-16.5 -18 -43.5 -29.5 q-27 -11.5 -56 -11.5 q-53 0 -86.5 27 q-33.5 27 -33.5 80 q0 54 34 90 l-13 0 q-84 0 -146.5 35 q-62.5 35 -96.5 96.5 q-34 61.5 -34 138.5 q0 86 36 151 q36 65 95 99.5 q59 34.5 126 34.5 q66 0 124.5 -36 q58.5 -36 93.5 -97 q35 -61 35 -132 ZM292 435 q-116 0 -137 -109 l262 0 l0 7 q-4 42 -41 72 q-37 30 -84 30 Z" /><glyph glyph-name="uni0259" unicode="&#x259;" d="M268 525 q84 0 146.5 -35 q62.5 -35 96.5 -96.5 q34 -61.5 34 -138.5 q0 -86 -36 -151 q-36 -65 -95 -99.5 q-59 -34.5 -126 -34.5 q-66 0 -124.5 36 q-58.5 36 -93.5 97 q-35 61 -35 132 q1 24 19 39 q18 15 42 15 l330 0 q-12 59 -55 92.5 q-43 33.5 -97 33.5 q-41 0 -64 -7.5 q-23 -7.5 -36.5 -16 q-13.5 -8.5 -18.5 -11.5 q-18 -9 -34 -9 q-21 0 -36 15 q-15 15 -15 35 q0 27 28 49 q28 23 75 39 q47 16 95 16 ZM288 80 q116 0 137 109 l-262 0 l0 -7 q4 -42 41 -72 q37 -30 84 -30 Z" /><glyph glyph-name="f" unicode="f" d="M322 634 q-34 0 -48 -19.5 q-14 -19.5 -14 -42.5 l0 -47 l91 0 q24 0 40 -15.5 q16 -15.5 16 -39.5 q0 -24 -16 -39.5 q-16 -15.5 -40 -15.5 l-91 0 l0 -354 q0 -26 -17 -43.5 q-17 -17.5 -43 -17.5 q-26 0 -43 17.5 q-17 17.5 -17 43.5 l0 354 l-54 0 q-24 0 -40 15.5 q-16 15.5 -16 39.5 q0 24 16 39.5 q16 15.5 40 15.5 l54 0 l0 46 q0 75 51.5 122 q51.5 47 148.5 47 q37 0 64.5 -15 q27.5 -15 27.5 -46 q0 -24 -14 -39 q-14 -15 -34 -15 q-5 0 -10.5 1 q-5.5 1 -11.5 2 q-24 6 -40 6 Z" /><glyph glyph-name="g" unicode="g" d="M508 545 q26 0 43 -17 q17 -17 17 -44 l0 -445 q0 -122 -75.5 -180.5 q-75.5 -58.5 -191.5 -58.5 q-30 0 -82.5 10 q-52.5 10 -74.5 20 q-49 21 -49 58 q0 7 3 16 q6 22 20.5 33.5 q14.5 11.5 31.5 11.5 q10 0 19 -3 q4 -1 49.5 -18.5 q45.5 -17.5 82.5 -17.5 q74 0 110.5 29.5 q36.5 29.5 36.5 83.5 l0 48 q-22 -31 -66.5 -56 q-44.5 -25 -95.5 -25 q-70 0 -127.5 35.5 q-57.5 35.5 -90.5 98.5 q-33 63 -33 143 q0 80 32.5 143.5 q32.5 63.5 89 99 q56.5 35.5 125.5 35.5 q51 0 95 -21 q44 -21 71 -51 l0 11 q0 26 17 43.5 q17 17.5 43 17.5 ZM301 100 q67 0 109.5 47.5 q42.5 47.5 42.5 119.5 q0 72 -42.5 120 q-42.5 48 -109.5 48 q-67 0 -109 -48 q-42 -48 -42 -120 q0 -72 42 -119.5 q42 -47.5 109 -47.5 Z" /><glyph glyph-name="gcommaaccent" unicode="&#x123;" d="M345 584 q-44 0 -69 27.5 q-25 27.5 -25 78.5 q0 23 17 58 q17 35 44 61 q27 26 56 26 q22 0 35 -9.5 q13 -9.5 13 -30.5 q0 -16 -8 -22.5 q-8 -6.5 -17.5 -9.5 q-9.5 -3 -13.5 -5 q-28 -15 -28 -40 q0 -11 10.5 -19.5 q10.5 -8.5 27.5 -8.5 q17 0 28 7 q12 -5 18.5 -13 q6.5 -8 6.5 -24 q0 -20 -15 -37.5 q-15 -17.5 -37 -28 q-22 -10.5 -43 -10.5 ZM508 545 q26 0 43 -17 q17 -17 17 -44 l0 -445 q0 -122 -75.5 -180.5 q-75.5 -58.5 -191.5 -58.5 q-30 0 -82.5 10 q-52.5 10 -74.5 20 q-49 21 -49 58 q0 7 3 16 q6 22 20.5 33.5 q14.5 11.5 31.5 11.5 q10 0 19 -3 q4 -1 49.5 -18.5 q45.5 -17.5 82.5 -17.5 q74 0 110.5 29.5 q36.5 29.5 36.5 83.5 l0 48 q-22 -31 -66.5 -56 q-44.5 -25 -95.5 -25 q-70 0 -127.5 35.5 q-57.5 35.5 -90.5 98.5 q-33 63 -33 143 q0 80 32.5 143.5 q32.5 63.5 89 99 q56.5 35.5 125.5 35.5 q51 0 95 -21 q44 -21 71 -51 l0 11 q0 26 17 43.5 q17 17.5 43 17.5 ZM301 100 q67 0 109.5 47.5 q42.5 47.5 42.5 119.5 q0 72 -42.5 120 q-42.5 48 -109.5 48 q-67 0 -109 -48 q-42 -48 -42 -120 q0 -72 42 -119.5 q42 -47.5 109 -47.5 Z" /><glyph glyph-name="h" unicode="h" d="M346 545 q99 0 137 -60.5 q38 -60.5 38 -167.5 l0 -256 q0 -26 -17 -43.5 q-17 -17.5 -43 -17.5 q-26 0 -43 17.5 q-17 17.5 -17 43.5 l0 256 q0 55 -21.5 86.5 q-21.5 31.5 -75.5 31.5 q-56 0 -87.5 -33.5 q-31.5 -33.5 -31.5 -84.5 l0 -256 q0 -26 -17 -43.5 q-17 -17.5 -43 -17.5 q-26 0 -43 17.5 q-17 17.5 -17 43.5 l0 618 q0 26 17 43.5 q17 17.5 43 17.5 q26 0 43 -17.5 q17 -17.5 17 -43.5 l0 -221 q27 36 68.5 61.5 q41.5 25.5 92.5 25.5 Z" /><glyph glyph-name="hbar" unicode="&#x127;" d="M346 545 q99 0 137 -60.5 q38 -60.5 38 -167.5 l0 -256 q0 -26 -17 -43.5 q-17 -17.5 -43 -17.5 q-26 0 -43 17.5 q-17 17.5 -17 43.5 l0 256 q0 55 -21.5 86.5 q-21.5 31.5 -75.5 31.5 q-56 0 -87.5 -33.5 q-31.5 -33.5 -31.5 -84.5 l0 -256 q0 -26 -17 -43.5 q-17 -17.5 -43 -17.5 q-26 0 -43 17.5 q-17 17.5 -17 43.5 l0 480 l-23 0 q-26 0 -43.5 15.5 q-17.5 15.5 -17.5 40.5 q0 23 17.5 38.5 q17.5 15.5 43.5 15.5 l23 0 l0 28 q0 26 17 43.5 q17 17.5 43 17.5 q26 0 43 -17.5 q17 -17.5 17 -43.5 l0 -28 l31 0 q26 0 43.5 -15.5 q17.5 -15.5 17.5 -38.5 q0 -25 -17.5 -40.5 q-17.5 -15.5 -43.5 -15.5 l-31 0 l0 -83 q27 36 68.5 61.5 q41.5 25.5 92.5 25.5 Z" /><glyph glyph-name="dotlessi" unicode="&#x131;" d="M178 61 q0 -26 -17 -43.5 q-17 -17.5 -43 -17.5 q-26 0 -43 17.5 q-17 17.5 -17 43.5 l0 413 q0 26 17 43.5 q17 17.5 43 17.5 q26 0 43 -17.5 q17 -17.5 17 -43.5 l0 -413 Z" /><glyph glyph-name="iogonek" unicode="&#x12f;" d="M117 600 q-34 0 -48 11 q-14 11 -14 39 l0 19 q0 28 15 39 q15 11 48 11 q35 0 49 -11 q14 -11 14 -39 l0 -19 q0 -29 -14.5 -39.5 q-14.5 -10.5 -49.5 -10.5 ZM173 -84 q19 0 31.5 -13 q12.5 -13 12.5 -35 q0 -16 -16.5 -34 q-16.5 -18 -43.5 -29.5 q-27 -11.5 -56 -11.5 q-53 0 -86.5 27 q-33.5 27 -33.5 80 q0 43 20 70.5 q20 27.5 57 44.5 l0 459 q0 26 17 43.5 q17 17.5 43 17.5 q26 0 43 -17.5 q17 -17.5 17 -43.5 l0 -410 q0 -33 -13 -48.5 q-13 -15.5 -39 -29.5 q-23 -14 -34.5 -26.5 q-11.5 -12.5 -11.5 -37.5 q0 -17 9 -26.5 q9 -9.5 22 -9.5 q12 0 21 12 q14 18 41 18 Z" /><glyph glyph-name="uni0237" unicode="&#x237;" d="M36 -196 q-24 0 -40 16 q-16 16 -16 40 l0 11 q0 40 51 55 q32 10 40.5 33.5 q8.5 23.5 8.5 65.5 l0 449 q0 26 17 43.5 q17 17.5 43 17.5 q26 0 43 -17.5 q17 -17.5 17 -43.5 l0 -484 q0 -56 -21.5 -98 q-21.5 -42 -59 -65 q-37.5 -23 -83.5 -23 Z" /><glyph glyph-name="k" unicode="k" d="M510 105 q19 -20 19 -45 q0 -25 -19.5 -42 q-19.5 -17 -41.5 -17 q-26 0 -44 20 l-180 190 l-49 -45 l0 -105 q0 -26 -17 -43.5 q-17 -17.5 -43 -17.5 q-26 0 -43 17.5 q-17 17.5 -17 43.5 l0 618 q0 26 17 43.5 q17 17.5 43 17.5 q26 0 43 -17.5 q17 -17.5 17 -43.5 l0 -370 l214 207 q19 19 44 19 q22 0 39.5 -18.5 q17.5 -18.5 17.5 -37.5 q0 -24 -24 -45 l-151 -139 l175 -190 Z" /><glyph glyph-name="kgreenlandic" unicode="&#x138;" d="M510 105 q19 -20 19 -45 q0 -25 -19.5 -42 q-19.5 -17 -41.5 -17 q-26 0 -44 20 l-180 190 l-49 -45 l0 -105 q0 -26 -17 -43.5 q-17 -17.5 -43 -17.5 q-26 0 -43 17.5 q-17 17.5 -17 43.5 l0 413 q0 26 17 43.5 q17 17.5 43 17.5 q26 0 43 -17.5 q17 -17.5 17 -43.5 l0 -165 l214 207 q19 19 44 19 q22 0 39.5 -18.5 q17.5 -18.5 17.5 -37.5 q0 -24 -24 -45 l-151 -139 l175 -190 Z" /><glyph glyph-name="l" unicode="l" d="M195 61 q0 -26 -17.5 -43.5 q-17.5 -17.5 -43.5 -17.5 q-25 0 -42 17.5 q-17 17.5 -17 43.5 l0 618 q0 26 17.5 43.5 q17.5 17.5 43.5 17.5 q25 0 42 -17.5 q17 -17.5 17 -43.5 l0 -618 Z" /><glyph glyph-name="lcaron" unicode="&#x13e;" d="M195 61 q0 -26 -17.5 -43.5 q-17.5 -17.5 -43.5 -17.5 q-25 0 -42 17.5 q-17 17.5 -17 43.5 l0 618 q0 26 17.5 43.5 q17.5 17.5 43.5 17.5 q25 0 42 -17.5 q17 -17.5 17 -43.5 l0 -618 ZM440 578 q0 -23 -17 -58 q-17 -35 -44 -61 q-27 -26 -56 -26 q-22 0 -35 9.5 q-13 9.5 -13 30.5 q0 16 8 22.5 q8 6.5 17.5 9.5 q9.5 3 13.5 5 q28 15 28 40 q0 11 -10.5 19.5 q-10.5 8.5 -27.5 8.5 q-17 0 -28 -7 q-12 5 -18.5 13 q-6.5 8 -6.5 24 q0 20 15 37.5 q15 17.5 37 28 q22 10.5 43 10.5 q44 0 69 -27.5 q25 -27.5 25 -78.5 Z" /><glyph glyph-name="lslash" unicode="&#x142;" d="M249 470 q22 0 35.5 -17 q13.5 -17 13.5 -34 q0 -14 -8.5 -26 q-8.5 -12 -22.5 -19 l-72 -33 l0 -280 q0 -26 -17.5 -43.5 q-17.5 -17.5 -43.5 -17.5 q-25 0 -42 17.5 q-17 17.5 -17 43.5 l0 225 l-23 -11 q-10 -5 -23 -5 q-22 0 -35.5 17 q-13.5 17 -13.5 34 q0 14 8.5 26 q8.5 12 22.5 19 l64 29 l0 284 q0 26 17.5 43.5 q17.5 17.5 43.5 17.5 q25 0 42 -17.5 q17 -17.5 17 -43.5 l0 -228 l31 14 q13 5 23 5 Z" /><glyph glyph-name="m" unicode="m" d="M682 545 q99 0 137 -60.5 q38 -60.5 38 -167.5 l0 -256 q0 -26 -17 -43.5 q-17 -17.5 -43 -17.5 q-26 0 -43 17.5 q-17 17.5 -17 43.5 l0 256 q0 55 -21.5 86.5 q-21.5 31.5 -75.5 31.5 q-56 0 -87.5 -33.5 q-31.5 -33.5 -31.5 -84.5 l0 -256 q0 -26 -17 -43.5 q-17 -17.5 -43 -17.5 q-26 0 -43 17.5 q-17 17.5 -17 43.5 l0 256 q0 55 -21.5 86.5 q-21.5 31.5 -75.5 31.5 q-56 0 -87.5 -33.5 q-31.5 -33.5 -31.5 -84.5 l0 -256 q0 -26 -17 -43.5 q-17 -17.5 -43 -17.5 q-26 0 -43 17.5 q-17 17.5 -17 43.5 l0 413 q0 26 17 43.5 q17 17.5 43 17.5 q26 0 43 -17.5 q17 -17.5 17 -43.5 l0 -16 q27 36 68.5 61.5 q41.5 25.5 92.5 25.5 q126 0 161 -110 q23 42 69.5 76 q46.5 34 105.5 34 Z" /><glyph glyph-name="n" unicode="n" d="M351 545 q102 0 141 -60.5 q39 -60.5 39 -167.5 l0 -256 q0 -26 -17 -43.5 q-17 -17.5 -43 -17.5 q-26 0 -43 17.5 q-17 17.5 -17 43.5 l0 256 q0 55 -23 86.5 q-23 31.5 -79 31.5 q-58 0 -91 -33.5 q-33 -33.5 -33 -84.5 l0 -256 q0 -26 -17 -43.5 q-17 -17.5 -43 -17.5 q-26 0 -43 17.5 q-17 17.5 -17 43.5 l0 413 q0 26 17 43.5 q17 17.5 43 17.5 q26 0 43 -17.5 q17 -17.5 17 -43.5 l0 -17 q27 36 70.5 62 q43.5 26 95.5 26 Z" /><glyph glyph-name="eng" unicode="&#x14b;" d="M351 545 q102 0 141 -60.5 q39 -60.5 39 -167.5 l0 -331 q0 -97 -50 -141.5 q-50 -44.5 -124 -44.5 q-29 0 -48 14 q-19 14 -19 38 q0 24 16.5 40.5 q16.5 16.5 41.5 17.5 q32 1 47.5 17.5 q15.5 16.5 15.5 53.5 l0 336 q0 55 -23 86.5 q-23 31.5 -79 31.5 q-58 0 -91 -33.5 q-33 -33.5 -33 -84.5 l0 -256 q0 -26 -17 -43.5 q-17 -17.5 -43 -17.5 q-26 0 -43 17.5 q-17 17.5 -17 43.5 l0 413 q0 26 17 43.5 q17 17.5 43 17.5 q26 0 43 -17.5 q17 -17.5 17 -43.5 l0 -17 q27 36 70.5 62 q43.5 26 95.5 26 Z" /><glyph glyph-name="uni0272" unicode="&#x272;" d="M351 545 q102 0 141 -60.5 q39 -60.5 39 -167.5 l0 -256 q0 -26 -17 -43.5 q-17 -17.5 -43 -17.5 q-26 0 -43 17.5 q-17 17.5 -17 43.5 l0 256 q0 55 -23 86.5 q-23 31.5 -79 31.5 q-58 0 -91 -33.5 q-33 -33.5 -33 -84.5 l0 -327 q0 -117 -56 -151.5 q-56 -34.5 -113 -34.5 q-22 0 -36.5 17 q-14.5 17 -14.5 39 q0 29 11.5 42.5 q11.5 13.5 39.5 23.5 q32 11 40.5 34 q8.5 23 8.5 65 l0 449 q0 26 17 43.5 q17 17.5 43 17.5 q26 0 43 -17.5 q17 -17.5 17 -43.5 l0 -17 q27 36 70.5 62 q43.5 26 95.5 26 Z" /><glyph glyph-name="o" unicode="o" d="M579 267 q0 -80 -36 -143.5 q-36 -63.5 -98.5 -98.5 q-62.5 -35 -137.5 -35 q-76 0 -138 35 q-62 35 -98 98.5 q-36 63.5 -36 143.5 q0 80 36 143.5 q36 63.5 98 99 q62 35.5 138 35.5 q75 0 137.5 -35.5 q62.5 -35.5 98.5 -99 q36 -63.5 36 -143.5 ZM459 267 q0 49 -20.5 87.5 q-20.5 38.5 -55 59.5 q-34.5 21 -76.5 21 q-42 0 -76.5 -21 q-34.5 -21 -55 -59.5 q-20.5 -38.5 -20.5 -87.5 q0 -49 20.5 -87 q20.5 -38 55 -59 q34.5 -21 76.5 -21 q42 0 76.5 21 q34.5 21 55 59 q20.5 38 20.5 87 Z" /><glyph glyph-name="ohorn" unicode="&#x1a1;" d="M580 594 q0 -43 -18 -78.5 q-18 -35.5 -54 -56.5 q34 -38 52.5 -87 q18.5 -49 18.5 -105 q0 -80 -36 -143.5 q-36 -63.5 -98.5 -98.5 q-62.5 -35 -137.5 -35 q-76 0 -138 35 q-62 35 -98 98.5 q-36 63.5 -36 143.5 q0 80 36 143.5 q36 63.5 98 99 q62 35.5 138 35.5 q44 0 88 -14 l0 1 q40 0 62.5 15.5 q22.5 15.5 22.5 46.5 q0 20 13.5 36.5 q13.5 16.5 37.5 16.5 q25 0 37 -16.5 q12 -16.5 12 -36.5 ZM307 100 q42 0 76.5 21 q34.5 21 55 59 q20.5 38 20.5 87 q0 49 -20.5 87.5 q-20.5 38.5 -55 59.5 q-34.5 21 -76.5 21 q-42 0 -76.5 -21 q-34.5 -21 -55 -59.5 q-20.5 -38.5 -20.5 -87.5 q0 -49 20.5 -87 q20.5 -38 55 -59 q34.5 -21 76.5 -21 Z" /><glyph glyph-name="uni01EB" unicode="&#x1eb;" d="M450 28 q-54 -28 -78 -48 q-24 -20 -24 -48 q0 -22 10.5 -34 q10.5 -12 25.5 -12 q12 0 21 12 q14 18 41 18 q19 0 31.5 -13 q12.5 -13 12.5 -35 q0 -16 -16.5 -34 q-16.5 -18 -43.5 -29.5 q-27 -11.5 -56 -11.5 q-55 0 -90 29.5 q-35 29.5 -35 87.5 q0 45 20 82 q-66 8 -119.5 45.5 q-53.5 37.5 -84 97 q-30.5 59.5 -30.5 132.5 q0 80 36 143.5 q36 63.5 98 99 q62 35.5 138 35.5 q75 0 137.5 -35.5 q62.5 -35.5 98.5 -99 q36 -63.5 36 -143.5 q0 -80 -34.5 -143.5 q-34.5 -63.5 -94.5 -95.5 ZM155 267 q0 -49 20.5 -87 q20.5 -38 55 -59 q34.5 -21 76.5 -21 q42 0 76.5 21 q34.5 21 55 59 q20.5 38 20.5 87 q0 49 -20.5 87.5 q-20.5 38.5 -55 59.5 q-34.5 21 -76.5 21 q-42 0 -76.5 -21 q-34.5 -21 -55 -59.5 q-20.5 -38.5 -20.5 -87.5 Z" /><glyph glyph-name="oslash" unicode="ø" d="M526 437 q53 -74 53 -170 q0 -80 -36 -143.5 q-36 -63.5 -98.5 -98.5 q-62.5 -35 -137.5 -35 q-71 0 -134 33 l-32 -38 q-15 -18 -38 -18 q-21 0 -36 15 q-15 15 -15 34 q0 20 13 34 l31 37 q-61 75 -61 180 q0 80 36 143.5 q36 63.5 98 99 q62 35.5 138 35.5 q80 0 145 -40 l21 24 q15 18 38 18 q21 0 36 -14.5 q15 -14.5 15 -35.5 q0 -18 -13 -33 l-23 -27 ZM155 267 q0 -50 20 -87 l203 237 q-31 18 -71 18 q-42 0 -76.5 -21 q-34.5 -21 -55 -59.5 q-20.5 -38.5 -20.5 -87.5 ZM307 100 q42 0 76.5 21 q34.5 21 55 59 q20.5 38 20.5 87 q0 41 -14 75 l-196 -230 q27 -12 58 -12 Z" /><glyph glyph-name="oe" unicode="&#x153;" d="M970 280 q-1 -24 -19 -39 q-18 -15 -42 -15 l-330 0 q12 -59 55 -92.5 q43 -33.5 97 -33.5 q41 0 64 7.5 q23 7.5 36.5 16 q13.5 8.5 18.5 11.5 q18 9 34 9 q21 0 36 -15 q15 -15 15 -35 q0 -27 -28 -49 q-28 -23 -75 -39 q-47 -16 -95 -16 q-70 0 -126.5 25.5 q-56.5 25.5 -93.5 70.5 q-37 -45 -92 -70.5 q-55 -25.5 -118 -25.5 q-76 0 -138 35 q-62 35 -98 98.5 q-36 63.5 -36 143.5 q0 80 36 143.5 q36 63.5 98 99 q62 35.5 138 35.5 q64 0 119 -26 q55 -26 93 -73 q36 48 88 73.5 q52 25.5 110 25.5 q66 0 124.5 -36 q58.5 -36 93.5 -97 q35 -61 35 -132 ZM307 100 q42 0 76.5 21 q34.5 21 55 59 q20.5 38 20.5 87 q0 49 -20.5 87.5 q-20.5 38.5 -55 59.5 q-34.5 21 -76.5 21 q-42 0 -76.5 -21 q-34.5 -21 -55 -59.5 q-20.5 -38.5 -20.5 -87.5 q0 -49 20.5 -87 q20.5 -38 55 -59 q34.5 -21 76.5 -21 ZM717 435 q-116 0 -137 -109 l262 0 l0 7 q-4 42 -41 72 q-37 30 -84 30 Z" /><glyph glyph-name="p" unicode="p" d="M342 545 q69 0 125 -35.5 q56 -35.5 88.5 -98.5 q32.5 -63 32.5 -143 q0 -80 -32 -143.5 q-32 -63.5 -87.5 -99 q-55.5 -35.5 -122.5 -35.5 q-48 0 -90.5 19.5 q-42.5 19.5 -70.5 47.5 l0 -196 q0 -26 -17 -43.5 q-17 -17.5 -43 -17.5 q-26 0 -43 17 q-17 17 -17 44 l0 613 q0 26 17 43.5 q17 17.5 43 17.5 q26 0 43 -17.5 q17 -17.5 17 -43.5 l0 -4 q24 30 67 52.5 q43 22.5 90 22.5 ZM327 100 q64 0 105 48 q41 48 41 120 q0 72 -40.5 119.5 q-40.5 47.5 -105.5 47.5 q-65 0 -106 -47.5 q-41 -47.5 -41 -119.5 q0 -72 41 -120 q41 -48 106 -48 Z" /><glyph glyph-name="thorn" unicode="þ" d="M342 545 q69 0 125 -35.5 q56 -35.5 88.5 -98.5 q32.5 -63 32.5 -143 q0 -80 -32 -143.5 q-32 -63.5 -87.5 -99 q-55.5 -35.5 -122.5 -35.5 q-48 0 -90.5 19.5 q-42.5 19.5 -70.5 47.5 l0 -196 q0 -26 -17 -43.5 q-17 -17.5 -43 -17.5 q-26 0 -43 17 q-17 17 -17 44 l0 818 q0 26 17 43.5 q17 17.5 43 17.5 q26 0 43 -17.5 q17 -17.5 17 -43.5 l0 -209 q24 30 67 52.5 q43 22.5 90 22.5 ZM327 100 q64 0 105 48 q41 48 41 120 q0 72 -40.5 119.5 q-40.5 47.5 -105.5 47.5 q-65 0 -106 -47.5 q-41 -47.5 -41 -119.5 q0 -72 41 -120 q41 -48 106 -48 Z" /><glyph glyph-name="q" unicode="q" d="M498 535 q26 0 43 -17 q17 -17 17 -44 l0 -613 q0 -26 -17 -43.5 q-17 -17.5 -43 -17.5 q-26 0 -43 17.5 q-17 17.5 -17 43.5 l0 198 q-25 -28 -67.5 -48.5 q-42.5 -20.5 -89.5 -20.5 q-69 0 -125 35.5 q-56 35.5 -88.5 98.5 q-32.5 63 -32.5 143 q0 80 32 143.5 q32 63.5 87.5 99 q55.5 35.5 122.5 35.5 q49 0 91 -18 q42 -18 70 -45 q3 23 19.5 38 q16.5 15 40.5 15 ZM296 100 q65 0 106 47.5 q41 47.5 41 119.5 q0 72 -41 120 q-41 48 -106 48 q-64 0 -105 -48 q-41 -48 -41 -120 q0 -72 40.5 -119.5 q40.5 -47.5 105.5 -47.5 Z" /><glyph glyph-name="r" unicode="r" d="M343 545 q30 0 50.5 -17 q20.5 -17 20.5 -40 q0 -31 -16 -46.5 q-16 -15.5 -38 -15.5 q-15 0 -34 7 q-3 1 -13.5 4 q-10.5 3 -22.5 3 q-26 0 -50 -16 q-24 -16 -39.5 -48.5 q-15.5 -32.5 -15.5 -77.5 l0 -237 q0 -26 -17 -43.5 q-17 -17.5 -43 -17.5 q-26 0 -43 17.5 q-17 17.5 -17 43.5 l0 413 q0 26 17 43.5 q17 17.5 43 17.5 q26 0 43 -17.5 q17 -17.5 17 -43.5 l0 -13 q23 41 66 62.5 q43 21.5 92 21.5 Z" /><glyph glyph-name="s" unicode="s" d="M34 83 q-9 12 -9 30 q0 26 26 44 q14 9 29 9 q21 0 40 -19 q30 -31 62.5 -46 q32.5 -15 78.5 -15 q78 3 78 59 q0 29 -26.5 44 q-26.5 15 -82.5 30 q-58 16 -94.5 32 q-36.5 16 -63 48.5 q-26.5 32.5 -26.5 87.5 q0 48 27.5 83.5 q27.5 35.5 72 55 q44.5 19.5 94.5 19.5 q51 0 102 -19 q51 -19 80 -56 q13 -16 13 -36 q0 -23 -19 -38 q-14 -11 -32 -11 q-22 0 -36 14 q-18 22 -46.5 35 q-28.5 13 -64.5 13 q-76 0 -76 -55 q0 -22 14 -35.5 q14 -13.5 35.5 -21 q21.5 -7.5 60.5 -18.5 q54 -15 90 -31 q36 -16 61 -49 q25 -33 25 -87 q0 -49 -29 -85.5 q-29 -36.5 -74.5 -55.5 q-45.5 -19 -93.5 -19 q-66 0 -123 22 q-57 22 -93 71 Z" /><glyph glyph-name="scedilla" unicode="&#x15f;" d="M447 150 q0 -58 -39.5 -98 q-39.5 -40 -98.5 -55 l-43 -116 q-12 -32 -41 -32 q-19 0 -42 13 q-23 13 -23 33 q0 15 12 30 l49 66 q-57 4 -106 26 q-49 22 -81 66 q-9 12 -9 30 q0 26 26 44 q14 9 29 9 q21 0 40 -19 q30 -31 62.5 -46 q32.5 -15 78.5 -15 q78 3 78 59 q0 29 -26.5 44 q-26.5 15 -82.5 30 q-58 16 -94.5 32 q-36.5 16 -63 48.5 q-26.5 32.5 -26.5 87.5 q0 48 27.5 83.5 q27.5 35.5 72 55 q44.5 19.5 94.5 19.5 q51 0 102 -19 q51 -19 80 -56 q13 -16 13 -36 q0 -23 -19 -38 q-14 -11 -32 -11 q-22 0 -36 14 q-18 22 -46.5 35 q-28.5 13 -64.5 13 q-76 0 -76 -55 q0 -22 14 -35.5 q14 -13.5 35.5 -21 q21.5 -7.5 60.5 -18.5 q54 -15 90 -31 q36 -16 61 -49 q25 -33 25 -87 Z" /><glyph glyph-name="germandbls" unicode="ß" d="M462 428 q72 -26 121 -80 q49 -54 49 -137 q0 -64 -27 -114.5 q-27 -50.5 -74.5 -78.5 q-47.5 -28 -107.5 -28 q-52 0 -87 15.5 q-35 15.5 -53 39.5 q-9 12 -9 30 q0 26 26 44 q14 9 29 9 q21 0 40 -19 q10 -10 26 -16.5 q16 -6.5 33 -6.5 q44 0 64 30.5 q20 30.5 20 78.5 q0 65 -34 100.5 q-34 35.5 -94 50.5 q-25 7 -36 19.5 q-11 12.5 -11 32.5 q0 38 28 54 q41 21 63.5 45.5 q22.5 24.5 22.5 58.5 q0 35 -27.5 53 q-27.5 18 -74.5 18 q-51 0 -81.5 -32 q-30.5 -32 -30.5 -89 l0 -445 q0 -26 -17 -43.5 q-17 -17.5 -43 -17.5 q-26 0 -43 17.5 q-17 17.5 -17 43.5 l0 319 l-26 0 q-26 0 -43.5 16.5 q-17.5 16.5 -17.5 41.5 q0 25 17.5 41 q17.5 16 43.5 16 l26 0 l0 7 q0 109 64 172 q64 63 174 63 q66 0 115 -22 q49 -22 74.5 -61 q25.5 -39 25.5 -87 q0 -47 -30.5 -81.5 q-30.5 -34.5 -77.5 -57.5 Z" /><glyph glyph-name="t" unicode="t" d="M323 113 q14 0 25.5 -13.5 q11.5 -13.5 11.5 -35.5 q0 -27 -29.5 -45.5 q-29.5 -18.5 -66.5 -18.5 q-62 0 -104.5 26.5 q-42.5 26.5 -42.5 112.5 l0 276 l-46 0 q-24 0 -40 16 q-16 16 -16 40 q0 23 16 38.5 q16 15.5 40 15.5 l46 0 l0 64 q0 26 17.5 43.5 q17.5 17.5 43.5 17.5 q25 0 42 -17.5 q17 -17.5 17 -43.5 l0 -64 l71 0 q24 0 40 -16 q16 -16 16 -40 q0 -23 -16 -38.5 q-16 -15.5 -40 -15.5 l-71 0 l0 -271 q0 -21 11 -30.5 q11 -9.5 30 -9.5 q8 0 22 4 q12 5 23 5 Z" /><glyph glyph-name="tbar" unicode="&#x167;" d="M323 113 q14 0 25.5 -13.5 q11.5 -13.5 11.5 -35.5 q0 -27 -29.5 -45.5 q-29.5 -18.5 -66.5 -18.5 q-62 0 -104.5 26.5 q-42.5 26.5 -42.5 112.5 l0 66 q-25 1 -41.5 16.5 q-16.5 15.5 -16.5 39.5 q0 22 16.5 37.5 q16.5 15.5 41.5 16.5 l0 100 l-46 0 q-24 0 -40 16 q-16 16 -16 40 q0 23 16 38.5 q16 15.5 40 15.5 l46 0 l0 64 q0 26 17.5 43.5 q17.5 17.5 43.5 17.5 q25 0 42 -17.5 q17 -17.5 17 -43.5 l0 -64 l71 0 q24 0 40 -16 q16 -16 16 -40 q0 -23 -16 -38.5 q-16 -15.5 -40 -15.5 l-71 0 l0 -100 l57 0 q26 0 43.5 -15.5 q17.5 -15.5 17.5 -38.5 q0 -25 -17.5 -40.5 q-17.5 -15.5 -43.5 -15.5 l-57 0 l0 -61 q0 -21 11 -30.5 q11 -9.5 30 -9.5 q8 0 22 4 q12 5 23 5 Z" /><glyph glyph-name="uni0163" unicode="&#x163;" d="M323 113 q14 0 25.5 -13.5 q11.5 -13.5 11.5 -35.5 q0 -26 -29 -44.5 q-29 -18.5 -65 -19.5 l-44 -119 q-12 -32 -41 -32 q-19 0 -42 13 q-23 13 -23 33 q0 15 12 30 l63 85 q-74 27 -74 129 l0 276 l-46 0 q-24 0 -40 16 q-16 16 -16 40 q0 23 16 38.5 q16 15.5 40 15.5 l46 0 l0 64 q0 26 17.5 43.5 q17.5 17.5 43.5 17.5 q25 0 42 -17.5 q17 -17.5 17 -43.5 l0 -64 l71 0 q24 0 40 -16 q16 -16 16 -40 q0 -23 -16 -38.5 q-16 -15.5 -40 -15.5 l-71 0 l0 -271 q0 -21 11 -30.5 q11 -9.5 30 -9.5 q8 0 22 4 q12 5 23 5 Z" /><glyph glyph-name="u" unicode="u" d="M462 535 q26 0 43 -17.5 q17 -17.5 17 -43.5 l0 -254 q0 -108 -59.5 -169 q-59.5 -61 -169.5 -61 q-110 0 -169 61 q-59 61 -59 169 l0 254 q0 26 17 43.5 q17 17.5 43 17.5 q26 0 43 -17.5 q17 -17.5 17 -43.5 l0 -254 q0 -61 27 -90.5 q27 -29.5 81 -29.5 q55 0 82 29.5 q27 29.5 27 90.5 l0 254 q0 26 17 43.5 q17 17.5 43 17.5 Z" /><glyph glyph-name="uhorn" unicode="&#x1b0;" d="M635 596 q0 -55 -28 -95.5 q-28 -40.5 -85 -57.5 l0 -223 q0 -108 -59.5 -169 q-59.5 -61 -169.5 -61 q-110 0 -169 61 q-59 61 -59 169 l0 254 q0 26 17 43.5 q17 17.5 43 17.5 q26 0 43 -17.5 q17 -17.5 17 -43.5 l0 -254 q0 -61 27 -90.5 q27 -29.5 81 -29.5 q55 0 82 29.5 q27 29.5 27 90.5 l0 254 q0 23 13 39.5 q13 16.5 35 20.5 q4 1 12 1 l5 0 q68 6 68 61 q0 20 13.5 36.5 q13.5 16.5 37.5 16.5 q25 0 37 -16.5 q12 -16.5 12 -36.5 Z" /><glyph glyph-name="uogonek" unicode="&#x173;" d="M429 30 q-42 -28 -64 -50 q-22 -22 -22 -52 q0 -18 12.5 -30 q12.5 -12 28.5 -12 q12 0 21 12 q14 18 41 18 q19 0 31.5 -13 q12.5 -13 12.5 -35 q0 -16 -16.5 -34 q-16.5 -18 -43.5 -29.5 q-27 -11.5 -56 -11.5 q-55 0 -92.5 33.5 q-37.5 33.5 -37.5 85.5 q0 39 27 79 q-99 6 -152.5 66.5 q-53.5 60.5 -53.5 162.5 l0 254 q0 26 17 43.5 q17 17.5 43 17.5 q26 0 43 -17.5 q17 -17.5 17 -43.5 l0 -254 q0 -61 27 -90.5 q27 -29.5 81 -29.5 q55 0 82 29.5 q27 29.5 27 90.5 l0 254 q0 26 17 43.5 q17 17.5 43 17.5 q26 0 43 -17.5 q17 -17.5 17 -43.5 l0 -254 q0 -58 -15 -101 q-15 -43 -56 -75 l-22 -14 Z" /><glyph glyph-name="v" unicode="v" d="M476 534 q24 0 40 -15.5 q16 -15.5 16 -38.5 q0 -12 -8 -30 l-187 -412 q-7 -17 -20.5 -27 q-13.5 -10 -30.5 -11 l-9 -1 q-17 0 -31.5 10.5 q-14.5 10.5 -22.5 28.5 l-186 412 q-7 16 -7 32 q0 20 17 36.5 q17 16.5 42 16.5 q19 0 35 -10 q16 -10 24 -28 l138 -316 l137 315 q8 19 22 29 q14 10 31 9 Z" /><glyph glyph-name="w" unicode="w" d="M681 535 q24 0 40.5 -17.5 q16.5 -17.5 16.5 -44.5 q0 -9 -4 -23 l-153 -412 q-6 -18 -21.5 -28.5 q-15.5 -10.5 -33.5 -10.5 l-8 1 q-34 2 -51 38 l-85 246 l-81 -246 q-17 -36 -51 -38 l-8 -1 q-18 0 -33.5 10.5 q-15.5 10.5 -21.5 28.5 l-153 412 q-4 11 -4 23 q0 25 16.5 43.5 q16.5 18.5 43.5 18.5 q20 0 34.5 -9.5 q14.5 -9.5 20.5 -28.5 l108 -293 l79 214 q16 37 55 37 q21 0 32.5 -9 q11.5 -9 19.5 -28 l77 -209 l107 288 q6 19 21 28.5 q15 9.5 37 9.5 Z" /><glyph glyph-name="x" unicode="x" d="M459 95 q13 -16 13 -36 q0 -25 -19 -43 q-19 -18 -42 -18 q-29 0 -49 26 l-120 149 l-117 -149 q-9 -12 -21.5 -18.5 q-12.5 -6.5 -26.5 -6.5 q-21 0 -40 16 q-19 16 -19 37 q0 20 15 38 l139 170 l-144 179 q-13 16 -13 36 q0 25 18.5 42.5 q18.5 17.5 42.5 17.5 q29 0 49 -25 l123 -153 l114 151 q19 27 48 27 q24 0 40.5 -16.5 q16.5 -16.5 16.5 -37.5 q0 -22 -14 -39 l-138 -168 l144 -179 Z" /><glyph glyph-name="y" unicode="y" d="M462 535 q26 0 43 -17.5 q17 -17.5 17 -43.5 l0 -425 q0 -130 -70 -189.5 q-70 -59.5 -187 -59.5 q-34 0 -69.5 5.5 q-35.5 5.5 -57.5 14.5 q-49 21 -49 58 q0 7 3 16 q6 22 20.5 33.5 q14.5 11.5 31.5 11.5 q10 0 19 -3 q7 -3 24.5 -10 q17.5 -7 37 -11.5 q19.5 -4.5 40.5 -4.5 q71 0 104.5 30.5 q33.5 30.5 33.5 104.5 l0 10 q-52 -65 -162 -65 q-52 0 -92 24.5 q-40 24.5 -62 68 q-22 43.5 -22 99.5 l0 292 q0 26 17 43.5 q17 17.5 43 17.5 q26 0 43 -17.5 q17 -17.5 17 -43.5 l0 -256 q0 -63 27.5 -90.5 q27.5 -27.5 80.5 -27.5 q52 0 80.5 30.5 q28.5 30.5 28.5 87.5 l0 256 q0 26 17 43.5 q17 17.5 43 17.5 Z" /><glyph glyph-name="z" unicode="z" d="M406 110 q24 0 40 -15.5 q16 -15.5 16 -39.5 q0 -23 -16 -39 q-16 -16 -40 -16 l-322 0 q-23 0 -38.5 16.5 q-15.5 16.5 -15.5 35.5 q0 17 4 28.5 q4 11.5 15 26.5 l238 308 l-194 0 q-24 0 -40 16 q-16 16 -16 40 q0 23 16 38.5 q16 15.5 40 15.5 l308 0 q22 0 37.5 -15.5 q15.5 -15.5 15.5 -38.5 q0 -15 -3 -25.5 q-3 -10.5 -14 -24.5 l-240 -311 l209 0 Z" /><glyph glyph-name="ordfeminine" unicode="ª" d="M284 724 q22 0 36 -12 q14 -12 14 -28 l0 -243 q0 -17 -15 -28.5 q-15 -11.5 -35 -11.5 q-22 0 -36 11.5 q-14 11.5 -14 28.5 l0 18 q-14 -29 -38.5 -48.5 q-24.5 -19.5 -56.5 -19.5 q-62 0 -95.5 49.5 q-33.5 49.5 -33.5 124.5 q0 69 38.5 114.5 q38.5 45.5 104.5 45.5 q59 0 81 -49 l0 8 q0 16 14 28 q14 12 36 12 ZM177 469 q25 0 43 23 q18 23 18 63 q0 43 -17 67.5 q-17 24.5 -48 24.5 q-26 0 -44.5 -24.5 q-18.5 -24.5 -18.5 -57.5 q0 -42 17 -69 q17 -27 50 -27 Z" /><glyph glyph-name="ordmasculine" unicode="º" d="M335 549 q0 -44 -21 -80 q-21 -36 -58 -56.5 q-37 -20.5 -82 -20.5 q-45 0 -81.5 20.5 q-36.5 20.5 -57 56.5 q-20.5 36 -20.5 80 q0 45 21 82 q21 37 57 58 q36 21 81 21 q45 0 82 -21 q37 -21 58 -58 q21 -37 21 -82 ZM240 549 q0 34 -18 55 q-18 21 -48 21 q-29 0 -46.5 -21 q-17.5 -21 -17.5 -55 q0 -32 17 -52 q17 -20 47 -20 q30 0 48 20 q18 20 18 52 Z" /><glyph glyph-name="pi" unicode="&#x3c0;" d="M138 0 q-21 0 -34.5 14 q-13.5 14 -13.5 35 l0 364 q0 5 -5 5 l-16 0 q-21 0 -35 14 q-14 14 -14 35 q0 21 14 34.5 q14 13.5 35 13.5 l438 0 q21 0 35 -14 q14 -14 14 -35 q0 -21 -14 -34.5 q-14 -13.5 -35 -13.5 l-16 0 q-5 0 -5 -5 l0 -364 q0 -21 -14 -35 q-14 -14 -35 -14 q-21 0 -34.5 14 q-13.5 14 -13.5 35 l0 364 q0 5 -5 5 l-192 0 q-5 0 -5 -5 l0 -364 q0 -21 -14 -35 q-14 -14 -35 -14 Z" /><glyph glyph-name="zero" unicode="0" d="M307 -10 q-84 0 -144.5 45 q-60.5 45 -91.5 126.5 q-31 81.5 -31 188.5 q0 107 31 188.5 q31 81.5 91.5 126.5 q60.5 45 144.5 45 q84 0 144.5 -45 q60.5 -45 91.5 -126.5 q31 -81.5 31 -188.5 q0 -107 -31 -188.5 q-31 -81.5 -91.5 -126.5 q-60.5 -45 -144.5 -45 ZM307 110 q64 0 100.5 61 q36.5 61 36.5 179 q0 118 -36.5 179 q-36.5 61 -100.5 61 q-64 0 -100.5 -61 q-36.5 -61 -36.5 -179 q0 -118 36.5 -179 q36.5 -61 100.5 -61 Z" /><glyph glyph-name="one" unicode="1" d="M230 700 q25 0 42 -17.5 q17 -17.5 17 -43.5 l0 -578 q0 -26 -19 -43.5 q-19 -17.5 -47 -17.5 q-28 0 -46 17.5 q-18 17.5 -18 43.5 l0 474 l-62 -38 q-15 -9 -32 -9 q-25 0 -42.5 19 q-17.5 19 -17.5 42 q0 16 8.5 30 q8.5 14 22.5 22 l151 90 q17 9 43 9 Z" /><glyph glyph-name="two" unicode="2" d="M450 110 q24 0 40 -16 q16 -16 16 -40 q0 -23 -16 -38.5 q-16 -15.5 -40 -15.5 l-340 0 q-26 0 -41 16 q-15 16 -15 41 q0 25 18 44 l218 233 q37 40 58.5 80.5 q21.5 40.5 21.5 74.5 q0 45 -32 78 q-32 33 -74 33 q-29 0 -58.5 -19.5 q-29.5 -19.5 -53.5 -51.5 q-18 -24 -46 -24 q-22 0 -40.5 17 q-18.5 17 -18.5 38 q0 15 10 30.5 q10 15.5 30 35.5 q38 38 88 61 q50 23 96 23 q66 0 116 -28 q50 -28 77 -77 q27 -49 27 -111 q0 -61 -32.5 -125.5 q-32.5 -64.5 -87.5 -123.5 l-127 -135 l206 0 Z" /><glyph glyph-name="three" unicode="3" d="M296 444 q55 -2 97.5 -32 q42.5 -30 65.5 -78.5 q23 -48.5 23 -103.5 q0 -73 -33 -127.5 q-33 -54.5 -93 -83.5 q-60 -29 -140 -29 q-36 0 -72 9 q-36 9 -63 24 q-37 20 -37 54 q0 24 17 44 q17 20 41 20 q20 0 43 -15 q43 -33 95 -33 q31 0 59 15.5 q28 15.5 45.5 45 q17.5 29.5 17.5 67.5 q0 54 -32.5 84 q-32.5 30 -78.5 30 q-20 0 -35 -4 q-15 -4 -18 -5 q-26 -8 -43 -8 q-22 0 -35 15.5 q-13 15.5 -13 38.5 q0 14 5 25 q5 11 17 24 l155 169 l-198 0 q-24 0 -40 16 q-16 16 -16 40 q0 23 16 38.5 q16 15.5 40 15.5 l306 0 q30 0 46 -16.5 q16 -16.5 16 -43.5 q0 -24 -24 -48 l-134 -148 Z" /><glyph glyph-name="four" unicode="4" d="M572 300 q24 0 40 -16 q16 -16 16 -40 q0 -23 -16 -38.5 q-16 -15.5 -40 -15.5 l-42 0 l0 -129 q0 -26 -17.5 -43.5 q-17.5 -17.5 -43.5 -17.5 q-25 0 -42 17.5 q-17 17.5 -17 43.5 l0 129 l-260 0 q-22 0 -41 17.5 q-19 17.5 -19 41.5 q0 22 15 40 l316 387 q19 24 50 24 q25 0 42 -17.5 q17 -17.5 17 -43.5 l0 -339 l42 0 ZM248 300 l162 0 l0 200 l-162 -200 Z" /><glyph glyph-name="five" unicode="5" d="M275 470 q66 0 119.5 -30.5 q53.5 -30.5 84 -83.5 q30.5 -53 30.5 -118 q0 -67 -38 -124 q-38 -57 -101 -90.5 q-63 -33.5 -136 -33.5 q-39 0 -80.5 12 q-41.5 12 -67.5 33 q-12 10 -20 28 q-8 18 -8 34 q0 18 15.5 32.5 q15.5 14.5 40.5 14.5 q18 0 45 -19 q42 -26 74 -26 q41 0 77 19 q36 19 57.5 51 q21.5 32 21.5 69 q0 54 -37 88 q-37 34 -88 34 q-23 0 -41 -6 q-18 -6 -43 -18 q-18 -9 -28.5 -13 q-10.5 -4 -21.5 -4 q-39 0 -55.5 21 q-16.5 21 -16.5 50 q0 10 1 14 l31 248 q4 21 20.5 34.5 q16.5 13.5 39.5 13.5 l289 0 q24 0 40 -16 q16 -16 16 -40 q0 -23 -16 -38.5 q-16 -15.5 -40 -15.5 l-248 0 l-19 -145 q19 11 48 18 q29 7 55 7 Z" /><glyph glyph-name="six" unicode="6" d="M291 454 q52 0 102.5 -31.5 q50.5 -31.5 82.5 -85 q32 -53.5 32 -115.5 q0 -63 -31.5 -116.5 q-31.5 -53.5 -84.5 -84.5 q-53 -31 -117 -31 q-69 0 -123 38.5 q-54 38.5 -83 101 q-29 62.5 -29 133.5 q0 73 25.5 160.5 q25.5 87.5 93 165.5 q67.5 78 183.5 111 q12 3 23 3 q26 0 43 -13.5 q17 -13.5 17 -42.5 q0 -22 -14.5 -38.5 q-14.5 -16.5 -38.5 -23.5 q-63 -18 -116.5 -64 q-53.5 -46 -78.5 -110 q50 43 114 43 ZM275 100 q47 0 80 35 q33 35 33 87 q0 52 -33 87 q-33 35 -80 35 q-48 0 -80.5 -35 q-32.5 -35 -32.5 -87 q0 -52 32.5 -87 q32.5 -35 80.5 -35 Z" /><glyph glyph-name="seven" unicode="7" d="M464 700 q26 0 45.5 -16.5 q19.5 -16.5 19.5 -42.5 q0 -13 -6 -27 l-263 -581 q-7 -18 -22 -28 q-15 -10 -33 -10 q-25 0 -43.5 17 q-18.5 17 -18.5 41 q0 14 6 27 l233 510 l-266 0 q-24 0 -40 16 q-16 16 -16 40 q0 23 16 38.5 q16 15.5 40 15.5 l348 0 Z" /><glyph glyph-name="eight" unicode="8" d="M428 365 q47 -28 73.5 -69.5 q26.5 -41.5 26.5 -86.5 q0 -57 -31.5 -105 q-31.5 -48 -85 -76 q-53.5 -28 -117.5 -28 q-64 0 -117.5 28 q-53.5 28 -85 76 q-31.5 48 -31.5 105 q0 96 97 156 q-35 20 -57.5 54 q-22.5 34 -22.5 80 q0 55 29 101 q29 46 78.5 73 q49.5 27 109.5 27 q60 0 109.5 -27 q49.5 -27 78 -73 q28.5 -46 28.5 -101 q0 -50 -23.5 -82.5 q-23.5 -32.5 -58.5 -51.5 ZM294 590 q-42 0 -69.5 -26.5 q-27.5 -26.5 -27.5 -66.5 q0 -41 27.5 -67.5 q27.5 -26.5 69.5 -26.5 q41 0 68.5 27 q27.5 27 27.5 67 q0 40 -27.5 66.5 q-27.5 26.5 -68.5 26.5 ZM294 110 q48 0 81 29.5 q33 29.5 33 71.5 q0 43 -33 72.5 q-33 29.5 -81 29.5 q-48 0 -81 -29.5 q-33 -29.5 -33 -72.5 q0 -42 33 -71.5 q33 -29.5 81 -29.5 Z" /><glyph glyph-name="nine" unicode="9" d="M273 713 q69 0 123 -38.5 q54 -38.5 83 -101 q29 -62.5 29 -133.5 q0 -73 -25.5 -160.5 q-25.5 -87.5 -93 -165.5 q-67.5 -78 -183.5 -111 q-12 -3 -23 -3 q-26 0 -43 13.5 q-17 13.5 -17 42.5 q0 22 14.5 38.5 q14.5 16.5 38.5 23.5 q63 18 116.5 64 q53.5 46 78.5 110 q-50 -43 -114 -43 q-52 0 -102.5 31.5 q-50.5 31.5 -82.5 85 q-32 53.5 -32 115.5 q0 63 31.5 116.5 q31.5 53.5 84.5 84.5 q53 31 117 31 ZM273 359 q48 0 80.5 35 q32.5 35 32.5 87 q0 52 -32.5 87 q-32.5 35 -80.5 35 q-47 0 -80 -35 q-33 -35 -33 -87 q0 -52 33 -87 q33 -35 80 -35 Z" /><glyph glyph-name="fraction" unicode="&#x2044;" d="M72 -2 q-18 0 -35 14 q-17 14 -17 35 q0 13 10 30 l398 601 q18 24 41 24 q18 0 35 -14 q17 -14 17 -35 q0 -13 -10 -30 l-398 -601 q-18 -24 -41 -24 Z" /><glyph glyph-name="asterisk" unicode="*" d="M181 382 q-14 0 -22.5 10 q-8.5 10 -7.5 25 l9 79 q1 3 -1 4 q-2 1 -5 -1 l-65 -47 q-8 -7 -20 -7 q-16 0 -26 16 q-5 8 -5 18 q0 9 5.5 16 q5.5 7 14.5 11 l73 33 q3 1 3 3 q0 2 -3 3 l-73 33 q-10 4 -15 11.5 q-5 7.5 -5 16.5 q0 9 5 17 q9 16 27 16 q10 0 19 -6 l65 -48 q3 -2 5 -1 q2 1 1 4 l-9 79 q-1 15 8 25 q9 10 24 10 q14 0 22.5 -10 q8.5 -10 7.5 -25 l-9 -79 q-1 -3 1 -4 q2 -1 5 1 l65 47 q8 7 20 7 q16 0 26 -16 q5 -7 5 -18 q0 -9 -5.5 -16 q-5.5 -7 -14.5 -11 l-73 -33 q-3 -1 -3 -3 q0 -2 3 -3 l73 -33 q10 -4 15 -11.5 q5 -7.5 5 -16.5 q0 -9 -5 -17 q-9 -16 -27 -16 q-10 0 -19 6 l-65 48 q-3 2 -5 1 q-2 -1 -1 -4 l9 -79 q1 -15 -8 -25 q-9 -10 -24 -10 Z" /><glyph glyph-name="backslash" unicode="\" d="M484 -134 q-14 0 -25.5 8 q-11.5 8 -18.5 22 l-405 831 q-6 12 -6 24 q0 21 16.5 35.5 q16.5 14.5 35.5 14.5 q14 0 25.5 -8 q11.5 -8 18.5 -22 l406 -831 q6 -12 6 -24 q0 -22 -17.5 -36 q-17.5 -14 -35.5 -14 Z" /><glyph glyph-name="periodcentered" unicode="·" d="M104 238 q-29 0 -44.5 15.5 q-15.5 15.5 -15.5 44.5 l0 17 q0 29 15.5 44.5 q15.5 15.5 44.5 15.5 l13 0 q29 0 44.5 -15.5 q15.5 -15.5 15.5 -44.5 l0 -17 q0 -29 -15.5 -44.5 q-15.5 -15.5 -44.5 -15.5 l-13 0 Z" /><glyph glyph-name="bullet" unicode="&#x2022;" d="M174 211 q-38 0 -70.5 18.5 q-32.5 18.5 -51.5 51 q-19 32.5 -19 70.5 q0 40 19 72.5 q19 32.5 51.5 51 q32.5 18.5 70.5 18.5 q38 0 70.5 -18.5 q32.5 -18.5 52 -51 q19.5 -32.5 19.5 -72.5 q0 -38 -19 -70.5 q-19 -32.5 -52 -51 q-33 -18.5 -71 -18.5 Z" /><glyph glyph-name="colon" unicode=":" d="M130 391 q-29 0 -44.5 15.5 q-15.5 15.5 -15.5 44.5 l0 17 q0 29 15.5 44.5 q15.5 15.5 44.5 15.5 l13 0 q29 0 44.5 -15.5 q15.5 -15.5 15.5 -44.5 l0 -17 q0 -29 -15.5 -44.5 q-15.5 -15.5 -44.5 -15.5 l-13 0 ZM130 0 q-29 0 -44.5 15.5 q-15.5 15.5 -15.5 44.5 l0 17 q0 29 15.5 44.5 q15.5 15.5 44.5 15.5 l13 0 q29 0 44.5 -15.5 q15.5 -15.5 15.5 -44.5 l0 -17 q0 -29 -15.5 -44.5 q-15.5 -15.5 -44.5 -15.5 l-13 0 Z" /><glyph glyph-name="comma" unicode="," d="M217 8 q0 -23 -17 -58 q-17 -35 -44 -61 q-27 -26 -56 -26 q-22 0 -35 9.5 q-13 9.5 -13 30.5 q0 16 8 22.5 q8 6.5 17.5 9.5 q9.5 3 13.5 5 q28 15 28 40 q0 11 -10.5 19.5 q-10.5 8.5 -27.5 8.5 q-17 0 -28 -7 q-12 5 -18.5 13 q-6.5 8 -6.5 24 q0 20 15 37.5 q15 17.5 37 28 q22 10.5 43 10.5 q44 0 69 -27.5 q25 -27.5 25 -78.5 Z" /><glyph glyph-name="exclam" unicode="!" d="M134 221 q-34 0 -37 38 l-29 368 q-2 31 16.5 52 q18.5 21 48.5 21 q30 0 49 -21 q19 -21 16 -52 l-28 -368 q-3 -38 -36 -38 ZM127 0 q-29 0 -44.5 15.5 q-15.5 15.5 -15.5 44.5 l0 17 q0 29 15.5 44.5 q15.5 15.5 44.5 15.5 l13 0 q29 0 44.5 -15.5 q15.5 -15.5 15.5 -44.5 l0 -17 q0 -29 -15.5 -44.5 q-15.5 -15.5 -44.5 -15.5 l-13 0 Z" /><glyph glyph-name="exclamdown" unicode="¡" d="M140 541 q29 0 44.5 -15.5 q15.5 -15.5 15.5 -44.5 l0 -17 q0 -29 -15.5 -44.5 q-15.5 -15.5 -44.5 -15.5 l-13 0 q-29 0 -44.5 15.5 q-15.5 15.5 -15.5 44.5 l0 17 q0 29 15.5 44.5 q15.5 15.5 44.5 15.5 l13 0 ZM133 320 q34 0 37 -38 l29 -368 q2 -31 -16.5 -52 q-18.5 -21 -48.5 -21 q-30 0 -49 21 q-19 21 -16 52 l28 368 q3 38 36 38 Z" /><glyph glyph-name="numbersign" unicode="#" d="M550 439 l-30 -174 l47 0 q23 0 38.5 -15.5 q15.5 -15.5 15.5 -38.5 q0 -22 -15.5 -36 q-15.5 -14 -38.5 -14 l-65 0 l-20 -118 q-3 -19 -16.5 -31 q-13.5 -12 -33.5 -12 q-24 0 -38.5 15 q-14.5 15 -14.5 39 q0 9 1 13 l16 94 l-164 0 l-20 -118 q-3 -20 -17 -31.5 q-14 -11.5 -34 -11.5 q-23 0 -37.5 15.5 q-14.5 15.5 -14.5 39.5 q0 8 1 12 l16 94 l-36 0 q-23 0 -38.5 15.5 q-15.5 15.5 -15.5 38.5 q0 22 15.5 36 q15.5 14 38.5 14 l54 0 l30 174 l-47 0 q-23 0 -38.5 15.5 q-15.5 15.5 -15.5 38.5 q0 22 15.5 36 q15.5 14 38.5 14 l64 0 l20 114 q3 19 16.5 31 q13.5 12 33.5 12 q24 0 38.5 -15 q14.5 -15 14.5 -39 q0 -9 -1 -13 l-15 -90 l163 0 l20 114 q3 20 17 31.5 q14 11.5 34 11.5 q23 0 37.5 -15.5 q14.5 -15.5 14.5 -39.5 q0 -8 -1 -12 l-15 -90 l35 0 q23 0 38.5 -15.5 q15.5 -15.5 15.5 -38.5 q0 -22 -15.5 -36 q-15.5 -14 -38.5 -14 l-53 0 ZM414 265 l30 174 l-164 0 l-30 -174 l164 0 Z" /><glyph glyph-name="period" unicode="." d="M118 1 q-29 0 -44.5 15.5 q-15.5 15.5 -15.5 44.5 l0 17 q0 29 15.5 44.5 q15.5 15.5 44.5 15.5 l13 0 q29 0 44.5 -15.5 q15.5 -15.5 15.5 -44.5 l0 -17 q0 -29 -15.5 -44.5 q-15.5 -15.5 -44.5 -15.5 l-13 0 Z" /><glyph glyph-name="question" unicode="?" d="M156 316 q0 26 17 43.5 q17 17.5 43 17.5 q66 0 106 31 q40 31 40 96 q0 50 -36 83 q-36 33 -90 33 q-55 0 -97 -37 q-24 -22 -50 -22 q-19 0 -34 12 q-26 20 -26 47 q0 23 19 42 q36 37 84.5 57.5 q48.5 20.5 103.5 20.5 q68 0 124 -31 q56 -31 89 -85.5 q33 -54.5 33 -119.5 q0 -96 -55 -152 q-55 -56 -146 -70 q-5 -2 -5 -5 l0 -37 q0 -26 -17 -43.5 q-17 -17.5 -43 -17.5 q-26 0 -43 17.5 q-17 17.5 -17 43.5 l0 76 ZM211 0 q-29 0 -44.5 15.5 q-15.5 15.5 -15.5 44.5 l0 17 q0 29 15.5 44.5 q15.5 15.5 44.5 15.5 l13 0 q29 0 44.5 -15.5 q15.5 -15.5 15.5 -44.5 l0 -17 q0 -29 -15.5 -44.5 q-15.5 -15.5 -44.5 -15.5 l-13 0 Z" /><glyph glyph-name="questiondown" unicode="¿" d="M300 525 q29 0 44.5 -15.5 q15.5 -15.5 15.5 -44.5 l0 -17 q0 -29 -15.5 -44.5 q-15.5 -15.5 -44.5 -15.5 l-13 0 q-29 0 -44.5 15.5 q-15.5 15.5 -15.5 44.5 l0 17 q0 29 15.5 44.5 q15.5 15.5 44.5 15.5 l13 0 ZM355 209 q0 -26 -17 -43.5 q-17 -17.5 -43 -17.5 q-66 0 -106 -31 q-40 -31 -40 -96 q0 -50 36 -83 q36 -33 90 -33 q55 0 97 37 q24 22 50 22 q19 0 34 -12 q26 -20 26 -47 q0 -23 -19 -42 q-36 -37 -84.5 -57.5 q-48.5 -20.5 -103.5 -20.5 q-68 0 -124 31 q-56 31 -89 85.5 q-33 54.5 -33 119.5 q0 96 55 152 q55 56 146 70 q5 2 5 5 l0 37 q0 26 17 43.5 q17 17.5 43 17.5 q26 0 43 -17.5 q17 -17.5 17 -43.5 l0 -76 Z" /><glyph glyph-name="quotedbl" unicode="&quot;" d="M50 652 q4 48 52 48 l29 0 q22 0 33.5 -10 q11.5 -10 11.5 -27 q0 -9 -3 -20 l-68 -209 q-12 -33 -42 -33 q-16 0 -23.5 10.5 q-7.5 10.5 -5.5 30.5 l16 210 ZM270 652 q5 48 52 48 l29 0 q22 0 33.5 -9.5 q11.5 -9.5 11.5 -26.5 q0 -10 -4 -21 l-68 -209 q-12 -33 -42 -33 q-32 0 -29 42 l17 209 Z" /><glyph glyph-name="quotesingle" unicode="&#39;" d="M50 652 q4 48 52 48 l31 0 q22 0 33.5 -9.5 q11.5 -9.5 11.5 -26.5 q0 -10 -4 -21 l-68 -209 q-12 -33 -43 -33 q-16 0 -23.5 10.5 q-7.5 10.5 -5.5 30.5 l16 210 Z" /><glyph glyph-name="semicolon" unicode=";" d="M156 391 q-29 0 -44.5 15.5 q-15.5 15.5 -15.5 44.5 l0 17 q0 29 15.5 44.5 q15.5 15.5 44.5 15.5 l13 0 q29 0 44.5 -15.5 q15.5 -15.5 15.5 -44.5 l0 -17 q0 -29 -15.5 -44.5 q-15.5 -15.5 -44.5 -15.5 l-13 0 ZM249 8 q0 -23 -17 -58 q-17 -35 -44 -61 q-27 -26 -56 -26 q-22 0 -35 9.5 q-13 9.5 -13 30.5 q0 16 8 22.5 q8 6.5 17.5 9.5 q9.5 3 13.5 5 q28 15 28 40 q0 11 -10.5 19.5 q-10.5 8.5 -27.5 8.5 q-17 0 -28 -7 q-12 5 -18.5 13 q-6.5 8 -6.5 24 q0 20 15 37.5 q15 17.5 37 28 q22 10.5 43 10.5 q44 0 69 -27.5 q25 -27.5 25 -78.5 Z" /><glyph glyph-name="slash" unicode="/" d="M84 -134 q-19 0 -36 14.5 q-17 14.5 -17 35.5 q0 12 6 24 l406 831 q7 14 18.5 22 q11.5 8 25.5 8 q19 0 35.5 -14.5 q16.5 -14.5 16.5 -35.5 q0 -12 -6 -24 l-405 -831 q-7 -14 -18.5 -22 q-11.5 -8 -25.5 -8 Z" /><glyph glyph-name="underscore" unicode="_" d="M98 -160 q-21 0 -34.5 13.5 q-13.5 13.5 -13.5 33.5 q0 20 13.5 33.5 q13.5 13.5 34.5 13.5 l508 0 q21 0 34.5 -13.5 q13.5 -13.5 13.5 -34.5 q0 -20 -13.5 -33 q-13.5 -13 -34.5 -13 l-508 0 Z" /><glyph glyph-name="braceleft" unicode="{" d="M352 -117 q16 -6 25 -17.5 q9 -11.5 9 -24.5 q0 -17 -12 -30 q-12 -13 -29 -13 q-10 0 -15 1 q-103 21 -143 67.5 q-40 46.5 -40 123.5 l2 102 q0 54 -24 81 q-24 27 -65 29 l-4 0 q-19 0 -32.5 13 q-13.5 13 -13.5 33 q0 20 13.5 33 q13.5 13 32.5 13 l6 0 q40 2 63.5 29 q23.5 27 23.5 81 l-2 102 q0 77 40 123.5 q40 46.5 143 67.5 q4 1 12 1 q21 0 32.5 -13 q11.5 -13 11.5 -32 q0 -13 -9.5 -24 q-9.5 -11 -24.5 -16 q-40 -14 -60 -30.5 q-20 -16.5 -26.5 -38 q-6.5 -21.5 -6.5 -55.5 l2 -104 q0 -55 -26.5 -87.5 q-26.5 -32.5 -75.5 -49.5 q49 -17 75.5 -50 q26.5 -33 26.5 -87 l-2 -104 q0 -34 7 -55 q7 -21 26.5 -37.5 q19.5 -16.5 59.5 -31.5 Z" /><glyph glyph-name="braceright" unicode="}" d="M345 296 q19 0 32.5 -13 q13.5 -13 13.5 -33 q0 -20 -13.5 -33 q-13.5 -13 -32.5 -13 l-6 0 q-40 -2 -63.5 -29 q-23.5 -27 -23.5 -81 l2 -102 q0 -77 -40 -123.5 q-40 -46.5 -143 -67.5 q-10 -2 -17 -2 q-17 0 -28 15 q-11 15 -11 31 q0 13 9.5 24 q9.5 11 24.5 16 q40 14 60 30.5 q20 16.5 26.5 38 q6.5 21.5 6.5 55.5 l-2 104 q0 55 26.5 87.5 q26.5 32.5 75.5 49.5 q-49 17 -75.5 50 q-26.5 33 -26.5 87 l2 104 q0 34 -7 55 q-7 21 -26.5 37.5 q-19.5 16.5 -59.5 31.5 q-16 6 -25 17.5 q-9 11.5 -9 24.5 q0 17 12 30 q12 13 29 13 q10 0 15 -1 q103 -21 143 -67.5 q40 -46.5 40 -123.5 l-2 -102 q0 -54 24 -81 q24 -27 65 -29 l4 0 Z" /><glyph glyph-name="bracketleft" unicode="[" d="M339 -95 q21 0 34.5 -13.5 q13.5 -13.5 13.5 -34.5 q0 -20 -13.5 -33.5 q-13.5 -13.5 -34.5 -13.5 l-211 0 q-21 0 -34.5 13.5 q-13.5 13.5 -13.5 34.5 l0 794 q0 21 13.5 34.5 q13.5 13.5 34.5 13.5 l211 0 q21 0 34.5 -13.5 q13.5 -13.5 13.5 -34.5 q0 -20 -13.5 -33.5 q-13.5 -13.5 -34.5 -13.5 l-144 0 l0 -700 l144 0 Z" /><glyph glyph-name="bracketright" unicode="]" d="M279 700 q21 0 34.5 -13.5 q13.5 -13.5 13.5 -34.5 l0 -794 q0 -21 -13.5 -34.5 q-13.5 -13.5 -34.5 -13.5 l-211 0 q-21 0 -34.5 13.5 q-13.5 13.5 -13.5 34.5 q0 20 13.5 33.5 q13.5 13.5 34.5 13.5 l144 0 l0 700 l-144 0 q-21 0 -34.5 13.5 q-13.5 13.5 -13.5 34.5 q0 20 13.5 33.5 q13.5 13.5 34.5 13.5 l211 0 Z" /><glyph glyph-name="parenleft" unicode="(" d="M292 -182 q-15 0 -27 8 q-114 76 -174.5 188.5 q-60.5 112.5 -60.5 244.5 q0 132 60.5 244.5 q60.5 112.5 174.5 188.5 q12 8 27 8 q22 0 36 -17 q14 -17 14 -35 q0 -23 -21 -40 q-85 -66 -127.5 -156 q-42.5 -90 -42.5 -193 q0 -105 42 -196.5 q42 -91.5 128 -152.5 q21 -15 21 -40 q0 -19 -15 -35.5 q-15 -16.5 -35 -16.5 Z" /><glyph glyph-name="parenright" unicode=")" d="M65 -182 q-22 0 -36 17 q-14 17 -14 35 q0 23 21 40 q85 66 127.5 156 q42.5 90 42.5 193 q0 105 -42 196.5 q-42 91.5 -128 152.5 q-21 15 -21 40 q0 19 15 35.5 q15 16.5 35 16.5 q15 0 27 -8 q114 -76 174.5 -188.5 q60.5 -112.5 60.5 -244.5 q0 -132 -60.5 -244.5 q-60.5 -112.5 -174.5 -188.5 q-12 -8 -27 -8 Z" /><glyph glyph-name="emdash" unicode="&#x2014;" d="M111 249 q-26 0 -43.5 16.5 q-17.5 16.5 -17.5 41.5 q0 25 17.5 41 q17.5 16 43.5 16 l664 0 q26 0 43.5 -16 q17.5 -16 17.5 -41 q0 -25 -17.5 -41.5 q-17.5 -16.5 -43.5 -16.5 l-664 0 Z" /><glyph glyph-name="endash" unicode="&#x2013;" d="M111 249 q-26 0 -43.5 16.5 q-17.5 16.5 -17.5 41.5 q0 25 17.5 41 q17.5 16 43.5 16 l294 0 q26 0 43.5 -16 q17.5 -16 17.5 -41 q0 -25 -17.5 -41.5 q-17.5 -16.5 -43.5 -16.5 l-294 0 Z" /><glyph glyph-name="hyphen" unicode="-" d="M111 247 q-26 0 -43.5 17 q-17.5 17 -17.5 43 q0 25 17.5 42 q17.5 17 43.5 17 l174 0 q26 0 43.5 -17.5 q17.5 -17.5 17.5 -43.5 q0 -25 -17.5 -41.5 q-17.5 -16.5 -43.5 -16.5 l-174 0 Z" /><glyph glyph-name="guilsinglleft" unicode="&#x2039;" d="M229 136 q11 -14 11 -33 q0 -24 -17.5 -38.5 q-17.5 -14.5 -36.5 -14.5 q-11 0 -21.5 5.5 q-10.5 5.5 -17.5 15.5 l-119 165 q-9 14 -9 28 q0 15 9 27 l121 164 q14 20 38 20 q19 0 35.5 -14.5 q16.5 -14.5 16.5 -35.5 q0 -17 -13 -35 l-92 -125 l95 -129 Z" /><glyph glyph-name="guilsinglright" unicode="&#x203a;" d="M231 289 q9 -13 9 -28 q0 -15 -9 -27 l-121 -164 q-14 -20 -38 -20 q-19 0 -35.5 14.5 q-16.5 14.5 -16.5 35.5 q0 17 13 35 l92 125 l-95 129 q-11 14 -11 33 q0 24 17.5 38.5 q17.5 14.5 36.5 14.5 q11 0 21.5 -5.5 q10.5 -5.5 17.5 -15.5 l119 -165 Z" /><glyph glyph-name="quotedblright" unicode="&#x201d;" d="M204 576 q0 -23 -17 -58 q-17 -35 -44 -61 q-27 -26 -56 -26 q-22 0 -35 9.5 q-13 9.5 -13 30.5 q0 16 8 22.5 q8 6.5 17.5 9.5 q9.5 3 13.5 5 q28 15 28 40 q0 11 -10.5 19.5 q-10.5 8.5 -27.5 8.5 q-17 0 -28 -7 q-12 5 -18.5 13 q-6.5 8 -6.5 24 q0 20 15 37.5 q15 17.5 37 28 q22 10.5 43 10.5 q44 0 69 -27.5 q25 -27.5 25 -78.5 ZM425 576 q0 -23 -17 -58 q-17 -35 -44 -61 q-27 -26 -56 -26 q-22 0 -35 9.5 q-13 9.5 -13 30.5 q0 16 8 22.5 q8 6.5 17.5 9.5 q9.5 3 13.5 5 q28 15 28 40 q0 11 -10.5 19.5 q-10.5 8.5 -27.5 8.5 q-17 0 -28 -7 q-12 5 -18.5 13 q-6.5 8 -6.5 24 q0 20 15 37.5 q15 17.5 37 28 q22 10.5 43 10.5 q44 0 69 -27.5 q25 -27.5 25 -78.5 Z" /><glyph glyph-name="quoteleft" unicode="&#x2018;" d="M28 560 q0 23 17 58 q17 35 44 61 q27 26 56 26 q22 0 35 -9.5 q13 -9.5 13 -30.5 q0 -16 -8 -22.5 q-8 -6.5 -17.5 -9.5 q-9.5 -3 -13.5 -5 q-28 -15 -28 -40 q0 -11 10.5 -19.5 q10.5 -8.5 27.5 -8.5 q17 0 28 7 q12 -5 18.5 -13 q6.5 -8 6.5 -24 q0 -20 -15 -37.5 q-15 -17.5 -37 -28 q-22 -10.5 -43 -10.5 q-44 0 -69 27.5 q-25 27.5 -25 78.5 Z" /><glyph glyph-name="quoteright" unicode="&#x2019;" d="M217 599 q0 -23 -17 -58 q-17 -35 -44 -61 q-27 -26 -56 -26 q-22 0 -35 9.5 q-13 9.5 -13 30.5 q0 16 8 22.5 q8 6.5 17.5 9.5 q9.5 3 13.5 5 q28 15 28 40 q0 11 -10.5 19.5 q-10.5 8.5 -27.5 8.5 q-17 0 -28 -7 q-12 5 -18.5 13 q-6.5 8 -6.5 24 q0 20 15 37.5 q15 17.5 37 28 q22 10.5 43 10.5 q44 0 69 -27.5 q25 -27.5 25 -78.5 Z" /><glyph glyph-name="uni2007" unicode="&#x2007;" d="" /><glyph glyph-name="uni200A" unicode="&#x200a;" d="" /><glyph glyph-name="uni2008" unicode="&#x2008;" d="" /><glyph glyph-name="uni00A0" unicode=" " d="" /><glyph glyph-name="uni2009" unicode="&#x2009;" d="" /><glyph glyph-name="uni200B" unicode="&#x200b;" d="" /><glyph glyph-name="uni20B5" unicode="&#x20b5;" d="M582 119 q15 -19 15 -41 q0 -16 -8 -29 q-8 -13 -23 -20 q-69 -34 -147 -39 l0 -47 q0 -26 -17.5 -43.5 q-17.5 -17.5 -43.5 -17.5 q-25 0 -42 17.5 q-17 17.5 -17 43.5 l0 59 q-116 28 -187.5 118 q-71.5 90 -71.5 230 q0 84 32.5 155 q32.5 71 91 119.5 q58.5 48.5 135.5 68.5 l0 54 q0 26 17.5 43.5 q17.5 17.5 43.5 17.5 q25 0 42 -17.5 q17 -17.5 17 -43.5 l0 -42 q77 -4 146 -39 q31 -16 31 -51 q0 -21 -15 -41 q-16 -21 -41 -21 q-17 0 -34 9 q-45 22 -97 23 l0 -475 q57 2 97 23 q18 8 32 8 q26 0 44 -22 ZM170 350 q0 -89 37 -145.5 q37 -56.5 102 -79.5 l0 445 q-66 -24 -102.5 -82 q-36.5 -58 -36.5 -138 Z" /><glyph glyph-name="cent" unicode="¢" d="M493 171 q0 -30 -41.5 -54.5 q-41.5 -24.5 -103.5 -32.5 l0 -23 q0 -26 -17.5 -43.5 q-17.5 -17.5 -43.5 -17.5 q-25 0 -42 17.5 q-17 17.5 -17 43.5 l0 26 q-89 22 -141 95.5 q-52 73.5 -52 174.5 q0 102 52.5 174.5 q52.5 72.5 140.5 95.5 l0 32 q0 26 17.5 43.5 q17.5 17.5 43.5 17.5 q25 0 42 -17.5 q17 -17.5 17 -43.5 l0 -27 q64 -7 101.5 -32 q37.5 -25 37.5 -62 q0 -23 -14 -40 q-14 -17 -40 -17 q-18 0 -30.5 7.5 q-12.5 7.5 -26.5 23.5 q-15 17 -38 22 l0 -355 q27 6 43 23 q15 15 26.5 22 q11.5 7 31.5 7 q25 0 39.5 -17.5 q14.5 -17.5 14.5 -42.5 ZM155 357 q0 -58 22.5 -101.5 q22.5 -43.5 60.5 -64.5 l0 333 q-38 -19 -60.5 -63 q-22.5 -44 -22.5 -104 Z" /><glyph glyph-name="colonmonetary" unicode="&#x20a1;" d="M688 722 q0 -12 -6 -24 l-288 -588 l6 0 q61 0 106 23 q18 8 32 8 q26 0 44 -22 q15 -19 15 -41 q0 -16 -8 -29 q-8 -13 -23 -20 q-78 -39 -166 -39 q-35 0 -62 4 l-44 -89 q-7 -14 -18.5 -21.5 q-11.5 -7.5 -26.5 -7.5 q-21 0 -36.5 14.5 q-15.5 14.5 -15.5 34.5 q0 12 6 24 l36 73 q-26 12 -50 28 l-61 -125 q-7 -14 -18.5 -21.5 q-11.5 -7.5 -26.5 -7.5 q-21 0 -36.5 14.5 q-15.5 14.5 -15.5 34.5 q0 12 6 24 l74 152 q-71 94 -71 229 q0 101 45.5 181.5 q45.5 80.5 127 126.5 q81.5 46 183.5 47 l34 70 q7 14 18.5 22 q11.5 8 25.5 8 q19 0 35.5 -14.5 q16.5 -14.5 16.5 -35.5 q0 -12 -6 -24 l-19 -40 q30 -8 56 -21 l35 72 q7 14 18.5 22 q11.5 8 25.5 8 q19 0 35.5 -14.5 q16.5 -14.5 16.5 -35.5 ZM243 162 q22 -19 49 -31 l212 432 q-27 12 -57 18 l-204 -419 ZM170 350 q0 -47 11 -86 l153 313 q-77 -19 -120.5 -79.5 q-43.5 -60.5 -43.5 -147.5 Z" /><glyph glyph-name="currency" unicode="¤" d="M490 187 q20 -20 20 -42 q0 -22 -21 -44.5 q-21 -22.5 -43 -22.5 q-21 0 -43 22 l-32 32 q-40 -19 -82 -19 q-46 0 -86 20 l-32 -32 q-21 -21 -43 -21 q-22 0 -44 21 q-22 21 -22 43 q0 22 22 44 l34 34 q-18 38 -18 81 q0 45 18 81 l-34 35 q-21 21 -21 43 q0 21 21.5 44 q21.5 23 43.5 23 q22 0 43 -21 l34 -35 q38 20 84 20 q41 0 82 -18 l32 32 q20 20 42 20 q23 0 45 -21 q22 -21 22 -43 q0 -22 -21 -43 l-32 -32 q20 -38 20 -85 q0 -45 -20 -85 l31 -31 ZM220 303 q0 -34 18.5 -56.5 q18.5 -22.5 51.5 -22.5 q33 0 51 22.5 q18 22.5 18 56.5 q0 35 -18 57.5 q-18 22.5 -51 22.5 q-33 0 -51.5 -22.5 q-18.5 -22.5 -18.5 -57.5 Z" /><glyph glyph-name="dollar" unicode="$" d="M557 199 q0 -77 -52 -130 q-52 -53 -133 -71 l0 -62 q0 -26 -17.5 -43.5 q-17.5 -17.5 -43.5 -17.5 q-25 0 -42 17.5 q-17 17.5 -17 43.5 l0 56 q-54 5 -98.5 23 q-44.5 18 -86.5 54 q-27 24 -27 53 q0 23 17 40.5 q17 17.5 41 17.5 q19 0 34 -12 q31 -25 59 -39.5 q28 -14.5 61 -19.5 l0 195 q-201 37 -201 201 q0 83 56 136.5 q56 53.5 145 65.5 l0 33 q0 26 17.5 43.5 q17.5 17.5 43.5 17.5 q25 0 42 -17.5 q17 -17.5 17 -43.5 l0 -37 q85 -15 140 -62 q29 -23 29 -53 q0 -23 -17 -40.5 q-17 -17.5 -40 -17.5 q-15 0 -27 9 q-30 25 -85 43 l0 -185 q97 -23 141 -67.5 q44 -44.5 44 -130.5 ZM169 510 q0 -33 21 -53.5 q21 -20.5 62 -32.5 l0 166 q-41 -8 -62 -29 q-21 -21 -21 -51 ZM372 118 q29 12 47 31.5 q18 19.5 18 42.5 q0 28 -16 48.5 q-16 20.5 -49 34.5 l0 -157 Z" /><glyph glyph-name="dong" unicode="&#x20ab;" d="M427 615 q22 0 36.5 -13.5 q14.5 -13.5 14.5 -33.5 q0 -21 -14.5 -34.5 q-14.5 -13.5 -36.5 -13.5 l-24 0 l0 -289 q0 -26 -17 -43.5 q-17 -17.5 -43 -17.5 q-22 0 -38 13 q-16 13 -21 34 q-17 -24 -42 -40.5 q-25 -16.5 -56 -16.5 q-36 0 -69.5 22.5 q-33.5 22.5 -55 62 q-21.5 39.5 -21.5 87.5 q0 49 21.5 88.5 q21.5 39.5 56.5 62 q35 22.5 74 22.5 q56 0 91 -44 l0 59 l-40 0 q-22 0 -36.5 13.5 q-14.5 13.5 -14.5 34.5 q0 20 14.5 33.5 q14.5 13.5 36.5 13.5 l40 0 l0 24 q0 26 17 43.5 q17 17.5 43 17.5 q26 0 43 -17 q17 -17 17 -44 l0 -24 l24 0 ZM221 258 q29 0 48 23 q19 23 19 51 q0 31 -19 54 q-19 23 -48 23 q-29 0 -45 -22.5 q-16 -22.5 -16 -54.5 q0 -29 16 -51.5 q16 -22.5 45 -22.5 ZM393 94 q21 0 34.5 -13.5 q13.5 -13.5 13.5 -34.5 q0 -20 -13.5 -33 q-13.5 -13 -34.5 -13 l-304 0 q-21 0 -34.5 13.5 q-13.5 13.5 -13.5 33.5 q0 20 13.5 33.5 q13.5 13.5 34.5 13.5 l304 0 Z" /><glyph glyph-name="Euro" unicode="&#x20ac;" d="M582 119 q15 -19 15 -41 q0 -16 -8 -29 q-8 -13 -23 -20 q-69 -39 -146 -39 q-111 0 -197.5 57.5 q-86.5 57.5 -121.5 165.5 l-47 0 q-26 0 -43.5 16.5 q-17.5 16.5 -17.5 41.5 q0 25 17.5 41 q17.5 16 43.5 16 l26 0 l0 22 l0 15 l-26 0 q-26 0 -43.5 16.5 q-17.5 16.5 -17.5 41.5 q0 25 17.5 41 q17.5 16 43.5 16 l47 0 q35 103 120.5 164 q85.5 61 198.5 61 q78 0 145 -39 q31 -16 31 -51 q0 -21 -15 -41 q-16 -21 -41 -21 q-17 0 -34 9 q-40 23 -86 23 q-62 0 -111 -28 q-49 -28 -77 -77 l126 0 q26 0 43.5 -16 q17.5 -16 17.5 -41 q0 -25 -17.5 -41.5 q-17.5 -16.5 -43.5 -16.5 l-158 0 l0 -15 q0 -15 1 -22 l157 0 q26 0 43.5 -16 q17.5 -16 17.5 -41 q0 -25 -17.5 -41.5 q-17.5 -16.5 -43.5 -16.5 l-127 0 q29 -51 78 -77 q49 -26 111 -26 q49 0 86 23 q18 8 32 8 q26 0 44 -22 Z" /><glyph glyph-name="florin" unicode="&#x192;" d="M441 700 q24 -5 35.5 -18.5 q11.5 -13.5 11.5 -31.5 q0 -21 -12 -35 q-12 -14 -31 -14 l-36 1 q-35 0 -54 -18 q-19 -18 -27 -59 l-12 -68 l76 0 q22 0 36.5 -14 q14.5 -14 14.5 -36 q0 -22 -14 -36.5 q-14 -14.5 -37 -14.5 l-94 0 l-38 -211 q-14 -80 -56 -115 q-42 -35 -120 -35 q-65 0 -65 53 q0 24 12.5 36 q12.5 12 32.5 12 q7 0 17.5 -2 q10.5 -2 16.5 -2 q17 0 27 19.5 q10 19.5 16 51.5 l35 193 l-42 0 q-22 0 -36.5 14.5 q-14.5 14.5 -14.5 36.5 q0 22 14.5 36 q14.5 14 36.5 14 l60 0 l17 93 q14 78 55 116.5 q41 38.5 120 38.5 q31 0 55 -5 Z" /><glyph glyph-name="franc" unicode="&#x20a3;" d="M200 585 l0 -176 l216 0 q26 0 43.5 -16.5 q17.5 -16.5 17.5 -42.5 q0 -22 -17.5 -39 q-17.5 -17 -43.5 -17 l-216 0 l0 -51 l29 0 q26 0 43.5 -15.5 q17.5 -15.5 17.5 -38.5 q0 -25 -17.5 -40.5 q-17.5 -15.5 -43.5 -15.5 l-29 0 l0 -72 q0 -26 -18.5 -43.5 q-18.5 -17.5 -43.5 -17.5 q-28 0 -45.5 17 q-17.5 17 -17.5 44 l0 72 l-20 0 q-26 0 -43.5 15.5 q-17.5 15.5 -17.5 40.5 q0 23 17.5 38.5 q17.5 15.5 43.5 15.5 l20 0 l0 396 q0 26 17.5 43.5 q17.5 17.5 43.5 17.5 l325 0 q26 0 43.5 -16.5 q17.5 -16.5 17.5 -42.5 q0 -22 -17.5 -39 q-17.5 -17 -43.5 -17 l-261 0 Z" /><glyph glyph-name="uni20B2" unicode="&#x20b2;" d="M591 378 q26 0 43 -17.5 q17 -17.5 17 -43.5 l0 -212 q0 -35 -31 -54 q-95 -60 -209 -61 l0 -44 q0 -26 -17.5 -43.5 q-17.5 -17.5 -43.5 -17.5 q-25 0 -42 17.5 q-17 17.5 -17 43.5 l0 62 q-73 23 -130 73.5 q-57 50.5 -89 120 q-32 69.5 -32 148.5 q0 79 32 148.5 q32 69.5 89 120 q57 50.5 130 73.5 l0 58 q0 26 17.5 43.5 q17.5 17.5 43.5 17.5 q25 0 42 -17.5 q17 -17.5 17 -43.5 l0 -40 q97 -2 166 -40 q15 -8 22.5 -21 q7.5 -13 7.5 -28 q0 -25 -16.5 -43.5 q-16.5 -18.5 -40.5 -18.5 q-15 0 -33 8 q-52 22 -106 23 l0 -214 q10 2 16 2 l164 0 ZM170 350 q0 -66 33 -122 q33 -56 88 -88 l0 420 q-55 -31 -88 -87.5 q-33 -56.5 -33 -122.5 ZM411 110 q66 2 110 18 l0 130 l-94 0 q-6 0 -16 2 l0 -150 Z" /><glyph glyph-name="uni20AD" unicode="&#x20ad;" d="M611 104 q6 -8 10 -19.5 q4 -11.5 4 -21.5 q0 -27 -20.5 -45 q-20.5 -18 -47.5 -18 q-13 0 -25 6 q-12 6 -20 17 l-217 286 l-95 -91 l0 -157 q0 -27 -17.5 -44 q-17.5 -17 -45.5 -17 q-27 0 -44.5 17.5 q-17.5 17.5 -17.5 43.5 l0 243 l-32 0 q-26 0 -43.5 16.5 q-17.5 16.5 -17.5 41.5 q0 25 17.5 41 q17.5 16 43.5 16 l32 0 l0 220 q0 26 18 43.5 q18 17.5 46 17.5 q27 0 44 -17 q17 -17 17 -44 l0 -272 l320 315 q23 23 49 23 q23 0 39 -19 q16 -19 16 -40 q0 -21 -18 -39 l-196 -188 l157 0 q26 0 43.5 -16 q17.5 -16 17.5 -41 q0 -25 -17.5 -41.5 q-17.5 -16.5 -43.5 -16.5 l-107 0 l151 -200 Z" /><glyph glyph-name="lira" unicode="&#x20a4;" d="M555 122 q23 0 36 -15.5 q13 -15.5 13 -38.5 q0 -26 -19 -44.5 q-19 -18.5 -60 -32.5 q-37 -13 -89 -11 q-22 1 -60 9 q-38 8 -75 17 q-90 23 -115 23 q-46 0 -75 -9 q-8 -3 -13.5 -5.5 q-5.5 -2.5 -9.5 -4.5 q-18 -10 -31 -10 q-19 0 -32.5 14 q-13.5 14 -13.5 36 q0 22 14 39 q14 17 39 28 q27 12 76 17 q11 24 14 55 l-79 0 q-24 0 -40 15 q-16 15 -16 38 q0 22 16 37 q16 15 40 15 l71 0 q-4 16 -7 24 l-57 0 q-23 0 -38.5 15.5 q-15.5 15.5 -15.5 38.5 q0 22 15.5 36 q15.5 14 38.5 14 l22 0 q-13 46 -13 72 q0 63 27.5 112 q27.5 49 79.5 76.5 q52 27.5 123 27.5 q39 0 75.5 -9.5 q36.5 -9.5 65.5 -25.5 q27 -15 42 -33.5 q15 -18.5 15 -37.5 q0 -25 -18 -43 q-18 -18 -42 -18 q-13 0 -25 5 q-12 5 -19 12 q-20 18 -42 27 q-22 9 -51 9 q-50 0 -78.5 -31.5 q-28.5 -31.5 -28.5 -73.5 q0 -23 16 -69 l139 0 q23 0 38.5 -15.5 q15.5 -15.5 15.5 -38.5 q0 -22 -15.5 -36 q-15.5 -14 -38.5 -14 l-103 0 q3 -8 7 -24 l105 0 q24 0 40 -15 q16 -15 16 -37 q0 -23 -16 -38 q-16 -15 -40 -15 l-108 0 q-8 -30 -24 -56 q23 -4 48.5 -12 q25.5 -8 33.5 -10 q38 -12 61.5 -18 q23.5 -6 46.5 -6 q28 0 77 23 q24 12 41 12 Z" /><glyph glyph-name="uni20BA" unicode="&#x20ba;" d="M515 265 q28 0 44 -19 q16 -19 16 -44 q0 -51 -45.5 -100.5 q-45.5 -49.5 -120.5 -80.5 q-75 -31 -158 -31 q-105 0 -105 61 l0 142 l-25 -11 q-12 -5 -21 -5 q-24 0 -37.5 17 q-13.5 17 -13.5 36 q0 14 8.5 25.5 q8.5 11.5 23.5 18.5 l65 29 l0 73 l-59 -26 q-12 -5 -21 -5 q-24 0 -37.5 17 q-13.5 17 -13.5 36 q0 14 8.5 25.5 q8.5 11.5 23.5 18.5 l99 44 l0 153 q0 26 17.5 43.5 q17.5 17.5 43.5 17.5 q25 0 42 -17.5 q17 -17.5 17 -43.5 l0 -100 l75 33 q12 5 22 5 q23 0 36.5 -17 q13.5 -17 13.5 -35 q0 -14 -8.5 -26 q-8.5 -12 -23.5 -19 l-115 -51 l0 -73 l109 48 q12 5 22 5 q23 0 36.5 -17 q13.5 -17 13.5 -35 q0 -14 -8.5 -26 q-8.5 -12 -23.5 -19 l-148 -66 l0 -136 q66 2 118.5 30 q52.5 28 75.5 93 q6 15 21 23.5 q15 8.5 33 8.5 Z" /><glyph glyph-name="uni20BC" unicode="&#x20bc;" d="M413 695 q99 -19 158 -94 q59 -75 59 -183 l0 -362 q0 -26 -18 -43.5 q-18 -17.5 -46 -17.5 q-24 0 -42 17.5 q-18 17.5 -18 43.5 l0 362 q0 53 -25.5 92.5 q-25.5 39.5 -67.5 57.5 l0 -246 q0 -26 -17.5 -43.5 q-17.5 -17.5 -43.5 -17.5 q-25 0 -42 17.5 q-17 17.5 -17 43.5 l0 249 q-46 -17 -75 -57.5 q-29 -40.5 -29 -95.5 l0 -362 q0 -27 -15 -44 q-15 -17 -41 -17 q-26 0 -42 17 q-16 17 -16 44 l0 362 q0 109 59.5 184 q59.5 75 158.5 94 l0 44 q0 26 17.5 43.5 q17.5 17.5 43.5 17.5 q25 0 42 -17.5 q17 -17.5 17 -43.5 l0 -45 Z" /><glyph glyph-name="uni20A6" unicode="&#x20a6;" d="M705 414 q26 0 43.5 -16 q17.5 -16 17.5 -41 q0 -25 -17.5 -41.5 q-17.5 -16.5 -43.5 -16.5 l-45 0 l0 -238 q0 -26 -17.5 -43.5 q-17.5 -17.5 -43.5 -17.5 q-14 0 -27.5 4.5 q-13.5 4.5 -19.5 12.5 l-230 292 l-137 0 l0 -253 q0 -24 -15.5 -40 q-15.5 -16 -40.5 -16 q-24 0 -39 16 q-15 16 -15 40 l0 243 l-34 0 q-26 0 -43.5 16.5 q-17.5 16.5 -17.5 41.5 q0 25 17.5 41 q17.5 16 43.5 16 l34 0 l0 225 q0 26 17.5 43.5 q17.5 17.5 43.5 17.5 q15 0 29.5 -6 q14.5 -6 21.5 -16 l215 -274 l149 0 l0 240 q0 24 15.5 40 q15.5 16 39.5 16 q24 0 39 -16 q15 -16 15 -40 l0 -230 l45 0 ZM185 404 l62 0 l-62 79 l0 -79 ZM551 309 l-75 0 l75 -95 l0 95 Z" /><glyph glyph-name="peseta" unicode="&#x20a7;" d="M594 532 q26 0 43.5 -16 q17.5 -16 17.5 -41 q0 -25 -17.5 -41.5 q-17.5 -16.5 -43.5 -16.5 l-38 0 q-18 -72 -72.5 -119.5 q-54.5 -47.5 -119.5 -47.5 l-174 0 l0 -189 q0 -27 -16 -44 q-16 -17 -42 -17 q-25 0 -41 17.5 q-16 17.5 -16 43.5 l0 356 l-35 0 q-26 0 -43.5 16.5 q-17.5 16.5 -17.5 41.5 q0 25 17.5 41 q17.5 16 43.5 16 l35 0 l0 107 q0 26 17.5 43.5 q17.5 17.5 43.5 17.5 l228 0 q66 0 120.5 -47.5 q54.5 -47.5 71.5 -120.5 l38 0 ZM190 532 l240 0 q-11 24 -29 38.5 q-18 14.5 -37 14.5 l-174 0 l0 -53 ZM364 364 q18 0 36 15 q18 15 29 38 l-239 0 l0 -53 l174 0 Z" /><glyph glyph-name="uni20B1" unicode="&#x20b1;" d="M574 469 q30 0 45.5 -10 q15.5 -10 15.5 -36 q0 -21 -17 -32 q-17 -11 -44 -11 l-31 0 q-25 -58 -74 -94 q-49 -36 -105 -36 l-174 0 l0 -189 q0 -27 -16 -44 q-16 -17 -42 -17 q-25 0 -41 17.5 q-16 17.5 -16 43.5 l0 319 l-35 0 q-28 0 -44.5 12 q-16.5 12 -16.5 36 q0 17 17.5 29 q17.5 12 43.5 12 l35 0 l0 21 l-35 0 q-29 0 -45 9 q-16 9 -16 33 q0 43 61 43 l35 0 l0 64 q0 26 17.5 43.5 q17.5 17.5 43.5 17.5 l228 0 q55 0 103.5 -34.5 q48.5 -34.5 73.5 -90.5 l33 0 q61 0 61 -44 q0 -24 -15.5 -32.5 q-15.5 -8.5 -45.5 -8.5 l-11 0 l0 -15 l0 -6 l11 0 ZM415 555 q-11 14 -24.5 22 q-13.5 8 -26.5 8 l-174 0 l0 -30 l225 0 ZM190 455 l251 0 q2 14 2 20 q0 13 -3 25 l-250 0 l0 -45 ZM364 364 q15 0 29.5 9.5 q14.5 9.5 25.5 26.5 l-229 0 l0 -36 l174 0 Z" /><glyph glyph-name="uni20BD" unicode="&#x20bd;" d="M364 700 q51 0 97 -30.5 q46 -30.5 74 -82 q28 -51.5 28 -112.5 q0 -60 -28 -112 q-28 -52 -74 -82.5 q-46 -30.5 -97 -30.5 l-174 0 l0 -36 l46 0 q26 0 43.5 -15.5 q17.5 -15.5 17.5 -38.5 q0 -25 -17.5 -40.5 q-17.5 -15.5 -43.5 -15.5 l-46 0 l0 -43 q0 -27 -16 -44 q-16 -17 -42 -17 q-25 0 -41 17.5 q-16 17.5 -16 43.5 l0 43 l-13 0 q-26 0 -43.5 15.5 q-17.5 15.5 -17.5 40.5 q0 23 17.5 38.5 q17.5 15.5 43.5 15.5 l13 0 l0 40 l-13 0 q-26 0 -43.5 16.5 q-17.5 16.5 -17.5 41.5 q0 25 17.5 41 q17.5 16 43.5 16 l13 0 l0 270 q0 26 17.5 43.5 q17.5 17.5 43.5 17.5 l228 0 ZM364 364 q19 0 37.5 16 q18.5 16 30 41.5 q11.5 25.5 11.5 53.5 q0 28 -11.5 53.5 q-11.5 25.5 -30 41 q-18.5 15.5 -37.5 15.5 l-174 0 l0 -221 l174 0 Z" /><glyph glyph-name="uni20B9" unicode="&#x20b9;" d="M457 543 q26 0 43.5 -15.5 q17.5 -15.5 17.5 -38.5 q0 -25 -17.5 -40.5 q-17.5 -15.5 -43.5 -15.5 l-12 0 q-9 -34 -34 -67.5 q-25 -33.5 -56 -54.5 q27 -24 45 -55.5 q18 -31.5 21 -61.5 q3 -16 3 -31 q4 -31 8 -44.5 q4 -13.5 18 -20.5 q13 -8 20.5 -21 q7.5 -13 7.5 -27 q0 -23 -16 -37 q-16 -14 -42 -14 q-30 0 -56.5 19 q-26.5 19 -43 59 q-16.5 40 -16.5 100 q0 36 -23.5 57 q-23.5 21 -67.5 21 l-77 0 q-27 0 -44 15 q-17 15 -17 41 q0 25 17 39 q17 14 44 14 l109 0 q20 0 38.5 19 q18.5 19 28.5 50 l-29 0 q-26 0 -43.5 15.5 q-17.5 15.5 -17.5 40.5 q0 23 17.5 38.5 q17.5 15.5 43.5 15.5 l19 0 q-10 17 -25.5 27 q-15.5 10 -31.5 10 l-109 0 q-26 0 -43.5 17.5 q-17.5 17.5 -17.5 43.5 q0 25 17.5 42 q17.5 17 43.5 17 l321 0 q26 0 43.5 -17.5 q17.5 -17.5 17.5 -43.5 q0 -25 -17.5 -42 q-17.5 -17 -43.5 -17 l-64 0 q20 -17 33 -37 l31 0 Z" /><glyph glyph-name="sterling" unicode="£" d="M555 122 q23 0 36 -15.5 q13 -15.5 13 -38.5 q0 -26 -19 -44.5 q-19 -18.5 -60 -32.5 q-37 -13 -89 -11 q-22 1 -60 9 q-38 8 -75 17 q-90 23 -115 23 q-46 0 -75 -9 q-8 -3 -13.5 -5.5 q-5.5 -2.5 -9.5 -4.5 q-18 -10 -31 -10 q-19 0 -32.5 14 q-13.5 14 -13.5 36 q0 22 14 39 q14 17 39 28 q27 12 76 17 q16 34 16 83 q0 47 -17 101 l-57 0 q-23 0 -38.5 15.5 q-15.5 15.5 -15.5 38.5 q0 22 15.5 36 q15.5 14 38.5 14 l22 0 q-13 46 -13 72 q0 63 27.5 112 q27.5 49 79.5 76.5 q52 27.5 123 27.5 q39 0 75.5 -9.5 q36.5 -9.5 65.5 -25.5 q27 -15 42 -33.5 q15 -18.5 15 -37.5 q0 -25 -18 -43 q-18 -18 -42 -18 q-13 0 -25 5 q-12 5 -19 12 q-20 18 -42 27 q-22 9 -51 9 q-50 0 -78.5 -31.5 q-28.5 -31.5 -28.5 -73.5 q0 -23 16 -69 l139 0 q23 0 38.5 -15.5 q15.5 -15.5 15.5 -38.5 q0 -22 -15.5 -36 q-15.5 -14 -38.5 -14 l-103 0 q13 -41 13 -70 q0 -56 -33 -115 q23 -4 48.5 -12 q25.5 -8 33.5 -10 q38 -12 61.5 -18 q23.5 -6 46.5 -6 q28 0 77 23 q24 12 41 12 Z" /><glyph glyph-name="uni20A9" unicode="&#x20a9;" d="M927 638 q0 -9 -3 -20 l-69 -204 l2 0 q26 0 43.5 -16 q17.5 -16 17.5 -41 q0 -25 -17.5 -41.5 q-17.5 -16.5 -43.5 -16.5 l-41 0 l-89 -261 q-6 -17 -21 -27 q-15 -10 -33 -11 q-18 0 -34 10 q-16 10 -25 29 l-123 280 l-38 0 l-124 -280 q-9 -19 -25 -29 q-16 -10 -34 -10 q-18 1 -33 11 q-15 10 -21 27 l-89 261 l-44 0 q-26 0 -43.5 16.5 q-17.5 16.5 -17.5 41.5 q0 25 17.5 41 q17.5 16 43.5 16 l5 0 l-69 204 q-3 11 -3 20 q0 28 20.5 46.5 q20.5 18.5 45.5 18.5 q20 0 36 -10.5 q16 -10.5 22 -28.5 l89 -270 l136 0 l54 130 q8 18 23 28.5 q15 10.5 34 9.5 q19 1 33.5 -9.5 q14.5 -10.5 22.5 -28.5 l52 -130 l130 0 l89 270 q6 18 22.5 28.5 q16.5 10.5 36.5 10.5 q24 0 44.5 -18.5 q20.5 -18.5 20.5 -46.5 ZM289 212 l45 107 l-80 0 l35 -107 ZM655 215 l34 104 l-75 0 l41 -104 Z" /><glyph glyph-name="yen" unicode="¥" d="M581 641 q0 -20 -11 -37 l-163 -241 l49 0 q26 0 43.5 -15 q17.5 -15 17.5 -37 q0 -23 -17.5 -38 q-17.5 -15 -43.5 -15 l-88 0 l0 -39 l90 0 q26 0 43.5 -15 q17.5 -15 17.5 -37 q0 -23 -17.5 -38 q-17.5 -15 -43.5 -15 l-90 0 l0 -53 q0 -26 -18.5 -43.5 q-18.5 -17.5 -46.5 -17.5 q-28 0 -46.5 17.5 q-18.5 17.5 -18.5 43.5 l0 53 l-74 0 q-26 0 -43.5 15 q-17.5 15 -17.5 38 q0 22 17.5 37 q17.5 15 43.5 15 l74 0 l0 39 l-76 0 q-26 0 -43.5 15 q-17.5 15 -17.5 38 q0 22 17.5 37 q17.5 15 43.5 15 l44 0 l-171 232 q-18 24 -18 47 q0 25 23 43 q23 18 47 18 q30 0 49 -28 l172 -266 l163 264 q9 14 22.5 22 q13.5 8 27.5 8 q24 0 42 -18 q18 -18 18 -44 Z" /><glyph glyph-name="uni2219" unicode="&#x2219;" d="M134 217 q-34 0 -59 25 q-25 25 -25 59 q0 34 25 58.5 q25 24.5 59 24.5 q34 0 58.5 -24.5 q24.5 -24.5 24.5 -58.5 q0 -34 -24.5 -59 q-24.5 -25 -58.5 -25 Z" /><glyph glyph-name="uni2215" unicode="&#x2215;" d="M83 -134 q-19 0 -36 14.5 q-17 14.5 -17 35.5 q0 12 6 24 l406 831 q7 14 18.5 22 q11.5 8 25.5 8 q22 0 37 -12.5 q15 -12.5 15 -34.5 q0 -15 -6 -27 l-405 -831 q-7 -14 -18.5 -22 q-11.5 -8 -25.5 -8 Z" /><glyph glyph-name="plus" unicode="+" d="M503 350 q24 0 40 -15.5 q16 -15.5 16 -39.5 q0 -24 -16 -39.5 q-16 -15.5 -40 -15.5 l-140 0 l0 -131 q0 -28 -18.5 -46 q-18.5 -18 -46.5 -18 q-28 0 -46.5 18 q-18.5 18 -18.5 46 l0 131 l-137 0 q-24 0 -40 16 q-16 16 -16 40 q0 24 16 39 q16 15 40 15 l137 0 l0 149 q0 28 18.5 46 q18.5 18 47.5 18 q28 0 46 -18 q18 -18 18 -46 l0 -149 l140 0 Z" /><glyph glyph-name="minus" unicode="&#x2212;" d="M109 256 q-25 0 -42 16.5 q-17 16.5 -17 39.5 q0 23 17 38.5 q17 15.5 42 15.5 l401 0 q25 0 42 -15.5 q17 -15.5 17 -38.5 q0 -23 -17 -39.5 q-17 -16.5 -42 -16.5 l-401 0 Z" /><glyph glyph-name="multiply" unicode="×" d="M433 190 q17 -17 17 -40 q0 -24 -17 -39.5 q-17 -15.5 -38 -15.5 q-21 0 -40 17 l-105 105 l-105 -104 q-18 -18 -40 -18 q-21 0 -38 17 q-17 17 -17 39 q0 22 17 39 l105 105 l-105 105 q-16 17 -16 40 q0 24 16.5 40 q16.5 16 37.5 16 q22 0 40 -18 l105 -105 l105 105 q17 17 40 17 q24 0 40 -17.5 q16 -17.5 16 -37.5 q0 -22 -18 -40 l-105 -105 l105 -105 Z" /><glyph glyph-name="divide" unicode="÷" d="M225 465 q0 32 23 55 q23 23 55 23 q32 0 54.5 -23 q22.5 -23 22.5 -55 q0 -31 -22.5 -54 q-22.5 -23 -54.5 -23 q-32 0 -55 22.5 q-23 22.5 -23 54.5 ZM109 230 q-25 0 -42 16.5 q-17 16.5 -17 39.5 q0 23 17 38.5 q17 15.5 42 15.5 l401 0 q25 0 42 -15.5 q17 -15.5 17 -38.5 q0 -23 -17 -39.5 q-17 -16.5 -42 -16.5 l-401 0 ZM225 102 q0 32 23 55 q23 23 55 23 q32 0 54.5 -23 q22.5 -23 22.5 -55 q0 -31 -22.5 -54 q-22.5 -23 -54.5 -23 q-32 0 -55 22.5 q-23 22.5 -23 54.5 Z" /><glyph glyph-name="equal" unicode="=" d="M109 345 q-25 0 -42 16.5 q-17 16.5 -17 39.5 q0 23 17 38.5 q17 15.5 42 15.5 l401 0 q25 0 42 -15.5 q17 -15.5 17 -38.5 q0 -23 -17 -39.5 q-17 -16.5 -42 -16.5 l-401 0 ZM109 151 q-25 0 -42 16.5 q-17 16.5 -17 39.5 q0 23 17 38.5 q17 15.5 42 15.5 l401 0 q25 0 42 -15.5 q17 -15.5 17 -38.5 q0 -23 -17 -39.5 q-17 -16.5 -42 -16.5 l-401 0 Z" /><glyph glyph-name="notequal" unicode="&#x2260;" d="M510 261 q25 0 42 -15.5 q17 -15.5 17 -38.5 q0 -23 -17 -39.5 q-17 -16.5 -42 -16.5 l-237 0 l-45 -84 q-17 -30 -44 -30 q-16 0 -33 10 q-17 10 -17 26 q0 9 7 23 l30 55 l-62 0 q-25 0 -42 16.5 q-17 16.5 -17 39.5 q0 23 17 38.5 q17 15.5 42 15.5 l121 0 l45 84 l-166 0 q-25 0 -42 16.5 q-17 16.5 -17 39.5 q0 23 17 38.5 q17 15.5 42 15.5 l225 0 l50 92 q16 30 43 30 q16 0 33.5 -9.5 q17.5 -9.5 17.5 -26.5 q0 -9 -7 -23 l-34 -63 l73 0 q25 0 42 -15.5 q17 -15.5 17 -38.5 q0 -23 -17 -39.5 q-17 -16.5 -42 -16.5 l-132 0 l-45 -84 l177 0 Z" /><glyph glyph-name="greater" unicode="&gt;" d="M476 296 q12 -7 18 -19.5 q6 -12.5 6 -26.5 q0 -15 -6 -27 q-6 -12 -18 -19 l-325 -187 q-29 -17 -46 -17 q-20 0 -37.5 19.5 q-17.5 19.5 -17.5 40.5 q0 23 22 36 l266 154 l-265 158 q-22 12 -22 39 q0 23 16.5 42 q16.5 19 33.5 19 q10 0 23 -6.5 q13 -6.5 27 -14.5 l325 -191 Z" /><glyph glyph-name="less" unicode="&lt;" d="M452 100 q22 -12 22 -39 q0 -23 -16.5 -42 q-16.5 -19 -33.5 -19 q-10 0 -23 6.5 q-13 6.5 -27 14.5 l-325 191 q-12 7 -18 19.5 q-6 12.5 -6 26.5 q0 15 6 27 q6 12 18 19 l325 187 q29 17 46 17 q20 0 37.5 -19.5 q17.5 -19.5 17.5 -40.5 q0 -23 -22 -36 l-266 -154 l265 -158 Z" /><glyph glyph-name="greaterequal" unicode="&#x2265;" d="M123 434 q-13 5 -19.5 16.5 q-6.5 11.5 -6.5 25.5 q0 21 12.5 38 q12.5 17 31.5 17 q12 0 28 -5 q16 -5 32 -11 l345 -121 q12 -4 18.5 -17 q6.5 -13 6.5 -29 q0 -16 -6.5 -29 q-6.5 -13 -18.5 -17 l-345 -127 q-35 -13 -56 -13 q-21 0 -32 15 q-11 15 -11 35 q0 33 31 47 l238 87 l-248 88 ZM522 110 q25 0 42 -15.5 q17 -15.5 17 -38.5 q0 -23 -17 -39.5 q-17 -16.5 -42 -16.5 l-401 0 q-25 0 -42 16.5 q-17 16.5 -17 39.5 q0 23 17 38.5 q17 15.5 42 15.5 l401 0 Z" /><glyph glyph-name="lessequal" unicode="&#x2264;" d="M97 299 q-12 4 -18.5 17 q-6.5 13 -6.5 29 q0 16 6.5 29 q6.5 13 18.5 17 l345 127 q35 13 56 13 q21 0 32 -15 q11 -15 11 -35 q0 -16 -8 -28.5 q-8 -12.5 -23 -18.5 l-238 -87 l248 -88 q13 -4 19.5 -16 q6.5 -12 6.5 -26 q0 -21 -12.5 -38 q-12.5 -17 -31.5 -17 q-12 0 -28 5 q-16 5 -32 11 l-345 121 ZM522 110 q25 0 42 -15.5 q17 -15.5 17 -38.5 q0 -23 -17 -39.5 q-17 -16.5 -42 -16.5 l-401 0 q-25 0 -42 16.5 q-17 16.5 -17 39.5 q0 23 17 38.5 q17 15.5 42 15.5 l401 0 Z" /><glyph glyph-name="plusminus" unicode="±" d="M503 403 q24 0 40 -15.5 q16 -15.5 16 -39.5 q0 -24 -16 -39.5 q-16 -15.5 -40 -15.5 l-140 0 l0 -74 q0 -28 -18.5 -46 q-18.5 -18 -46.5 -18 q-28 0 -46.5 18 q-18.5 18 -18.5 46 l0 74 l-137 0 q-24 0 -40 16 q-16 16 -16 40 q0 24 16 39 q16 15 40 15 l137 0 l0 96 q0 28 18.5 46 q18.5 18 47.5 18 q28 0 46 -18 q18 -18 18 -46 l0 -96 l140 0 ZM482 111 q24 0 40 -16 q16 -16 16 -40 q0 -24 -16 -40 q-16 -16 -40 -16 l-386 0 q-24 0 -40 16 q-16 16 -16 40 q0 24 16 40 q16 16 40 16 l386 0 Z" /><glyph glyph-name="approxequal" unicode="&#x2248;" d="M416 290 q-25 0 -60.5 12 q-35.5 12 -91.5 35 q-81 35 -104 35 q-10 0 -16 -5.5 q-6 -5.5 -6 -15.5 q0 -2 2 -10 q3 -7 3 -14 q0 -15 -11 -25 q-11 -10 -27 -10 q-23 0 -39 19.5 q-16 19.5 -16 51.5 q0 47 30.5 72.5 q30.5 25.5 92.5 25.5 q24 0 58 -12 q34 -12 89 -35 q77 -35 100 -35 q10 0 16 5.5 q6 5.5 6 14.5 q0 3 -2 11 q-3 8 -3 15 q0 15 11 24.5 q11 9.5 27 9.5 q23 0 39 -19.5 q16 -19.5 16 -49.5 q0 -44 -27.5 -72 q-27.5 -28 -86.5 -28 ZM416 97 q-25 0 -60.5 12 q-35.5 12 -91.5 35 q-81 35 -104 35 q-22 0 -22 -19 q0 -4 2 -12 q3 -7 3 -15 q0 -16 -11 -25 q-11 -9 -27 -9 q-23 0 -39 19.5 q-16 19.5 -16 51.5 q0 47 30.5 72.5 q30.5 25.5 92.5 25.5 q24 0 58 -12 q34 -12 89 -35 q77 -35 100 -35 q22 0 22 18 q0 3 -2 13 q-3 8 -3 15 q0 15 11 24.5 q11 9.5 27 9.5 q23 0 39 -19.5 q16 -19.5 16 -49.5 q0 -44 -27.5 -72 q-27.5 -28 -86.5 -28 Z" /><glyph glyph-name="asciitilde" unicode="~" d="M376 230 q-20 0 -50 9 q-30 9 -79 27 q-69 26 -87 26 q-11 0 -17 -6 q-6 -6 -3 -15 q2 -5 2 -14 q0 -16 -10.5 -25.5 q-10.5 -9.5 -26.5 -9.5 q-23 0 -39 19.5 q-16 19.5 -16 51.5 q0 46 29.5 67 q29.5 21 93.5 21 q20 0 48.5 -9 q28.5 -9 74.5 -27 q67 -26 84 -26 q11 0 17 6 q6 6 3 15 q-2 5 -2 14 q0 16 10.5 25.5 q10.5 9.5 26.5 9.5 q23 0 39 -19.5 q16 -19.5 16 -49.5 q0 -90 -114 -90 Z" /><glyph glyph-name="logicalnot" unicode="¬" d="M581 406 q23 0 37 -14 q14 -14 14 -37 l0 -184 q0 -27 -18.5 -44 q-18.5 -17 -47.5 -17 q-27 0 -45.5 17 q-18.5 17 -18.5 44 l0 115 l-401 0 q-23 0 -37 17 q-14 17 -14 44 q0 26 14.5 42.5 q14.5 16.5 36.5 16.5 l480 0 Z" /><glyph glyph-name="emptyset" unicode="&#x2205;" d="M543 402 q43 -65 43 -145 q0 -73 -36 -134 q-36 -61 -97.5 -97 q-61.5 -36 -134.5 -36 q-78 0 -147 48 l-32 -32 q-24 -22 -47 -22 q-22 0 -38 16.5 q-16 16.5 -16 37.5 q0 22 21 43 l36 35 q-44 66 -44 141 q0 73 36 134.5 q36 61.5 97 97.5 q61 36 134 36 q81 0 148 -45 l30 29 q22 22 47 22 q21 0 37 -16 q16 -16 16 -37 q0 -24 -20 -44 l-33 -32 ZM171 257 q0 -26 10 -56 l203 198 q-32 16 -66 16 q-40 0 -74 -22 q-34 -22 -53.5 -58.5 q-19.5 -36.5 -19.5 -77.5 ZM466 257 q0 29 -10 59 l-203 -199 q31 -17 65 -17 q43 0 77 22 q34 22 52.5 58 q18.5 36 18.5 77 Z" /><glyph glyph-name="infinity" unicode="&#x221e;" d="M642 437 q47 0 86.5 -21.5 q39.5 -21.5 63.5 -65.5 q24 -44 24 -108 q0 -64 -24 -108 q-24 -44 -63.5 -65.5 q-39.5 -21.5 -86.5 -21.5 q-53 0 -88.5 20 q-35.5 20 -77.5 64 l-45 48 l-46 -48 q-44 -45 -78.5 -64.5 q-34.5 -19.5 -87.5 -19.5 q-47 0 -86.5 21.5 q-39.5 21.5 -63.5 65.5 q-24 44 -24 108 q0 64 24 108 q24 44 63.5 65.5 q39.5 21.5 86.5 21.5 q53 0 88 -19.5 q35 -19.5 78 -64.5 l46 -48 l45 48 q42 45 77.5 64.5 q35.5 19.5 88.5 19.5 ZM370 242 l-49 52 q-42 43 -93 43 q-36 0 -59.5 -24 q-23.5 -24 -23.5 -71 q0 -47 23.5 -71 q23.5 -24 59.5 -24 q53 0 93 43 l49 52 ZM633 147 q36 0 59.5 24 q23.5 24 23.5 71 q0 47 -23.5 71 q-23.5 24 -59.5 24 q-51 0 -93 -43 l-49 -52 l49 -52 q42 -43 93 -43 Z" /><glyph glyph-name="integral" unicode="&#x222b;" d="M134 -160 q-119 0 -119 68 q0 30 20 52 q20 22 52 22 q12 0 26 -4 q14 -4 24 -4 q22 0 35.5 23.5 q13.5 23.5 19.5 59.5 l82 486 q37 217 182 217 q121 0 121 -76 q0 -26 -15.5 -44 q-15.5 -18 -43.5 -18 q-12 0 -22 2 q-10 2 -13 3 q-15 5 -29 5 q-25 0 -37 -24.5 q-12 -24.5 -19 -64.5 l-80 -486 q-36 -217 -184 -217 Z" /><glyph glyph-name="uni2126" unicode="&#x2126;" d="M576 120 q25 0 40.5 -17 q15.5 -17 15.5 -43 q0 -26 -15.5 -43 q-15.5 -17 -40.5 -17 l-152 0 q-20 0 -34 14.5 q-14 14.5 -14 41.5 q0 15 3.5 23 q3.5 8 6.5 11.5 q3 3.5 4 4.5 q69 83 104 157 q35 74 35 149 q0 53 -26 96 q-26 43 -70 68 q-44 25 -96 25 q-52 0 -96 -25 q-44 -25 -70 -68 q-26 -43 -26 -96 q0 -75 35 -149 q35 -74 104 -157 q1 -1 5 -5.5 q4 -4.5 6.5 -13 q2.5 -8.5 2.5 -20.5 q0 -27 -14 -41.5 q-14 -14.5 -34 -14.5 l-152 0 q-25 0 -40.5 17 q-15.5 17 -15.5 43 q0 26 15.5 43 q15.5 17 40.5 17 l49 0 q-122 156 -122 282 q0 88 42 158 q42 70 113.5 110 q71.5 40 156.5 40 q85 0 156.5 -40 q71.5 -40 113.5 -110.5 q42 -70.5 42 -158.5 q0 -125 -121 -281 l48 0 Z" /><glyph glyph-name="uni2206" unicode="&#x2206;" d="M677 72 q5 -12 5 -22 q0 -7 -4 -19 q-5 -14 -18 -22.5 q-13 -8.5 -30 -8.5 l-538 0 q-29 0 -43 22 q-9 12 -9 28 q0 9 5 22 l269 602 q7 15 19 23 q12 8 27 8 q16 0 28.5 -8.5 q12.5 -8.5 19.5 -23.5 l269 -601 ZM169 106 q-3 -6 4 -6 l375 0 q7 0 4 6 l-188 420 q-1 3 -3 3 q-2 0 -4 -3 l-188 -420 Z" /><glyph glyph-name="product" unicode="&#x220f;" d="M660 700 q22 0 36.5 -17.5 q14.5 -17.5 14.5 -44.5 q0 -24 -14.5 -41 q-14.5 -17 -36.5 -17 l-59 0 l0 -714 q0 -29 -19 -47.5 q-19 -18.5 -48 -18.5 q-27 0 -45 18.5 q-18 18.5 -18 47.5 l0 714 l-206 0 l0 -714 q0 -29 -19.5 -47.5 q-19.5 -18.5 -48.5 -18.5 q-27 0 -44.5 18.5 q-17.5 18.5 -17.5 47.5 l0 714 l-59 0 q-22 0 -36.5 17.5 q-14.5 17.5 -14.5 44.5 q0 25 14.5 41.5 q14.5 16.5 36.5 16.5 l584 0 Z" /><glyph glyph-name="summation" unicode="&#x2211;" d="M434 97 q22 0 36.5 -13.5 q14.5 -13.5 14.5 -34.5 q0 -22 -14 -35.5 q-14 -13.5 -37 -13.5 l-320 0 q-33 0 -54 19.5 q-21 19.5 -21 46.5 q0 30 23 53 l201 214 l-201 214 q-22 23 -22 53 q0 27 20.5 46.5 q20.5 19.5 53.5 19.5 l320 0 q23 0 37 -14 q14 -14 14 -37 q0 -20 -14.5 -33.5 q-14.5 -13.5 -36.5 -13.5 l-255 0 l183 -202 q14 -16 14 -33 q0 -17 -14 -33 l-183 -203 l255 0 Z" /><glyph glyph-name="radical" unicode="&#x221a;" d="M614 697 q21 0 36.5 -14 q15.5 -14 15.5 -35 q0 -11 -4 -20 l-242 -595 q-7 -18 -19.5 -25.5 q-12.5 -7.5 -31.5 -7.5 q-12 1 -24 8.5 q-12 7.5 -19 20.5 l-149 270 l-56 -24 q-12 -5 -22 -5 q-22 0 -35.5 16 q-13.5 16 -13.5 36 q0 15 8.5 26.5 q8.5 11.5 23.5 18.5 l99 43 q13 6 28 4 q11 -1 21.5 -8 q10.5 -7 17.5 -20 l118 -219 l203 497 q14 33 45 33 Z" /><glyph glyph-name="partialdiff" unicode="&#x2202;" d="M248 743 q86 0 158.5 -67 q72.5 -67 114.5 -175 q42 -108 42 -223 q0 -68 -29 -134.5 q-29 -66.5 -88.5 -110 q-59.5 -43.5 -147.5 -43.5 q-72 0 -132.5 36.5 q-60.5 36.5 -95.5 100 q-35 63.5 -35 140.5 q0 75 36 139 q36 64 93.5 101.5 q57.5 37.5 117.5 37.5 q79 0 134 -57 q-29 55 -70.5 92.5 q-41.5 37.5 -82.5 43.5 q-76 11 -76 60 q0 59 61 59 ZM303 100 q42 0 76 21.5 q34 21.5 53.5 60 q19.5 38.5 19.5 85.5 q0 47 -19.5 85.5 q-19.5 38.5 -53.5 60 q-34 21.5 -76 21.5 q-42 0 -76 -21.5 q-34 -21.5 -53.5 -60 q-19.5 -38.5 -19.5 -85.5 q0 -47 19.5 -85.5 q19.5 -38.5 53.5 -60 q34 -21.5 76 -21.5 Z" /><glyph glyph-name="uni00B5" unicode="µ" d="M476 515 q26 0 43 -17.5 q17 -17.5 17 -43.5 l0 -393 q0 -26 -17 -43.5 q-17 -17.5 -43 -17.5 q-26 0 -43 17.5 q-17 17.5 -17 43.5 l0 18 q-14 -29 -50.5 -59 q-36.5 -30 -90.5 -30 q-17 0 -39.5 7.5 q-22.5 7.5 -35.5 22.5 l0 -120 q0 -29 -15 -44.5 q-15 -15.5 -44 -15.5 q-29 0 -44.5 15.5 q-15.5 15.5 -15.5 44.5 l-1 307 l0 247 q0 26 17 43.5 q17 17.5 43 17.5 q26 0 43 -17.5 q17 -17.5 17 -43.5 l0 -216 q0 -64 21.5 -101 q21.5 -37 75.5 -37 q56 0 87.5 39 q31.5 39 31.5 99 l0 216 q0 26 17 43.5 q17 17.5 43 17.5 Z" /><glyph glyph-name="percent" unicode="%" d="M194 320 q-47 0 -84.5 25.5 q-37.5 25.5 -58.5 70 q-21 44.5 -21 98.5 q0 55 21 99.5 q21 44.5 58 70 q37 25.5 85 25.5 q48 0 85 -25.5 q37 -25.5 57.5 -70 q20.5 -44.5 20.5 -99.5 q0 -54 -21.5 -98.5 q-21.5 -44.5 -59 -70 q-37.5 -25.5 -82.5 -25.5 ZM206 -2 q-18 0 -35 14 q-17 14 -17 35 q0 13 10 30 l398 601 q18 24 41 24 q18 0 35 -14 q17 -14 17 -35 q0 -13 -10 -30 l-398 -601 q-18 -24 -41 -24 ZM194 409 q29 0 46 29.5 q17 29.5 17 75.5 q0 47 -16.5 76 q-16.5 29 -46.5 29 q-29 0 -46.5 -29.5 q-17.5 -29.5 -17.5 -75.5 q0 -46 17 -75.5 q17 -29.5 47 -29.5 ZM623 -10 q-45 0 -82.5 25.5 q-37.5 25.5 -59.5 70 q-22 44.5 -22 98.5 q0 55 21 99.5 q21 44.5 58 70 q37 25.5 85 25.5 q48 0 85 -25.5 q37 -25.5 57.5 -70 q20.5 -44.5 20.5 -99.5 q0 -54 -21.5 -98.5 q-21.5 -44.5 -59 -70 q-37.5 -25.5 -82.5 -25.5 ZM623 79 q29 0 46 29.5 q17 29.5 17 75.5 q0 47 -16.5 76 q-16.5 29 -46.5 29 q-29 0 -46.5 -29.5 q-17.5 -29.5 -17.5 -75.5 q0 -46 17 -75.5 q17 -29.5 47 -29.5 Z" /><glyph glyph-name="perthousand" unicode="&#x2030;" d="M194 320 q-47 0 -84.5 25.5 q-37.5 25.5 -58.5 70 q-21 44.5 -21 98.5 q0 55 21 99.5 q21 44.5 58 70 q37 25.5 85 25.5 q48 0 85 -25.5 q37 -25.5 57.5 -70 q20.5 -44.5 20.5 -99.5 q0 -54 -21.5 -98.5 q-21.5 -44.5 -59 -70 q-37.5 -25.5 -82.5 -25.5 ZM202 -2 q-18 0 -35 14 q-17 14 -17 35 q0 13 10 30 l398 601 q18 24 41 24 q18 0 35 -14 q17 -14 17 -35 q0 -13 -10 -30 l-398 -601 q-18 -24 -41 -24 ZM194 409 q29 0 46 29.5 q17 29.5 17 75.5 q0 47 -16.5 76 q-16.5 29 -46.5 29 q-29 0 -46.5 -29.5 q-17.5 -29.5 -17.5 -75.5 q0 -46 17 -75.5 q17 -29.5 47 -29.5 ZM623 -10 q-45 0 -82.5 25.5 q-37.5 25.5 -59.5 70 q-22 44.5 -22 98.5 q0 55 21 99.5 q21 44.5 58 70 q37 25.5 85 25.5 q48 0 85 -25.5 q37 -25.5 57.5 -70 q20.5 -44.5 20.5 -99.5 q0 -54 -21.5 -98.5 q-21.5 -44.5 -59 -70 q-37.5 -25.5 -82.5 -25.5 ZM988 -10 q-45 0 -82.5 25.5 q-37.5 25.5 -59.5 70 q-22 44.5 -22 98.5 q0 55 21 99.5 q21 44.5 58 70 q37 25.5 85 25.5 q48 0 85 -25.5 q37 -25.5 57.5 -70 q20.5 -44.5 20.5 -99.5 q0 -54 -21.5 -98.5 q-21.5 -44.5 -59 -70 q-37.5 -25.5 -82.5 -25.5 ZM623 79 q29 0 46 29.5 q17 29.5 17 75.5 q0 47 -16.5 76 q-16.5 29 -46.5 29 q-29 0 -46.5 -29.5 q-17.5 -29.5 -17.5 -75.5 q0 -46 17 -75.5 q17 -29.5 47 -29.5 ZM988 79 q29 0 46 29.5 q17 29.5 17 75.5 q0 47 -16.5 76 q-16.5 29 -46.5 29 q-29 0 -46.5 -29.5 q-17.5 -29.5 -17.5 -75.5 q0 -46 17 -75.5 q17 -29.5 47 -29.5 Z" /><glyph glyph-name="lozenge" unicode="&#x25ca;" d="M306 -8 q-12 0 -24 6.5 q-12 6.5 -21 18.5 l-207 289 q-9 14 -9 27 q0 15 9 27 l205 289 q20 26 47 26 q13 0 25.5 -7 q12.5 -7 21.5 -19 l207 -289 q9 -12 9 -27 q0 -13 -9 -27 l-205 -288 q-19 -26 -49 -26 ZM303 118 q4 -4 8 0 l147 212 q2 3 0 6 l-147 211 q-4 4 -8 0 l-147 -211 q-1 -3 0 -6 l147 -212 Z" /><glyph glyph-name="at" unicode="@" d="M660 196 q-1 -6 -1 -16 q0 -24 11.5 -36 q11.5 -12 29.5 -12 q39 0 72 38.5 q33 38.5 53 100 q20 61.5 20 125.5 q0 70 -33 123.5 q-33 53.5 -94 83 q-61 29.5 -142 29.5 q-128 0 -232 -51 q-104 -51 -164 -147.5 q-60 -96.5 -60 -227.5 q0 -76 31 -142 q31 -66 97 -107 q66 -41 166 -41 q76 0 124 14.5 q48 14.5 101 44.5 q11 6 19 6 q20 0 30 -25 q3 -6 3 -12 q0 -22 -38 -42 q-61 -31 -113 -47.5 q-52 -16.5 -126 -16.5 q-128 0 -212 52 q-84 52 -123 135.5 q-39 83.5 -39 180.5 q0 152 71 266.5 q71 114.5 193 176 q122 61.5 272 61.5 q110 0 189 -42 q79 -42 119.5 -113 q40.5 -71 40.5 -159 q0 -84 -33 -162.5 q-33 -78.5 -94 -128.5 q-61 -50 -141 -50 q-41 0 -73.5 23 q-32.5 23 -40.5 59 q-47 -82 -148 -82 q-38 0 -72.5 20 q-34.5 20 -55.5 58 q-21 38 -21 87 q0 63 32.5 131 q32.5 68 88 113.5 q55.5 45.5 118.5 45.5 q34 0 61.5 -18.5 q27.5 -18.5 41.5 -51.5 l4 27 q3 16 16.5 28 q13.5 12 38.5 12 q54 0 54 -43 q0 -10 -1 -16 l-40 -252 ZM553 263 q16 48 16 80 q0 41 -22 59 q-22 18 -57 18 q-38 0 -68.5 -31 q-30.5 -31 -47 -77.5 q-16.5 -46.5 -16.5 -89.5 q0 -38 18 -57.5 q18 -19.5 50 -19.5 q32 0 58.5 19.5 q26.5 19.5 44 47 q17.5 27.5 24.5 51.5 Z" /><glyph glyph-name="ampersand" unicode="&amp;" d="M658 102 q14 -13 20 -25 q6 -12 6 -28 q0 -17 -13 -34 q-13 -17 -36 -17 q-22 0 -34 10 l-55 47 l-32 28 q-93 -93 -235 -93 q-69 0 -126.5 30.5 q-57.5 30.5 -90 81 q-32.5 50.5 -32.5 107.5 q0 148 147 213 q-19 26 -29 50 q-10 24 -10 51 q0 50 27 92.5 q27 42.5 76.5 68.5 q49.5 26 114.5 26 q69 0 124.5 -23.5 q55.5 -23.5 74.5 -60.5 q9 -18 9 -39 q0 -20 -14.5 -33.5 q-14.5 -13.5 -37.5 -13.5 q-26 0 -39 18 q-21 28 -49.5 40 q-28.5 12 -67.5 12 q-43 0 -67.5 -23 q-24.5 -23 -24.5 -58 q0 -32 24.5 -64.5 q24.5 -32.5 67.5 -74.5 q28 -28 28 -28 q32 -35 113 -112 q20 45 28 99 q2 17 13 25.5 q11 8.5 35 8.5 q23 0 38 -17.5 q15 -17.5 15 -42.5 l-1 -10 q-11 -75 -45 -140 q40 -35 78 -71 ZM307 103 q71 0 125 52 q-100 90 -166 166 l-18 21 q-54 -16 -75 -44 q-21 -28 -21 -71 q0 -51 37.5 -87.5 q37.5 -36.5 117.5 -36.5 Z" /><glyph glyph-name="paragraph" unicode="¶" d="M511 700 q18 0 29.5 -11.5 q11.5 -11.5 11.5 -29.5 l0 -613 q0 -23 -14 -34.5 q-14 -11.5 -30 -11.5 q-17 0 -31.5 11.5 q-14.5 11.5 -14.5 34.5 l0 579 l-63 0 l0 -554 q0 -69 -38 -101.5 q-38 -32.5 -97 -32.5 q-49 0 -76 15 q-12 6 -19 17.5 q-7 11.5 -7 24.5 q0 8 5 20 q12 22 36 22 q8 0 11 -1 q32 -8 45 -8 q50 0 50 64 l0 194 l-60 0 q-109 0 -161.5 49 q-52.5 49 -52.5 152 q0 111 63 162.5 q63 51.5 194 51.5 l219 0 Z" /><glyph glyph-name="section" unicode="§" d="M529 289 q0 -96 -77 -135 q22 -21 32.5 -46 q10.5 -25 10.5 -59 q0 -32 -18 -76 q-18 -44 -65.5 -78.5 q-47.5 -34.5 -129.5 -34.5 q-64 0 -130.5 21 q-66.5 21 -96.5 55 q-25 27 -25 62 q0 24 16.5 41 q16.5 17 41.5 17 q28 0 49 -24 q25 -30 56 -45.5 q31 -15.5 89 -15.5 q39 0 65 13 q26 13 26 39 q0 30 -42 47.5 q-42 17.5 -133 38.5 q-158 35 -158 167 q0 34 17.5 75.5 q17.5 41.5 65.5 65.5 q-35 36 -35 94 q0 68 35 115 q35 47 88 69 q53 22 104 19 q117 -9 181 -95 q2 -3 4.5 -13 q2.5 -10 2.5 -19 q0 -24 -16.5 -40.5 q-16.5 -16.5 -46.5 -14.5 q-7 0 -14 7 q-26 28 -59 43 q-33 15 -68 15 q-40 0 -64.5 -18 q-24.5 -18 -24.5 -47 q0 -57 133 -84 q92 -18 139 -58.5 q47 -40.5 47 -100.5 ZM173 289 q0 -37 59 -57 l108 -27 q28 -2 47.5 13.5 q19.5 15.5 19.5 42.5 q0 16 -9.5 28 q-9.5 12 -26.5 18 l-124 32 q-9 4 -22 4 q-22 0 -37 -14 q-15 -14 -15 -40 Z" /><glyph glyph-name="copyright" unicode="©" d="M390 -10 q-97 0 -180 48.5 q-83 48.5 -131.5 131.5 q-48.5 83 -48.5 180 q0 98 48.5 180.5 q48.5 82.5 131.5 131 q83 48.5 180 48.5 q97 0 180 -48.5 q83 -48.5 131.5 -131 q48.5 -82.5 48.5 -180.5 q0 -97 -48.5 -180 q-48.5 -83 -131.5 -131.5 q-83 -48.5 -180 -48.5 ZM390 64 q78 0 143.5 38.5 q65.5 38.5 104 104 q38.5 65.5 38.5 143.5 q0 78 -38.5 143.5 q-38.5 65.5 -104 104 q-65.5 38.5 -143.5 38.5 q-77 0 -143 -38.5 q-66 -38.5 -104.5 -104 q-38.5 -65.5 -38.5 -143.5 q0 -78 38.5 -143.5 q38.5 -65.5 104 -104 q65.5 -38.5 143.5 -38.5 ZM407 136 q-56 0 -107 26 q-51 26 -82.5 74.5 q-31.5 48.5 -31.5 113.5 q0 57 30 106.5 q30 49.5 81 78.5 q51 29 110 29 q55 0 100 -24 q11 -5 17 -15.5 q6 -10.5 6 -23.5 q0 -17 -9 -29 q-13 -16 -34 -16 q-11 0 -22 6 q-27 12 -58 12 q-35 0 -65.5 -17 q-30.5 -17 -48 -45.5 q-17.5 -28.5 -17.5 -61.5 q0 -38 18.5 -66 q18.5 -28 48.5 -43 q30 -15 64 -15 q30 0 58 12 q12 5 21 5 q22 0 35 -16 q10 -13 10 -30 q0 -12 -6 -22.5 q-6 -10.5 -17 -15.5 q-46 -23 -101 -23 Z" /><glyph glyph-name="registered" unicode="®" d="M245 710 q60 0 112 -30.5 q52 -30.5 82.5 -82.5 q30.5 -52 30.5 -112 q0 -61 -30.5 -113 q-30.5 -52 -82 -82 q-51.5 -30 -112.5 -30 q-62 0 -113.5 30 q-51.5 30 -81.5 81.5 q-30 51.5 -30 113.5 q0 61 30 112.5 q30 51.5 82 82 q52 30.5 113 30.5 ZM245 318 q45 0 83.5 22.5 q38.5 22.5 61 61 q22.5 38.5 22.5 83.5 q0 45 -22.5 83.5 q-22.5 38.5 -61 61 q-38.5 22.5 -83.5 22.5 q-45 0 -83.5 -22.5 q-38.5 -22.5 -61 -61 q-22.5 -38.5 -22.5 -83.5 q0 -45 22.5 -83.5 q22.5 -38.5 61 -61 q38.5 -22.5 83.5 -22.5 ZM330 399 q8 -6 8 -17 q0 -9 -6 -14 q-8 -7 -17 -7 q-8 0 -18 6 q-25 16 -25 59 q0 15 -7.5 22.5 q-7.5 7.5 -27.5 7.5 l-31 0 l0 -65 q0 -13 -7 -20.5 q-7 -7.5 -18 -7.5 q-12 0 -19 7.5 q-7 7.5 -7 20.5 l0 190 q0 8 6 14.5 q6 6.5 15 6.5 l85 0 q28 0 49 -21.5 q21 -21.5 21 -52.5 q0 -15 -11 -30.5 q-11 -15.5 -25 -24.5 q23 -19 25 -41 q1 -14 3 -21.5 q2 -7.5 7 -11.5 ZM250 499 q14 0 23.5 8 q9.5 8 9.5 20 q0 12 -9.5 19 q-9.5 7 -23.5 7 l-44 0 l0 -54 l44 0 Z" /><glyph glyph-name="trademark" unicode="&#x2122;" d="M680 700 q30 0 44 -9 q14 -9 14 -31 l0 -280 q0 -17 -15 -28.5 q-15 -11.5 -35 -11.5 q-22 0 -36 11.5 q-14 11.5 -14 28.5 l0 150 l-63 -112 q-12 -18 -44 -18 q-14 0 -23 5.5 q-9 5.5 -13 12.5 l-58 99 l0 -137 q-3 -18 -15.5 -29 q-12.5 -11 -33.5 -11 q-22 0 -35.5 11 q-13.5 11 -13.5 29 l0 280 q0 18 12.5 29 q12.5 11 31.5 11 q22 0 34 -6 q12 -6 22 -24 l96 -159 l93 159 q11 17 24 23.5 q13 6.5 28 6.5 ZM255 700 q17 0 28.5 -10.5 q11.5 -10.5 11.5 -30.5 q0 -49 -40 -49 l-53 0 l0 -220 q0 -18 -12.5 -29 q-12.5 -11 -34.5 -11 q-18 0 -31 11.5 q-13 11.5 -13 28.5 l0 220 l-51 0 q-18 0 -29 13.5 q-11 13.5 -11 35.5 q0 21 11 31 q11 10 29 10 l195 0 Z" /><glyph glyph-name="degree" unicode="°" d="M196 385 q-47 0 -85 22 q-38 22 -59.5 59.5 q-21.5 37.5 -21.5 80.5 q0 45 21.5 82 q21.5 37 59.5 59 q38 22 85 22 q48 0 86 -22 q38 -22 59.5 -59 q21.5 -37 21.5 -82 q0 -43 -21.5 -80.5 q-21.5 -37.5 -59.5 -59.5 q-38 -22 -86 -22 ZM196 465 q33 0 55 24.5 q22 24.5 22 57.5 q0 34 -21.5 58.5 q-21.5 24.5 -55.5 24.5 q-33 0 -54.5 -24 q-21.5 -24 -21.5 -59 q0 -33 21.5 -57.5 q21.5 -24.5 54.5 -24.5 Z" /><glyph glyph-name="bar" unicode="|" d="M184 -64 q0 -26 -17.5 -43.5 q-17.5 -17.5 -43.5 -17.5 q-25 0 -42 17.5 q-17 17.5 -17 43.5 l0 804 q0 26 17.5 43.5 q17.5 17.5 43.5 17.5 q25 0 42 -17.5 q17 -17.5 17 -43.5 l0 -804 Z" /><glyph glyph-name="brokenbar" unicode="¦" d="M189 467 q0 -26 -17.5 -43.5 q-17.5 -17.5 -43.5 -17.5 q-25 0 -42 17.5 q-17 17.5 -17 43.5 l0 273 q0 26 17.5 43.5 q17.5 17.5 43.5 17.5 q25 0 42 -17.5 q17 -17.5 17 -43.5 l0 -273 ZM189 -64 q0 -26 -17.5 -43.5 q-17.5 -17.5 -43.5 -17.5 q-25 0 -42 17.5 q-17 17.5 -17 43.5 l0 273 q0 26 17.5 43.5 q17.5 17.5 43.5 17.5 q25 0 42 -17.5 q17 -17.5 17 -43.5 l0 -273 Z" /><glyph glyph-name="dagger" unicode="&#x2020;" d="M366 593 q22 0 36.5 -14 q14.5 -14 14.5 -36 q0 -22 -14.5 -36 q-14.5 -14 -36.5 -14 l-76 0 l0 -202 q0 -26 -17 -43.5 q-17 -17.5 -43 -17.5 q-26 0 -43 17.5 q-17 17.5 -17 43.5 l0 202 l-74 0 q-22 0 -36.5 14 q-14.5 14 -14.5 36 q0 22 14.5 36 q14.5 14 36.5 14 l74 0 l0 76 q0 26 17 43.5 q17 17.5 43 17.5 q26 0 43 -17.5 q17 -17.5 17 -43.5 l0 -76 l76 0 Z" /><glyph glyph-name="uni2113" unicode="&#x2113;" d="M479 43 q-64 -55 -159 -55 q-88 0 -133.5 46 q-45.5 46 -45.5 134 l0 8 q0 6 -6 4 l-9 -4 q-13 -5 -24 -5 q-18 0 -33 11 q-15 11 -22 30 q-2 4 -2 14 q0 15 11 28.5 q11 13.5 31 21.5 q23 9 50 23 q4 1 4 6 l0 162 q0 93 41.5 152 q41.5 59 133.5 59 q79 0 123 -46.5 q44 -46.5 44 -119.5 q0 -73 -49.5 -141.5 q-49.5 -68.5 -159.5 -126.5 q-4 -1 -4 -6 l0 -64 q0 -67 64 -67 q32 0 61 20 q24 16 45 16 q21 0 36 -15 q21 -19 21 -46 q0 -22 -18 -39 ZM270 383 q0 -4 2 -4.5 q2 -0.5 4 1.5 q43 32 64 67.5 q21 35.5 21 67.5 q0 26 -11.5 40.5 q-11.5 14.5 -32.5 14.5 q-25 0 -36 -19.5 q-11 -19.5 -11 -51.5 l0 -116 Z" /><glyph glyph-name="daggerdbl" unicode="&#x2021;" d="M316 475 q22 0 36.5 -14 q14.5 -14 14.5 -36 q0 -22 -14.5 -36 q-14.5 -14 -36.5 -14 l-46 0 l0 -115 q0 -26 -17 -43.5 q-17 -17.5 -43 -17.5 q-26 0 -43 17.5 q-17 17.5 -17 43.5 l0 115 l-54 0 q-22 0 -36.5 14 q-14.5 14 -14.5 36 q0 22 14.5 36 q14.5 14 36.5 14 l54 0 l0 40 l-54 0 q-22 0 -36.5 14 q-14.5 14 -14.5 36 q0 22 14.5 36 q14.5 14 36.5 14 l54 0 l0 57 q0 26 17 43.5 q17 17.5 43 17.5 q26 0 43 -17.5 q17 -17.5 17 -43.5 l0 -57 l46 0 q22 0 36.5 -14 q14.5 -14 14.5 -36 q0 -22 -14.5 -36 q-14.5 -14 -36.5 -14 l-46 0 l0 -40 l46 0 Z" /><glyph glyph-name="estimated" unicode="&#x212e;" d="M600 315 q1 -11 -6 -18 q-7 -7 -18 -7 l-414 0 l0 -193 q0 -4 3 -7 q64 -61 155 -61 q64 0 111.5 26.5 q47.5 26.5 85.5 83.5 q8 12 19 12 q8 0 15 -5.5 q7 -5.5 7 -15.5 q0 -7 -5 -15 q-47 -67 -100.5 -96 q-53.5 -29 -132.5 -29 q-83 0 -147 39.5 q-64 39.5 -98.5 108 q-34.5 68.5 -34.5 152.5 q0 84 34.5 152.5 q34.5 68.5 98 108 q63.5 39.5 147.5 39.5 q78 0 140 -34.5 q62 -34.5 98.5 -97 q36.5 -62.5 41.5 -143.5 ZM165 490 q-3 -3 -3 -7 l0 -154 l317 0 l0 154 q0 5 -3 6 q-67 63 -157 63 q-92 0 -154 -62 Z" /><glyph glyph-name="uni2116" unicode="&#x2116;" d="M604 700 q24 0 40 -16 q16 -16 16 -40 l0 -583 q0 -26 -17.5 -43.5 q-17.5 -17.5 -43.5 -17.5 q-14 0 -27.5 4.5 q-13.5 4.5 -19.5 12.5 l-363 461 l0 -422 q0 -24 -16.5 -40 q-16.5 -16 -41.5 -16 q-24 0 -40 16 q-16 16 -16 40 l0 583 q0 26 17.5 43.5 q17.5 17.5 43.5 17.5 q15 0 29.5 -6 q14.5 -6 21.5 -16 l359 -458 l0 424 q0 24 16.5 40 q16.5 16 41.5 16 ZM962 240 q-61 0 -111.5 29 q-50.5 29 -80.5 81 q-30 52 -30 117 q0 65 30 117.5 q30 52.5 80.5 81.5 q50.5 29 111.5 29 q64 0 117 -29 q53 -29 84 -81 q31 -52 31 -118 q0 -65 -31 -117 q-31 -52 -84 -81 q-53 -29 -117 -29 ZM962 585 q-43 0 -72.5 -33 q-29.5 -33 -29.5 -85 q0 -52 29.5 -84.5 q29.5 -32.5 72.5 -32.5 q47 0 79.5 32.5 q32.5 32.5 32.5 84.5 q0 52 -32.5 85 q-32.5 33 -79.5 33 ZM1133 184 q23 0 38 -15.5 q15 -15.5 15 -38.5 q0 -25 -15 -40.5 q-15 -15.5 -38 -15.5 l-330 0 q-23 0 -38 15.5 q-15 15.5 -15 40.5 q0 23 15 38.5 q15 15.5 38 15.5 l330 0 Z" /><glyph glyph-name="asciicircum" unicode="^" d="M549 427 q2 -4 8 -13 q6 -9 9 -17 q3 -8 3 -15 q0 -25 -19 -44 q-19 -19 -45 -19 q-34 0 -45 19 l-150 244 l-152 -244 q-13 -19 -45 -19 q-25 0 -44 18.5 q-19 18.5 -19 44.5 q0 10 4 18.5 q4 8.5 9 17 q5 8.5 7 10.5 l157 257 q11 18 30 23.5 q19 5.5 51 5.5 q34 0 53 -6 q19 -6 30 -23 l158 -258 Z" /><glyph glyph-name="uni0308" unicode="&#x308;" d="M-313 600 q-31 0 -45 11.5 q-14 11.5 -14 38.5 l0 18 q0 27 14.5 38.5 q14.5 11.5 44.5 11.5 q36 0 50 -11 q14 -11 14 -39 l0 -18 q0 -29 -14.5 -39.5 q-14.5 -10.5 -49.5 -10.5 ZM-114 600 q-31 0 -45 11.5 q-14 11.5 -14 38.5 l0 18 q0 28 15 39 q15 11 46 11 q33 0 47.5 -11.5 q14.5 -11.5 14.5 -38.5 l0 -18 q0 -29 -14.5 -39.5 q-14.5 -10.5 -49.5 -10.5 Z" /><glyph glyph-name="uni0307" unicode="&#x307;" d="M-114 600 q-34 0 -48 11 q-14 11 -14 39 l0 19 q0 28 15 39 q15 11 48 11 q35 0 49 -11 q14 -11 14 -39 l0 -19 q0 -29 -14.5 -39.5 q-14.5 -10.5 -49.5 -10.5 Z" /><glyph glyph-name="gravecomb" unicode="&#x300;" d="M-86 570 q-11 0 -23 6 l-100 53 q-18 10 -27.5 24 q-9.5 14 -9.5 29 q0 21 17 35 q17 14 36 14 q23 0 49 -22 l86 -76 q14 -13 14 -27 q0 -16 -11.5 -26 q-11.5 -10 -30.5 -10 Z" /><glyph glyph-name="acutecomb" unicode="&#x301;" d="M-176 599 q-10 0 -21.5 9 q-11.5 9 -10.5 24 q0 9 6 19 l58 102 q10 18 24 29 q14 11 31 11 q27 0 40.5 -14 q13.5 -14 12.5 -36 q-2 -23 -19 -43 l-76 -84 q-16 -17 -45 -17 Z" /><glyph glyph-name="uni030B" unicode="&#x30b;" d="M-357 597 q-15 0 -24 9 q-9 9 -9 21 q0 14 12 33 l41 64 q20 30 52 30 q20 0 36 -12 q16 -12 16 -36 q0 -17 -18 -34 l-49 -47 q-16 -16 -27.5 -22 q-11.5 -6 -29.5 -6 ZM-175 597 q-13 0 -23 7.5 q-10 7.5 -10 18.5 q0 17 13 37 l42 65 q9 14 19.5 20 q10.5 6 27.5 6 q22 0 39 -10.5 q17 -10.5 17 -33.5 q0 -18 -18 -35 l-50 -47 q-16 -16 -27.5 -22 q-11.5 -6 -29.5 -6 Z" /><glyph glyph-name="uni0302" unicode="&#x302;" d="M-77 655 q8 -10 10 -16 q2 -6 2 -15 q0 -10 -8.5 -17.5 q-8.5 -7.5 -21.5 -7.5 q-15 0 -22.5 4 q-7.5 4 -15 10.5 q-7.5 6.5 -11.5 9.5 l-53 47 l-57 -47 q-4 -3 -12.5 -10.5 q-8.5 -7.5 -16.5 -10.5 q-8 -3 -20 -3 q-13 0 -21.5 7.5 q-8.5 7.5 -8.5 17.5 q0 9 2 15 q2 6 10 16 l49 62 q23 29 61 29 l36 0 q20 0 31.5 -6 q11.5 -6 22.5 -23 l44 -62 Z" /><glyph glyph-name="uni030C" unicode="&#x30c;" d="M-84 746 q13 0 23 -7.5 q10 -7.5 10 -18.5 q0 -16 -16 -35 l-44 -55 q-12 -16 -26.5 -23 q-14.5 -7 -34.5 -7 l-36 0 q-20 0 -34.5 7 q-14.5 7 -26.5 23 l-44 55 q-12 16 -12 32 q0 13 10.5 21 q10.5 8 30.5 8 q18 0 45 -23 l50 -43 l50 43 q16 13 26.5 18 q10.5 5 28.5 5 Z" /><glyph glyph-name="uni0306" unicode="&#x306;" d="M-213 571 q-57 0 -98.5 24 q-41.5 24 -59.5 69 q-5 13 -5 22 q0 15 9.5 24 q9.5 9 24.5 9 q20 0 32.5 -8.5 q12.5 -8.5 27.5 -27.5 q24 -27 69 -27 q45 0 69 27 q15 19 27.5 27.5 q12.5 8.5 32.5 8.5 q15 0 24.5 -8.5 q9.5 -8.5 9.5 -23.5 q0 -10 -4 -21 q-19 -46 -60.5 -70.5 q-41.5 -24.5 -98.5 -24.5 Z" /><glyph glyph-name="uni030A" unicode="&#x30a;" d="M-164 570 q-30 0 -56 15 q-26 15 -42 40 q-16 25 -16 54 q0 46 34 78.5 q34 32.5 80 32.5 q46 0 80 -32.5 q34 -32.5 34 -78.5 q0 -29 -16 -54 q-16 -25 -42 -40 q-26 -15 -56 -15 ZM-164 640 q19 0 31.5 11 q12.5 11 12.5 28 q0 20 -13 30.5 q-13 10.5 -31 10.5 q-19 0 -31.5 -11 q-12.5 -11 -12.5 -30 q0 -17 12.5 -28 q12.5 -11 31.5 -11 Z" /><glyph glyph-name="tildecomb" unicode="&#x303;" d="M-363 590 q-23 0 -39 18.5 q-16 18.5 -16 49.5 q0 35 32 61.5 q32 26.5 91 26.5 q26 0 47.5 -10.5 q21.5 -10.5 49.5 -29.5 q17 -13 28.5 -19 q11.5 -6 21.5 -6 q11 0 17 6 q6 6 3 15 q-2 5 -2 14 q0 16 10.5 25.5 q10.5 9.5 26.5 9.5 q23 0 39 -18 q16 -18 16 -48 q0 -19 -12 -40 q-12 -21 -37.5 -35.5 q-25.5 -14.5 -64.5 -14.5 q-20 0 -42 10 q-22 10 -52 28 q-24 14 -37.5 20.5 q-13.5 6.5 -24.5 6.5 q-11 0 -17 -6 q-6 -6 -3 -15 q2 -5 2 -14 q0 -16 -10.5 -25.5 q-10.5 -9.5 -26.5 -9.5 Z" /><glyph glyph-name="uni0304" unicode="&#x304;" d="M-342 600 q-24 0 -37 11.5 q-13 11.5 -13 33.5 q0 21 13 32.5 q13 11.5 37 11.5 l242 0 q24 0 37 -11.5 q13 -11.5 13 -32.5 q0 -45 -50 -45 l-242 0 Z" /><glyph glyph-name="hookabovecomb" unicode="&#x309;" d="M-246 743 q18 14 36 21.5 q18 7.5 43 7.5 q56 0 79.5 -26.5 q23.5 -26.5 23.5 -60.5 q0 -16 -4.5 -28.5 q-4.5 -12.5 -14.5 -25.5 q-2 -3 -9.5 -12 q-7.5 -9 -11 -15 q-3.5 -6 -3.5 -11 q0 -12 -10 -20 q-10 -8 -24 -8 q-14 0 -24 8 q-10 8 -10 20 q0 18 16 39 q23 31 23 43 q0 12 -10 19.5 q-10 7.5 -24 7.5 q-11 0 -20 -4.5 q-9 -4.5 -22 -12.5 q-10 -6 -16 -6 q-12 0 -25 13 q-9 9 -9 21 q0 16 16 30 Z" /><glyph glyph-name="uni030F" unicode="&#x30f;" d="M-272 600 q-11 0 -23 6 l-100 53 q-18 10 -27.5 24 q-9.5 14 -9.5 29 q0 21 17 35 q17 14 36 14 q23 0 49 -22 l86 -76 q14 -13 14 -27 q0 -16 -11.5 -26 q-11.5 -10 -30.5 -10 ZM-86 600 q-11 0 -23 6 l-100 53 q-18 10 -27.5 24 q-9.5 14 -9.5 29 q0 21 17 35 q17 14 36 14 q23 0 49 -22 l86 -76 q14 -13 14 -27 q0 -16 -11.5 -26 q-11.5 -10 -30.5 -10 Z" /><glyph glyph-name="uni0311" unicode="&#x311;" d="M-213 748 q57 0 98.5 -24 q41.5 -24 59.5 -69 q5 -13 5 -22 q0 -15 -9.5 -24 q-9.5 -9 -24.5 -9 q-20 0 -32.5 8.5 q-12.5 8.5 -27.5 27.5 q-24 27 -69 27 q-45 0 -69 -27 q-15 -19 -27.5 -27.5 q-12.5 -8.5 -32.5 -8.5 q-15 0 -24.5 8.5 q-9.5 8.5 -9.5 23.5 q0 10 4 21 q19 46 60.5 70.5 q41.5 24.5 98.5 24.5 Z" /><glyph glyph-name="uni031B" unicode="&#x31b;" d="M-201 502 q40 0 62.5 15.5 q22.5 15.5 22.5 46.5 q0 20 13.5 36.5 q13.5 16.5 37.5 16.5 q25 0 37 -16.5 q12 -16.5 12 -36.5 q0 -71 -46 -116.5 q-46 -45.5 -139 -45.5 l0 100 Z" /><glyph glyph-name="dotbelowcomb" unicode="&#x323;" d="M-115 -160 q-33 0 -47 11 q-14 11 -14 39 l0 19 q0 28 15 39 q15 11 46 11 q37 0 51 -11 q14 -11 14 -39 l0 -19 q0 -29 -15 -39.5 q-15 -10.5 -50 -10.5 Z" /><glyph glyph-name="uni0324" unicode="&#x324;" d="M-313 -159 q-31 0 -45 11.5 q-14 11.5 -14 38.5 l0 18 q0 27 14.5 38.5 q14.5 11.5 44.5 11.5 q36 0 50 -11 q14 -11 14 -39 l0 -18 q0 -29 -14.5 -39.5 q-14.5 -10.5 -49.5 -10.5 ZM-114 -159 q-31 0 -45 11.5 q-14 11.5 -14 38.5 l0 18 q0 28 15 39 q15 11 46 11 q33 0 47.5 -11.5 q14.5 -11.5 14.5 -38.5 l0 -18 q0 -29 -14.5 -39.5 q-14.5 -10.5 -49.5 -10.5 Z" /><glyph glyph-name="uni0326" unicode="&#x326;" d="M-58 -158 q0 -23 -17 -58 q-17 -35 -44 -61 q-27 -26 -56 -26 q-22 0 -35 9.5 q-13 9.5 -13 30.5 q0 16 8 22.5 q8 6.5 17.5 9.5 q9.5 3 13.5 5 q28 15 28 40 q0 11 -10.5 19.5 q-10.5 8.5 -27.5 8.5 q-17 0 -28 -7 q-12 5 -18.5 13 q-6.5 8 -6.5 24 q0 20 15 37.5 q15 17.5 37 28 q22 10.5 43 10.5 q44 0 69 -27.5 q25 -27.5 25 -78.5 Z" /><glyph glyph-name="uni0327" unicode="&#x327;" d="M-146 -151 q-19 0 -42 13 q-23 13 -23 33 q0 15 12 30 l78 105 l71 0 l-55 -149 q-12 -32 -41 -32 Z" /><glyph glyph-name="uni032E" unicode="&#x32e;" d="M-213 -172 q-57 0 -98.5 24 q-41.5 24 -59.5 69 q-5 13 -5 22 q0 15 9.5 24 q9.5 9 24.5 9 q20 0 32.5 -8.5 q12.5 -8.5 27.5 -27.5 q24 -27 69 -27 q45 0 69 27 q15 19 27.5 27.5 q12.5 8.5 32.5 8.5 q15 0 24.5 -8.5 q9.5 -8.5 9.5 -23.5 q0 -10 -4 -21 q-19 -46 -60.5 -70.5 q-41.5 -24.5 -98.5 -24.5 Z" /><glyph glyph-name="uni0331" unicode="&#x331;" d="M-342 -147 q-24 0 -37 11.5 q-13 11.5 -13 33.5 q0 21 13 32.5 q13 11.5 37 11.5 l242 0 q24 0 37 -11.5 q13 -11.5 13 -32.5 q0 -45 -50 -45 l-242 0 Z" /><glyph glyph-name="uni0335" unicode="&#x335;" d="M-285 254 q-26 0 -43.5 15.5 q-17.5 15.5 -17.5 40.5 q0 23 17.5 38.5 q17.5 15.5 43.5 15.5 l174 0 q26 0 43.5 -15.5 q17.5 -15.5 17.5 -38.5 q0 -25 -17.5 -40.5 q-17.5 -15.5 -43.5 -15.5 l-174 0 Z" /><glyph glyph-name="uni02BC" unicode="&#x2bc;" d="M50 652 q4 48 52 48 l31 0 q22 0 33.5 -9.5 q11.5 -9.5 11.5 -26.5 q0 -10 -4 -21 l-68 -209 q-12 -33 -43 -33 q-16 0 -23.5 10.5 q-7.5 10.5 -5.5 30.5 l16 210 Z" /><glyph glyph-name="uni02C9" unicode="&#x2c9;" d="M111 585 q-26 0 -43.5 16.5 q-17.5 16.5 -17.5 41.5 q0 25 17.5 41 q17.5 16 43.5 16 l294 0 q26 0 43.5 -16 q17.5 -16 17.5 -41 q0 -25 -17.5 -41.5 q-17.5 -16.5 -43.5 -16.5 l-294 0 Z" /><glyph glyph-name="uni02CB" unicode="&#x2cb;" d="M178 442 q2 -20 -5.5 -30.5 q-7.5 -10.5 -23.5 -10.5 q-31 0 -43 33 l-68 209 q-4 11 -4 21 q0 17 11.5 26.5 q11.5 9.5 33.5 9.5 l31 0 q48 0 52 -48 l16 -210 Z" /><glyph glyph-name="uni02BF" unicode="&#x2bf;" d="M172 636 q0 -15 -8.5 -25.5 q-8.5 -10.5 -24.5 -10.5 q-30 0 -56 15 q-26 15 -42 40 q-16 25 -16 54 q0 45 33.5 77.5 q33.5 32.5 78.5 33.5 q14 0 23.5 -10 q9.5 -10 9.5 -24 q0 -36 -31 -36 q-18 0 -31 -10.5 q-13 -10.5 -13 -30.5 q0 -17 12.5 -28 q12.5 -11 31.5 -11 q14 0 23.5 -10 q9.5 -10 9.5 -24 Z" /><glyph glyph-name="uni02BE" unicode="&#x2be;" d="M25 636 q0 14 9.5 24 q9.5 10 23.5 10 q19 0 31.5 11 q12.5 11 12.5 28 q0 20 -13 30.5 q-13 10.5 -31 10.5 q-31 0 -31 36 q0 14 9.5 24 q9.5 10 23.5 10 q45 -1 78.5 -33.5 q33.5 -32.5 33.5 -77.5 q0 -29 -16 -54 q-16 -25 -42 -40 q-26 -15 -56 -15 q-16 0 -24.5 10.5 q-8.5 10.5 -8.5 25.5 Z" /><glyph glyph-name="uni02CC" unicode="&#x2cc;" d="M184 -64 q0 -26 -17.5 -43.5 q-17.5 -17.5 -43.5 -17.5 q-25 0 -42 17.5 q-17 17.5 -17 43.5 l0 231 q0 26 17.5 43.5 q17.5 17.5 43.5 17.5 q25 0 42 -17.5 q17 -17.5 17 -43.5 l0 -231 Z" /><glyph glyph-name="uni02C8" unicode="&#x2c8;" d="M184 408 q0 -26 -17.5 -43.5 q-17.5 -17.5 -43.5 -17.5 q-25 0 -42 17.5 q-17 17.5 -17 43.5 l0 231 q0 26 17.5 43.5 q17.5 17.5 43.5 17.5 q25 0 42 -17.5 q17 -17.5 17 -43.5 l0 -231 Z" /><glyph glyph-name="acute" unicode="´" d="M85 593 q-10 0 -21.5 9 q-11.5 9 -10.5 24 q0 9 6 19 l58 102 q10 18 24 29 q14 11 31 11 q27 0 40.5 -14 q13.5 -14 12.5 -36 q-2 -23 -19 -43 l-76 -84 q-16 -17 -45 -17 Z" /><glyph glyph-name="breve" unicode="&#x2d8;" d="M213 600 q-57 0 -98.5 24 q-41.5 24 -59.5 69 q-5 13 -5 22 q0 15 9.5 24 q9.5 9 24.5 9 q20 0 32.5 -8.5 q12.5 -8.5 27.5 -27.5 q24 -27 69 -27 q45 0 69 27 q15 19 27.5 27.5 q12.5 8.5 32.5 8.5 q15 0 24.5 -8.5 q9.5 -8.5 9.5 -23.5 q0 -10 -4 -21 q-19 -46 -60.5 -70.5 q-41.5 -24.5 -98.5 -24.5 Z" /><glyph glyph-name="caron" unicode="&#x2c7;" d="M291 746 q13 0 23 -7.5 q10 -7.5 10 -18.5 q0 -16 -16 -35 l-44 -55 q-12 -16 -26.5 -23 q-14.5 -7 -34.5 -7 l-36 0 q-20 0 -34.5 7 q-14.5 7 -26.5 23 l-44 55 q-12 16 -12 32 q0 13 10.5 21 q10.5 8 30.5 8 q18 0 45 -23 l50 -43 l50 43 q16 13 26.5 18 q10.5 5 28.5 5 Z" /><glyph glyph-name="cedilla" unicode="¸" d="M115 -151 q-19 0 -42 13 q-23 13 -23 33 q0 15 12 30 l78 105 l71 0 l-55 -149 q-12 -32 -41 -32 Z" /><glyph glyph-name="circumflex" unicode="&#x2c6;" d="M306 655 q8 -10 10 -16 q2 -6 2 -15 q0 -10 -8.5 -17.5 q-8.5 -7.5 -21.5 -7.5 q-15 0 -22.5 4 q-7.5 4 -15 10.5 q-7.5 6.5 -11.5 9.5 l-53 47 l-57 -47 q-4 -3 -12.5 -10.5 q-8.5 -7.5 -16.5 -10.5 q-8 -3 -20 -3 q-13 0 -21.5 7.5 q-8.5 7.5 -8.5 17.5 q0 9 2 15 q2 6 10 16 l49 62 q23 29 61 29 l36 0 q20 0 31.5 -6 q11.5 -6 22.5 -23 l44 -62 Z" /><glyph glyph-name="dieresis" unicode="¨" d="M109 600 q-31 0 -45 11.5 q-14 11.5 -14 38.5 l0 18 q0 27 14.5 38.5 q14.5 11.5 44.5 11.5 q36 0 50 -11 q14 -11 14 -39 l0 -18 q0 -29 -14.5 -39.5 q-14.5 -10.5 -49.5 -10.5 ZM308 600 q-31 0 -45 11.5 q-14 11.5 -14 38.5 l0 18 q0 28 15 39 q15 11 46 11 q33 0 47.5 -11.5 q14.5 -11.5 14.5 -38.5 l0 -18 q0 -29 -14.5 -39.5 q-14.5 -10.5 -49.5 -10.5 Z" /><glyph glyph-name="dotaccent" unicode="&#x2d9;" d="M111 600 q-33 0 -47 11 q-14 11 -14 39 l0 19 q0 28 15 39 q15 11 46 11 q37 0 51 -11 q14 -11 14 -39 l0 -19 q0 -29 -15 -39.5 q-15 -10.5 -50 -10.5 Z" /><glyph glyph-name="grave" unicode="`" d="M173 600 q-11 0 -23 6 l-100 53 q-18 10 -27.5 24 q-9.5 14 -9.5 29 q0 21 17 35 q17 14 36 14 q23 0 49 -22 l86 -76 q14 -13 14 -27 q0 -16 -11.5 -26 q-11.5 -10 -30.5 -10 Z" /><glyph glyph-name="hungarumlaut" unicode="&#x2dd;" d="M82 594 q-14 0 -23 9.5 q-9 9.5 -9 21.5 q0 16 12 35 l41 64 q16 27 41 27 q25 0 44 -13 q19 -13 19 -32 q0 -17 -18 -34 l-49 -47 q-18 -17 -29 -24 q-11 -7 -29 -7 ZM264 594 q-14 0 -23 9 q-9 9 -9 21 q0 16 13 36 l42 65 q17 26 40 26 q25 0 44 -13 q19 -13 19 -32 q0 -17 -18 -34 l-50 -47 q-18 -17 -29 -24 q-11 -7 -29 -7 Z" /><glyph glyph-name="macron" unicode="¯" d="M100 600 q-24 0 -37 11.5 q-13 11.5 -13 33.5 q0 21 13 32.5 q13 11.5 37 11.5 l242 0 q24 0 37 -11.5 q13 -11.5 13 -32.5 q0 -45 -50 -45 l-242 0 Z" /><glyph glyph-name="ogonek" unicode="&#x2db;" d="M156 -207 q-53 0 -86.5 27 q-33.5 27 -33.5 80 q0 72 51 106.5 q51 34.5 132 56.5 l46 -11 q4 -8 4 -17 q0 -12 -6.5 -22.5 q-6.5 -10.5 -21.5 -14.5 q-48 -14 -77 -33 q-29 -19 -29 -43 q0 -17 9 -26.5 q9 -9.5 22 -9.5 q12 0 21 12 q14 18 41 18 q19 0 31.5 -13 q12.5 -13 12.5 -35 q0 -16 -16.5 -34 q-16.5 -18 -43.5 -29.5 q-27 -11.5 -56 -11.5 Z" /><glyph glyph-name="ring" unicode="&#x2da;" d="M164 600 q-30 0 -56 15 q-26 15 -42 40 q-16 25 -16 54 q0 46 34 78.5 q34 32.5 80 32.5 q46 0 80 -32.5 q34 -32.5 34 -78.5 q0 -29 -16 -54 q-16 -25 -42 -40 q-26 -15 -56 -15 ZM164 670 q19 0 31.5 11 q12.5 11 12.5 28 q0 20 -13 30.5 q-13 10.5 -31 10.5 q-19 0 -31.5 -11 q-12.5 -11 -12.5 -30 q0 -17 12.5 -28 q12.5 -11 31.5 -11 Z" /><glyph glyph-name="tilde" unicode="&#x2dc;" d="M306 595 q-20 0 -41.5 9.5 q-21.5 9.5 -52.5 26.5 q-22 13 -36.5 19.5 q-14.5 6.5 -25.5 6.5 q-11 0 -17 -6 q-6 -6 -3 -15 q2 -5 2 -14 q0 -16 -10.5 -25.5 q-10.5 -9.5 -26.5 -9.5 q-23 0 -39 19.5 q-16 19.5 -16 51.5 q0 35 32 61.5 q32 26.5 91 26.5 q20 0 40 -9 q20 -9 49 -27 q20 -13 33.5 -19.5 q13.5 -6.5 24.5 -6.5 q11 0 17 6 q6 6 3 15 q-2 5 -2 14 q0 16 10.5 25.5 q10.5 9.5 26.5 9.5 q23 0 39 -19.5 q16 -19.5 16 -49.5 q0 -19 -12 -40 q-12 -21 -37.5 -35.5 q-25.5 -14.5 -64.5 -14.5 Z" /></font>
</defs>
</svg>
